<svg width="1189" height="961" viewBox="0 0 1189 961" fill="none" xmlns="http://www.w3.org/2000/svg">
<rect width="1189" height="961" rx="21.2714" fill="#0E0E0E"/>
<path d="M198.187 97.7913L198.187 659.356" stroke="#54FF8E" stroke-width="4.87469"/>
<path d="M199.9 657L1085.9 657" stroke="#54FF8E" stroke-width="4.87469"/>
<rect x="265.9" y="475" width="104" height="180" fill="#0075FF"/>
<rect x="407.9" y="475" width="104" height="180" fill="#6FE5FF"/>
<rect x="541.9" y="570" width="104" height="85" fill="#FFC3E0"/>
<rect x="682.9" y="586" width="104" height="74" fill="#FFEF9C"/>
<rect x="816.9" y="623" width="104" height="32" fill="#CF2C84"/>
<path d="M125.349 134.767V122.43L122.945 122.983V121.324L126.242 119.877H127.689V134.767H125.349ZM136.67 135.023C135.323 135.023 134.16 134.703 133.181 134.065C132.217 133.413 131.473 132.512 130.948 131.364C130.437 130.201 130.182 128.854 130.182 127.322C130.182 125.791 130.437 124.451 130.948 123.302C131.473 122.139 132.217 121.239 133.181 120.601C134.16 119.948 135.323 119.622 136.67 119.622C138.017 119.622 139.173 119.948 140.137 120.601C141.102 121.239 141.839 122.139 142.349 123.302C142.874 124.451 143.136 125.791 143.136 127.322C143.136 128.854 142.874 130.201 142.349 131.364C141.839 132.512 141.102 133.413 140.137 134.065C139.173 134.703 138.017 135.023 136.67 135.023ZM136.67 133.002C137.478 133.002 138.194 132.775 138.818 132.321C139.457 131.867 139.953 131.215 140.307 130.364C140.662 129.513 140.839 128.499 140.839 127.322C140.839 126.145 140.662 125.131 140.307 124.28C139.953 123.43 139.457 122.777 138.818 122.323C138.194 121.87 137.478 121.643 136.67 121.643C135.847 121.643 135.124 121.87 134.5 122.323C133.876 122.777 133.387 123.43 133.033 124.28C132.678 125.131 132.501 126.145 132.501 127.322C132.501 128.499 132.678 129.513 133.033 130.364C133.387 131.215 133.876 131.867 134.5 132.321C135.124 132.775 135.847 133.002 136.67 133.002ZM151.606 135.023C150.258 135.023 149.096 134.703 148.117 134.065C147.153 133.413 146.408 132.512 145.884 131.364C145.373 130.201 145.118 128.854 145.118 127.322C145.118 125.791 145.373 124.451 145.884 123.302C146.408 122.139 147.153 121.239 148.117 120.601C149.096 119.948 150.258 119.622 151.606 119.622C152.953 119.622 154.109 119.948 155.073 120.601C156.037 121.239 156.775 122.139 157.285 123.302C157.81 124.451 158.072 125.791 158.072 127.322C158.072 128.854 157.81 130.201 157.285 131.364C156.775 132.512 156.037 133.413 155.073 134.065C154.109 134.703 152.953 135.023 151.606 135.023ZM151.606 133.002C152.414 133.002 153.13 132.775 153.754 132.321C154.392 131.867 154.889 131.215 155.243 130.364C155.598 129.513 155.775 128.499 155.775 127.322C155.775 126.145 155.598 125.131 155.243 124.28C154.889 123.43 154.392 122.777 153.754 122.323C153.13 121.87 152.414 121.643 151.606 121.643C150.783 121.643 150.06 121.87 149.436 122.323C148.812 122.777 148.323 123.43 147.968 124.28C147.614 125.131 147.436 126.145 147.436 127.322C147.436 128.499 147.614 129.513 147.968 130.364C148.323 131.215 148.812 131.867 149.436 132.321C150.06 132.775 150.783 133.002 151.606 133.002ZM163.457 126.982C162.79 126.982 162.188 126.833 161.649 126.535C161.124 126.237 160.706 125.819 160.394 125.28C160.082 124.727 159.926 124.068 159.926 123.302C159.926 122.55 160.082 121.905 160.394 121.366C160.706 120.813 161.131 120.388 161.67 120.09C162.209 119.792 162.812 119.643 163.478 119.643C164.131 119.643 164.719 119.792 165.244 120.09C165.783 120.388 166.208 120.813 166.52 121.366C166.832 121.905 166.988 122.55 166.988 123.302C166.988 124.068 166.832 124.727 166.52 125.28C166.208 125.819 165.783 126.237 165.244 126.535C164.719 126.833 164.123 126.982 163.457 126.982ZM162.393 134.767L170.923 119.877H173.135L164.627 134.767H162.393ZM163.457 125.365C163.911 125.365 164.301 125.195 164.627 124.855C164.967 124.5 165.137 123.983 165.137 123.302C165.137 122.621 164.974 122.111 164.648 121.77C164.322 121.416 163.925 121.239 163.457 121.239C163.003 121.239 162.606 121.416 162.266 121.77C161.925 122.111 161.755 122.621 161.755 123.302C161.755 123.983 161.918 124.5 162.245 124.855C162.585 125.195 162.989 125.365 163.457 125.365ZM172.2 135.023C171.533 135.023 170.93 134.874 170.391 134.576C169.867 134.278 169.448 133.86 169.136 133.321C168.824 132.768 168.668 132.108 168.668 131.343C168.668 130.591 168.824 129.939 169.136 129.386C169.448 128.833 169.874 128.407 170.413 128.109C170.952 127.812 171.554 127.663 172.221 127.663C172.873 127.663 173.462 127.812 173.986 128.109C174.525 128.407 174.951 128.833 175.263 129.386C175.575 129.939 175.731 130.591 175.731 131.343C175.731 132.108 175.575 132.768 175.263 133.321C174.951 133.86 174.525 134.278 173.986 134.576C173.462 134.874 172.866 135.023 172.2 135.023ZM172.2 133.385C172.653 133.385 173.043 133.214 173.369 132.874C173.71 132.534 173.88 132.023 173.88 131.343C173.88 130.662 173.717 130.151 173.391 129.811C173.065 129.457 172.667 129.279 172.2 129.279C171.746 129.279 171.349 129.457 171.008 129.811C170.668 130.151 170.498 130.662 170.498 131.343C170.498 132.023 170.661 132.534 170.987 132.874C171.327 133.214 171.732 133.385 172.2 133.385Z" fill="white"/>
<path d="M137.901 239.6C136.909 239.6 136.008 239.422 135.2 239.068C134.406 238.699 133.768 238.189 133.285 237.536C132.817 236.884 132.583 236.118 132.583 235.239C132.583 234.345 132.832 233.544 133.328 232.835C133.838 232.126 134.512 231.644 135.349 231.389C134.597 231.091 134.016 230.658 133.604 230.091C133.193 229.51 132.988 228.872 132.988 228.177C132.988 227.454 133.179 226.794 133.562 226.199C133.945 225.589 134.498 225.107 135.221 224.752C135.958 224.383 136.852 224.199 137.901 224.199C138.951 224.199 139.837 224.383 140.56 224.752C141.298 225.107 141.858 225.589 142.241 226.199C142.624 226.794 142.815 227.454 142.815 228.177C142.815 228.857 142.602 229.496 142.177 230.091C141.766 230.673 141.184 231.105 140.433 231.389C141.269 231.658 141.936 232.147 142.432 232.856C142.943 233.551 143.198 234.345 143.198 235.239C143.198 236.118 142.964 236.884 142.496 237.536C142.028 238.189 141.39 238.699 140.581 239.068C139.787 239.422 138.894 239.6 137.901 239.6ZM137.901 230.666C138.724 230.666 139.369 230.453 139.837 230.027C140.319 229.602 140.56 229.056 140.56 228.39C140.56 227.638 140.326 227.064 139.858 226.667C139.39 226.269 138.738 226.071 137.901 226.071C137.065 226.071 136.412 226.269 135.944 226.667C135.476 227.064 135.242 227.638 135.242 228.39C135.242 229.056 135.476 229.602 135.944 230.027C136.412 230.453 137.065 230.666 137.901 230.666ZM137.901 237.685C138.922 237.685 139.688 237.444 140.199 236.962C140.709 236.466 140.964 235.834 140.964 235.069C140.964 234.218 140.688 233.566 140.135 233.112C139.596 232.644 138.851 232.41 137.901 232.41C136.951 232.41 136.2 232.644 135.646 233.112C135.093 233.566 134.817 234.218 134.817 235.069C134.817 235.834 135.072 236.466 135.583 236.962C136.107 237.444 136.88 237.685 137.901 237.685ZM151.964 239.6C150.617 239.6 149.454 239.28 148.476 238.642C147.511 237.99 146.767 237.09 146.242 235.941C145.732 234.778 145.476 233.431 145.476 231.899C145.476 230.368 145.732 229.028 146.242 227.879C146.767 226.716 147.511 225.816 148.476 225.178C149.454 224.525 150.617 224.199 151.964 224.199C153.311 224.199 154.467 224.525 155.431 225.178C156.396 225.816 157.133 226.716 157.644 227.879C158.168 229.028 158.431 230.368 158.431 231.899C158.431 233.431 158.168 234.778 157.644 235.941C157.133 237.09 156.396 237.99 155.431 238.642C154.467 239.28 153.311 239.6 151.964 239.6ZM151.964 237.579C152.772 237.579 153.489 237.352 154.113 236.898C154.751 236.444 155.247 235.792 155.602 234.941C155.956 234.09 156.133 233.076 156.133 231.899C156.133 230.722 155.956 229.708 155.602 228.857C155.247 228.007 154.751 227.354 154.113 226.901C153.489 226.447 152.772 226.22 151.964 226.22C151.142 226.22 150.418 226.447 149.794 226.901C149.171 227.354 148.681 228.007 148.327 228.857C147.972 229.708 147.795 230.722 147.795 231.899C147.795 233.076 147.972 234.09 148.327 234.941C148.681 235.792 149.171 236.444 149.794 236.898C150.418 237.352 151.142 237.579 151.964 237.579ZM163.815 231.559C163.149 231.559 162.546 231.41 162.007 231.112C161.483 230.814 161.064 230.396 160.752 229.857C160.44 229.304 160.284 228.645 160.284 227.879C160.284 227.127 160.44 226.482 160.752 225.943C161.064 225.39 161.49 224.965 162.029 224.667C162.568 224.369 163.17 224.22 163.837 224.22C164.489 224.22 165.078 224.369 165.602 224.667C166.141 224.965 166.567 225.39 166.879 225.943C167.191 226.482 167.347 227.127 167.347 227.879C167.347 228.645 167.191 229.304 166.879 229.857C166.567 230.396 166.141 230.814 165.602 231.112C165.078 231.41 164.482 231.559 163.815 231.559ZM162.752 239.344L171.282 224.454H173.494L164.985 239.344H162.752ZM163.815 229.942C164.269 229.942 164.659 229.772 164.985 229.432C165.326 229.077 165.496 228.56 165.496 227.879C165.496 227.198 165.333 226.688 165.007 226.347C164.681 225.993 164.283 225.816 163.815 225.816C163.362 225.816 162.965 225.993 162.624 226.347C162.284 226.688 162.114 227.198 162.114 227.879C162.114 228.56 162.277 229.077 162.603 229.432C162.943 229.772 163.347 229.942 163.815 229.942ZM172.558 239.6C171.892 239.6 171.289 239.451 170.75 239.153C170.225 238.855 169.807 238.437 169.495 237.898C169.183 237.345 169.027 236.685 169.027 235.92C169.027 235.168 169.183 234.516 169.495 233.963C169.807 233.41 170.232 232.984 170.771 232.686C171.31 232.389 171.913 232.24 172.579 232.24C173.232 232.24 173.82 232.389 174.345 232.686C174.884 232.984 175.309 233.41 175.621 233.963C175.933 234.516 176.089 235.168 176.089 235.92C176.089 236.685 175.933 237.345 175.621 237.898C175.309 238.437 174.884 238.855 174.345 239.153C173.82 239.451 173.225 239.6 172.558 239.6ZM172.558 237.962C173.012 237.962 173.402 237.791 173.728 237.451C174.068 237.111 174.238 236.6 174.238 235.92C174.238 235.239 174.075 234.728 173.749 234.388C173.423 234.034 173.026 233.856 172.558 233.856C172.104 233.856 171.707 234.034 171.367 234.388C171.026 234.728 170.856 235.239 170.856 235.92C170.856 236.6 171.019 237.111 171.346 237.451C171.686 237.791 172.09 237.962 172.558 237.962Z" fill="white"/>
<path d="M138.284 344.177C137.192 344.177 136.27 343.971 135.519 343.56C134.767 343.148 134.157 342.602 133.69 341.922C133.236 341.241 132.91 340.475 132.711 339.624C132.513 338.774 132.413 337.901 132.413 337.008C132.413 335.363 132.64 333.924 133.094 332.69C133.562 331.456 134.228 330.499 135.093 329.818C135.958 329.123 137.008 328.776 138.242 328.776C139.22 328.776 140.057 328.967 140.752 329.35C141.446 329.733 141.985 330.244 142.368 330.882C142.765 331.52 143.006 332.215 143.091 332.966H140.986C140.858 332.229 140.553 331.662 140.071 331.265C139.589 330.868 138.972 330.669 138.22 330.669C137.185 330.669 136.327 331.158 135.646 332.137C134.98 333.101 134.625 334.59 134.583 336.604C134.923 335.98 135.448 335.448 136.157 335.009C136.88 334.569 137.71 334.349 138.646 334.349C139.482 334.349 140.262 334.548 140.986 334.945C141.723 335.342 142.319 335.902 142.772 336.625C143.24 337.334 143.474 338.178 143.474 339.156C143.474 340.022 143.262 340.837 142.836 341.603C142.411 342.368 141.808 342.992 141.028 343.475C140.262 343.943 139.348 344.177 138.284 344.177ZM138.157 342.22C138.752 342.22 139.284 342.092 139.752 341.837C140.22 341.581 140.589 341.234 140.858 340.794C141.127 340.341 141.262 339.83 141.262 339.263C141.262 338.355 140.964 337.632 140.369 337.093C139.787 336.554 139.043 336.285 138.135 336.285C137.54 336.285 137.001 336.42 136.519 336.689C136.051 336.958 135.682 337.32 135.413 337.774C135.143 338.213 135.008 338.703 135.008 339.242C135.008 339.823 135.143 340.341 135.413 340.794C135.696 341.234 136.072 341.581 136.54 341.837C137.022 342.092 137.561 342.22 138.157 342.22ZM152.213 344.177C150.866 344.177 149.703 343.857 148.725 343.219C147.761 342.567 147.016 341.666 146.491 340.518C145.981 339.355 145.726 338.008 145.726 336.476C145.726 334.945 145.981 333.605 146.491 332.456C147.016 331.293 147.761 330.393 148.725 329.755C149.703 329.102 150.866 328.776 152.213 328.776C153.561 328.776 154.716 329.102 155.681 329.755C156.645 330.393 157.382 331.293 157.893 332.456C158.418 333.605 158.68 334.945 158.68 336.476C158.68 338.008 158.418 339.355 157.893 340.518C157.382 341.666 156.645 342.567 155.681 343.219C154.716 343.857 153.561 344.177 152.213 344.177ZM152.213 342.156C153.022 342.156 153.738 341.929 154.362 341.475C155 341.021 155.496 340.369 155.851 339.518C156.205 338.667 156.383 337.653 156.383 336.476C156.383 335.299 156.205 334.285 155.851 333.434C155.496 332.584 155 331.931 154.362 331.477C153.738 331.024 153.022 330.797 152.213 330.797C151.391 330.797 150.668 331.024 150.044 331.477C149.42 331.931 148.931 332.584 148.576 333.434C148.221 334.285 148.044 335.299 148.044 336.476C148.044 337.653 148.221 338.667 148.576 339.518C148.931 340.369 149.42 341.021 150.044 341.475C150.668 341.929 151.391 342.156 152.213 342.156ZM164.065 336.136C163.398 336.136 162.796 335.987 162.257 335.689C161.732 335.391 161.314 334.973 161.002 334.434C160.69 333.881 160.534 333.222 160.534 332.456C160.534 331.704 160.69 331.059 161.002 330.52C161.314 329.967 161.739 329.542 162.278 329.244C162.817 328.946 163.42 328.797 164.086 328.797C164.738 328.797 165.327 328.946 165.852 329.244C166.39 329.542 166.816 329.967 167.128 330.52C167.44 331.059 167.596 331.704 167.596 332.456C167.596 333.222 167.44 333.881 167.128 334.434C166.816 334.973 166.39 335.391 165.852 335.689C165.327 335.987 164.731 336.136 164.065 336.136ZM163.001 343.921L171.531 329.031H173.743L165.235 343.921H163.001ZM164.065 334.519C164.519 334.519 164.909 334.349 165.235 334.009C165.575 333.654 165.745 333.137 165.745 332.456C165.745 331.775 165.582 331.265 165.256 330.924C164.93 330.57 164.533 330.393 164.065 330.393C163.611 330.393 163.214 330.57 162.874 330.924C162.533 331.265 162.363 331.775 162.363 332.456C162.363 333.137 162.526 333.654 162.852 334.009C163.193 334.349 163.597 334.519 164.065 334.519ZM172.807 344.177C172.141 344.177 171.538 344.028 170.999 343.73C170.475 343.432 170.056 343.014 169.744 342.475C169.432 341.922 169.276 341.262 169.276 340.497C169.276 339.745 169.432 339.093 169.744 338.54C170.056 337.987 170.482 337.561 171.02 337.263C171.559 336.966 172.162 336.817 172.829 336.817C173.481 336.817 174.069 336.966 174.594 337.263C175.133 337.561 175.558 337.987 175.87 338.54C176.182 339.093 176.338 339.745 176.338 340.497C176.338 341.262 176.182 341.922 175.87 342.475C175.558 343.014 175.133 343.432 174.594 343.73C174.069 344.028 173.474 344.177 172.807 344.177ZM172.807 342.539C173.261 342.539 173.651 342.368 173.977 342.028C174.318 341.688 174.488 341.177 174.488 340.497C174.488 339.816 174.325 339.305 173.998 338.965C173.672 338.611 173.275 338.433 172.807 338.433C172.353 338.433 171.956 338.611 171.616 338.965C171.276 339.305 171.106 339.816 171.106 340.497C171.106 341.177 171.269 341.688 171.595 342.028C171.935 342.368 172.339 342.539 172.807 342.539Z" fill="white"/>
<path d="M139.603 448.498V445.52H132.137V443.733L139.241 433.608H141.836V443.563H143.921V445.52H141.836V448.498H139.603ZM134.583 443.563H139.731V436.097L134.583 443.563ZM152.026 448.754C150.679 448.754 149.516 448.434 148.538 447.796C147.574 447.144 146.829 446.243 146.304 445.095C145.794 443.932 145.539 442.585 145.539 441.053C145.539 439.522 145.794 438.182 146.304 437.033C146.829 435.87 147.574 434.97 148.538 434.332C149.516 433.679 150.679 433.353 152.026 433.353C153.374 433.353 154.529 433.679 155.494 434.332C156.458 434.97 157.195 435.87 157.706 437.033C158.231 438.182 158.493 439.522 158.493 441.053C158.493 442.585 158.231 443.932 157.706 445.095C157.195 446.243 156.458 447.144 155.494 447.796C154.529 448.434 153.374 448.754 152.026 448.754ZM152.026 446.733C152.835 446.733 153.551 446.506 154.175 446.052C154.813 445.598 155.309 444.946 155.664 444.095C156.018 443.244 156.196 442.23 156.196 441.053C156.196 439.876 156.018 438.862 155.664 438.011C155.309 437.161 154.813 436.508 154.175 436.054C153.551 435.601 152.835 435.374 152.026 435.374C151.204 435.374 150.481 435.601 149.857 436.054C149.233 436.508 148.744 437.161 148.389 438.011C148.035 438.862 147.857 439.876 147.857 441.053C147.857 442.23 148.035 443.244 148.389 444.095C148.744 444.946 149.233 445.598 149.857 446.052C150.481 446.506 151.204 446.733 152.026 446.733ZM163.878 440.713C163.211 440.713 162.609 440.564 162.07 440.266C161.545 439.968 161.127 439.55 160.815 439.011C160.503 438.458 160.347 437.799 160.347 437.033C160.347 436.281 160.503 435.636 160.815 435.097C161.127 434.544 161.552 434.119 162.091 433.821C162.63 433.523 163.233 433.374 163.899 433.374C164.551 433.374 165.14 433.523 165.665 433.821C166.203 434.119 166.629 434.544 166.941 435.097C167.253 435.636 167.409 436.281 167.409 437.033C167.409 437.799 167.253 438.458 166.941 439.011C166.629 439.55 166.203 439.968 165.665 440.266C165.14 440.564 164.544 440.713 163.878 440.713ZM162.814 448.498L171.344 433.608H173.556L165.048 448.498H162.814ZM163.878 439.096C164.332 439.096 164.722 438.926 165.048 438.586C165.388 438.231 165.558 437.714 165.558 437.033C165.558 436.352 165.395 435.842 165.069 435.501C164.743 435.147 164.346 434.97 163.878 434.97C163.424 434.97 163.027 435.147 162.687 435.501C162.346 435.842 162.176 436.352 162.176 437.033C162.176 437.714 162.339 438.231 162.665 438.586C163.006 438.926 163.41 439.096 163.878 439.096ZM172.62 448.754C171.954 448.754 171.351 448.605 170.812 448.307C170.288 448.009 169.869 447.591 169.557 447.052C169.245 446.499 169.089 445.839 169.089 445.074C169.089 444.322 169.245 443.67 169.557 443.117C169.869 442.564 170.295 442.138 170.834 441.84C171.372 441.543 171.975 441.394 172.642 441.394C173.294 441.394 173.882 441.543 174.407 441.84C174.946 442.138 175.371 442.564 175.683 443.117C175.995 443.67 176.151 444.322 176.151 445.074C176.151 445.839 175.995 446.499 175.683 447.052C175.371 447.591 174.946 448.009 174.407 448.307C173.882 448.605 173.287 448.754 172.62 448.754ZM172.62 447.116C173.074 447.116 173.464 446.945 173.79 446.605C174.131 446.265 174.301 445.754 174.301 445.074C174.301 444.393 174.138 443.882 173.812 443.542C173.485 443.188 173.088 443.01 172.62 443.01C172.167 443.01 171.769 443.188 171.429 443.542C171.089 443.882 170.919 444.393 170.919 445.074C170.919 445.754 171.082 446.265 171.408 446.605C171.748 446.945 172.152 447.116 172.62 447.116Z" fill="white"/>
<path d="M133.52 553.075V551.459C134.484 550.693 135.406 549.92 136.285 549.14C137.164 548.36 137.944 547.594 138.625 546.843C139.32 546.077 139.866 545.332 140.263 544.609C140.66 543.872 140.858 543.163 140.858 542.482C140.858 542.028 140.78 541.603 140.624 541.206C140.468 540.795 140.213 540.468 139.858 540.227C139.504 539.972 139.029 539.844 138.433 539.844C137.54 539.844 136.866 540.128 136.413 540.695C135.973 541.263 135.76 541.943 135.774 542.737H133.583C133.598 541.688 133.817 540.809 134.243 540.1C134.682 539.391 135.264 538.852 135.987 538.483C136.724 538.114 137.554 537.93 138.476 537.93C139.88 537.93 141 538.327 141.837 539.121C142.688 539.901 143.113 540.993 143.113 542.397C143.113 543.234 142.907 544.063 142.496 544.886C142.099 545.708 141.574 546.502 140.922 547.268C140.284 548.02 139.596 548.729 138.859 549.395C138.121 550.062 137.419 550.664 136.753 551.203H143.56V553.075H133.52ZM151.78 553.331C150.433 553.331 149.27 553.011 148.292 552.373C147.327 551.721 146.583 550.82 146.058 549.672C145.548 548.509 145.292 547.162 145.292 545.63C145.292 544.099 145.548 542.759 146.058 541.61C146.583 540.447 147.327 539.547 148.292 538.909C149.27 538.256 150.433 537.93 151.78 537.93C153.127 537.93 154.283 538.256 155.247 538.909C156.212 539.547 156.949 540.447 157.46 541.61C157.984 542.759 158.247 544.099 158.247 545.63C158.247 547.162 157.984 548.509 157.46 549.672C156.949 550.82 156.212 551.721 155.247 552.373C154.283 553.011 153.127 553.331 151.78 553.331ZM151.78 551.31C152.588 551.31 153.305 551.083 153.929 550.629C154.567 550.175 155.063 549.523 155.418 548.672C155.772 547.821 155.949 546.807 155.949 545.63C155.949 544.453 155.772 543.439 155.418 542.588C155.063 541.738 154.567 541.085 153.929 540.631C153.305 540.178 152.588 539.951 151.78 539.951C150.958 539.951 150.234 540.178 149.61 540.631C148.986 541.085 148.497 541.738 148.143 542.588C147.788 543.439 147.611 544.453 147.611 545.63C147.611 546.807 147.788 547.821 148.143 548.672C148.497 549.523 148.986 550.175 149.61 550.629C150.234 551.083 150.958 551.31 151.78 551.31ZM163.631 545.29C162.965 545.29 162.362 545.141 161.823 544.843C161.299 544.545 160.88 544.127 160.568 543.588C160.256 543.035 160.1 542.376 160.1 541.61C160.1 540.858 160.256 540.213 160.568 539.674C160.88 539.121 161.306 538.696 161.845 538.398C162.383 538.1 162.986 537.951 163.653 537.951C164.305 537.951 164.894 538.1 165.418 538.398C165.957 538.696 166.383 539.121 166.694 539.674C167.006 540.213 167.162 540.858 167.162 541.61C167.162 542.376 167.006 543.035 166.694 543.588C166.383 544.127 165.957 544.545 165.418 544.843C164.894 545.141 164.298 545.29 163.631 545.29ZM162.568 553.075L171.098 538.185H173.31L164.801 553.075H162.568ZM163.631 543.673C164.085 543.673 164.475 543.503 164.801 543.163C165.142 542.808 165.312 542.291 165.312 541.61C165.312 540.929 165.149 540.419 164.823 540.078C164.496 539.724 164.099 539.547 163.631 539.547C163.178 539.547 162.781 539.724 162.44 540.078C162.1 540.419 161.93 540.929 161.93 541.61C161.93 542.291 162.093 542.808 162.419 543.163C162.759 543.503 163.163 543.673 163.631 543.673ZM172.374 553.331C171.707 553.331 171.105 553.182 170.566 552.884C170.041 552.586 169.623 552.168 169.311 551.629C168.999 551.076 168.843 550.416 168.843 549.651C168.843 548.899 168.999 548.247 169.311 547.694C169.623 547.141 170.048 546.715 170.587 546.417C171.126 546.12 171.729 545.971 172.395 545.971C173.048 545.971 173.636 546.12 174.161 546.417C174.7 546.715 175.125 547.141 175.437 547.694C175.749 548.247 175.905 548.899 175.905 549.651C175.905 550.416 175.749 551.076 175.437 551.629C175.125 552.168 174.7 552.586 174.161 552.884C173.636 553.182 173.04 553.331 172.374 553.331ZM172.374 551.693C172.828 551.693 173.218 551.522 173.544 551.182C173.884 550.842 174.054 550.331 174.054 549.651C174.054 548.97 173.891 548.459 173.565 548.119C173.239 547.764 172.842 547.587 172.374 547.587C171.92 547.587 171.523 547.764 171.183 548.119C170.842 548.459 170.672 548.97 170.672 549.651C170.672 550.331 170.835 550.842 171.161 551.182C171.502 551.522 171.906 551.693 172.374 551.693Z" fill="white"/>
<path d="M169.773 657.908C168.426 657.908 167.263 657.588 166.285 656.95C165.321 656.298 164.576 655.398 164.051 654.249C163.541 653.086 163.286 651.739 163.286 650.207C163.286 648.676 163.541 647.336 164.051 646.187C164.576 645.024 165.321 644.124 166.285 643.486C167.263 642.833 168.426 642.507 169.773 642.507C171.121 642.507 172.276 642.833 173.241 643.486C174.205 644.124 174.942 645.024 175.453 646.187C175.978 647.336 176.24 648.676 176.24 650.207C176.24 651.739 175.978 653.086 175.453 654.249C174.942 655.398 174.205 656.298 173.241 656.95C172.276 657.588 171.121 657.908 169.773 657.908ZM169.773 655.887C170.582 655.887 171.298 655.66 171.922 655.206C172.56 654.752 173.056 654.1 173.411 653.249C173.765 652.398 173.943 651.384 173.943 650.207C173.943 649.03 173.765 648.016 173.411 647.165C173.056 646.315 172.56 645.662 171.922 645.209C171.298 644.755 170.582 644.528 169.773 644.528C168.951 644.528 168.228 644.755 167.604 645.209C166.98 645.662 166.491 646.315 166.136 647.165C165.781 648.016 165.604 649.03 165.604 650.207C165.604 651.384 165.781 652.398 166.136 653.249C166.491 654.1 166.98 654.752 167.604 655.206C168.228 655.66 168.951 655.887 169.773 655.887Z" fill="white"/>
<path d="M305.182 460.452C304.218 460.452 303.339 460.282 302.545 459.942C301.765 459.587 301.141 459.055 300.673 458.346C300.205 457.637 299.957 456.751 299.928 455.687H302.162C302.19 456.481 302.46 457.155 302.97 457.708C303.495 458.247 304.232 458.516 305.182 458.516C306.09 458.516 306.785 458.268 307.267 457.772C307.749 457.261 307.99 456.63 307.99 455.879C307.99 454.971 307.664 454.298 307.012 453.858C306.373 453.418 305.586 453.199 304.651 453.199H303.544V451.327H304.672C305.508 451.327 306.182 451.128 306.693 450.731C307.217 450.334 307.48 449.774 307.48 449.051C307.48 448.441 307.274 447.945 306.863 447.562C306.466 447.179 305.898 446.987 305.161 446.987C304.395 446.987 303.793 447.214 303.353 447.668C302.913 448.108 302.672 448.661 302.63 449.327H300.396C300.425 448.462 300.637 447.711 301.034 447.072C301.446 446.434 302.006 445.938 302.715 445.583C303.424 445.229 304.239 445.052 305.161 445.052C306.154 445.052 306.983 445.229 307.65 445.583C308.33 445.924 308.841 446.392 309.181 446.987C309.536 447.569 309.713 448.207 309.713 448.902C309.713 449.696 309.493 450.391 309.054 450.986C308.614 451.582 308.026 451.979 307.288 452.178C308.139 452.362 308.841 452.78 309.394 453.433C309.947 454.071 310.224 454.9 310.224 455.921C310.224 456.744 310.032 457.502 309.649 458.197C309.266 458.878 308.699 459.424 307.948 459.835C307.196 460.247 306.274 460.452 305.182 460.452ZM318.196 460.452C317.147 460.452 316.239 460.268 315.473 459.899C314.708 459.516 314.098 458.999 313.644 458.346C313.204 457.68 312.935 456.928 312.836 456.091H315.048C315.19 456.801 315.544 457.389 316.111 457.857C316.679 458.311 317.381 458.538 318.217 458.538C318.841 458.538 319.38 458.389 319.834 458.091C320.288 457.779 320.642 457.368 320.898 456.857C321.153 456.347 321.28 455.772 321.28 455.134C321.28 454.127 320.997 453.326 320.43 452.731C319.862 452.121 319.146 451.816 318.281 451.816C317.544 451.816 316.913 451.993 316.388 452.348C315.863 452.688 315.48 453.121 315.239 453.645H313.091L314.367 445.307H322.408V447.285H316.069L315.303 451.263C315.629 450.894 316.076 450.589 316.643 450.348C317.225 450.093 317.877 449.965 318.6 449.965C319.607 449.965 320.472 450.199 321.195 450.667C321.919 451.121 322.472 451.738 322.854 452.518C323.252 453.298 323.45 454.163 323.45 455.113C323.45 456.106 323.237 457.006 322.812 457.814C322.387 458.623 321.777 459.268 320.983 459.75C320.203 460.218 319.274 460.452 318.196 460.452ZM328.985 452.412C328.319 452.412 327.716 452.263 327.177 451.965C326.652 451.667 326.234 451.249 325.922 450.71C325.61 450.157 325.454 449.497 325.454 448.732C325.454 447.98 325.61 447.335 325.922 446.796C326.234 446.243 326.659 445.817 327.198 445.52C327.737 445.222 328.34 445.073 329.006 445.073C329.659 445.073 330.247 445.222 330.772 445.52C331.311 445.817 331.736 446.243 332.048 446.796C332.36 447.335 332.516 447.98 332.516 448.732C332.516 449.497 332.36 450.157 332.048 450.71C331.736 451.249 331.311 451.667 330.772 451.965C330.247 452.263 329.652 452.412 328.985 452.412ZM327.922 460.197L336.451 445.307H338.664L330.155 460.197H327.922ZM328.985 450.795C329.439 450.795 329.829 450.625 330.155 450.284C330.495 449.93 330.666 449.412 330.666 448.732C330.666 448.051 330.503 447.54 330.176 447.2C329.85 446.846 329.453 446.668 328.985 446.668C328.531 446.668 328.134 446.846 327.794 447.2C327.454 447.54 327.283 448.051 327.283 448.732C327.283 449.412 327.447 449.93 327.773 450.284C328.113 450.625 328.517 450.795 328.985 450.795ZM337.728 460.452C337.061 460.452 336.458 460.303 335.92 460.005C335.395 459.708 334.977 459.289 334.665 458.75C334.353 458.197 334.197 457.538 334.197 456.772C334.197 456.021 334.353 455.368 334.665 454.815C334.977 454.262 335.402 453.837 335.941 453.539C336.48 453.241 337.082 453.092 337.749 453.092C338.401 453.092 338.99 453.241 339.514 453.539C340.053 453.837 340.479 454.262 340.791 454.815C341.103 455.368 341.259 456.021 341.259 456.772C341.259 457.538 341.103 458.197 340.791 458.75C340.479 459.289 340.053 459.708 339.514 460.005C338.99 460.303 338.394 460.452 337.728 460.452ZM337.728 458.814C338.181 458.814 338.571 458.644 338.898 458.304C339.238 457.963 339.408 457.453 339.408 456.772C339.408 456.091 339.245 455.581 338.919 455.241C338.593 454.886 338.196 454.709 337.728 454.709C337.274 454.709 336.877 454.886 336.536 455.241C336.196 455.581 336.026 456.091 336.026 456.772C336.026 457.453 336.189 457.963 336.515 458.304C336.856 458.644 337.26 458.814 337.728 458.814Z" fill="white"/>
<path d="M450.192 460.452C449.227 460.452 448.348 460.282 447.554 459.942C446.774 459.587 446.15 459.055 445.682 458.346C445.214 457.637 444.966 456.751 444.938 455.687H447.171C447.199 456.481 447.469 457.155 447.979 457.708C448.504 458.247 449.241 458.516 450.192 458.516C451.099 458.516 451.794 458.268 452.276 457.772C452.758 457.261 452.999 456.63 452.999 455.879C452.999 454.971 452.673 454.298 452.021 453.858C451.383 453.418 450.596 453.199 449.66 453.199H448.554V451.327H449.681C450.518 451.327 451.191 451.128 451.702 450.731C452.227 450.334 452.489 449.774 452.489 449.051C452.489 448.441 452.283 447.945 451.872 447.562C451.475 447.179 450.908 446.987 450.17 446.987C449.405 446.987 448.802 447.214 448.362 447.668C447.923 448.108 447.682 448.661 447.639 449.327H445.406C445.434 448.462 445.647 447.711 446.044 447.072C446.455 446.434 447.015 445.938 447.724 445.583C448.433 445.229 449.249 445.052 450.17 445.052C451.163 445.052 451.993 445.229 452.659 445.583C453.34 445.924 453.85 446.392 454.191 446.987C454.545 447.569 454.722 448.207 454.722 448.902C454.722 449.696 454.503 450.391 454.063 450.986C453.623 451.582 453.035 451.979 452.297 452.178C453.148 452.362 453.85 452.78 454.403 453.433C454.956 454.071 455.233 454.9 455.233 455.921C455.233 456.744 455.041 457.502 454.659 458.197C454.276 458.878 453.708 459.424 452.957 459.835C452.205 460.247 451.283 460.452 450.192 460.452ZM463.205 460.452C462.156 460.452 461.248 460.268 460.483 459.899C459.717 459.516 459.107 458.999 458.653 458.346C458.214 457.68 457.944 456.928 457.845 456.091H460.057C460.199 456.801 460.554 457.389 461.121 457.857C461.688 458.311 462.39 458.538 463.227 458.538C463.851 458.538 464.389 458.389 464.843 458.091C465.297 457.779 465.652 457.368 465.907 456.857C466.162 456.347 466.29 455.772 466.29 455.134C466.29 454.127 466.006 453.326 465.439 452.731C464.872 452.121 464.155 451.816 463.29 451.816C462.553 451.816 461.922 451.993 461.397 452.348C460.873 452.688 460.49 453.121 460.249 453.645H458.1L459.376 445.307H467.417V447.285H461.078L460.312 451.263C460.639 450.894 461.085 450.589 461.653 450.348C462.234 450.093 462.886 449.965 463.609 449.965C464.616 449.965 465.481 450.199 466.205 450.667C466.928 451.121 467.481 451.738 467.864 452.518C468.261 453.298 468.459 454.163 468.459 455.113C468.459 456.106 468.247 457.006 467.821 457.814C467.396 458.623 466.786 459.268 465.992 459.75C465.212 460.218 464.283 460.452 463.205 460.452ZM473.994 452.412C473.328 452.412 472.725 452.263 472.186 451.965C471.662 451.667 471.243 451.249 470.931 450.71C470.619 450.157 470.463 449.497 470.463 448.732C470.463 447.98 470.619 447.335 470.931 446.796C471.243 446.243 471.669 445.817 472.208 445.52C472.746 445.222 473.349 445.073 474.016 445.073C474.668 445.073 475.257 445.222 475.781 445.52C476.32 445.817 476.746 446.243 477.058 446.796C477.369 447.335 477.525 447.98 477.525 448.732C477.525 449.497 477.369 450.157 477.058 450.71C476.746 451.249 476.32 451.667 475.781 451.965C475.257 452.263 474.661 452.412 473.994 452.412ZM472.931 460.197L481.461 445.307H483.673L475.164 460.197H472.931ZM473.994 450.795C474.448 450.795 474.838 450.625 475.164 450.284C475.505 449.93 475.675 449.412 475.675 448.732C475.675 448.051 475.512 447.54 475.186 447.2C474.859 446.846 474.462 446.668 473.994 446.668C473.541 446.668 473.144 446.846 472.803 447.2C472.463 447.54 472.293 448.051 472.293 448.732C472.293 449.412 472.456 449.93 472.782 450.284C473.122 450.625 473.526 450.795 473.994 450.795ZM482.737 460.452C482.07 460.452 481.468 460.303 480.929 460.005C480.404 459.708 479.986 459.289 479.674 458.75C479.362 458.197 479.206 457.538 479.206 456.772C479.206 456.021 479.362 455.368 479.674 454.815C479.986 454.262 480.411 453.837 480.95 453.539C481.489 453.241 482.092 453.092 482.758 453.092C483.411 453.092 483.999 453.241 484.524 453.539C485.063 453.837 485.488 454.262 485.8 454.815C486.112 455.368 486.268 456.021 486.268 456.772C486.268 457.538 486.112 458.197 485.8 458.75C485.488 459.289 485.063 459.708 484.524 460.005C483.999 460.303 483.403 460.452 482.737 460.452ZM482.737 458.814C483.191 458.814 483.581 458.644 483.907 458.304C484.247 457.963 484.417 457.453 484.417 456.772C484.417 456.091 484.254 455.581 483.928 455.241C483.602 454.886 483.205 454.709 482.737 454.709C482.283 454.709 481.886 454.886 481.546 455.241C481.205 455.581 481.035 456.091 481.035 456.772C481.035 457.453 481.198 457.963 481.524 458.304C481.865 458.644 482.269 458.814 482.737 458.814Z" fill="white"/>
<path d="M581.795 547.411V535.074L579.391 535.627V533.967L582.688 532.521H584.135V547.411H581.795ZM592.35 547.666C591.301 547.666 590.393 547.482 589.627 547.113C588.861 546.73 588.252 546.213 587.798 545.56C587.358 544.894 587.089 544.142 586.99 543.306H589.202C589.344 544.015 589.698 544.603 590.265 545.071C590.833 545.525 591.535 545.752 592.371 545.752C592.995 545.752 593.534 545.603 593.988 545.305C594.442 544.993 594.796 544.582 595.051 544.071C595.307 543.561 595.434 542.986 595.434 542.348C595.434 541.341 595.151 540.54 594.583 539.945C594.016 539.335 593.3 539.03 592.435 539.03C591.698 539.03 591.067 539.207 590.542 539.562C590.017 539.902 589.634 540.335 589.393 540.859H587.245L588.521 532.521H596.562V534.499H590.223L589.457 538.477C589.783 538.108 590.23 537.803 590.797 537.562C591.379 537.307 592.031 537.179 592.754 537.179C593.761 537.179 594.626 537.413 595.349 537.881C596.072 538.335 596.626 538.952 597.008 539.732C597.406 540.512 597.604 541.377 597.604 542.327C597.604 543.32 597.391 544.22 596.966 545.029C596.54 545.837 595.931 546.482 595.137 546.964C594.357 547.432 593.428 547.666 592.35 547.666ZM603.139 539.626C602.473 539.626 601.87 539.477 601.331 539.179C600.806 538.881 600.388 538.463 600.076 537.924C599.764 537.371 599.608 536.711 599.608 535.946C599.608 535.194 599.764 534.549 600.076 534.01C600.388 533.457 600.813 533.031 601.352 532.734C601.891 532.436 602.494 532.287 603.16 532.287C603.813 532.287 604.401 532.436 604.926 532.734C605.465 533.031 605.89 533.457 606.202 534.01C606.514 534.549 606.67 535.194 606.67 535.946C606.67 536.711 606.514 537.371 606.202 537.924C605.89 538.463 605.465 538.881 604.926 539.179C604.401 539.477 603.806 539.626 603.139 539.626ZM602.076 547.411L610.605 532.521H612.818L604.309 547.411H602.076ZM603.139 538.009C603.593 538.009 603.983 537.839 604.309 537.498C604.649 537.144 604.82 536.626 604.82 535.946C604.82 535.265 604.656 534.754 604.33 534.414C604.004 534.06 603.607 533.882 603.139 533.882C602.685 533.882 602.288 534.06 601.948 534.414C601.608 534.754 601.437 535.265 601.437 535.946C601.437 536.626 601.6 537.144 601.927 537.498C602.267 537.839 602.671 538.009 603.139 538.009ZM611.882 547.666C611.215 547.666 610.612 547.517 610.074 547.219C609.549 546.922 609.131 546.503 608.819 545.964C608.507 545.411 608.351 544.752 608.351 543.986C608.351 543.235 608.507 542.582 608.819 542.029C609.131 541.476 609.556 541.051 610.095 540.753C610.634 540.455 611.236 540.306 611.903 540.306C612.555 540.306 613.144 540.455 613.668 540.753C614.207 541.051 614.633 541.476 614.945 542.029C615.257 542.582 615.413 543.235 615.413 543.986C615.413 544.752 615.257 545.411 614.945 545.964C614.633 546.503 614.207 546.922 613.668 547.219C613.144 547.517 612.548 547.666 611.882 547.666ZM611.882 546.028C612.335 546.028 612.725 545.858 613.052 545.518C613.392 545.177 613.562 544.667 613.562 543.986C613.562 543.306 613.399 542.795 613.073 542.455C612.747 542.1 612.35 541.923 611.882 541.923C611.428 541.923 611.031 542.1 610.69 542.455C610.35 542.795 610.18 543.306 610.18 543.986C610.18 544.667 610.343 545.177 610.669 545.518C611.01 545.858 611.414 546.028 611.882 546.028Z" fill="white"/>
<path d="M718.081 569.834V557.497L715.677 558.05V556.391L718.974 554.944H720.421V569.834H718.081ZM729.402 570.089C728.055 570.089 726.892 569.77 725.913 569.132C724.949 568.48 724.205 567.579 723.68 566.431C723.169 565.268 722.914 563.921 722.914 562.389C722.914 560.858 723.169 559.517 723.68 558.369C724.205 557.206 724.949 556.305 725.913 555.667C726.892 555.015 728.055 554.689 729.402 554.689C730.749 554.689 731.905 555.015 732.869 555.667C733.833 556.305 734.571 557.206 735.081 558.369C735.606 559.517 735.868 560.858 735.868 562.389C735.868 563.921 735.606 565.268 735.081 566.431C734.571 567.579 733.833 568.48 732.869 569.132C731.905 569.77 730.749 570.089 729.402 570.089ZM729.402 568.069C730.21 568.069 730.926 567.842 731.55 567.388C732.188 566.934 732.685 566.282 733.039 565.431C733.394 564.58 733.571 563.566 733.571 562.389C733.571 561.212 733.394 560.198 733.039 559.347C732.685 558.496 732.188 557.844 731.55 557.39C730.926 556.937 730.21 556.71 729.402 556.71C728.579 556.71 727.856 556.937 727.232 557.39C726.608 557.844 726.119 558.496 725.764 559.347C725.41 560.198 725.233 561.212 725.233 562.389C725.233 563.566 725.41 564.58 725.764 565.431C726.119 566.282 726.608 566.934 727.232 567.388C727.856 567.842 728.579 568.069 729.402 568.069ZM741.253 562.049C740.587 562.049 739.984 561.9 739.445 561.602C738.92 561.304 738.502 560.886 738.19 560.347C737.878 559.794 737.722 559.135 737.722 558.369C737.722 557.617 737.878 556.972 738.19 556.433C738.502 555.88 738.928 555.455 739.466 555.157C740.005 554.859 740.608 554.71 741.275 554.71C741.927 554.71 742.515 554.859 743.04 555.157C743.579 555.455 744.004 555.88 744.316 556.433C744.628 556.972 744.784 557.617 744.784 558.369C744.784 559.135 744.628 559.794 744.316 560.347C744.004 560.886 743.579 561.304 743.04 561.602C742.515 561.9 741.92 562.049 741.253 562.049ZM740.19 569.834L748.719 554.944H750.932L742.423 569.834H740.19ZM741.253 560.432C741.707 560.432 742.097 560.262 742.423 559.922C742.763 559.567 742.934 559.05 742.934 558.369C742.934 557.688 742.771 557.178 742.444 556.837C742.118 556.483 741.721 556.305 741.253 556.305C740.799 556.305 740.402 556.483 740.062 556.837C739.722 557.178 739.552 557.688 739.552 558.369C739.552 559.05 739.715 559.567 740.041 559.922C740.381 560.262 740.785 560.432 741.253 560.432ZM749.996 570.089C749.329 570.089 748.727 569.94 748.188 569.643C747.663 569.345 747.245 568.927 746.933 568.388C746.621 567.835 746.465 567.175 746.465 566.409C746.465 565.658 746.621 565.005 746.933 564.452C747.245 563.899 747.67 563.474 748.209 563.176C748.748 562.878 749.351 562.729 750.017 562.729C750.669 562.729 751.258 562.878 751.783 563.176C752.321 563.474 752.747 563.899 753.059 564.452C753.371 565.005 753.527 565.658 753.527 566.409C753.527 567.175 753.371 567.835 753.059 568.388C752.747 568.927 752.321 569.345 751.783 569.643C751.258 569.94 750.662 570.089 749.996 570.089ZM749.996 568.451C750.45 568.451 750.84 568.281 751.166 567.941C751.506 567.601 751.676 567.09 751.676 566.409C751.676 565.729 751.513 565.218 751.187 564.878C750.861 564.523 750.464 564.346 749.996 564.346C749.542 564.346 749.145 564.523 748.805 564.878C748.464 565.218 748.294 565.729 748.294 566.409C748.294 567.09 748.457 567.601 748.783 567.941C749.124 568.281 749.528 568.451 749.996 568.451Z" fill="white"/>
<path d="M855.81 607.226C854.76 607.226 853.853 607.042 853.087 606.673C852.321 606.291 851.712 605.773 851.258 605.121C850.818 604.454 850.549 603.702 850.449 602.866H852.662C852.804 603.575 853.158 604.163 853.725 604.631C854.293 605.085 854.994 605.312 855.831 605.312C856.455 605.312 856.994 605.163 857.448 604.865C857.902 604.553 858.256 604.142 858.511 603.632C858.767 603.121 858.894 602.547 858.894 601.909C858.894 600.902 858.611 600.101 858.043 599.505C857.476 598.895 856.76 598.59 855.895 598.59C855.158 598.59 854.526 598.768 854.002 599.122C853.477 599.462 853.094 599.895 852.853 600.42H850.705L851.981 592.081H860.022V594.059H853.683L852.917 598.037C853.243 597.669 853.69 597.364 854.257 597.123C854.838 596.867 855.491 596.74 856.214 596.74C857.221 596.74 858.086 596.974 858.809 597.442C859.532 597.895 860.085 598.512 860.468 599.292C860.865 600.072 861.064 600.937 861.064 601.887C861.064 602.88 860.851 603.78 860.426 604.589C860 605.397 859.391 606.042 858.596 606.524C857.816 606.992 856.888 607.226 855.81 607.226ZM866.599 599.186C865.932 599.186 865.33 599.037 864.791 598.739C864.266 598.441 863.848 598.023 863.536 597.484C863.224 596.931 863.068 596.272 863.068 595.506C863.068 594.754 863.224 594.109 863.536 593.57C863.848 593.017 864.273 592.592 864.812 592.294C865.351 591.996 865.954 591.847 866.62 591.847C867.273 591.847 867.861 591.996 868.386 592.294C868.925 592.592 869.35 593.017 869.662 593.57C869.974 594.109 870.13 594.754 870.13 595.506C870.13 596.272 869.974 596.931 869.662 597.484C869.35 598.023 868.925 598.441 868.386 598.739C867.861 599.037 867.265 599.186 866.599 599.186ZM865.535 606.971L874.065 592.081H876.277L867.769 606.971H865.535ZM866.599 597.569C867.053 597.569 867.443 597.399 867.769 597.059C868.109 596.704 868.279 596.187 868.279 595.506C868.279 594.825 868.116 594.315 867.79 593.974C867.464 593.62 867.067 593.443 866.599 593.443C866.145 593.443 865.748 593.62 865.408 593.974C865.067 594.315 864.897 594.825 864.897 595.506C864.897 596.187 865.06 596.704 865.386 597.059C865.727 597.399 866.131 597.569 866.599 597.569ZM875.341 607.226C874.675 607.226 874.072 607.078 873.533 606.78C873.009 606.482 872.59 606.064 872.278 605.525C871.966 604.972 871.81 604.312 871.81 603.546C871.81 602.795 871.966 602.143 872.278 601.59C872.59 601.036 873.016 600.611 873.555 600.313C874.094 600.015 874.696 599.867 875.363 599.867C876.015 599.867 876.604 600.015 877.128 600.313C877.667 600.611 878.093 601.036 878.405 601.59C878.717 602.143 878.873 602.795 878.873 603.546C878.873 604.312 878.717 604.972 878.405 605.525C878.093 606.064 877.667 606.482 877.128 606.78C876.604 607.078 876.008 607.226 875.341 607.226ZM875.341 605.589C875.795 605.589 876.185 605.418 876.511 605.078C876.852 604.738 877.022 604.227 877.022 603.546C877.022 602.866 876.859 602.355 876.533 602.015C876.207 601.66 875.809 601.483 875.341 601.483C874.888 601.483 874.491 601.66 874.15 602.015C873.81 602.355 873.64 602.866 873.64 603.546C873.64 604.227 873.803 604.738 874.129 605.078C874.469 605.418 874.874 605.589 875.341 605.589Z" fill="white"/>
<path d="M404.737 736.364V723.23H409.334C410.359 723.23 411.21 723.405 411.885 723.755C412.561 724.093 413.061 724.562 413.386 725.163C413.724 725.75 413.893 726.42 413.893 727.17C413.893 727.883 413.73 728.54 413.405 729.14C413.092 729.728 412.598 730.197 411.923 730.547C411.247 730.898 410.384 731.073 409.334 731.073H406.726V736.364H404.737ZM406.726 729.44H409.24C410.178 729.44 410.847 729.24 411.247 728.84C411.66 728.427 411.867 727.871 411.867 727.17C411.867 726.445 411.66 725.882 411.247 725.481C410.847 725.069 410.178 724.862 409.24 724.862H406.726V729.44ZM415.784 736.364V727.058H417.566L417.735 728.821C418.06 728.208 418.511 727.727 419.086 727.377C419.674 727.014 420.381 726.832 421.206 726.832V728.915H420.662C420.112 728.915 419.618 729.009 419.18 729.196C418.754 729.372 418.41 729.678 418.148 730.116C417.898 730.541 417.773 731.135 417.773 731.898V736.364H415.784ZM427.008 736.589C426.095 736.589 425.281 736.389 424.569 735.988C423.868 735.576 423.318 735.007 422.917 734.281C422.517 733.556 422.317 732.711 422.317 731.748C422.317 730.773 422.511 729.916 422.899 729.178C423.299 728.44 423.849 727.864 424.55 727.452C425.263 727.039 426.088 726.832 427.026 726.832C427.939 726.832 428.734 727.039 429.409 727.452C430.085 727.852 430.61 728.39 430.985 729.065C431.361 729.741 431.548 730.485 431.548 731.298C431.548 731.423 431.542 731.561 431.529 731.711C431.529 731.848 431.523 732.005 431.511 732.18H424.268C424.331 733.08 424.625 733.768 425.15 734.244C425.688 734.706 426.307 734.938 427.008 734.938C427.571 734.938 428.04 734.813 428.415 734.563C428.803 734.3 429.09 733.95 429.278 733.512H431.267C431.017 734.387 430.516 735.119 429.766 735.707C429.028 736.295 428.108 736.589 427.008 736.589ZM427.008 728.465C426.345 728.465 425.757 728.665 425.244 729.065C424.731 729.453 424.418 730.041 424.306 730.829H429.559C429.522 730.103 429.265 729.528 428.79 729.103C428.315 728.677 427.721 728.465 427.008 728.465ZM437.327 736.589C436.151 736.589 435.182 736.301 434.418 735.726C433.655 735.15 433.218 734.387 433.105 733.437H435.113C435.213 733.862 435.45 734.231 435.826 734.544C436.201 734.844 436.695 734.994 437.308 734.994C437.908 734.994 438.346 734.869 438.621 734.619C438.896 734.369 439.034 734.081 439.034 733.756C439.034 733.28 438.84 732.961 438.452 732.799C438.077 732.624 437.552 732.467 436.876 732.33C436.351 732.217 435.826 732.067 435.3 731.879C434.787 731.692 434.356 731.429 434.006 731.091C433.668 730.741 433.499 730.272 433.499 729.684C433.499 728.871 433.812 728.196 434.437 727.658C435.063 727.108 435.938 726.832 437.064 726.832C438.102 726.832 438.94 727.083 439.578 727.583C440.229 728.083 440.61 728.79 440.723 729.703H438.809C438.746 729.303 438.559 728.99 438.246 728.765C437.946 728.54 437.539 728.427 437.026 728.427C436.526 728.427 436.138 728.534 435.863 728.746C435.588 728.946 435.45 729.209 435.45 729.534C435.45 729.859 435.638 730.116 436.013 730.303C436.401 730.491 436.908 730.66 437.533 730.81C438.158 730.948 438.734 731.11 439.259 731.298C439.797 731.473 440.229 731.736 440.554 732.086C440.879 732.436 441.042 732.949 441.042 733.624C441.054 734.475 440.723 735.182 440.047 735.745C439.384 736.307 438.477 736.589 437.327 736.589ZM446.365 736.589C445.577 736.589 444.926 736.458 444.414 736.195C443.901 735.932 443.519 735.588 443.269 735.163C443.019 734.725 442.894 734.25 442.894 733.737C442.894 732.836 443.244 732.123 443.945 731.598C444.645 731.073 445.646 730.81 446.947 730.81H449.386V730.641C449.386 729.916 449.186 729.372 448.785 729.009C448.397 728.646 447.891 728.465 447.265 728.465C446.715 728.465 446.234 728.602 445.821 728.877C445.421 729.14 445.177 729.534 445.089 730.06H443.1C443.163 729.384 443.388 728.809 443.776 728.333C444.176 727.846 444.676 727.477 445.277 727.226C445.89 726.964 446.559 726.832 447.284 726.832C448.585 726.832 449.592 727.176 450.305 727.864C451.018 728.54 451.374 729.465 451.374 730.641V736.364H449.648L449.479 734.769C449.217 735.282 448.835 735.713 448.335 736.064C447.835 736.414 447.178 736.589 446.365 736.589ZM446.759 734.975C447.297 734.975 447.747 734.85 448.11 734.6C448.485 734.337 448.773 733.993 448.973 733.568C449.186 733.143 449.317 732.674 449.367 732.161H447.153C446.365 732.161 445.802 732.299 445.464 732.574C445.139 732.849 444.976 733.193 444.976 733.606C444.976 734.031 445.133 734.369 445.446 734.619C445.771 734.856 446.209 734.975 446.759 734.975ZM453.693 736.364V722.855H455.682V736.364H453.693ZM462.554 736.589C461.641 736.589 460.827 736.389 460.115 735.988C459.414 735.576 458.864 735.007 458.463 734.281C458.063 733.556 457.863 732.711 457.863 731.748C457.863 730.773 458.057 729.916 458.445 729.178C458.845 728.44 459.395 727.864 460.096 727.452C460.809 727.039 461.634 726.832 462.572 726.832C463.486 726.832 464.28 727.039 464.955 727.452C465.631 727.852 466.156 728.39 466.531 729.065C466.907 729.741 467.094 730.485 467.094 731.298C467.094 731.423 467.088 731.561 467.075 731.711C467.075 731.848 467.069 732.005 467.057 732.18H459.814C459.877 733.08 460.171 733.768 460.696 734.244C461.234 734.706 461.853 734.938 462.554 734.938C463.117 734.938 463.586 734.813 463.961 734.563C464.349 734.3 464.636 733.95 464.824 733.512H466.813C466.563 734.387 466.062 735.119 465.312 735.707C464.574 736.295 463.654 736.589 462.554 736.589ZM462.554 728.465C461.891 728.465 461.303 728.665 460.79 729.065C460.277 729.453 459.964 730.041 459.852 730.829H465.105C465.068 730.103 464.811 729.528 464.336 729.103C463.861 728.677 463.267 728.465 462.554 728.465Z" fill="white"/>
<path d="M405.096 790.861V777.728H407.442L411.888 786.471L416.316 777.728H418.662V790.861H416.673V781.161L412.658 788.985H411.119L407.085 781.18V790.861H405.096ZM424.407 791.086C423.619 791.086 422.969 790.955 422.456 790.692C421.943 790.43 421.562 790.086 421.311 789.66C421.061 789.223 420.936 788.747 420.936 788.235C420.936 787.334 421.286 786.621 421.987 786.096C422.687 785.57 423.688 785.308 424.989 785.308H427.428V785.139C427.428 784.413 427.228 783.869 426.828 783.506C426.44 783.144 425.933 782.962 425.308 782.962C424.757 782.962 424.276 783.1 423.863 783.375C423.463 783.638 423.219 784.032 423.131 784.557H421.143C421.205 783.882 421.43 783.306 421.818 782.831C422.218 782.343 422.719 781.974 423.319 781.724C423.932 781.461 424.601 781.33 425.327 781.33C426.627 781.33 427.634 781.674 428.347 782.362C429.06 783.037 429.417 783.963 429.417 785.139V790.861H427.691L427.522 789.266C427.259 789.779 426.878 790.211 426.377 790.561C425.877 790.911 425.22 791.086 424.407 791.086ZM424.801 789.473C425.339 789.473 425.789 789.348 426.152 789.098C426.527 788.835 426.815 788.491 427.015 788.066C427.228 787.64 427.359 787.171 427.409 786.658H425.195C424.407 786.658 423.844 786.796 423.507 787.071C423.181 787.346 423.019 787.69 423.019 788.103C423.019 788.528 423.175 788.866 423.488 789.116C423.813 789.354 424.251 789.473 424.801 789.473ZM431.736 790.861V781.555H433.518L433.687 783.319C434.012 782.706 434.463 782.224 435.038 781.874C435.626 781.511 436.333 781.33 437.158 781.33V783.413H436.614C436.064 783.413 435.57 783.506 435.132 783.694C434.706 783.869 434.362 784.176 434.1 784.613C433.85 785.039 433.725 785.633 433.725 786.396V790.861H431.736ZM438.863 790.861V777.352H440.852V785.401L444.417 781.555H446.8L442.841 785.777L447.381 790.861H444.867L440.852 786.096V790.861H438.863ZM452.561 791.086C451.648 791.086 450.835 790.886 450.122 790.486C449.421 790.073 448.871 789.504 448.47 788.779C448.07 788.053 447.87 787.209 447.87 786.246C447.87 785.27 448.064 784.413 448.452 783.675C448.852 782.937 449.402 782.362 450.103 781.949C450.816 781.536 451.641 781.33 452.579 781.33C453.493 781.33 454.287 781.536 454.962 781.949C455.638 782.349 456.163 782.887 456.538 783.563C456.914 784.238 457.101 784.982 457.101 785.795C457.101 785.92 457.095 786.058 457.082 786.208C457.082 786.346 457.076 786.502 457.064 786.677H449.821C449.884 787.578 450.178 788.266 450.703 788.741C451.241 789.204 451.86 789.435 452.561 789.435C453.124 789.435 453.593 789.31 453.968 789.06C454.356 788.797 454.643 788.447 454.831 788.009H456.82C456.57 788.885 456.069 789.617 455.319 790.205C454.581 790.792 453.661 791.086 452.561 791.086ZM452.561 782.962C451.898 782.962 451.31 783.162 450.797 783.563C450.284 783.95 449.971 784.538 449.859 785.326H455.112C455.075 784.601 454.818 784.025 454.343 783.6C453.868 783.175 453.274 782.962 452.561 782.962ZM462.829 790.861C461.916 790.861 461.191 790.642 460.653 790.205C460.115 789.754 459.846 788.96 459.846 787.822V783.225H458.251V781.555H459.846L460.09 779.191H461.835V781.555H464.462V783.225H461.835V787.822C461.835 788.335 461.941 788.691 462.154 788.891C462.379 789.079 462.76 789.173 463.298 789.173H464.368V790.861H462.829ZM467.638 779.791C467.263 779.791 466.95 779.679 466.7 779.454C466.462 779.216 466.343 778.922 466.343 778.572C466.343 778.222 466.462 777.934 466.7 777.709C466.95 777.471 467.263 777.352 467.638 777.352C468.013 777.352 468.32 777.471 468.557 777.709C468.807 777.934 468.933 778.222 468.933 778.572C468.933 778.922 468.807 779.216 468.557 779.454C468.32 779.679 468.013 779.791 467.638 779.791ZM466.644 790.861V781.555H468.632V790.861H466.644ZM471.258 790.861V781.555H473.021L473.172 783.187C473.459 782.612 473.878 782.162 474.429 781.837C474.991 781.499 475.636 781.33 476.361 781.33C477.487 781.33 478.369 781.68 479.007 782.381C479.657 783.081 479.982 784.126 479.982 785.514V790.861H478.012V785.72C478.012 783.919 477.274 783.019 475.798 783.019C475.06 783.019 474.447 783.281 473.96 783.807C473.484 784.332 473.247 785.082 473.247 786.058V790.861H471.258ZM486.133 788.009C485.646 788.009 485.195 787.953 484.783 787.841L483.976 788.629C484.113 788.716 484.282 788.791 484.482 788.854C484.682 788.916 484.964 788.973 485.327 789.023C485.689 789.073 486.183 789.123 486.809 789.173C488.047 789.285 488.942 789.585 489.492 790.073C490.042 790.549 490.317 791.186 490.317 791.987C490.317 792.537 490.167 793.056 489.867 793.544C489.579 794.045 489.123 794.445 488.497 794.745C487.885 795.058 487.097 795.214 486.133 795.214C484.833 795.214 483.776 794.964 482.963 794.464C482.162 793.976 481.762 793.232 481.762 792.231C481.762 791.843 481.862 791.455 482.062 791.068C482.275 790.692 482.606 790.336 483.056 789.998C482.794 789.886 482.562 789.767 482.362 789.642C482.175 789.504 482.006 789.367 481.856 789.229V788.779L483.469 787.128C482.744 786.502 482.381 785.683 482.381 784.67C482.381 784.057 482.525 783.5 482.812 783C483.113 782.487 483.544 782.08 484.107 781.78C484.67 781.48 485.345 781.33 486.133 781.33C486.659 781.33 487.147 781.405 487.597 781.555H491.068V782.868L489.417 782.962C489.717 783.475 489.867 784.044 489.867 784.67C489.867 785.295 489.717 785.858 489.417 786.358C489.129 786.859 488.704 787.259 488.141 787.559C487.591 787.859 486.921 788.009 486.133 788.009ZM486.133 786.452C486.709 786.452 487.172 786.302 487.522 786.002C487.885 785.689 488.066 785.251 488.066 784.688C488.066 784.113 487.885 783.675 487.522 783.375C487.172 783.075 486.709 782.925 486.133 782.925C485.546 782.925 485.07 783.075 484.707 783.375C484.357 783.675 484.182 784.113 484.182 784.688C484.182 785.251 484.357 785.689 484.707 786.002C485.07 786.302 485.546 786.452 486.133 786.452ZM483.638 792.043C483.638 792.581 483.876 792.981 484.351 793.244C484.826 793.519 485.42 793.657 486.133 793.657C486.821 793.657 487.378 793.507 487.803 793.207C488.229 792.919 488.441 792.531 488.441 792.043C488.441 791.681 488.297 791.368 488.01 791.105C487.722 790.855 487.178 790.699 486.377 790.636C485.777 790.599 485.245 790.542 484.783 790.467C484.345 790.705 484.045 790.961 483.882 791.237C483.719 791.512 483.638 791.781 483.638 792.043Z" fill="white"/>
<path d="M583.393 736.248V723.114H585.382V734.672H591.348V736.248H583.393ZM594.54 725.178C594.164 725.178 593.852 725.065 593.602 724.84C593.364 724.602 593.245 724.308 593.245 723.958C593.245 723.608 593.364 723.32 593.602 723.095C593.852 722.857 594.164 722.739 594.54 722.739C594.915 722.739 595.221 722.857 595.459 723.095C595.709 723.32 595.834 723.608 595.834 723.958C595.834 724.308 595.709 724.602 595.459 724.84C595.221 725.065 594.915 725.178 594.54 725.178ZM593.545 736.248V726.941H595.534V736.248H593.545ZM605.664 740.375V734.803C605.364 735.241 604.951 735.628 604.426 735.966C603.901 736.304 603.225 736.473 602.4 736.473C601.499 736.473 600.705 736.26 600.017 735.835C599.329 735.41 598.791 734.828 598.403 734.09C598.016 733.352 597.822 732.514 597.822 731.576C597.822 730.638 598.016 729.806 598.403 729.08C598.791 728.342 599.329 727.767 600.017 727.354C600.717 726.929 601.518 726.716 602.419 726.716C603.157 726.716 603.801 726.86 604.351 727.148C604.914 727.435 605.352 727.842 605.664 728.367L605.871 726.941H607.653V740.375H605.664ZM602.756 734.747C603.607 734.747 604.301 734.453 604.839 733.865C605.389 733.277 605.664 732.52 605.664 731.594C605.664 730.656 605.389 729.9 604.839 729.324C604.301 728.736 603.607 728.442 602.756 728.442C601.906 728.442 601.205 728.736 600.655 729.324C600.105 729.9 599.829 730.656 599.829 731.594C599.829 732.207 599.954 732.751 600.205 733.227C600.455 733.702 600.799 734.077 601.237 734.353C601.687 734.615 602.193 734.747 602.756 734.747ZM613.594 736.473C612.469 736.473 611.581 736.122 610.93 735.422C610.292 734.722 609.973 733.677 609.973 732.289V726.941H611.962V732.082C611.962 733.883 612.7 734.784 614.176 734.784C614.914 734.784 615.521 734.521 615.996 733.996C616.471 733.471 616.709 732.72 616.709 731.745V726.941H618.698V736.248H616.934L616.784 734.615C616.496 735.191 616.071 735.647 615.508 735.985C614.958 736.31 614.32 736.473 613.594 736.473ZM622.354 725.178C621.978 725.178 621.666 725.065 621.415 724.84C621.178 724.602 621.059 724.308 621.059 723.958C621.059 723.608 621.178 723.32 621.415 723.095C621.666 722.857 621.978 722.739 622.354 722.739C622.729 722.739 623.035 722.857 623.273 723.095C623.523 723.32 623.648 723.608 623.648 723.958C623.648 724.308 623.523 724.602 623.273 724.84C623.035 725.065 622.729 725.178 622.354 725.178ZM621.359 736.248V726.941H623.348V736.248H621.359ZM630.214 736.473C629.313 736.473 628.519 736.26 627.831 735.835C627.143 735.41 626.605 734.828 626.217 734.09C625.829 733.352 625.636 732.514 625.636 731.576C625.636 730.638 625.829 729.806 626.217 729.08C626.605 728.342 627.143 727.767 627.831 727.354C628.531 726.929 629.332 726.716 630.232 726.716C630.97 726.716 631.615 726.86 632.165 727.148C632.728 727.435 633.166 727.842 633.478 728.367V722.739H635.467V736.248H633.685L633.478 734.803C633.178 735.241 632.765 735.628 632.24 735.966C631.715 736.304 631.039 736.473 630.214 736.473ZM630.57 734.747C631.421 734.747 632.115 734.453 632.653 733.865C633.203 733.277 633.478 732.52 633.478 731.594C633.478 730.656 633.203 729.9 632.653 729.324C632.115 728.736 631.421 728.442 630.57 728.442C629.72 728.442 629.019 728.736 628.469 729.324C627.918 729.9 627.643 730.656 627.643 731.594C627.643 732.207 627.768 732.751 628.018 733.227C628.269 733.702 628.613 734.077 629.05 734.353C629.501 734.615 630.007 734.747 630.57 734.747ZM639.1 725.178C638.725 725.178 638.412 725.065 638.162 724.84C637.925 724.602 637.806 724.308 637.806 723.958C637.806 723.608 637.925 723.32 638.162 723.095C638.412 722.857 638.725 722.739 639.1 722.739C639.476 722.739 639.782 722.857 640.02 723.095C640.27 723.32 640.395 723.608 640.395 723.958C640.395 724.308 640.27 724.602 640.02 724.84C639.782 725.065 639.476 725.178 639.1 725.178ZM638.106 736.248V726.941H640.095V736.248H638.106ZM646.623 736.248C645.71 736.248 644.984 736.029 644.446 735.591C643.909 735.141 643.64 734.346 643.64 733.208V728.611H642.045V726.941H643.64L643.884 724.577H645.628V726.941H648.255V728.611H645.628V733.208C645.628 733.721 645.735 734.077 645.947 734.278C646.173 734.465 646.554 734.559 647.092 734.559H648.161V736.248H646.623ZM651.394 740.375L653.627 735.478H653.083L649.405 726.941H651.563L654.415 733.827L657.398 726.941H659.499L653.495 740.375H651.394Z" fill="white"/>
<path d="M583.393 790.861V777.728H587.915C588.953 777.728 589.804 777.903 590.467 778.253C591.142 778.603 591.642 779.078 591.968 779.679C592.293 780.267 592.455 780.923 592.455 781.649C592.455 782.462 592.237 783.2 591.799 783.863C591.373 784.526 590.704 785.001 589.791 785.289L592.587 790.861H590.279L587.727 785.57H585.382V790.861H583.393ZM585.382 784.069H587.802C588.703 784.069 589.36 783.85 589.772 783.413C590.198 782.975 590.41 782.406 590.41 781.705C590.41 781.005 590.204 780.448 589.791 780.035C589.378 779.61 588.709 779.397 587.784 779.397H585.382V784.069ZM598.518 791.086C597.605 791.086 596.792 790.886 596.079 790.486C595.378 790.073 594.828 789.504 594.428 788.779C594.028 788.053 593.827 787.209 593.827 786.246C593.827 785.27 594.021 784.413 594.409 783.675C594.809 782.937 595.36 782.362 596.06 781.949C596.773 781.536 597.599 781.33 598.537 781.33C599.45 781.33 600.244 781.536 600.92 781.949C601.595 782.349 602.12 782.887 602.496 783.563C602.871 784.238 603.059 784.982 603.059 785.795C603.059 785.92 603.052 786.058 603.04 786.208C603.04 786.346 603.034 786.502 603.021 786.677H595.779C595.841 787.578 596.135 788.266 596.661 788.741C597.198 789.204 597.818 789.435 598.518 789.435C599.081 789.435 599.55 789.31 599.925 789.06C600.313 788.797 600.601 788.447 600.788 788.009H602.777C602.527 788.885 602.027 789.617 601.276 790.205C600.538 790.792 599.619 791.086 598.518 791.086ZM598.518 782.962C597.855 782.962 597.267 783.162 596.754 783.563C596.242 783.95 595.929 784.538 595.816 785.326H601.07C601.032 784.601 600.776 784.025 600.3 783.6C599.825 783.175 599.231 782.962 598.518 782.962ZM608.837 791.086C607.661 791.086 606.692 790.799 605.929 790.223C605.166 789.648 604.728 788.885 604.616 787.934H606.623C606.723 788.36 606.961 788.729 607.336 789.041C607.711 789.342 608.205 789.492 608.818 789.492C609.419 789.492 609.857 789.367 610.132 789.116C610.407 788.866 610.544 788.579 610.544 788.253C610.544 787.778 610.351 787.459 609.963 787.296C609.588 787.121 609.062 786.965 608.387 786.827C607.861 786.715 607.336 786.565 606.811 786.377C606.298 786.189 605.866 785.927 605.516 785.589C605.178 785.239 605.01 784.77 605.01 784.182C605.01 783.369 605.322 782.693 605.948 782.155C606.573 781.605 607.449 781.33 608.574 781.33C609.613 781.33 610.451 781.58 611.089 782.08C611.739 782.581 612.121 783.287 612.233 784.201H610.319C610.257 783.8 610.069 783.488 609.756 783.262C609.456 783.037 609.05 782.925 608.537 782.925C608.037 782.925 607.649 783.031 607.374 783.244C607.098 783.444 606.961 783.707 606.961 784.032C606.961 784.357 607.148 784.613 607.524 784.801C607.911 784.989 608.418 785.157 609.043 785.308C609.669 785.445 610.244 785.608 610.77 785.795C611.307 785.971 611.739 786.233 612.064 786.583C612.389 786.934 612.552 787.447 612.552 788.122C612.565 788.973 612.233 789.679 611.558 790.242C610.895 790.805 609.988 791.086 608.837 791.086ZM619.076 791.086C618.163 791.086 617.35 790.886 616.637 790.486C615.937 790.073 615.386 789.504 614.986 788.779C614.586 788.053 614.385 787.209 614.385 786.246C614.385 785.27 614.579 784.413 614.967 783.675C615.367 782.937 615.918 782.362 616.618 781.949C617.331 781.536 618.157 781.33 619.095 781.33C620.008 781.33 620.802 781.536 621.478 781.949C622.153 782.349 622.678 782.887 623.054 783.563C623.429 784.238 623.617 784.982 623.617 785.795C623.617 785.92 623.61 786.058 623.598 786.208C623.598 786.346 623.592 786.502 623.579 786.677H616.337C616.399 787.578 616.693 788.266 617.219 788.741C617.756 789.204 618.376 789.435 619.076 789.435C619.639 789.435 620.108 789.31 620.483 789.06C620.871 788.797 621.159 788.447 621.346 788.009H623.335C623.085 788.885 622.585 789.617 621.834 790.205C621.096 790.792 620.177 791.086 619.076 791.086ZM619.076 782.962C618.413 782.962 617.825 783.162 617.312 783.563C616.8 783.95 616.487 784.538 616.374 785.326H621.628C621.59 784.601 621.334 784.025 620.859 783.6C620.383 783.175 619.789 782.962 619.076 782.962ZM628.832 791.086C628.044 791.086 627.394 790.955 626.881 790.692C626.368 790.43 625.987 790.086 625.736 789.66C625.486 789.223 625.361 788.747 625.361 788.235C625.361 787.334 625.711 786.621 626.412 786.096C627.112 785.57 628.113 785.308 629.414 785.308H631.853V785.139C631.853 784.413 631.653 783.869 631.253 783.506C630.865 783.144 630.358 782.962 629.733 782.962C629.182 782.962 628.701 783.1 628.288 783.375C627.888 783.638 627.644 784.032 627.556 784.557H625.568C625.63 783.882 625.855 783.306 626.243 782.831C626.643 782.343 627.144 781.974 627.744 781.724C628.357 781.461 629.026 781.33 629.752 781.33C631.052 781.33 632.059 781.674 632.772 782.362C633.485 783.037 633.842 783.963 633.842 785.139V790.861H632.116L631.947 789.266C631.684 789.779 631.303 790.211 630.802 790.561C630.302 790.911 629.645 791.086 628.832 791.086ZM629.226 789.473C629.764 789.473 630.214 789.348 630.577 789.098C630.952 788.835 631.24 788.491 631.44 788.066C631.653 787.64 631.784 787.171 631.834 786.658H629.62C628.832 786.658 628.269 786.796 627.932 787.071C627.606 787.346 627.444 787.69 627.444 788.103C627.444 788.528 627.6 788.866 627.913 789.116C628.238 789.354 628.676 789.473 629.226 789.473ZM636.161 790.861V781.555H637.943L638.112 783.319C638.437 782.706 638.888 782.224 639.463 781.874C640.051 781.511 640.758 781.33 641.583 781.33V783.413H641.039C640.489 783.413 639.995 783.506 639.557 783.694C639.131 783.869 638.787 784.176 638.525 784.613C638.275 785.039 638.15 785.633 638.15 786.396V790.861H636.161ZM647.441 791.086C646.528 791.086 645.709 790.88 644.983 790.467C644.27 790.054 643.707 789.485 643.294 788.76C642.894 788.022 642.694 787.171 642.694 786.208C642.694 785.245 642.894 784.401 643.294 783.675C643.707 782.937 644.27 782.362 644.983 781.949C645.709 781.536 646.528 781.33 647.441 781.33C648.592 781.33 649.555 781.63 650.33 782.231C651.118 782.831 651.625 783.644 651.85 784.67H649.767C649.642 784.157 649.367 783.757 648.942 783.469C648.517 783.181 648.016 783.037 647.441 783.037C646.953 783.037 646.503 783.162 646.09 783.413C645.677 783.65 645.346 784.007 645.096 784.482C644.845 784.945 644.72 785.52 644.72 786.208C644.72 786.896 644.845 787.478 645.096 787.953C645.346 788.416 645.677 788.772 646.09 789.023C646.503 789.273 646.953 789.398 647.441 789.398C648.016 789.398 648.517 789.254 648.942 788.966C649.367 788.679 649.642 788.272 649.767 787.747H651.85C651.637 788.747 651.137 789.554 650.349 790.167C649.561 790.78 648.592 791.086 647.441 791.086ZM654.007 790.861V777.352H655.996V783.056C656.309 782.518 656.74 782.099 657.29 781.799C657.853 781.486 658.472 781.33 659.148 781.33C660.261 781.33 661.137 781.68 661.775 782.381C662.413 783.081 662.732 784.126 662.732 785.514V790.861H660.762V785.72C660.762 783.919 660.042 783.019 658.604 783.019C657.853 783.019 657.228 783.281 656.728 783.807C656.24 784.332 655.996 785.082 655.996 786.058V790.861H654.007ZM673.929 791.086C672.991 791.086 672.172 790.924 671.471 790.599C670.783 790.261 670.245 789.792 669.857 789.191C669.47 788.591 669.276 787.891 669.276 787.09C669.276 786.214 669.52 785.433 670.008 784.745C670.508 784.057 671.24 783.506 672.203 783.094C671.803 782.643 671.515 782.218 671.34 781.818C671.165 781.418 671.077 780.98 671.077 780.504C671.077 779.641 671.39 778.928 672.015 778.365C672.641 777.79 673.51 777.502 674.623 777.502C675.349 777.502 675.974 777.64 676.499 777.915C677.025 778.19 677.425 778.559 677.7 779.022C677.975 779.485 678.107 780.01 678.094 780.598H676.162C676.174 780.098 676.018 779.716 675.693 779.454C675.38 779.191 675.017 779.06 674.604 779.06C674.117 779.06 673.729 779.197 673.441 779.472C673.153 779.735 673.01 780.073 673.01 780.486C673.01 780.848 673.11 781.205 673.31 781.555C673.522 781.905 673.841 782.299 674.267 782.737L678.169 786.658C678.482 786.183 678.82 785.62 679.182 784.97L679.67 784.051H681.734L680.984 785.42C680.471 786.421 679.964 787.259 679.464 787.934L682.391 790.861H679.952L678.357 789.266C677.706 789.904 677.025 790.367 676.312 790.655C675.599 790.943 674.805 791.086 673.929 791.086ZM671.208 786.977C671.208 787.678 671.459 788.26 671.959 788.722C672.472 789.185 673.141 789.417 673.966 789.417C674.579 789.417 675.136 789.31 675.636 789.098C676.137 788.872 676.624 788.51 677.1 788.009L673.366 784.276C672.641 784.576 672.096 784.957 671.734 785.42C671.383 785.87 671.208 786.39 671.208 786.977ZM688.712 790.861V777.728H692.971C694.51 777.728 695.773 777.996 696.761 778.534C697.762 779.072 698.5 779.835 698.975 780.823C699.463 781.799 699.707 782.962 699.707 784.313C699.707 785.652 699.463 786.815 698.975 787.803C698.5 788.779 697.762 789.535 696.761 790.073C695.773 790.599 694.51 790.861 692.971 790.861H688.712ZM690.701 789.173H692.896C694.084 789.173 695.022 788.979 695.71 788.591C696.411 788.203 696.911 787.647 697.211 786.921C697.524 786.196 697.68 785.326 697.68 784.313C697.68 783.3 697.524 782.424 697.211 781.686C696.911 780.948 696.411 780.386 695.71 779.998C695.022 779.598 694.084 779.397 692.896 779.397H690.701V789.173ZM706.182 791.086C705.269 791.086 704.456 790.886 703.743 790.486C703.043 790.073 702.492 789.504 702.092 788.779C701.692 788.053 701.492 787.209 701.492 786.246C701.492 785.27 701.685 784.413 702.073 783.675C702.473 782.937 703.024 782.362 703.724 781.949C704.437 781.536 705.263 781.33 706.201 781.33C707.114 781.33 707.908 781.536 708.584 781.949C709.259 782.349 709.785 782.887 710.16 783.563C710.535 784.238 710.723 784.982 710.723 785.795C710.723 785.92 710.716 786.058 710.704 786.208C710.704 786.346 710.698 786.502 710.685 786.677H703.443C703.505 787.578 703.799 788.266 704.325 788.741C704.863 789.204 705.482 789.435 706.182 789.435C706.745 789.435 707.214 789.31 707.589 789.06C707.977 788.797 708.265 788.447 708.452 788.009H710.441C710.191 788.885 709.691 789.617 708.94 790.205C708.202 790.792 707.283 791.086 706.182 791.086ZM706.182 782.962C705.519 782.962 704.931 783.162 704.418 783.563C703.906 783.95 703.593 784.538 703.48 785.326H708.734C708.696 784.601 708.44 784.025 707.965 783.6C707.489 783.175 706.895 782.962 706.182 782.962ZM715.028 790.861L711.538 781.555H713.621L716.21 788.966L718.799 781.555H720.863L717.392 790.861H715.028ZM726.374 791.086C725.461 791.086 724.648 790.886 723.935 790.486C723.234 790.073 722.684 789.504 722.284 788.779C721.883 788.053 721.683 787.209 721.683 786.246C721.683 785.27 721.877 784.413 722.265 783.675C722.665 782.937 723.215 782.362 723.916 781.949C724.629 781.536 725.454 781.33 726.392 781.33C727.306 781.33 728.1 781.536 728.775 781.949C729.451 782.349 729.976 782.887 730.351 783.563C730.727 784.238 730.914 784.982 730.914 785.795C730.914 785.92 730.908 786.058 730.895 786.208C730.895 786.346 730.889 786.502 730.877 786.677H723.634C723.697 787.578 723.991 788.266 724.516 788.741C725.054 789.204 725.673 789.435 726.374 789.435C726.937 789.435 727.406 789.31 727.781 789.06C728.169 788.797 728.456 788.447 728.644 788.009H730.633C730.383 788.885 729.882 789.617 729.132 790.205C728.394 790.792 727.474 791.086 726.374 791.086ZM726.374 782.962C725.711 782.962 725.123 783.162 724.61 783.563C724.097 783.95 723.785 784.538 723.672 785.326H728.925C728.888 784.601 728.631 784.025 728.156 783.6C727.681 783.175 727.087 782.962 726.374 782.962ZM732.978 790.861V777.352H734.967V790.861H732.978ZM741.838 791.086C740.95 791.086 740.149 790.886 739.436 790.486C738.736 790.073 738.179 789.504 737.767 788.779C737.354 788.041 737.147 787.184 737.147 786.208C737.147 785.233 737.354 784.382 737.767 783.656C738.192 782.919 738.761 782.349 739.474 781.949C740.187 781.536 740.981 781.33 741.857 781.33C742.745 781.33 743.539 781.536 744.24 781.949C744.953 782.349 745.516 782.919 745.928 783.656C746.354 784.382 746.566 785.233 746.566 786.208C746.566 787.184 746.354 788.041 745.928 788.779C745.516 789.504 744.953 790.073 744.24 790.486C743.527 790.886 742.726 791.086 741.838 791.086ZM741.838 789.379C742.313 789.379 742.751 789.26 743.151 789.023C743.564 788.785 743.896 788.435 744.146 787.972C744.396 787.497 744.521 786.909 744.521 786.208C744.521 785.508 744.396 784.926 744.146 784.463C743.908 783.988 743.583 783.631 743.17 783.394C742.77 783.156 742.332 783.037 741.857 783.037C741.382 783.037 740.937 783.156 740.525 783.394C740.124 783.631 739.799 783.988 739.549 784.463C739.299 784.926 739.174 785.508 739.174 786.208C739.174 786.909 739.299 787.497 739.549 787.972C739.799 788.435 740.124 788.785 740.525 789.023C740.925 789.26 741.363 789.379 741.838 789.379ZM748.717 794.989V781.555H750.499L750.706 783C751.006 782.562 751.419 782.174 751.944 781.837C752.469 781.499 753.145 781.33 753.97 781.33C754.871 781.33 755.665 781.543 756.353 781.968C757.041 782.393 757.579 782.975 757.967 783.713C758.367 784.451 758.567 785.289 758.567 786.227C758.567 787.165 758.367 788.003 757.967 788.741C757.579 789.467 757.041 790.042 756.353 790.467C755.665 790.88 754.865 791.086 753.952 791.086C753.226 791.086 752.582 790.943 752.019 790.655C751.469 790.367 751.031 789.961 750.706 789.435V794.989H748.717ZM753.614 789.36C754.465 789.36 755.165 789.073 755.715 788.497C756.266 787.909 756.541 787.146 756.541 786.208C756.541 785.595 756.416 785.051 756.166 784.576C755.916 784.101 755.572 783.732 755.134 783.469C754.696 783.194 754.189 783.056 753.614 783.056C752.763 783.056 752.063 783.35 751.513 783.938C750.975 784.526 750.706 785.283 750.706 786.208C750.706 787.146 750.975 787.909 751.513 788.497C752.063 789.073 752.763 789.36 753.614 789.36ZM760.718 790.861V781.555H762.482L762.651 782.868C762.951 782.393 763.345 782.018 763.833 781.743C764.333 781.468 764.909 781.33 765.559 781.33C767.035 781.33 768.061 781.912 768.636 783.075C768.974 782.537 769.424 782.112 769.987 781.799C770.562 781.486 771.182 781.33 771.844 781.33C773.008 781.33 773.921 781.68 774.584 782.381C775.247 783.081 775.578 784.126 775.578 785.514V790.861H773.589V785.72C773.589 783.919 772.901 783.019 771.526 783.019C770.825 783.019 770.25 783.281 769.799 783.807C769.362 784.332 769.143 785.082 769.143 786.058V790.861H767.154V785.72C767.154 783.919 766.46 783.019 765.071 783.019C764.383 783.019 763.814 783.281 763.364 783.807C762.926 784.332 762.707 785.082 762.707 786.058V790.861H760.718ZM782.258 791.086C781.345 791.086 780.532 790.886 779.819 790.486C779.118 790.073 778.568 789.504 778.168 788.779C777.767 788.053 777.567 787.209 777.567 786.246C777.567 785.27 777.761 784.413 778.149 783.675C778.549 782.937 779.1 782.362 779.8 781.949C780.513 781.536 781.339 781.33 782.277 781.33C783.19 781.33 783.984 781.536 784.66 781.949C785.335 782.349 785.86 782.887 786.236 783.563C786.611 784.238 786.798 784.982 786.798 785.795C786.798 785.92 786.792 786.058 786.78 786.208C786.78 786.346 786.773 786.502 786.761 786.677H779.519C779.581 787.578 779.875 788.266 780.4 788.741C780.938 789.204 781.557 789.435 782.258 789.435C782.821 789.435 783.29 789.31 783.665 789.06C784.053 788.797 784.341 788.447 784.528 788.009H786.517C786.267 788.885 785.767 789.617 785.016 790.205C784.278 790.792 783.359 791.086 782.258 791.086ZM782.258 782.962C781.595 782.962 781.007 783.162 780.494 783.563C779.981 783.95 779.669 784.538 779.556 785.326H784.81C784.772 784.601 784.516 784.025 784.04 783.6C783.565 783.175 782.971 782.962 782.258 782.962ZM788.862 790.861V781.555H790.626L790.776 783.187C791.063 782.612 791.482 782.162 792.033 781.837C792.596 781.499 793.24 781.33 793.965 781.33C795.091 781.33 795.973 781.68 796.611 782.381C797.261 783.081 797.587 784.126 797.587 785.514V790.861H795.616V785.72C795.616 783.919 794.878 783.019 793.403 783.019C792.665 783.019 792.052 783.281 791.564 783.807C791.088 784.332 790.851 785.082 790.851 786.058V790.861H788.862ZM803.831 790.861C802.918 790.861 802.193 790.642 801.655 790.205C801.117 789.754 800.848 788.96 800.848 787.822V783.225H799.253V781.555H800.848L801.092 779.191H802.837V781.555H805.464V783.225H802.837V787.822C802.837 788.335 802.943 788.691 803.156 788.891C803.381 789.079 803.763 789.173 804.301 789.173H805.37V790.861H803.831Z" fill="white"/>
<path d="M761.554 736.248V724.727H757.67V723.114H767.408V724.727H763.543V736.248H761.554ZM771.861 736.473C770.948 736.473 770.135 736.273 769.422 735.872C768.722 735.46 768.171 734.89 767.771 734.165C767.371 733.439 767.171 732.595 767.171 731.632C767.171 730.656 767.365 729.8 767.752 729.062C768.153 728.324 768.703 727.748 769.403 727.335C770.116 726.923 770.942 726.716 771.88 726.716C772.793 726.716 773.588 726.923 774.263 727.335C774.938 727.736 775.464 728.274 775.839 728.949C776.214 729.624 776.402 730.369 776.402 731.182C776.402 731.307 776.396 731.444 776.383 731.594C776.383 731.732 776.377 731.888 776.364 732.064H769.122C769.185 732.964 769.479 733.652 770.004 734.127C770.542 734.59 771.161 734.822 771.861 734.822C772.424 734.822 772.893 734.697 773.269 734.446C773.656 734.184 773.944 733.833 774.132 733.396H776.12C775.87 734.271 775.37 735.003 774.619 735.591C773.881 736.179 772.962 736.473 771.861 736.473ZM771.861 728.349C771.198 728.349 770.611 728.549 770.098 728.949C769.585 729.337 769.272 729.925 769.16 730.713H774.413C774.376 729.987 774.119 729.412 773.644 728.986C773.168 728.561 772.574 728.349 771.861 728.349ZM781.618 736.473C780.83 736.473 780.179 736.341 779.666 736.079C779.153 735.816 778.772 735.472 778.522 735.047C778.272 734.609 778.146 734.134 778.146 733.621C778.146 732.72 778.497 732.007 779.197 731.482C779.898 730.957 780.898 730.694 782.199 730.694H784.638V730.525C784.638 729.8 784.438 729.255 784.038 728.893C783.65 728.53 783.144 728.349 782.518 728.349C781.968 728.349 781.486 728.486 781.073 728.761C780.673 729.024 780.429 729.418 780.342 729.943H778.353C778.415 729.268 778.641 728.693 779.028 728.217C779.429 727.729 779.929 727.36 780.529 727.11C781.142 726.848 781.811 726.716 782.537 726.716C783.838 726.716 784.845 727.06 785.558 727.748C786.271 728.424 786.627 729.349 786.627 730.525V736.248H784.901L784.732 734.653C784.469 735.166 784.088 735.597 783.588 735.947C783.087 736.298 782.431 736.473 781.618 736.473ZM782.012 734.859C782.549 734.859 783 734.734 783.362 734.484C783.738 734.221 784.025 733.877 784.226 733.452C784.438 733.027 784.569 732.558 784.62 732.045H782.406C781.618 732.045 781.055 732.182 780.717 732.458C780.392 732.733 780.229 733.077 780.229 733.489C780.229 733.915 780.385 734.252 780.698 734.503C781.023 734.74 781.461 734.859 782.012 734.859ZM788.946 736.248V726.941H790.71L790.879 728.255C791.179 727.779 791.573 727.404 792.061 727.129C792.561 726.854 793.136 726.716 793.787 726.716C795.263 726.716 796.288 727.298 796.864 728.461C797.201 727.923 797.652 727.498 798.215 727.185C798.79 726.873 799.409 726.716 800.072 726.716C801.235 726.716 802.149 727.066 802.811 727.767C803.474 728.467 803.806 729.512 803.806 730.9V736.248H801.817V731.107C801.817 729.305 801.129 728.405 799.753 728.405C799.053 728.405 798.477 728.668 798.027 729.193C797.589 729.718 797.37 730.469 797.37 731.444V736.248H795.382V731.107C795.382 729.305 794.687 728.405 793.299 728.405C792.611 728.405 792.042 728.668 791.592 729.193C791.154 729.718 790.935 730.469 790.935 731.444V736.248H788.946Z" fill="white"/>
<rect x="344" y="720.24" width="31.9029" height="21.5768" fill="#0075FF"/>
<rect x="344.357" y="772.861" width="31.9029" height="21.5768" fill="#FFEF9C"/>
<rect x="522.655" y="720.124" width="31.9029" height="21.5768" fill="#6FE5FF"/>
<rect x="522.655" y="772.861" width="31.9029" height="21.5768" fill="#CF2C84"/>
<rect x="697.739" y="720.124" width="31.9029" height="21.5768" fill="#FFC3E0"/>
</svg>
