<svg width="404" height="386" viewBox="0 0 404 386" fill="none" xmlns="http://www.w3.org/2000/svg">
<circle cx="312" cy="130" r="88.6458" fill="#54FF8E" stroke="black" stroke-width="6.70833"/>
<circle cx="312.221" cy="130.22" r="67.952" fill="white" stroke="black" stroke-width="4.41247"/>
<path d="M286.907 147.479H300.462L313.192 135.987L325.922 147.479H339.477L319.91 130.153L339.477 112.767H325.922L313.192 124.259L300.462 112.767H286.907L306.414 130.153L286.907 147.479Z" fill="black"/>
<circle cx="92" cy="130" r="88.6458" fill="#54FF8E" stroke="black" stroke-width="6.70833"/>
<circle cx="92.2208" cy="130.22" r="67.952" fill="white" stroke="black" stroke-width="4.41247"/>
<path d="M66.9065 147.479H80.4617L93.1917 135.987L105.922 147.479H119.477L99.9103 130.153L119.477 112.767H105.922L93.1917 124.259L80.4617 112.767H66.9065L86.4141 130.153L66.9065 147.479Z" fill="black"/>
<circle cx="201.287" cy="130.287" r="125.537" fill="#54FF8E" stroke="black" stroke-width="9.5001"/>
<circle cx="201.6" cy="130.599" r="96.2312" fill="white" stroke="black" stroke-width="6.24878"/>
<path d="M165.029 154.984H184.226L202.253 138.709L220.281 154.984H239.478L211.768 130.447L239.478 105.825H220.281L202.253 122.1L184.226 105.825H165.029L192.655 130.447L165.029 154.984Z" fill="black"/>
<path d="M153.348 333.501H220.008M220.008 333.501L270.259 292.479C272.994 290.428 280.925 286.941 290.77 289.403L307.179 292.479C312.648 292.479 320.306 295.966 307.179 309.914L260.004 362.216C256.586 367.344 246.467 377.804 233.34 378.625L116.429 380.676C111.301 381.701 100.84 380.881 100.02 369.395V310.939C100.362 307.179 104.122 299.658 116.429 299.658H180.012C186.165 300.342 212.829 319.554 216.931 329.399L220.008 333.501Z" stroke="black" stroke-width="8.28181"/>
</svg>
