<svg width="165" height="31" viewBox="0 0 165 31" fill="none" xmlns="http://www.w3.org/2000/svg">
<g clip-path="url(#clip0_531_10314)">
<path d="M156.862 15.5198L151.228 19.7348L137.331 30.1543V21.7102L145.594 15.5198L137.331 9.32931V0.885254L151.228 11.2908L156.862 15.5198Z" fill="black"/>
<path d="M156.75 15.5059L165 9.32931V0.885254L151.116 11.2908L156.75 15.5059Z" fill="#2BB673"/>
<path d="M156.737 15.52L165 21.7105V30.1545L151.117 19.749L151.103 19.7351L156.737 15.52Z" fill="#2BB673"/>
<path d="M5.73139 18.9699C5.73139 21.3348 7.65113 22.4198 14.9127 22.4198C20.9363 22.4198 22.7447 21.7521 22.7447 19.9993C22.7447 18.2465 21.4788 17.8292 14.245 17.4814C4.50721 17.0362 0.667735 15.506 0.667735 10.5258C0.667735 5.54562 5.67574 4.05713 14.0224 4.05713C22.3691 4.05713 27.5301 6.15771 27.5301 11.6804H21.7988C21.7988 9.21816 19.3365 8.61998 13.3825 8.61998C7.81806 8.61998 6.42695 9.16252 6.42695 10.8179C6.42695 12.4734 7.81806 12.849 14.2728 13.2385C23.0647 13.7115 28.5178 14.1983 28.5178 19.8324C28.5178 25.7863 22.8699 26.9966 14.6067 26.9966C5.45317 26.9827 0 25.4246 0 18.9699H5.73139Z" fill="black"/>
<path d="M50.3304 19.9434H55.7418C54.5037 24.7288 49.8574 26.9824 42.9018 26.9824C35.9462 26.9824 30.2288 24.2002 30.2288 17.2446C30.2288 10.2891 35.6124 7.50684 43.2218 7.50684C50.3582 7.50684 56.0617 9.9552 56.0617 18.4966H35.8071C36.4053 21.4875 39.271 22.4752 42.9018 22.4752C46.5326 22.4752 48.9671 21.8631 50.3304 19.9434ZM35.988 15.1023H50.233C49.3148 12.4592 46.63 11.7219 43.1939 11.7219C39.4658 11.7219 36.8505 12.4592 35.988 15.1023Z" fill="black"/>
<path d="M78.2642 8.2168V12.7797C76.694 12.36 75.0762 12.145 73.4509 12.1397C69.8793 12.0673 66.3916 13.2266 63.574 15.4228V26.663H58.1348V7.8412H63.574V11.0825C66.2222 8.73694 69.6644 7.48837 73.2005 7.5908C74.9084 7.57969 76.6105 7.79011 78.2642 8.2168V8.2168Z" fill="black"/>
<path d="M106.225 7.84082L96.7102 26.6626H88.9339L79.4326 7.84082H85.484L92.8569 22.7536L100.16 7.84082H106.225Z" fill="black"/>
<path d="M130.667 17.2029V26.6625H125.2V24.3393C121.658 26.1031 117.75 27.0085 113.793 26.9825C108.534 26.9825 105.251 25.2992 105.251 21.0563C105.251 16.1874 110.607 14.6572 116.561 14.6572C119.496 14.6588 122.413 15.1284 125.2 16.0483C125.2 12.4871 120.609 12.1949 118.064 12.1949C114.909 12.1844 111.771 12.6535 108.757 13.586L106.81 9.59354C110.492 8.32674 114.351 7.65064 118.244 7.59033C126.132 7.59033 130.598 10.0943 130.667 17.2029ZM125.2 19.3731C122.619 18.5785 119.929 18.1936 117.229 18.2324C113.153 18.2324 110.691 18.9279 110.691 20.8337C110.691 22.7396 112.513 22.976 115.351 22.976C118.736 22.8614 122.073 22.1356 125.2 20.8337V19.3731Z" fill="black"/>
</g>
<defs>
<clipPath id="clip0_531_10314">
<rect width="165" height="29.269" fill="white" transform="translate(0 0.885742)"/>
</clipPath>
</defs>
</svg>
