<svg width="965" height="455" viewBox="0 0 965 455" fill="none" xmlns="http://www.w3.org/2000/svg">
<path d="M76.5679 0.49913L76.5678 451.135" stroke="#54FF8E" stroke-width="3.91177"/>
<path d="M78.1235 449.572L964.242 449.572" stroke="#54FF8E" stroke-width="3.91177"/>
<rect x="117.507" y="305.19" width="119.915" height="144.238" fill="#0075FF"/>
<rect x="272.491" y="305.19" width="119.915" height="144.238" fill="#6FE5FF"/>
<rect x="426.345" y="379.444" width="121.046" height="69.9851" fill="#FFC3E0"/>
<rect x="581.996" y="394.487" width="118.93" height="55.5313" fill="#FFEF9C"/>
<rect x="735.183" y="420.41" width="121.046" height="29.0182" fill="#CF2C84"/>
<path d="M18.253 31.7263V21.8259L16.3241 22.2698V20.9383L18.9699 19.7776H20.1306V31.7263H18.253ZM27.3377 31.9311C26.2566 31.9311 25.3235 31.6751 24.5383 31.163C23.7645 30.6395 23.167 29.9169 22.746 28.9952C22.3363 28.062 22.1315 26.981 22.1315 25.7519C22.1315 24.5229 22.3363 23.4476 22.746 22.5258C23.167 21.5927 23.7645 20.8701 24.5383 20.358C25.3235 19.8345 26.2566 19.5728 27.3377 19.5728C28.4188 19.5728 29.3462 19.8345 30.12 20.358C30.8938 20.8701 31.4856 21.5927 31.8953 22.5258C32.3163 23.4476 32.5268 24.5229 32.5268 25.7519C32.5268 26.981 32.3163 28.062 31.8953 28.9952C31.4856 29.9169 30.8938 30.6395 30.12 31.163C29.3462 31.6751 28.4188 31.9311 27.3377 31.9311ZM27.3377 30.3095C27.9863 30.3095 28.561 30.1274 29.0617 29.7633C29.5738 29.3991 29.9721 28.8757 30.2566 28.1929C30.5411 27.5101 30.6833 26.6965 30.6833 25.7519C30.6833 24.8074 30.5411 23.9938 30.2566 23.311C29.9721 22.6282 29.5738 22.1048 29.0617 21.7406C28.561 21.3765 27.9863 21.1944 27.3377 21.1944C26.6777 21.1944 26.0973 21.3765 25.5966 21.7406C25.0959 22.1048 24.7033 22.6282 24.4188 23.311C24.1343 23.9938 23.9921 24.8074 23.9921 25.7519C23.9921 26.6965 24.1343 27.5101 24.4188 28.1929C24.7033 28.8757 25.0959 29.3991 25.5966 29.7633C26.0973 30.1274 26.6777 30.3095 27.3377 30.3095ZM39.323 31.9311C38.242 31.9311 37.3088 31.6751 36.5236 31.163C35.7498 30.6395 35.1524 29.9169 34.7313 28.9952C34.3217 28.062 34.1168 26.981 34.1168 25.7519C34.1168 24.5229 34.3217 23.4476 34.7313 22.5258C35.1524 21.5927 35.7498 20.8701 36.5236 20.358C37.3088 19.8345 38.242 19.5728 39.323 19.5728C40.4041 19.5728 41.3316 19.8345 42.1054 20.358C42.8792 20.8701 43.4709 21.5927 43.8806 22.5258C44.3017 23.4476 44.5122 24.5229 44.5122 25.7519C44.5122 26.981 44.3017 28.062 43.8806 28.9952C43.4709 29.9169 42.8792 30.6395 42.1054 31.163C41.3316 31.6751 40.4041 31.9311 39.323 31.9311ZM39.323 30.3095C39.9717 30.3095 40.5464 30.1274 41.0471 29.7633C41.5592 29.3991 41.9574 28.8757 42.2419 28.1929C42.5264 27.5101 42.6687 26.6965 42.6687 25.7519C42.6687 24.8074 42.5264 23.9938 42.2419 23.311C41.9574 22.6282 41.5592 22.1048 41.0471 21.7406C40.5464 21.3765 39.9717 21.1944 39.323 21.1944C38.663 21.1944 38.0827 21.3765 37.582 21.7406C37.0812 22.1048 36.6886 22.6282 36.4042 23.311C36.1197 23.9938 35.9774 24.8074 35.9774 25.7519C35.9774 26.6965 36.1197 27.5101 36.4042 28.1929C36.6886 28.8757 37.0812 29.3991 37.582 29.7633C38.0827 30.1274 38.663 30.3095 39.323 30.3095ZM48.8333 25.4788C48.2985 25.4788 47.8148 25.3593 47.3824 25.1204C46.9614 24.8814 46.6257 24.5457 46.3753 24.1133C46.125 23.6695 45.9998 23.1403 45.9998 22.5258C45.9998 21.9227 46.125 21.4049 46.3753 20.9725C46.6257 20.5287 46.967 20.1873 47.3995 19.9483C47.8319 19.7093 48.3155 19.5898 48.8504 19.5898C49.3739 19.5898 49.8461 19.7093 50.2672 19.9483C50.6996 20.1873 51.041 20.5287 51.2913 20.9725C51.5417 21.4049 51.6669 21.9227 51.6669 22.5258C51.6669 23.1403 51.5417 23.6695 51.2913 24.1133C51.041 24.5457 50.6996 24.8814 50.2672 25.1204C49.8461 25.3593 49.3682 25.4788 48.8333 25.4788ZM47.9798 31.7263L54.8247 19.7776H56.6L49.7721 31.7263H47.9798ZM48.8333 24.1815C49.1975 24.1815 49.5104 24.045 49.7721 23.7719C50.0453 23.4874 50.1818 23.072 50.1818 22.5258C50.1818 21.9796 50.0509 21.5699 49.7892 21.2968C49.5275 21.0123 49.2088 20.8701 48.8333 20.8701C48.4692 20.8701 48.1505 21.0123 47.8774 21.2968C47.6043 21.5699 47.4678 21.9796 47.4678 22.5258C47.4678 23.072 47.5986 23.4874 47.8604 23.7719C48.1335 24.045 48.4578 24.1815 48.8333 24.1815ZM55.8489 31.9311C55.3141 31.9311 54.8304 31.8116 54.398 31.5727C53.9769 31.3337 53.6412 30.998 53.3909 30.5656C53.1405 30.1218 53.0154 29.5926 53.0154 28.9781C53.0154 28.375 53.1405 27.8515 53.3909 27.4077C53.6412 26.9639 53.9826 26.6225 54.4151 26.3835C54.8475 26.1445 55.3311 26.0251 55.866 26.0251C56.3894 26.0251 56.8617 26.1445 57.2827 26.3835C57.7152 26.6225 58.0566 26.9639 58.3069 27.4077C58.5573 27.8515 58.6824 28.375 58.6824 28.9781C58.6824 29.5926 58.5573 30.1218 58.3069 30.5656C58.0566 30.998 57.7152 31.3337 57.2827 31.5727C56.8617 31.8116 56.3837 31.9311 55.8489 31.9311ZM55.8489 30.6168C56.2131 30.6168 56.526 30.4802 56.7877 30.2071C57.0608 29.934 57.1974 29.5243 57.1974 28.9781C57.1974 28.4319 57.0665 28.0222 56.8048 27.7491C56.5431 27.4646 56.2244 27.3223 55.8489 27.3223C55.4848 27.3223 55.1661 27.4646 54.893 27.7491C54.6199 28.0222 54.4833 28.4319 54.4833 28.9781C54.4833 29.5243 54.6142 29.934 54.8759 30.2071C55.1491 30.4802 55.4734 30.6168 55.8489 30.6168Z" fill="white"/>
<path d="M28.1036 115.382C27.307 115.382 26.5844 115.239 25.9357 114.955C25.2985 114.659 24.7864 114.249 24.3995 113.726C24.0239 113.202 23.8362 112.588 23.8362 111.882C23.8362 111.165 24.0353 110.522 24.4336 109.953C24.8433 109.384 25.3838 108.997 26.0552 108.793C25.4521 108.554 24.9855 108.207 24.6555 107.751C24.3255 107.285 24.1605 106.773 24.1605 106.215C24.1605 105.635 24.3141 105.106 24.6214 104.628C24.9286 104.138 25.3724 103.751 25.9528 103.467C26.5446 103.171 27.2615 103.023 28.1036 103.023C28.9457 103.023 29.6569 103.171 30.2373 103.467C30.829 103.751 31.2785 104.138 31.5858 104.628C31.893 105.106 32.0466 105.635 32.0466 106.215C32.0466 106.761 31.8759 107.273 31.5346 107.751C31.2045 108.218 30.738 108.565 30.1348 108.793C30.8063 109.009 31.3411 109.401 31.7394 109.97C32.1491 110.528 32.3539 111.165 32.3539 111.882C32.3539 112.588 32.1661 113.202 31.7906 113.726C31.4151 114.249 30.903 114.659 30.2543 114.955C29.6171 115.239 28.9002 115.382 28.1036 115.382ZM28.1036 108.212C28.7636 108.212 29.2814 108.042 29.6569 107.7C30.0438 107.359 30.2373 106.921 30.2373 106.386C30.2373 105.783 30.0495 105.322 29.674 105.003C29.2984 104.685 28.775 104.525 28.1036 104.525C27.4322 104.525 26.9087 104.685 26.5332 105.003C26.1576 105.322 25.9699 105.783 25.9699 106.386C25.9699 106.921 26.1576 107.359 26.5332 107.7C26.9087 108.042 27.4322 108.212 28.1036 108.212ZM28.1036 113.845C28.9229 113.845 29.5374 113.652 29.9471 113.265C30.3568 112.867 30.5616 112.36 30.5616 111.746C30.5616 111.063 30.3397 110.539 29.8959 110.175C29.4634 109.8 28.866 109.612 28.1036 109.612C27.3411 109.612 26.738 109.8 26.2942 110.175C25.8504 110.539 25.6285 111.063 25.6285 111.746C25.6285 112.36 25.8333 112.867 26.243 113.265C26.664 113.652 27.2842 113.845 28.1036 113.845ZM39.3885 115.382C38.3075 115.382 37.3743 115.125 36.5891 114.613C35.8153 114.09 35.2179 113.367 34.7968 112.446C34.3872 111.512 34.1823 110.431 34.1823 109.202C34.1823 107.973 34.3872 106.898 34.7968 105.976C35.2179 105.043 35.8153 104.32 36.5891 103.808C37.3743 103.285 38.3075 103.023 39.3885 103.023C40.4696 103.023 41.3971 103.285 42.1709 103.808C42.9447 104.32 43.5364 105.043 43.9461 105.976C44.3672 106.898 44.5777 107.973 44.5777 109.202C44.5777 110.431 44.3672 111.512 43.9461 112.446C43.5364 113.367 42.9447 114.09 42.1709 114.613C41.3971 115.125 40.4696 115.382 39.3885 115.382ZM39.3885 113.76C40.0372 113.76 40.6119 113.578 41.1126 113.214C41.6247 112.85 42.0229 112.326 42.3074 111.643C42.5919 110.96 42.7342 110.147 42.7342 109.202C42.7342 108.258 42.5919 107.444 42.3074 106.761C42.0229 106.079 41.6247 105.555 41.1126 105.191C40.6119 104.827 40.0372 104.645 39.3885 104.645C38.7285 104.645 38.1482 104.827 37.6474 105.191C37.1467 105.555 36.7541 106.079 36.4697 106.761C36.1852 107.444 36.0429 108.258 36.0429 109.202C36.0429 110.147 36.1852 110.96 36.4697 111.643C36.7541 112.326 37.1467 112.85 37.6474 113.214C38.1482 113.578 38.7285 113.76 39.3885 113.76ZM48.8988 108.929C48.364 108.929 47.8803 108.81 47.4479 108.571C47.0269 108.332 46.6912 107.996 46.4408 107.564C46.1904 107.12 46.0653 106.591 46.0653 105.976C46.0653 105.373 46.1904 104.855 46.4408 104.423C46.6912 103.979 47.0325 103.638 47.465 103.399C47.8974 103.16 48.381 103.04 48.9159 103.04C49.4394 103.04 49.9116 103.16 50.3327 103.399C50.7651 103.638 51.1065 103.979 51.3568 104.423C51.6072 104.855 51.7324 105.373 51.7324 105.976C51.7324 106.591 51.6072 107.12 51.3568 107.564C51.1065 107.996 50.7651 108.332 50.3327 108.571C49.9116 108.81 49.4337 108.929 48.8988 108.929ZM48.0453 115.177L54.8902 103.228H56.6655L49.8376 115.177H48.0453ZM48.8988 107.632C49.263 107.632 49.5759 107.495 49.8376 107.222C50.1108 106.938 50.2473 106.522 50.2473 105.976C50.2473 105.43 50.1164 105.02 49.8547 104.747C49.593 104.463 49.2743 104.32 48.8988 104.32C48.5347 104.32 48.216 104.463 47.9429 104.747C47.6698 105.02 47.5333 105.43 47.5333 105.976C47.5333 106.522 47.6641 106.938 47.9259 107.222C48.199 107.495 48.5233 107.632 48.8988 107.632ZM55.9144 115.382C55.3796 115.382 54.8959 115.262 54.4635 115.023C54.0424 114.784 53.7067 114.448 53.4564 114.016C53.206 113.572 53.0809 113.043 53.0809 112.428C53.0809 111.825 53.206 111.302 53.4564 110.858C53.7067 110.414 54.0481 110.073 54.4806 109.834C54.913 109.595 55.3966 109.475 55.9315 109.475C56.4549 109.475 56.9272 109.595 57.3482 109.834C57.7807 110.073 58.1221 110.414 58.3724 110.858C58.6228 111.302 58.7479 111.825 58.7479 112.428C58.7479 113.043 58.6228 113.572 58.3724 114.016C58.1221 114.448 57.7807 114.784 57.3482 115.023C56.9272 115.262 56.4492 115.382 55.9144 115.382ZM55.9144 114.067C56.2786 114.067 56.5915 113.931 56.8532 113.657C57.1263 113.384 57.2629 112.975 57.2629 112.428C57.2629 111.882 57.132 111.473 56.8703 111.199C56.6086 110.915 56.2899 110.773 55.9144 110.773C55.5502 110.773 55.2316 110.915 54.9585 111.199C54.6854 111.473 54.5488 111.882 54.5488 112.428C54.5488 112.975 54.6797 113.384 54.9414 113.657C55.2145 113.931 55.5389 114.067 55.9144 114.067Z" fill="white"/>
<path d="M28.4108 198.832C27.5346 198.832 26.7949 198.667 26.1918 198.337C25.5887 198.007 25.0993 197.569 24.7238 197.022C24.3597 196.476 24.0979 195.862 23.9386 195.179C23.7793 194.496 23.6996 193.796 23.6996 193.079C23.6996 191.759 23.8817 190.604 24.2459 189.614C24.6214 188.624 25.1562 187.856 25.8504 187.31C26.5446 186.752 27.3867 186.473 28.3767 186.473C29.1619 186.473 29.8333 186.627 30.3909 186.934C30.9485 187.242 31.3809 187.651 31.6882 188.163C32.0068 188.675 32.2003 189.233 32.2685 189.836H30.5787C30.4762 189.244 30.2316 188.789 29.8447 188.471C29.4578 188.152 28.9627 187.993 28.3596 187.993C27.5289 187.993 26.8404 188.385 26.2942 189.17C25.7594 189.944 25.4749 191.139 25.4407 192.755C25.7138 192.254 26.1349 191.828 26.7039 191.475C27.2842 191.122 27.9499 190.946 28.701 190.946C29.3724 190.946 29.9983 191.105 30.5787 191.424C31.1704 191.742 31.6483 192.192 32.0125 192.772C32.388 193.341 32.5758 194.018 32.5758 194.803C32.5758 195.498 32.4051 196.152 32.0637 196.766C31.7223 197.381 31.2387 197.882 30.6128 198.269C29.9983 198.644 29.2643 198.832 28.4108 198.832ZM28.3084 197.261C28.7864 197.261 29.2131 197.159 29.5886 196.954C29.9642 196.749 30.26 196.471 30.4762 196.118C30.6925 195.754 30.8006 195.344 30.8006 194.889C30.8006 194.16 30.5616 193.58 30.0836 193.148C29.6171 192.715 29.0196 192.499 28.2913 192.499C27.8134 192.499 27.381 192.607 26.9941 192.823C26.6185 193.04 26.3226 193.33 26.1064 193.694C25.8902 194.047 25.7821 194.439 25.7821 194.872C25.7821 195.338 25.8902 195.754 26.1064 196.118C26.334 196.471 26.6356 196.749 27.0111 196.954C27.398 197.159 27.8305 197.261 28.3084 197.261ZM39.5886 198.832C38.5075 198.832 37.5744 198.576 36.7892 198.064C36.0154 197.54 35.4179 196.818 34.9969 195.896C34.5872 194.963 34.3824 193.882 34.3824 192.653C34.3824 191.424 34.5872 190.348 34.9969 189.427C35.4179 188.493 36.0154 187.771 36.7892 187.259C37.5744 186.735 38.5075 186.473 39.5886 186.473C40.6696 186.473 41.5971 186.735 42.3709 187.259C43.1447 187.771 43.7365 188.493 44.1461 189.427C44.5672 190.348 44.7777 191.424 44.7777 192.653C44.7777 193.882 44.5672 194.963 44.1461 195.896C43.7365 196.818 43.1447 197.54 42.3709 198.064C41.5971 198.576 40.6696 198.832 39.5886 198.832ZM39.5886 197.21C40.2372 197.21 40.8119 197.028 41.3126 196.664C41.8247 196.3 42.223 195.776 42.5075 195.094C42.792 194.411 42.9342 193.597 42.9342 192.653C42.9342 191.708 42.792 190.895 42.5075 190.212C42.223 189.529 41.8247 189.005 41.3126 188.641C40.8119 188.277 40.2372 188.095 39.5886 188.095C38.9286 188.095 38.3482 188.277 37.8475 188.641C37.3468 189.005 36.9542 189.529 36.6697 190.212C36.3852 190.895 36.2429 191.708 36.2429 192.653C36.2429 193.597 36.3852 194.411 36.6697 195.094C36.9542 195.776 37.3468 196.3 37.8475 196.664C38.3482 197.028 38.9286 197.21 39.5886 197.21ZM49.0988 192.38C48.564 192.38 48.0804 192.26 47.6479 192.021C47.2269 191.782 46.8912 191.446 46.6408 191.014C46.3905 190.57 46.2653 190.041 46.2653 189.427C46.2653 188.823 46.3905 188.306 46.6408 187.873C46.8912 187.429 47.2326 187.088 47.665 186.849C48.0974 186.61 48.5811 186.491 49.1159 186.491C49.6394 186.491 50.1116 186.61 50.5327 186.849C50.9651 187.088 51.3065 187.429 51.5569 187.873C51.8072 188.306 51.9324 188.823 51.9324 189.427C51.9324 190.041 51.8072 190.57 51.5569 191.014C51.3065 191.446 50.9651 191.782 50.5327 192.021C50.1116 192.26 49.6337 192.38 49.0988 192.38ZM48.2454 198.627L55.0903 186.678H56.8655L50.0377 198.627H48.2454ZM49.0988 191.082C49.463 191.082 49.7759 190.946 50.0377 190.673C50.3108 190.388 50.4473 189.973 50.4473 189.427C50.4473 188.88 50.3165 188.471 50.0547 188.198C49.793 187.913 49.4744 187.771 49.0988 187.771C48.7347 187.771 48.4161 187.913 48.143 188.198C47.8698 188.471 47.7333 188.88 47.7333 189.427C47.7333 189.973 47.8642 190.388 48.1259 190.673C48.399 190.946 48.7233 191.082 49.0988 191.082ZM56.1144 198.832C55.5796 198.832 55.0959 198.712 54.6635 198.473C54.2425 198.234 53.9068 197.899 53.6564 197.466C53.4061 197.022 53.2809 196.493 53.2809 195.879C53.2809 195.276 53.4061 194.752 53.6564 194.308C53.9068 193.865 54.2482 193.523 54.6806 193.284C55.113 193.045 55.5967 192.926 56.1315 192.926C56.655 192.926 57.1272 193.045 57.5483 193.284C57.9807 193.523 58.3221 193.865 58.5724 194.308C58.8228 194.752 58.948 195.276 58.948 195.879C58.948 196.493 58.8228 197.022 58.5724 197.466C58.3221 197.899 57.9807 198.234 57.5483 198.473C57.1272 198.712 56.6493 198.832 56.1144 198.832ZM56.1144 197.517C56.4786 197.517 56.7915 197.381 57.0533 197.108C57.3264 196.835 57.4629 196.425 57.4629 195.879C57.4629 195.333 57.3321 194.923 57.0703 194.65C56.8086 194.365 56.49 194.223 56.1144 194.223C55.7503 194.223 55.4317 194.365 55.1585 194.65C54.8854 194.923 54.7489 195.333 54.7489 195.879C54.7489 196.425 54.8797 196.835 55.1415 197.108C55.4146 197.381 55.7389 197.517 56.1144 197.517Z" fill="white"/>
<path d="M29.4691 282.077V279.688H23.4777V278.254L29.179 270.129H31.2614V278.117H32.9343V279.688H31.2614V282.077H29.4691ZM25.4407 278.117H29.5716V272.126L25.4407 278.117ZM39.4386 282.282C38.3575 282.282 37.4243 282.026 36.6391 281.514C35.8653 280.991 35.2679 280.268 34.8468 279.346C34.4372 278.413 34.2323 277.332 34.2323 276.103C34.2323 274.874 34.4372 273.799 34.8468 272.877C35.2679 271.944 35.8653 271.221 36.6391 270.709C37.4243 270.186 38.3575 269.924 39.4386 269.924C40.5196 269.924 41.4471 270.186 42.2209 270.709C42.9947 271.221 43.5865 271.944 43.9961 272.877C44.4172 273.799 44.6277 274.874 44.6277 276.103C44.6277 277.332 44.4172 278.413 43.9961 279.346C43.5865 280.268 42.9947 280.991 42.2209 281.514C41.4471 282.026 40.5196 282.282 39.4386 282.282ZM39.4386 280.661C40.0872 280.661 40.6619 280.479 41.1626 280.114C41.6747 279.75 42.073 279.227 42.3574 278.544C42.6419 277.861 42.7842 277.048 42.7842 276.103C42.7842 275.159 42.6419 274.345 42.3574 273.662C42.073 272.979 41.6747 272.456 41.1626 272.092C40.6619 271.728 40.0872 271.545 39.4386 271.545C38.7785 271.545 38.1982 271.728 37.6975 272.092C37.1968 272.456 36.8042 272.979 36.5197 273.662C36.2352 274.345 36.0929 275.159 36.0929 276.103C36.0929 277.048 36.2352 277.861 36.5197 278.544C36.8042 279.227 37.1968 279.75 37.6975 280.114C38.1982 280.479 38.7785 280.661 39.4386 280.661ZM48.9488 275.83C48.414 275.83 47.9303 275.71 47.4979 275.471C47.0769 275.233 46.7412 274.897 46.4908 274.464C46.2405 274.021 46.1153 273.491 46.1153 272.877C46.1153 272.274 46.2405 271.756 46.4908 271.324C46.7412 270.88 47.0826 270.538 47.515 270.299C47.9474 270.06 48.431 269.941 48.9659 269.941C49.4894 269.941 49.9616 270.06 50.3827 270.299C50.8151 270.538 51.1565 270.88 51.4068 271.324C51.6572 271.756 51.7824 272.274 51.7824 272.877C51.7824 273.491 51.6572 274.021 51.4068 274.464C51.1565 274.897 50.8151 275.233 50.3827 275.471C49.9616 275.71 49.4837 275.83 48.9488 275.83ZM48.0953 282.077L54.9402 270.129H56.7155L49.8876 282.077H48.0953ZM48.9488 274.533C49.313 274.533 49.6259 274.396 49.8876 274.123C50.1608 273.838 50.2973 273.423 50.2973 272.877C50.2973 272.331 50.1665 271.921 49.9047 271.648C49.643 271.363 49.3244 271.221 48.9488 271.221C48.5847 271.221 48.266 271.363 47.9929 271.648C47.7198 271.921 47.5833 272.331 47.5833 272.877C47.5833 273.423 47.7141 273.838 47.9759 274.123C48.249 274.396 48.5733 274.533 48.9488 274.533ZM55.9644 282.282C55.4296 282.282 54.9459 282.163 54.5135 281.924C54.0924 281.685 53.7567 281.349 53.5064 280.917C53.256 280.473 53.1309 279.944 53.1309 279.329C53.1309 278.726 53.256 278.203 53.5064 277.759C53.7567 277.315 54.0981 276.974 54.5306 276.735C54.963 276.496 55.4466 276.376 55.9815 276.376C56.5049 276.376 56.9772 276.496 57.3982 276.735C57.8307 276.974 58.1721 277.315 58.4224 277.759C58.6728 278.203 58.798 278.726 58.798 279.329C58.798 279.944 58.6728 280.473 58.4224 280.917C58.1721 281.349 57.8307 281.685 57.3982 281.924C56.9772 282.163 56.4993 282.282 55.9644 282.282ZM55.9644 280.968C56.3286 280.968 56.6415 280.831 56.9032 280.558C57.1763 280.285 57.3129 279.875 57.3129 279.329C57.3129 278.783 57.182 278.373 56.9203 278.1C56.6586 277.816 56.3399 277.673 55.9644 277.673C55.6003 277.673 55.2816 277.816 55.0085 278.1C54.7354 278.373 54.5988 278.783 54.5988 279.329C54.5988 279.875 54.7297 280.285 54.9914 280.558C55.2646 280.831 55.5889 280.968 55.9644 280.968Z" fill="white"/>
<path d="M24.785 365.528V364.23C25.5588 363.616 26.2985 362.996 27.004 362.37C27.7096 361.744 28.3354 361.13 28.8817 360.526C29.4393 359.912 29.8774 359.314 30.196 358.734C30.5147 358.142 30.674 357.573 30.674 357.027C30.674 356.663 30.6114 356.322 30.4862 356.003C30.361 355.673 30.1562 355.411 29.8717 355.218C29.5872 355.013 29.206 354.911 28.728 354.911C28.0111 354.911 27.4706 355.138 27.1064 355.593C26.7537 356.048 26.583 356.595 26.5943 357.232H24.8362C24.8476 356.39 25.0239 355.684 25.3653 355.115C25.7181 354.546 26.1847 354.114 26.765 353.818C27.3568 353.522 28.0225 353.374 28.7622 353.374C29.8888 353.374 30.7878 353.693 31.4592 354.33C32.142 354.956 32.4833 355.832 32.4833 356.959C32.4833 357.63 32.3183 358.296 31.9883 358.956C31.6697 359.616 31.2486 360.253 30.7252 360.868C30.2131 361.471 29.6612 362.04 29.0694 362.575C28.4777 363.11 27.9144 363.593 27.3795 364.026H32.8418V365.528H24.785ZM39.4384 365.733C38.3573 365.733 37.4242 365.477 36.639 364.964C35.8652 364.441 35.2677 363.718 34.8467 362.797C34.437 361.864 34.2322 360.782 34.2322 359.553C34.2322 358.324 34.437 357.249 34.8467 356.327C35.2677 355.394 35.8652 354.672 36.639 354.159C37.4242 353.636 38.3573 353.374 39.4384 353.374C40.5195 353.374 41.4469 353.636 42.2207 354.159C42.9945 354.672 43.5863 355.394 43.996 356.327C44.417 357.249 44.6275 358.324 44.6275 359.553C44.6275 360.782 44.417 361.864 43.996 362.797C43.5863 363.718 42.9945 364.441 42.2207 364.964C41.4469 365.477 40.5195 365.733 39.4384 365.733ZM39.4384 364.111C40.087 364.111 40.6617 363.929 41.1624 363.565C41.6745 363.201 42.0728 362.677 42.3573 361.994C42.6418 361.312 42.784 360.498 42.784 359.553C42.784 358.609 42.6418 357.795 42.3573 357.112C42.0728 356.43 41.6745 355.906 41.1624 355.542C40.6617 355.178 40.087 354.996 39.4384 354.996C38.7784 354.996 38.198 355.178 37.6973 355.542C37.1966 355.906 36.804 356.43 36.5195 357.112C36.235 357.795 36.0928 358.609 36.0928 359.553C36.0928 360.498 36.235 361.312 36.5195 361.994C36.804 362.677 37.1966 363.201 37.6973 363.565C38.198 363.929 38.7784 364.111 39.4384 364.111ZM48.9487 359.28C48.4138 359.28 47.9302 359.161 47.4977 358.922C47.0767 358.683 46.741 358.347 46.4906 357.915C46.2403 357.471 46.1151 356.942 46.1151 356.327C46.1151 355.724 46.2403 355.206 46.4906 354.774C46.741 354.33 47.0824 353.989 47.5148 353.75C47.9472 353.511 48.4309 353.391 48.9657 353.391C49.4892 353.391 49.9614 353.511 50.3825 353.75C50.8149 353.989 51.1563 354.33 51.4067 354.774C51.657 355.206 51.7822 355.724 51.7822 356.327C51.7822 356.942 51.657 357.471 51.4067 357.915C51.1563 358.347 50.8149 358.683 50.3825 358.922C49.9614 359.161 49.4835 359.28 48.9487 359.28ZM48.0952 365.528L54.9401 353.579H56.7153L49.8875 365.528H48.0952ZM48.9487 357.983C49.3128 357.983 49.6257 357.846 49.8875 357.573C50.1606 357.289 50.2971 356.874 50.2971 356.327C50.2971 355.781 50.1663 355.371 49.9045 355.098C49.6428 354.814 49.3242 354.672 48.9487 354.672C48.5845 354.672 48.2659 354.814 47.9928 355.098C47.7196 355.371 47.5831 355.781 47.5831 356.327C47.5831 356.874 47.714 357.289 47.9757 357.573C48.2488 357.846 48.5731 357.983 48.9487 357.983ZM55.9642 365.733C55.4294 365.733 54.9458 365.613 54.5133 365.374C54.0923 365.135 53.7566 364.799 53.5062 364.367C53.2559 363.923 53.1307 363.394 53.1307 362.78C53.1307 362.176 53.2559 361.653 53.5062 361.209C53.7566 360.765 54.098 360.424 54.5304 360.185C54.9628 359.946 55.4465 359.827 55.9813 359.827C56.5048 359.827 56.977 359.946 57.3981 360.185C57.8305 360.424 58.1719 360.765 58.4223 361.209C58.6726 361.653 58.7978 362.176 58.7978 362.78C58.7978 363.394 58.6726 363.923 58.4223 364.367C58.1719 364.799 57.8305 365.135 57.3981 365.374C56.977 365.613 56.4991 365.733 55.9642 365.733ZM55.9642 364.418C56.3284 364.418 56.6413 364.282 56.9031 364.009C57.1762 363.735 57.3127 363.326 57.3127 362.78C57.3127 362.233 57.1819 361.824 56.9201 361.551C56.6584 361.266 56.3398 361.124 55.9642 361.124C55.6001 361.124 55.2815 361.266 55.0083 361.551C54.7352 361.824 54.5987 362.233 54.5987 362.78C54.5987 363.326 54.7295 363.735 54.9913 364.009C55.2644 364.282 55.5887 364.418 55.9642 364.418Z" fill="white"/>
<path d="M53.8034 449.183C52.7224 449.183 51.7892 448.927 51.004 448.415C50.2302 447.891 49.6328 447.169 49.2117 446.247C48.802 445.314 48.5972 444.233 48.5972 443.004C48.5972 441.775 48.802 440.699 49.2117 439.778C49.6328 438.845 50.2302 438.122 51.004 437.61C51.7892 437.086 52.7224 436.825 53.8034 436.825C54.8845 436.825 55.8119 437.086 56.5858 437.61C57.3596 438.122 57.9513 438.845 58.361 439.778C58.782 440.699 58.9926 441.775 58.9926 443.004C58.9926 444.233 58.782 445.314 58.361 446.247C57.9513 447.169 57.3596 447.891 56.5858 448.415C55.8119 448.927 54.8845 449.183 53.8034 449.183ZM53.8034 447.561C54.4521 447.561 55.0267 447.379 55.5274 447.015C56.0395 446.651 56.4378 446.128 56.7223 445.445C57.0068 444.762 57.1491 443.948 57.1491 443.004C57.1491 442.059 57.0068 441.246 56.7223 440.563C56.4378 439.88 56.0395 439.357 55.5274 438.992C55.0267 438.628 54.4521 438.446 53.8034 438.446C53.1434 438.446 52.563 438.628 52.0623 438.992C51.5616 439.357 51.169 439.88 50.8845 440.563C50.6 441.246 50.4578 442.059 50.4578 443.004C50.4578 443.948 50.6 444.762 50.8845 445.445C51.169 446.128 51.5616 446.651 52.0623 447.015C52.563 447.379 53.1434 447.561 53.8034 447.561Z" fill="white"/>
<path d="M158.743 291.67C157.969 291.67 157.264 291.533 156.626 291.26C156.001 290.976 155.5 290.549 155.124 289.98C154.749 289.411 154.55 288.7 154.527 287.846H156.319C156.342 288.484 156.558 289.024 156.968 289.468C157.389 289.9 157.981 290.117 158.743 290.117C159.471 290.117 160.029 289.917 160.416 289.519C160.803 289.11 160.996 288.603 160.996 288C160.996 287.272 160.734 286.731 160.211 286.378C159.699 286.026 159.067 285.849 158.316 285.849H157.429V284.347H158.333C159.005 284.347 159.545 284.188 159.955 283.869C160.376 283.551 160.587 283.101 160.587 282.521C160.587 282.031 160.422 281.633 160.092 281.326C159.773 281.019 159.318 280.865 158.726 280.865C158.111 280.865 157.628 281.047 157.275 281.411C156.922 281.764 156.729 282.208 156.695 282.743H154.902C154.925 282.048 155.096 281.445 155.414 280.933C155.744 280.421 156.194 280.023 156.763 279.738C157.332 279.454 157.986 279.312 158.726 279.312C159.523 279.312 160.188 279.454 160.723 279.738C161.269 280.011 161.679 280.387 161.952 280.865C162.237 281.331 162.379 281.844 162.379 282.401C162.379 283.038 162.202 283.596 161.85 284.074C161.497 284.552 161.025 284.871 160.433 285.03C161.116 285.178 161.679 285.514 162.123 286.037C162.567 286.549 162.789 287.215 162.789 288.034C162.789 288.694 162.635 289.303 162.328 289.861C162.02 290.407 161.565 290.845 160.962 291.175C160.359 291.505 159.619 291.67 158.743 291.67ZM169.186 291.67C168.344 291.67 167.616 291.522 167.001 291.226C166.387 290.919 165.897 290.504 165.533 289.98C165.18 289.445 164.964 288.842 164.885 288.171H166.66C166.774 288.74 167.058 289.212 167.513 289.587C167.969 289.952 168.532 290.134 169.203 290.134C169.704 290.134 170.136 290.014 170.5 289.775C170.865 289.525 171.149 289.195 171.354 288.785C171.559 288.376 171.661 287.915 171.661 287.403C171.661 286.595 171.434 285.952 170.978 285.474C170.523 284.984 169.949 284.74 169.254 284.74C168.663 284.74 168.156 284.882 167.735 285.166C167.314 285.44 167.007 285.787 166.813 286.208H165.089L166.114 279.516H172.566V281.104H167.479L166.865 284.296C167.126 284 167.485 283.755 167.94 283.562C168.407 283.357 168.93 283.255 169.51 283.255C170.318 283.255 171.013 283.442 171.593 283.818C172.173 284.182 172.617 284.677 172.924 285.303C173.243 285.929 173.402 286.623 173.402 287.385C173.402 288.182 173.232 288.905 172.89 289.553C172.549 290.202 172.06 290.72 171.422 291.107C170.796 291.482 170.051 291.67 169.186 291.67ZM177.844 285.218C177.309 285.218 176.826 285.098 176.393 284.859C175.972 284.62 175.636 284.285 175.386 283.852C175.136 283.408 175.01 282.879 175.01 282.265C175.01 281.662 175.136 281.144 175.386 280.711C175.636 280.267 175.978 279.926 176.41 279.687C176.843 279.448 177.326 279.329 177.861 279.329C178.385 279.329 178.857 279.448 179.278 279.687C179.71 279.926 180.052 280.267 180.302 280.711C180.552 281.144 180.678 281.662 180.678 282.265C180.678 282.879 180.552 283.408 180.302 283.852C180.052 284.285 179.71 284.62 179.278 284.859C178.857 285.098 178.379 285.218 177.844 285.218ZM176.991 291.465L183.835 279.516H185.611L178.783 291.465H176.991ZM177.844 283.92C178.208 283.92 178.521 283.784 178.783 283.511C179.056 283.226 179.192 282.811 179.192 282.265C179.192 281.718 179.062 281.309 178.8 281.036C178.538 280.751 178.22 280.609 177.844 280.609C177.48 280.609 177.161 280.751 176.888 281.036C176.615 281.309 176.478 281.718 176.478 282.265C176.478 282.811 176.609 283.226 176.871 283.511C177.144 283.784 177.468 283.92 177.844 283.92ZM184.86 291.67C184.325 291.67 183.841 291.55 183.409 291.311C182.988 291.073 182.652 290.737 182.402 290.304C182.151 289.861 182.026 289.331 182.026 288.717C182.026 288.114 182.151 287.59 182.402 287.147C182.652 286.703 182.993 286.361 183.426 286.122C183.858 285.883 184.342 285.764 184.877 285.764C185.4 285.764 185.872 285.883 186.293 286.122C186.726 286.361 187.067 286.703 187.318 287.147C187.568 287.59 187.693 288.114 187.693 288.717C187.693 289.331 187.568 289.861 187.318 290.304C187.067 290.737 186.726 291.073 186.293 291.311C185.872 291.55 185.394 291.67 184.86 291.67ZM184.86 290.356C185.224 290.356 185.537 290.219 185.798 289.946C186.072 289.673 186.208 289.263 186.208 288.717C186.208 288.171 186.077 287.761 185.815 287.488C185.554 287.203 185.235 287.061 184.86 287.061C184.495 287.061 184.177 287.203 183.904 287.488C183.631 287.761 183.494 288.171 183.494 288.717C183.494 289.263 183.625 289.673 183.887 289.946C184.16 290.219 184.484 290.356 184.86 290.356Z" fill="white"/>
<path d="M317.121 291.67C316.348 291.67 315.642 291.533 315.005 291.26C314.379 290.976 313.878 290.549 313.503 289.98C313.127 289.411 312.928 288.7 312.905 287.846H314.698C314.72 288.484 314.937 289.024 315.346 289.468C315.767 289.9 316.359 290.117 317.121 290.117C317.85 290.117 318.407 289.917 318.794 289.519C319.181 289.11 319.375 288.603 319.375 288C319.375 287.272 319.113 286.731 318.589 286.378C318.077 286.026 317.446 285.849 316.695 285.849H315.807V284.347H316.712C317.383 284.347 317.924 284.188 318.333 283.869C318.754 283.551 318.965 283.101 318.965 282.521C318.965 282.031 318.8 281.633 318.47 281.326C318.151 281.019 317.696 280.865 317.104 280.865C316.49 280.865 316.006 281.047 315.653 281.411C315.301 281.764 315.107 282.208 315.073 282.743H313.281C313.304 282.048 313.474 281.445 313.793 280.933C314.123 280.421 314.572 280.023 315.141 279.738C315.71 279.454 316.365 279.312 317.104 279.312C317.901 279.312 318.567 279.454 319.102 279.738C319.648 280.011 320.057 280.387 320.331 280.865C320.615 281.331 320.757 281.844 320.757 282.401C320.757 283.038 320.581 283.596 320.228 284.074C319.875 284.552 319.403 284.871 318.811 285.03C319.494 285.178 320.057 285.514 320.501 286.037C320.945 286.549 321.167 287.215 321.167 288.034C321.167 288.694 321.013 289.303 320.706 289.861C320.399 290.407 319.944 290.845 319.34 291.175C318.737 291.505 317.998 291.67 317.121 291.67ZM327.565 291.67C326.722 291.67 325.994 291.522 325.38 291.226C324.765 290.919 324.276 290.504 323.912 289.98C323.559 289.445 323.343 288.842 323.263 288.171H325.038C325.152 288.74 325.437 289.212 325.892 289.587C326.347 289.952 326.91 290.134 327.582 290.134C328.082 290.134 328.515 290.014 328.879 289.775C329.243 289.525 329.528 289.195 329.732 288.785C329.937 288.376 330.04 287.915 330.04 287.403C330.04 286.595 329.812 285.952 329.357 285.474C328.902 284.984 328.327 284.74 327.633 284.74C327.041 284.74 326.535 284.882 326.114 285.166C325.693 285.44 325.385 285.787 325.192 286.208H323.468L324.492 279.516H330.944V281.104H325.858L325.243 284.296C325.505 284 325.863 283.755 326.318 283.562C326.785 283.357 327.309 283.255 327.889 283.255C328.697 283.255 329.391 283.442 329.971 283.818C330.552 284.182 330.996 284.677 331.303 285.303C331.621 285.929 331.781 286.623 331.781 287.385C331.781 288.182 331.61 288.905 331.269 289.553C330.927 290.202 330.438 290.72 329.801 291.107C329.175 291.482 328.429 291.67 327.565 291.67ZM336.222 285.218C335.688 285.218 335.204 285.098 334.772 284.859C334.35 284.62 334.015 284.285 333.764 283.852C333.514 283.408 333.389 282.879 333.389 282.265C333.389 281.662 333.514 281.144 333.764 280.711C334.015 280.267 334.356 279.926 334.789 279.687C335.221 279.448 335.705 279.329 336.239 279.329C336.763 279.329 337.235 279.448 337.656 279.687C338.089 279.926 338.43 280.267 338.68 280.711C338.931 281.144 339.056 281.662 339.056 282.265C339.056 282.879 338.931 283.408 338.68 283.852C338.43 284.285 338.089 284.62 337.656 284.859C337.235 285.098 336.757 285.218 336.222 285.218ZM335.369 291.465L342.214 279.516H343.989L337.161 291.465H335.369ZM336.222 283.92C336.587 283.92 336.9 283.784 337.161 283.511C337.434 283.226 337.571 282.811 337.571 282.265C337.571 281.718 337.44 281.309 337.178 281.036C336.917 280.751 336.598 280.609 336.222 280.609C335.858 280.609 335.54 280.751 335.267 281.036C334.993 281.309 334.857 281.718 334.857 282.265C334.857 282.811 334.988 283.226 335.249 283.511C335.523 283.784 335.847 283.92 336.222 283.92ZM343.238 291.67C342.703 291.67 342.22 291.55 341.787 291.311C341.366 291.073 341.03 290.737 340.78 290.304C340.53 289.861 340.404 289.331 340.404 288.717C340.404 288.114 340.53 287.59 340.78 287.147C341.03 286.703 341.372 286.361 341.804 286.122C342.237 285.883 342.72 285.764 343.255 285.764C343.779 285.764 344.251 285.883 344.672 286.122C345.104 286.361 345.446 286.703 345.696 287.147C345.946 287.59 346.072 288.114 346.072 288.717C346.072 289.331 345.946 289.861 345.696 290.304C345.446 290.737 345.104 291.073 344.672 291.311C344.251 291.55 343.773 291.67 343.238 291.67ZM343.238 290.356C343.602 290.356 343.915 290.219 344.177 289.946C344.45 289.673 344.586 289.263 344.586 288.717C344.586 288.171 344.456 287.761 344.194 287.488C343.932 287.203 343.614 287.061 343.238 287.061C342.874 287.061 342.555 287.203 342.282 287.488C342.009 287.761 341.872 288.171 341.872 288.717C341.872 289.263 342.003 289.673 342.265 289.946C342.538 290.219 342.862 290.356 343.238 290.356Z" fill="white"/>
<path d="M466.118 361.451V351.551L464.189 351.995V350.663L466.835 349.503H467.996V361.451H466.118ZM474.588 361.656C473.746 361.656 473.018 361.508 472.404 361.212C471.789 360.905 471.3 360.49 470.936 359.966C470.583 359.432 470.367 358.828 470.287 358.157H472.062C472.176 358.726 472.46 359.198 472.916 359.574C473.371 359.938 473.934 360.12 474.605 360.12C475.106 360.12 475.539 360.001 475.903 359.762C476.267 359.511 476.551 359.181 476.756 358.771C476.961 358.362 477.064 357.901 477.064 357.389C477.064 356.581 476.836 355.938 476.381 355.46C475.926 354.971 475.351 354.726 474.657 354.726C474.065 354.726 473.559 354.868 473.138 355.153C472.716 355.426 472.409 355.773 472.216 356.194H470.492L471.516 349.503H477.968V351.09H472.881L472.267 354.282C472.529 353.986 472.887 353.742 473.342 353.548C473.809 353.343 474.332 353.241 474.913 353.241C475.721 353.241 476.415 353.429 476.995 353.804C477.576 354.168 478.019 354.663 478.327 355.289C478.645 355.915 478.805 356.609 478.805 357.372C478.805 358.168 478.634 358.891 478.293 359.54C477.951 360.188 477.462 360.706 476.825 361.093C476.199 361.468 475.453 361.656 474.588 361.656ZM483.246 355.204C482.711 355.204 482.228 355.084 481.795 354.846C481.374 354.607 481.039 354.271 480.788 353.838C480.538 353.395 480.413 352.865 480.413 352.251C480.413 351.648 480.538 351.13 480.788 350.698C481.039 350.254 481.38 349.912 481.812 349.673C482.245 349.434 482.729 349.315 483.263 349.315C483.787 349.315 484.259 349.434 484.68 349.673C485.113 349.912 485.454 350.254 485.704 350.698C485.955 351.13 486.08 351.648 486.08 352.251C486.08 352.865 485.955 353.395 485.704 353.838C485.454 354.271 485.113 354.607 484.68 354.846C484.259 355.084 483.781 355.204 483.246 355.204ZM482.393 361.451L489.238 349.503H491.013L484.185 361.451H482.393ZM483.246 353.907C483.61 353.907 483.923 353.77 484.185 353.497C484.458 353.213 484.595 352.797 484.595 352.251C484.595 351.705 484.464 351.295 484.202 351.022C483.94 350.737 483.622 350.595 483.246 350.595C482.882 350.595 482.564 350.737 482.29 351.022C482.017 351.295 481.881 351.705 481.881 352.251C481.881 352.797 482.012 353.213 482.273 353.497C482.546 353.77 482.871 353.907 483.246 353.907ZM490.262 361.656C489.727 361.656 489.243 361.537 488.811 361.298C488.39 361.059 488.054 360.723 487.804 360.291C487.553 359.847 487.428 359.318 487.428 358.703C487.428 358.1 487.553 357.577 487.804 357.133C488.054 356.689 488.396 356.348 488.828 356.109C489.26 355.87 489.744 355.75 490.279 355.75C490.802 355.75 491.275 355.87 491.696 356.109C492.128 356.348 492.47 356.689 492.72 357.133C492.97 357.577 493.095 358.1 493.095 358.703C493.095 359.318 492.97 359.847 492.72 360.291C492.47 360.723 492.128 361.059 491.696 361.298C491.275 361.537 490.797 361.656 490.262 361.656ZM490.262 360.342C490.626 360.342 490.939 360.205 491.201 359.932C491.474 359.659 491.61 359.249 491.61 358.703C491.61 358.157 491.479 357.747 491.218 357.474C490.956 357.19 490.637 357.047 490.262 357.047C489.898 357.047 489.579 357.19 489.306 357.474C489.033 357.747 488.896 358.157 488.896 358.703C488.896 359.249 489.027 359.659 489.289 359.932C489.562 360.205 489.886 360.342 490.262 360.342Z" fill="white"/>
<path d="M619.45 385.865V375.965L617.521 376.408V375.077L620.167 373.916H621.328V385.865H619.45ZM628.535 386.07C627.454 386.07 626.521 385.814 625.736 385.302C624.962 384.778 624.364 384.056 623.943 383.134C623.534 382.201 623.329 381.12 623.329 379.891C623.329 378.662 623.534 377.586 623.943 376.664C624.364 375.731 624.962 375.009 625.736 374.497C626.521 373.973 627.454 373.711 628.535 373.711C629.616 373.711 630.543 373.973 631.317 374.497C632.091 375.009 632.683 375.731 633.093 376.664C633.514 377.586 633.724 378.662 633.724 379.891C633.724 381.12 633.514 382.201 633.093 383.134C632.683 384.056 632.091 384.778 631.317 385.302C630.543 385.814 629.616 386.07 628.535 386.07ZM628.535 384.448C629.184 384.448 629.758 384.266 630.259 383.902C630.771 383.538 631.169 383.014 631.454 382.332C631.738 381.649 631.881 380.835 631.881 379.891C631.881 378.946 631.738 378.132 631.454 377.45C631.169 376.767 630.771 376.243 630.259 375.879C629.758 375.515 629.184 375.333 628.535 375.333C627.875 375.333 627.295 375.515 626.794 375.879C626.293 376.243 625.901 376.767 625.616 377.45C625.332 378.132 625.189 378.946 625.189 379.891C625.189 380.835 625.332 381.649 625.616 382.332C625.901 383.014 626.293 383.538 626.794 383.902C627.295 384.266 627.875 384.448 628.535 384.448ZM638.045 379.617C637.51 379.617 637.027 379.498 636.594 379.259C636.173 379.02 635.838 378.684 635.587 378.252C635.337 377.808 635.212 377.279 635.212 376.664C635.212 376.061 635.337 375.544 635.587 375.111C635.838 374.667 636.179 374.326 636.611 374.087C637.044 373.848 637.527 373.728 638.062 373.728C638.586 373.728 639.058 373.848 639.479 374.087C639.911 374.326 640.253 374.667 640.503 375.111C640.754 375.544 640.879 376.061 640.879 376.664C640.879 377.279 640.754 377.808 640.503 378.252C640.253 378.684 639.911 379.02 639.479 379.259C639.058 379.498 638.58 379.617 638.045 379.617ZM637.192 385.865L644.037 373.916H645.812L638.984 385.865H637.192ZM638.045 378.32C638.409 378.32 638.722 378.184 638.984 377.91C639.257 377.626 639.394 377.211 639.394 376.664C639.394 376.118 639.263 375.709 639.001 375.435C638.739 375.151 638.421 375.009 638.045 375.009C637.681 375.009 637.362 375.151 637.089 375.435C636.816 375.709 636.68 376.118 636.68 376.664C636.68 377.211 636.811 377.626 637.072 377.91C637.345 378.184 637.67 378.32 638.045 378.32ZM645.061 386.07C644.526 386.07 644.042 385.95 643.61 385.711C643.189 385.472 642.853 385.137 642.603 384.704C642.352 384.26 642.227 383.731 642.227 383.117C642.227 382.514 642.352 381.99 642.603 381.546C642.853 381.102 643.195 380.761 643.627 380.522C644.059 380.283 644.543 380.164 645.078 380.164C645.601 380.164 646.074 380.283 646.495 380.522C646.927 380.761 647.268 381.102 647.519 381.546C647.769 381.99 647.894 382.514 647.894 383.117C647.894 383.731 647.769 384.26 647.519 384.704C647.268 385.137 646.927 385.472 646.495 385.711C646.074 385.95 645.596 386.07 645.061 386.07ZM645.061 384.755C645.425 384.755 645.738 384.619 646 384.346C646.273 384.073 646.409 383.663 646.409 383.117C646.409 382.57 646.278 382.161 646.017 381.888C645.755 381.603 645.436 381.461 645.061 381.461C644.697 381.461 644.378 381.603 644.105 381.888C643.832 382.161 643.695 382.57 643.695 383.117C643.695 383.663 643.826 384.073 644.088 384.346C644.361 384.619 644.685 384.755 645.061 384.755Z" fill="white"/>
<path d="M782.417 409.451C781.575 409.451 780.847 409.303 780.232 409.007C779.618 408.7 779.128 408.285 778.764 407.761C778.411 407.227 778.195 406.623 778.115 405.952H779.891C780.004 406.521 780.289 406.993 780.744 407.369C781.199 407.733 781.763 407.915 782.434 407.915C782.935 407.915 783.367 407.796 783.731 407.557C784.095 407.306 784.38 406.976 784.585 406.567C784.79 406.157 784.892 405.696 784.892 405.184C784.892 404.376 784.664 403.733 784.209 403.255C783.754 402.766 783.179 402.521 782.485 402.521C781.893 402.521 781.387 402.663 780.966 402.948C780.545 403.221 780.238 403.568 780.044 403.989H778.32L779.344 397.298H785.797V398.885H780.71L780.095 402.077C780.357 401.781 780.716 401.537 781.171 401.343C781.637 401.138 782.161 401.036 782.741 401.036C783.549 401.036 784.243 401.224 784.824 401.599C785.404 401.963 785.848 402.458 786.155 403.084C786.474 403.71 786.633 404.404 786.633 405.167C786.633 405.963 786.462 406.686 786.121 407.335C785.78 407.983 785.29 408.501 784.653 408.888C784.027 409.263 783.282 409.451 782.417 409.451ZM791.075 402.999C790.54 402.999 790.056 402.879 789.624 402.641C789.203 402.402 788.867 402.066 788.617 401.633C788.366 401.19 788.241 400.66 788.241 400.046C788.241 399.443 788.366 398.925 788.617 398.493C788.867 398.049 789.209 397.707 789.641 397.468C790.073 397.229 790.557 397.11 791.092 397.11C791.615 397.11 792.088 397.229 792.509 397.468C792.941 397.707 793.282 398.049 793.533 398.493C793.783 398.925 793.908 399.443 793.908 400.046C793.908 400.66 793.783 401.19 793.533 401.633C793.282 402.066 792.941 402.402 792.509 402.641C792.088 402.879 791.61 402.999 791.075 402.999ZM790.221 409.246L797.066 397.298H798.841L792.014 409.246H790.221ZM791.075 401.702C791.439 401.702 791.752 401.565 792.014 401.292C792.287 401.008 792.423 400.592 792.423 400.046C792.423 399.5 792.292 399.09 792.031 398.817C791.769 398.532 791.45 398.39 791.075 398.39C790.711 398.39 790.392 398.532 790.119 398.817C789.846 399.09 789.709 399.5 789.709 400.046C789.709 400.592 789.84 401.008 790.102 401.292C790.375 401.565 790.699 401.702 791.075 401.702ZM798.09 409.451C797.556 409.451 797.072 409.332 796.639 409.093C796.218 408.854 795.883 408.518 795.632 408.086C795.382 407.642 795.257 407.113 795.257 406.498C795.257 405.895 795.382 405.372 795.632 404.928C795.883 404.484 796.224 404.143 796.657 403.904C797.089 403.665 797.573 403.545 798.107 403.545C798.631 403.545 799.103 403.665 799.524 403.904C799.957 404.143 800.298 404.484 800.548 404.928C800.799 405.372 800.924 405.895 800.924 406.498C800.924 407.113 800.799 407.642 800.548 408.086C800.298 408.518 799.957 408.854 799.524 409.093C799.103 409.332 798.625 409.451 798.09 409.451ZM798.09 408.137C798.455 408.137 798.767 408 799.029 407.727C799.302 407.454 799.439 407.044 799.439 406.498C799.439 405.952 799.308 405.542 799.046 405.269C798.785 404.985 798.466 404.842 798.09 404.842C797.726 404.842 797.408 404.985 797.134 405.269C796.861 405.542 796.725 405.952 796.725 406.498C796.725 407.044 796.856 407.454 797.117 407.727C797.391 408 797.715 408.137 798.09 408.137Z" fill="white"/>
</svg>
