<svg width="457" height="73" viewBox="0 0 457 73" fill="none" xmlns="http://www.w3.org/2000/svg">
<path d="M55.5171 17.4208V5.47215H59.6992C60.6323 5.47215 61.4061 5.63147 62.0206 5.9501C62.6351 6.25735 63.0903 6.68409 63.3862 7.23032C63.6934 7.76516 63.8471 8.37398 63.8471 9.05676C63.8471 9.7054 63.6991 10.3028 63.4032 10.8491C63.1188 11.3839 62.6693 11.8106 62.0548 12.1293C61.4402 12.4479 60.655 12.6072 59.6992 12.6072H57.3265V17.4208H55.5171ZM57.3265 11.1222H59.6138C60.4673 11.1222 61.0761 10.9401 61.4402 10.5759C61.8158 10.2004 62.0035 9.69402 62.0035 9.05676C62.0035 8.39674 61.8158 7.88465 61.4402 7.5205C61.0761 7.14497 60.4673 6.9572 59.6138 6.9572H57.3265V11.1222ZM65.5672 17.4208V8.95434H67.1888L67.3424 10.5589C67.6383 10.0013 68.048 9.56316 68.5715 9.24452C69.1063 8.91451 69.7492 8.74951 70.5003 8.74951V10.6442H70.0053C69.5046 10.6442 69.0551 10.7296 68.6568 10.9003C68.2699 11.0596 67.9569 11.3384 67.718 11.7367C67.4904 12.1236 67.3766 12.6641 67.3766 13.3583V17.4208H65.5672ZM75.7784 17.6257C74.9477 17.6257 74.208 17.4436 73.5594 17.0794C72.9221 16.7039 72.4214 16.1861 72.0572 15.5261C71.6931 14.8661 71.511 14.098 71.511 13.2217C71.511 12.3341 71.6874 11.5546 72.0402 10.8832C72.4043 10.2118 72.905 9.68833 73.5423 9.3128C74.1909 8.93727 74.942 8.74951 75.7955 8.74951C76.6262 8.74951 77.3488 8.93727 77.9633 9.3128C78.5778 9.67695 79.0558 10.1663 79.3971 10.7808C79.7385 11.3953 79.9092 12.0724 79.9092 12.8121C79.9092 12.9259 79.9035 13.051 79.8922 13.1876C79.8922 13.3128 79.8865 13.455 79.8751 13.6143H73.2862C73.3431 14.4337 73.6106 15.0595 74.0885 15.492C74.5778 15.913 75.1411 16.1236 75.7784 16.1236C76.2905 16.1236 76.7172 16.0098 77.0586 15.7822C77.4114 15.5432 77.6731 15.2246 77.8438 14.8263H79.6532C79.4256 15.6228 78.9704 16.2886 78.2876 16.8234C77.6162 17.3582 76.7798 17.6257 75.7784 17.6257ZM75.7784 10.2346C75.1753 10.2346 74.6404 10.4166 74.1739 10.7808C73.7073 11.1336 73.4228 11.6684 73.3204 12.3853H78.0999C78.0657 11.7253 77.8324 11.2018 77.4 10.8149C76.9676 10.428 76.427 10.2346 75.7784 10.2346ZM85.1664 17.6257C84.0967 17.6257 83.2148 17.3639 82.5206 16.8405C81.8264 16.317 81.4282 15.6228 81.3257 14.758H83.1522C83.2432 15.1449 83.4594 15.4806 83.8008 15.7651C84.1422 16.0382 84.5917 16.1748 85.1493 16.1748C85.6955 16.1748 86.0938 16.061 86.3442 15.8334C86.5945 15.6058 86.7197 15.344 86.7197 15.0482C86.7197 14.6157 86.5433 14.3256 86.1906 14.1776C85.8492 14.0183 85.3712 13.8761 84.7567 13.7509C84.2788 13.6485 83.8008 13.5119 83.3229 13.3412C82.8563 13.1705 82.4637 12.9315 82.1451 12.6243C81.8378 12.3057 81.6842 11.8789 81.6842 11.3441C81.6842 10.6044 81.9687 9.98989 82.5377 9.50057C83.1067 8.99986 83.9032 8.74951 84.9274 8.74951C85.8719 8.74951 86.6344 8.9771 87.2147 9.43229C87.8065 9.88748 88.1536 10.5304 88.256 11.3611H86.5149C86.458 10.997 86.2873 10.7125 86.0028 10.5077C85.7297 10.3028 85.3598 10.2004 84.8933 10.2004C84.4381 10.2004 84.0853 10.2971 83.835 10.4906C83.5846 10.6727 83.4594 10.9116 83.4594 11.2075C83.4594 11.5034 83.6301 11.7367 83.9715 11.9074C84.3243 12.0781 84.7852 12.2317 85.3542 12.3683C85.9231 12.4934 86.4466 12.6414 86.9245 12.8121C87.4139 12.9714 87.8065 13.2103 88.1023 13.529C88.3982 13.8476 88.5462 14.3142 88.5462 14.9287C88.5575 15.7025 88.256 16.3455 87.6415 16.8575C87.0383 17.3696 86.2133 17.6257 85.1664 17.6257ZM93.3891 17.6257C92.6722 17.6257 92.0804 17.5062 91.6139 17.2672C91.1473 17.0282 90.8002 16.7153 90.5726 16.3284C90.345 15.9301 90.2312 15.4977 90.2312 15.0311C90.2312 14.2118 90.5499 13.5631 91.1871 13.0852C91.8244 12.6072 92.7348 12.3683 93.9183 12.3683H96.1373V12.2146C96.1373 11.5546 95.9552 11.0596 95.5911 10.7296C95.2383 10.3996 94.7774 10.2346 94.2084 10.2346C93.7077 10.2346 93.2696 10.3597 92.8941 10.6101C92.5299 10.8491 92.308 11.2075 92.2284 11.6855H90.419C90.4759 11.071 90.6807 10.5475 91.0335 10.1151C91.3977 9.67126 91.8528 9.33556 92.3991 9.10797C92.9567 8.86899 93.5655 8.74951 94.2255 8.74951C95.409 8.74951 96.3251 9.06245 96.9737 9.68833C97.6224 10.3028 97.9467 11.1449 97.9467 12.2146V17.4208H96.3763L96.2227 15.9699C95.9837 16.4365 95.6366 16.8291 95.1814 17.1477C94.7262 17.4664 94.1288 17.6257 93.3891 17.6257ZM93.7476 16.1577C94.2369 16.1577 94.6466 16.0439 94.9766 15.8163C95.318 15.5773 95.5797 15.2644 95.7618 14.8775C95.9552 14.4906 96.0747 14.0638 96.1202 13.5973H94.106C93.3891 13.5973 92.877 13.7224 92.5698 13.9728C92.2739 14.2231 92.126 14.5361 92.126 14.9116C92.126 15.2985 92.2682 15.6058 92.5527 15.8334C92.8486 16.0496 93.2469 16.1577 93.7476 16.1577ZM100.056 17.4208V5.13076H101.866V17.4208H100.056ZM108.117 17.6257C107.286 17.6257 106.547 17.4436 105.898 17.0794C105.261 16.7039 104.76 16.1861 104.396 15.5261C104.032 14.8661 103.85 14.098 103.85 13.2217C103.85 12.3341 104.026 11.5546 104.379 10.8832C104.743 10.2118 105.244 9.68833 105.881 9.3128C106.53 8.93727 107.281 8.74951 108.134 8.74951C108.965 8.74951 109.688 8.93727 110.302 9.3128C110.917 9.67695 111.395 10.1663 111.736 10.7808C112.077 11.3953 112.248 12.0724 112.248 12.8121C112.248 12.9259 112.242 13.051 112.231 13.1876C112.231 13.3128 112.225 13.455 112.214 13.6143H105.625C105.682 14.4337 105.949 15.0595 106.427 15.492C106.917 15.913 107.48 16.1236 108.117 16.1236C108.629 16.1236 109.056 16.0098 109.397 15.7822C109.75 15.5432 110.012 15.2246 110.183 14.8263H111.992C111.764 15.6228 111.309 16.2886 110.626 16.8234C109.955 17.3582 109.119 17.6257 108.117 17.6257ZM108.117 10.2346C107.514 10.2346 106.979 10.4166 106.513 10.7808C106.046 11.1336 105.762 11.6684 105.659 12.3853H110.439C110.405 11.7253 110.171 11.2018 109.739 10.8149C109.306 10.428 108.766 10.2346 108.117 10.2346Z" fill="white"/>
<path d="M55.8433 67.0012V55.0525H57.977L62.0225 63.0069L66.0509 55.0525H68.1846V67.0012H66.3752V58.1762L62.7223 65.2942H61.3226L57.6527 58.1933V67.0012H55.8433ZM73.4119 67.206C72.6949 67.206 72.1032 67.0865 71.6366 66.8475C71.1701 66.6086 70.823 66.2956 70.5954 65.9087C70.3678 65.5104 70.254 65.078 70.254 64.6114C70.254 63.7921 70.5726 63.1434 71.2099 62.6655C71.8471 62.1875 72.7575 61.9486 73.941 61.9486H76.16V61.7949C76.16 61.1349 75.978 60.6399 75.6138 60.3099C75.2611 59.9799 74.8002 59.8149 74.2312 59.8149C73.7305 59.8149 73.2924 59.9401 72.9168 60.1904C72.5527 60.4294 72.3308 60.7878 72.2511 61.2658H70.4417C70.4986 60.6513 70.7035 60.1278 71.0563 59.6954C71.4204 59.2516 71.8756 58.9159 72.4218 58.6883C72.9794 58.4493 73.5882 58.3298 74.2483 58.3298C75.4317 58.3298 76.3478 58.6428 76.9965 59.2687C77.6451 59.8832 77.9694 60.7253 77.9694 61.7949V67.0012H76.399L76.2454 65.5502C76.0064 66.0168 75.6593 66.4094 75.2042 66.728C74.749 67.0467 74.1515 67.206 73.4119 67.206ZM73.7703 65.738C74.2596 65.738 74.6693 65.6242 74.9993 65.3966C75.3407 65.1576 75.6024 64.8447 75.7845 64.4578C75.978 64.0709 76.0975 63.6441 76.143 63.1776H74.1288C73.4119 63.1776 72.8998 63.3028 72.5925 63.5531C72.2966 63.8035 72.1487 64.1164 72.1487 64.4919C72.1487 64.8788 72.291 65.1861 72.5754 65.4137C72.8713 65.6299 73.2696 65.738 73.7703 65.738ZM80.0791 67.0012V58.5347H81.7007L81.8543 60.1392C82.1502 59.5816 82.5599 59.1435 83.0833 58.8248C83.6182 58.4948 84.2611 58.3298 85.0122 58.3298V60.2245H84.5172C84.0165 60.2245 83.567 60.3099 83.1687 60.4806C82.7818 60.6399 82.4688 60.9187 82.2299 61.317C82.0023 61.7039 81.8885 62.2444 81.8885 62.9386V67.0012H80.0791ZM86.5635 67.0012V54.7111H88.3729V62.0339L91.6161 58.5347H93.784L90.1823 62.3753L94.3131 67.0012H92.0258L88.3729 62.6655V67.0012H86.5635ZM99.0251 67.206C98.1944 67.206 97.4547 67.0239 96.8061 66.6598C96.1688 66.2842 95.6681 65.7665 95.3039 65.1064C94.9398 64.4464 94.7577 63.6783 94.7577 62.8021C94.7577 61.9144 94.9341 61.1349 95.2869 60.4635C95.651 59.7921 96.1517 59.2687 96.789 58.8931C97.4376 58.5176 98.1887 58.3298 99.0422 58.3298C99.8729 58.3298 100.596 58.5176 101.21 58.8931C101.825 59.2573 102.302 59.7466 102.644 60.3611C102.985 60.9756 103.156 61.6527 103.156 62.3924C103.156 62.5062 103.15 62.6314 103.139 62.7679C103.139 62.8931 103.133 63.0353 103.122 63.1947H96.533C96.5899 64.014 96.8573 64.6399 97.3352 65.0723C97.8246 65.4933 98.3878 65.7039 99.0251 65.7039C99.5372 65.7039 99.9639 65.5901 100.305 65.3625C100.658 65.1235 100.92 64.8049 101.091 64.4066H102.9C102.672 65.2032 102.217 65.8689 101.534 66.4037C100.863 66.9386 100.027 67.206 99.0251 67.206ZM99.0251 59.8149C98.422 59.8149 97.8871 59.997 97.4206 60.3611C96.954 60.7139 96.6695 61.2487 96.5671 61.9656H101.347C101.312 61.3056 101.079 60.7822 100.647 60.3952C100.214 60.0083 99.6738 59.8149 99.0251 59.8149ZM108.367 67.0012C107.536 67.0012 106.876 66.802 106.387 66.4037C105.898 65.9941 105.653 65.2714 105.653 64.2359V60.0539H104.202V58.5347H105.653L105.875 56.3839H107.462V58.5347H109.852V60.0539H107.462V64.2359C107.462 64.7025 107.559 65.0268 107.753 65.2089C107.957 65.3796 108.304 65.4649 108.794 65.4649H109.767V67.0012H108.367ZM112.742 56.9301C112.401 56.9301 112.116 56.8277 111.888 56.6229C111.672 56.4067 111.564 56.1392 111.564 55.8206C111.564 55.502 111.672 55.2402 111.888 55.0354C112.116 54.8192 112.401 54.7111 112.742 54.7111C113.083 54.7111 113.362 54.8192 113.578 55.0354C113.806 55.2402 113.92 55.502 113.92 55.8206C113.92 56.1392 113.806 56.4067 113.578 56.6229C113.362 56.8277 113.083 56.9301 112.742 56.9301ZM111.837 67.0012V58.5347H113.647V67.0012H111.837ZM116.035 67.0012V58.5347H117.64L117.776 60.0197C118.038 59.4962 118.419 59.0866 118.92 58.7907C119.432 58.4835 120.018 58.3298 120.678 58.3298C121.702 58.3298 122.505 58.6485 123.085 59.2857C123.677 59.923 123.973 60.8732 123.973 62.1363V67.0012H122.18V62.3241C122.18 60.6854 121.509 59.8661 120.166 59.8661C119.495 59.8661 118.937 60.1051 118.493 60.583C118.061 61.061 117.845 61.7437 117.845 62.6314V67.0012H116.035ZM129.569 64.4066C129.125 64.4066 128.715 64.3554 128.34 64.253L127.606 64.9699C127.731 65.0495 127.884 65.1178 128.067 65.1747C128.249 65.2316 128.505 65.2828 128.835 65.3283C129.165 65.3739 129.614 65.4194 130.183 65.4649C131.31 65.5673 132.123 65.8404 132.624 66.2842C133.125 66.7167 133.375 67.297 133.375 68.0253C133.375 68.526 133.239 68.9983 132.966 69.4421C132.704 69.8973 132.288 70.2614 131.719 70.5346C131.162 70.819 130.445 70.9613 129.569 70.9613C128.385 70.9613 127.424 70.7337 126.684 70.2785C125.956 69.8347 125.591 69.1576 125.591 68.2472C125.591 67.8945 125.682 67.5417 125.865 67.1889C126.058 66.8475 126.36 66.5232 126.769 66.216C126.53 66.1135 126.32 66.0054 126.138 65.8916C125.967 65.7665 125.813 65.6413 125.677 65.5161V65.1064L127.145 63.6043C126.485 63.0353 126.155 62.29 126.155 61.3682C126.155 60.8106 126.286 60.3042 126.547 59.849C126.82 59.3825 127.213 59.0126 127.725 58.7395C128.237 58.4664 128.852 58.3298 129.569 58.3298C130.047 58.3298 130.49 58.3981 130.9 58.5347H134.058V59.7295L132.556 59.8149C132.829 60.2814 132.966 60.7992 132.966 61.3682C132.966 61.9372 132.829 62.4493 132.556 62.9045C132.294 63.3597 131.907 63.7238 131.395 63.9969C130.894 64.27 130.286 64.4066 129.569 64.4066ZM129.569 62.9898C130.092 62.9898 130.513 62.8533 130.832 62.5801C131.162 62.2957 131.327 61.8974 131.327 61.3853C131.327 60.8618 131.162 60.4635 130.832 60.1904C130.513 59.9173 130.092 59.7807 129.569 59.7807C129.034 59.7807 128.601 59.9173 128.271 60.1904C127.953 60.4635 127.793 60.8618 127.793 61.3853C127.793 61.8974 127.953 62.2957 128.271 62.5801C128.601 62.8533 129.034 62.9898 129.569 62.9898ZM127.298 68.0765C127.298 68.5659 127.515 68.93 127.947 69.169C128.379 69.4193 128.92 69.5445 129.569 69.5445C130.195 69.5445 130.701 69.408 131.088 69.1349C131.475 68.8731 131.668 68.5203 131.668 68.0765C131.668 67.7465 131.537 67.462 131.276 67.2231C131.014 66.9955 130.519 66.8532 129.791 66.7963C129.244 66.7622 128.761 66.711 128.34 66.6427C127.941 66.8589 127.668 67.0922 127.52 67.3426C127.372 67.5929 127.298 67.8376 127.298 68.0765Z" fill="white"/>
<path d="M218.052 17.3152V5.36656H219.862V15.8814H225.29V17.3152H218.052ZM228.193 7.24421C227.852 7.24421 227.567 7.1418 227.34 6.93696C227.123 6.72075 227.015 6.45332 227.015 6.13469C227.015 5.81606 227.123 5.55433 227.34 5.34949C227.567 5.13328 227.852 5.02517 228.193 5.02517C228.534 5.02517 228.813 5.13328 229.029 5.34949C229.257 5.55433 229.371 5.81606 229.371 6.13469C229.371 6.45332 229.257 6.72075 229.029 6.93696C228.813 7.1418 228.534 7.24421 228.193 7.24421ZM227.288 17.3152V8.84875H229.098V17.3152H227.288ZM238.314 21.0705V16.0009C238.041 16.3992 237.665 16.752 237.187 17.0592C236.71 17.3665 236.095 17.5201 235.344 17.5201C234.525 17.5201 233.802 17.3266 233.176 16.9397C232.55 16.5528 232.061 16.0237 231.708 15.3522C231.355 14.6808 231.179 13.9184 231.179 13.0649C231.179 12.2115 231.355 11.4547 231.708 10.7947C232.061 10.1233 232.55 9.59981 233.176 9.22428C233.813 8.83737 234.542 8.64392 235.361 8.64392C236.032 8.64392 236.619 8.77478 237.119 9.03652C237.631 9.29825 238.03 9.66809 238.314 10.146L238.502 8.84875H240.123V21.0705H238.314ZM235.668 15.9497C236.442 15.9497 237.074 15.6823 237.563 15.1474C238.064 14.6126 238.314 13.9241 238.314 13.082C238.314 12.2285 238.064 11.54 237.563 11.0166C237.074 10.4817 236.442 10.2143 235.668 10.2143C234.894 10.2143 234.257 10.4817 233.757 11.0166C233.256 11.54 233.005 12.2285 233.005 13.082C233.005 13.6396 233.119 14.1346 233.347 14.567C233.574 14.9995 233.887 15.3409 234.286 15.5912C234.695 15.8302 235.156 15.9497 235.668 15.9497ZM245.529 17.5201C244.504 17.5201 243.696 17.2014 243.105 16.5642C242.524 15.9269 242.234 14.9767 242.234 13.7136V8.84875H244.043V13.5258C244.043 15.1645 244.715 15.9838 246.058 15.9838C246.729 15.9838 247.281 15.7448 247.713 15.2669C248.146 14.789 248.362 14.1062 248.362 13.2186V8.84875H250.171V17.3152H248.567L248.43 15.8302C248.169 16.3537 247.782 16.769 247.27 17.0763C246.769 17.3721 246.189 17.5201 245.529 17.5201ZM253.497 7.24421C253.156 7.24421 252.871 7.1418 252.644 6.93696C252.428 6.72075 252.32 6.45332 252.32 6.13469C252.32 5.81606 252.428 5.55433 252.644 5.34949C252.871 5.13328 253.156 5.02517 253.497 5.02517C253.839 5.02517 254.118 5.13328 254.334 5.34949C254.561 5.55433 254.675 5.81606 254.675 6.13469C254.675 6.45332 254.561 6.72075 254.334 6.93696C254.118 7.1418 253.839 7.24421 253.497 7.24421ZM252.593 17.3152V8.84875H254.402V17.3152H252.593ZM260.648 17.5201C259.829 17.5201 259.106 17.3266 258.48 16.9397C257.855 16.5528 257.365 16.0237 257.012 15.3522C256.66 14.6808 256.483 13.9184 256.483 13.0649C256.483 12.2115 256.66 11.4547 257.012 10.7947C257.365 10.1233 257.855 9.59981 258.48 9.22428C259.118 8.83737 259.846 8.64392 260.665 8.64392C261.337 8.64392 261.923 8.77478 262.423 9.03652C262.936 9.29825 263.334 9.66809 263.618 10.146V5.02517H265.428V17.3152H263.806L263.618 16.0009C263.345 16.3992 262.97 16.752 262.492 17.0592C262.014 17.3665 261.399 17.5201 260.648 17.5201ZM260.973 15.9497C261.746 15.9497 262.378 15.6823 262.867 15.1474C263.368 14.6126 263.618 13.9241 263.618 13.082C263.618 12.2285 263.368 11.54 262.867 11.0166C262.378 10.4817 261.746 10.2143 260.973 10.2143C260.199 10.2143 259.561 10.4817 259.061 11.0166C258.56 11.54 258.31 12.2285 258.31 13.082C258.31 13.6396 258.424 14.1346 258.651 14.567C258.879 14.9995 259.192 15.3409 259.59 15.5912C260 15.8302 260.46 15.9497 260.973 15.9497ZM268.733 7.24421C268.392 7.24421 268.107 7.1418 267.88 6.93696C267.664 6.72075 267.555 6.45332 267.555 6.13469C267.555 5.81606 267.664 5.55433 267.88 5.34949C268.107 5.13328 268.392 5.02517 268.733 5.02517C269.075 5.02517 269.353 5.13328 269.57 5.34949C269.797 5.55433 269.911 5.81606 269.911 6.13469C269.911 6.45332 269.797 6.72075 269.57 6.93696C269.353 7.1418 269.075 7.24421 268.733 7.24421ZM267.829 17.3152V8.84875H269.638V17.3152H267.829ZM275.577 17.3152C274.746 17.3152 274.086 17.1161 273.597 16.7178C273.108 16.3081 272.863 15.5855 272.863 14.55V10.3679H271.412V8.84875H272.863L273.085 6.69799H274.672V8.84875H277.062V10.3679H274.672V14.55C274.672 15.0165 274.769 15.3409 274.962 15.5229C275.167 15.6936 275.514 15.779 276.004 15.779H276.977V17.3152H275.577ZM279.918 21.0705L281.949 16.6154H281.454L278.108 8.84875H280.071L282.666 15.1133L285.38 8.84875H287.292L281.829 21.0705H279.918Z" fill="white"/>
<path d="M218.053 67.0012V55.0525H222.167C223.111 55.0525 223.885 55.2118 224.488 55.5304C225.102 55.8491 225.558 56.2815 225.854 56.8277C226.149 57.3626 226.297 57.96 226.297 58.62C226.297 59.3597 226.098 60.0311 225.7 60.6342C225.313 61.2373 224.704 61.6698 223.873 61.9315L226.417 67.0012H224.317L221.996 62.1875H219.862V67.0012H218.053ZM219.862 60.822H222.064C222.883 60.822 223.481 60.6228 223.856 60.2245C224.243 59.8263 224.437 59.3085 224.437 58.6712C224.437 58.034 224.249 57.5276 223.873 57.152C223.498 56.7651 222.889 56.5717 222.047 56.5717H219.862V60.822ZM231.813 67.206C230.982 67.206 230.243 67.0239 229.594 66.6598C228.957 66.2842 228.456 65.7665 228.092 65.1064C227.728 64.4464 227.546 63.6783 227.546 62.8021C227.546 61.9144 227.722 61.1349 228.075 60.4635C228.439 59.7921 228.94 59.2687 229.577 58.8931C230.225 58.5176 230.977 58.3298 231.83 58.3298C232.661 58.3298 233.383 58.5176 233.998 58.8931C234.612 59.2573 235.09 59.7466 235.432 60.3611C235.773 60.9756 235.944 61.6527 235.944 62.3924C235.944 62.5062 235.938 62.6314 235.927 62.7679C235.927 62.8931 235.921 63.0353 235.91 63.1947H229.321C229.378 64.014 229.645 64.6399 230.123 65.0723C230.612 65.4933 231.176 65.7039 231.813 65.7039C232.325 65.7039 232.752 65.5901 233.093 65.3625C233.446 65.1235 233.708 64.8049 233.878 64.4066H235.688C235.46 65.2032 235.005 65.8689 234.322 66.4037C233.651 66.9386 232.814 67.206 231.813 67.206ZM231.813 59.8149C231.21 59.8149 230.675 59.997 230.208 60.3611C229.742 60.7139 229.457 61.2487 229.355 61.9656H234.134C234.1 61.3056 233.867 60.7822 233.435 60.3952C233.002 60.0083 232.462 59.8149 231.813 59.8149ZM241.201 67.206C240.131 67.206 239.249 66.9443 238.555 66.4208C237.861 65.8973 237.463 65.2032 237.36 64.3383H239.187C239.278 64.7252 239.494 65.0609 239.835 65.3454C240.177 65.6185 240.626 65.7551 241.184 65.7551C241.73 65.7551 242.128 65.6413 242.379 65.4137C242.629 65.1861 242.754 64.9244 242.754 64.6285C242.754 64.1961 242.578 63.9059 242.225 63.7579C241.884 63.5986 241.406 63.4564 240.791 63.3312C240.313 63.2288 239.835 63.0922 239.357 62.9215C238.891 62.7508 238.498 62.5119 238.18 62.2046C237.872 61.886 237.719 61.4592 237.719 60.9244C237.719 60.1847 238.003 59.5702 238.572 59.0809C239.141 58.5802 239.938 58.3298 240.962 58.3298C241.906 58.3298 242.669 58.5574 243.249 59.0126C243.841 59.4678 244.188 60.1108 244.291 60.9415H242.549C242.493 60.5773 242.322 60.2928 242.037 60.088C241.764 59.8832 241.394 59.7807 240.928 59.7807C240.473 59.7807 240.12 59.8775 239.87 60.0709C239.619 60.253 239.494 60.492 239.494 60.7878C239.494 61.0837 239.665 61.317 240.006 61.4877C240.359 61.6584 240.82 61.812 241.389 61.9486C241.958 62.0737 242.481 62.2217 242.959 62.3924C243.448 62.5517 243.841 62.7907 244.137 63.1093C244.433 63.4279 244.581 63.8945 244.581 64.509C244.592 65.2828 244.291 65.9258 243.676 66.4379C243.073 66.95 242.248 67.206 241.201 67.206ZM250.516 67.206C249.685 67.206 248.946 67.0239 248.297 66.6598C247.66 66.2842 247.159 65.7665 246.795 65.1064C246.431 64.4464 246.249 63.6783 246.249 62.8021C246.249 61.9144 246.425 61.1349 246.778 60.4635C247.142 59.7921 247.643 59.2687 248.28 58.8931C248.929 58.5176 249.68 58.3298 250.533 58.3298C251.364 58.3298 252.087 58.5176 252.701 58.8931C253.316 59.2573 253.793 59.7466 254.135 60.3611C254.476 60.9756 254.647 61.6527 254.647 62.3924C254.647 62.5062 254.641 62.6314 254.63 62.7679C254.63 62.8931 254.624 63.0353 254.613 63.1947H248.024C248.081 64.014 248.348 64.6399 248.826 65.0723C249.316 65.4933 249.879 65.7039 250.516 65.7039C251.028 65.7039 251.455 65.5901 251.796 65.3625C252.149 65.1235 252.411 64.8049 252.582 64.4066H254.391C254.163 65.2032 253.708 65.8689 253.025 66.4037C252.354 66.9386 251.518 67.206 250.516 67.206ZM250.516 59.8149C249.913 59.8149 249.378 59.997 248.912 60.3611C248.445 60.7139 248.161 61.2487 248.058 61.9656H252.838C252.803 61.3056 252.57 60.7822 252.138 60.3952C251.705 60.0083 251.165 59.8149 250.516 59.8149ZM259.392 67.206C258.675 67.206 258.083 67.0865 257.617 66.8475C257.15 66.6086 256.803 66.2956 256.576 65.9087C256.348 65.5104 256.234 65.078 256.234 64.6114C256.234 63.7921 256.553 63.1434 257.19 62.6655C257.827 62.1875 258.738 61.9486 259.921 61.9486H262.14V61.7949C262.14 61.1349 261.958 60.6399 261.594 60.3099C261.241 59.9799 260.78 59.8149 260.211 59.8149C259.711 59.8149 259.273 59.9401 258.897 60.1904C258.533 60.4294 258.311 60.7878 258.231 61.2658H256.422C256.479 60.6513 256.684 60.1278 257.036 59.6954C257.401 59.2516 257.856 58.9159 258.402 58.6883C258.96 58.4493 259.568 58.3298 260.228 58.3298C261.412 58.3298 262.328 58.6428 262.977 59.2687C263.625 59.8832 263.95 60.7253 263.95 61.7949V67.0012H262.379L262.226 65.5502C261.987 66.0168 261.639 66.4094 261.184 66.728C260.729 67.0467 260.132 67.206 259.392 67.206ZM259.75 65.738C260.24 65.738 260.649 65.6242 260.979 65.3966C261.321 65.1576 261.583 64.8447 261.765 64.4578C261.958 64.0709 262.078 63.6441 262.123 63.1776H260.109C259.392 63.1776 258.88 63.3028 258.573 63.5531C258.277 63.8035 258.129 64.1164 258.129 64.4919C258.129 64.8788 258.271 65.1861 258.556 65.4137C258.851 65.6299 259.25 65.738 259.75 65.738ZM266.059 67.0012V58.5347H267.681L267.834 60.1392C268.13 59.5816 268.54 59.1435 269.064 58.8248C269.598 58.4948 270.241 58.3298 270.992 58.3298V60.2245H270.497C269.997 60.2245 269.547 60.3099 269.149 60.4806C268.762 60.6399 268.449 60.9187 268.21 61.317C267.982 61.7039 267.869 62.2444 267.869 62.9386V67.0012H266.059ZM276.322 67.206C275.491 67.206 274.746 67.0182 274.086 66.6427C273.437 66.2672 272.925 65.7494 272.549 65.0894C272.185 64.418 272.003 63.6441 272.003 62.7679C272.003 61.8917 272.185 61.1235 272.549 60.4635C272.925 59.7921 273.437 59.2687 274.086 58.8931C274.746 58.5176 275.491 58.3298 276.322 58.3298C277.369 58.3298 278.245 58.6029 278.95 59.1492C279.667 59.6954 280.128 60.4351 280.333 61.3682H278.438C278.324 60.9016 278.074 60.5375 277.687 60.2758C277.3 60.014 276.845 59.8832 276.322 59.8832C275.878 59.8832 275.468 59.997 275.093 60.2245C274.717 60.4408 274.416 60.7651 274.188 61.1975C273.96 61.6186 273.847 62.142 273.847 62.7679C273.847 63.3938 273.96 63.923 274.188 64.3554C274.416 64.7764 274.717 65.1007 275.093 65.3283C275.468 65.5559 275.878 65.6697 276.322 65.6697C276.845 65.6697 277.3 65.5389 277.687 65.2771C278.074 65.0154 278.324 64.6456 278.438 64.1676H280.333C280.14 65.078 279.684 65.812 278.967 66.3696C278.251 66.9272 277.369 67.206 276.322 67.206ZM282.295 67.0012V54.7111H284.105V59.9002C284.389 59.4109 284.782 59.0297 285.283 58.7566C285.795 58.4721 286.358 58.3298 286.972 58.3298C287.985 58.3298 288.782 58.6485 289.362 59.2857C289.942 59.923 290.233 60.8732 290.233 62.1363V67.0012H288.44V62.3241C288.44 60.6854 287.786 59.8661 286.477 59.8661C285.795 59.8661 285.226 60.1051 284.77 60.583C284.327 61.061 284.105 61.7437 284.105 62.6314V67.0012H282.295ZM300.42 67.206C299.566 67.206 298.821 67.0581 298.184 66.7622C297.558 66.4549 297.068 66.0282 296.716 65.482C296.363 64.9357 296.186 64.2985 296.186 63.5702C296.186 62.7736 296.408 62.0624 296.852 61.4365C297.307 60.8106 297.973 60.3099 298.849 59.9344C298.485 59.5247 298.223 59.1378 298.064 58.7736C297.905 58.4095 297.825 58.0112 297.825 57.5788C297.825 56.7936 298.11 56.1449 298.679 55.6328C299.248 55.1094 300.039 54.8476 301.051 54.8476C301.711 54.8476 302.28 54.9728 302.758 55.2232C303.236 55.4735 303.6 55.8092 303.851 56.2303C304.101 56.6513 304.221 57.1293 304.209 57.6641H302.451C302.462 57.2089 302.32 56.8618 302.024 56.6229C301.74 56.3839 301.41 56.2644 301.034 56.2644C300.59 56.2644 300.238 56.3896 299.976 56.6399C299.714 56.8789 299.583 57.1862 299.583 57.5617C299.583 57.8917 299.674 58.216 299.856 58.5347C300.05 58.8533 300.34 59.2118 300.727 59.61L304.277 63.1776C304.562 62.7452 304.869 62.2331 305.199 61.6413L305.643 60.8049H307.521L306.838 62.051C306.371 62.9614 305.91 63.7238 305.455 64.3383L308.118 67.0012H305.899L304.448 65.5502C303.856 66.1306 303.236 66.5517 302.588 66.8134C301.939 67.0751 301.216 67.206 300.42 67.206ZM297.945 63.4678C297.945 64.105 298.172 64.6342 298.627 65.0552C299.094 65.4763 299.703 65.6868 300.454 65.6868C301.011 65.6868 301.518 65.5901 301.973 65.3966C302.428 65.1918 302.872 64.8618 303.304 64.4066L299.908 61.0097C299.248 61.2829 298.753 61.6299 298.423 62.051C298.104 62.4607 297.945 62.9329 297.945 63.4678ZM313.869 67.0012V55.0525H317.744C319.143 55.0525 320.293 55.2971 321.192 55.7865C322.102 56.2758 322.774 56.97 323.206 57.869C323.65 58.7566 323.872 59.8149 323.872 61.0439C323.872 62.2615 323.65 63.3198 323.206 64.2188C322.774 65.1064 322.102 65.7949 321.192 66.2842C320.293 66.7622 319.143 67.0012 317.744 67.0012H313.869ZM315.678 65.4649H317.675C318.757 65.4649 319.61 65.2885 320.236 64.9357C320.873 64.583 321.328 64.0766 321.601 63.4166C321.886 62.7565 322.028 61.9656 322.028 61.0439C322.028 60.1221 321.886 59.3256 321.601 58.6542C321.328 57.9827 320.873 57.4707 320.236 57.1179C319.61 56.7537 318.757 56.5717 317.675 56.5717H315.678V65.4649ZM329.763 67.206C328.932 67.206 328.192 67.0239 327.544 66.6598C326.907 66.2842 326.406 65.7665 326.042 65.1064C325.678 64.4464 325.495 63.6783 325.495 62.8021C325.495 61.9144 325.672 61.1349 326.025 60.4635C326.389 59.7921 326.889 59.2687 327.527 58.8931C328.175 58.5176 328.926 58.3298 329.78 58.3298C330.611 58.3298 331.333 58.5176 331.948 58.8931C332.562 59.2573 333.04 59.7466 333.382 60.3611C333.723 60.9756 333.894 61.6527 333.894 62.3924C333.894 62.5062 333.888 62.6314 333.877 62.7679C333.877 62.8931 333.871 63.0353 333.86 63.1947H327.271C327.328 64.014 327.595 64.6399 328.073 65.0723C328.562 65.4933 329.126 65.7039 329.763 65.7039C330.275 65.7039 330.702 65.5901 331.043 65.3625C331.396 65.1235 331.658 64.8049 331.828 64.4066H333.638C333.41 65.2032 332.955 65.8689 332.272 66.4037C331.601 66.9386 330.764 67.206 329.763 67.206ZM329.763 59.8149C329.16 59.8149 328.625 59.997 328.158 60.3611C327.692 60.7139 327.407 61.2487 327.305 61.9656H332.084C332.05 61.3056 331.817 60.7822 331.384 60.3952C330.952 60.0083 330.411 59.8149 329.763 59.8149ZM337.81 67.0012L334.635 58.5347H336.53L338.886 65.2771L341.241 58.5347H343.119L339.961 67.0012H337.81ZM348.133 67.206C347.302 67.206 346.562 67.0239 345.914 66.6598C345.276 66.2842 344.776 65.7665 344.411 65.1064C344.047 64.4464 343.865 63.6783 343.865 62.8021C343.865 61.9144 344.042 61.1349 344.394 60.4635C344.758 59.7921 345.259 59.2687 345.896 58.8931C346.545 58.5176 347.296 58.3298 348.15 58.3298C348.98 58.3298 349.703 58.5176 350.317 58.8931C350.932 59.2573 351.41 59.7466 351.751 60.3611C352.093 60.9756 352.263 61.6527 352.263 62.3924C352.263 62.5062 352.258 62.6314 352.246 62.7679C352.246 62.8931 352.241 63.0353 352.229 63.1947H345.64C345.697 64.014 345.965 64.6399 346.443 65.0723C346.932 65.4933 347.495 65.7039 348.133 65.7039C348.645 65.7039 349.071 65.5901 349.413 65.3625C349.766 65.1235 350.027 64.8049 350.198 64.4066H352.007C351.78 65.2032 351.325 65.8689 350.642 66.4037C349.97 66.9386 349.134 67.206 348.133 67.206ZM348.133 59.8149C347.529 59.8149 346.995 59.997 346.528 60.3611C346.061 60.7139 345.777 61.2487 345.675 61.9656H350.454C350.42 61.3056 350.187 60.7822 349.754 60.3952C349.322 60.0083 348.781 59.8149 348.133 59.8149ZM354.141 67.0012V54.7111H355.95V67.0012H354.141ZM362.202 67.206C361.394 67.206 360.665 67.0239 360.017 66.6598C359.379 66.2842 358.873 65.7665 358.498 65.1064C358.122 64.435 357.934 63.6555 357.934 62.7679C357.934 61.8803 358.122 61.1065 358.498 60.4465C358.884 59.7751 359.402 59.2573 360.051 58.8931C360.699 58.5176 361.422 58.3298 362.219 58.3298C363.027 58.3298 363.749 58.5176 364.387 58.8931C365.035 59.2573 365.547 59.7751 365.923 60.4465C366.31 61.1065 366.503 61.8803 366.503 62.7679C366.503 63.6555 366.31 64.435 365.923 65.1064C365.547 65.7665 365.035 66.2842 364.387 66.6598C363.738 67.0239 363.01 67.206 362.202 67.206ZM362.202 65.6527C362.634 65.6527 363.032 65.5446 363.396 65.3283C363.772 65.1121 364.074 64.7935 364.301 64.3724C364.529 63.94 364.643 63.4052 364.643 62.7679C364.643 62.1306 364.529 61.6015 364.301 61.1804C364.085 60.748 363.789 60.4237 363.414 60.2075C363.049 59.9913 362.651 59.8832 362.219 59.8832C361.786 59.8832 361.382 59.9913 361.007 60.2075C360.643 60.4237 360.347 60.748 360.119 61.1804C359.892 61.6015 359.778 62.1306 359.778 62.7679C359.778 63.4052 359.892 63.94 360.119 64.3724C360.347 64.7935 360.643 65.1121 361.007 65.3283C361.371 65.5446 361.769 65.6527 362.202 65.6527ZM368.46 70.7565V58.5347H370.081L370.269 59.849C370.542 59.4507 370.918 59.098 371.396 58.7907C371.874 58.4835 372.488 58.3298 373.239 58.3298C374.059 58.3298 374.781 58.5233 375.407 58.9102C376.033 59.2971 376.522 59.8263 376.875 60.4977C377.239 61.1691 377.421 61.9315 377.421 62.785C377.421 63.6385 377.239 64.4009 376.875 65.0723C376.522 65.7323 376.033 66.2558 375.407 66.6427C374.781 67.0182 374.053 67.206 373.222 67.206C372.562 67.206 371.976 67.0751 371.464 66.8134C370.963 66.5517 370.565 66.1818 370.269 65.7039V70.7565H368.46ZM372.915 65.6356C373.689 65.6356 374.326 65.3739 374.827 64.8504C375.328 64.3156 375.578 63.6214 375.578 62.7679C375.578 62.2103 375.464 61.7153 375.236 61.2829C375.009 60.8504 374.696 60.5147 374.298 60.2758C373.899 60.0254 373.439 59.9002 372.915 59.9002C372.141 59.9002 371.504 60.1677 371.003 60.7025C370.514 61.2373 370.269 61.9258 370.269 62.7679C370.269 63.6214 370.514 64.3156 371.003 64.8504C371.504 65.3739 372.141 65.6356 372.915 65.6356ZM379.378 67.0012V58.5347H380.983L381.137 59.7295C381.41 59.2971 381.768 58.9557 382.212 58.7054C382.667 58.455 383.191 58.3298 383.782 58.3298C385.125 58.3298 386.058 58.859 386.582 59.9173C386.889 59.428 387.299 59.0411 387.811 58.7566C388.334 58.4721 388.898 58.3298 389.501 58.3298C390.559 58.3298 391.39 58.6485 391.993 59.2857C392.596 59.923 392.897 60.8732 392.897 62.1363V67.0012H391.088V62.3241C391.088 60.6854 390.462 59.8661 389.21 59.8661C388.573 59.8661 388.05 60.1051 387.64 60.583C387.242 61.061 387.043 61.7437 387.043 62.6314V67.0012H385.233V62.3241C385.233 60.6854 384.602 59.8661 383.339 59.8661C382.713 59.8661 382.195 60.1051 381.785 60.583C381.387 61.061 381.188 61.7437 381.188 62.6314V67.0012H379.378ZM398.974 67.206C398.144 67.206 397.404 67.0239 396.755 66.6598C396.118 66.2842 395.617 65.7665 395.253 65.1064C394.889 64.4464 394.707 63.6783 394.707 62.8021C394.707 61.9144 394.883 61.1349 395.236 60.4635C395.6 59.7921 396.101 59.2687 396.738 58.8931C397.387 58.5176 398.138 58.3298 398.992 58.3298C399.822 58.3298 400.545 58.5176 401.159 58.8931C401.774 59.2573 402.252 59.7466 402.593 60.3611C402.935 60.9756 403.105 61.6527 403.105 62.3924C403.105 62.5062 403.1 62.6314 403.088 62.7679C403.088 62.8931 403.083 63.0353 403.071 63.1947H396.482C396.539 64.014 396.807 64.6399 397.285 65.0723C397.774 65.4933 398.337 65.7039 398.974 65.7039C399.487 65.7039 399.913 65.5901 400.255 65.3625C400.607 65.1235 400.869 64.8049 401.04 64.4066H402.849C402.622 65.2032 402.166 65.8689 401.484 66.4037C400.812 66.9386 399.976 67.206 398.974 67.206ZM398.974 59.8149C398.371 59.8149 397.837 59.997 397.37 60.3611C396.903 60.7139 396.619 61.2487 396.516 61.9656H401.296C401.262 61.3056 401.029 60.7822 400.596 60.3952C400.164 60.0083 399.623 59.8149 398.974 59.8149ZM404.983 67.0012V58.5347H406.587L406.724 60.0197C406.986 59.4962 407.367 59.0866 407.867 58.7907C408.38 58.4835 408.966 58.3298 409.626 58.3298C410.65 58.3298 411.452 58.6485 412.032 59.2857C412.624 59.923 412.92 60.8732 412.92 62.1363V67.0012H411.128V62.3241C411.128 60.6854 410.456 59.8661 409.114 59.8661C408.442 59.8661 407.885 60.1051 407.441 60.583C407.008 61.061 406.792 61.7437 406.792 62.6314V67.0012H404.983ZM418.602 67.0012C417.771 67.0012 417.111 66.802 416.621 66.4037C416.132 65.9941 415.887 65.2714 415.887 64.2359V60.0539H414.437V58.5347H415.887L416.109 56.3839H417.697V58.5347H420.087V60.0539H417.697V64.2359C417.697 64.7025 417.794 65.0268 417.987 65.2089C418.192 65.3796 418.539 65.4649 419.028 65.4649H420.001V67.0012H418.602Z" fill="white"/>
<path d="M380.139 17.3152V6.83454H376.605V5.36656H385.464V6.83454H381.948V17.3152H380.139ZM389.516 17.5201C388.685 17.5201 387.946 17.338 387.297 16.9739C386.66 16.5983 386.159 16.0805 385.795 15.4205C385.431 14.7605 385.249 13.9924 385.249 13.1161C385.249 12.2285 385.425 11.449 385.778 10.7776C386.142 10.1062 386.643 9.58274 387.28 9.20721C387.929 8.83168 388.68 8.64392 389.533 8.64392C390.364 8.64392 391.086 8.83168 391.701 9.20721C392.315 9.57136 392.793 10.0607 393.135 10.6752C393.476 11.2897 393.647 11.9668 393.647 12.7065C393.647 12.8203 393.641 12.9454 393.63 13.082C393.63 13.2072 393.624 13.3494 393.613 13.5087H387.024C387.081 14.3281 387.348 14.954 387.826 15.3864C388.315 15.8074 388.879 16.018 389.516 16.018C390.028 16.018 390.455 15.9042 390.796 15.6766C391.149 15.4376 391.411 15.119 391.581 14.7207H393.391C393.163 15.5173 392.708 16.183 392.025 16.7178C391.354 17.2527 390.517 17.5201 389.516 17.5201ZM389.516 10.129C388.913 10.129 388.378 10.311 387.911 10.6752C387.445 11.028 387.16 11.5628 387.058 12.2797H391.837C391.803 11.6197 391.57 11.0962 391.138 10.7093C390.705 10.3224 390.165 10.129 389.516 10.129ZM398.392 17.5201C397.675 17.5201 397.083 17.4006 396.617 17.1616C396.15 16.9226 395.803 16.6097 395.575 16.2228C395.348 15.8245 395.234 15.3921 395.234 14.9255C395.234 14.1062 395.553 13.4575 396.19 12.9796C396.827 12.5016 397.738 12.2627 398.921 12.2627H401.14V12.109C401.14 11.449 400.958 10.954 400.594 10.624C400.241 10.294 399.78 10.129 399.211 10.129C398.71 10.129 398.272 10.2541 397.897 10.5045C397.533 10.7435 397.311 11.1019 397.231 11.5799H395.422C395.479 10.9654 395.683 10.4419 396.036 10.0095C396.4 9.56567 396.856 9.22997 397.402 9.00238C397.959 8.7634 398.568 8.64392 399.228 8.64392C400.412 8.64392 401.328 8.95686 401.976 9.58274C402.625 10.1972 402.949 11.0393 402.949 12.109V17.3152H401.379L401.225 15.8643C400.986 16.3309 400.639 16.7235 400.184 17.0421C399.729 17.3608 399.132 17.5201 398.392 17.5201ZM398.75 16.0521C399.24 16.0521 399.649 15.9383 399.979 15.7107C400.321 15.4717 400.582 15.1588 400.765 14.7719C400.958 14.385 401.077 13.9582 401.123 13.4917H399.109C398.392 13.4917 397.88 13.6168 397.573 13.8672C397.277 14.1176 397.129 14.4305 397.129 14.806C397.129 15.1929 397.271 15.5002 397.555 15.7278C397.851 15.944 398.25 16.0521 398.75 16.0521ZM405.059 17.3152V8.84875H406.664L406.817 10.0436C407.09 9.61119 407.449 9.2698 407.893 9.01945C408.348 8.76909 408.871 8.64392 409.463 8.64392C410.806 8.64392 411.739 9.17307 412.262 10.2314C412.57 9.74206 412.979 9.35515 413.491 9.07065C414.015 8.78616 414.578 8.64392 415.181 8.64392C416.24 8.64392 417.07 8.96255 417.674 9.59981C418.277 10.2371 418.578 11.1873 418.578 12.4504V17.3152H416.769V12.6382C416.769 10.9995 416.143 10.1802 414.891 10.1802C414.254 10.1802 413.73 10.4191 413.321 10.8971C412.922 11.375 412.723 12.0578 412.723 12.9454V17.3152H410.914V12.6382C410.914 10.9995 410.282 10.1802 409.019 10.1802C408.393 10.1802 407.876 10.4191 407.466 10.8971C407.068 11.375 406.868 12.0578 406.868 12.9454V17.3152H405.059Z" fill="white"/>
<rect x="0.259766" y="2.12762" width="29.0244" height="19.63" fill="#0075FF"/>
<rect x="0.585449" y="50.0012" width="29.0244" height="19.63" fill="#FFEF9C"/>
<rect x="162.795" y="2.02209" width="29.0244" height="19.63" fill="#6FE5FF"/>
<rect x="162.795" y="50.0012" width="29.0244" height="19.63" fill="#CF2C84"/>
<rect x="322.083" y="2.02209" width="29.0244" height="19.63" fill="#FFC3E0"/>
</svg>
