<svg width="225" height="350" viewBox="0 0 386 339" fill="none" xmlns="http://www.w3.org/2000/svg">
<path d="M380.716 262.692C380.716 271.278 376.344 280.007 367.26 288.513C358.168 297.027 344.725 304.938 327.672 311.692C293.598 325.189 246.163 333.653 193.5 333.653C140.837 333.653 93.4025 325.189 59.3279 311.692C42.2752 304.938 28.8319 297.027 19.7396 288.513C10.6562 280.007 6.28431 271.278 6.28431 262.692C6.28431 254.106 10.6562 245.377 19.7396 236.871C28.8319 228.357 42.2752 220.446 59.3279 213.691C93.4025 200.195 140.837 191.731 193.5 191.731C246.163 191.731 293.598 200.195 327.672 213.691C344.725 220.446 358.168 228.357 367.26 236.871C376.344 245.377 380.716 254.106 380.716 262.692Z" fill="white" stroke="black" stroke-width="10.5686"/>
<path d="M380.716 220.417C380.716 228.504 376.427 236.817 367.339 244.991C358.252 253.163 344.806 260.765 327.739 267.257C293.643 280.226 246.184 288.359 193.5 288.359C140.816 288.359 93.3565 280.226 59.2607 267.257C42.1944 260.765 28.7479 253.163 19.6612 244.991C10.5728 236.817 6.28431 228.504 6.28431 220.417C6.28431 212.331 10.5728 204.017 19.6612 195.844C28.7479 187.672 42.1944 180.07 59.2607 173.578C93.3565 160.608 140.816 152.476 193.5 152.476C246.184 152.476 293.643 160.608 327.739 173.578C344.806 180.07 358.252 187.672 367.339 195.844C376.427 204.017 380.716 212.331 380.716 220.417Z" fill="white" stroke="black" stroke-width="10.5686"/>
<path d="M156.51 243.362H180.883L193.5 230.552L206.117 243.362H230.49L206.762 220.944L230.49 198.525H206.117L193.5 211.336L180.883 198.525H156.51L180.238 220.944L156.51 243.362Z" fill="black"/>
<path d="M380.716 215.888V267.976" stroke="black" stroke-width="10.5686"/>
<path d="M349.765 257.408V298.927" stroke="black" stroke-width="10.5686"/>
<path d="M318.059 269.486V315.535" stroke="black" stroke-width="10.5686"/>
<path d="M286.353 275.525V327.614" stroke="black" stroke-width="10.5686"/>
<path d="M254.647 283.075V329.124" stroke="black" stroke-width="10.5686"/>
<path d="M222.941 286.094V338.182" stroke="black" stroke-width="10.5686"/>
<path d="M191.235 286.094V338.182" stroke="black" stroke-width="10.5686"/>
<path d="M159.53 286.094V335.162" stroke="black" stroke-width="10.5686"/>
<path d="M127.823 286.094V330.633" stroke="black" stroke-width="10.5686"/>
<path d="M96.1177 275.525V327.614" stroke="black" stroke-width="10.5686"/>
<path d="M64.4119 267.977V315.535" stroke="black" stroke-width="10.5686"/>
<path d="M32.7061 251.369V298.927" stroke="black" stroke-width="10.5686"/>
<path d="M5.52954 218.153V270.241" stroke="black" stroke-width="10.5686"/>
<path d="M380.716 191.731C380.716 200.318 376.344 209.046 367.26 217.552C358.168 226.067 344.725 233.978 327.672 240.732C293.598 254.228 246.163 262.692 193.5 262.692C140.837 262.692 93.4025 254.228 59.3279 240.732C42.2752 233.978 28.8319 226.067 19.7396 217.552C10.6562 209.046 6.28431 200.318 6.28431 191.731C6.28431 183.145 10.6562 174.417 19.7396 165.911C28.8319 157.396 42.2752 149.485 59.3279 142.731C93.4025 129.235 140.837 120.771 193.5 120.771C246.163 120.771 293.598 129.235 327.672 142.731C344.725 149.485 358.168 157.396 367.26 165.911C376.344 174.417 380.716 183.145 380.716 191.731Z" fill="white" stroke="black" stroke-width="10.5686"/>
<path d="M380.716 149.457C380.716 157.543 376.427 165.857 367.339 174.031C358.252 182.203 344.806 189.804 327.739 196.296C293.643 209.266 246.184 217.398 193.5 217.398C140.816 217.398 93.3565 209.266 59.2607 196.296C42.1944 189.804 28.7479 182.203 19.6612 174.031C10.5728 165.857 6.28431 157.543 6.28431 149.457C6.28431 141.371 10.5728 133.057 19.6612 124.883C28.7479 116.711 42.1944 109.11 59.2607 102.618C93.3565 89.648 140.816 81.5158 193.5 81.5158C246.184 81.5158 293.643 89.648 327.739 102.618C344.806 109.11 358.252 116.711 367.339 124.883C376.427 133.057 380.716 141.371 380.716 149.457Z" fill="white" stroke="black" stroke-width="10.5686"/>
<path d="M156.51 172.401H180.883L193.5 159.591L206.117 172.401H230.49L206.762 149.983L230.49 127.564H206.117L193.5 140.375L180.883 127.564H156.51L180.238 149.983L156.51 172.401Z" fill="black"/>
<path d="M380.716 144.927V197.015" stroke="black" stroke-width="10.5686"/>
<path d="M349.765 186.447V227.966" stroke="black" stroke-width="10.5686"/>
<path d="M318.059 198.525V244.574" stroke="black" stroke-width="10.5686"/>
<path d="M286.353 204.564V256.653" stroke="black" stroke-width="10.5686"/>
<path d="M254.647 212.113V258.162" stroke="black" stroke-width="10.5686"/>
<path d="M222.941 215.133V267.222" stroke="black" stroke-width="10.5686"/>
<path d="M191.235 215.133V267.222" stroke="black" stroke-width="10.5686"/>
<path d="M159.53 215.133V264.202" stroke="black" stroke-width="10.5686"/>
<path d="M127.823 215.133V259.673" stroke="black" stroke-width="10.5686"/>
<path d="M96.1177 204.564V256.653" stroke="black" stroke-width="10.5686"/>
<path d="M64.4119 197.016V244.574" stroke="black" stroke-width="10.5686"/>
<path d="M32.7061 180.408V227.967" stroke="black" stroke-width="10.5686"/>
<path d="M5.52954 147.192V199.28" stroke="black" stroke-width="10.5686"/>
<path d="M380.716 116.241C380.716 124.827 376.344 133.556 367.26 142.062C358.168 150.576 344.725 158.487 327.672 165.241C293.598 178.737 246.163 187.201 193.5 187.201C140.837 187.201 93.4025 178.737 59.3279 165.241C42.2752 158.487 28.8319 150.576 19.7396 142.062C10.6562 133.556 6.28431 124.827 6.28431 116.241C6.28431 107.654 10.6562 98.9258 19.7396 90.4198C28.8319 81.9055 42.2752 73.9945 59.3279 67.2403C93.4025 53.744 140.837 45.2799 193.5 45.2799C246.163 45.2799 293.598 53.744 327.672 67.2403C344.725 73.9945 358.168 81.9055 367.26 90.4198C376.344 98.9258 380.716 107.654 380.716 116.241Z" fill="#54FF8E" stroke="black" stroke-width="10.5686"/>
<path d="M380.716 73.9667C380.716 82.0531 376.427 90.3667 367.339 98.5403C358.252 106.712 344.806 114.314 327.739 120.806C293.643 133.776 246.184 141.908 193.5 141.908C140.816 141.908 93.3565 133.776 59.2607 120.806C42.1944 114.314 28.7479 106.712 19.6612 98.5403C10.5728 90.3667 6.28431 82.0531 6.28431 73.9667C6.28431 65.8803 10.5728 57.5668 19.6612 49.3931C28.7479 41.221 42.1944 33.6194 59.2607 27.1275C93.3565 14.1577 140.816 6.02553 193.5 6.02553C246.184 6.02553 293.643 14.1577 327.739 27.1275C344.806 33.6194 358.252 41.221 367.339 49.3931C376.427 57.5668 380.716 65.8803 380.716 73.9667Z" fill="#54FF8E" stroke="black" stroke-width="10.5686"/>
<path d="M156.505 84.7639H180.882L193.5 79.031L206.118 84.7639H230.495L206.764 74.7313L230.495 64.6987H206.118L193.5 70.4316L180.882 64.6987H156.505L180.236 74.7313L156.505 84.7639Z" fill="#0E0E0E"/>
<path d="M380.716 69.437V121.525" stroke="black" stroke-width="10.5686"/>
<path d="M349.765 110.957V152.477" stroke="black" stroke-width="10.5686"/>
<path d="M318.059 123.035V169.084" stroke="black" stroke-width="10.5686"/>
<path d="M286.353 129.074V181.162" stroke="black" stroke-width="10.5686"/>
<path d="M254.647 136.624V182.673" stroke="black" stroke-width="10.5686"/>
<path d="M222.941 139.643V191.731" stroke="black" stroke-width="10.5686"/>
<path d="M191.235 139.643V191.731" stroke="black" stroke-width="10.5686"/>
<path d="M159.53 139.643V188.712" stroke="black" stroke-width="10.5686"/>
<path d="M127.823 139.643V184.182" stroke="black" stroke-width="10.5686"/>
<path d="M96.1177 129.074V181.162" stroke="black" stroke-width="10.5686"/>
<path d="M64.4119 121.525V169.084" stroke="black" stroke-width="10.5686"/>
<path d="M32.7061 104.917V152.476" stroke="black" stroke-width="10.5686"/>
<path d="M5.52954 71.7017V123.79" stroke="black" stroke-width="10.5686"/>
</svg>
