<svg width="25" height="25" viewBox="0 0 25 25" fill="none" xmlns="http://www.w3.org/2000/svg">
<path fill-rule="evenodd" clip-rule="evenodd" d="M0.124756 2.19129C0.124756 1.64289 0.342608 1.11695 0.730386 0.729168C1.11816 0.341389 1.6441 0.123538 2.19251 0.123538H22.8047C23.0765 0.123094 23.3457 0.176259 23.5969 0.279988C23.8481 0.383717 24.0764 0.535974 24.2687 0.728041C24.4609 0.920108 24.6134 1.14821 24.7174 1.3993C24.8214 1.65038 24.8749 1.91952 24.8747 2.19129V22.8035C24.875 23.0754 24.8217 23.3446 24.7179 23.5958C24.614 23.847 24.4617 24.0752 24.2695 24.2675C24.0774 24.4598 23.8492 24.6122 23.598 24.7162C23.3469 24.8202 23.0777 24.8737 22.8059 24.8735H2.19251C1.92087 24.8735 1.6519 24.82 1.40095 24.716C1.15001 24.612 0.922011 24.4596 0.729988 24.2675C0.537965 24.0754 0.385679 23.8473 0.281831 23.5963C0.177983 23.3453 0.124608 23.0763 0.124756 22.8047V2.19129ZM9.92125 9.56003H13.2726V11.243C13.7564 10.2755 14.9939 9.40478 16.8535 9.40478C20.4186 9.40478 21.2635 11.3319 21.2635 14.8678V21.4175H17.6556V15.6733C17.6556 13.6595 17.1719 12.5233 15.9434 12.5233C14.239 12.5233 13.5303 13.7484 13.5303 15.6733V21.4175H9.92125V9.56003ZM3.73375 21.2634H7.34275V9.40478H3.73375V21.2623V21.2634ZM7.85913 5.53704C7.86593 5.84604 7.81095 6.1533 7.6974 6.44076C7.58385 6.72823 7.41402 6.99012 7.19789 7.21107C6.98175 7.43202 6.72366 7.60757 6.43877 7.72742C6.15387 7.84727 5.8479 7.909 5.53882 7.909C5.22973 7.909 4.92377 7.84727 4.63887 7.72742C4.35397 7.60757 4.09588 7.43202 3.87974 7.21107C3.66361 6.99012 3.49378 6.72823 3.38024 6.44076C3.26669 6.1533 3.2117 5.84604 3.2185 5.53704C3.23186 4.9305 3.48219 4.3533 3.91588 3.92906C4.34956 3.50482 4.93213 3.26726 5.53882 3.26726C6.1455 3.26726 6.72807 3.50482 7.16176 3.92906C7.59545 4.3533 7.84577 4.9305 7.85913 5.53704V5.53704Z" fill="#0E0E0E"/>
</svg>
