<svg width="27" height="27" viewBox="0 0 27 27" fill="none" xmlns="http://www.w3.org/2000/svg">
<path d="M13.5 8.09082C10.5073 8.09082 8.09209 10.5061 8.09209 13.4987C8.09209 16.4914 10.5073 18.9066 13.5 18.9066C16.4927 18.9066 18.9079 16.4914 18.9079 13.4987C18.9079 10.5061 16.4927 8.09082 13.5 8.09082ZM13.5 17.0135C11.5646 17.0135 9.98525 15.4341 9.98525 13.4987C9.98525 11.5634 11.5646 9.98398 13.5 9.98398C15.4353 9.98398 17.0147 11.5634 17.0147 13.4987C17.0147 15.4341 15.4353 17.0135 13.5 17.0135ZM19.1294 6.60899C18.4307 6.60899 17.8664 7.17324 17.8664 7.87197C17.8664 8.5707 18.4307 9.13496 19.1294 9.13496C19.8281 9.13496 20.3924 8.57334 20.3924 7.87197C20.3926 7.70606 20.3601 7.54173 20.2967 7.3884C20.2333 7.23508 20.1402 7.09576 20.0229 6.97844C19.9056 6.86112 19.7663 6.7681 19.613 6.7047C19.4596 6.6413 19.2953 6.60878 19.1294 6.60899ZM24.0416 13.4987C24.0416 12.0433 24.0548 10.601 23.973 9.14814C23.8913 7.46065 23.5063 5.96299 22.2724 4.72901C21.0357 3.49239 19.5407 3.11006 17.8532 3.02832C16.3977 2.94659 14.9555 2.95977 13.5026 2.95977C12.0472 2.95977 10.6049 2.94659 9.15205 3.02832C7.46455 3.11006 5.9669 3.49502 4.73291 4.72901C3.49629 5.96563 3.11397 7.46065 3.03223 9.14814C2.95049 10.6036 2.96367 12.0459 2.96367 13.4987C2.96367 14.9516 2.95049 16.3965 3.03223 17.8493C3.11397 19.5368 3.49893 21.0345 4.73291 22.2684C5.96953 23.5051 7.46455 23.8874 9.15205 23.9691C10.6075 24.0509 12.0498 24.0377 13.5026 24.0377C14.9581 24.0377 16.4004 24.0509 17.8532 23.9691C19.5407 23.8874 21.0384 23.5024 22.2724 22.2684C23.509 21.0318 23.8913 19.5368 23.973 17.8493C24.0574 16.3965 24.0416 14.9542 24.0416 13.4987ZM21.7213 19.7161C21.5288 20.196 21.2968 20.5546 20.925 20.9237C20.5532 21.2955 20.1973 21.5275 19.7174 21.72C18.3305 22.2711 15.0372 22.1472 13.5 22.1472C11.9628 22.1472 8.66689 22.2711 7.27998 21.7227C6.8001 21.5302 6.44151 21.2981 6.07236 20.9264C5.70059 20.5546 5.46856 20.1986 5.27608 19.7187C4.72764 18.3292 4.85156 15.0359 4.85156 13.4987C4.85156 11.9615 4.72764 8.66563 5.27608 7.27871C5.46856 6.79883 5.70059 6.44024 6.07236 6.0711C6.44414 5.70195 6.8001 5.46729 7.27998 5.27481C8.66689 4.72637 11.9628 4.8503 13.5 4.8503C15.0372 4.8503 18.3331 4.72637 19.72 5.27481C20.1999 5.46729 20.5585 5.69932 20.9276 6.0711C21.2994 6.44287 21.5314 6.79883 21.7239 7.27871C22.2724 8.66563 22.1484 11.9615 22.1484 13.4987C22.1484 15.0359 22.2724 18.3292 21.7213 19.7161Z" fill="#0E0E0E"/>
</svg>
