<svg width="27" height="27" viewBox="0 0 27 27" fill="none" xmlns="http://www.w3.org/2000/svg">
<path fill-rule="evenodd" clip-rule="evenodd" d="M1.12476 3.19129C1.12476 2.64289 1.34261 2.11695 1.73039 1.72917C2.11816 1.34139 2.6441 1.12354 3.19251 1.12354H23.8047C24.0765 1.12309 24.3457 1.17626 24.5969 1.27999C24.8481 1.38372 25.0764 1.53597 25.2687 1.72804C25.4609 1.92011 25.6134 2.14821 25.7174 2.3993C25.8214 2.65038 25.8749 2.91952 25.8747 3.19129V23.8035C25.875 24.0754 25.8217 24.3446 25.7179 24.5958C25.614 24.847 25.4617 25.0752 25.2695 25.2675C25.0774 25.4598 24.8492 25.6122 24.598 25.7162C24.3469 25.8202 24.0777 25.8737 23.8059 25.8735H3.19251C2.92087 25.8735 2.6519 25.82 2.40095 25.716C2.15001 25.612 1.92201 25.4596 1.72999 25.2675C1.53796 25.0754 1.38568 24.8473 1.28183 24.5963C1.17798 24.3453 1.12461 24.0763 1.12476 23.8047V3.19129ZM10.9213 10.56H14.2726V12.243C14.7564 11.2755 15.9939 10.4048 17.8535 10.4048C21.4186 10.4048 22.2635 12.3319 22.2635 15.8678V22.4175H18.6556V16.6733C18.6556 14.6595 18.1719 13.5233 16.9434 13.5233C15.239 13.5233 14.5303 14.7484 14.5303 16.6733V22.4175H10.9213V10.56ZM4.73375 22.2634H8.34275V10.4048H4.73375V22.2623V22.2634ZM8.85913 6.53704C8.86593 6.84604 8.81095 7.1533 8.6974 7.44076C8.58385 7.72823 8.41402 7.99012 8.19789 8.21107C7.98175 8.43202 7.72366 8.60757 7.43877 8.72742C7.15387 8.84727 6.8479 8.909 6.53882 8.909C6.22973 8.909 5.92377 8.84727 5.63887 8.72742C5.35397 8.60757 5.09588 8.43202 4.87974 8.21107C4.66361 7.99012 4.49378 7.72823 4.38024 7.44076C4.26669 7.1533 4.2117 6.84604 4.2185 6.53704C4.23186 5.9305 4.48219 5.3533 4.91588 4.92906C5.34956 4.50482 5.93213 4.26726 6.53882 4.26726C7.1455 4.26726 7.72807 4.50482 8.16176 4.92906C8.59545 5.3533 8.84577 5.9305 8.85913 6.53704Z" fill="#0E0E0E"/>
</svg>
