<svg width="88" height="16" viewBox="0 0 88 16" fill="none" xmlns="http://www.w3.org/2000/svg">
<g clip-path="url(#clip0_532_10325)">
<path d="M83.6597 7.80498L80.6549 10.053L73.243 15.6101V11.1066L77.6501 7.80498L73.243 4.50341V-9.15527e-05L80.6549 5.54952L83.6597 7.80498Z" fill="white"/>
<path d="M83.6003 7.79756L87.9999 4.50341V-9.15527e-05L80.5955 5.54952L83.6003 7.79756Z" fill="#2BB673"/>
<path d="M83.5929 7.80496L88 11.1065V15.61L80.5955 10.0604L80.5881 10.053L83.5929 7.80496Z" fill="#2BB673"/>
<path d="M3.05674 9.64478C3.05674 10.9061 4.0806 11.4848 7.95346 11.4848C11.166 11.4848 12.1305 11.1286 12.1305 10.1938C12.1305 9.25897 11.4554 9.0364 7.59734 8.85091C2.40384 8.6135 0.356125 7.79738 0.356125 5.14128C0.356125 2.48518 3.02706 1.69131 7.47863 1.69131C11.9302 1.69131 14.6827 2.81163 14.6827 5.75708H11.626C11.626 4.44387 10.3128 4.12484 7.13734 4.12484C4.16963 4.12484 3.4277 4.41419 3.4277 5.29708C3.4277 6.17997 4.16963 6.3803 7.61217 6.58804C12.3012 6.84029 15.2095 7.09996 15.2095 10.1048C15.2095 13.2802 12.1973 13.9257 7.79024 13.9257C2.90836 13.9183 0 13.0873 0 9.64478H3.05674Z" fill="white"/>
<path d="M26.843 10.1641H29.7291C29.0688 12.7163 26.5908 13.9183 22.8812 13.9183C19.1715 13.9183 16.1222 12.4344 16.1222 8.72477C16.1222 5.01514 18.9935 3.53128 23.0518 3.53128C26.8579 3.53128 29.8998 4.83707 29.8998 9.39251H19.0973C19.4163 10.9876 20.9447 11.5144 22.8812 11.5144C24.8176 11.5144 26.116 11.188 26.843 10.1641ZM19.1938 7.5822H26.7911C26.3014 6.17254 24.8695 5.77932 23.037 5.77932C21.0486 5.77932 19.6538 6.17254 19.1938 7.5822Z" fill="white"/>
<path d="M41.7408 3.90992V6.34344C40.9034 6.11964 40.0406 6.00493 39.1737 6.00215C37.2689 5.9635 35.4088 6.58179 33.9061 7.7531V13.7479H31.0051V3.7096H33.9061V5.43829C35.3184 4.18732 37.1543 3.52142 39.0402 3.57605C39.9511 3.57013 40.8588 3.68235 41.7408 3.90992Z" fill="white"/>
<path d="M56.6537 3.70956L51.5789 13.7478H47.4315L42.3641 3.70956H45.5915L49.5237 11.663L53.4189 3.70956H56.6537Z" fill="white"/>
<path d="M69.6892 8.70258V13.7477H66.7734V12.5087C64.8841 13.4493 62.8 13.9322 60.6896 13.9183C57.8851 13.9183 56.1342 13.0206 56.1342 10.7577C56.1342 8.16098 58.9906 7.34486 62.166 7.34486C63.7315 7.34572 65.2868 7.59617 66.7734 8.08678C66.7734 6.18745 64.325 6.03165 62.9673 6.03165C61.2848 6.02605 59.6112 6.27621 58.0038 6.77357L56.9651 4.64424C58.9289 3.96862 60.9872 3.60803 63.0638 3.57587C67.2705 3.57587 69.6521 4.91134 69.6892 8.70258ZM66.7734 9.85999C65.3968 9.43623 63.9623 9.23094 62.5221 9.25161C60.3483 9.25161 59.0351 9.62257 59.0351 10.639C59.0351 11.6555 60.007 11.7816 61.5205 11.7816C63.326 11.7204 65.1056 11.3333 66.7734 10.639V9.85999Z" fill="white"/>
</g>
<defs>
<clipPath id="clip0_532_10325">
<rect width="88" height="15.6102" fill="white"/>
</clipPath>
</defs>
</svg>
