<svg width="493" height="487" viewBox="0 0 493 487" fill="none" xmlns="http://www.w3.org/2000/svg">
<path d="M706.963 535.647C678.662 525.69 652.672 510.962 627.572 496.737C601.404 481.92 574.229 466.599 545.099 456.997C493.949 440.224 424.249 426.325 353.896 418.857C322.069 415.479 292.049 426.859 263.007 437.853C225.015 452.256 185.72 467.132 142.394 448.818C107.722 434.149 88.4889 404.07 69.908 374.968C51.8013 346.638 33.0722 317.359 0 301.86L1.27429 299.163C35.117 315.047 54.0831 344.682 72.3973 373.25C91.6005 403.299 109.707 431.66 143.52 445.943C185.75 463.724 222.763 449.796 262.059 434.979C291.397 423.836 321.772 412.338 354.311 415.805C424.841 423.273 494.779 437.231 546.106 454.063C575.741 463.754 602.827 479.134 629.083 494.04C654.095 508.206 679.936 522.845 708 532.743L706.963 535.647Z" fill="#54FF8E"/>
<path d="M688.352 470.985C666.512 462.094 650.124 450.477 634.24 439.216C612.666 423.895 592.277 409.404 559.975 402.558C497.907 390.033 434.759 383.631 371.44 383.444C350.311 383.444 329.329 384.748 309.03 386.111C250.383 389.993 194.966 393.668 137.149 364.478C119.368 355.587 103.632 338.933 88.3409 322.989C67.3892 301.001 45.7263 278.3 19.0552 275.041L19.4404 272.077C47.1488 275.455 69.1673 298.57 90.5635 320.915C105.677 336.769 121.324 353.157 138.571 361.87C195.766 390.734 250.768 387.089 309 383.207C329.359 381.844 350.488 380.243 371.618 380.54C435.147 380.715 498.504 387.137 560.776 399.713C593.67 406.707 614.296 421.347 636.136 436.875C651.872 448.047 668.142 459.575 689.656 468.288L688.352 470.985Z" fill="#54FF8E"/>
<path d="M674.72 404.959C665.504 398.854 657.443 393.105 649.649 387.504C617.911 364.834 594.974 348.475 544.832 347.083C523.05 346.49 501.476 350.342 480.614 354.047C461.322 357.484 441.348 361.04 421.196 361.07H420.663C334.248 361.07 237.403 324.649 162.635 292.91C150.749 287.508 139.155 281.484 127.903 274.863C98.2682 258.09 64.4551 239.064 33.0721 245.08L32.509 242.117C65.1071 235.894 99.2461 255.186 129.444 272.226C140.594 278.768 152.089 284.703 163.879 290.006C305.295 350.076 375.411 357.958 420.604 357.958H421.285C441.17 357.958 461.025 354.402 480.199 350.965C501.18 347.231 522.873 343.349 545.01 343.971C596.07 345.393 619.304 361.989 651.457 384.956C659.221 390.497 667.282 396.246 676.439 402.321L674.72 404.959Z" fill="#54FF8E"/>
<path d="M467.041 339.763C441.348 339.763 407.298 325.153 379.53 313.092C369.247 308.676 359.527 304.527 351.199 301.475C296.998 281.679 242.677 259.424 190.165 237.879L168.295 228.989C163.257 226.914 158.041 224.662 152.736 222.351C117.501 207 77.5831 189.604 43.9478 213.312L42.229 210.882C77.2571 186.226 117.975 203.977 153.922 219.624C159.197 221.936 164.383 224.188 169.421 226.262L191.291 235.153C243.774 256.697 297.976 278.953 352.207 298.719C360.623 301.682 370.373 305.979 380.686 310.395C410.32 323.138 447.334 338.963 472.76 336.414C491.815 334.458 505.358 324.205 519.82 313.329C531.674 304.438 544.061 295.015 559.975 290.481C607.39 276.878 640.64 304.764 666.808 333.836L664.615 335.822C637.766 306.009 606.59 280.227 560.894 293.325C545.543 297.711 533.422 306.868 521.717 315.7C507.64 326.338 493.06 337.333 473.175 339.407C471.138 339.636 469.091 339.754 467.041 339.763Z" fill="#54FF8E"/>
<path d="M491.608 307.757C465.293 307.757 430.739 292.11 402.468 279.308C391.621 274.389 381.397 269.766 372.833 266.476C352.296 258.683 331.345 250.622 311.312 242.769C273.32 227.951 234.054 212.868 195.055 198.85C189.395 196.806 183.616 194.613 177.749 192.39C137.357 177.01 95.5421 161.125 57.0468 183.233L55.5947 180.655C95.3051 157.836 139.668 174.728 178.815 189.545C184.742 191.768 190.402 193.931 196.063 195.976C235.091 209.993 274.387 225.195 312.378 239.924C332.53 247.718 353.363 255.778 373.9 263.632C382.79 266.98 392.925 271.603 403.801 276.552C434.473 290.421 472.642 307.728 498.632 304.29C518.783 301.653 537.157 282.272 554.938 263.513C575.267 242.058 594.5 221.788 616.666 223.803C631.81 225.166 646.301 236.96 661.385 259.868L658.896 261.468C644.464 239.39 630.565 228.04 616.4 226.736C595.656 224.84 576.897 244.517 557.131 265.558C538.994 284.672 520.265 304.468 499.076 307.224C496.602 307.572 494.107 307.751 491.608 307.757Z" fill="#54FF8E"/>
<path d="M455.869 240.457C404.423 240.457 349.184 217.253 295.575 194.79C221.963 163.941 145.862 132.024 76.2795 157.51L75.3608 154.843C145.95 128.972 222.615 161.096 296.731 192.182C350.637 214.794 406.379 238.175 457.736 237.612C485.326 237.286 510.486 220.543 534.786 204.362C570.822 180.358 608.102 155.524 651.042 189.13L649.205 191.442C607.954 159.17 573.222 182.314 536.416 206.822C511.73 223.239 486.215 240.25 457.736 240.576L455.869 240.457Z" fill="#54FF8E"/>
<path d="M366.283 151.702C331.226 151.702 295.486 146.664 260.873 141.774C208.776 134.395 154.929 126.779 102.95 136.321L102.417 133.358C154.87 123.726 209.102 131.372 261.288 138.781C298.391 144.026 336.767 149.42 374.077 148.59C404.364 147.938 435.036 143.789 464.7 139.699C512.382 133.269 561.694 126.631 610.769 134.128L610.324 137.092C561.664 129.653 512.53 136.262 465.115 142.663C435.48 146.664 404.601 150.812 374.137 151.553C371.529 151.672 368.891 151.702 366.283 151.702Z" fill="#54FF8E"/>
<path d="M135.134 118.659L134.837 115.696C165.657 112.495 197.544 109.147 227.149 96.7593C236.475 92.6146 245.514 87.8527 254.206 82.505C267.363 74.8 280.877 66.8283 296.761 63.3907C343.198 53.3446 393.577 62.6202 442.296 71.5698C482.896 79.0674 524.888 86.7724 564.243 83.2163L564.509 86.1797C524.769 89.7655 482.57 82.0012 441.763 74.5037C393.34 65.6133 343.257 56.3969 297.383 66.2949C282.032 69.614 269.26 77.1115 255.717 85.0536C246.913 90.4726 237.755 95.2942 228.305 99.4857C198.285 112.051 166.191 115.399 135.134 118.659Z" fill="#54FF8E"/>
<path d="M168.858 101.856L168.473 98.8927C198.463 94.7142 209.724 74.3256 221.815 52.7516C232.928 32.689 244.426 11.9448 272.194 5.33629C300.317 -1.30186 333.893 3.61748 366.343 8.29975C381.605 10.552 395.977 12.656 409.106 13.4265C466.36 16.8049 516.027 13.4265 565.398 3.26187L565.991 6.22533C516.383 16.5974 466.448 19.8276 408.928 16.4493C395.681 15.6788 381.219 13.4858 365.898 11.2928C333.715 6.58092 300.406 1.72085 272.846 8.32936C246.441 14.5526 235.773 33.8151 224.482 54.2334C212.51 75.4814 200.33 97.4702 168.858 101.856Z" fill="#54FF8E"/>
<path d="M193.899 78.6819L191.914 76.489C203.441 66.0576 207.353 53.7888 211.532 40.7793C214.643 30.9998 217.873 20.8649 224.66 11.7374C242.737 -12.5926 265.378 -18.5196 295.368 -24.2687C317.979 -28.5953 340.146 -32.4182 361.572 -36.1225C440.992 -49.873 515.997 -62.7936 596.278 -97.4365L597.463 -94.7101C516.857 -60.008 441.674 -46.9984 362.075 -33.2183C340.679 -29.514 318.513 -25.6615 295.931 -21.3645C266.593 -15.7635 244.485 -9.98477 227.031 13.4858C220.57 22.1984 217.399 32.0964 214.347 41.6387C210.346 54.5001 206.109 67.7171 193.899 78.6819Z" fill="#54FF8E"/>
<path d="M596.752 548.005L593.788 547.649C596.574 524.92 600.367 503.79 604.012 483.372C612.014 438.475 619.6 396.068 615.214 345.571C614.058 332.028 613.821 317.359 613.555 301.86C612.962 264.935 612.369 226.766 599.152 197.072C586.854 169.423 561.101 152.62 536.179 136.292C513.182 121.267 489.386 105.709 475.487 81.5269C452.965 42.3203 468.671 -5.83589 483.844 -52.3918C491.223 -74.9734 498.158 -96.2807 500.439 -115.662L503.403 -115.336C501.091 -95.6583 494.098 -74.2029 486.689 -51.4732C471.723 -5.53956 456.225 41.9647 478.095 80.0748C491.608 103.605 515.109 118.985 537.838 133.832C563.117 150.338 589.254 167.408 601.908 195.887C615.333 226.114 615.955 264.58 616.548 301.801C616.814 317.27 617.051 331.85 618.207 345.304C622.623 396.217 615.007 438.802 606.946 483.905C603.301 504.294 599.537 525.275 596.752 548.005Z" fill="#54FF8E"/>
<path d="M539.705 520.712L536.89 519.763C539.172 512.977 541.602 506.161 544.15 499.019C555.085 468.347 566.347 436.609 566.258 405.522C565.864 394.698 564.525 383.93 562.257 373.339C559.952 362.483 558.594 351.447 558.197 340.356C558.197 325.212 561.012 309.18 563.857 293.681C568.54 268.017 573.4 241.465 564.865 217.639C552.833 183.914 522.398 162.311 490.186 139.433C460.284 118.185 429.375 96.2257 415.003 63.7462C395.799 20.3611 413.788 -16.0894 432.783 -54.7922C438.207 -65.7866 443.808 -77.1367 448.549 -88.7534L451.305 -87.6273C446.504 -75.7735 440.874 -64.5123 435.451 -53.4883C416.721 -15.5264 399.03 20.3612 417.67 62.4423C431.717 94.181 462.3 115.785 491.756 136.914C522.932 159.051 555.145 181.959 567.502 216.542C576.393 241.139 571.384 268.077 566.613 294.126C563.798 309.506 560.894 325.39 561.012 340.267C561.408 351.18 562.757 362.038 565.043 372.716C567.322 383.446 568.67 394.353 569.073 405.315C569.073 436.935 557.812 468.91 546.817 499.819C544.387 507.139 541.987 513.925 539.705 520.712Z" fill="#54FF8E"/>
<path d="M474.39 494.989L471.427 494.425C474.241 476.776 475.825 458.952 476.169 441.083C477.65 407.003 479.132 371.768 496.735 343.793C503.019 334.171 510.034 325.046 517.716 316.499C534.282 297.267 547.351 282.064 538.016 250.325C525.273 206.97 483.577 175.113 443.185 144.322C407.624 117.177 370.877 89.1132 353.126 52.9294C331.759 9.27763 359.053 -22.8463 385.546 -53.933C389.339 -58.3781 393.103 -62.8233 396.748 -67.2982L399.059 -65.4312C395.385 -60.9564 391.591 -56.5408 387.798 -52.0067C361.986 -21.6609 335.286 9.72213 355.793 51.7143C373.218 87.2758 409.698 115.132 444.993 142.07C485.8 173.068 527.911 205.222 540.92 249.673C550.729 282.953 537.186 298.689 520.028 318.603C512.425 327.042 505.489 336.058 499.284 345.571C482.125 372.864 480.614 407.804 479.162 441.38C478.809 459.338 477.214 477.25 474.39 494.989Z" fill="#54FF8E"/>
<path d="M393.34 473.059H390.376C390.376 465.325 390.376 458.242 390.376 451.278C389.932 408.308 389.665 382.348 439.096 358.492C446.475 354.906 454.417 351.705 462.092 348.623C484.733 339.526 506.129 330.843 513.093 313.803C517.183 303.757 516.057 291.547 509.3 276.434C488.556 229.018 445.586 192.301 404.127 156.799C369.721 127.342 334.16 96.848 311.311 60.3974C275.424 3.11375 301.591 -16.6525 344.947 -49.2506L349.392 -52.5993L351.199 -50.2285L346.665 -46.6724C303.251 -14.0743 279.336 3.94352 313.771 58.9157C336.353 94.981 371.766 125.297 405.994 154.635C447.719 190.345 490.838 227.299 511.967 275.337C518.931 291.221 520.176 304.201 515.76 315.018C508.322 333.273 486.363 342.104 463.129 351.468C455.484 354.432 447.601 357.721 440.311 361.248C392.569 384.303 392.895 409.523 393.281 451.337C393.37 458.153 393.458 465.295 393.34 473.059Z" fill="#54FF8E"/>
<path d="M316.764 460.257L313.801 460.079C317.476 398.498 338.842 381.903 390.406 356.21C396.333 353.246 402.468 350.461 408.365 347.764C431.154 337.333 452.669 327.494 458.744 310.098C462.448 299.519 460.344 286.657 452.283 270.773C440.429 247.243 409.432 216.66 376.715 184.27C319.372 127.49 254.413 63.1533 262.355 10.463C265.645 -11.2887 281.44 -29.6622 309.296 -44.2128L310.689 -41.5753C283.307 -27.2914 268.46 -10.133 265.289 10.9075C257.554 62.0865 321.98 125.89 378.789 182.166C411.684 214.764 442.741 245.465 454.921 269.44C463.367 286.065 465.53 299.697 461.559 311.076C455.069 329.657 432.991 339.763 409.609 350.461C403.683 353.128 397.756 355.913 391.829 358.877C340.205 384.54 320.38 399.95 316.764 460.257Z" fill="#54FF8E"/>
<path d="M226.497 494.752L223.534 494.218C233.533 437.794 255.788 384.25 288.73 337.362C295.203 328.527 302.127 320.03 309.474 311.906C329.211 289.028 349.629 265.38 345.036 233.671C339.998 198.672 315.401 165.156 291.397 132.765C250.56 77.4077 208.42 20.1537 271.957 -41.4567L274.001 -39.323C212.273 20.5093 251.864 74.1775 293.768 131.017C317.89 163.615 342.813 197.517 347.969 233.226C352.77 266.299 331.878 290.48 311.697 313.862C304.496 321.928 297.711 330.355 291.367 339.111C258.606 385.614 236.461 438.747 226.497 494.752Z" fill="#54FF8E"/>
<path d="M140.557 514.962L137.594 514.666C139.46 496.678 141.001 478.245 142.483 460.435C146.721 409.849 151.107 357.543 163.227 307.55C172.118 270.299 186.935 248.992 204.212 224.336C211.473 213.905 219.029 203.118 226.557 190.315C246.886 156.028 241.226 118.866 235.239 79.5117C229.49 41.9351 223.593 3.0545 241.166 -34.7889L243.863 -33.5442C226.705 3.49901 232.572 41.9054 238.233 79.0672C244.308 118.955 250.086 156.621 229.164 191.679C221.519 204.57 213.992 215.386 206.701 225.877C189.721 250.296 175.052 271.396 166.161 308.083C154.13 357.869 149.744 410.056 145.417 460.524C143.817 478.512 142.276 496.945 140.557 514.962Z" fill="#54FF8E"/>
<path d="M82.6508 445.825L79.6874 445.618C81.1691 425.822 80.4875 401.581 79.6874 375.917C77.4648 297.119 74.6791 199.028 134.571 161.422C140.883 157.421 147.254 153.924 153.389 150.546C172.295 140.115 190.135 130.276 202.226 109.057C217.281 82.8901 217.992 45.8765 218.644 13.2488C218.881 1.89876 219.088 -8.79934 219.859 -18.6677L222.822 -18.4306C222.082 -8.65117 221.844 2.01731 221.637 13.3081C220.985 46.2914 220.244 83.6902 204.834 110.539C192.328 132.321 174.133 142.337 154.87 152.976C148.736 156.354 142.424 159.851 136.171 163.763C77.7315 200.48 80.4579 297.622 82.6804 375.68C83.4509 401.581 84.2511 425.881 82.6508 445.825Z" fill="#54FF8E"/>
<path d="M39.5326 363.678L36.5691 362.907C42.2886 341.333 44.4519 317.685 46.7634 292.673C51.2678 243.539 55.9501 192.716 89.615 158.725C101.706 146.516 117.738 139.67 133.237 133.091C147.076 127.164 161.39 121.237 172.414 111.221C207.205 80.1044 207.413 54.352 207.798 7.49969H210.761C210.406 53.5222 210.169 81.3195 174.4 113.325C162.99 123.519 148.469 129.713 134.393 135.699C119.161 142.189 103.395 148.886 91.7191 160.681C58.795 193.931 54.172 244.221 49.6972 292.822C47.6228 316.974 45.3409 341.837 39.5326 363.678Z" fill="#54FF8E"/>
</svg>
