<svg width="355" height="703" viewBox="0 0 355 703" fill="none" xmlns="http://www.w3.org/2000/svg">
<path d="M177.502 521.037L8.39921 433.163L177.498 345.294L346.601 433.168L177.502 521.037Z" fill="white" stroke="#0E0E0E" stroke-width="6.99611"/>
<path d="M177.502 441.264L8.39921 353.39L177.498 265.521L346.601 353.395L177.502 441.264Z" fill="#54FF8E" stroke="#0E0E0E" stroke-width="6.99611"/>
<path d="M177.502 356.712L8.39921 268.838L177.498 180.969L346.601 268.843L177.502 356.712Z" fill="white" stroke="#0E0E0E" stroke-width="6.99611"/>
<path d="M120.428 255.468L150.927 232.385L157.058 235.907L151.335 261.219L172.815 244.961L178.946 248.484L148.446 271.567L142.316 268.045L147.995 242.766L126.558 258.991L120.428 255.468Z" fill="#0E0E0E"/>
<path d="M154.946 275.302L185.445 252.218L207.094 264.657L202.606 268.054L187.088 259.137L178.548 265.601L191.097 272.811L186.696 276.141L174.148 268.931L161.077 278.824L154.946 275.302Z" fill="#0E0E0E"/>
<path d="M189.133 294.945L215.144 275.258L205.374 269.644L209.861 266.247L235.581 281.026L231.093 284.422L221.275 278.78L195.263 298.467L189.133 294.945Z" fill="#0E0E0E"/>
</svg>
