<svg width="186" height="186" viewBox="0 0 186 186" fill="none" xmlns="http://www.w3.org/2000/svg">
<g clip-path="url(#clip0_525_4246)">
<path d="M101.763 86.3489L89.8061 95.3048L60.3501 117.377V99.481L77.8649 86.3489L60.3501 73.2168V55.3209L89.8061 77.393L101.763 86.3489Z" fill="white"/>
<path d="M101.525 86.3331L119.024 73.2169V55.321L89.584 77.3772L101.525 86.3331Z" fill="#54FF8E"/>
<path d="M101.51 86.349L119.024 99.4811V117.377L89.5684 95.3208L89.5525 95.3049L101.51 86.349Z" fill="#54FF8E"/>
</g>
<path d="M175.309 81.8458L175.026 81.6888C152.733 69.0224 97.6593 63.7076 52.2072 69.8229L51.9894 69.8533V69.6354C52.0502 36.7282 60.4404 11.4359 73.882 3.63343C79.6984 0.25404 86.2494 0.436436 92.8309 4.14009C113.979 1.32815 134.047 7.19522 149.445 20.6925C157.63 27.9006 164.103 36.8442 168.393 46.8714C173.019 57.5112 175.35 69.1642 175.33 81.5469L175.309 81.8458ZM91.9037 66.9096C125.921 66.9096 158.782 72.1738 174.929 81.1973C174.929 68.992 172.589 57.4858 168.029 46.9981C163.755 37.0231 157.313 28.1253 149.171 20.9509C133.865 7.53975 113.852 1.69801 92.8157 4.54035H92.7549L92.6992 4.50488C86.1126 0.775896 79.8605 0.58843 74.0694 3.94756C60.7799 11.6791 52.4707 36.7484 52.3694 69.4176C65.4783 67.7166 78.6849 66.8788 91.9037 66.9096Z" fill="#54FF8E"/>
<path d="M134.28 10.9901C123.063 4.61638 95.2982 1.9463 72.3973 5.01663L72.3467 4.64171C95.3184 1.55111 123.184 4.25158 134.468 10.6608L134.28 10.9901Z" fill="#54FF8E"/>
<path d="M163.828 38.689C144.606 27.7857 97.0513 23.1752 57.8209 28.4495L57.7703 28.0745C97.0665 22.7901 144.733 27.4057 164.016 38.3596L163.828 38.689Z" fill="#54FF8E"/>
<path d="M143.633 71.4392H143.253C143.309 40.8524 134.422 16.6342 119.476 6.64806C111.506 1.32818 102.305 0.568191 92.8663 4.52517L92.6991 4.17558C102.265 0.193269 111.587 0.938053 119.668 6.33393C134.751 16.386 143.689 40.7257 143.633 71.4392Z" fill="#54FF8E"/>
<path d="M99.5288 67.1731H99.1488C99.2248 24.1074 96.9601 1.23699 94.6751 0.943132C94.4521 0.912733 93.8239 1.18632 92.9778 4.39852L92.6079 4.30226C93.3071 1.65245 93.9809 0.461809 94.7257 0.563141C98.1254 1.009 99.5896 34.3368 99.5288 67.1731Z" fill="#54FF8E"/>
<path d="M10.3271 104.032L10.0434 103.875C3.06676 99.9081 -0.170767 95.4799 0.680414 91.072C1.486 86.9377 5.82297 83.001 13.0225 79.5507C20.2474 51.1628 39.5004 26.4887 64.2758 13.4018C67.0776 9.02933 70.2999 5.71074 73.9023 3.63345C79.7339 0.243924 86.3052 0.436451 92.9069 4.1857L93.4136 4.46436L92.8512 4.54036C82.9595 5.90773 73.3861 9.00683 64.5697 13.6956C56.9293 25.678 52.4505 45.6149 52.4099 69.6355V69.8026H52.2478C35.7258 72.0218 22.3551 75.5278 13.3924 79.7686C11.4036 87.5871 10.3826 95.6203 10.3525 103.688L10.3271 104.032ZM12.906 80.0016C5.99016 83.3557 1.83052 87.1556 1.05533 91.148C0.244686 95.3229 3.32008 99.5484 9.9522 103.384C10.0023 95.4999 10.9939 87.6502 12.906 80.0016ZM63.8755 14.0452C39.5561 27.1068 20.6477 51.406 13.4633 79.343C22.4362 75.1377 35.6954 71.6722 51.9691 69.4683C52.0553 45.8277 56.4226 26.1289 63.8755 14.0452ZM82.6218 1.57136C79.6072 1.59032 76.6533 2.41982 74.0695 3.97291C70.6901 5.93873 67.6349 9.03946 64.9497 13.0927C73.4673 8.62891 82.6778 5.63636 92.1925 4.24143C89.2696 2.56218 85.9717 1.64407 82.6015 1.57136H82.6218Z" fill="#54FF8E"/>
<path d="M51.0723 22.1821C47.5257 20.1555 45.8639 17.8907 46.3047 15.626C47.2268 10.8888 57.2028 6.67845 72.3467 4.64169L72.3974 5.01662C57.4207 7.04324 47.5713 11.0965 46.6796 15.6969C46.2743 17.7894 47.8601 19.9174 51.2395 21.8477L51.0723 22.1821Z" fill="#54FF8E"/>
<path d="M21.4076 57.8456C15.3683 54.4155 12.5716 50.5852 13.3011 46.765C14.8616 38.7143 31.8954 31.5653 57.7602 28.0745L57.8108 28.4494C32.1234 31.9048 15.2112 38.9321 13.6609 46.8359C12.9566 50.4788 15.6875 54.1723 21.5748 57.5112L21.4076 57.8456Z" fill="#54FF8E"/>
<path d="M16.26 78.3702H15.88C15.9256 53.0375 25.4609 30.6179 42.0336 16.8673C56.0983 5.21424 74.1352 0.689808 92.8258 4.16546L92.7599 4.54039C74.1808 1.085 56.2554 5.5537 42.2767 17.1561C25.7902 30.8257 16.3056 53.1489 16.26 78.3702Z" fill="#54FF8E"/>
<path d="M1.17687 90.611H0.796875C0.837407 67.6493 10.0079 46.0709 26.6363 29.8579C44.1666 12.7431 67.6754 3.63343 92.8156 4.17555V4.55555C67.7159 3.97289 44.3338 13.0927 26.8795 30.1163C10.3473 46.2584 1.2174 67.7355 1.17687 90.611Z" fill="#54FF8E"/>
<path d="M93.3528 118.32C59.1333 118.32 26.0993 112.995 10.0434 103.875L9.94714 103.819V103.708C10.0383 54.9475 47.1914 10.2909 92.765 4.16541H92.8309L92.8866 4.19581C115.245 16.8977 133.358 66.8741 133.267 115.604V115.771H133.105C119.925 117.497 106.645 118.348 93.3528 118.32ZM10.3271 103.597C32.62 116.197 87.5364 121.497 132.887 115.427C132.938 66.9147 114.951 17.227 92.7549 4.55046C47.4244 10.681 10.4741 55.0843 10.3271 103.597Z" fill="#54FF8E"/>
<path d="M93.1449 29.4779C75.868 29.4779 59.199 26.7876 51.0925 22.1821L51.28 21.8477C62.4973 28.2214 90.257 30.9016 113.163 27.8212L113.214 28.1961C106.56 29.0671 99.8555 29.4953 93.1449 29.4779Z" fill="#54FF8E"/>
<path d="M93.3425 70.3448C63.7944 70.3448 35.2697 65.7443 21.3975 57.8709L21.5849 57.5365C40.8074 68.46 88.3621 73.0554 127.592 67.776L127.643 68.156C116.27 69.6398 104.812 70.3709 93.3425 70.3448Z" fill="#54FF8E"/>
<path d="M42.0336 113.79H41.6536C41.7194 65.0553 64.6355 15.8793 92.6991 4.17557L92.846 4.52516C64.9141 16.1782 42.0944 65.1921 42.0336 113.79Z" fill="#54FF8E"/>
<path d="M86.1125 118.057H85.7325C85.8187 69.3771 88.9042 18.3468 92.6079 4.30228L92.9777 4.39854C89.2791 18.4177 86.1987 69.4024 86.1125 118.057Z" fill="#54FF8E"/>
<path d="M132.887 115.812V115.594C132.978 66.9857 114.951 17.146 92.6992 4.51506L92.1925 4.23639L92.7498 4.16546C113.898 1.32313 134.017 7.2054 149.409 20.6672C157.594 27.8753 164.068 36.8189 168.358 46.8461C172.969 57.4453 175.304 69.0731 175.294 81.4101C182.205 85.3621 185.427 89.77 184.561 94.1576C182.757 103.47 163.033 111.754 133.09 115.782L132.887 115.812ZM93.373 4.47959C115.473 17.602 133.303 67.0769 133.267 115.386C162.922 111.374 182.413 103.227 184.201 94.1069C185.022 89.8713 181.85 85.585 175.026 81.7091L174.929 81.6533V81.5419C174.929 69.215 172.629 57.6024 168.029 47.0184C163.755 37.0434 157.313 28.1456 149.171 20.9712C134.002 7.65632 114.202 1.81458 93.373 4.47959Z" fill="#54FF8E"/>
<path d="M113.193 28.1961L113.143 27.8212C128.119 25.7946 137.969 21.7413 138.86 17.1409C139.266 15.0535 137.685 12.9255 134.3 10.9901L134.488 10.6608C138.035 12.6874 139.696 14.9471 139.256 17.2169C138.298 21.9541 128.337 26.1594 113.193 28.1961Z" fill="#54FF8E"/>
<path d="M127.658 68.1306L127.608 67.7507C153.305 64.2953 170.217 57.2528 171.747 49.3641C172.452 45.7213 169.721 42.0328 163.834 38.6889L164.021 38.3596C170.06 41.7896 172.857 45.62 172.127 49.4401C170.552 57.4909 153.498 64.6499 127.658 68.1306Z" fill="#54FF8E"/>
<path d="M169.376 106.859H168.996C169.088 58.2762 134.888 12.3783 92.7599 4.54033L92.8258 4.16541C135.126 12.0338 169.468 58.1039 169.376 106.859Z" fill="#54FF8E"/>
<path d="M184.46 94.6339H184.08C184.171 46.0709 143.218 5.65503 92.7904 4.54039V4.1604C143.431 5.28011 184.551 45.8632 184.46 94.6339Z" fill="#54FF8E"/>
<path d="M92.4255 181.069L92.3698 181.039C70.0162 168.337 51.8982 118.361 51.9894 69.6355V69.4683H52.1566C97.6745 63.3428 152.88 68.688 175.213 81.3747L175.309 81.4304V81.5419C175.218 130.297 138.065 174.954 92.4914 181.079L92.4255 181.069ZM52.3693 69.8027C52.3237 118.31 70.3049 167.998 92.5015 180.674C137.832 174.538 174.777 130.13 174.929 81.6331C152.621 69.0326 97.7201 63.7583 52.3693 69.8027Z" fill="#54FF8E"/>
<path d="M163.661 127.713C144.439 116.795 96.8842 112.199 57.6538 117.474L57.6031 117.099C96.9044 111.814 144.565 116.43 163.854 127.384L163.661 127.713Z" fill="#54FF8E"/>
<path d="M133.997 163.377C122.779 157.003 95.0197 154.323 72.1138 157.403L72.0631 157.028C95.0349 153.938 122.906 156.638 134.184 163.048L133.997 163.377Z" fill="#54FF8E"/>
<path d="M92.5369 181.049L92.39 180.699C120.347 169.046 143.162 120.033 143.253 71.4392H143.633C143.542 120.174 120.621 169.345 92.5369 181.049Z" fill="#54FF8E"/>
<path d="M92.6485 180.922L92.2837 180.826C95.9772 166.807 99.0577 115.822 99.1489 67.1731H99.5289C99.4377 115.853 96.3521 166.878 92.6485 180.922Z" fill="#54FF8E"/>
<path d="M82.1201 181.763C64.8279 181.763 48.6808 175.82 35.832 164.537C27.647 157.329 21.1734 148.385 16.8831 138.358C12.2726 127.764 9.94194 116.136 9.947 103.799C3.03622 99.8473 -0.1861 95.4394 0.680281 91.0518C2.48904 81.7395 22.2131 73.4506 52.1565 69.4277L52.3693 69.3973V69.6152C52.2781 118.219 70.3099 168.048 92.5572 180.689L93.0638 180.968L92.5065 181.039C89.0645 181.513 85.5945 181.755 82.1201 181.763ZM51.9893 69.8381C22.3347 73.8508 2.84369 81.9979 1.0552 91.1177C0.234419 95.3533 3.40608 99.6396 10.2307 103.516L10.327 103.571V103.683C10.327 116.01 12.6272 127.622 17.2327 138.201C21.5014 148.176 27.9401 157.075 36.0803 164.248C51.2546 177.543 71.0395 183.385 91.8884 180.73C69.7881 167.623 51.9538 118.158 51.9893 69.8381Z" fill="#54FF8E"/>
<path d="M21.2606 146.85C15.2264 143.425 12.4246 139.589 13.1542 135.774C14.7147 127.724 31.7535 120.575 57.6132 117.084L57.6638 117.459C31.9663 120.914 15.0541 127.962 13.5291 135.845C12.8198 139.488 15.5557 143.182 21.438 146.52L21.2606 146.85Z" fill="#54FF8E"/>
<path d="M50.7936 174.564C47.247 172.537 45.5852 170.278 46.0209 168.013C46.943 163.271 56.919 159.065 72.063 157.029L72.1136 157.403C57.1369 159.43 47.2875 163.509 46.3958 168.084C45.9905 170.176 47.5763 172.299 50.9557 174.235L50.7936 174.564Z" fill="#54FF8E"/>
<path d="M92.4306 181.059C50.1401 173.196 15.7889 127.121 15.8801 78.3702H16.2601C16.1689 126.948 50.3681 172.846 92.5016 180.684L92.4306 181.059Z" fill="#54FF8E"/>
<path d="M92.461 181.064C41.8259 179.944 0.705706 139.361 0.796904 90.5958H1.1769C1.0857 139.159 42.0387 179.57 92.4711 180.684L92.461 181.064Z" fill="#54FF8E"/>
<path d="M102.665 183.998C99.0553 183.928 95.5261 182.919 92.4255 181.069C89.0096 181.53 85.5668 181.762 82.1201 181.763C64.8279 181.763 48.6808 175.82 35.8321 164.537C27.647 157.329 21.1734 148.385 16.8831 138.358C12.2574 127.718 9.92676 116.065 9.94703 103.688V103.364L10.2257 103.521C32.5185 116.187 87.597 121.502 133.049 115.386L133.262 115.356V115.574C133.201 148.481 124.816 173.768 111.374 181.571C108.74 183.144 105.733 183.982 102.665 183.998ZM92.5015 180.674L92.5572 180.71C99.1437 184.439 105.396 184.626 111.187 181.267C124.482 173.545 132.791 148.476 132.887 115.812C87.6021 121.862 32.8073 116.587 10.327 104.032C10.327 116.238 12.6678 127.739 17.2327 138.226C21.5014 148.202 27.9401 157.1 36.0803 164.274C51.3864 177.685 71.4043 183.527 92.4407 180.684L92.5015 180.674Z" fill="#54FF8E"/>
<path d="M93.1754 159.344C63.6273 159.344 35.1026 154.743 21.2303 146.865L21.4178 146.536C40.6403 157.459 88.195 162.054 127.43 156.775L127.481 157.155C116.106 158.639 104.646 159.37 93.1754 159.344Z" fill="#54FF8E"/>
<path d="M92.8612 181.865C75.5843 181.865 58.9153 179.174 50.8088 174.564L50.9963 174.235C62.2136 180.608 89.9733 183.288 112.874 180.208L112.925 180.583C106.273 181.454 99.5701 181.882 92.8612 181.865Z" fill="#54FF8E"/>
<path d="M80.6154 183.572C75.2432 183.558 69.9999 181.926 65.5677 178.891C50.52 168.839 41.5674 144.504 41.6282 113.79H42.0336C41.9728 144.377 50.8646 168.595 65.8058 178.576C73.7755 183.896 82.9764 184.631 92.4154 180.699L92.5623 181.049C88.7868 182.674 84.7256 183.532 80.6154 183.572Z" fill="#54FF8E"/>
<path d="M90.6167 184.667H90.5356C87.1309 184.221 85.6717 150.893 85.7325 118.062H86.1125C86.0315 161.127 88.3013 183.993 90.5812 184.292C90.8042 184.292 91.4324 184.043 92.2836 180.831L92.6484 180.927C91.9745 183.471 91.3311 184.667 90.6167 184.667Z" fill="#54FF8E"/>
<path d="M102.665 183.998C99.3109 183.998 95.8453 183.01 92.3697 181.039L91.863 180.76L92.4204 180.684C102.313 179.315 111.888 176.216 120.707 171.529C128.342 159.547 132.821 139.61 132.867 115.594V115.437H133.034C149.551 113.218 162.927 109.712 171.884 105.471C173.873 97.6527 174.894 89.6194 174.924 81.552V81.2277L175.208 81.3848C182.195 85.3215 185.417 89.7497 184.576 94.1576C183.775 98.2919 179.438 102.229 172.239 105.674C165.029 134.047 145.761 158.736 120.981 171.823C118.179 176.195 114.956 179.514 111.379 181.591C108.742 183.158 105.733 183.989 102.665 183.998ZM93.0385 180.983C99.4274 184.449 105.528 184.53 111.172 181.267C114.551 179.301 117.611 176.2 120.291 172.172C111.772 176.62 102.564 179.599 93.0537 180.983H93.0385ZM133.252 115.761C133.186 139.402 128.824 159.096 121.371 171.179C145.69 158.118 164.593 133.824 171.778 105.887C162.82 110.092 149.561 113.557 133.267 115.761H133.252ZM175.304 81.8509C175.252 89.7333 174.259 97.5813 172.345 105.228C179.261 101.874 183.426 98.074 184.196 94.0816C185.012 89.9118 181.936 85.6812 175.309 81.8509H175.304Z" fill="#54FF8E"/>
<path d="M127.491 157.155L127.441 156.775C153.133 153.32 170.045 146.277 171.575 138.389C172.28 134.746 169.549 131.057 163.661 127.713L163.854 127.384C169.888 130.814 172.69 134.644 171.96 138.465C170.385 146.515 153.351 153.674 127.491 157.155Z" fill="#54FF8E"/>
<path d="M112.91 180.583L112.859 180.208C127.841 178.181 137.685 174.128 138.577 169.528C138.982 167.44 137.401 165.312 134.017 163.377L134.204 163.048C137.751 165.074 139.413 167.334 138.972 169.604C138.035 174.341 128.053 178.546 112.91 180.583Z" fill="#54FF8E"/>
<path d="M104.646 182.204C100.548 182.198 96.4586 181.815 92.4305 181.059L92.5015 180.684C111.081 184.145 129.006 179.671 142.985 168.068C159.471 154.389 168.951 132.096 168.996 106.859H169.376C169.331 132.192 159.801 154.612 143.223 168.357C132.399 177.378 118.735 182.282 104.646 182.204Z" fill="#54FF8E"/>
<path d="M94.6244 181.084C93.9049 181.084 93.1855 181.084 92.4609 181.084V180.704C117.51 181.257 140.912 172.172 158.372 155.128C174.899 138.986 184.029 117.509 184.069 94.6541H184.449C184.409 117.616 175.238 139.189 158.635 155.402C141.622 172.005 118.954 181.084 94.6244 181.084Z" fill="#54FF8E"/>
<path d="M92.7295 184.692C90.6522 184.692 88.8789 184.611 87.9517 184.57C86.6243 184.509 83.5742 184.276 81.5172 184.013C79.4602 183.749 79.4906 183.749 76.6026 183.278C76.0605 183.192 75.4221 183.065 74.799 182.939L73.9832 182.777C70.2593 182.003 66.586 181.003 62.9837 179.782C60.8862 179.038 58.4238 178.09 56.6962 177.376C55.2421 176.768 53.3421 175.896 51.9792 175.207C49.8715 174.138 47.2166 172.674 45.3927 171.6C43.5687 170.526 41.5117 169.193 40.1386 168.2C36.2196 165.469 32.5153 162.442 29.0581 159.146C27.4165 157.576 25.5622 155.671 24.3259 154.287C22.8516 152.641 20.7794 150.178 19.2847 148.208C16.3025 144.281 13.6376 140.124 11.315 135.774C9.17075 131.537 7.26941 127.181 5.62022 122.728C4.72537 120.238 3.96596 117.701 3.34534 115.128C2.97548 113.674 2.62589 111.896 2.28643 110.183C2.13443 109.408 1.9875 108.663 1.84563 107.979C1.3436 105.332 1.01359 102.654 0.857656 99.9639L0.832321 99.5585C0.591774 96.6214 0.508907 93.6735 0.584065 90.7275C0.619531 90.1348 0.649932 89.4862 0.680331 88.8175C0.766462 86.9834 0.867789 84.901 1.04005 83.2442C1.28516 80.5463 1.67757 77.8638 2.2155 75.2087C2.33709 74.702 2.45869 74.1143 2.59042 73.5266C2.98054 71.733 3.4264 69.7064 3.87225 68.1206C4.56131 65.6785 5.55942 62.593 6.36501 60.4397C7.17059 58.2864 8.25482 55.6923 9.1212 53.8532C9.76466 52.4852 11.4265 49.045 12.9262 46.5522C15.2315 42.7118 18.5906 37.9898 20.7642 35.112C21.9295 33.592 23.5812 31.7782 25.0403 30.1974C25.547 29.6908 25.9878 29.1841 26.4083 28.6775C27.9301 27.0419 29.5403 25.4909 31.2316 24.0314C33.4508 22.1011 36.5059 19.7046 38.6086 18.0732C40.5748 16.5858 42.627 15.2154 44.7543 13.9692C47.47 12.3733 51.2293 10.3619 54.1021 8.96856C55.7994 8.14271 58.3934 7.0686 61.0433 6.09582C63.0952 5.33584 65.7906 4.46946 67.7412 3.93747C70.9239 3.03871 74.1526 2.31146 77.4133 1.75885C79.141 1.44472 82.5862 0.983667 85.1347 0.786072C86.9435 0.649275 88.3621 0.563144 89.3551 0.537812C92.1215 0.46688 92.3951 0.461813 95.3438 0.537812C95.7339 0.537812 99.2755 0.623943 103.759 1.17113C106.394 1.49032 108.588 1.88551 108.679 1.90578C109.505 2.05778 110.67 2.27564 111.547 2.45804C112.19 2.59483 112.98 2.77723 113.71 2.96469L114.592 3.16735C115.539 3.38522 116.851 3.73987 118.488 4.21613C119.39 4.48466 120.636 4.87985 122.288 5.42704C124.431 6.13129 126.903 7.07873 128.585 7.83871C129.832 8.4011 131.21 9.05469 132.573 9.72854C134.42 10.5696 136.231 11.4934 138.004 12.4999L138.116 12.5658C140.879 14.1413 143.559 15.8577 146.146 17.7084C147.94 19.0662 150.645 21.1182 152.555 22.7293C153.27 23.3322 155.737 25.4399 157.48 27.2892L157.809 27.6337C159.415 29.3209 161.417 31.4185 162.876 33.1056C164.137 34.5749 165.855 36.7586 167.152 38.537C168.449 40.3153 170.192 42.9651 171.494 45.0576C172.872 47.3173 174.154 49.6175 174.914 51.2287C175.836 53.1793 177.235 56.123 178.141 58.3523C178.825 60.0394 179.727 62.5676 180.553 65.1161C181.883 69.2955 182.899 73.5683 183.593 77.899C184.326 82.8211 184.717 87.7881 184.763 92.7643C184.763 95.1962 184.601 98.4844 184.389 100.942C184.242 102.639 183.933 104.762 183.659 106.637C183.578 107.209 183.497 107.761 183.426 108.268C182.992 110.912 182.422 113.531 181.718 116.116C181.212 118.102 180.371 120.808 179.596 123.012C178.82 125.216 177.685 128.078 176.627 130.429C176.029 131.767 175.218 133.332 174.438 134.852C174.093 135.521 173.759 136.164 173.465 136.752C172.172 139.145 170.749 141.465 169.204 143.703C168.404 144.914 167.36 146.313 166.352 147.665C165.921 148.243 165.511 148.795 165.141 149.307C163.403 151.556 161.542 153.708 159.567 155.752C158.017 157.408 156.137 159.258 154.785 160.464C152.809 162.222 149.966 164.568 147.545 166.447C145.883 167.739 143.608 169.239 142.402 170.019C140.983 170.931 139.078 172.046 137.543 172.932L137.077 173.201C134.012 174.951 130.827 176.483 127.547 177.786C124.745 178.881 122.617 179.656 121.046 180.167C119.076 180.806 116.37 181.571 114.303 182.072C112.155 182.579 109.632 183.121 107.873 183.41L107.635 183.445C106.759 183.592 105.669 183.765 104.828 183.871C103.308 184.064 101.353 184.266 100.142 184.378C100.041 184.378 97.5224 184.626 93.8998 184.682L92.7295 184.692ZM92.4711 0.933002C91.6098 0.933002 90.8447 0.933003 89.345 0.988735C88.357 1.01407 86.9435 1.1002 85.1448 1.23699C82.6116 1.43459 79.1765 1.89058 77.4589 2.20471C74.2144 2.7591 71.0012 3.48292 67.8324 4.37319C65.8869 4.87985 63.2067 5.76649 61.1598 6.52141C58.5252 7.49419 55.9412 8.54803 54.2591 9.37895C51.3915 10.7722 47.6473 12.7735 44.9367 14.3644C42.8229 15.5931 40.7843 16.9466 38.8315 18.4177C36.7289 20.0491 33.6839 22.4405 31.4698 24.3658C29.7903 25.8153 28.1919 27.3561 26.6819 28.9814L25.3089 30.5014C23.8547 32.072 22.2132 33.8555 21.058 35.3856C18.8895 38.2583 15.5405 42.9854 13.2403 46.7904C11.7507 49.273 10.094 52.703 9.4556 54.0609C8.59428 55.8747 7.52018 58.4435 6.70953 60.6018C5.89888 62.7602 4.9109 65.8204 4.22692 68.2523C3.78613 69.828 3.34027 71.8546 2.95014 73.6381C2.82348 74.2258 2.69681 74.7983 2.57522 75.3202C2.04177 77.9622 1.65108 80.6311 1.40484 83.3152C1.23765 84.9466 1.13632 87.0188 1.05019 88.8478C1.01979 89.5217 0.989387 90.1702 0.953921 90.763C0.879718 93.6937 0.960895 96.6263 1.19711 99.5484L1.22245 99.9537C1.38098 102.627 1.71099 105.287 2.21042 107.918C2.35229 108.597 2.49922 109.347 2.65122 110.122C2.98561 111.835 3.33521 113.603 3.70506 115.047C4.32104 117.604 5.07538 120.126 5.96474 122.601C7.42898 126.432 9.60253 131.797 11.6393 135.602C13.9496 139.938 16.6064 144.081 19.5836 147.99C21.0428 149.94 23.1302 152.393 24.5995 154.034C25.8256 155.407 27.6749 157.307 29.3064 158.873C32.7539 162.153 36.4445 165.167 40.3464 167.891C41.7143 168.874 43.7663 170.207 45.5751 171.271C47.3838 172.335 50.059 173.804 52.1616 174.868C53.5194 175.557 55.4042 176.423 56.8532 177.026C58.5657 177.735 61.028 178.678 63.1205 179.423C66.7044 180.642 70.3591 181.642 74.0643 182.417L74.8851 182.579C75.5032 182.701 76.1416 182.827 76.6736 182.913C79.5362 183.385 79.5362 183.385 81.5729 183.648C83.6097 183.912 86.6395 184.155 87.9669 184.2C89.0714 184.246 91.3514 184.347 93.915 184.312C97.5224 184.256 100.025 184.023 100.127 184.013C101.332 183.896 103.283 183.699 104.803 183.506C105.634 183.4 106.723 183.223 107.595 183.081L107.833 183.045C109.581 182.756 112.094 182.235 114.237 181.713C116.289 181.206 118.989 180.451 120.95 179.813C122.511 179.306 124.634 178.531 127.43 177.442C130.692 176.143 133.859 174.619 136.91 172.882L137.371 172.613C138.891 171.727 140.806 170.617 142.22 169.71C143.182 169.082 145.619 167.491 147.332 166.163C149.748 164.289 152.581 161.943 154.552 160.195C155.899 158.994 157.769 157.155 159.309 155.508C161.269 153.475 163.112 151.334 164.832 149.094C165.201 148.588 165.617 148.03 166.048 147.458C167.061 146.105 168.074 144.707 168.885 143.506C170.406 141.28 171.808 138.975 173.085 136.6C173.379 136.012 173.713 135.364 174.058 134.695C174.838 133.175 175.644 131.625 176.236 130.297C177.295 127.926 178.456 125.028 179.2 122.91C179.945 120.792 180.801 117.986 181.308 116.04C182.009 113.47 182.577 110.866 183.01 108.238C183.081 107.731 183.162 107.174 183.243 106.606C183.517 104.737 183.821 102.614 183.968 100.927C184.181 98.4794 184.328 95.2064 184.343 92.7795C184.294 87.8131 183.9 82.8562 183.162 77.9446C182.482 73.635 181.479 69.3824 180.163 65.2225C179.337 62.6892 178.44 60.1559 177.756 58.484C176.855 56.2648 175.461 53.3262 174.539 51.3908C173.784 49.7999 172.512 47.5048 171.134 45.2552C169.863 43.1678 168.125 40.5585 166.818 38.7599C165.511 36.9613 163.813 34.813 162.557 33.3539C161.113 31.6718 159.117 29.5793 157.516 27.8972L157.186 27.5527C155.453 25.7338 153.001 23.6413 152.292 23.0384C150.387 21.4373 147.686 19.3854 145.898 18.0326C143.319 16.1918 140.649 14.4822 137.898 12.9103L137.796 12.8546C136.277 12.0541 134.356 11.056 132.396 10.0933C120.322 4.58599 106.779 2.66576 92.8764 4.52012H92.8359L92.7852 4.1452C103.662 2.61181 114.744 3.54515 125.211 6.87607C124.198 6.49101 123.139 6.11609 122.171 5.79183C120.52 5.24464 119.278 4.84945 118.381 4.58599C116.75 4.10973 115.448 3.76014 114.506 3.54228L113.624 3.33962C112.899 3.17242 112.104 2.98496 111.466 2.83296C110.594 2.6455 109.439 2.42764 108.613 2.28071C108.517 2.28071 106.338 1.86525 103.714 1.54605C99.2501 1.00393 95.7238 0.92287 95.3337 0.917803C93.9759 0.933003 93.2057 0.933002 92.4711 0.933002Z" fill="#54FF8E"/>
<path d="M175.309 81.8458L175.026 81.6888C152.733 69.0224 97.6593 63.7076 52.2072 69.8229L51.9894 69.8533V69.6354C52.0502 36.7282 60.4404 11.4359 73.882 3.63343C79.6984 0.25404 86.2494 0.436436 92.8309 4.14009C113.979 1.32815 134.047 7.19522 149.445 20.6925C157.63 27.9006 164.103 36.8442 168.393 46.8714C173.019 57.5112 175.35 69.1642 175.33 81.5469L175.309 81.8458ZM91.9037 66.9096C125.921 66.9096 158.782 72.1738 174.929 81.1973C174.929 68.992 172.589 57.4858 168.029 46.9981C163.755 37.0231 157.313 28.1253 149.171 20.9509C133.865 7.53975 113.852 1.69801 92.8157 4.54035H92.7549L92.6992 4.50488C86.1126 0.775896 79.8605 0.58843 74.0694 3.94756C60.7799 11.6791 52.4707 36.7484 52.3694 69.4176C65.4783 67.7166 78.6849 66.8788 91.9037 66.9096Z" fill="#54FF8E"/>
<path d="M134.28 10.9901C123.063 4.61638 95.2983 1.9463 72.3975 5.01663L72.3468 4.64171C95.3186 1.55111 123.185 4.25158 134.468 10.6608L134.28 10.9901Z" fill="#54FF8E"/>
<path d="M163.828 38.689C144.606 27.7858 97.0513 23.1752 57.8209 28.4495L57.7703 28.0746C97.0665 22.7901 144.733 27.4058 164.016 38.3597L163.828 38.689Z" fill="#54FF8E"/>
<path d="M143.633 71.4392H143.253C143.309 40.8524 134.422 16.6342 119.476 6.64806C111.506 1.32818 102.305 0.568191 92.8663 4.52517L92.6991 4.17558C102.265 0.193269 111.587 0.938053 119.668 6.33393C134.751 16.386 143.689 40.7257 143.633 71.4392Z" fill="#54FF8E"/>
<path d="M99.5288 67.1731H99.1488C99.2248 24.1074 96.9601 1.23699 94.6751 0.943132C94.4521 0.912733 93.8239 1.18632 92.9778 4.39852L92.6079 4.30226C93.3071 1.65245 93.9809 0.461809 94.7257 0.563141C98.1254 1.009 99.5896 34.3368 99.5288 67.1731Z" fill="#54FF8E"/>
<path d="M10.3271 104.032L10.0434 103.875C3.06676 99.9081 -0.170767 95.4799 0.680414 91.072C1.486 86.9377 5.82297 83.001 13.0225 79.5507C20.2474 51.1628 39.5004 26.4887 64.2758 13.4018C67.0776 9.02933 70.2999 5.71074 73.9023 3.63345C79.7339 0.243924 86.3052 0.436451 92.9069 4.1857L93.4136 4.46436L92.8512 4.54036C82.9595 5.90773 73.3861 9.00683 64.5697 13.6956C56.9293 25.678 52.4505 45.6149 52.4099 69.6355V69.8026H52.2478C35.7258 72.0218 22.3551 75.5278 13.3924 79.7686C11.4036 87.5871 10.3826 95.6203 10.3525 103.688L10.3271 104.032ZM12.906 80.0016C5.99016 83.3557 1.83052 87.1556 1.05533 91.148C0.244686 95.3229 3.32008 99.5484 9.9522 103.384C10.0023 95.4999 10.9939 87.6502 12.906 80.0016ZM63.8755 14.0452C39.5561 27.1068 20.6477 51.406 13.4633 79.343C22.4362 75.1377 35.6954 71.6722 51.9691 69.4683C52.0553 45.8277 56.4226 26.1289 63.8755 14.0452ZM82.6218 1.57136C79.6072 1.59032 76.6533 2.41982 74.0695 3.97291C70.6901 5.93873 67.6349 9.03946 64.9497 13.0927C73.4673 8.62891 82.6778 5.63636 92.1925 4.24143C89.2696 2.56218 85.9717 1.64407 82.6015 1.57136H82.6218Z" fill="#54FF8E"/>
<path d="M51.0723 22.1821C47.5257 20.1555 45.8639 17.8907 46.3047 15.626C47.2268 10.8888 57.2028 6.67845 72.3467 4.64169L72.3974 5.01662C57.4207 7.04324 47.5713 11.0965 46.6796 15.6969C46.2743 17.7894 47.8601 19.9174 51.2395 21.8477L51.0723 22.1821Z" fill="#54FF8E"/>
<path d="M21.4076 57.8456C15.3683 54.4155 12.5716 50.5852 13.3011 46.765C14.8616 38.7143 31.8954 31.5654 57.7602 28.0745L57.8108 28.4494C32.1234 31.9048 15.2112 38.9321 13.6609 46.836C12.9566 50.4788 15.6875 54.1723 21.5748 57.5112L21.4076 57.8456Z" fill="#54FF8E"/>
<path d="M16.26 78.3702H15.88C15.9256 53.0375 25.4609 30.6179 42.0336 16.8673C56.0983 5.21424 74.1352 0.689808 92.8258 4.16546L92.7599 4.54039C74.1808 1.085 56.2554 5.5537 42.2767 17.1561C25.7902 30.8257 16.3056 53.1489 16.26 78.3702Z" fill="#54FF8E"/>
<path d="M1.17687 90.611H0.796875C0.837407 67.6494 10.0079 46.0709 26.6363 29.8579C44.1666 12.7431 67.6754 3.63346 92.8156 4.17558V4.55558C67.7159 3.97292 44.3338 13.0927 26.8795 30.1163C10.3473 46.2584 1.2174 67.7355 1.17687 90.611Z" fill="#54FF8E"/>
<path d="M93.3528 118.32C59.1333 118.32 26.0993 112.995 10.0434 103.875L9.94714 103.819V103.708C10.0383 54.9475 47.1914 10.2909 92.765 4.16541H92.8309L92.8866 4.19581C115.245 16.8977 133.358 66.8741 133.267 115.604V115.771H133.105C119.925 117.497 106.645 118.348 93.3528 118.32ZM10.3271 103.597C32.62 116.197 87.5364 121.497 132.887 115.427C132.938 66.9147 114.951 17.227 92.7549 4.55046C47.4244 10.681 10.4741 55.0843 10.3271 103.597Z" fill="#54FF8E"/>
<path d="M93.1449 29.4779C75.868 29.4779 59.199 26.7876 51.0925 22.1821L51.28 21.8477C62.4973 28.2214 90.257 30.9016 113.163 27.8212L113.214 28.1961C106.56 29.0671 99.8555 29.4953 93.1449 29.4779Z" fill="#54FF8E"/>
<path d="M93.3425 70.3448C63.7944 70.3448 35.2697 65.7444 21.3975 57.8709L21.5849 57.5365C40.8074 68.46 88.3621 73.0554 127.592 67.776L127.643 68.156C116.27 69.6398 104.812 70.371 93.3425 70.3448Z" fill="#54FF8E"/>
<path d="M42.0337 113.79H41.6537C41.7196 65.0553 64.6356 15.8793 92.6992 4.17557L92.8462 4.52516C64.9142 16.1782 42.0945 65.1921 42.0337 113.79Z" fill="#54FF8E"/>
<path d="M86.1127 118.057H85.7327C85.8188 69.3771 88.9043 18.3468 92.608 4.30228L92.9778 4.39854C89.2792 18.4177 86.1988 69.4024 86.1127 118.057Z" fill="#54FF8E"/>
<path d="M132.887 115.812V115.594C132.978 66.9857 114.951 17.146 92.6992 4.51506L92.1925 4.23639L92.7498 4.16546C113.898 1.32313 134.017 7.2054 149.409 20.6672C157.594 27.8753 164.068 36.8189 168.358 46.8461C172.969 57.4453 175.304 69.0731 175.294 81.4101C182.205 85.3621 185.427 89.77 184.561 94.1576C182.757 103.47 163.033 111.754 133.09 115.782L132.887 115.812ZM93.373 4.47959C115.473 17.602 133.303 67.0769 133.267 115.386C162.922 111.374 182.413 103.227 184.201 94.1069C185.022 89.8713 181.85 85.585 175.026 81.7091L174.929 81.6533V81.5419C174.929 69.215 172.629 57.6024 168.029 47.0184C163.755 37.0434 157.313 28.1456 149.171 20.9712C134.002 7.65632 114.202 1.81458 93.373 4.47959Z" fill="#54FF8E"/>
<path d="M113.193 28.1961L113.143 27.8212C128.119 25.7946 137.969 21.7413 138.86 17.1409C139.266 15.0535 137.685 12.9255 134.3 10.9901L134.488 10.6608C138.035 12.6874 139.696 14.9471 139.256 17.2169C138.298 21.9541 128.337 26.1594 113.193 28.1961Z" fill="#54FF8E"/>
<path d="M127.658 68.1307L127.608 67.7507C153.305 64.2953 170.218 57.2528 171.748 49.3641C172.452 45.7213 169.721 42.0328 163.834 38.6889L164.021 38.3596C170.06 41.7896 172.857 45.62 172.128 49.4401C170.552 57.4909 153.498 64.6499 127.658 68.1307Z" fill="#54FF8E"/>
<path d="M169.376 106.859H168.996C169.088 58.2762 134.888 12.3783 92.7599 4.54033L92.8258 4.16541C135.126 12.0338 169.468 58.1039 169.376 106.859Z" fill="#54FF8E"/>
<path d="M184.46 94.6339H184.08C184.171 46.071 143.218 5.65506 92.7904 4.54042V4.16043C143.431 5.28014 184.551 45.8632 184.46 94.6339Z" fill="#54FF8E"/>
<path d="M92.4255 181.069L92.3698 181.039C70.0162 168.337 51.8982 118.361 51.9894 69.6355V69.4683H52.1566C97.6745 63.3428 152.88 68.688 175.213 81.3747L175.309 81.4304V81.5419C175.218 130.297 138.065 174.954 92.4914 181.079L92.4255 181.069ZM52.3693 69.8027C52.3237 118.31 70.3049 167.998 92.5015 180.674C137.832 174.538 174.777 130.13 174.929 81.6331C152.621 69.0326 97.7201 63.7583 52.3693 69.8027Z" fill="#54FF8E"/>
<path d="M163.661 127.713C144.439 116.795 96.8842 112.199 57.6538 117.474L57.6031 117.099C96.9044 111.814 144.565 116.43 163.854 127.384L163.661 127.713Z" fill="#54FF8E"/>
<path d="M133.997 163.377C122.779 157.003 95.0197 154.323 72.1138 157.403L72.0631 157.028C95.0349 153.938 122.906 156.638 134.184 163.048L133.997 163.377Z" fill="#54FF8E"/>
<path d="M92.5369 181.049L92.39 180.699C120.347 169.046 143.162 120.033 143.253 71.4392H143.633C143.542 120.174 120.621 169.345 92.5369 181.049Z" fill="#54FF8E"/>
<path d="M92.6485 180.922L92.2837 180.826C95.9772 166.807 99.0577 115.822 99.1489 67.1731H99.5289C99.4377 115.853 96.3521 166.878 92.6485 180.922Z" fill="#54FF8E"/>
<path d="M82.1201 181.763C64.8279 181.763 48.6808 175.82 35.832 164.537C27.647 157.329 21.1734 148.385 16.8831 138.358C12.2726 127.764 9.94194 116.136 9.947 103.799C3.03622 99.8473 -0.1861 95.4394 0.680281 91.0518C2.48904 81.7395 22.2131 73.4506 52.1565 69.4277L52.3693 69.3973V69.6152C52.2781 118.219 70.3099 168.048 92.5572 180.689L93.0638 180.968L92.5065 181.039C89.0645 181.513 85.5945 181.755 82.1201 181.763ZM51.9893 69.8381C22.3347 73.8508 2.84369 81.9979 1.0552 91.1177C0.234419 95.3533 3.40608 99.6396 10.2307 103.516L10.327 103.571V103.683C10.327 116.01 12.6272 127.622 17.2327 138.201C21.5014 148.176 27.9401 157.075 36.0803 164.248C51.2546 177.543 71.0395 183.385 91.8884 180.73C69.7881 167.623 51.9538 118.158 51.9893 69.8381Z" fill="#54FF8E"/>
<path d="M21.2606 146.85C15.2264 143.425 12.4246 139.589 13.1542 135.774C14.7147 127.724 31.7535 120.575 57.6132 117.084L57.6638 117.459C31.9663 120.914 15.0541 127.962 13.5291 135.845C12.8198 139.488 15.5557 143.182 21.438 146.52L21.2606 146.85Z" fill="#54FF8E"/>
<path d="M50.7936 174.564C47.247 172.537 45.5852 170.278 46.0209 168.013C46.943 163.271 56.919 159.065 72.063 157.029L72.1136 157.403C57.1369 159.43 47.2875 163.509 46.3958 168.084C45.9905 170.176 47.5763 172.299 50.9557 174.235L50.7936 174.564Z" fill="#54FF8E"/>
<path d="M92.4306 181.059C50.1401 173.196 15.7889 127.121 15.8801 78.3702H16.2601C16.1689 126.948 50.3681 172.846 92.5016 180.684L92.4306 181.059Z" fill="#54FF8E"/>
<path d="M92.461 181.064C41.8259 179.944 0.705706 139.361 0.796904 90.5958H1.1769C1.0857 139.159 42.0387 179.57 92.4711 180.684L92.461 181.064Z" fill="#54FF8E"/>
<path d="M102.665 183.998C99.0554 183.928 95.5263 182.919 92.4256 181.069C89.0098 181.53 85.567 181.762 82.1202 181.763C64.8281 181.763 48.681 175.82 35.8322 164.537C27.6471 157.329 21.1735 148.385 16.8833 138.358C12.2575 127.718 9.92689 116.065 9.94715 103.688V103.364L10.2258 103.521C32.5187 116.187 87.5972 121.502 133.049 115.386L133.262 115.356V115.574C133.201 148.481 124.816 173.768 111.374 181.571C108.74 183.144 105.733 183.982 102.665 183.998ZM92.5016 180.674L92.5573 180.71C99.1438 184.439 105.396 184.626 111.187 181.267C124.482 173.545 132.791 148.476 132.887 115.812C87.6022 121.862 32.8074 116.587 10.3271 104.032C10.3271 116.238 12.6679 127.739 17.2329 138.226C21.5016 148.202 27.9402 157.1 36.0804 164.274C51.3865 177.685 71.4044 183.527 92.4408 180.684L92.5016 180.674Z" fill="#54FF8E"/>
<path d="M93.1754 159.344C63.6273 159.344 35.1026 154.743 21.2303 146.865L21.4178 146.536C40.6403 157.459 88.195 162.054 127.43 156.775L127.481 157.155C116.106 158.639 104.646 159.37 93.1754 159.344Z" fill="#54FF8E"/>
<path d="M92.8612 181.865C75.5843 181.865 58.9153 179.174 50.8088 174.564L50.9963 174.235C62.2136 180.608 89.9733 183.288 112.874 180.208L112.925 180.583C106.273 181.454 99.5701 181.882 92.8612 181.865Z" fill="#54FF8E"/>
<path d="M80.6154 183.572C75.2432 183.558 69.9999 181.926 65.5677 178.891C50.52 168.839 41.5674 144.504 41.6282 113.79H42.0336C41.9728 144.377 50.8646 168.595 65.8058 178.576C73.7755 183.896 82.9764 184.631 92.4154 180.699L92.5623 181.049C88.7868 182.674 84.7256 183.532 80.6154 183.572Z" fill="#54FF8E"/>
<path d="M90.6168 184.667H90.5358C87.131 184.221 85.6719 150.893 85.7327 118.062H86.1126C86.0316 161.127 88.3014 183.993 90.5814 184.292C90.8043 184.292 91.4325 184.043 92.2837 180.831L92.6485 180.927C91.9746 183.471 91.3312 184.667 90.6168 184.667Z" fill="#54FF8E"/>
<path d="M102.665 183.998C99.311 183.998 95.8455 183.01 92.3698 181.039L91.8632 180.76L92.4205 180.684C102.313 179.315 111.888 176.216 120.707 171.529C128.342 159.547 132.821 139.61 132.867 115.594V115.437H133.034C149.551 113.218 162.927 109.712 171.884 105.471C173.873 97.6527 174.894 89.6194 174.924 81.552V81.2277L175.208 81.3848C182.195 85.3215 185.417 89.7497 184.576 94.1576C183.776 98.2919 179.439 102.229 172.239 105.674C165.029 134.047 145.761 158.736 120.981 171.823C118.179 176.195 114.957 179.514 111.38 181.591C108.742 183.158 105.733 183.989 102.665 183.998ZM93.0386 180.983C99.4275 184.449 105.528 184.53 111.172 181.267C114.551 179.301 117.611 176.2 120.292 172.172C111.773 176.62 102.564 179.599 93.0538 180.983H93.0386ZM133.252 115.761C133.186 139.402 128.824 159.096 121.371 171.179C145.69 158.118 164.594 133.824 171.778 105.887C162.82 110.092 149.561 113.557 133.267 115.761H133.252ZM175.304 81.8509C175.252 89.7333 174.259 97.5813 172.345 105.228C179.261 101.874 183.426 98.074 184.196 94.0816C185.012 89.9118 181.936 85.6812 175.309 81.8509H175.304Z" fill="#54FF8E"/>
<path d="M127.491 157.155L127.441 156.775C153.133 153.32 170.045 146.277 171.575 138.389C172.28 134.746 169.549 131.057 163.661 127.713L163.854 127.384C169.888 130.814 172.69 134.644 171.96 138.465C170.385 146.515 153.351 153.674 127.491 157.155Z" fill="#54FF8E"/>
<path d="M112.91 180.583L112.859 180.208C127.841 178.181 137.685 174.128 138.577 169.528C138.982 167.44 137.401 165.312 134.017 163.377L134.204 163.048C137.751 165.074 139.413 167.334 138.972 169.604C138.035 174.341 128.053 178.546 112.91 180.583Z" fill="#54FF8E"/>
<path d="M104.646 182.204C100.548 182.198 96.4586 181.815 92.4305 181.059L92.5015 180.684C111.081 184.145 129.006 179.671 142.985 168.068C159.471 154.389 168.951 132.096 168.996 106.859H169.376C169.331 132.192 159.801 154.612 143.223 168.357C132.399 177.378 118.735 182.282 104.646 182.204Z" fill="#54FF8E"/>
<path d="M94.6244 181.084C93.9049 181.084 93.1855 181.084 92.4609 181.084V180.704C117.51 181.257 140.912 172.172 158.372 155.128C174.899 138.986 184.029 117.509 184.069 94.6541H184.449C184.409 117.616 175.238 139.189 158.635 155.402C141.622 172.005 118.954 181.084 94.6244 181.084Z" fill="#54FF8E"/>
<path d="M92.6082 184.692H91.9192C90.6627 184.667 89.0616 184.621 87.9419 184.575C85.5252 184.474 82.8399 184.17 81.553 184.023C79.6379 183.805 76.8715 183.334 76.6891 183.299C74.4548 182.883 72.8588 182.584 70.9386 182.098C69.8037 181.814 68.5117 181.485 67.544 181.206C66.2723 180.841 64.8283 180.416 63.7542 180.041L63.1766 179.833C61.8948 179.387 60.3039 178.82 59.1234 178.354C57.0461 177.538 55.5109 176.884 54.4216 176.357C52.7598 175.547 49.6185 173.996 47.293 172.704C45.2664 171.569 43.2397 170.354 41.9832 169.447C41.5222 169.117 41.0054 168.763 40.4633 168.398C39.1916 167.516 37.8742 166.609 36.8305 165.789C35.8932 165.054 32.6405 162.48 30.1934 160.215C28.9065 159.025 26.8748 157.064 25.3903 155.448C24.0679 154.009 21.6005 151.268 19.9184 149.044C16.8359 145.089 14.0823 140.888 11.6852 136.484C9.49371 132.276 7.55485 127.941 5.87896 123.503C4.95865 120.981 4.1739 118.412 3.52808 115.807C3.14302 114.368 2.78329 112.605 2.4337 110.903C2.27664 110.122 2.11957 109.383 1.97264 108.683C1.4486 106.027 1.09491 103.339 0.913736 100.638C0.711074 97.8866 0.57428 94.6795 0.569214 92.4654C0.569214 90.8238 0.680677 88.7617 0.782008 86.9428C0.822541 86.2436 0.858002 85.5749 0.888402 84.9618C1.06579 81.9321 1.46544 78.9195 2.08411 75.9484L2.4033 74.469C2.79343 72.6045 3.23929 70.4917 3.69021 68.84C4.3286 66.479 5.28618 63.4391 6.07149 61.2757C6.82641 59.1933 7.90558 56.5384 8.76689 54.6891C9.36981 53.3769 10.9252 50.0583 12.354 47.6213C14.5326 43.8923 17.7651 39.2057 20.0602 36.0645C21.6691 33.9718 23.3821 31.9612 25.1927 30.0404C27.1028 27.9588 29.1203 25.9785 31.2371 24.1074C32.5645 22.9674 37.2055 19.0409 41.1523 16.3657C43.0776 15.0586 45.9909 13.2093 48.3924 11.9376L48.8079 11.7146C50.1353 11.0104 51.7921 10.1339 53.0891 9.52081C54.3862 8.90775 56.9042 7.74752 58.8194 7.01793L59.5338 6.73927C60.3951 6.40994 61.3679 6.02995 62.1582 5.77156C63.8657 5.20917 66.7181 4.25159 68.8461 3.70947C72.6479 2.69324 76.5093 1.91486 80.408 1.37886L80.4333 1.56632L80.408 1.37886C82.7487 1.06473 85.3124 0.816467 87.2681 0.715136C88.9958 0.623938 89.6392 0.588473 91.372 0.56314C93.1048 0.537807 94.8679 0.56314 95.3492 0.598606C96.5652 0.639138 97.7153 0.679671 99.4025 0.806334C101.09 0.932998 101.971 1.0242 103.734 1.22686C105.254 1.40926 105.462 1.43965 108.563 1.94631C109.161 2.04257 109.875 2.18444 110.508 2.3111L111.208 2.4479C112.859 2.76709 115.975 3.53214 117.738 4.04893C120.14 4.74811 123.21 5.76649 125.389 6.58221C127.213 7.26619 129.366 8.16804 130.876 8.88242C132.903 9.84507 135.775 11.3093 138.01 12.5354C138.881 13.0421 139.742 13.5487 140.583 14.0554C141.541 14.6279 142.473 15.2004 143.259 15.7375C145.913 17.5665 149.004 19.8464 151.132 21.5488C154.304 24.0821 158.185 28.034 160.829 30.7801C162.859 32.9114 164.734 35.1835 166.443 37.5794L167.315 38.8308C168.571 40.6193 169.99 42.651 171.033 44.3128C172.294 46.3 173.454 48.3495 174.509 50.4535L174.945 51.3554C175.892 53.3212 177.068 55.7734 177.863 57.6885C178.659 59.6037 179.647 62.2991 180.331 64.4271C181.015 66.555 181.886 69.7165 182.443 72.1181C183.026 74.6514 183.573 77.9953 183.786 79.3278C184.436 83.7768 184.754 88.2681 184.738 92.7643C184.62 97.734 184.21 102.692 183.512 107.614C183.143 110.256 182.595 112.87 181.871 115.437C181.678 116.086 181.471 116.815 181.258 117.565C180.781 119.227 180.29 120.95 179.804 122.353C178.983 124.842 178.027 127.284 176.941 129.669C176.667 130.237 176.374 130.865 176.065 131.513C175.355 133.033 174.545 134.715 173.84 136.028C172.675 138.176 171.069 140.886 169.843 142.766C168.617 144.646 167.036 146.875 165.835 148.431C165.161 149.297 162.795 152.312 160.769 154.51C158.828 156.598 157.222 158.214 156.067 159.319C154.121 161.143 151.73 163.225 149.987 164.623C148.624 165.713 146.577 167.268 144.92 168.378C142.747 169.847 139.798 171.656 137.766 172.856C134.471 174.702 131.07 176.355 127.583 177.806C126.367 178.283 123.266 179.483 120.809 180.274C118.888 180.892 116.183 181.647 114.075 182.159C111.968 182.67 109.444 183.172 107.666 183.471C104.246 184.023 102.979 184.14 100.208 184.398C99.5849 184.454 97.2948 184.646 93.9407 184.702L92.6082 184.692ZM92.4816 0.932998H91.3517C89.624 0.958331 88.9856 0.993797 87.2681 1.08499C85.3124 1.18633 82.7639 1.43459 80.4333 1.74365C76.5515 2.27824 72.707 3.05494 68.9221 4.0692C66.8144 4.62145 63.9569 5.55876 62.2494 6.09582C61.4692 6.35421 60.5015 6.72914 59.6452 7.05846L58.9309 7.33712C57.0258 8.06164 54.5381 9.21175 53.2259 9.82987C51.9137 10.448 50.2873 11.3144 48.9599 12.0136L48.5444 12.2365C46.0705 13.5823 43.6659 15.0518 41.3398 16.6393C37.4081 19.3094 32.7824 23.2258 31.46 24.3557C29.3538 26.2153 27.348 28.1856 25.4511 30.2582C23.647 32.1686 21.9408 34.1691 20.3389 36.252C18.0488 39.3831 14.8316 44.0544 12.658 47.7733C11.2394 50.1951 9.68394 53.4985 9.08609 54.8107C8.22984 56.6651 7.15573 59.3098 6.40081 61.3973C5.6459 63.4847 4.66806 66.5803 4.02967 68.9312C3.58381 70.5728 3.13796 72.6805 2.74783 74.5348C2.63637 75.0415 2.53503 75.5481 2.4337 76.0193C1.81429 78.9697 1.4163 81.9622 1.24307 84.9719C1.21267 85.585 1.1772 86.2538 1.13667 86.953C1.03533 88.7668 0.923871 90.8238 0.923871 92.4502C0.923871 94.6592 1.06573 97.8562 1.26839 100.597C1.44855 103.282 1.79885 105.952 2.31717 108.592C2.46917 109.276 2.62117 110.031 2.7833 110.816C3.12782 112.514 3.48755 114.267 3.86754 115.701C4.51323 118.292 5.29972 120.846 6.22349 123.351C7.89254 127.774 9.82466 132.094 12.0095 136.286C14.3983 140.674 17.1417 144.859 20.2122 148.8C21.8842 151.009 24.3415 153.745 25.6588 155.174C27.1332 156.78 29.1598 158.721 30.4416 159.921C32.8736 162.176 36.1212 164.745 37.0281 165.495C38.0668 166.31 39.3739 167.212 40.6457 168.089L42.1656 169.143C43.8666 170.308 45.6253 171.387 47.4348 172.375C49.7553 173.662 52.8865 175.212 54.528 176.018C55.6072 176.525 57.1373 177.193 59.1994 178.009C60.3951 178.475 61.9809 179.022 63.2526 179.483L63.8353 179.686C64.8992 180.061 66.3382 180.482 67.6048 180.846C68.5674 181.12 69.8543 181.449 70.9842 181.733C72.8943 182.214 74.4852 182.513 76.6891 182.929C76.8968 182.969 79.6429 183.435 81.5479 183.648C82.8348 183.795 85.51 184.099 87.9115 184.2C89.0312 184.246 90.6272 184.292 91.8837 184.317C92.5272 184.317 93.4037 184.317 93.8597 184.317C97.2036 184.261 99.4835 184.074 100.102 184.013C102.868 183.76 104.125 183.638 107.534 183.091C109.308 182.802 111.81 182.29 113.913 181.784C116.016 181.277 118.711 180.522 120.621 179.909C123.068 179.119 126.159 177.923 127.375 177.447C130.845 176.005 134.229 174.362 137.508 172.527C139.535 171.326 142.473 169.523 144.642 168.058C146.278 166.954 148.315 165.404 149.678 164.319C151.421 162.931 153.802 160.854 155.758 159.035C156.928 157.94 158.504 156.329 160.439 154.247C162.466 152.073 164.817 149.074 165.506 148.208C166.702 146.688 168.303 144.392 169.493 142.569C170.684 140.745 172.315 138.009 173.475 135.855C174.18 134.553 174.995 132.856 175.69 131.361L176.571 129.517C177.65 127.143 178.6 124.712 179.419 122.236C179.9 120.843 180.386 119.126 180.863 117.469C181.075 116.719 181.283 115.989 181.476 115.336C182.193 112.792 182.738 110.202 183.107 107.584C183.8 102.677 184.208 97.7338 184.328 92.7795C184.345 88.3036 184.029 83.8326 183.381 79.4038C183.168 78.0814 182.621 74.7274 182.043 72.2245C181.486 69.828 180.64 66.7526 179.94 64.5639C179.241 62.3751 178.274 59.7456 177.483 57.8507C176.693 55.9558 175.517 53.5036 174.57 51.5377L174.139 50.6359C173.088 48.5527 171.933 46.5235 170.679 44.556C169.64 42.8993 168.227 40.8726 166.975 39.0892L166.099 37.8378C164.404 35.4569 162.541 33.2 160.525 31.0841C157.886 28.3431 154.015 24.4114 150.863 21.8832L150.083 21.2701C165.658 35.1626 174.778 55.8696 175.284 79.2518C175.284 79.951 175.31 80.6451 175.31 81.3493V81.5216C175.218 130.277 138.065 174.934 92.4917 181.059L92.441 180.684C137.832 174.604 174.838 130.095 174.93 81.5216V81.3493C174.93 52.774 162.071 27.9884 140.361 14.3847L139.454 13.8476C138.866 13.4981 138.303 13.1637 137.797 12.8343C135.573 11.6184 132.73 10.1541 130.704 9.19655C129.184 8.48723 127.056 7.58538 125.247 6.90647C123.078 6.08568 120.013 5.06731 117.647 4.37319C115.889 3.86653 112.793 3.10655 111.152 2.78736L110.432 2.6607C109.804 2.5391 109.095 2.39723 108.527 2.30603C105.411 1.79938 105.224 1.76391 103.689 1.58658C101.931 1.37886 101.11 1.29272 99.3721 1.16606C97.6343 1.0394 96.55 0.998864 95.3188 0.953265C94.9389 0.932999 93.7634 0.932998 92.4816 0.932998Z" fill="#54FF8E"/>
<path d="M92.4255 181.556L92.3698 181.525C69.8997 168.753 51.6601 118.502 51.7665 69.5089V69.3316H51.9336C97.7049 63.1757 153.209 68.5463 175.669 81.3039L175.765 81.3596V81.4711C175.674 130.485 138.298 175.385 92.4914 181.546L92.4255 181.556ZM52.1667 69.6761C52.1211 118.452 70.2036 168.413 92.5218 181.14C138.121 174.974 175.259 130.328 175.401 81.5521C152.956 68.9009 97.7657 63.5709 52.1667 69.6761Z" fill="#54FF8E"/>
<path d="M134.245 163.767C122.967 157.358 95.05 154.647 72.0225 157.758L71.9718 157.383C95.0702 154.277 123.093 156.993 134.432 163.433L134.245 163.767Z" fill="#54FF8E"/>
<path d="M164.056 127.906C144.727 116.927 96.9093 112.306 57.4611 117.611L57.4104 117.236C96.9295 111.921 144.854 116.562 164.244 127.577L164.056 127.906Z" fill="#54FF8E"/>
<path d="M92.5369 181.536L92.39 181.186C120.499 169.467 143.441 120.185 143.532 71.3228H143.912C143.821 120.326 120.773 169.766 92.5369 181.536Z" fill="#54FF8E"/>
<path d="M92.6484 181.409L92.2786 181.313C95.9974 167.217 99.0931 115.954 99.1843 67.0313H99.5643C99.4731 115.979 96.3723 167.288 92.6484 181.409Z" fill="#54FF8E"/>
<path d="M82.0593 182.255C64.6709 182.255 48.4376 176.276 35.5129 164.953C27.2799 157.699 20.7714 148.698 16.4626 138.607C11.8267 127.967 9.48091 116.258 9.49104 103.855C2.53973 99.8778 -0.682601 95.4497 0.16858 91.0417C2.00774 81.699 21.823 73.3848 51.9336 69.3316L52.1464 69.3012V69.519C52.0552 118.391 70.1833 168.494 92.5572 181.206L93.0638 181.485L92.5065 181.556C89.0436 182.021 85.5534 182.255 82.0593 182.255ZM51.7613 69.7268C21.9396 73.78 2.32186 81.9625 0.543504 91.138C-0.282345 95.3939 2.90958 99.7056 9.77477 103.602L9.87103 103.657V103.784C9.8457 116.177 12.1814 127.855 16.8071 138.495C21.1008 148.526 27.5778 157.473 35.7662 164.684C51.0216 178.05 70.9331 183.937 91.8833 181.257C69.6614 168.048 51.7309 118.3 51.7664 69.7268H51.7613Z" fill="#54FF8E"/>
<path d="M50.5605 175.015C46.9835 172.988 45.3268 170.703 45.7676 168.428C46.6897 163.666 56.7214 159.435 71.9515 157.388L72.0022 157.763C56.9393 159.79 47.0342 163.904 46.1627 168.504C45.7524 170.607 47.3483 172.745 50.7682 174.691L50.5605 175.015Z" fill="#54FF8E"/>
<path d="M20.8502 147.164C14.7704 143.719 11.9635 139.868 12.7083 136.017C14.2789 127.911 31.4039 120.722 57.4105 117.226L57.4612 117.601C31.6217 121.076 14.6184 128.159 13.0781 136.088C12.3688 139.752 15.1048 143.465 21.0377 146.824L20.8502 147.164Z" fill="#54FF8E"/>
<path d="M92.4306 181.546C49.8716 173.632 15.3683 127.334 15.4595 78.2943H15.8395C15.7483 127.141 50.135 173.292 92.4965 181.171L92.4306 181.546Z" fill="#54FF8E"/>
<path d="M92.4611 181.551C41.527 180.426 0.199114 139.62 0.290312 90.5807H0.670303C0.579105 139.407 41.7601 180.046 92.4661 181.166L92.4611 181.551Z" fill="#54FF8E"/>
<path d="M102.721 184.504C99.0911 184.432 95.5429 183.416 92.4255 181.556C71.1865 184.398 50.9811 178.516 35.518 164.953C27.2851 157.699 20.7765 148.698 16.4677 138.607C11.8167 127.921 9.47084 116.187 9.49617 103.744V103.419L9.7799 103.576C32.1741 116.304 87.5768 121.654 133.272 115.508L133.49 115.478V115.696C133.429 148.78 124.993 174.209 111.481 182.067C108.832 183.65 105.806 184.491 102.721 184.504ZM92.5015 181.16L92.5573 181.196C99.1438 184.945 105.467 185.138 111.303 181.753C124.674 173.991 133.029 148.78 133.125 115.939C87.587 122.019 32.4933 116.714 9.89137 104.093C9.89137 116.364 12.2422 127.931 16.8275 138.48C21.1212 148.511 27.5981 157.458 35.7865 164.669C51.1787 178.156 71.3031 184.018 92.4559 181.171L92.5015 181.16Z" fill="#54FF8E"/>
<path d="M92.8613 182.351C75.4932 182.351 58.7178 179.651 50.5607 175.015L50.7481 174.685C62.0263 181.095 89.943 183.805 112.97 180.689L113.021 181.069C106.337 181.94 99.6021 182.368 92.8613 182.351Z" fill="#54FF8E"/>
<path d="M93.1754 159.709C63.4702 159.709 34.7884 155.083 20.8503 147.164L21.0378 146.835C40.3667 157.819 88.1798 162.435 127.633 157.13L127.679 157.505C116.239 158.999 104.712 159.735 93.1754 159.709Z" fill="#54FF8E"/>
<path d="M80.5394 184.074C75.1384 184.059 69.8669 182.419 65.4106 179.367C50.2768 169.259 41.2786 144.788 41.3344 113.907H41.7144C41.6586 144.661 50.596 169.011 65.6234 179.048C73.6336 184.403 82.8902 185.128 92.3799 181.186L92.5268 181.535C88.7386 183.167 84.6639 184.03 80.5394 184.074Z" fill="#54FF8E"/>
<path d="M90.6065 185.173H90.5204C87.1005 184.727 85.6312 151.227 85.692 118.198H86.072C85.9909 161.517 88.2759 184.489 90.5711 184.788C90.8143 184.834 91.4324 184.535 92.2785 181.313L92.6484 181.409C91.9745 183.967 91.3209 185.173 90.6065 185.173Z" fill="#54FF8E"/>
<path d="M102.721 184.504C99.3465 184.504 95.8607 183.491 92.3698 181.525L91.8632 181.247L92.4255 181.171C102.372 179.797 111.999 176.68 120.864 171.965C128.545 159.916 133.049 139.873 133.095 115.726V115.559H133.257C149.87 113.324 163.332 109.803 172.33 105.537C174.324 97.6748 175.345 89.5974 175.37 81.4862V81.162L175.654 81.319C182.671 85.3064 185.924 89.7599 185.067 94.1881C184.262 98.3477 179.9 102.295 172.66 105.775C165.414 134.315 146.035 159.126 121.123 172.284C118.306 176.682 115.043 180.015 111.466 182.108C108.817 183.673 105.797 184.501 102.721 184.504ZM93.0538 181.465C99.4782 184.95 105.614 185.047 111.293 181.748C114.693 179.777 117.768 176.682 120.464 172.603C111.893 177.085 102.626 180.083 93.0538 181.47V181.465ZM133.49 115.883C133.424 139.655 129.036 159.455 121.543 171.615C145.994 158.478 165.009 134.047 172.209 105.958C163.205 110.188 149.875 113.674 133.49 115.888V115.883ZM175.76 81.7851C175.711 89.712 174.712 97.6045 172.786 105.294C179.748 101.925 183.933 98.0994 184.708 94.0867C185.523 89.8967 182.428 85.6459 175.76 81.7902V81.7851Z" fill="#54FF8E"/>
<path d="M113.021 181.069L112.97 180.689C128.033 178.663 137.943 174.554 138.835 169.953C139.24 167.851 137.644 165.713 134.225 163.767L134.412 163.433C137.989 165.459 139.646 167.744 139.205 170.019C138.298 174.787 128.251 179.017 113.021 181.069Z" fill="#54FF8E"/>
<path d="M127.658 157.49L127.613 157.115C153.452 153.639 170.45 146.556 171.991 138.627C172.7 134.964 169.964 131.25 164.036 127.891L164.224 127.561C170.303 131.012 173.105 134.862 172.366 138.708C170.815 146.809 153.685 154.009 127.658 157.49Z" fill="#54FF8E"/>
<path d="M104.712 182.696C100.591 182.69 96.4803 182.305 92.4305 181.546L92.4964 181.171C111.177 184.646 129.204 180.157 143.258 168.504C159.836 154.749 169.371 132.319 169.422 106.956H169.802C169.751 132.43 160.175 154.972 143.501 168.768C132.619 177.84 118.88 182.773 104.712 182.696Z" fill="#54FF8E"/>
<path d="M94.6345 181.571C93.91 181.571 93.1855 181.571 92.4609 181.571V181.191C117.667 181.743 141.186 172.613 158.737 155.473C175.36 139.26 184.54 117.651 184.576 94.6744H184.956C184.915 117.758 175.694 139.448 159 155.752C141.89 172.441 119.101 181.571 94.6345 181.571Z" fill="#54FF8E"/>
<path d="M175.76 81.7852L175.476 81.6281C153.082 68.9009 97.6845 63.5506 51.9842 69.6964L51.7664 69.7268V69.5089C51.8272 36.4193 60.263 10.9902 73.7805 3.13705C79.6273 -0.257538 86.2139 -0.0751421 92.8308 3.64371C114.065 0.806438 134.275 6.68364 149.738 20.2468C157.97 27.5019 164.478 36.5027 168.789 46.5929C173.44 57.2782 175.785 69.0073 175.765 81.4558L175.76 81.7852ZM91.8985 66.7679C126.108 66.7679 159.137 72.0625 175.385 81.1367C175.385 68.8604 173.029 57.2934 168.444 46.7499C164.15 36.7176 157.674 27.7691 149.485 20.5559C134.093 7.0687 113.979 1.21177 92.8206 4.0541H92.7548L92.699 4.0237C86.1125 0.269384 79.7895 0.0819207 73.9528 3.46131C60.6024 11.2334 52.2477 36.4446 52.1666 69.291C65.341 67.5807 78.6136 66.7378 91.8985 66.7679Z" fill="#54FF8E"/>
<path d="M164.224 38.3952C144.885 27.4109 97.0715 22.7953 57.6284 28.1L57.5778 27.72C97.0969 22.4052 145.016 27.0461 164.411 38.0608L164.224 38.3952Z" fill="#54FF8E"/>
<path d="M134.508 10.5596C123.23 4.15038 95.3186 1.43977 72.286 4.5557L72.2354 4.18078C95.3338 1.07498 123.357 3.78559 134.696 10.2302L134.508 10.5596Z" fill="#54FF8E"/>
<path d="M143.912 71.3227H143.532C143.588 40.5687 134.65 16.2138 119.623 6.17696C111.613 0.821609 102.361 0.0970913 92.8664 4.04394L92.7195 3.68928C102.346 -0.318365 111.709 0.436552 119.836 5.85777C134.969 15.9706 143.968 40.4522 143.912 71.3227Z" fill="#54FF8E"/>
<path d="M99.5643 67.0313H99.1843C99.2856 23.7326 96.9803 0.735474 94.6852 0.426414C94.4572 0.390949 93.8289 0.674676 92.9778 3.90207L92.6079 3.8058C93.3122 1.14586 93.9961 -0.0447751 94.7359 0.0464228C98.1558 0.502413 99.6251 34.0177 99.5643 67.0313Z" fill="#54FF8E"/>
<path d="M9.87609 104.093L9.59236 103.936C2.57012 99.9487 -0.682611 95.4952 0.173637 91.0671C0.984286 86.9074 5.34152 82.9606 12.5816 79.4799C19.8268 50.9349 39.2064 26.124 64.1237 12.9661C66.9407 8.56836 70.2036 5.23457 73.7805 3.14208C79.6425 -0.262644 86.2493 -0.0701158 92.8865 3.6994L93.3932 3.97806L92.8358 4.05406C82.8821 5.4258 73.2483 8.54217 64.377 13.26C56.6961 25.3083 52.2173 45.3515 52.1464 69.4987V69.6659H51.9842C35.371 71.9003 21.9142 75.4215 12.916 79.6876C10.922 87.5499 9.90102 95.6273 9.87609 103.739V104.093ZM12.4702 79.9308C5.51378 83.3 1.32374 87.1253 0.548561 91.138C-0.267155 95.3331 2.82851 99.584 9.4961 103.44C9.5456 95.5127 10.5441 87.6203 12.4702 79.9308ZM63.7184 13.5994C39.2621 26.7725 20.2473 51.1781 13.0275 79.2721C22.051 75.0416 35.3811 71.5558 51.7664 69.3417C51.8322 45.5643 56.2199 25.7592 63.7184 13.5994ZM82.5659 1.06986C79.5318 1.08062 76.5565 1.90845 73.9528 3.46634C70.5531 5.4423 67.4777 8.53289 64.7823 12.5861C73.3565 8.11991 82.6236 5.13423 92.1924 3.75513C88.8958 1.96833 85.6869 1.07324 82.5659 1.06986Z" fill="#54FF8E"/>
<path d="M21.0123 57.6785C14.9324 54.2281 12.1306 50.3776 12.8754 46.532C14.441 38.4256 31.571 31.2361 57.5776 27.7402L57.6283 28.1202C31.7889 31.5908 14.7855 38.6789 13.2453 46.608C12.536 50.2712 15.2719 53.9799 21.1998 57.339L21.0123 57.6785Z" fill="#54FF8E"/>
<path d="M50.8443 21.7921C47.2673 19.7654 45.6106 17.4804 46.0514 15.2056C46.9735 10.443 57.0103 6.21242 72.2353 4.16553L72.286 4.54046C57.2231 6.56708 47.318 10.6811 46.4466 15.2765C46.0362 17.3791 47.6321 19.5223 51.0521 21.4678L50.8443 21.7921Z" fill="#54FF8E"/>
<path d="M15.8395 78.2943H15.4595C15.5051 52.8146 25.0859 30.2735 41.76 16.4519C55.9007 4.71777 74.039 0.183199 92.8258 3.67912L92.7599 4.05405C74.0795 0.578393 56.0527 5.06736 41.9981 16.7204C25.4203 30.4964 15.8851 52.9311 15.8395 78.2943Z" fill="#54FF8E"/>
<path d="M0.670153 90.6111H0.290161C0.33576 67.5279 9.55183 45.8329 26.2512 29.5287C43.8777 12.3024 67.5081 3.14718 92.7953 3.6893V4.06929C67.6044 3.51197 44.0753 12.647 26.5248 29.7871C9.89128 46.0254 0.715752 67.5988 0.670153 90.6111Z" fill="#54FF8E"/>
<path d="M93.3577 118.477C58.9508 118.477 25.7345 113.107 9.60762 103.936L9.51135 103.88V103.784C9.60762 54.7399 46.9431 9.8401 92.77 3.67917H92.8308L92.8866 3.70957C115.367 16.4824 133.581 66.7375 133.49 115.731V115.898H133.323C120.073 117.639 106.722 118.5 93.3577 118.477ZM9.87615 103.657C32.3058 116.324 87.5059 121.659 133.11 115.554C133.161 66.778 115.078 16.8117 92.7548 4.08956C47.1761 10.2302 10.018 54.8767 9.87615 103.657Z" fill="#54FF8E"/>
<path d="M93.3425 70.1929C63.6372 70.1929 34.9555 65.5722 21.0123 57.6532L21.1998 57.3188C40.5135 68.3182 88.3468 72.9237 127.795 67.614L127.846 67.994C116.406 69.4867 104.879 70.2213 93.3425 70.1929Z" fill="#54FF8E"/>
<path d="M93.145 29.1284C75.7769 29.1284 59.0015 26.4229 50.8444 21.7921L51.0318 21.4627C62.315 27.8669 90.2267 30.5825 113.259 27.4666L113.31 27.8415C106.624 28.7158 99.8877 29.1457 93.145 29.1284Z" fill="#54FF8E"/>
<path d="M41.7245 113.917H41.3445C41.4357 64.9135 64.4834 15.469 92.7193 3.6994L92.8663 4.05406C64.757 15.7578 41.8157 65.0402 41.7245 113.917Z" fill="#54FF8E"/>
<path d="M86.072 118.198H85.692C85.7832 69.2505 88.889 17.9415 92.6079 3.82101L92.9777 3.91728C89.2589 18.0074 86.1632 69.2758 86.072 118.198Z" fill="#54FF8E"/>
<path d="M133.11 115.944V115.726C133.201 66.849 115.073 16.7458 92.699 4.0389L92.1924 3.76024L92.7548 3.68424C114.034 0.826707 134.245 6.72418 149.723 20.2772C157.954 27.5323 164.463 36.5331 168.773 46.6233C173.409 57.263 175.755 68.9719 175.75 81.3748C182.701 85.347 185.924 89.7802 185.067 94.1881C183.248 103.556 163.418 111.886 133.307 115.934L133.11 115.944ZM93.3729 3.97304C115.595 17.1461 133.525 66.9199 133.49 115.493C163.312 111.44 182.929 103.257 184.708 94.0817C185.534 89.8258 182.342 85.5142 175.476 81.618L175.385 81.5622V81.4508C175.385 69.058 173.07 57.3796 168.444 46.7398C164.15 36.7075 157.674 27.759 149.485 20.5457C134.245 7.1903 114.323 1.3131 93.3729 3.97304Z" fill="#54FF8E"/>
<path d="M127.846 67.994L127.795 67.614C153.634 64.1434 170.638 57.0553 172.178 49.1261C172.887 45.4681 170.151 41.7543 164.224 38.3952L164.411 38.0608C170.491 41.5111 173.293 45.3617 172.548 49.2072C170.982 57.2934 153.852 64.498 127.846 67.994Z" fill="#54FF8E"/>
<path d="M113.31 27.8415L113.259 27.4666C128.317 25.44 138.227 21.3259 139.099 16.7255C139.504 14.6229 137.913 12.4848 134.488 10.5393L134.675 10.2099C138.252 12.2366 139.914 14.5216 139.468 16.7965C138.567 21.5641 128.535 25.7947 113.31 27.8415Z" fill="#54FF8E"/>
<path d="M169.802 106.936H169.422C169.513 58.0889 135.121 11.9326 92.7599 4.0541L92.8258 3.67917C135.359 11.5729 169.893 57.9116 169.802 106.936Z" fill="#54FF8E"/>
<path d="M184.966 94.6643H184.586C184.677 45.8329 143.496 5.19404 92.7903 4.07433V3.69434C143.709 4.79884 185.057 45.6099 184.966 94.6643Z" fill="#54FF8E"/>
<path d="M92.6433 185.198C88.1414 185.197 83.6455 184.867 79.1916 184.21C75.2448 183.633 72.1491 182.898 70.8267 182.584C67.1636 181.718 63.6322 180.527 63.6018 180.512C60.4013 179.454 57.2619 178.219 54.1983 176.813C52.0349 175.851 49.1317 174.371 47.019 173.14C45.2406 172.127 43.2191 170.921 41.7447 169.903C39.0746 168.063 35.9688 165.773 33.8308 164.061C30.6439 161.528 26.7376 157.54 24.0776 154.779C22.0366 152.636 20.1504 150.35 18.4335 147.939L17.5621 146.698C16.3005 144.894 14.8717 142.847 13.8179 141.17C12.4651 139.017 10.9249 136.144 10.3219 135.009C9.14144 132.77 7.78867 129.781 6.94762 127.723C6.38523 126.366 5.79751 124.684 5.23006 123.083C4.9666 122.333 4.72341 121.608 4.47008 120.955C3.58375 118.425 2.87441 115.836 2.34719 113.208C1.36446 108.354 0.655712 103.448 0.224307 98.5148C-0.0442201 94.6693 -0.150619 89.0707 0.361103 84.8858C0.447234 84.1714 0.528302 83.3658 0.609366 82.5704C0.806962 80.6704 1.02482 78.5171 1.38455 76.835C1.53148 76.1561 1.68347 75.4012 1.84054 74.6209C2.18506 72.8983 2.53972 71.1199 2.91971 69.6608C3.55306 67.0724 4.32599 64.5202 5.23513 62.0153C5.47325 61.4124 5.74178 60.7436 5.99004 60.0495C6.61323 58.413 7.26175 56.7208 7.8748 55.3427C8.88811 53.0678 10.3067 50.1951 11.4214 48.2039C12.536 46.2128 13.9547 43.8416 15.0389 42.1747C16.4981 39.9003 18.0724 37.702 19.7559 35.5882C22.6097 32.0781 25.6542 28.7274 28.8757 25.5514C30.5476 23.9757 32.9542 21.8781 35.0011 20.2163C36.5616 18.9446 38.6034 17.4297 40.0677 16.4366C42.0943 15.0636 45.0076 13.2548 47.2571 11.9325C48.6555 11.1167 50.5757 10.1034 52.04 9.39919C53.6258 8.6544 55.4396 7.81336 56.8329 7.2155C57.9121 6.75951 59.3662 6.20219 60.496 5.7766L60.8862 5.62967C63.46 4.65182 66.7634 3.70438 67.7159 3.44092C69.1902 3.03053 70.2897 2.74174 71.0801 2.56441C72.747 2.19455 75.4322 1.62203 77.5197 1.2471C78.918 0.993773 82.2772 0.522585 85.0536 0.309789C91.2851 -0.201751 97.5525 -0.0795268 103.759 0.674582C108.112 1.20657 111.359 1.91589 111.359 1.92095C113.452 2.39214 115.889 2.98493 117.566 3.44092C118.944 3.81584 120.707 4.3833 121.619 4.68729C123.027 5.15342 124.912 5.8374 126.3 6.38459C127.871 7.00271 129.933 7.90455 131.022 8.41121C132.421 9.0344 134.062 9.87038 135.582 10.676C136.459 11.1269 137.33 11.5981 138.187 12.0845L138.465 12.2567C141.738 14.2833 145.807 16.7609 148.695 19.0358C150.959 20.8192 153.579 23.0181 155.372 24.6394C156.943 26.0631 158.883 27.9884 160.206 29.4425C162.096 31.5198 164.259 34.0429 165.703 35.877C166.878 37.3666 168.485 39.5958 169.792 41.5566C171.099 43.5174 172.7 46.1874 173.982 48.5079C174.863 50.1089 175.851 52.1862 176.723 54.0153L177.138 54.8918C178.187 57.0805 179.327 60.1509 180.092 62.3396C180.599 63.738 181.105 65.4555 181.561 67.1174C181.784 67.8824 181.997 68.6373 182.2 69.2859C182.957 71.8699 183.521 74.5067 183.887 77.1745C183.973 77.8585 184.079 78.6083 184.191 79.3886C184.439 81.172 184.698 83.0112 184.824 84.5463C185.027 87.0137 185.169 90.3171 185.174 92.7643C185.09 97.7648 184.677 102.754 183.938 107.7C183.506 110.681 182.871 113.628 182.038 116.521C181.875 117.058 181.698 117.646 181.531 118.254C181.024 119.977 180.442 121.927 179.899 123.447C179.046 125.939 178.058 128.383 176.941 130.768L176.297 132.202C175.502 133.839 174.6 135.693 173.81 137.122C172.614 139.27 170.967 141.976 169.716 143.85C166.954 147.991 163.864 151.904 160.474 155.549C159.831 156.233 157.581 158.589 155.707 160.322C153.716 162.146 151.289 164.218 149.52 165.601C148.137 166.675 146.075 168.215 144.429 169.3C142.214 170.759 139.22 172.557 137.158 173.748C133.756 175.608 130.246 177.261 126.645 178.698C124.78 179.407 122.029 180.406 119.922 181.059C118.017 181.647 115.336 182.366 113.254 182.848C106.495 184.408 99.5804 185.197 92.6433 185.198ZM47.2115 172.811C49.3293 174.037 52.197 175.506 54.3554 176.464C57.4081 177.866 60.5355 179.099 63.7234 180.157C63.7589 180.157 67.27 181.353 70.9078 182.214C72.2302 182.528 75.3157 183.258 79.2474 183.836C90.5483 185.509 102.063 185.046 113.193 182.473C115.265 181.996 117.93 181.282 119.825 180.694C121.928 180.041 124.669 179.053 126.534 178.343C130.105 176.911 133.588 175.268 136.966 173.424C139.028 172.228 142.032 170.44 144.221 168.986C145.857 167.906 147.909 166.371 149.287 165.297C151.051 163.924 153.472 161.857 155.458 160.038C156.715 158.888 158.498 157.109 160.201 155.291C163.576 151.659 166.655 147.762 169.407 143.638C170.653 141.763 172.29 139.078 173.46 136.929C174.25 135.511 175.147 133.661 175.937 132.03L176.637 130.596C177.745 128.221 178.725 125.789 179.575 123.311C180.117 121.791 180.695 119.855 181.202 118.143C181.384 117.535 181.556 116.947 181.708 116.405C182.536 113.531 183.167 110.604 183.598 107.645C184.335 102.717 184.747 97.7461 184.829 92.7643C184.829 90.3171 184.687 87.0289 184.485 84.5717C184.358 83.0517 184.1 81.2125 183.851 79.4392C183.74 78.6539 183.634 77.9193 183.547 77.215C183.182 74.5713 182.622 71.9582 181.87 69.3973C181.668 68.7285 181.455 67.9888 181.232 67.2238C180.756 65.567 180.259 63.8545 179.773 62.4663C179.003 60.2877 177.873 57.2325 176.834 55.059L176.414 54.1774C175.547 52.3534 174.559 50.2863 173.683 48.6903C172.406 46.3749 170.77 43.6592 169.508 41.7694C168.246 39.8796 166.615 37.5946 165.455 36.1151C164.011 34.2861 161.857 31.768 159.973 29.6958C158.661 28.2569 156.73 26.3367 155.17 24.9231C153.376 23.3069 150.767 21.1131 148.512 19.3499C145.634 17.075 141.576 14.5823 138.298 12.5861L138.029 12.4189C137.27 12.0034 136.378 11.517 135.44 11.0205C122.617 4.43397 107.98 2.03748 92.8814 4.04891H92.851H92.7852L92.7345 3.67398C103.595 2.13735 114.662 3.04789 125.125 6.33899C123.939 5.89313 122.617 5.42194 121.578 5.07235C120.651 4.76329 118.898 4.2009 117.525 3.83104C115.853 3.38012 113.426 2.81773 111.339 2.31108C111.309 2.31108 108.127 1.60683 103.764 1.06977C97.5707 0.320089 91.3167 0.202955 85.0992 0.720181C82.3329 0.932976 78.989 1.3991 77.6058 1.65242C75.5234 2.02735 72.8432 2.59481 71.1814 2.96466C70.391 3.14199 69.3017 3.42572 67.8324 3.83611C66.885 4.09957 63.5917 5.04195 61.0381 6.01473L60.643 6.16166C59.4979 6.59738 58.0691 7.1395 56.995 7.59549C55.6068 8.18828 53.8031 9.02933 52.2173 9.77411C50.7632 10.4581 48.8531 11.4613 47.4649 12.277C45.2204 13.5943 42.3375 15.398 40.2906 16.766C38.8213 17.7793 36.7896 19.2638 35.2241 20.5253C33.1974 22.1872 30.7908 24.2695 29.1442 25.8402C25.9238 29.0066 22.8794 32.3471 20.0244 35.8466C18.3502 37.952 16.7826 40.1402 15.3277 42.4027C14.2485 44.0342 12.7944 46.456 11.7305 48.4066C10.6665 50.3572 9.22757 53.2502 8.21426 55.4998C7.60628 56.8627 6.96282 58.5397 6.33964 60.1863C6.07618 60.8804 5.83298 61.5492 5.58472 62.1572C4.67857 64.6462 3.91066 67.1833 3.28451 69.757C2.90452 71.2061 2.54985 72.9794 2.20533 74.6969C2.04826 75.4772 1.89627 76.2169 1.7544 76.9161C1.39975 78.5779 1.17682 80.7211 0.984286 82.6109C0.898155 83.4266 0.81709 84.217 0.730959 84.9314C0.224303 89.091 0.330704 94.6592 0.599231 98.4895C1.02877 103.401 1.73414 108.284 2.71198 113.117C3.23944 115.726 3.94535 118.295 4.82474 120.808C5.06286 121.456 5.33139 122.186 5.57965 122.936C6.14711 124.547 6.73483 126.209 7.29722 127.561C8.1484 129.588 9.47584 132.582 10.6563 134.807C11.2542 135.941 12.7894 138.804 14.1371 140.947C15.1808 142.619 16.6095 144.661 17.8711 146.46L18.7426 147.706C20.4473 150.099 22.3199 152.368 24.3462 154.495C26.996 157.251 30.8922 161.208 34.0638 163.747C36.1918 165.449 39.2925 167.739 41.9524 169.568C43.4217 170.581 45.4332 171.762 47.2065 172.79L47.2115 172.811Z" fill="#54FF8E"/>
<path d="M92.4254 181.556L92.3697 181.525C69.8995 168.753 51.6599 118.503 51.7663 69.509V69.3316H51.9335C97.7048 63.1758 153.209 68.5463 175.669 81.3039L175.765 81.3596V81.4711C175.674 130.485 138.298 175.385 92.4913 181.546L92.4254 181.556ZM52.1666 69.6761C52.121 118.452 70.2035 168.413 92.5217 181.14C138.121 174.974 175.259 130.328 175.4 81.5521C152.956 68.901 97.7656 63.5709 52.1666 69.6761Z" fill="#54FF8E"/>
<path d="M134.245 163.767C122.967 157.358 95.05 154.647 72.0225 157.758L71.9718 157.383C95.0702 154.277 123.093 156.993 134.432 163.433L134.245 163.767Z" fill="#54FF8E"/>
<path d="M164.056 127.906C144.728 116.927 96.9094 112.306 57.4612 117.611L57.4105 117.236C96.9296 111.921 144.854 116.562 164.244 127.577L164.056 127.906Z" fill="#54FF8E"/>
<path d="M92.5371 181.535L92.3901 181.186C120.499 169.467 143.441 120.185 143.532 71.3227H143.912C143.821 120.326 120.773 169.766 92.5371 181.535Z" fill="#54FF8E"/>
<path d="M92.6485 181.409L92.2787 181.313C95.9975 167.217 99.0932 115.954 99.1844 67.0314H99.5644C99.4732 115.979 96.3725 167.288 92.6485 181.409Z" fill="#54FF8E"/>
<path d="M82.0593 182.255C64.6709 182.255 48.4376 176.276 35.5129 164.953C27.2799 157.699 20.7714 148.698 16.4626 138.607C11.8267 127.967 9.48091 116.258 9.49104 103.855C2.53973 99.8779 -0.682601 95.4497 0.16858 91.0418C2.00774 81.6991 21.823 73.3849 51.9336 69.3316L52.1464 69.3012V69.5191C52.0552 118.391 70.1833 168.494 92.5572 181.206L93.0638 181.485L92.5065 181.556C89.0436 182.021 85.5534 182.255 82.0593 182.255ZM51.7613 69.7268C21.9396 73.78 2.32186 81.9625 0.543504 91.1381C-0.282345 95.394 2.90958 99.7056 9.77477 103.602L9.87103 103.658V103.784C9.8457 116.177 12.1814 127.855 16.8071 138.495C21.1008 148.526 27.5778 157.473 35.7662 164.684C51.0216 178.05 70.9331 183.937 91.8833 181.257C69.6614 168.048 51.7309 118.3 51.7664 69.7268H51.7613Z" fill="#54FF8E"/>
<path d="M50.5605 175.015C46.9835 172.988 45.3268 170.703 45.7676 168.428C46.6897 163.666 56.7214 159.435 71.9515 157.388L72.0022 157.763C56.9393 159.79 47.0342 163.904 46.1627 168.504C45.7524 170.607 47.3483 172.745 50.7682 174.691L50.5605 175.015Z" fill="#54FF8E"/>
<path d="M20.8504 147.164C14.7705 143.719 11.9636 139.868 12.7084 136.018C14.279 127.911 31.404 120.722 57.4106 117.226L57.4613 117.601C31.6218 121.076 14.6185 128.159 13.0783 136.088C12.3689 139.752 15.1049 143.465 21.0378 146.824L20.8504 147.164Z" fill="#54FF8E"/>
<path d="M92.4305 181.546C49.8714 173.632 15.3682 127.334 15.4594 78.2944H15.8394C15.7482 127.141 50.1349 173.292 92.4964 181.171L92.4305 181.546Z" fill="#54FF8E"/>
<path d="M92.4611 181.551C41.527 180.426 0.199114 139.62 0.290312 90.5807H0.670303C0.579105 139.407 41.7601 180.046 92.4661 181.166L92.4611 181.551Z" fill="#54FF8E"/>
<path d="M102.721 184.504C99.0911 184.432 95.5429 183.416 92.4255 181.556C71.1865 184.398 50.9811 178.516 35.518 164.953C27.2851 157.699 20.7765 148.698 16.4677 138.607C11.8167 127.921 9.47084 116.187 9.49617 103.744V103.419L9.7799 103.576C32.1741 116.304 87.5768 121.654 133.272 115.508L133.49 115.478V115.696C133.429 148.78 124.993 174.209 111.481 182.067C108.832 183.65 105.806 184.491 102.721 184.504ZM92.5015 181.161L92.5573 181.196C99.1438 184.945 105.467 185.138 111.303 181.753C124.674 173.991 133.029 148.78 133.125 115.939C87.587 122.019 32.4933 116.714 9.89137 104.093C9.89137 116.364 12.2422 127.931 16.8275 138.48C21.1212 148.511 27.5981 157.458 35.7865 164.669C51.1787 178.156 71.3031 184.018 92.4559 181.171L92.5015 181.161Z" fill="#54FF8E"/>
<path d="M92.8612 182.351C75.4931 182.351 58.7177 179.651 50.5605 175.015L50.748 174.685C62.0262 181.095 89.9429 183.805 112.97 180.689L113.021 181.069C106.337 181.94 99.602 182.368 92.8612 182.351Z" fill="#54FF8E"/>
<path d="M93.1754 159.709C63.4702 159.709 34.7884 155.083 20.8503 147.164L21.0378 146.835C40.3667 157.819 88.1798 162.435 127.633 157.13L127.679 157.505C116.239 158.999 104.712 159.736 93.1754 159.709Z" fill="#54FF8E"/>
<path d="M80.5394 184.074C75.1384 184.059 69.8669 182.419 65.4106 179.367C50.2768 169.259 41.2786 144.788 41.3344 113.907H41.7144C41.6586 144.661 50.596 169.011 65.6234 179.048C73.6336 184.403 82.8902 185.128 92.3799 181.186L92.5268 181.535C88.7386 183.167 84.6639 184.03 80.5394 184.074Z" fill="#54FF8E"/>
<path d="M90.6067 185.173H90.5205C87.1006 184.727 85.6313 151.227 85.6921 118.198H86.0721C85.991 161.518 88.276 184.489 90.5712 184.788C90.8144 184.834 91.4325 184.535 92.2786 181.313L92.6485 181.409C91.9746 183.967 91.321 185.173 90.6067 185.173Z" fill="#54FF8E"/>
<path d="M102.721 184.504C99.3463 184.504 95.8605 183.491 92.3697 181.525L91.863 181.247L92.4254 181.171C102.372 179.797 111.999 176.68 120.864 171.965C128.545 159.917 133.049 139.873 133.095 115.726V115.559H133.257C149.87 113.324 163.332 109.803 172.33 105.537C174.324 97.6749 175.345 89.5974 175.37 81.4862V81.162L175.654 81.319C182.671 85.3064 185.924 89.7599 185.067 94.1881C184.262 98.3477 179.899 102.295 172.659 105.775C165.414 134.315 146.035 159.126 121.122 172.284C118.305 176.682 115.043 180.016 111.466 182.108C108.817 183.673 105.797 184.501 102.721 184.504ZM93.0537 181.465C99.4781 184.95 105.614 185.047 111.293 181.748C114.693 179.777 117.768 176.682 120.464 172.603C111.893 177.085 102.626 180.083 93.0537 181.47V181.465ZM133.49 115.883C133.424 139.655 129.036 159.455 121.543 171.615C145.994 158.478 165.009 134.047 172.208 105.958C163.205 110.188 149.875 113.674 133.49 115.888V115.883ZM175.76 81.7852C175.711 89.7121 174.712 97.6045 172.786 105.294C179.747 101.925 183.932 98.0995 184.708 94.0868C185.523 89.8967 182.428 85.6459 175.76 81.7902V81.7852Z" fill="#54FF8E"/>
<path d="M113.021 181.069L112.97 180.689C128.033 178.663 137.944 174.554 138.835 169.953C139.241 167.851 137.645 165.713 134.225 163.767L134.412 163.433C137.989 165.459 139.646 167.744 139.205 170.019C138.298 174.787 128.251 179.017 113.021 181.069Z" fill="#54FF8E"/>
<path d="M127.658 157.49L127.613 157.115C153.452 153.639 170.45 146.556 171.991 138.627C172.7 134.964 169.964 131.25 164.036 127.891L164.224 127.561C170.303 131.012 173.105 134.862 172.366 138.708C170.815 146.809 153.685 154.009 127.658 157.49Z" fill="#54FF8E"/>
<path d="M104.712 182.696C100.591 182.69 96.4803 182.305 92.4305 181.546L92.4964 181.171C111.177 184.646 129.204 180.157 143.258 168.504C159.836 154.749 169.371 132.319 169.422 106.956H169.802C169.751 132.43 160.175 154.971 143.501 168.768C132.619 177.84 118.88 182.773 104.712 182.696Z" fill="#54FF8E"/>
<path d="M94.6345 181.571C93.91 181.571 93.1855 181.571 92.4609 181.571V181.191C117.667 181.743 141.186 172.613 158.737 155.473C175.36 139.26 184.54 117.651 184.576 94.6745H184.956C184.915 117.758 175.694 139.448 159 155.752C141.89 172.441 119.101 181.571 94.6345 181.571Z" fill="#54FF8E"/>
<path d="M175.76 81.7852L175.477 81.6282C153.082 68.901 97.6847 63.5507 51.9843 69.6964L51.7665 69.7268V69.509C51.8273 36.4193 60.2631 10.9903 73.7807 3.13711C79.6275 -0.257477 86.214 -0.0750811 92.8309 3.64377C114.065 0.806499 134.275 6.6837 149.738 20.2469C157.97 27.502 164.478 36.5028 168.789 46.5929C173.44 57.2783 175.786 69.0074 175.765 81.4559L175.76 81.7852ZM91.8987 66.768C126.108 66.768 159.137 72.0625 175.385 81.1367C175.385 68.8605 173.029 57.2935 168.444 46.75C164.151 36.7177 157.674 27.7692 149.485 20.5559C134.093 7.06876 113.979 1.21183 92.8208 4.05416H92.7549L92.6992 4.02376C86.1126 0.269445 79.7896 0.0819818 73.9529 3.46137C60.6025 11.2335 52.2478 36.4446 52.1667 69.2911C65.3411 67.5807 78.6137 66.7379 91.8987 66.768Z" fill="#54FF8E"/>
<path d="M164.224 38.3952C144.885 27.4109 97.0715 22.7953 57.6284 28.1L57.5778 27.72C97.0969 22.4052 145.016 27.0462 164.411 38.0608L164.224 38.3952Z" fill="#54FF8E"/>
<path d="M134.508 10.5595C123.23 4.15035 95.3185 1.43974 72.2859 4.55567L72.2352 4.18075C95.3336 1.07495 123.357 3.78556 134.696 10.2302L134.508 10.5595Z" fill="#54FF8E"/>
<path d="M143.912 71.3227H143.532C143.588 40.5688 134.65 16.2138 119.623 6.17699C111.613 0.821639 102.361 0.0971218 92.8663 4.04397L92.7194 3.68931C102.346 -0.318334 111.709 0.436582 119.836 5.8578C134.969 15.9706 143.968 40.4522 143.912 71.3227Z" fill="#54FF8E"/>
<path d="M99.5643 67.0314H99.1843C99.2856 23.7326 96.9803 0.735505 94.6852 0.426445C94.4572 0.390979 93.8289 0.674706 92.9778 3.9021L92.6079 3.80584C93.3122 1.14589 93.9961 -0.0447446 94.7359 0.0464534C98.1558 0.502443 99.6251 34.0177 99.5643 67.0314Z" fill="#54FF8E"/>
<path d="M9.87609 104.093L9.59236 103.936C2.57012 99.9488 -0.682611 95.4953 0.173637 91.0671C0.984286 86.9075 5.34152 82.9606 12.5816 79.4799C19.8268 50.9349 39.2064 26.124 64.1237 12.9662C66.9407 8.56839 70.2036 5.2346 73.7805 3.14211C79.6425 -0.262613 86.2493 -0.0700853 92.8865 3.69943L93.3932 3.97809L92.8358 4.05409C82.8821 5.42583 73.2483 8.5422 64.377 13.26C56.6961 25.3083 52.2173 45.3516 52.1464 69.4988V69.666H51.9842C35.371 71.9003 21.9142 75.4216 12.916 79.6876C10.922 87.5499 9.90102 95.6274 9.87609 103.739V104.093ZM12.4702 79.9308C5.51378 83.3001 1.32374 87.1253 0.548561 91.138C-0.267155 95.3331 2.82851 99.584 9.4961 103.44C9.5456 95.5127 10.5441 87.6203 12.4702 79.9308ZM63.7184 13.5995C39.2621 26.7725 20.2473 51.1781 13.0275 79.2722C22.051 75.0416 35.3811 71.5558 51.7664 69.3417C51.8322 45.5644 56.2199 25.7592 63.7184 13.5995ZM82.5659 1.06989C79.5318 1.08065 76.5565 1.90848 73.9528 3.46637C70.5531 5.44233 67.4777 8.53292 64.7823 12.5862C73.3565 8.11994 82.6236 5.13426 92.1924 3.75516C88.8958 1.96836 85.6869 1.07327 82.5659 1.06989Z" fill="#54FF8E"/>
<path d="M21.0124 57.6785C14.9326 54.2282 12.1308 50.3776 12.8756 46.5321C14.4411 38.4256 31.5711 31.2361 57.5778 27.7402L57.6284 28.1202C31.789 31.5908 14.7856 38.6789 13.2454 46.6081C12.5361 50.2712 15.272 53.9799 21.1999 57.339L21.0124 57.6785Z" fill="#54FF8E"/>
<path d="M50.8443 21.7921C47.2673 19.7655 45.6106 17.4805 46.0514 15.2056C46.9735 10.443 57.0103 6.21245 72.2353 4.16556L72.286 4.54049C57.2231 6.56711 47.318 10.6811 46.4466 15.2765C46.0362 17.3791 47.6321 19.5223 51.0521 21.4678L50.8443 21.7921Z" fill="#54FF8E"/>
<path d="M15.8396 78.2943H15.4596C15.5052 52.8146 25.086 30.2735 41.7601 16.452C55.9008 4.71783 74.0391 0.18326 92.8259 3.67918L92.76 4.05411C74.0796 0.578454 56.0528 5.06742 41.9982 16.7205C25.4204 30.4965 15.8852 52.9312 15.8396 78.2943Z" fill="#54FF8E"/>
<path d="M0.670153 90.6111H0.290161C0.33576 67.5279 9.55183 45.8329 26.2512 29.5287C43.8777 12.3024 67.5081 3.14715 92.7953 3.68927V4.06926C67.6044 3.51194 44.0753 12.6469 26.5248 29.7871C9.89128 46.0254 0.715752 67.5988 0.670153 90.6111Z" fill="#54FF8E"/>
<path d="M93.3577 118.477C58.9508 118.477 25.7345 113.107 9.60762 103.936L9.51135 103.88V103.784C9.60762 54.7399 46.9431 9.84013 92.77 3.6792H92.8308L92.8866 3.7096C115.367 16.4824 133.581 66.7375 133.49 115.731V115.898H133.323C120.073 117.639 106.722 118.5 93.3577 118.477ZM9.87615 103.658C32.3058 116.324 87.5059 121.659 133.11 115.554C133.161 66.7781 115.078 16.8117 92.7548 4.08959C47.1761 10.2303 10.018 54.8767 9.87615 103.658Z" fill="#54FF8E"/>
<path d="M93.3426 70.1929C63.6374 70.1929 34.9556 65.5722 21.0125 57.6532L21.1999 57.3188C40.5136 68.3183 88.3469 72.9238 127.795 67.614L127.846 67.994C116.406 69.4868 104.88 70.2213 93.3426 70.1929Z" fill="#54FF8E"/>
<path d="M93.1449 29.1285C75.7768 29.1285 59.0014 26.4229 50.8442 21.7921L51.0317 21.4628C62.3149 27.8669 90.2266 30.5826 113.259 27.4666L113.31 27.8416C106.624 28.7158 99.8876 29.1458 93.1449 29.1285Z" fill="#54FF8E"/>
<path d="M41.7245 113.917H41.3445C41.4357 64.9135 64.4834 15.469 92.7193 3.69943L92.8663 4.05409C64.757 15.7578 41.8157 65.0402 41.7245 113.917Z" fill="#54FF8E"/>
<path d="M86.0721 118.199H85.6921C85.7833 69.2505 88.8891 17.9415 92.608 3.82104L92.9778 3.91731C89.259 18.0074 86.1633 69.2759 86.0721 118.199Z" fill="#54FF8E"/>
<path d="M133.11 115.944V115.726C133.201 66.849 115.073 16.7458 92.699 4.03893L92.1924 3.76027L92.7548 3.68427C114.034 0.826738 134.245 6.72421 149.723 20.2772C157.954 27.5323 164.463 36.5332 168.773 46.6233C173.409 57.2631 175.755 68.9719 175.75 81.3748C182.701 85.347 185.924 89.7802 185.067 94.1881C183.248 103.556 163.418 111.886 133.307 115.934L133.11 115.944ZM93.3729 3.97307C115.595 17.1461 133.525 66.9199 133.49 115.493C163.312 111.44 182.929 103.257 184.708 94.0817C185.534 89.8258 182.342 85.5142 175.476 81.618L175.385 81.5623V81.4508C175.385 69.058 173.07 57.3796 168.444 46.7399C164.15 36.7075 157.674 27.759 149.485 20.5458C134.245 7.19033 114.323 1.31313 93.3729 3.97307Z" fill="#54FF8E"/>
<path d="M127.846 67.994L127.795 67.614C153.635 64.1434 170.638 57.0553 172.178 49.1261C172.888 45.4681 170.152 41.7543 164.224 38.3952L164.411 38.0608C170.491 41.5111 173.293 45.3617 172.548 49.2072C170.982 57.2934 153.852 64.4981 127.846 67.994Z" fill="#54FF8E"/>
<path d="M113.31 27.8416L113.259 27.4666C128.317 25.44 138.227 21.326 139.098 16.7255C139.504 14.6229 137.913 12.4848 134.488 10.5393L134.675 10.21C138.252 12.2366 139.914 14.5216 139.468 16.7965C138.566 21.5641 128.535 25.7947 113.31 27.8416Z" fill="#54FF8E"/>
<path d="M169.802 106.936H169.422C169.513 58.0889 135.121 11.9326 92.7599 4.05413L92.8258 3.6792C135.359 11.5729 169.893 57.9116 169.802 106.936Z" fill="#54FF8E"/>
<path d="M184.966 94.6643H184.586C184.677 45.8329 143.496 5.19407 92.7903 4.07436V3.69437C143.709 4.79888 185.057 45.61 184.966 94.6643Z" fill="#54FF8E"/>
<path d="M92.309 185.194H91.9188L90.5357 185.168H89.9175C89.3552 185.168 88.5648 185.128 87.8909 185.087C84.0715 184.891 80.2677 184.459 76.5013 183.795C69.6258 182.58 62.9114 180.585 56.4884 177.847C53.2524 176.446 50.0901 174.88 47.014 173.155C44.1813 171.578 41.4471 169.83 38.8264 167.922C38.3806 167.582 37.8992 167.223 37.3977 166.853C35.7004 165.586 33.7751 164.152 32.3767 162.865C31.9106 162.44 31.3989 161.974 30.8567 161.492C29.656 160.413 28.4096 159.293 27.4267 158.305C25.704 156.573 23.5254 154.222 22.0105 152.459C19.8674 149.966 17.1872 146.277 13.8078 141.191C12.3921 138.94 11.09 136.62 9.90653 134.239C8.69074 131.91 7.60649 129.515 6.65887 127.065C4.98609 122.53 3.542 117.913 2.33203 113.233C1.41499 109.357 0.771535 104.144 0.305412 100.035C0.0926167 98.1097 0.0571504 95.6726 0.0318176 93.5244V92.4807C-0.0194525 89.7293 0.107477 86.9775 0.411809 84.2425C0.503007 83.5484 0.594203 82.7783 0.690467 81.9778C0.898196 80.2095 1.11606 78.3805 1.37952 76.8757C1.81018 74.4235 2.49923 71.2569 3.09708 68.9972C3.67467 66.8135 4.53092 64.0219 5.2301 62.0561C5.82289 60.379 6.6842 58.3068 7.44418 56.4828L8.2143 54.6082C9.29959 52.07 10.5503 49.6057 11.9585 47.2313C13.9243 43.9127 16.9744 39.3579 19.7255 35.6238C21.4338 33.338 23.2959 31.1713 25.2987 29.1386L26.6768 27.7504C27.7813 26.6307 29.0378 25.3539 30.1018 24.4065C32.0828 22.6433 34.9404 20.2823 37.3825 18.3874C39.1253 17.0346 41.5776 15.4286 42.5503 14.8003C43.9791 13.8782 45.8993 12.7737 47.4446 11.8617L47.9006 11.5982C50.9852 9.84103 54.1882 8.30046 57.4865 6.98767C60.3137 5.88823 62.4568 5.10291 64.0275 4.59119C66.0845 3.92747 68.8761 3.16749 70.8014 2.67604C73.2233 2.06298 76.3746 1.49553 77.2664 1.3334C79.293 0.978739 80.9649 0.781142 82.7281 0.57848C83.3716 0.502481 85.8592 0.269421 87.2019 0.203556C89.036 0.112358 90.6167 0.0312923 93.3172 0.046492C97.5879 0.091036 101.851 0.429607 106.075 1.0598C108.127 1.35366 110.508 1.80965 111.607 2.04272C113.183 2.38217 115.504 2.9547 117.829 3.56268C119.146 3.91734 120.991 4.49493 122.414 4.99651C124.527 5.74636 127.005 6.69381 128.737 7.41833C131.777 8.68497 135.638 10.7471 138.207 12.11C138.795 12.4443 139.377 12.7889 139.955 13.1233C141.759 14.1923 143.851 15.4792 145.406 16.6344C145.862 16.9738 146.369 17.3437 146.896 17.7237C148.102 18.6053 149.47 19.6034 150.514 20.4546C152.615 22.1123 154.631 23.8761 156.553 25.739C157.004 26.2051 157.505 26.7118 158.032 27.259C159.182 28.4141 160.373 29.6048 161.305 30.6485C163.048 32.5991 165.034 34.9956 166.372 36.7283C167.709 38.4611 169.331 40.7816 170.4 42.4637C170.987 43.3807 173.019 46.5929 174.387 49.2377C176.747 53.6544 178.741 58.2567 180.35 62.9984C182.033 67.9383 183.39 74.5502 183.897 77.1595C184.368 79.5863 184.698 82.8796 184.91 85.2153C185.047 86.8872 185.103 88.9949 185.148 90.8594C185.148 91.5282 185.184 92.1717 185.204 92.7594C185.258 95.8522 185.099 98.945 184.728 102.016C184.414 104.615 184.069 107.3 183.679 109.362C183.223 111.799 182.499 114.961 181.875 117.221C181.283 119.389 180.396 122.161 179.677 124.126C179.043 125.839 178.157 127.952 177.341 129.816L176.606 131.544C175.638 133.71 174.554 135.822 173.359 137.872C172.396 139.559 171.074 141.626 169.908 143.445L169.052 144.823C167.428 147.255 165.662 149.588 163.763 151.81C160.865 155.26 157.731 158.506 154.384 161.523C152.358 163.286 149.46 165.637 146.967 167.521C145.584 168.565 143.684 169.796 142.159 170.784L141.799 171.017C138.446 173.115 134.967 175.005 131.382 176.677C130.121 177.234 126.908 178.637 124.411 179.56C122.541 180.249 119.851 181.12 117.672 181.728C114.471 182.627 111.226 183.359 107.949 183.922C105.497 184.337 104.114 184.494 102.508 184.677C101.571 184.783 99.2755 184.986 98.0342 185.047C96.271 185.138 95.131 185.194 93.915 185.199H92.309V185.194ZM92.6991 0.426484C90.3887 0.426484 88.9245 0.497416 87.2475 0.583547C85.9099 0.649413 83.4374 0.877407 82.799 0.953406C81.0359 1.16113 79.374 1.35366 77.3576 1.70832C74.9509 2.13391 72.5443 2.63043 70.923 3.04589C69.0028 3.55255 66.2213 4.29227 64.1693 4.95598C62.6038 5.46264 60.4707 6.24289 57.6487 7.34233C54.3692 8.63746 51.1846 10.1612 48.1185 11.9022L47.6625 12.1657C46.1425 13.0625 44.202 14.1923 42.7783 15.0942C41.8106 15.7173 39.3736 17.3184 37.6408 18.6407C35.2038 20.5306 32.3564 22.8865 30.3805 24.6446C29.3266 25.5819 28.0752 26.8536 26.9707 27.9733L25.5926 29.3616C23.5965 31.3789 21.7428 33.5323 20.0447 35.8062C17.2936 39.5302 14.2536 44.0698 12.2929 47.3833C10.8999 49.75 9.66439 52.2058 8.59429 54.7349C8.35617 55.3175 8.08764 55.9509 7.81911 56.6095C7.0642 58.4335 6.20288 60.5006 5.61009 62.1827C4.91598 64.1435 4.09013 66.9149 3.48721 69.0935C2.88429 71.2721 2.21044 74.4995 1.77978 76.9416C1.51632 78.4362 1.29846 80.2602 1.09073 82.0081C0.999531 82.8087 0.908329 83.5788 0.817131 84.278C0.512604 86.9943 0.385675 89.7276 0.437143 92.4604V93.5042C0.467543 95.6423 0.503006 98.0641 0.715802 99.9742C1.17179 104.078 1.81018 109.276 2.74242 113.147C3.94731 117.814 5.38806 122.417 7.05913 126.938C8.00091 129.375 9.07839 131.756 10.2865 134.072C11.4613 136.439 12.755 138.746 14.1624 140.983C16.6677 144.883 19.3981 148.633 22.3399 152.215C23.8598 153.973 26.0182 156.319 27.7357 158.047C28.7136 159.025 29.9498 160.139 31.1506 161.219C31.6876 161.7 32.2044 162.161 32.6706 162.587C34.0588 163.863 35.979 165.292 37.6662 166.554C38.1728 166.924 38.6491 167.283 39.0949 167.623C41.7016 169.52 44.4205 171.257 47.2369 172.826C50.3017 174.544 53.4521 176.105 56.6759 177.503C66.5979 181.726 77.187 184.167 87.9568 184.712C88.6104 184.753 89.3957 184.783 89.9581 184.793H90.5711L91.9492 184.819C92.3647 184.819 92.8713 184.819 93.3425 184.819H93.9454C95.1513 184.819 96.2913 184.758 97.9987 184.672C99.2653 184.606 101.545 184.403 102.483 184.297C104.079 184.114 105.462 183.957 107.899 183.547C111.164 182.989 114.397 182.26 117.586 181.363C119.739 180.76 122.435 179.889 124.294 179.205C126.787 178.288 129.984 176.889 131.245 176.327C134.81 174.664 138.27 172.786 141.607 170.703L141.966 170.465C143.486 169.482 145.381 168.251 146.754 167.217C149.242 165.338 152.145 162.992 154.151 161.239C157.483 158.232 160.603 154.999 163.489 151.562C165.379 149.353 167.135 147.034 168.748 144.616L169.619 143.248C170.78 141.434 172.097 139.377 173.06 137.674C174.249 135.641 175.33 133.545 176.297 131.397L177.032 129.664C177.827 127.805 178.729 125.697 179.357 123.995C180.077 122.039 180.958 119.278 181.551 117.119C182.169 114.865 182.894 111.723 183.35 109.297C183.73 107.24 184.074 104.559 184.389 101.97C184.759 98.9198 184.918 95.8472 184.865 92.7746C184.865 92.1818 184.829 91.5383 184.809 90.8645C184.763 89.0101 184.713 86.9075 184.576 85.2457C184.383 82.9201 184.069 79.6421 183.563 77.2355C183.056 74.6262 181.683 68.0397 180.016 63.12C178.415 58.3911 176.431 53.8007 174.083 49.3947C172.72 46.7652 170.699 43.5682 170.111 42.6511C169.047 40.9893 167.471 38.7499 166.098 36.9462C164.725 35.1425 162.795 32.8119 161.032 30.8663C160.105 29.853 158.919 28.6421 157.774 27.492C157.267 26.9854 156.761 26.4787 156.289 25.972C154.378 24.1165 152.373 22.3612 150.28 20.713L150.154 20.6066C166.118 34.7929 175.431 56.0421 175.74 80.0322C175.74 80.4375 175.74 80.8479 175.74 81.2583V81.4356C175.674 130.485 138.298 175.385 92.4913 181.546L92.4407 181.171C138.085 175.03 175.284 130.303 175.385 81.461V81.2836C175.385 52.1864 162.126 26.9955 139.783 13.4374L138.045 12.4241C135.486 11.0662 131.61 9.00923 128.611 7.74765C126.888 7.0282 124.416 6.08076 122.308 5.33598C120.894 4.82932 119.06 4.26186 117.748 3.91227C115.433 3.28909 113.117 2.71656 111.547 2.39231C110.452 2.15418 108.086 1.70325 106.044 1.40939C101.836 0.793385 97.5905 0.464988 93.3375 0.426484H92.6991Z" fill="#54FF8E"/>
<defs>
<clipPath id="clip0_525_4246">
<rect width="58.6737" height="62.056" fill="white" transform="translate(60.3501 55.3209)"/>
</clipPath>
</defs>
</svg>
