<svg width="192" height="300" viewBox="0 0 192 300" fill="none" xmlns="http://www.w3.org/2000/svg">
<path d="M45.1271 205.905L45.1389 206.393H45.6269H92.3336H92.8152L92.8332 205.912L94.0555 173.319C112.922 172.997 129.5 169.822 143.78 163.781C158.468 157.684 169.983 148.393 178.308 135.907C186.919 123.405 191.207 107.593 191.207 88.5067C191.207 69.9715 187.057 54.3043 178.729 41.5322C170.686 28.4991 159.454 18.5176 145.045 11.5902C130.913 4.66278 114.578 1.20667 96.0536 1.20667C76.1515 1.20667 58.9844 4.93843 44.5698 12.4229L44.5663 12.4248C30.4352 19.9059 19.6168 30.166 12.1267 43.2043C4.63705 56.2418 1.03677 71.0747 1.31366 87.6883L1.32185 88.18H1.81359H51.8269H52.3269V87.68C52.3269 74.8343 56.1494 64.7798 63.7473 57.4533L63.7474 57.4533L63.7538 57.4469C71.3525 49.8482 81.9584 46.02 95.6403 46.02C108.764 46.02 119.239 49.8443 127.12 57.453L127.12 57.4531L127.126 57.4593C134.995 64.7851 138.954 74.9738 138.954 88.0933C138.954 101.792 135.529 112.12 128.76 119.16C121.952 126.24 112.817 131.021 101.322 133.484C89.789 135.956 77.0114 137.193 62.9869 137.193H43.9736H43.4613L43.4737 137.705L45.1271 205.905ZM44.8599 290.154L44.868 290.161C51.3085 296.322 59.4277 299.393 69.1869 299.393C78.9459 299.393 86.9324 296.322 93.1005 290.154C99.2561 283.998 102.34 276.569 102.34 267.893C102.34 258.947 99.2594 251.379 93.1005 245.22C86.9324 239.052 78.9459 235.98 69.1869 235.98C59.4277 235.98 51.3085 239.052 44.8679 245.212L44.86 245.22C38.7011 251.379 35.6203 258.947 35.6203 267.893C35.6203 276.569 38.7044 283.998 44.8599 290.154Z" stroke="#54FF8E"/>
</svg>
