<svg width="238" height="300" viewBox="0 0 238 300" fill="none" xmlns="http://www.w3.org/2000/svg">
 <path opacity="0.1" d="M61.8623 201.179L61.7482 201.654L62.2197 201.779L107.353 213.802L107.818 213.926L107.959 213.466L117.53 182.286C135.843 186.831 152.68 188.03 168.034 185.869C183.797 183.758 197.315 177.743 208.573 167.821C220.113 157.957 228.326 143.782 233.239 125.339C238.01 107.428 238.033 91.2207 233.274 76.7353C228.856 62.071 220.572 49.5346 208.432 39.1318C196.559 28.7999 181.664 21.2555 163.764 16.4872C144.532 11.3642 126.983 10.5513 111.128 14.0731L111.124 14.074C95.5434 17.6656 82.4485 24.7952 71.8547 35.4661C61.2614 46.1364 53.9643 59.5427 49.9554 75.6678L49.8368 76.145L50.3119 76.2716L98.6399 89.1454L99.1231 89.2741L99.2518 88.791C102.558 76.3781 108.84 67.6464 118.068 62.5225L118.068 62.5226L118.076 62.518C127.375 57.1314 138.608 56.1622 151.829 59.6841C164.51 63.0622 173.648 69.454 179.305 78.8349L179.305 78.8349L179.31 78.8426C185.027 87.947 186.23 98.8114 182.853 111.489C179.327 124.726 173.36 133.824 165.006 138.885C156.605 143.974 146.547 146.242 134.806 145.664C123.025 145.083 110.359 142.99 96.8074 139.38L78.4348 134.486L77.9398 134.354L77.82 134.852L61.8623 201.179ZM39.918 282.52L39.9238 282.529C44.5615 290.14 51.6165 295.198 61.0468 297.71C70.477 300.222 78.985 299.31 86.533 294.937C94.0656 290.573 98.9582 284.189 101.191 275.805C103.494 267.161 102.465 259.054 98.0993 251.518C93.7268 243.97 86.8001 238.946 77.37 236.434C67.9396 233.921 59.3033 234.8 51.494 239.094L51.4844 239.1C43.9477 243.466 39.0225 249.986 36.7196 258.631C34.4865 267.014 35.5544 274.987 39.918 282.52Z" stroke="#54FF8E"/>
<path d="M45.1271 205.905L45.1389 206.393H45.6269H92.3336H92.8152L92.8332 205.912L94.0555 173.319C112.922 172.997 129.5 169.822 143.78 163.781C158.468 157.684 169.983 148.393 178.308 135.907C186.919 123.405 191.207 107.593 191.207 88.5067C191.207 69.9715 187.057 54.3043 178.729 41.5322C170.686 28.4991 159.454 18.5176 145.045 11.5902C130.913 4.66278 114.578 1.20667 96.0536 1.20667C76.1515 1.20667 58.9844 4.93843 44.5698 12.4229L44.5663 12.4248C30.4352 19.9059 19.6168 30.166 12.1267 43.2043C4.63705 56.2418 1.03677 71.0747 1.31366 87.6883L1.32185 88.18H1.81359H51.8269H52.3269V87.68C52.3269 74.8343 56.1494 64.7798 63.7473 57.4533L63.7474 57.4533L63.7538 57.4469C71.3525 49.8482 81.9584 46.02 95.6403 46.02C108.764 46.02 119.239 49.8443 127.12 57.453L127.12 57.4531L127.126 57.4593C134.995 64.7851 138.954 74.9738 138.954 88.0933C138.954 101.792 135.529 112.12 128.76 119.16C121.952 126.24 112.817 131.021 101.322 133.484C89.789 135.956 77.0114 137.193 62.9869 137.193H43.9736H43.4613L43.4737 137.705L45.1271 205.905ZM44.8599 290.154L44.868 290.161C51.3085 296.322 59.4277 299.393 69.1869 299.393C78.9459 299.393 86.9324 296.322 93.1005 290.154C99.2561 283.998 102.34 276.569 102.34 267.893C102.34 258.947 99.2594 251.379 93.1005 245.22C86.9324 239.052 78.9459 235.98 69.1869 235.98C59.4277 235.98 51.3085 239.052 44.8679 245.212L44.86 245.22C38.7011 251.379 35.6203 258.947 35.6203 267.893C35.6203 276.569 38.7044 283.998 44.8599 290.154Z" stroke="#54FF8E"/>
</svg>