<svg width="344" height="487" viewBox="0 0 344 487" fill="none" xmlns="http://www.w3.org/2000/svg">
<path d="M301.407 551.069L301.226 550.97C227.948 509.317 168.468 345.447 168.814 185.675V185.096H169.36C318.624 165.021 499.628 182.535 572.872 224.139L573.186 224.321V224.684C572.888 384.523 451.002 530.945 301.622 551.036L301.407 551.069ZM170.12 186.22C169.971 345.282 228.94 508.21 301.721 549.714C450.424 529.607 571.533 384.01 571.996 224.949C498.801 183.692 318.822 166.31 170.12 186.22Z" fill="#54FF8E"/>
<path d="M437.784 493.059C401.005 472.158 309.966 463.318 234.871 473.463L234.706 472.24C310.032 462.112 401.418 470.968 438.395 491.968L437.784 493.059Z" fill="#54FF8E"/>
<path d="M535.002 376.112C471.969 340.308 316.03 325.24 187.386 342.539L187.22 341.316C316.096 323.984 472.382 339.119 535.613 375.038L535.002 376.112Z" fill="#54FF8E"/>
<path d="M301.771 551.003L301.292 549.863C392.959 511.646 467.772 350.932 468.07 191.589H469.309C469.012 351.395 393.851 512.621 301.771 551.003Z" fill="#54FF8E"/>
<path d="M302.135 550.59L300.928 550.276C313.056 504.311 323.151 337.136 323.449 177.595H324.688C324.39 337.219 314.279 504.542 302.135 550.59Z" fill="#54FF8E"/>
<path d="M267.602 553.349C210.897 553.349 157.959 533.853 115.81 496.925C88.9621 473.27 67.7371 443.916 53.6859 411.008C38.5678 376.311 30.9179 338.127 30.9509 297.68C8.2821 284.71 -2.2262 270.27 0.549581 255.895C6.54724 225.428 71.1666 198.314 169.36 185.096L170.054 184.997V185.708C169.756 345.083 228.874 508.474 301.837 549.929L303.489 550.838L301.672 551.069C290.379 552.588 278.997 553.349 267.602 553.349ZM168.798 186.385C71.5467 199.603 7.57163 226.287 1.77224 256.209C-0.920923 270.088 9.48824 284.148 31.8762 296.854L32.1901 297.036V297.449C32.1075 337.863 39.7244 375.947 54.8094 410.645C68.8115 443.356 89.9333 472.533 116.637 496.049C166.386 539.636 231.319 558.835 299.639 550.094C227.172 507.02 168.699 344.786 168.815 186.385H168.798Z" fill="#54FF8E"/>
<path d="M164.882 529.739C153.217 523.13 147.814 515.678 149.252 508.259C152.259 492.728 184.973 478.932 234.64 472.257L234.805 473.48C185.684 480.089 153.383 493.505 150.541 508.507C149.202 515.364 154.407 522.337 165.56 528.681L164.882 529.739Z" fill="#54FF8E"/>
<path d="M67.9945 438.915C48.1675 427.679 39.0141 415.122 41.4429 402.565C46.5648 376.129 102.411 352.684 187.221 341.283L187.386 342.506C103.121 353.84 47.6719 376.939 42.649 402.796C40.3359 414.742 49.258 426.853 68.6058 437.808L67.9945 438.915Z" fill="#54FF8E"/>
<path d="M301.424 551.036C162.635 525.228 50.117 374.246 50.4144 214.325H51.6536C51.3562 373.618 163.494 524.121 301.639 549.814L301.424 551.036Z" fill="#54FF8E"/>
<path d="M301.523 551.053C135.423 547.385 0.648887 414.313 0.946292 254.392H2.18548C1.88807 413.619 136.183 546.146 301.54 549.797L301.523 551.053Z" fill="#54FF8E"/>
<path d="M334.981 560.685C323.145 560.45 311.573 557.136 301.407 551.069C232.145 560.338 166.254 541.156 115.827 496.925C88.9786 473.27 67.7536 443.916 53.7024 411.008C38.5347 376.162 30.8848 337.896 30.9675 297.317V296.259L31.8927 296.771C104.922 338.276 285.595 355.724 434.612 335.682L435.322 335.583V336.293C435.124 444.185 407.614 527.111 363.548 552.738C354.91 557.898 345.043 560.642 334.981 560.685ZM301.655 549.78L301.837 549.896C323.316 562.123 343.936 562.75 362.97 551.713C406.573 526.401 433.819 444.185 434.132 337.086C285.628 356.913 105.963 339.614 32.2562 298.457C32.2562 338.474 39.9226 376.195 54.8755 410.595C68.8776 443.306 89.9994 472.483 116.703 496C166.898 539.982 232.525 559.099 301.507 549.813L301.655 549.78Z" fill="#54FF8E"/>
<path d="M303.853 479.824C206.981 479.824 113.448 464.739 67.9944 438.914L68.6057 437.84C131.639 473.661 287.562 488.713 416.222 471.414L416.371 472.637C379.064 477.51 341.476 479.911 303.853 479.824Z" fill="#54FF8E"/>
<path d="M262.646 559.281C245.032 559.232 227.842 553.883 213.309 543.931C163.957 510.969 134.613 431.165 134.795 330.461H136.034C135.852 430.752 164.998 510.159 214.003 542.89C240.125 560.355 270.312 562.717 301.259 549.863L301.738 551.003C289.384 556.325 276.096 559.139 262.646 559.281Z" fill="#54FF8E"/>
<path d="M295.476 562.866H295.195C284.043 561.412 279.251 452.166 279.449 344.456H280.688C280.424 485.723 287.876 560.636 295.36 561.611C296.153 561.759 298.169 560.784 300.928 550.276L302.135 550.59C299.937 558.934 297.806 562.866 295.476 562.866Z" fill="#54FF8E"/>
<path d="M334.981 560.685C323.977 560.685 312.609 557.381 301.225 550.97L299.573 550.061L301.407 549.813C333.844 545.332 365.238 535.17 394.148 519.792C419.196 480.502 433.884 415.139 434.033 336.393V335.847H434.562C488.739 328.561 532.639 317.078 561.983 303.166C568.486 277.526 571.815 251.185 571.897 224.734V223.676L572.822 224.188C595.706 237.192 606.313 251.715 603.521 266.156C600.894 279.721 586.668 292.592 563.057 303.942C539.43 397.014 476.232 477.924 394.991 520.833C385.804 535.175 375.164 546.046 363.499 552.87C354.861 557.975 345.014 560.674 334.981 560.685ZM303.456 550.772C324.407 562.139 344.415 562.453 362.937 551.697C374.024 545.27 384.053 535.175 392.843 521.874C364.894 536.491 334.671 546.268 303.456 550.788V550.772ZM435.322 336.905C435.107 414.428 420.799 478.998 396.362 518.652C476.099 475.809 538.108 396.138 561.587 304.537C532.226 318.334 488.756 329.701 435.322 336.921V336.905ZM573.169 225.709C573.008 251.559 569.751 277.297 563.47 302.373C586.172 291.385 599.82 278.911 602.348 265.825C605.008 252.161 594.913 238.299 573.169 225.725V225.709Z" fill="#54FF8E"/>
<path d="M341.475 554.787C328.038 554.769 314.631 553.513 301.424 551.036L301.639 549.813C362.557 561.148 421.344 546.509 467.178 508.507C521.239 463.649 552.334 390.504 552.5 307.792H553.739C553.574 390.867 522.346 464.376 467.971 509.366C432.481 538.95 387.677 555.038 341.475 554.787Z" fill="#54FF8E"/>
<path d="M308.611 551.119C306.249 551.119 303.886 551.119 301.523 551.119V549.88C383.723 551.681 460.42 521.907 517.654 466.011C571.864 413.139 601.803 342.671 601.918 267.742H603.158C603.025 343.018 572.954 413.751 518.513 466.92C462.716 521.345 388.398 551.119 308.611 551.119Z" fill="#54FF8E"/>
<path d="M573.169 225.709L572.244 225.197C499.215 183.692 318.558 166.244 169.525 186.286L168.815 186.385V185.675C169.013 77.7665 196.523 -5.15988 240.605 -30.7697C259.672 -41.8398 281.151 -41.245 302.729 -29.1175C371.975 -38.3701 437.883 -19.204 488.31 25.0267C515.153 48.6862 536.377 78.0387 550.434 110.944C565.602 145.789 573.252 184.039 573.186 224.635L573.169 225.709ZM299.689 176.736C411.249 176.736 518.959 194.002 571.947 223.594C571.947 183.56 564.264 145.839 549.311 111.456C535.309 78.7395 514.187 49.5575 487.484 26.0346C437.288 -17.9483 371.694 -37.0483 302.696 -27.7791H302.482L302.3 -27.8783C280.821 -40.1214 260.201 -40.7328 241.167 -29.7123C197.63 -4.3668 170.384 77.8491 170.12 184.964C213.083 179.387 256.366 176.638 299.689 176.736Z" fill="#54FF8E"/>
<path d="M535.548 84.21C472.481 48.3892 316.559 33.3373 187.931 50.6363L187.766 49.3971C316.641 32.065 472.911 47.1996 536.159 83.1195L535.548 84.21Z" fill="#54FF8E"/>
<path d="M469.309 191.59H468.07C468.251 91.2982 439.106 11.8746 390.1 -20.8564C363.978 -38.3207 333.808 -40.6834 302.845 -27.8124L302.366 -28.9689C333.758 -42.0382 364.292 -39.5764 390.794 -21.8973C440.147 11.0815 469.491 90.9182 469.309 191.59Z" fill="#54FF8E"/>
<path d="M324.688 177.595H323.449C323.779 36.3937 316.261 -38.6018 308.777 -39.6097C308.033 -39.7254 305.984 -38.8001 303.209 -28.2753L302.002 -28.5892C304.299 -37.2635 306.53 -41.1463 308.942 -40.8489C320.095 -39.3619 324.886 69.9343 324.688 177.595Z" fill="#54FF8E"/>
<path d="M32.2066 298.457L31.2814 297.945C8.38122 284.942 -2.22622 270.418 0.566082 255.978C3.20968 242.413 17.419 229.542 41.0296 218.191C64.6568 125.103 127.855 44.1925 209.113 1.28366C218.299 -13.0579 228.94 -23.9296 240.605 -30.7534C259.721 -41.8565 281.267 -41.2287 302.911 -28.936L304.563 -28.0272L302.746 -27.7794C270.286 -23.306 238.869 -13.1433 209.939 2.24197C184.891 41.5324 170.285 106.895 170.054 185.642V186.187H169.525C115.348 193.473 71.4641 204.956 42.1201 218.868C35.6174 244.508 32.2879 270.849 32.2066 297.3V298.457ZM40.6661 219.661C17.9808 230.649 4.31668 243.123 1.78874 256.209C-0.871377 269.89 9.22387 283.752 30.9675 296.326C31.1289 270.475 34.3849 244.737 40.6661 219.661ZM207.791 3.34897C128.037 46.3074 66.0282 125.896 42.4836 217.513C71.9102 203.717 115.381 192.35 168.815 185.129C169.029 107.589 183.338 43.0029 207.791 3.34897ZM269.255 -37.5111C259.36 -37.476 249.657 -34.7764 241.166 -29.696C230.08 -23.2522 220.051 -13.1735 211.261 0.0444717C239.222 -14.5203 269.443 -24.2568 300.647 -28.7542C289.897 -34.5811 279.433 -37.5001 269.255 -37.5111Z" fill="#54FF8E"/>
<path d="M68.5231 147.094C48.6962 135.842 39.5592 123.285 41.988 110.745C47.0935 84.3088 102.956 60.8634 187.766 49.4629L187.931 50.7021C103.666 62.02 48.217 85.1349 43.1942 110.993C40.881 122.938 49.8032 135.033 69.1345 145.987L68.5231 147.094Z" fill="#54FF8E"/>
<path d="M165.807 30.0657C154.143 23.4567 148.74 16.0051 150.177 8.58647C153.184 -6.94466 185.915 -20.7409 235.565 -27.416L235.731 -26.1933C186.609 -19.5844 154.308 -6.1681 151.466 8.81778C150.128 15.6746 155.332 22.6636 166.485 29.0083L165.807 30.0657Z" fill="#54FF8E"/>
<path d="M51.654 214.324H50.4148C50.5635 131.233 81.8075 57.7242 136.183 12.6509C182.297 -25.6151 241.448 -40.4028 302.713 -29.0023L302.498 -27.7796C241.58 -39.114 182.793 -24.4751 136.96 13.5266C82.898 58.4512 51.8027 131.613 51.654 214.324Z" fill="#54FF8E"/>
<path d="M2.18548 254.49H0.946289C1.09499 179.214 31.1494 108.465 85.6075 55.2954C143.089 -0.881001 220.15 -30.7371 302.614 -28.9692V-27.73C220.464 -29.5475 143.734 0.242517 86.4997 56.1381C32.2564 109.093 2.33418 179.445 2.18548 254.49Z" fill="#54FF8E"/>
<path d="M304.448 345.364C192.243 345.364 83.9221 327.851 31.331 297.945L31.0171 297.763V297.449C31.331 137.512 153.085 -8.91062 302.531 -29.002H302.729L302.911 -28.9028C376.221 12.7504 435.62 176.637 435.322 336.409V336.954H434.777C391.567 342.63 348.029 345.44 304.448 345.364ZM32.2067 297.036C105.352 338.342 285.364 355.741 434.083 335.831C434.248 176.769 375.279 13.8243 302.481 -27.6636C153.845 -7.63838 32.6693 137.958 32.2067 297.036Z" fill="#54FF8E"/>
<path d="M304.398 187.905C207.527 187.905 113.993 172.837 68.5229 147.012L69.1343 145.921C132.118 181.792 288.107 196.811 416.751 179.495L416.916 180.734C379.609 185.602 342.021 187.998 304.398 187.905Z" fill="#54FF8E"/>
<path d="M303.754 53.9902C247.115 53.9902 192.409 45.1672 165.807 30.0657L166.419 28.9917C203.214 49.8761 294.237 58.7322 369.348 48.5708L369.513 49.7935C347.71 52.6446 325.742 54.0466 303.754 53.9902Z" fill="#54FF8E"/>
<path d="M136.067 330.494H134.828C135.125 170.689 210.286 9.44569 302.366 -28.936L302.845 -27.7795C211.178 10.3875 136.364 171.102 136.067 330.494Z" fill="#54FF8E"/>
<path d="M280.688 344.455H279.449C279.747 184.832 289.875 17.5086 302.002 -28.5396L303.209 -28.2256C291.081 17.7234 280.986 184.914 280.688 344.455Z" fill="#54FF8E"/>
<path d="M434.083 337.103V336.393C434.38 177.001 375.263 13.6097 302.3 -27.8287L300.647 -28.7374L302.481 -28.9853C371.876 -38.3039 437.784 -19.0718 488.26 25.1259C515.104 48.7853 536.328 78.1379 550.385 111.043C565.503 145.74 573.153 183.923 573.136 224.37C595.805 237.324 606.313 251.781 603.521 266.156C597.589 296.706 532.92 323.869 434.727 337.07L434.083 337.103ZM304.497 -28.0435C376.965 14.915 435.438 177.232 435.322 335.633C532.574 322.415 596.549 295.731 602.348 265.809C605.041 251.93 594.632 237.869 572.244 225.164L571.947 224.982V224.618C571.947 184.204 564.396 146.12 549.311 111.423C535.309 78.7065 514.187 49.5245 487.484 26.0015C437.784 -17.5517 372.818 -36.7178 304.497 -28.0435Z" fill="#54FF8E"/>
<path d="M553.739 307.726H552.5C552.797 148.433 440.643 -2.08682 302.498 -27.7793L302.713 -29.002C441.419 -3.25993 554.036 147.855 553.739 307.726Z" fill="#54FF8E"/>
<path d="M603.191 267.708H601.951C602.249 108.465 467.954 -24.062 302.597 -27.7135V-28.9526C468.648 -25.3507 603.488 107.738 603.191 267.708Z" fill="#54FF8E"/>
</svg>
