<svg width="472" height="487" viewBox="0 0 472 487" fill="none" xmlns="http://www.w3.org/2000/svg">
<path d="M438.865 418.814V417.749C441.719 262.201 332.702 69.3028 195.892 -12.2853L195.023 -12.8054L195.892 -13.3008C216.489 -25.2393 235.597 -27.2208 249.966 -18.8242C264.334 -10.4276 271.556 6.63801 271.208 29.7472C365.931 86.4179 441.396 219.946 439.585 327.764C460.182 340.148 471.448 356.421 471.349 373.685C471.25 390.949 460.033 406.528 439.783 418.269L438.865 418.814ZM197.381 -12.7807C333.869 69.1046 442.414 261.31 440.106 416.708C459.388 405.24 470.059 389.983 470.158 373.685C470.158 356.768 459.065 340.768 438.666 328.606L438.369 328.433V328.086C440.329 220.491 364.913 87.0372 270.265 30.5893L269.967 30.4159V30.0692C270.389 7.25724 263.069 -9.75888 249.345 -17.8087C235.622 -25.8585 217.233 -24.0504 197.381 -12.7807Z" fill="#54FF8E"/>
<path d="M467.949 389.314H466.733C469.438 240.33 364.987 55.5559 234.009 -22.5893L234.604 -23.6296C365.98 54.6889 470.679 239.934 467.949 389.314Z" fill="#54FF8E"/>
<path d="M408.466 255.514L407.845 254.474C431.123 240.975 443.754 228.788 441.645 221.878C440.18 217.147 431.569 215.067 417.35 216.033V214.844C432.388 213.803 441.223 216.132 442.861 221.531C445.119 229.11 432.612 241.495 408.466 255.514Z" fill="#54FF8E"/>
<path d="M357.37 108.883L356.427 108.14C364.79 97.2666 367.916 89.5883 365.236 86.5666C361.191 81.9844 344.713 87.3839 321.188 101.056L320.592 100.016C345.011 85.8483 361.613 80.6468 366.13 85.7739C369.281 89.3406 366.254 97.3161 357.37 108.883Z" fill="#54FF8E"/>
<path d="M95.6601 124.066L94.7667 123.546C52.7781 98.5049 -15.3169 97.8113 -57.0574 122.01L-57.9756 122.555V121.49C-56.6355 47.0108 -30.0824 -8.29769 16.7205 -34.2553C64.9876 -61.0054 128.715 -53.6244 196.19 -13.4991C216.663 -25.2642 235.721 -27.1715 249.941 -18.8244C264.161 -10.4774 271.605 6.81116 271.184 30.0937V31.1093L270.29 30.5891C223.835 2.87297 179.985 -2.25416 146.88 16.0994C114.793 33.8833 96.6279 71.8538 95.6849 123.026L95.6601 124.066ZM16.8942 103.112C44.8618 103.112 72.9783 109.428 94.4938 121.986C95.6601 70.8878 114.049 32.9422 146.285 15.0592C179.588 -3.41824 223.487 1.56022 270.017 29.0287C270.191 6.73688 262.87 -9.88292 249.37 -17.8089C235.473 -25.9578 216.688 -23.9763 196.512 -12.2855L196.19 -12.0873L195.892 -12.2855C128.69 -52.3612 65.2854 -59.7918 17.2168 -33.215C-28.9905 -7.60421 -55.2707 46.9612 -56.8589 120.351C-36.2864 108.883 -9.78296 103.112 16.8942 103.112Z" fill="#54FF8E"/>
<path d="M-7.97225 105.514H-9.18823C-7.87299 34.1802 17.5386 -18.8248 62.4059 -43.6925C108.688 -69.3529 169.859 -62.2443 234.604 -23.6299L234.008 -22.5896C169.636 -60.9811 108.886 -68.0897 62.9766 -42.6523C18.5064 -18.0074 -6.68182 34.6013 -7.97225 105.514Z" fill="#54FF8E"/>
<path d="M182.814 5.22613C171.82 -23.7037 151.595 -45.2277 127.3 -53.8472C118.012 -57.1983 108.097 -58.4587 98.264 -57.5381C88.431 -56.6175 78.9235 -53.5386 70.422 -48.5219L69.8264 -49.5623C78.4619 -54.679 88.1263 -57.8214 98.1243 -58.7637C108.122 -59.7059 118.205 -58.4244 127.648 -55.0113C152.29 -46.2927 172.788 -24.5211 183.881 4.75552L182.814 5.22613Z" fill="#54FF8E"/>
<path d="M119.88 38.738C84.0954 -6.9355 21.1124 -24.447 -20.5288 -0.29751L-21.1492 -1.33783C21.038 -25.7845 84.6909 -8.1492 120.823 37.9949L119.88 38.738Z" fill="#54FF8E"/>
<path d="M185.916 552.737L185.618 552.564C48.46 470.827 -60.8048 277.409 -57.951 121.589V121.242L-57.6532 121.069C-15.5901 96.6717 53.0509 97.3652 95.387 122.604L95.6848 122.778V123.125C93.7243 230.745 169.14 364.198 263.788 420.646L264.086 420.819V421.166C263.217 469.292 228.301 528.266 186.238 552.663L185.916 552.737ZM-56.7598 121.762C-59.4151 277.136 49.3533 469.663 185.916 551.276C227.408 527.027 261.828 468.871 262.845 421.315C168.098 364.644 92.6572 231.091 94.444 123.298C52.5546 98.5541 -15.1186 97.8854 -56.7598 121.837V121.762Z" fill="#54FF8E"/>
<path d="M224.132 518.457C92.7561 440.114 -11.9177 254.869 -9.13829 105.489H-7.92231C-10.6521 254.473 93.8232 439.247 224.802 517.392L224.132 518.457Z" fill="#54FF8E"/>
<path d="M-25.641 284.79L-26.2366 283.75C15.7272 259.402 79.9014 237.581 116.828 235.104V236.293C80.0255 238.794 16.0995 260.517 -25.641 284.79Z" fill="#54FF8E"/>
<path d="M61.5377 439.248L60.9421 438.207C102.782 413.934 154.697 370.886 176.684 342.253L177.652 342.972C155.516 371.728 103.402 414.925 61.5377 439.248Z" fill="#54FF8E"/>
<path d="M301.657 589.321C266.096 589.321 226.539 576.937 185.618 552.564L184.724 552.044L185.618 551.524C227.333 527.325 262.001 468.797 262.87 421.043V420.002L263.763 420.547C310.219 448.239 354.044 453.39 387.173 435.012C419.235 417.228 437.425 379.258 438.368 328.086V327.045L439.262 327.59C460.058 339.975 471.523 356.347 471.324 373.685C471.324 390.602 460.107 406.379 440.056 418.12C438.617 492.426 412.088 547.586 365.335 573.519C345.821 584.158 323.891 589.6 301.657 589.321ZM187.082 552.168C254.085 591.798 317.043 599.055 364.789 572.602C411.22 546.843 437.525 491.906 438.865 417.872V417.525L439.138 417.377C458.991 405.835 470.034 390.354 470.133 373.809C470.232 357.263 459.363 341.362 439.535 329.225C438.368 380.323 420.005 418.268 387.744 436.151C354.441 454.604 310.541 449.65 264.011 422.157C262.696 469.688 228.45 527.523 187.082 552.044V552.168Z" fill="#54FF8E"/>
<path d="M335.332 553.679C301.235 553.679 263.366 541.84 224.132 518.458L224.752 517.418C289.125 555.809 349.875 562.943 395.784 537.481C440.254 512.712 465.443 460.202 466.733 389.29H467.949C466.634 460.648 441.222 513.628 396.355 538.496C377.658 548.704 356.642 553.933 335.332 553.679Z" fill="#54FF8E"/>
<path d="M312.303 588.776L311.683 587.736C353.349 563.587 370.621 500.154 350.172 446.332L351.314 445.911C371.936 500.253 354.441 564.33 312.303 588.776Z" fill="#54FF8E"/>
<path d="M403.254 540.601L402.659 539.56C411.277 534.623 418.716 527.874 424.462 519.783C430.208 511.691 434.124 502.449 435.937 492.698C440.9 466.815 432.686 437.811 413.354 413.141L414.297 412.398C433.852 437.34 442.166 466.691 437.103 492.921C435.266 502.844 431.287 512.249 425.441 520.483C419.596 528.716 412.025 535.581 403.254 540.601Z" fill="#54FF8E"/>
<path d="M365.186 436.126C336.871 436.126 308.358 429.662 286.718 416.757L286.42 416.584V416.237C288.381 308.617 212.99 175.163 118.342 118.716L118.019 118.542V118.196C118.888 70.07 153.828 11.0958 195.867 -13.3014L196.189 -13.4995L196.487 -13.3014C333.62 68.4353 442.885 261.854 440.056 417.674V418.02L439.758 418.169C419.211 430.207 392.285 436.126 365.186 436.126ZM287.636 415.89C329.55 440.659 397.224 441.377 438.89 417.401C441.545 262.052 332.777 69.5251 196.189 -12.0878C154.697 12.1608 120.277 70.3176 119.26 117.874C213.982 174.544 289.522 308.147 287.636 415.89Z" fill="#54FF8E"/>
<path d="M391.267 433.774H390.076C392.781 284.79 288.331 100.016 157.327 21.8704L157.997 20.8301C289.348 99.1487 394.022 284.394 391.267 433.774Z" fill="#54FF8E"/>
<path d="M336.672 433.229H335.481C337.963 301.435 245.523 138.011 129.509 68.8815L130.129 67.866C246.367 137.243 338.98 301.063 336.672 433.229Z" fill="#54FF8E"/>
<path d="M265.401 304.159V302.97C302.179 300.493 366.129 278.746 407.944 254.473L408.565 255.513C366.452 279.861 302.328 301.682 265.401 304.159Z" fill="#54FF8E"/>
<path d="M205.421 197.01L204.453 196.292C226.539 167.535 278.628 124.463 320.592 100.016L321.187 101.056C279.348 125.329 227.482 168.377 205.421 197.01Z" fill="#54FF8E"/>
<path d="M-56.2884 212.218L-57.1818 211.673C-77.9528 199.289 -89.4426 182.917 -89.2441 165.579C-89.2441 148.661 -78.0272 132.884 -57.9511 121.143C-56.5118 46.8374 -29.9835 -8.34719 16.745 -34.2552C65.0865 -61.0549 128.913 -53.6244 196.512 -13.3009L197.38 -12.7808L196.512 -12.2854C154.771 11.9384 120.104 70.4668 119.235 118.221V119.261L118.366 118.716C71.8861 91.0247 28.0611 85.8729 -5.06825 104.226C-37.1553 122.035 -55.4199 160.006 -56.2636 211.178L-56.2884 212.218ZM80.4724 -48.8688C58.4319 -49.1395 36.6918 -43.749 17.3406 -33.215C-29.0901 -7.48032 -55.4199 47.4814 -56.7599 121.515V121.837L-57.0577 122.01C-76.9105 133.553 -87.9288 149.033 -88.0281 165.603C-88.1273 182.174 -77.2828 198.025 -57.4548 210.187C-56.2884 159.089 -37.9246 121.143 -5.66383 103.26C27.6392 84.8078 71.5387 89.7615 118.069 117.255C119.409 69.6494 153.655 11.7898 194.998 -12.7312C154.598 -36.7321 115.562 -48.8688 80.4724 -48.8688Z" fill="#54FF8E"/>
<path d="M-84.6282 149.975H-85.8193C-84.5289 78.6159 -59.0925 25.6357 -14.2501 0.767909C32.0565 -24.9172 93.2279 -17.7838 157.973 20.8306L157.352 21.8709C92.9798 -16.5206 32.2551 -23.654 -13.6545 1.80823C-58.1247 26.4283 -83.3377 79.0618 -84.6282 149.975Z" fill="#54FF8E"/>
<path d="M-84.4546 182.149H-85.6458C-84.5042 118.989 -61.9961 72.077 -22.2906 50.0824C18.6806 27.3448 72.8291 33.6608 130.129 67.8416L129.509 68.8571C72.5809 34.924 18.8792 28.608 -21.7198 51.1227C-61.0283 72.8449 -83.3131 119.46 -84.4546 182.149Z" fill="#54FF8E"/>
<path d="M30.8153 93.3528C10.1684 39.0103 27.6885 -25.0663 69.8261 -49.5129L70.4217 -48.4727C28.7804 -24.3232 11.5829 39.1094 31.9321 92.9317L30.8153 93.3528Z" fill="#54FF8E"/>
<path d="M151.843 563.264C144.932 563.356 138.125 561.585 132.139 558.137C118.093 549.914 110.574 532.675 110.896 509.566C16.1738 452.845 -59.2668 319.317 -57.48 211.549C-78.0773 199.164 -89.3437 182.891 -89.2445 165.628C-89.1452 148.364 -77.9284 132.784 -57.6537 121.044L-56.7355 120.524V121.589C-59.5645 277.112 49.4273 470.035 186.238 551.598L187.131 552.143L186.238 552.638C174.028 559.648 162.315 563.264 151.843 563.264ZM-57.9019 122.555C-77.2087 134.023 -87.8548 149.28 -87.954 165.603C-88.0781 182.495 -76.8861 198.496 -56.4874 210.657L-56.1896 210.831V211.177C-58.15 318.772 17.2409 452.226 111.889 508.674L112.187 508.847V509.194C111.765 532.006 119.111 549.022 132.809 557.047C146.507 565.072 165.07 563.289 184.923 552.093C48.3105 470.134 -60.3835 277.954 -57.9019 122.555Z" fill="#54FF8E"/>
<path d="M147.5 562.917C16.1243 484.574 -88.5495 299.304 -85.7701 149.949H-84.579C-87.2839 298.933 17.1665 483.707 148.17 561.852L147.5 562.917Z" fill="#54FF8E"/>
<path d="M120.773 547.512C4.53541 478.16 -88.0778 314.29 -85.6707 182.149H-84.4795C-86.9611 313.943 5.47842 477.367 121.493 546.496L120.773 547.512Z" fill="#54FF8E"/>
<path d="M21.6335 455.421C20.6069 455.52 19.5712 455.398 18.5955 455.065C17.6197 454.732 16.7265 454.195 15.9754 453.49C12.8238 449.923 15.9754 441.947 24.7355 430.38L25.7033 431.123C17.3403 441.997 14.2135 449.675 16.8688 452.697C20.9138 457.279 37.3916 451.855 60.942 438.207L61.5375 439.248C43.273 449.849 29.3761 455.421 21.6335 455.421Z" fill="#54FF8E"/>
<path d="M301.657 589.321C266.171 589.321 226.738 576.937 185.916 552.738C165.443 564.528 146.359 566.435 132.14 558.088C117.92 549.741 110.5 532.452 110.922 509.17V508.154L111.815 508.674C158.296 536.39 202.121 541.518 235.225 523.164C267.312 505.38 285.502 467.41 286.42 416.238V415.197L287.314 415.717C329.302 440.759 397.422 441.452 439.138 417.253L440.081 416.708V417.773C438.716 492.253 412.188 547.561 365.36 573.519C345.839 584.162 323.899 589.604 301.657 589.321ZM185.916 551.351L186.214 551.524C253.44 591.6 316.845 599.055 364.889 572.478C411.096 546.843 437.376 492.302 438.964 418.913C397.1 442.591 329.774 441.923 287.587 417.377C286.42 468.475 268.057 506.42 235.796 524.303C202.493 542.781 158.593 537.802 112.088 510.334C111.89 532.626 119.21 549.245 132.71 557.147C146.607 565.32 165.393 563.339 185.593 551.623L185.916 551.351Z" fill="#54FF8E"/>
<path d="M258.676 598.139C224.603 598.139 186.709 586.299 147.5 562.918L148.12 561.877C212.493 600.269 273.218 607.377 319.127 581.94C363.598 557.171 388.811 504.637 390.101 433.749H391.267C389.977 505.083 364.541 558.088 319.698 582.956C301.001 593.163 279.985 598.392 258.676 598.139Z" fill="#54FF8E"/>
<path d="M219.193 578.695C189.042 578.695 155.491 568.218 120.798 547.512L121.418 546.496C178.346 580.429 232.048 586.745 272.622 564.23C311.955 542.434 334.24 495.894 335.382 433.204H336.672C335.531 496.339 313.022 543.251 273.317 565.246C256.735 574.301 238.093 578.933 219.193 578.695Z" fill="#54FF8E"/>
</svg>
