<svg width="1080" height="611" viewBox="0 0 1080 611" fill="none" xmlns="http://www.w3.org/2000/svg">
<rect width="1080" height="610.179" fill="#0E0E0E"/>
<g clip-path="url(#clip0_164_2916)">
<path d="M705.571 305.52L693.051 314.887L662.169 338.04V319.276L680.531 305.52L662.169 291.764V273L693.051 296.123L705.571 305.52Z" fill="white"/>
<path d="M705.322 305.489L723.653 291.764V273L692.803 296.123L705.322 305.489Z" fill="#54FF8E"/>
<path d="M705.292 305.52L723.654 319.276V338.04L692.803 314.917L692.772 314.886L705.292 305.52Z" fill="#54FF8E"/>
<path d="M369.736 313.186C369.736 318.441 374.002 320.853 390.138 320.853C403.523 320.853 407.542 319.369 407.542 315.474C407.542 311.579 404.729 310.651 388.654 309.879C367.016 308.889 358.484 305.489 358.484 294.422C358.484 283.356 369.612 280.048 388.16 280.048C406.707 280.048 418.176 284.716 418.176 296.988H405.44C405.44 291.517 399.968 290.187 386.738 290.187C374.373 290.187 371.282 291.393 371.282 295.072C371.282 298.75 374.373 299.585 388.716 300.45C408.253 301.501 420.371 302.583 420.371 315.103C420.371 328.333 407.82 331.023 389.458 331.023C369.118 330.992 357 327.53 357 313.186H369.736Z" fill="white"/>
<path d="M468.841 315.35H480.866C478.115 325.984 467.79 330.992 452.334 330.992C436.878 330.992 424.173 324.809 424.173 309.353C424.173 293.897 436.136 287.714 453.045 287.714C468.903 287.714 481.577 293.155 481.577 312.135H436.569C437.898 318.782 444.266 320.976 452.334 320.976C460.402 320.976 465.812 319.616 468.841 315.35ZM436.971 304.593H468.625C466.585 298.719 460.619 297.081 452.983 297.081C444.699 297.081 438.887 298.719 436.971 304.593Z" fill="white"/>
<path d="M530.914 289.291V299.43C527.425 298.498 523.83 298.02 520.218 298.008C512.282 297.847 504.531 300.423 498.27 305.304V330.281H486.184V288.456H498.27V295.659C504.155 290.447 511.804 287.672 519.662 287.9C523.457 287.875 527.239 288.343 530.914 289.291Z" fill="white"/>
<path d="M593.049 288.456L571.905 330.281H554.625L533.511 288.456H546.958L563.342 321.595L579.571 288.456H593.049Z" fill="white"/>
<path d="M647.362 309.26V330.281H635.213V325.119C627.342 329.038 618.658 331.05 609.865 330.992C598.18 330.992 590.885 327.252 590.885 317.823C590.885 307.004 602.786 303.603 616.017 303.603C622.539 303.607 629.019 304.651 635.213 306.695C635.213 298.781 625.012 298.132 619.355 298.132C612.345 298.109 605.372 299.151 598.675 301.223L594.347 292.351C602.529 289.536 611.105 288.034 619.757 287.9C637.284 287.9 647.207 293.464 647.362 309.26ZM635.213 314.083C629.478 312.317 623.501 311.462 617.5 311.548C608.443 311.548 602.972 313.094 602.972 317.329C602.972 321.564 607.021 322.089 613.327 322.089C620.85 321.834 628.265 320.222 635.213 317.329V314.083Z" fill="white"/>
</g>
<defs>
<clipPath id="clip0_164_2916">
<rect width="366.654" height="65.04" fill="white" transform="translate(357 273)"/>
</clipPath>
</defs>
</svg>
