<svg width="300" height="400" viewBox="0 0 344 487" fill="none" xmlns="http://www.w3.org/2000/svg">
<path d="M571.699 225.907L570.774 225.395C498.075 184.089 318.476 166.756 170.252 186.699L169.542 186.798V186.088C169.74 78.7743 197.101 -3.70594 240.936 -29.1506C259.903 -40.1711 281.267 -39.5762 302.73 -27.4983C371.695 -36.6683 437.14 -17.5353 487.352 26.4806C514.044 49.9868 535.155 79.1526 549.146 111.852C564.231 146.549 571.831 184.551 571.765 224.932L571.699 225.907ZM299.706 177.199C410.638 177.199 517.803 194.366 570.46 223.792C570.46 183.989 562.827 146.467 547.956 112.265C534.019 79.736 513.012 50.7194 486.46 27.3233C436.545 -16.4117 371.282 -35.4621 302.68 -26.193H302.482L302.3 -26.3087C280.821 -38.4692 260.432 -39.0806 241.547 -28.1262C198.209 -2.91287 171.112 78.8404 170.781 185.377C213.531 179.83 256.598 177.098 299.706 177.199V177.199Z" fill="#54FF8E"/>
<path d="M534.259 85.1685C471.573 49.6121 316.493 34.5766 188.559 51.7765L188.394 50.5539C316.542 33.3209 471.986 48.3729 534.87 84.0945L534.259 85.1685Z" fill="#54FF8E"/>
<path d="M468.401 191.97H467.161C467.343 92.2233 438.363 13.2459 389.621 -19.3199C363.632 -36.6686 333.627 -39.1469 302.845 -26.2429L302.3 -27.3829C333.494 -40.3696 363.896 -37.9408 390.249 -20.3443C439.437 12.4363 468.582 91.8103 468.401 191.97Z" fill="#54FF8E"/>
<path d="M324.572 178.058H323.333C323.581 37.6168 316.195 -36.9657 308.744 -37.924C308.017 -38.0232 305.968 -37.131 303.209 -26.6557L302.003 -26.9696C304.283 -35.6109 306.48 -39.4937 308.909 -39.1632C319.996 -37.7092 324.771 70.9756 324.572 178.058Z" fill="#54FF8E"/>
<path d="M33.6777 298.259L32.7524 297.747C10.0009 284.81 -0.55691 270.369 2.21887 255.994C4.84594 242.512 18.9892 229.674 42.4676 218.422C66.0287 125.847 128.814 45.3823 209.609 2.70478C218.746 -11.5541 229.254 -22.3763 241.002 -29.1506C260.019 -40.2041 281.449 -39.5763 302.978 -27.3496L304.63 -26.4409L302.796 -26.193C270.538 -21.7339 239.318 -11.6275 210.567 3.66309C185.651 42.7388 171.046 107.755 170.913 186.088V186.633H170.385C116.505 193.87 72.902 205.303 43.6738 219.133C37.188 244.63 33.8586 270.827 33.7603 297.135L33.6777 298.259ZM42.0876 219.893C19.5344 230.831 5.96945 243.223 3.44151 256.242C0.797917 269.857 10.8271 283.636 32.455 296.144C32.6182 270.434 35.852 244.836 42.0876 219.893V219.893ZM208.304 4.80313C128.996 47.3981 67.334 126.64 43.9051 217.745C73.1664 204.031 116.406 192.73 169.476 185.543C169.757 108.449 183.999 44.2092 208.304 4.80313ZM269.437 -35.8752C259.606 -35.8134 249.973 -33.1083 241.547 -28.0436C230.527 -21.6328 220.563 -11.5211 211.807 1.69691C239.583 -12.8599 269.62 -22.6189 300.648 -27.1679C291.116 -32.6441 280.361 -35.6381 269.371 -35.8752H269.437Z" fill="#54FF8E"/>
<path d="M166.551 31.338C154.986 24.729 149.566 17.3435 151.004 9.95794C154.011 -5.49058 186.544 -19.2208 235.929 -25.8628L236.094 -24.6401C187.254 -18.0311 155.134 -4.81316 152.226 10.1893C150.905 17.013 156.076 23.9525 167.097 30.2475L166.551 31.338Z" fill="#54FF8E"/>
<path d="M69.8121 147.64C50.1173 136.454 40.9968 123.963 43.3761 111.505C48.465 85.2509 104.014 61.9377 188.361 50.5537L188.526 51.7764C104.757 63.0447 49.6051 85.9614 44.5492 111.736C42.2526 123.616 51.1582 135.661 70.3573 146.549L69.8121 147.64Z" fill="#54FF8E"/>
<path d="M53.0253 214.572H51.7861C51.9348 131.96 83.0301 58.8481 137.075 14.006C182.942 -23.9957 241.762 -38.7502 302.713 -27.4158L302.498 -26.1931C241.91 -37.4615 183.454 -22.8887 137.868 14.9478C84.1041 59.5255 53.174 132.324 53.0253 214.572Z" fill="#54FF8E"/>
<path d="M3.83782 254.491H2.59863C2.73081 179.611 32.6365 109.241 86.8633 56.3695C144.031 0.556582 220.695 -29.1508 302.68 -27.3829V-26.1437C220.828 -28.0438 144.576 1.69664 87.6564 57.2122C33.7435 109.853 3.97 179.892 3.83782 254.491Z" fill="#54FF8E"/>
<path d="M304.432 344.852C192.839 344.852 85.1121 327.487 32.7524 297.746L32.4385 297.565V297.201C32.7359 138.189 153.895 -7.44034 302.515 -27.416H302.73L302.911 -27.3169C375.825 14.105 434.893 177.083 434.596 335.996V336.541H434.067C391.086 342.167 347.779 344.943 304.432 344.852V344.852ZM33.6777 296.838C106.377 337.929 285.464 355.212 433.356 335.418C433.522 177.215 374.867 15.1789 302.482 -26.1603C154.655 -6.1681 34.1568 138.635 33.6777 296.838Z" fill="#54FF8E"/>
<path d="M303.754 55.1304C247.412 55.1304 193.053 46.357 166.617 31.338L167.229 30.2476C203.81 51.0328 294.336 59.7732 369.034 49.7276L369.2 50.9502C347.501 53.7908 325.638 55.1872 303.754 55.1304V55.1304Z" fill="#54FF8E"/>
<path d="M304.398 188.401C208.039 188.401 115.018 173.398 69.7791 147.722L70.3904 146.632C133.077 182.254 288.157 197.24 416.09 180.024L416.255 181.263C379.167 186.102 341.8 188.486 304.398 188.401V188.401Z" fill="#54FF8E"/>
<path d="M137.075 330.081H135.836C136.051 171.151 210.782 10.7841 302.3 -27.3828L302.779 -26.2428C211.691 11.7589 137.273 171.597 137.075 330.081Z" fill="#54FF8E"/>
<path d="M280.821 343.993H279.582C279.862 185.245 289.925 18.8306 302.003 -26.9697L303.209 -26.6558C291.147 19.0619 281.102 185.328 280.821 343.993Z" fill="#54FF8E"/>
<path d="M433.356 336.673V335.963C433.654 177.446 374.867 14.9145 302.3 -26.276L300.648 -27.1848L302.465 -27.4161C371.43 -36.6852 437.041 -17.5026 487.236 26.3977C513.928 49.9038 535.039 79.0696 549.03 111.769C564.066 146.334 571.682 184.253 571.649 224.486C594.186 237.373 604.694 251.748 601.869 266.056C595.987 296.425 531.665 323.439 434.017 336.574L433.356 336.673ZM304.497 -26.3917C376.568 16.4016 434.711 177.744 434.595 335.285C531.302 322.2 594.863 295.631 600.696 265.891C603.373 252.078 593.029 238.1 570.774 225.46L570.46 225.279V224.915C570.46 184.716 562.959 146.847 547.956 112.331C534.019 79.8018 513.012 50.7852 486.459 27.389C436.991 -16.0321 372.421 -35.0825 304.497 -26.3917Z" fill="#54FF8E"/>
<path d="M552.351 307.478H551.112C551.409 149.044 439.883 -0.633068 302.498 -26.1933L302.713 -27.416C440.659 -1.75661 552.649 148.482 552.351 307.478Z" fill="#54FF8E"/>
<path d="M601.539 267.61H600.299C600.597 109.242 467.046 -22.558 302.597 -26.1929V-27.4321C467.74 -23.7807 601.836 108.564 601.539 267.61Z" fill="#54FF8E"/>
<path d="M301.408 549.483L301.226 549.384C228.329 507.962 169.244 344.984 169.542 186.088V185.542H170.087C318.525 165.567 498.554 182.998 571.385 224.37L571.699 224.552V224.915C571.402 383.911 450.242 529.54 301.623 549.516L301.408 549.483ZM170.781 186.633C170.632 344.819 229.271 506.855 301.656 548.194C449.482 528.186 569.964 383.366 570.46 225.213C497.711 184.121 318.674 166.922 170.781 186.633Z" fill="#54FF8E"/>
<path d="M533.714 375.484C471.028 339.878 315.948 324.893 188.014 342.092L187.849 340.87C316.014 323.637 471.441 338.689 534.342 374.41L533.714 375.484Z" fill="#54FF8E"/>
<path d="M436.975 491.786C400.394 471.001 309.868 462.261 235.169 472.306L235.004 471.084C309.917 461.005 400.807 469.811 437.586 490.712L436.975 491.786Z" fill="#54FF8E"/>
<path d="M301.771 549.417L301.292 548.277C392.463 510.275 466.864 350.437 467.161 191.97H468.4C468.103 350.899 393.355 511.25 301.771 549.417Z" fill="#54FF8E"/>
<path d="M302.135 549.004L300.945 548.69C312.99 502.972 323.036 336.706 323.333 178.058H324.572C324.275 336.806 314.213 503.203 302.135 549.004Z" fill="#54FF8E"/>
<path d="M267.801 551.747C211.41 551.747 158.753 532.366 116.852 495.57C90.1594 472.064 69.0485 442.898 55.0575 410.198C40.0221 375.65 32.4217 337.731 32.4382 297.499C9.90158 284.611 -0.606704 270.237 2.21864 255.928C8.11717 225.56 72.4392 198.529 170.087 185.41L170.781 185.311V186.021C170.484 344.522 229.287 507.02 301.837 548.244L303.49 549.153L301.672 549.384C290.447 550.929 279.132 551.719 267.801 551.747V551.747ZM169.542 186.748C72.8357 199.834 9.27372 226.402 3.44129 256.143C0.764646 269.956 11.1077 283.934 33.3635 296.573L33.6774 296.755V297.119C33.6774 337.318 41.1786 375.187 56.1976 409.686C70.1182 442.216 91.1153 471.234 117.661 494.628C167.146 537.983 231.666 557.034 299.656 548.376C227.585 505.632 169.426 344.323 169.542 186.748Z" fill="#54FF8E"/>
<path d="M69.3331 437.89C49.6548 426.721 40.5179 414.214 42.8971 401.772C47.986 375.518 103.551 352.205 187.882 340.821L188.047 342.043C104.245 353.312 49.093 376.295 44.1198 402.004C41.8066 413.883 50.7288 425.928 69.9114 436.816L69.3331 437.89Z" fill="#54FF8E"/>
<path d="M165.642 528.268C154.077 521.659 148.657 514.29 150.078 506.905C153.085 491.44 185.618 477.726 235.004 471.084L235.169 472.307C186.328 478.916 154.209 492.216 151.301 507.136C149.979 513.96 155.151 520.883 166.171 527.194L165.642 528.268Z" fill="#54FF8E"/>
<path d="M301.424 549.45C163.511 523.807 51.4888 373.552 51.7862 214.572H53.0254C52.728 372.99 164.255 522.667 301.656 548.227L301.424 549.45Z" fill="#54FF8E"/>
<path d="M301.524 549.466C136.398 545.815 2.30148 413.47 2.59888 254.441H3.83807C3.54066 412.809 137.092 544.592 301.557 548.227L301.524 549.466Z" fill="#54FF8E"/>
<path d="M334.8 559.033C323.028 558.805 311.519 555.514 301.408 549.483C290.268 550.985 279.041 551.742 267.801 551.746C211.41 551.746 158.753 532.366 116.852 495.57C90.1593 472.064 69.0484 442.898 55.0575 410.198C39.9724 375.501 32.3721 337.499 32.4382 297.135V296.078L33.3469 296.59C106.046 337.896 285.662 355.228 433.885 335.285L434.579 335.186V335.897C434.381 443.21 407.036 525.674 363.202 551.119C354.612 556.248 344.804 558.981 334.8 559.033V559.033ZM301.655 548.194L301.837 548.31C323.316 560.47 343.705 561.082 362.59 550.127C405.945 524.947 433.042 443.194 433.356 336.673C285.678 356.401 106.988 339.201 33.6774 298.259C33.6774 338.061 41.3108 375.567 56.1975 409.769C70.1181 442.299 91.1152 471.317 117.661 494.711C167.576 538.446 232.856 557.496 301.457 548.227L301.655 548.194Z" fill="#54FF8E"/>
<path d="M303.853 478.635C207.494 478.635 114.472 463.632 69.2339 437.94L69.8452 436.866C132.531 472.488 287.611 487.474 415.562 470.258L415.727 471.497C378.633 476.335 341.261 478.719 303.853 478.635V478.635Z" fill="#54FF8E"/>
<path d="M262.894 557.645C245.375 557.598 228.276 552.278 213.822 542.378C164.75 509.598 135.555 430.24 135.753 330.081H137.075C136.877 429.827 165.874 508.805 214.598 541.354C240.588 558.703 270.593 561.098 301.375 548.277L301.854 549.417C289.542 554.717 276.298 557.515 262.894 557.645Z" fill="#54FF8E"/>
<path d="M295.509 561.214H295.245C284.142 559.76 279.383 451.075 279.582 344.01H280.821C280.556 484.451 287.959 559.017 295.394 559.992C296.121 559.992 298.169 559.182 300.945 548.707L302.135 549.021C299.937 557.315 297.839 561.214 295.509 561.214Z" fill="#54FF8E"/>
<path d="M334.8 559.033C323.862 559.033 312.56 555.811 301.226 549.384L299.574 548.475L301.391 548.227C333.652 543.761 364.876 533.655 393.636 518.371C418.536 479.296 433.141 414.28 433.29 335.963V335.451H433.835C487.699 328.214 531.318 316.78 560.53 302.951C567.016 277.454 570.345 251.257 570.443 224.949V223.891L571.369 224.403C594.153 237.241 604.661 251.682 601.919 266.056C599.308 279.539 585.165 292.377 561.686 303.612C538.175 396.138 475.34 476.652 394.528 519.33C385.391 533.589 374.883 544.411 363.218 551.185C354.617 556.294 344.804 559.004 334.8 559.033V559.033ZM303.407 549.202C324.242 560.504 344.135 560.768 362.541 550.128C373.561 543.717 383.541 533.605 392.281 520.47C364.5 534.975 334.47 544.689 303.457 549.202H303.407ZM434.546 336.508C434.331 413.602 420.105 477.825 395.801 517.231C475.109 474.636 536.754 395.411 560.183 304.306C530.971 318.02 487.732 329.321 434.595 336.508H434.546ZM571.682 225.923C571.513 251.629 568.274 277.221 562.033 302.158C584.587 291.22 598.168 278.828 600.679 265.809C603.34 252.211 593.31 238.414 571.699 225.923H571.682Z" fill="#54FF8E"/>
<path d="M341.26 553.184C327.895 553.164 314.56 551.914 301.424 549.45L301.656 548.227C362.244 559.512 420.7 544.923 466.286 507.086C520.05 462.475 550.963 389.776 551.112 307.478H552.351C552.203 390.09 521.124 463.202 467.062 508.028C431.765 537.444 387.207 553.438 341.26 553.184V553.184Z" fill="#54FF8E"/>
<path d="M308.579 549.532C306.232 549.532 303.886 549.532 301.523 549.532V548.293C383.211 550.094 459.528 520.469 516.464 464.888C570.361 412.247 600.134 342.208 600.266 267.675H601.506C601.373 342.555 571.468 412.908 517.324 465.78C461.841 519.924 387.919 549.532 308.579 549.532Z" fill="#54FF8E"/>
<path d="M302.399 561.297C295.625 561.297 289.842 561.032 286.818 560.9C282.489 560.702 272.543 559.942 265.835 559.083C259.127 558.223 259.226 558.223 249.808 556.687C248.04 556.406 245.958 555.993 243.926 555.58L241.266 555.051C229.122 552.528 217.143 549.267 205.395 545.286C198.555 542.857 190.525 539.768 184.891 537.438C180.149 535.455 173.953 532.614 169.509 530.366C162.635 526.88 153.977 522.105 148.029 518.602C142.081 515.1 135.373 510.754 130.896 507.516C118.115 498.61 106.035 488.739 94.7609 477.99C89.4076 472.868 83.3604 466.656 79.3289 462.145C74.5209 456.775 67.7632 448.745 62.8891 442.318C53.1639 429.514 44.4732 415.955 36.8992 401.772C29.9065 387.954 23.7061 373.749 18.3279 359.227C15.4097 351.105 12.9332 342.832 10.9093 334.443C9.70319 329.701 8.56314 323.902 7.45614 318.317C6.96046 315.789 6.48129 313.36 6.01866 311.13C4.38151 302.496 3.3053 293.764 2.79678 284.991L2.71417 283.669C1.92972 274.091 1.65948 264.478 1.90458 254.871C2.02024 252.937 2.11938 250.823 2.21851 248.642C2.4994 242.661 2.82983 235.87 3.3916 230.467C4.19092 221.669 5.47058 212.921 7.22482 204.262C7.62136 202.61 8.01788 200.693 8.44747 198.777C9.7197 192.928 11.1737 186.319 12.6277 181.147C14.8747 173.183 18.1297 163.121 20.7567 156.099C23.3838 149.077 26.9196 140.618 29.7449 134.62C31.8433 130.159 37.2627 118.94 42.1533 110.811C49.6711 98.2871 60.6255 82.8881 67.7136 73.5034C71.5138 68.5466 76.9001 62.6316 81.6586 57.4766C83.3108 55.8243 84.7483 54.1721 86.1197 52.5198C91.0824 47.1862 96.3334 42.1283 101.849 37.3687C109.086 31.0736 119.049 23.2585 125.906 17.9383C132.318 13.0878 139.01 8.61901 145.948 4.55505C154.804 -0.649529 167.063 -7.20896 176.432 -11.7526C181.967 -14.4458 190.426 -17.9486 199.067 -21.1209C205.759 -23.5993 214.549 -26.4246 220.91 -28.1595C231.289 -31.0904 241.818 -33.462 252.451 -35.2641C258.086 -36.2885 269.321 -37.7921 277.632 -38.4364C283.53 -38.8826 288.157 -39.1634 291.395 -39.246C300.416 -39.4774 301.308 -39.4939 310.924 -39.246C312.197 -39.246 323.746 -38.9652 338.368 -37.1807C346.96 -36.1398 354.114 -34.8511 354.412 -34.785C357.105 -34.2893 360.905 -33.5788 363.763 -32.984C365.862 -32.5379 368.439 -31.9431 370.818 -31.3318L373.693 -30.6709C376.783 -29.9604 381.062 -28.8038 386.399 -27.2507C389.34 -26.375 393.405 -25.0863 398.791 -23.3018C405.78 -21.0052 413.843 -17.9155 419.328 -15.4372C423.393 -13.6032 427.887 -11.4718 432.332 -9.27427C438.357 -6.53154 444.261 -3.51894 450.044 -0.23647L450.407 -0.0216821C459.418 5.11612 468.159 10.7136 476.595 16.7486C482.444 21.1767 491.267 27.8683 497.496 33.1224C499.826 35.0886 507.872 41.9619 513.556 47.9926L514.63 49.1162C519.868 54.6182 526.394 61.4585 531.153 66.9605C535.267 71.752 540.868 78.8732 545.098 84.6726C549.327 90.4719 555.011 99.1132 559.257 105.937C563.751 113.306 567.932 120.807 570.41 126.061C573.417 132.423 577.977 142.022 580.935 149.292C583.165 154.794 586.106 163.039 588.8 171.349C593.137 184.979 596.451 198.913 598.713 213.036C601.103 229.087 602.379 245.285 602.53 261.513C602.53 269.443 602.001 280.167 601.307 288.18C600.828 293.715 599.82 300.638 598.928 306.751C598.663 308.618 598.399 310.419 598.168 312.071C596.752 320.692 594.894 329.235 592.6 337.665C590.947 344.142 588.205 352.965 585.677 360.152C583.149 367.339 579.448 376.674 575.995 384.341C574.045 388.703 571.401 393.808 568.857 398.765C567.733 400.946 566.643 403.044 565.685 404.961C561.467 412.764 556.829 420.331 551.789 427.63C549.179 431.579 545.775 436.139 542.487 440.55C541.083 442.434 539.744 444.235 538.538 445.904C532.871 453.238 526.804 460.254 520.363 466.92C515.308 472.323 509.178 478.354 504.766 482.286C498.322 488.019 489.053 495.669 481.156 501.799C475.736 506.012 468.318 510.903 464.385 513.447C459.759 516.422 453.547 520.056 448.54 522.948L447.02 523.824C437.024 529.53 426.638 534.526 415.941 538.776C406.804 542.345 399.865 544.873 394.743 546.542C388.316 548.624 379.493 551.119 372.752 552.754C365.746 554.407 357.518 556.175 351.785 557.116L351.008 557.232C348.15 557.711 344.597 558.273 341.855 558.62C336.898 559.248 330.52 559.909 326.571 560.272C326.241 560.272 318.029 561.082 306.216 561.264L302.399 561.297ZM301.556 -37.9573C298.747 -37.9573 296.253 -37.9573 291.362 -37.7755C288.14 -37.6929 283.53 -37.4121 277.665 -36.9659C269.403 -36.3216 258.201 -34.8345 252.6 -33.8101C242.02 -32.0022 231.541 -29.6418 221.207 -26.7385C214.863 -25.0863 206.122 -22.1948 199.447 -19.733C190.856 -16.5607 182.429 -13.124 176.944 -10.4143C167.592 -5.87064 155.382 0.655744 146.542 5.8438C139.649 9.85059 133.001 14.2644 126.633 19.0618C119.776 24.382 109.846 32.1806 102.626 38.4592C97.1485 43.1859 91.9361 48.2109 87.0119 53.5112L82.5343 58.4679C77.7923 63.5899 72.4391 69.4058 68.6719 74.3956C61.6003 83.7638 50.6789 99.1793 43.1777 111.588C38.3201 119.684 32.9173 130.869 30.8354 135.297C28.0266 141.212 24.5239 149.589 21.8803 156.628C19.2367 163.667 16.0148 173.646 13.7842 181.577C12.3468 186.715 10.8928 193.324 9.62058 199.14C9.20751 201.057 8.79444 202.924 8.3979 204.626C6.65829 213.242 5.38422 221.945 4.58122 230.698C4.03597 236.018 3.70553 242.776 3.42465 248.741C3.32551 250.938 3.22637 253.053 3.11072 254.986C2.86873 264.544 3.13346 274.107 3.90379 283.636L3.98641 284.958C4.50341 293.676 5.57958 302.351 7.20828 310.931C7.67091 313.145 8.15008 315.591 8.64576 318.119C9.73624 323.703 10.8763 329.47 12.0824 334.179C14.0912 342.518 16.5511 350.741 19.4514 358.814C24.2264 371.305 31.3146 388.802 37.9566 401.21C45.4909 415.351 54.1548 428.861 63.8639 441.608C68.6224 447.969 75.4296 455.966 80.2211 461.319C84.2196 465.797 90.2503 471.993 95.5705 477.098C106.813 487.794 118.848 497.626 131.573 506.508C136.034 509.713 142.726 514.059 148.624 517.529C154.523 520.998 163.247 525.79 170.103 529.259C174.531 531.507 180.678 534.332 185.403 536.298C190.988 538.611 199.018 541.684 205.842 544.113C217.529 548.088 229.447 551.349 241.53 553.878L244.207 554.407C246.222 554.803 248.304 555.216 250.039 555.497C259.374 557.034 259.374 557.034 266.016 557.893C272.658 558.752 282.539 559.545 286.868 559.694C290.47 559.843 297.905 560.173 306.265 560.057C318.029 559.876 326.191 559.116 326.522 559.083C330.454 558.703 336.815 558.058 341.772 557.43C344.482 557.083 348.034 556.505 350.876 556.042L351.652 555.927C357.353 554.985 365.548 553.283 372.537 551.581C379.228 549.929 388.035 547.467 394.429 545.385C399.518 543.733 406.441 541.205 415.561 537.653C426.197 533.417 436.527 528.448 446.475 522.783L447.978 521.907C452.935 519.016 459.181 515.397 463.79 512.44C466.93 510.391 474.877 505.203 480.462 500.874C488.343 494.761 497.579 487.111 504.006 481.41C508.401 477.495 514.498 471.497 519.521 466.127C525.911 459.497 531.923 452.514 537.53 445.21C538.736 443.557 540.091 441.74 541.496 439.873C544.8 435.461 548.105 430.901 550.748 426.985C555.709 419.726 560.282 412.209 564.445 404.465C565.404 402.549 566.494 400.434 567.618 398.253C570.162 393.296 572.789 388.24 574.722 383.911C578.176 376.179 581.959 366.728 584.388 359.821C586.817 352.915 589.609 343.762 591.261 337.417C593.547 329.036 595.4 320.543 596.813 311.972C597.044 310.32 597.309 308.503 597.573 306.652C598.465 300.555 599.457 293.632 599.936 288.13C600.63 280.15 601.109 269.476 601.158 261.562C601 245.366 599.713 229.201 597.309 213.184C595.088 199.13 591.819 185.262 587.527 171.696C584.834 163.435 581.91 155.174 579.679 149.722C576.738 142.485 572.194 132.902 569.187 126.59C566.726 121.402 562.578 113.917 558.084 106.581C553.937 99.7741 548.27 91.265 544.007 85.3995C539.744 79.5341 534.209 72.5285 530.112 67.77C525.403 62.2846 518.893 55.4608 513.672 49.9753L512.598 48.8518C506.947 42.9203 498.95 36.0965 496.637 34.1303C490.425 28.9092 481.618 22.2176 475.786 17.8061C467.376 11.803 458.668 6.2278 449.697 1.10185L449.366 0.920099C444.41 -1.69045 438.148 -4.94538 431.753 -8.08465C392.38 -26.0446 348.216 -32.3066 302.878 -26.2594H302.746L302.581 -27.482C338.05 -32.4826 374.191 -29.4389 408.325 -18.5764C405.02 -19.8321 401.567 -21.0548 398.411 -22.1122C393.025 -23.8967 388.977 -25.1854 386.052 -26.0446C380.732 -27.5977 376.486 -28.7377 373.413 -29.4482L370.538 -30.1091C368.175 -30.6544 365.581 -31.2657 363.499 -31.7614C360.657 -32.3727 356.89 -33.0832 354.197 -33.5623C353.883 -33.5623 346.778 -34.9172 338.22 -35.9581C323.663 -37.726 312.164 -37.9903 310.891 -38.0069C306.463 -37.9573 303.952 -37.9573 301.556 -37.9573Z" fill="#54FF8E"/>
<path d="M571.699 225.906L570.774 225.394C498.075 184.088 318.476 166.756 170.252 186.699L169.542 186.798V186.087C169.74 78.7738 197.101 -3.70643 240.936 -29.151C259.903 -40.1715 281.267 -39.5767 302.73 -27.4988C371.695 -36.6688 437.14 -17.5357 487.352 26.4801C514.044 49.9863 535.155 79.1521 549.146 111.852C564.231 146.549 571.831 184.551 571.765 224.932L571.699 225.906ZM299.706 177.198C410.638 177.198 517.803 194.365 570.46 223.792C570.46 183.989 562.827 146.466 547.956 112.265C534.019 79.7355 513.012 50.7189 486.46 27.3228C436.545 -16.4122 371.282 -35.4626 302.68 -26.1935H302.482L302.3 -26.3092C280.821 -38.4697 260.432 -39.0811 241.547 -28.1267C198.209 -2.91336 171.112 78.8399 170.781 185.377C213.531 179.83 256.598 177.098 299.706 177.198V177.198Z" fill="#54FF8E"/>
<path d="M534.259 85.168C471.573 49.6116 316.493 34.5761 188.559 51.776L188.394 50.5534C316.542 33.3204 471.986 48.3724 534.87 84.094L534.259 85.168Z" fill="#54FF8E"/>
<path d="M468.401 191.969H467.161C467.343 92.2228 438.363 13.2454 389.621 -19.3204C363.632 -36.669 333.627 -39.1474 302.845 -26.2434L302.3 -27.3834C333.494 -40.3701 363.896 -37.9413 390.249 -20.3448C439.437 12.4358 468.582 91.8098 468.401 191.969Z" fill="#54FF8E"/>
<path d="M324.572 178.057H323.333C323.581 37.6163 316.195 -36.9662 308.744 -37.9245C308.017 -38.0236 305.968 -37.1314 303.209 -26.6562L302.003 -26.9701C304.283 -35.6114 306.48 -39.4941 308.909 -39.1637C319.996 -37.7097 324.771 70.9752 324.572 178.057Z" fill="#54FF8E"/>
<path d="M33.6777 298.258L32.7524 297.746C10.0009 284.809 -0.55691 270.368 2.21887 255.994C4.84594 242.512 18.9892 229.674 42.4676 218.422C66.0287 125.846 128.814 45.3819 209.609 2.70429C218.746 -11.5546 229.254 -22.3768 241.002 -29.151C260.019 -40.2046 281.449 -39.5767 302.978 -27.3501L304.63 -26.4414L302.796 -26.1935C270.538 -21.7344 239.318 -11.628 210.567 3.6626C185.651 42.7383 171.046 107.754 170.913 186.087V186.633H170.385C116.505 193.869 72.902 205.303 43.6738 219.132C37.188 244.629 33.8586 270.826 33.7603 297.135L33.6777 298.258ZM42.0876 219.892C19.5344 230.83 5.96945 243.222 3.44151 256.242C0.797917 269.856 10.8271 283.636 32.455 296.144C32.6182 270.434 35.852 244.835 42.0876 219.892V219.892ZM208.304 4.80264C128.996 47.3976 67.334 126.639 43.9051 217.744C73.1664 204.031 116.406 192.729 169.476 185.542C169.757 108.448 183.999 44.2088 208.304 4.80264ZM269.437 -35.8757C259.606 -35.8139 249.973 -33.1088 241.547 -28.044C230.527 -21.6333 220.563 -11.5216 211.807 1.69642C239.583 -12.8604 269.62 -22.6194 300.648 -27.1684C291.116 -32.6445 280.361 -35.6386 269.371 -35.8757H269.437Z" fill="#54FF8E"/>
<path d="M166.551 31.3375C154.986 24.7286 149.566 17.343 151.004 9.95745C154.011 -5.49106 186.544 -19.2212 235.929 -25.8633L236.094 -24.6406C187.254 -18.0316 155.134 -4.81364 152.226 10.1888C150.905 17.0126 156.076 23.952 167.097 30.2471L166.551 31.3375Z" fill="#54FF8E"/>
<path d="M69.8121 147.639C50.1173 136.454 40.9968 123.963 43.3761 111.505C48.465 85.2504 104.014 61.9372 188.361 50.5532L188.526 51.7759C104.757 63.0442 49.6051 85.9609 44.5492 111.736C42.2526 123.616 51.1582 135.661 70.3573 146.549L69.8121 147.639Z" fill="#54FF8E"/>
<path d="M53.0253 214.572H51.7861C51.9348 131.96 83.0301 58.8476 137.075 14.0056C182.942 -23.9961 241.762 -38.7507 302.713 -27.4163L302.498 -26.1936C241.91 -37.462 183.454 -22.8891 137.868 14.9473C84.1041 59.525 53.174 132.323 53.0253 214.572Z" fill="#54FF8E"/>
<path d="M3.83806 254.49H2.59888C2.73106 179.61 32.6367 109.241 86.8635 56.369C144.031 0.556094 220.696 -29.1513 302.68 -27.3834V-26.1442C220.828 -28.0443 144.577 1.69615 87.6566 57.2117C33.7437 109.852 3.97024 179.891 3.83806 254.49Z" fill="#54FF8E"/>
<path d="M304.432 344.851C192.839 344.851 85.1121 327.486 32.7524 297.746L32.4385 297.564V297.201C32.7359 138.188 153.895 -7.44083 302.515 -27.4165H302.73L302.911 -27.3174C375.825 14.1045 434.893 177.082 434.596 335.995V336.541H434.067C391.086 342.167 347.779 344.943 304.432 344.851V344.851ZM33.6777 296.837C106.377 337.929 285.464 355.211 433.356 335.417C433.522 177.214 374.867 15.1785 302.482 -26.1608C154.655 -6.16859 34.1568 138.634 33.6777 296.837Z" fill="#54FF8E"/>
<path d="M303.754 55.1299C247.412 55.1299 193.053 46.3565 166.617 31.3376L167.229 30.2471C203.81 51.0324 294.336 59.7727 369.034 49.7271L369.2 50.9497C347.501 53.7903 325.638 55.1868 303.754 55.1299V55.1299Z" fill="#54FF8E"/>
<path d="M304.398 188.4C208.039 188.4 115.018 173.398 69.7791 147.722L70.3904 146.631C133.077 182.254 288.157 197.24 416.09 180.023L416.255 181.262C379.167 186.101 341.8 188.485 304.398 188.4V188.4Z" fill="#54FF8E"/>
<path d="M137.075 330.081H135.836C136.051 171.151 210.782 10.7836 302.3 -27.3833L302.779 -26.2433C211.691 11.7584 137.274 171.597 137.075 330.081Z" fill="#54FF8E"/>
<path d="M280.821 343.993H279.582C279.863 185.245 289.925 18.8301 302.003 -26.9702L303.209 -26.6563C291.148 19.0614 281.102 185.327 280.821 343.993Z" fill="#54FF8E"/>
<path d="M433.356 336.673V335.962C433.654 177.446 374.867 14.914 302.3 -26.2765L300.648 -27.1852L302.465 -27.4166C371.43 -36.6857 437.041 -17.5031 487.236 26.3972C513.928 49.9033 535.039 79.0692 549.03 111.769C564.066 146.334 571.682 184.253 571.649 224.485C594.186 237.373 604.694 251.747 601.869 266.056C595.987 296.424 531.665 323.438 434.017 336.574L433.356 336.673ZM304.497 -26.3922C376.568 16.4011 434.711 177.743 434.595 335.285C531.302 322.199 594.863 295.631 600.696 265.891C603.373 252.078 593.029 238.1 570.774 225.46L570.46 225.278V224.915C570.46 184.716 562.959 146.846 547.956 112.331C534.019 79.8013 513.012 50.7847 486.459 27.3885C436.991 -16.0326 372.421 -35.083 304.497 -26.3922Z" fill="#54FF8E"/>
<path d="M552.351 307.478H551.112C551.409 149.044 439.883 -0.633556 302.498 -26.1938L302.713 -27.4165C440.659 -1.75709 552.649 148.482 552.351 307.478Z" fill="#54FF8E"/>
<path d="M601.539 267.609H600.299C600.597 109.241 467.046 -22.5585 302.597 -26.1934V-27.4326C467.74 -23.7811 601.836 108.564 601.539 267.609Z" fill="#54FF8E"/>
<path d="M301.408 549.483L301.226 549.383C228.329 507.962 169.244 344.984 169.542 186.087V185.542H170.087C318.525 165.566 498.554 182.997 571.385 224.37L571.699 224.551V224.915C571.402 383.911 450.242 529.54 301.623 549.516L301.408 549.483ZM170.781 186.632C170.632 344.819 229.271 506.855 301.656 548.194C449.482 528.185 569.964 383.366 570.46 225.212C497.711 184.121 318.674 166.921 170.781 186.632Z" fill="#54FF8E"/>
<path d="M533.714 375.484C471.028 339.878 315.948 324.892 188.014 342.092L187.849 340.869C316.014 323.636 471.441 338.688 534.342 374.41L533.714 375.484Z" fill="#54FF8E"/>
<path d="M436.975 491.786C400.394 471.001 309.868 462.261 235.169 472.306L235.004 471.084C309.917 461.005 400.807 469.811 437.586 490.712L436.975 491.786Z" fill="#54FF8E"/>
<path d="M301.771 549.417L301.292 548.277C392.463 510.275 466.864 350.436 467.161 191.969H468.4C468.103 350.899 393.355 511.25 301.771 549.417Z" fill="#54FF8E"/>
<path d="M302.135 549.003L300.945 548.689C312.99 502.972 323.036 336.706 323.333 178.057H324.572C324.275 336.805 314.213 503.203 302.135 549.003Z" fill="#54FF8E"/>
<path d="M267.801 551.746C211.41 551.746 158.753 532.365 116.852 495.57C90.1594 472.064 69.0485 442.898 55.0575 410.198C40.0221 375.649 32.4217 337.73 32.4382 297.498C9.90158 284.611 -0.606704 270.236 2.21864 255.928C8.11717 225.559 72.4392 198.529 170.087 185.41L170.781 185.311V186.021C170.484 344.521 229.287 507.02 301.837 548.243L303.49 549.152L301.672 549.383C290.447 550.929 279.132 551.718 267.801 551.746V551.746ZM169.542 186.748C72.8357 199.834 9.27372 226.402 3.44129 256.142C0.764646 269.955 11.1077 283.933 33.3635 296.573L33.6774 296.755V297.118C33.6774 337.317 41.1786 375.187 56.1976 409.686C70.1182 442.216 91.1153 471.234 117.661 494.628C167.146 537.983 231.666 557.033 299.656 548.376C227.585 505.632 169.426 344.323 169.542 186.748Z" fill="#54FF8E"/>
<path d="M69.3331 437.89C49.6548 426.721 40.5179 414.213 42.8971 401.772C47.986 375.518 103.551 352.204 187.882 340.82L188.047 342.043C104.245 353.311 49.093 376.294 44.1198 402.003C41.8066 413.883 50.7288 425.928 69.9114 436.816L69.3331 437.89Z" fill="#54FF8E"/>
<path d="M165.642 528.268C154.077 521.659 148.657 514.29 150.078 506.904C153.085 491.439 185.618 477.726 235.004 471.083L235.169 472.306C186.328 478.915 154.209 492.216 151.301 507.136C149.979 513.959 155.151 520.882 166.171 527.194L165.642 528.268Z" fill="#54FF8E"/>
<path d="M301.424 549.449C163.511 523.807 51.4888 373.551 51.7862 214.572H53.0254C52.728 372.989 164.255 522.666 301.656 548.227L301.424 549.449Z" fill="#54FF8E"/>
<path d="M301.524 549.466C136.398 545.814 2.30148 413.469 2.59888 254.44H3.83807C3.54066 412.808 137.092 544.592 301.557 548.227L301.524 549.466Z" fill="#54FF8E"/>
<path d="M334.8 559.032C323.028 558.805 311.519 555.513 301.408 549.482C290.269 550.985 279.041 551.741 267.801 551.746C211.41 551.746 158.753 532.365 116.852 495.57C90.1596 472.063 69.0486 442.898 55.0577 410.198C39.9727 375.501 32.3723 337.499 32.4384 297.135V296.077L33.3472 296.589C106.046 337.896 285.662 355.228 433.885 335.285L434.579 335.186V335.896C434.381 443.21 407.036 525.674 363.202 551.118C354.612 556.248 344.804 558.981 334.8 559.032V559.032ZM301.656 548.194L301.837 548.309C323.317 560.47 343.705 561.081 362.591 550.127C405.946 524.947 433.042 443.193 433.356 336.673C285.678 356.401 106.988 339.201 33.6776 298.258C33.6776 338.061 41.311 375.567 56.1977 409.768C70.1184 442.298 91.1154 471.316 117.661 494.71C167.576 538.445 232.856 557.496 301.457 548.227L301.656 548.194Z" fill="#54FF8E"/>
<path d="M303.853 478.634C207.494 478.634 114.472 463.632 69.2339 437.939L69.8452 436.865C132.531 472.488 287.611 487.474 415.562 470.257L415.727 471.496C378.633 476.334 341.261 478.719 303.853 478.634V478.634Z" fill="#54FF8E"/>
<path d="M262.894 557.645C245.375 557.597 228.276 552.278 213.822 542.378C164.75 509.597 135.555 430.24 135.753 330.081H137.075C136.877 429.827 165.874 508.804 214.598 541.353C240.588 558.702 270.593 561.098 301.375 548.276L301.854 549.416C289.542 554.717 276.298 557.514 262.894 557.645Z" fill="#54FF8E"/>
<path d="M295.51 561.214H295.245C284.142 559.76 279.384 451.075 279.582 344.009H280.821C280.557 484.45 287.959 559.016 295.394 559.991C296.121 559.991 298.17 559.182 300.945 548.706L302.135 549.02C299.938 557.315 297.839 561.214 295.51 561.214Z" fill="#54FF8E"/>
<path d="M334.8 559.033C323.862 559.033 312.561 555.811 301.226 549.384L299.574 548.475L301.391 548.227C333.652 543.76 364.876 533.654 393.636 518.371C418.536 479.295 433.142 414.279 433.29 335.963V335.45H433.836C487.699 328.214 531.318 316.78 560.53 302.951C567.016 277.454 570.345 251.257 570.444 224.948V223.891L571.369 224.403C594.153 237.241 604.662 251.681 601.919 266.056C599.308 279.538 585.165 292.376 561.687 303.612C538.175 396.138 475.34 476.652 394.529 519.329C385.392 533.588 374.883 544.41 363.219 551.184C354.617 556.294 344.804 559.004 334.8 559.033V559.033ZM303.407 549.202C324.242 560.503 344.135 560.767 362.541 550.127C373.562 543.716 383.541 533.605 392.282 520.469C364.5 534.975 334.47 544.688 303.457 549.202H303.407ZM434.546 336.508C434.331 413.602 420.105 477.825 395.801 517.231C475.109 474.636 536.754 395.411 560.183 304.306C530.971 318.019 487.732 329.321 434.596 336.508H434.546ZM571.683 225.923C571.514 251.628 568.274 277.221 562.034 302.158C584.587 291.22 598.168 278.828 600.68 265.808C603.34 252.21 593.311 238.414 571.699 225.923H571.683Z" fill="#54FF8E"/>
<path d="M341.26 553.183C327.895 553.163 314.56 551.913 301.424 549.449L301.656 548.227C362.244 559.511 420.7 544.922 466.286 507.086C520.05 462.475 550.963 389.776 551.112 307.478H552.351C552.203 390.09 521.124 463.202 467.062 508.027C431.765 537.444 387.207 553.438 341.26 553.183V553.183Z" fill="#54FF8E"/>
<path d="M308.579 549.532C306.232 549.532 303.886 549.532 301.523 549.532V548.293C383.211 550.094 459.528 520.469 516.464 464.887C570.361 412.247 600.134 342.208 600.266 267.675H601.506C601.373 342.555 571.468 412.907 517.324 465.779C461.841 519.924 387.919 549.532 308.579 549.532Z" fill="#54FF8E"/>
<path d="M302.004 561.296H299.756C295.659 561.214 290.438 561.065 286.786 560.916C278.905 560.586 270.148 559.594 265.952 559.115C259.706 558.405 250.685 556.868 250.09 556.753C242.803 555.398 237.599 554.423 231.337 552.837C227.636 551.911 223.423 550.837 220.267 549.929C216.12 548.739 211.411 547.351 207.908 546.129L206.024 545.451C201.844 543.997 196.656 542.147 192.806 540.627C186.032 537.966 181.026 535.835 177.474 534.117C172.054 531.473 161.81 526.417 154.227 522.204C147.618 518.503 141.009 514.538 136.911 511.58C135.407 510.506 133.722 509.35 131.954 508.16C127.807 505.285 123.511 502.327 120.108 499.651C117.051 497.255 106.443 488.862 98.4631 481.476C94.2664 477.593 87.6409 471.199 82.7998 465.928C78.4874 461.236 70.441 452.297 64.9556 445.044C54.9032 432.146 45.9236 418.448 38.1065 404.085C30.9598 390.363 24.637 376.228 19.1718 361.754C16.1705 353.531 13.6114 345.153 11.5053 336.657C10.2496 331.964 9.07651 326.214 7.93646 320.663C7.42426 318.118 6.91206 315.706 6.43291 313.426C4.72395 304.763 3.57054 295.999 2.97972 287.188C2.31882 278.217 1.87272 267.758 1.8562 260.537C1.8562 255.184 2.21969 248.46 2.55014 242.528C2.68232 240.248 2.79797 238.067 2.8971 236.068C3.47559 226.188 4.77887 216.363 6.79641 206.674L7.83733 201.85C9.10956 195.769 10.5636 188.879 12.0341 183.493C14.1159 175.794 17.2386 165.88 19.7996 158.825C22.2615 152.034 25.7807 143.377 28.5896 137.346C30.5557 133.067 35.6281 122.244 40.2875 114.297C47.3921 102.136 57.9335 86.8531 65.4182 76.6092C70.6648 69.7846 76.2509 63.228 82.1554 56.964C88.3845 50.1759 94.9639 43.7178 101.867 37.6161C106.196 33.8986 121.33 21.0937 134.201 12.3698C140.48 8.10699 149.98 2.07629 157.812 -2.07086L159.167 -2.79785C163.496 -5.09448 168.898 -7.95287 173.128 -9.95209C177.358 -11.9513 185.57 -15.7349 191.815 -18.1142L194.145 -19.0229C196.954 -20.0969 200.126 -21.3361 202.703 -22.1787C208.272 -24.0127 217.574 -27.1355 224.513 -28.9034C236.911 -32.2174 249.504 -34.7558 262.217 -36.5037L262.3 -35.8924L262.217 -36.5037C269.851 -37.5281 278.211 -38.3377 284.589 -38.6682C290.223 -38.9656 292.321 -39.0812 297.972 -39.1638C303.623 -39.2464 309.373 -39.1638 310.942 -39.0482C314.908 -38.916 318.658 -38.7838 324.16 -38.3708C329.662 -37.9577 332.537 -37.6603 338.287 -36.9994C343.244 -36.4046 343.921 -36.3054 354.033 -34.6532C355.982 -34.3393 358.312 -33.8766 360.377 -33.4636L362.658 -33.0175C368.044 -31.9766 378.205 -29.4817 383.955 -27.7964C391.787 -25.5163 401.799 -22.1952 408.904 -19.5351C414.852 -17.3046 421.874 -14.3636 426.798 -12.0339C433.407 -8.89464 442.775 -4.11964 450.061 -0.121204C452.903 1.53104 455.712 3.18329 458.455 4.83554C461.578 6.70258 464.618 8.56962 467.179 10.321C475.837 16.2856 485.915 23.7207 492.855 29.2723C503.198 37.5335 515.854 50.4211 524.479 59.3763C531.096 66.3266 537.213 73.7362 542.786 81.5494L545.627 85.6305C549.725 91.4629 554.351 98.0884 557.755 103.508C561.867 109.988 565.65 116.672 569.089 123.533L570.51 126.474C573.6 132.885 577.433 140.882 580.027 147.127C582.621 153.373 585.843 162.163 588.074 169.102C590.304 176.042 593.146 186.352 594.964 194.183C596.864 202.444 598.648 213.349 599.342 217.695C601.462 232.203 602.5 246.85 602.448 261.512C602.061 277.719 600.726 293.889 598.45 309.94C597.246 318.555 595.457 327.078 593.097 335.45C592.469 337.565 591.791 339.945 591.097 342.39C589.544 347.809 587.942 353.427 586.355 358.004C583.679 366.12 580.563 374.085 577.02 381.862C576.128 383.713 575.17 385.761 574.162 387.876C571.849 392.833 569.205 398.318 566.908 402.598C563.108 409.603 557.871 418.443 553.872 424.573C549.874 430.703 544.719 437.972 540.803 443.045C538.605 445.87 530.889 455.701 524.28 462.872C517.952 469.679 512.715 474.95 508.948 478.552C502.603 484.5 494.804 491.29 489.121 495.851C484.676 499.403 478.001 504.475 472.598 508.094C465.51 512.885 455.894 518.784 449.268 522.7C438.521 528.72 427.432 534.11 416.058 538.842C412.093 540.395 401.981 544.311 393.968 546.889C387.706 548.904 378.883 551.366 372.009 553.035C365.136 554.704 356.908 556.339 351.108 557.314C339.956 559.115 335.825 559.495 326.787 560.338C324.755 560.52 317.287 561.147 306.349 561.329L302.004 561.296ZM301.59 -37.9577H297.906C292.272 -37.8751 290.19 -37.7594 284.589 -37.462C278.211 -37.1316 269.9 -36.322 262.3 -35.3141C249.641 -33.5707 237.104 -31.0379 224.761 -27.7303C217.888 -25.9293 208.569 -22.8727 203.001 -21.1213C200.456 -20.2786 197.301 -19.056 194.508 -17.982L192.179 -17.0733C185.966 -14.7106 177.854 -10.96 173.574 -8.94422C169.295 -6.92847 163.991 -4.10312 159.662 -1.82302L158.308 -1.09604C150.24 3.29282 142.398 8.0849 134.813 13.262C121.991 21.9694 106.906 34.7412 102.594 38.4257C95.7253 44.4901 89.1842 50.9154 82.9981 57.6744C77.115 63.9045 71.5508 70.4282 66.3269 77.2205C58.8587 87.4314 48.367 102.665 41.2788 114.793C36.6525 122.69 31.5801 133.463 29.6305 137.742C26.8382 143.79 23.3354 152.414 20.8736 159.222C18.4117 166.029 15.2229 176.124 13.1411 183.791C11.6871 189.144 10.2331 196.017 8.96087 202.064C8.59738 203.717 8.26691 205.369 7.93646 206.905C5.91649 216.527 4.61863 226.286 4.05369 236.101C3.95456 238.1 3.83889 240.281 3.70671 242.561C3.37626 248.476 3.01277 255.184 3.01277 260.488C3.01277 267.692 3.47539 278.117 4.13629 287.056C4.72379 295.81 5.86615 304.519 7.55645 313.128C8.05213 315.359 8.5478 317.821 9.07652 320.382C10.2 325.917 11.3731 331.634 12.6123 336.31C14.718 344.759 17.2828 353.088 20.2953 361.258C25.7382 375.683 32.039 389.769 39.164 403.44C46.954 417.75 55.9004 431.399 65.9138 444.251C71.3663 451.455 79.3797 460.377 83.6755 465.036C88.4835 470.274 95.0925 476.602 99.2727 480.518C107.204 487.87 117.794 496.247 120.752 498.693C124.139 501.353 128.402 504.294 132.549 507.152L137.506 510.589C143.053 514.389 148.788 517.907 154.689 521.13C162.256 525.327 172.467 530.383 177.821 533.01C181.34 534.662 186.33 536.843 193.054 539.503C196.954 541.023 202.125 542.808 206.272 544.311L208.172 544.972C211.642 546.195 216.334 547.566 220.465 548.756C223.604 549.648 227.801 550.722 231.486 551.647C237.715 553.217 242.903 554.192 250.09 555.546C250.767 555.679 259.723 557.199 265.935 557.893C270.132 558.372 278.856 559.363 286.687 559.694C290.339 559.842 295.543 559.991 299.641 560.074C301.739 560.074 304.598 560.074 306.085 560.074C316.989 559.892 324.425 559.28 326.44 559.082C335.462 558.256 339.559 557.86 350.679 556.075C356.462 555.133 364.624 553.465 371.481 551.812C378.337 550.16 387.127 547.698 393.356 545.699C401.337 543.121 411.415 539.222 415.381 537.669C426.698 532.968 437.732 527.611 448.426 521.626C455.035 517.71 464.618 511.828 471.689 507.053C477.026 503.451 483.668 498.395 488.113 494.859C493.796 490.332 501.562 483.558 507.94 477.626C511.756 474.057 516.895 468.803 523.207 462.013C529.816 454.924 537.482 445.143 539.729 442.318C543.628 437.361 548.849 429.876 552.732 423.928C556.615 417.98 561.935 409.058 565.719 402.036C568.015 397.79 570.676 392.255 572.939 387.381L575.814 381.366C579.331 373.624 582.431 365.698 585.1 357.624C586.669 353.08 588.256 347.479 589.809 342.076C590.503 339.631 591.18 337.251 591.808 335.12C594.148 326.823 595.926 318.377 597.128 309.841C599.389 293.838 600.718 277.718 601.11 261.562C601.166 246.965 600.134 232.385 598.02 217.942C597.326 213.63 595.542 202.692 593.658 194.53C591.841 186.715 589.082 176.686 586.802 169.548C584.521 162.41 581.366 153.835 578.788 147.656C576.211 141.476 572.377 133.48 569.288 127.069L567.883 124.128C564.455 117.334 560.689 110.717 556.598 104.301C553.211 98.898 548.602 92.289 544.521 86.4731L541.662 82.3921C536.135 74.6278 530.061 67.2677 523.487 60.3676C514.879 51.4289 502.256 38.6075 491.979 30.3628L489.435 28.3636C540.225 73.6682 569.965 141.196 571.617 217.447C571.617 219.727 571.7 221.991 571.7 224.287V224.849C571.403 383.845 450.243 529.474 301.624 549.45L301.458 548.227C449.483 528.4 570.163 383.25 570.461 224.849V224.287C570.461 131.1 528.527 50.2724 457.728 5.9095L454.77 4.15811C452.854 3.01806 451.02 1.92758 449.368 0.853617C442.114 -3.11178 432.845 -7.88678 426.236 -11.0095C421.279 -13.3227 414.34 -16.2637 408.441 -18.4777C401.37 -21.1543 391.374 -24.4753 383.658 -26.7389C377.924 -28.3912 367.829 -30.8695 362.476 -31.9105L360.13 -32.3235C358.081 -32.7201 355.768 -33.1827 353.917 -33.4801C343.756 -35.1323 343.145 -35.248 338.138 -35.8263C332.405 -36.5037 329.728 -36.7846 324.061 -37.1977C318.394 -37.6107 314.858 -37.7429 310.843 -37.8916C309.604 -37.9577 305.771 -37.9577 301.59 -37.9577Z" fill="#54FF8E"/>
<path d="M301.408 551.069L301.226 550.97C227.949 509.317 168.468 345.447 168.815 185.675V185.096H169.36C318.624 165.021 499.628 182.535 572.872 224.139L573.186 224.321V224.684C572.889 384.523 451.002 530.945 301.622 551.036L301.408 551.069ZM170.12 186.22C169.971 345.282 228.94 508.21 301.722 549.714C450.424 529.606 571.534 384.01 571.996 224.949C498.802 183.692 318.822 166.31 170.12 186.22Z" fill="#54FF8E"/>
<path d="M437.784 493.059C401.005 472.158 309.966 463.318 234.872 473.463L234.706 472.24C310.032 462.112 401.418 470.968 438.395 491.968L437.784 493.059Z" fill="#54FF8E"/>
<path d="M535.002 376.112C471.969 340.308 316.03 325.24 187.386 342.539L187.22 341.316C316.096 323.984 472.382 339.119 535.613 375.038L535.002 376.112Z" fill="#54FF8E"/>
<path d="M301.771 551.003L301.292 549.863C392.959 511.647 467.772 350.933 468.07 191.59H469.309C469.012 351.395 393.851 512.622 301.771 551.003Z" fill="#54FF8E"/>
<path d="M302.135 550.59L300.928 550.276C313.056 504.311 323.151 337.136 323.449 177.595H324.688C324.39 337.219 314.279 504.542 302.135 550.59Z" fill="#54FF8E"/>
<path d="M267.602 553.349C210.897 553.349 157.959 533.853 115.81 496.925C88.9621 473.27 67.7371 443.916 53.6859 411.008C38.5678 376.311 30.9179 338.127 30.9509 297.68C8.2821 284.71 -2.2262 270.27 0.549581 255.895C6.54724 225.428 71.1666 198.314 169.36 185.096L170.054 184.997V185.708C169.756 345.083 228.874 508.474 301.837 549.929L303.489 550.838L301.672 551.069C290.379 552.588 278.997 553.349 267.602 553.349V553.349ZM168.798 186.385C71.5467 199.603 7.57163 226.287 1.77224 256.209C-0.920923 270.088 9.48824 284.149 31.8762 296.854L32.1901 297.036V297.449C32.1075 337.863 39.7244 375.947 54.8094 410.645C68.8115 443.356 89.9333 472.533 116.637 496.049C166.386 539.636 231.319 558.835 299.64 550.094C227.172 507.02 168.699 344.786 168.815 186.385H168.798Z" fill="#54FF8E"/>
<path d="M164.882 529.739C153.217 523.13 147.814 515.678 149.252 508.259C152.259 492.728 184.973 478.932 234.64 472.257L234.805 473.48C185.684 480.089 153.383 493.505 150.541 508.507C149.202 515.364 154.407 522.337 165.56 528.681L164.882 529.739Z" fill="#54FF8E"/>
<path d="M67.9945 438.915C48.1675 427.679 39.0141 415.122 41.4429 402.565C46.5648 376.129 102.411 352.684 187.221 341.283L187.386 342.506C103.121 353.84 47.6719 376.939 42.649 402.796C40.3359 414.742 49.258 426.853 68.6058 437.808L67.9945 438.915Z" fill="#54FF8E"/>
<path d="M301.424 551.036C162.635 525.228 50.1172 374.246 50.4147 214.325H51.6538C51.3564 373.618 163.495 524.121 301.639 549.814L301.424 551.036Z" fill="#54FF8E"/>
<path d="M301.523 551.053C135.423 547.385 0.648887 414.313 0.946292 254.392H2.18548C1.88807 413.619 136.183 546.146 301.54 549.797L301.523 551.053Z" fill="#54FF8E"/>
<path d="M334.981 560.685C323.145 560.45 311.574 557.136 301.408 551.069C232.145 560.338 166.254 541.156 115.827 496.925C88.9789 473.27 67.7539 443.916 53.7026 411.008C38.535 376.162 30.8851 337.896 30.9677 297.317V296.259L31.893 296.771C104.922 338.276 285.596 355.724 434.612 335.682L435.322 335.583V336.293C435.124 444.185 407.614 527.111 363.549 552.738C354.91 557.898 345.044 560.642 334.981 560.685ZM301.655 549.78L301.837 549.896C323.316 562.123 343.936 562.75 362.97 551.713C406.573 526.401 433.819 444.185 434.133 337.086C285.629 356.913 105.963 339.614 32.2565 298.457C32.2565 338.474 39.9229 376.195 54.8757 410.595C68.8778 443.306 89.9996 472.483 116.703 496C166.898 539.982 232.525 559.099 301.507 549.813L301.655 549.78Z" fill="#54FF8E"/>
<path d="M303.853 479.824C206.981 479.824 113.448 464.739 67.9944 438.914L68.6057 437.84C131.639 473.661 287.562 488.713 416.222 471.414L416.371 472.637C379.064 477.51 341.476 479.911 303.853 479.824V479.824Z" fill="#54FF8E"/>
<path d="M262.646 559.281C245.033 559.232 227.842 553.883 213.31 543.931C163.957 510.969 134.613 431.165 134.795 330.461H136.034C135.852 430.752 164.998 510.159 214.004 542.89C240.126 560.355 270.312 562.717 301.259 549.863L301.738 551.003C289.385 556.325 276.096 559.139 262.646 559.281Z" fill="#54FF8E"/>
<path d="M295.476 562.866H295.195C284.043 561.412 279.251 452.166 279.449 344.456H280.688C280.424 485.723 287.876 560.636 295.36 561.611C296.153 561.759 298.169 560.784 300.928 550.276L302.135 550.59C299.937 558.934 297.806 562.866 295.476 562.866Z" fill="#54FF8E"/>
<path d="M334.981 560.685C323.977 560.685 312.61 557.381 301.226 550.97L299.574 550.061L301.408 549.813C333.845 545.332 365.239 535.17 394.148 519.792C419.196 480.502 433.885 415.139 434.034 336.393V335.847H434.562C488.74 328.561 532.64 317.078 561.984 303.166C568.487 277.526 571.816 251.185 571.897 224.734V223.676L572.823 224.188C595.706 237.192 606.314 251.715 603.521 266.156C600.894 279.721 586.668 292.592 563.058 303.942C539.431 397.014 476.232 477.924 394.991 520.833C385.805 535.175 375.164 546.046 363.499 552.87C354.862 557.975 345.015 560.674 334.981 560.685V560.685ZM303.457 550.772C324.407 562.139 344.416 562.453 362.937 551.697C374.024 545.27 384.053 535.175 392.843 521.874C364.894 536.491 334.671 546.268 303.457 550.788V550.772ZM435.322 336.905C435.108 414.428 420.799 478.998 396.362 518.652C476.1 475.809 538.109 396.138 561.587 304.537C532.227 318.334 488.756 329.701 435.322 336.921V336.905ZM573.169 225.709C573.008 251.559 569.752 277.297 563.471 302.373C586.173 291.385 599.82 278.911 602.348 265.825C605.008 252.161 594.913 238.299 573.169 225.725V225.709Z" fill="#54FF8E"/>
<path d="M341.475 554.787C328.038 554.769 314.631 553.513 301.424 551.036L301.639 549.813C362.557 561.148 421.344 546.509 467.178 508.507C521.239 463.649 552.334 390.504 552.5 307.792H553.739C553.574 390.867 522.346 464.376 467.971 509.366C432.481 538.95 387.677 555.038 341.475 554.787Z" fill="#54FF8E"/>
<path d="M308.611 551.119C306.249 551.119 303.886 551.119 301.523 551.119V549.88C383.723 551.681 460.42 521.907 517.654 466.011C571.864 413.14 601.803 342.671 601.918 267.742H603.158C603.025 343.018 572.954 413.751 518.513 466.92C462.716 521.345 388.398 551.119 308.611 551.119Z" fill="#54FF8E"/>
<path d="M573.169 225.709L572.244 225.197C499.214 183.692 318.558 166.244 169.525 186.286L168.814 186.385V185.675C169.013 77.7665 196.523 -5.15988 240.605 -30.7697C259.672 -41.8398 281.151 -41.245 302.729 -29.1175C371.975 -38.3701 437.883 -19.204 488.31 25.0267C515.153 48.6862 536.377 78.0387 550.434 110.944C565.602 145.789 573.252 184.039 573.186 224.635L573.169 225.709ZM299.689 176.736C411.249 176.736 518.959 194.002 571.946 223.594C571.946 183.56 564.263 145.839 549.311 111.456C535.309 78.7395 514.187 49.5575 487.483 26.0346C437.288 -17.9483 371.694 -37.0483 302.696 -27.7791H302.481L302.3 -27.8783C280.82 -40.1214 260.2 -40.7328 241.166 -29.7123C197.63 -4.3668 170.384 77.8491 170.12 184.964C213.083 179.387 256.366 176.638 299.689 176.736V176.736Z" fill="#54FF8E"/>
<path d="M535.548 84.21C472.481 48.3892 316.559 33.3373 187.931 50.6363L187.766 49.3971C316.641 32.065 472.911 47.1996 536.159 83.1195L535.548 84.21Z" fill="#54FF8E"/>
<path d="M469.309 191.59H468.07C468.252 91.2982 439.106 11.8746 390.1 -20.8564C363.978 -38.3207 333.808 -40.6834 302.845 -27.8124L302.366 -28.9689C333.759 -42.0382 364.292 -39.5764 390.794 -21.8973C440.147 11.0815 469.491 90.9182 469.309 191.59Z" fill="#54FF8E"/>
<path d="M324.688 177.595H323.449C323.779 36.3937 316.262 -38.6018 308.777 -39.6097C308.033 -39.7254 305.985 -38.8001 303.209 -28.2753L302.003 -28.5892C304.299 -37.2635 306.53 -41.1463 308.942 -40.8489C320.095 -39.3619 324.886 69.9343 324.688 177.595Z" fill="#54FF8E"/>
<path d="M32.2066 298.457L31.2814 297.945C8.38122 284.942 -2.22622 270.418 0.566082 255.978C3.20968 242.413 17.419 229.542 41.0296 218.191C64.6568 125.103 127.855 44.1925 209.113 1.28366C218.299 -13.0579 228.94 -23.9296 240.605 -30.7534C259.721 -41.8565 281.267 -41.2287 302.911 -28.936L304.563 -28.0272L302.746 -27.7794C270.286 -23.306 238.869 -13.1433 209.939 2.24197C184.891 41.5324 170.285 106.895 170.054 185.642V186.187H169.525C115.348 193.473 71.4641 204.956 42.1201 218.868C35.6174 244.508 32.288 270.849 32.2066 297.3V298.457ZM40.6661 219.661C17.9808 230.649 4.31668 243.123 1.78874 256.209C-0.871377 269.89 9.22387 283.752 30.9675 296.326C31.1289 270.475 34.3849 244.737 40.6661 219.661V219.661ZM207.791 3.34897C128.037 46.3074 66.0282 125.896 42.4836 217.513C71.9102 203.717 115.381 192.35 168.815 185.129C169.029 107.589 183.338 43.0029 207.791 3.34897ZM269.255 -37.5111C259.36 -37.476 249.657 -34.7764 241.166 -29.696C230.08 -23.2522 220.051 -13.1735 211.261 0.0444735C239.222 -14.5203 269.443 -24.2568 300.647 -28.7542C289.897 -34.5811 279.433 -37.5001 269.255 -37.5111Z" fill="#54FF8E"/>
<path d="M68.5231 147.094C48.6962 135.842 39.5592 123.285 41.988 110.745C47.0935 84.3088 102.956 60.8634 187.766 49.4629L187.931 50.7021C103.666 62.02 48.217 85.1349 43.1942 110.993C40.881 122.938 49.8032 135.033 69.1345 145.987L68.5231 147.094Z" fill="#54FF8E"/>
<path d="M165.808 30.0657C154.143 23.4567 148.74 16.0051 150.177 8.58647C153.185 -6.94466 185.916 -20.7409 235.566 -27.416L235.731 -26.1933C186.609 -19.5844 154.308 -6.16811 151.466 8.81778C150.128 15.6746 155.332 22.6636 166.485 29.0083L165.808 30.0657Z" fill="#54FF8E"/>
<path d="M51.654 214.324H50.4148C50.5635 131.233 81.8075 57.7242 136.183 12.6509C182.297 -25.6151 241.448 -40.4028 302.713 -29.0023L302.498 -27.7796C241.58 -39.114 182.793 -24.4751 136.96 13.5266C82.898 58.4512 51.8027 131.613 51.654 214.324Z" fill="#54FF8E"/>
<path d="M2.18548 254.491H0.946289C1.09499 179.215 31.1494 108.465 85.6075 55.2959C143.089 -0.880511 220.15 -30.7366 302.614 -28.9687V-27.7295C220.464 -29.547 143.734 0.243005 86.4997 56.1386C32.2564 109.093 2.33418 179.446 2.18548 254.491Z" fill="#54FF8E"/>
<path d="M304.448 345.364C192.243 345.364 83.9221 327.851 31.331 297.945L31.0171 297.763V297.449C31.331 137.512 153.085 -8.91062 302.531 -29.002H302.729L302.911 -28.9028C376.221 12.7504 435.62 176.637 435.322 336.409V336.954H434.777C391.567 342.63 348.029 345.44 304.448 345.364V345.364ZM32.2067 297.036C105.352 338.342 285.364 355.741 434.083 335.831C434.248 176.769 375.279 13.8243 302.481 -27.6636C153.845 -7.63838 32.6693 137.958 32.2067 297.036Z" fill="#54FF8E"/>
<path d="M304.398 187.905C207.527 187.905 113.993 172.837 68.5229 147.012L69.1343 145.921C132.118 181.792 288.107 196.811 416.751 179.495L416.916 180.734C379.609 185.602 342.021 187.998 304.398 187.905V187.905Z" fill="#54FF8E"/>
<path d="M303.754 53.9902C247.115 53.9902 192.409 45.1672 165.808 30.0657L166.419 28.9917C203.215 49.8761 294.237 58.7322 369.348 48.5708L369.513 49.7935C347.71 52.6446 325.742 54.0466 303.754 53.9902V53.9902Z" fill="#54FF8E"/>
<path d="M136.067 330.494H134.828C135.125 170.689 210.286 9.44569 302.366 -28.936L302.845 -27.7795C211.178 10.3875 136.364 171.102 136.067 330.494Z" fill="#54FF8E"/>
<path d="M280.688 344.455H279.449C279.747 184.832 289.875 17.5086 302.002 -28.5396L303.209 -28.2256C291.081 17.7234 280.986 184.914 280.688 344.455Z" fill="#54FF8E"/>
<path d="M434.083 337.103V336.393C434.38 177.001 375.263 13.6097 302.3 -27.8287L300.647 -28.7374L302.481 -28.9853C371.876 -38.3039 437.784 -19.0718 488.26 25.1259C515.104 48.7853 536.328 78.1379 550.385 111.043C565.503 145.74 573.153 183.923 573.136 224.37C595.805 237.324 606.313 251.781 603.521 266.156C597.589 296.706 532.92 323.869 434.727 337.07L434.083 337.103ZM304.497 -28.0435C376.965 14.915 435.438 177.232 435.322 335.633C532.574 322.415 596.549 295.731 602.348 265.809C605.041 251.93 594.632 237.869 572.244 225.164L571.947 224.982V224.618C571.947 184.204 564.396 146.12 549.311 111.423C535.309 78.7065 514.187 49.5245 487.484 26.0015C437.784 -17.5517 372.818 -36.7178 304.497 -28.0435Z" fill="#54FF8E"/>
<path d="M553.739 307.726H552.5C552.797 148.433 440.642 -2.08682 302.498 -27.7793L302.713 -29.002C441.419 -3.25993 554.036 147.855 553.739 307.726Z" fill="#54FF8E"/>
<path d="M603.191 267.709H601.951C602.249 108.465 467.954 -24.062 302.597 -27.7135V-28.9526C468.648 -25.3507 603.488 107.738 603.191 267.709Z" fill="#54FF8E"/>
<path d="M302.118 562.949C287.437 562.944 272.775 561.867 258.251 559.727C245.38 557.843 235.285 555.447 230.972 554.423C219.026 551.598 207.51 547.715 207.411 547.665C196.974 544.216 186.736 540.189 176.745 535.604C169.69 532.465 160.223 527.64 153.333 523.625C147.534 520.321 140.941 516.388 136.133 513.067C127.426 507.07 117.298 499.601 110.325 494.017C99.9324 485.756 87.1936 472.752 78.5193 463.748C71.8632 456.758 65.7124 449.304 60.1133 441.442L57.2714 437.394C53.1573 431.512 48.498 424.837 45.0613 419.368C40.6498 412.346 35.627 402.978 33.6608 399.277C29.8111 391.974 25.3995 382.226 22.6568 375.518C20.8228 371.09 18.9062 365.604 17.0557 360.383C16.1965 357.938 15.4034 355.575 14.5773 353.444C11.6869 345.193 9.37372 336.752 7.6544 328.181C4.44962 312.351 2.13833 296.354 0.731486 280.265C-0.144206 267.725 -0.491183 249.468 1.17759 235.82C1.45847 233.49 1.72284 230.863 1.9872 228.269C2.63157 222.073 3.34204 215.051 4.51514 209.566C4.99429 207.352 5.48995 204.89 6.00215 202.345C7.12568 196.728 8.28226 190.928 9.52145 186.17C11.5868 177.729 14.1074 169.406 17.0722 161.238C17.8488 159.271 18.7245 157.09 19.5341 154.827C21.5663 149.49 23.6812 143.972 25.6804 139.477C28.9849 132.059 33.6112 122.691 37.2462 116.197C40.8811 109.704 45.5074 101.971 49.0432 96.5355C53.8017 89.1185 58.9358 81.9495 64.4256 75.0563C73.7321 63.6094 83.6605 52.6826 94.1661 42.3252C99.6185 37.1867 107.467 30.3464 114.142 24.9271C119.231 20.7799 125.889 15.8397 130.664 12.6013C137.273 8.1237 146.774 2.22518 154.11 -2.08718C158.67 -4.7473 164.932 -8.0518 169.707 -10.3484C174.878 -12.7772 180.793 -15.52 185.337 -17.4696C188.856 -18.9566 193.598 -20.7741 197.283 -22.162L198.555 -22.6412C206.949 -25.83 217.721 -28.9197 220.827 -29.7789C225.635 -31.1172 229.221 -32.059 231.798 -32.6372C237.234 -33.8434 245.991 -35.7104 252.798 -36.9331C257.359 -37.7592 268.313 -39.2958 277.367 -39.9897C297.689 -41.6579 318.127 -41.2593 338.368 -38.8001C352.561 -37.0653 363.152 -34.7521 363.152 -34.7356C369.976 -33.199 377.923 -31.2659 383.392 -29.7789C387.886 -28.5562 393.636 -26.7057 396.61 -25.7143C401.203 -24.1943 407.35 -21.9637 411.877 -20.1793C416.999 -18.1636 423.724 -15.2225 427.276 -13.5703C431.836 -11.538 437.189 -8.81183 442.146 -6.18475C445.004 -4.71425 447.846 -3.17766 450.639 -1.5915L451.547 -1.02975C462.221 5.57925 475.488 13.6587 484.906 21.0773C492.292 26.8932 500.834 34.064 506.683 39.3512C511.805 43.994 518.133 50.2725 522.445 55.0145C528.608 61.7887 535.663 70.0169 540.372 75.9981C544.205 80.8557 549.443 88.1255 553.706 94.5197C557.969 100.914 563.19 109.621 567.37 117.189C570.245 122.41 573.467 129.184 576.309 135.149L577.663 138.007C581.084 145.145 584.801 155.157 587.296 162.295C588.948 166.855 590.601 172.456 592.088 177.876C592.815 180.371 593.508 182.832 594.169 184.947C596.64 193.374 598.479 201.973 599.671 210.673C599.952 212.903 600.299 215.349 600.663 217.893C601.472 223.709 602.315 229.707 602.728 234.713C603.389 242.759 603.852 253.532 603.868 261.512C603.596 277.82 602.249 294.091 599.837 310.221C598.43 319.939 596.36 329.55 593.641 338.986C593.112 340.738 592.534 342.654 591.988 344.637C590.336 350.255 588.436 356.616 586.668 361.573C583.884 369.699 580.663 377.669 577.019 385.448L574.921 390.123C572.327 395.46 569.386 401.507 566.808 406.167C562.909 413.172 557.539 421.995 553.458 428.109C544.452 441.613 534.374 454.371 523.321 466.259C521.223 468.49 513.887 476.172 507.773 481.823C501.28 487.771 493.366 494.529 487.599 499.04C483.089 502.542 476.364 507.565 470.994 511.101C463.774 515.859 454.009 521.725 447.285 525.608C436.191 531.672 424.742 537.063 413 541.75C406.92 544.063 397.948 547.318 391.075 549.45C384.863 551.366 376.122 553.712 369.332 555.282C347.289 560.372 324.74 562.943 302.118 562.949ZM153.961 522.551C160.867 526.55 170.219 531.341 177.258 534.464C187.213 539.035 197.412 543.056 207.808 546.509C207.923 546.509 219.373 550.408 231.237 553.217C235.549 554.241 245.611 556.62 258.433 558.504C295.286 563.96 332.836 562.452 369.133 554.059C375.891 552.506 384.582 550.177 390.761 548.26C397.618 546.129 406.557 542.907 412.637 540.594C424.284 535.923 435.644 530.566 446.657 524.55C453.381 520.651 463.179 514.819 470.317 510.077C475.654 506.557 482.345 501.551 486.839 498.048C492.589 493.571 500.487 486.829 506.964 480.898C511.061 477.147 516.877 471.348 522.429 465.416C533.436 453.573 543.476 440.865 552.45 427.415C556.515 421.301 561.851 412.544 565.668 405.539C568.246 400.913 571.17 394.882 573.748 389.562L576.028 384.886C579.641 377.141 582.84 369.21 585.611 361.126C587.379 356.17 589.262 349.858 590.914 344.274C591.509 342.291 592.071 340.374 592.567 338.606C595.265 329.234 597.324 319.69 598.73 310.039C601.134 293.969 602.475 277.759 602.745 261.512C602.745 253.532 602.282 242.809 601.621 234.796C601.208 229.839 600.365 223.841 599.556 218.058C599.192 215.497 598.845 213.102 598.564 210.805C597.374 202.183 595.546 193.662 593.095 185.311C592.435 183.13 591.741 180.718 591.014 178.223C589.46 172.82 587.841 167.235 586.255 162.708C583.744 155.603 580.059 145.64 576.672 138.552L575.301 135.677C572.475 129.729 569.253 122.988 566.395 117.783C562.231 110.233 556.895 101.377 552.781 95.2137C548.666 89.0508 543.346 81.5992 539.563 76.7746C534.854 70.81 527.832 62.5983 521.685 55.8406C517.406 51.1482 511.111 44.8862 506.022 40.2764C500.173 35.0058 491.664 27.8515 484.311 22.1017C474.927 14.6831 461.692 6.55407 451.002 0.0442175L450.126 -0.501027C447.648 -1.85587 444.74 -3.44202 441.683 -5.06122C399.865 -26.5404 352.132 -34.3556 302.895 -27.7962H302.795H302.581L302.415 -29.0188C337.833 -34.0299 373.922 -31.0606 408.044 -20.328C404.177 -21.782 399.865 -23.3186 396.478 -24.4586C393.454 -25.4665 387.738 -27.3005 383.26 -28.5066C377.808 -29.9771 369.893 -31.8111 363.086 -33.4634C362.987 -33.4634 352.611 -35.76 338.385 -37.5114C318.187 -39.9562 297.792 -40.3381 277.516 -38.6514C268.495 -37.9575 257.59 -36.4374 253.079 -35.6113C246.289 -34.3886 237.548 -32.5381 232.129 -31.332C229.551 -30.7537 225.999 -29.8284 221.207 -28.4901C218.118 -27.6309 207.378 -24.5578 199.051 -21.3854L197.762 -20.9063C194.028 -19.4854 189.369 -17.7174 185.866 -16.2304C181.339 -14.2973 175.457 -11.5546 170.285 -9.12576C165.543 -6.89523 159.314 -3.62377 154.787 -0.963655C147.468 3.33219 138.066 9.21419 131.391 13.6753C126.6 16.9798 119.974 21.8208 114.869 25.9349C108.26 31.3543 100.412 38.1451 95.0418 43.267C84.5399 53.5932 74.6116 64.4868 65.3013 75.8989C59.8415 82.7649 54.7296 89.9006 49.985 97.279C46.4657 102.599 41.7238 110.497 38.254 116.858C34.7843 123.219 30.0919 132.654 26.7874 139.99C24.8047 144.434 22.7064 149.903 20.6741 155.273C19.8149 157.536 19.0219 159.717 18.2123 161.7C15.2572 169.817 12.753 178.091 10.7111 186.484C9.47188 191.209 8.3153 196.992 7.19177 202.593C6.67957 205.138 6.1839 207.55 5.72127 209.83C4.5647 215.25 3.8377 222.239 3.20985 228.401C2.92896 231.062 2.6646 233.639 2.38372 235.969C0.731473 249.534 1.07845 267.692 1.95415 280.183C3.35492 296.2 5.65517 312.125 8.84402 327.883C10.5641 336.391 12.8661 344.772 15.7339 352.964C16.5104 355.079 17.3861 357.458 18.1957 359.904C20.0463 365.158 21.9629 370.577 23.7969 374.989C26.5726 381.598 30.9015 391.363 34.7513 398.616C36.7009 402.317 41.7072 411.652 46.1022 418.641C49.5058 424.094 54.1652 430.752 58.2793 436.618L61.1211 440.682C66.6804 448.486 72.787 455.884 79.395 462.822C88.0363 471.811 100.742 484.715 111.085 492.992C118.025 498.544 128.136 506.012 136.811 511.977C141.602 515.281 148.162 519.131 153.944 522.485L153.961 522.551Z" fill="#54FF8E"/>
<path d="M301.407 551.069L301.226 550.97C227.948 509.317 168.468 345.447 168.814 185.675V185.096H169.36C318.624 165.021 499.628 182.535 572.872 224.139L573.186 224.321V224.684C572.888 384.523 451.002 530.945 301.622 551.036L301.407 551.069ZM170.12 186.22C169.971 345.282 228.94 508.21 301.721 549.714C450.424 529.606 571.533 384.01 571.996 224.949C498.801 183.692 318.822 166.31 170.12 186.22Z" fill="#54FF8E"/>
<path d="M437.784 493.059C401.005 472.158 309.966 463.318 234.871 473.463L234.706 472.24C310.032 462.112 401.418 470.968 438.395 491.968L437.784 493.059Z" fill="#54FF8E"/>
<path d="M535.002 376.112C471.969 340.308 316.03 325.24 187.386 342.539L187.22 341.316C316.096 323.984 472.382 339.119 535.613 375.038L535.002 376.112Z" fill="#54FF8E"/>
<path d="M301.771 551.003L301.292 549.863C392.959 511.646 467.772 350.932 468.07 191.589H469.309C469.012 351.395 393.851 512.621 301.771 551.003Z" fill="#54FF8E"/>
<path d="M302.135 550.59L300.928 550.276C313.056 504.311 323.151 337.136 323.449 177.595H324.688C324.39 337.219 314.279 504.542 302.135 550.59Z" fill="#54FF8E"/>
<path d="M267.602 553.349C210.897 553.349 157.959 533.853 115.81 496.925C88.9621 473.27 67.7371 443.916 53.6859 411.008C38.5678 376.311 30.9179 338.127 30.9509 297.68C8.2821 284.71 -2.2262 270.27 0.549581 255.895C6.54724 225.428 71.1666 198.314 169.36 185.096L170.054 184.997V185.708C169.756 345.083 228.874 508.474 301.837 549.929L303.489 550.838L301.672 551.069C290.379 552.588 278.997 553.349 267.602 553.349V553.349ZM168.798 186.385C71.5467 199.603 7.57163 226.287 1.77224 256.209C-0.920923 270.088 9.48824 284.149 31.8762 296.854L32.1901 297.036V297.449C32.1075 337.863 39.7244 375.947 54.8094 410.645C68.8115 443.356 89.9333 472.533 116.637 496.049C166.386 539.636 231.319 558.835 299.64 550.094C227.172 507.02 168.699 344.786 168.815 186.385H168.798Z" fill="#54FF8E"/>
<path d="M164.882 529.739C153.217 523.13 147.814 515.678 149.252 508.259C152.259 492.728 184.973 478.932 234.64 472.257L234.805 473.48C185.684 480.089 153.383 493.505 150.541 508.507C149.202 515.364 154.407 522.337 165.56 528.681L164.882 529.739Z" fill="#54FF8E"/>
<path d="M67.9945 438.915C48.1675 427.679 39.0141 415.122 41.4429 402.565C46.5648 376.129 102.411 352.684 187.221 341.283L187.386 342.506C103.121 353.84 47.6719 376.939 42.649 402.796C40.3359 414.742 49.258 426.853 68.6058 437.808L67.9945 438.915Z" fill="#54FF8E"/>
<path d="M301.424 551.036C162.635 525.228 50.117 374.246 50.4144 214.325H51.6536C51.3562 373.618 163.494 524.121 301.639 549.814L301.424 551.036Z" fill="#54FF8E"/>
<path d="M301.523 551.053C135.423 547.385 0.648887 414.313 0.946292 254.392H2.18548C1.88807 413.619 136.183 546.146 301.54 549.797L301.523 551.053Z" fill="#54FF8E"/>
<path d="M334.981 560.685C323.145 560.45 311.573 557.136 301.407 551.069C232.145 560.338 166.254 541.156 115.827 496.925C88.9786 473.27 67.7536 443.916 53.7024 411.008C38.5347 376.162 30.8848 337.896 30.9675 297.317V296.259L31.8927 296.771C104.922 338.276 285.595 355.724 434.612 335.682L435.322 335.583V336.293C435.124 444.185 407.614 527.111 363.548 552.738C354.91 557.898 345.043 560.642 334.981 560.685ZM301.655 549.78L301.837 549.896C323.316 562.123 343.936 562.75 362.97 551.713C406.573 526.401 433.819 444.185 434.132 337.086C285.628 356.913 105.963 339.614 32.2562 298.457C32.2562 338.474 39.9226 376.195 54.8755 410.595C68.8776 443.306 89.9994 472.483 116.703 496C166.898 539.982 232.525 559.099 301.506 549.813L301.655 549.78Z" fill="#54FF8E"/>
<path d="M303.853 479.824C206.981 479.824 113.448 464.739 67.9944 438.914L68.6057 437.84C131.639 473.661 287.562 488.713 416.222 471.414L416.371 472.637C379.064 477.51 341.476 479.911 303.853 479.824V479.824Z" fill="#54FF8E"/>
<path d="M262.645 559.281C245.032 559.232 227.842 553.883 213.309 543.931C163.957 510.969 134.613 431.165 134.795 330.461H136.034C135.852 430.752 164.998 510.159 214.003 542.89C240.125 560.355 270.312 562.717 301.259 549.863L301.738 551.003C289.384 556.325 276.096 559.139 262.645 559.281Z" fill="#54FF8E"/>
<path d="M295.476 562.866H295.195C284.043 561.412 279.251 452.166 279.449 344.456H280.688C280.424 485.723 287.876 560.636 295.36 561.611C296.153 561.759 298.169 560.784 300.928 550.276L302.135 550.59C299.937 558.934 297.806 562.866 295.476 562.866Z" fill="#54FF8E"/>
<path d="M334.981 560.685C323.977 560.685 312.609 557.381 301.225 550.97L299.573 550.061L301.407 549.813C333.844 545.332 365.238 535.17 394.148 519.792C419.196 480.502 433.884 415.139 434.033 336.393V335.847H434.562C488.739 328.561 532.639 317.078 561.983 303.166C568.486 277.526 571.815 251.185 571.897 224.734V223.676L572.822 224.188C595.706 237.192 606.313 251.715 603.521 266.156C600.894 279.721 586.668 292.592 563.057 303.942C539.43 397.014 476.232 477.924 394.991 520.833C385.804 535.175 375.164 546.046 363.499 552.87C354.861 557.975 345.014 560.674 334.981 560.685V560.685ZM303.456 550.772C324.407 562.139 344.415 562.453 362.937 551.697C374.024 545.27 384.053 535.175 392.843 521.874C364.894 536.491 334.671 546.268 303.456 550.788V550.772ZM435.322 336.905C435.107 414.428 420.799 478.998 396.362 518.652C476.099 475.809 538.108 396.138 561.587 304.537C532.226 318.334 488.756 329.701 435.322 336.921V336.905ZM573.169 225.709C573.008 251.559 569.751 277.297 563.47 302.373C586.172 291.385 599.82 278.911 602.348 265.825C605.008 252.161 594.913 238.299 573.169 225.725V225.709Z" fill="#54FF8E"/>
<path d="M341.475 554.787C328.038 554.769 314.631 553.513 301.424 551.036L301.639 549.813C362.557 561.148 421.344 546.509 467.178 508.507C521.239 463.649 552.334 390.504 552.5 307.792H553.739C553.574 390.867 522.346 464.376 467.971 509.366C432.481 538.95 387.677 555.038 341.475 554.787Z" fill="#54FF8E"/>
<path d="M308.611 551.119C306.249 551.119 303.886 551.119 301.523 551.119V549.88C383.723 551.681 460.42 521.907 517.654 466.011C571.864 413.14 601.803 342.671 601.918 267.742H603.158C603.025 343.018 572.954 413.751 518.513 466.92C462.716 521.345 388.398 551.119 308.611 551.119Z" fill="#54FF8E"/>
<path d="M573.169 225.709L572.244 225.197C499.215 183.692 318.558 166.244 169.525 186.286L168.815 186.385V185.675C169.013 77.7665 196.523 -5.15988 240.605 -30.7697C259.672 -41.8398 281.151 -41.245 302.729 -29.1175C371.975 -38.3701 437.883 -19.204 488.31 25.0267C515.153 48.6862 536.377 78.0387 550.434 110.944C565.602 145.789 573.252 184.039 573.186 224.635L573.169 225.709ZM299.689 176.736C411.249 176.736 518.959 194.002 571.947 223.594C571.947 183.56 564.264 145.839 549.311 111.456C535.309 78.7395 514.187 49.5575 487.484 26.0346C437.288 -17.9483 371.694 -37.0483 302.696 -27.7791H302.482L302.3 -27.8783C280.821 -40.1214 260.201 -40.7328 241.167 -29.7123C197.63 -4.3668 170.384 77.8491 170.12 184.964C213.083 179.387 256.366 176.638 299.689 176.736V176.736Z" fill="#54FF8E"/>
<path d="M535.548 84.21C472.481 48.3892 316.559 33.3373 187.931 50.6363L187.766 49.3971C316.641 32.065 472.911 47.1996 536.159 83.1195L535.548 84.21Z" fill="#54FF8E"/>
<path d="M469.309 191.59H468.07C468.251 91.2982 439.106 11.8746 390.1 -20.8564C363.978 -38.3207 333.808 -40.6834 302.845 -27.8124L302.366 -28.9689C333.758 -42.0382 364.292 -39.5764 390.794 -21.8973C440.147 11.0815 469.491 90.9182 469.309 191.59Z" fill="#54FF8E"/>
<path d="M324.688 177.595H323.449C323.779 36.3937 316.261 -38.6018 308.777 -39.6097C308.033 -39.7254 305.984 -38.8001 303.209 -28.2753L302.002 -28.5892C304.299 -37.2635 306.53 -41.1463 308.942 -40.8489C320.095 -39.3619 324.886 69.9343 324.688 177.595Z" fill="#54FF8E"/>
<path d="M32.2066 298.457L31.2814 297.945C8.38122 284.942 -2.22622 270.418 0.566082 255.978C3.20968 242.413 17.419 229.542 41.0296 218.191C64.6568 125.103 127.855 44.1925 209.113 1.28366C218.299 -13.0579 228.94 -23.9296 240.605 -30.7534C259.721 -41.8565 281.267 -41.2287 302.911 -28.936L304.563 -28.0272L302.746 -27.7794C270.286 -23.306 238.869 -13.1433 209.939 2.24197C184.891 41.5324 170.285 106.895 170.054 185.642V186.187H169.525C115.348 193.473 71.4641 204.956 42.1201 218.868C35.6174 244.508 32.288 270.849 32.2066 297.3V298.457ZM40.6661 219.661C17.9808 230.649 4.31668 243.123 1.78874 256.209C-0.871377 269.89 9.22387 283.752 30.9675 296.326C31.1289 270.475 34.3849 244.737 40.6661 219.661V219.661ZM207.791 3.34897C128.037 46.3074 66.0282 125.896 42.4836 217.513C71.9102 203.717 115.381 192.35 168.815 185.129C169.029 107.589 183.338 43.0029 207.791 3.34897ZM269.255 -37.5111C259.36 -37.476 249.657 -34.7764 241.166 -29.696C230.08 -23.2522 220.051 -13.1735 211.261 0.0444735C239.222 -14.5203 269.443 -24.2568 300.647 -28.7542C289.897 -34.5811 279.433 -37.5001 269.255 -37.5111Z" fill="#54FF8E"/>
<path d="M68.5231 147.094C48.6962 135.842 39.5592 123.285 41.988 110.745C47.0935 84.3088 102.956 60.8634 187.766 49.4629L187.931 50.7021C103.666 62.02 48.217 85.1349 43.1942 110.993C40.881 122.938 49.8032 135.033 69.1345 145.987L68.5231 147.094Z" fill="#54FF8E"/>
<path d="M165.807 30.0657C154.143 23.4567 148.74 16.0051 150.177 8.58647C153.184 -6.94466 185.915 -20.7409 235.565 -27.416L235.731 -26.1933C186.609 -19.5844 154.308 -6.16811 151.466 8.81778C150.128 15.6746 155.332 22.6636 166.485 29.0083L165.807 30.0657Z" fill="#54FF8E"/>
<path d="M51.654 214.324H50.4148C50.5635 131.233 81.8075 57.7242 136.183 12.6509C182.297 -25.6151 241.448 -40.4028 302.713 -29.0023L302.498 -27.7796C241.58 -39.114 182.793 -24.4751 136.96 13.5266C82.898 58.4512 51.8027 131.613 51.654 214.324Z" fill="#54FF8E"/>
<path d="M2.18548 254.49H0.946289C1.09499 179.214 31.1494 108.465 85.6075 55.2954C143.089 -0.881 220.15 -30.7371 302.614 -28.9692V-27.73C220.464 -29.5475 143.734 0.242517 86.4997 56.1381C32.2564 109.093 2.33418 179.445 2.18548 254.49Z" fill="#54FF8E"/>
<path d="M304.448 345.364C192.243 345.364 83.9221 327.851 31.331 297.945L31.0171 297.763V297.449C31.331 137.512 153.085 -8.91062 302.531 -29.002H302.729L302.911 -28.9028C376.221 12.7504 435.62 176.637 435.322 336.409V336.954H434.777C391.567 342.63 348.029 345.44 304.448 345.364V345.364ZM32.2067 297.036C105.352 338.342 285.364 355.741 434.083 335.831C434.248 176.769 375.279 13.8243 302.481 -27.6636C153.845 -7.63838 32.6693 137.958 32.2067 297.036Z" fill="#54FF8E"/>
<path d="M304.398 187.905C207.527 187.905 113.993 172.837 68.5229 147.012L69.1343 145.921C132.118 181.792 288.107 196.811 416.751 179.495L416.916 180.734C379.609 185.602 342.021 187.998 304.398 187.905V187.905Z" fill="#54FF8E"/>
<path d="M303.754 53.9902C247.115 53.9902 192.409 45.1672 165.807 30.0657L166.419 28.9917C203.214 49.8761 294.237 58.7322 369.348 48.5708L369.513 49.7935C347.71 52.6446 325.742 54.0466 303.754 53.9902V53.9902Z" fill="#54FF8E"/>
<path d="M136.067 330.494H134.828C135.125 170.689 210.286 9.44569 302.366 -28.936L302.845 -27.7795C211.178 10.3875 136.364 171.102 136.067 330.494Z" fill="#54FF8E"/>
<path d="M280.688 344.455H279.449C279.747 184.832 289.875 17.5086 302.002 -28.5396L303.209 -28.2256C291.081 17.7234 280.986 184.914 280.688 344.455Z" fill="#54FF8E"/>
<path d="M434.083 337.103V336.393C434.38 177.001 375.263 13.6097 302.3 -27.8287L300.647 -28.7374L302.481 -28.9853C371.876 -38.3039 437.784 -19.0718 488.26 25.1259C515.104 48.7853 536.328 78.1379 550.385 111.043C565.503 145.74 573.153 183.923 573.136 224.37C595.805 237.324 606.313 251.781 603.521 266.156C597.589 296.706 532.92 323.869 434.727 337.07L434.083 337.103ZM304.497 -28.0435C376.965 14.915 435.438 177.232 435.322 335.633C532.574 322.415 596.549 295.731 602.348 265.809C605.041 251.93 594.632 237.869 572.244 225.164L571.947 224.982V224.618C571.947 184.204 564.396 146.12 549.311 111.423C535.309 78.7065 514.187 49.5245 487.484 26.0015C437.784 -17.5517 372.818 -36.7178 304.497 -28.0435Z" fill="#54FF8E"/>
<path d="M553.739 307.726H552.5C552.797 148.433 440.642 -2.08682 302.498 -27.7793L302.713 -29.002C441.419 -3.25993 554.036 147.855 553.739 307.726Z" fill="#54FF8E"/>
<path d="M603.191 267.709H601.951C602.249 108.465 467.954 -24.062 302.597 -27.7135V-28.9526C468.648 -25.3507 603.488 107.738 603.191 267.709Z" fill="#54FF8E"/>
<path d="M301.027 562.932H299.755L295.245 562.85H293.229C291.395 562.85 288.817 562.718 286.62 562.586C274.164 561.945 261.76 560.538 249.477 558.372C227.056 554.41 205.159 547.902 184.213 538.975C173.66 534.405 163.348 529.298 153.316 523.675C144.079 518.532 135.162 512.832 126.616 506.607C125.162 505.5 123.592 504.327 121.957 503.121C116.422 498.991 110.143 494.315 105.583 490.118C104.063 488.73 102.394 487.21 100.626 485.64C96.7104 482.121 92.6459 478.47 89.4405 475.248C83.8229 469.597 76.7182 461.931 71.778 456.181C64.789 448.052 56.0486 436.023 45.0281 419.435C40.4113 412.096 36.1652 404.53 32.3058 396.766C28.341 389.171 24.8051 381.361 21.7149 373.37C16.2598 358.58 11.5505 343.526 7.60468 328.264C4.61411 315.624 2.51575 298.622 0.995684 285.223C0.30174 278.944 0.186081 270.997 0.103469 263.991V260.588C-0.0637275 251.615 0.3502 242.641 1.34265 233.722C1.64006 231.459 1.93746 228.947 2.25138 226.337C2.92881 220.57 3.63927 214.606 4.49844 209.698C5.90285 201.702 8.14991 191.375 10.0996 184.006C11.9831 176.885 14.7754 167.781 17.0555 161.37C18.9887 155.901 21.7975 149.144 24.2759 143.195L26.7873 137.082C30.3265 128.805 34.4053 120.768 38.9974 113.025C45.4081 102.203 55.3546 87.3494 64.3263 75.1724C69.8973 67.7182 75.9696 60.6522 82.5011 54.0236L86.9952 49.4964C90.5971 45.845 94.6947 41.6813 98.1644 38.5916C104.625 32.8418 113.943 25.1423 121.907 18.9629C127.591 14.5514 135.588 9.31378 138.76 7.26499C143.419 4.2579 149.681 0.655994 154.721 -2.31805L156.208 -3.17722C166.267 -8.90763 176.712 -13.9316 187.468 -18.2127C196.688 -21.7981 203.677 -24.359 208.799 -26.0278C215.507 -28.1923 224.611 -30.6706 230.889 -32.2733C238.787 -34.2725 249.064 -36.123 251.972 -36.6518C258.581 -37.8083 264.034 -38.4527 269.783 -39.1136C271.882 -39.3615 279.994 -40.1215 284.373 -40.3363C290.354 -40.6337 295.509 -40.898 304.315 -40.8485C318.243 -40.7032 332.143 -39.5991 345.919 -37.544C352.611 -36.5857 360.376 -35.0986 363.962 -34.3386C369.1 -33.2316 376.667 -31.3646 384.251 -29.3819C388.547 -28.2253 394.561 -26.3417 399.204 -24.706C406.094 -22.2607 414.173 -19.171 419.824 -16.8083C429.738 -12.6776 442.328 -5.953 450.705 -1.50845C452.621 -0.417971 454.521 0.705558 456.405 1.79604C462.287 5.28228 469.111 9.47899 474.183 13.2461C475.67 14.3531 477.322 15.5593 479.041 16.7985C482.973 19.6734 487.434 22.9283 490.838 25.7041C497.691 31.1101 504.264 36.8619 510.532 42.937C512.003 44.4571 513.639 46.1093 515.357 47.8938C519.108 51.6609 522.99 55.5437 526.031 58.9473C531.714 65.3085 538.191 73.1236 542.553 78.7743C546.915 84.425 552.202 91.9923 555.688 97.4777C557.605 100.468 564.23 110.944 568.692 119.568C576.386 133.972 582.89 148.98 588.139 164.443C593.624 180.553 598.052 202.115 599.704 210.624C601.241 218.538 602.315 229.278 603.009 236.894C603.455 242.347 603.637 249.22 603.785 255.3C603.785 257.481 603.901 259.58 603.967 261.496C604.141 271.582 603.622 281.668 602.414 291.683C601.39 300.159 600.266 308.916 598.994 315.641C597.507 323.588 595.144 333.898 593.112 341.267C591.179 348.339 588.287 357.376 585.941 363.787C583.876 369.372 580.984 376.262 578.324 382.342L575.928 387.976C572.771 395.04 569.235 401.929 565.338 408.613C562.198 414.115 557.886 420.856 554.086 426.787L551.293 431.281C545.998 439.21 540.238 446.818 534.044 454.066C524.593 465.318 514.375 475.901 503.461 485.739C496.852 491.489 487.401 499.156 479.272 505.302C474.761 508.706 468.565 512.721 463.592 515.943L462.419 516.703C451.483 523.543 440.139 529.706 428.449 535.158C424.335 536.976 413.859 541.552 405.714 544.56C399.617 546.807 390.844 549.648 383.739 551.631C373.301 554.561 362.718 556.949 352.032 558.785C344.035 560.14 339.525 560.652 334.287 561.247C331.23 561.594 323.746 562.255 319.698 562.453C313.948 562.751 310.23 562.933 306.265 562.949H301.027V562.932ZM302.3 -39.6093C294.765 -39.6093 289.99 -39.378 284.521 -39.0971C280.159 -38.8823 272.097 -38.1388 270.015 -37.891C264.265 -37.2135 258.845 -36.5857 252.27 -35.4291C244.421 -34.0412 236.573 -32.422 231.286 -31.0672C225.024 -29.4149 215.953 -27.0026 209.262 -24.8382C204.156 -23.1859 197.2 -20.6415 187.997 -17.0561C177.302 -12.8326 166.917 -7.86362 156.918 -2.18587L155.431 -1.32671C150.475 1.59777 144.146 5.28228 139.504 8.22329C136.348 10.2556 128.401 15.4767 122.75 19.789C114.803 25.9519 105.517 33.6349 99.0731 39.3682C95.6364 42.4248 91.5554 46.572 87.9535 50.2234L83.4594 54.7506C76.95 61.3294 70.9048 68.3518 65.3673 75.7672C56.3956 87.9112 46.4821 102.715 40.0879 113.521C35.5453 121.239 31.5161 129.248 28.0265 137.495C27.2499 139.395 26.3742 141.461 25.4985 143.608C23.0367 149.557 20.2279 156.298 18.2947 161.783C16.0311 168.177 13.338 177.215 11.3718 184.32C9.40562 191.425 7.20814 201.949 5.80373 209.913C4.94456 214.787 4.2341 220.735 3.55667 226.436C3.25927 229.046 2.96185 231.558 2.66445 233.838C1.67136 242.696 1.25743 251.609 1.42527 260.522V263.925C1.52441 270.898 1.64006 278.795 2.334 285.024C3.82102 298.408 5.90286 315.36 8.94299 327.983C12.8722 343.203 17.5707 358.213 23.0202 372.957C26.0914 380.902 29.6052 388.669 33.545 396.221C37.3761 403.941 41.5947 411.463 46.1847 418.757C54.3545 431.475 63.2587 443.706 72.852 455.388C77.8087 461.121 84.8473 468.771 90.4484 474.405C93.6372 477.594 97.6687 481.229 101.585 484.748C103.336 486.318 105.021 487.821 106.541 489.209C111.068 493.373 117.33 498.032 122.832 502.146C124.485 503.352 126.038 504.526 127.492 505.633C135.992 511.819 144.859 517.485 154.043 522.601C164.038 528.204 174.312 533.294 184.825 537.851C217.181 551.625 251.713 559.584 286.835 561.363C288.966 561.495 291.527 561.594 293.361 561.627H295.36L299.854 561.71C301.209 561.71 302.861 561.71 304.398 561.71H306.364C310.296 561.71 314.014 561.512 319.582 561.231C323.713 561.016 331.148 560.355 334.205 560.008C339.409 559.413 343.92 558.901 351.867 557.563C362.514 555.742 373.059 553.365 383.458 550.442C390.48 548.475 399.27 545.633 405.334 543.403C413.463 540.412 423.889 535.852 428.003 534.018C439.626 528.595 450.91 522.47 461.791 515.678L462.964 514.902C467.921 511.696 474.1 507.681 478.578 504.311C486.69 498.181 496.158 490.531 502.701 484.814C513.566 475.009 523.741 464.465 533.152 453.256C539.314 446.053 545.041 438.489 550.302 430.604L553.144 426.143C556.928 420.228 561.223 413.52 564.363 407.968C568.242 401.336 571.766 394.503 574.921 387.497L577.316 381.846C579.91 375.782 582.851 368.909 584.9 363.358C587.246 356.98 590.121 347.975 592.054 340.936C594.07 333.584 596.433 323.34 597.92 315.426C599.159 308.718 600.283 299.977 601.307 291.534C602.515 281.586 603.034 271.566 602.86 261.546C602.86 259.613 602.744 257.514 602.678 255.317C602.53 249.27 602.364 242.413 601.918 236.994C601.29 229.41 600.266 218.72 598.614 210.872C596.962 202.362 592.484 180.883 587.048 164.84C581.828 149.418 575.357 134.449 567.7 120.08C563.256 111.505 556.663 101.08 554.747 98.0891C551.277 92.6697 546.138 85.3668 541.661 79.4847C537.183 73.6027 530.888 66.0024 525.138 59.6578C522.115 56.3533 518.248 52.4044 514.514 48.6538C512.862 47.0015 511.21 45.3493 509.673 43.697C503.442 37.6461 496.901 31.9216 490.078 26.5467L489.665 26.1997C541.727 72.4627 572.095 141.758 573.103 219.992C573.103 221.314 573.103 222.652 573.103 223.99V224.569C572.888 384.523 451.002 530.945 301.622 551.036L301.457 549.814C450.308 529.788 571.616 383.928 571.946 224.651V224.073C571.946 129.184 528.707 47.0346 455.843 2.82044L450.176 -0.484056C441.832 -4.91208 429.192 -11.6202 419.411 -15.7343C413.793 -18.0805 405.73 -21.1702 398.857 -23.599C394.247 -25.2513 388.266 -27.1018 383.987 -28.2418C376.436 -30.2741 368.885 -32.1411 363.763 -33.1986C360.194 -33.9751 352.478 -35.4456 345.82 -36.4039C332.096 -38.4128 318.251 -39.4837 304.381 -39.6093H302.3Z" fill="#54FF8E"/>
</svg>
