<svg width="27" height="27" viewBox="0 0 27 27" fill="none" xmlns="http://www.w3.org/2000/svg">
<path d="M26.5982 5.55452C25.6588 5.97077 24.6497 6.25202 23.5888 6.37914C24.6834 5.72416 25.5024 4.69329 25.8928 3.47889C24.8644 4.08975 23.7388 4.51974 22.5651 4.75014C21.7757 3.90736 20.7303 3.34876 19.5909 3.16105C18.4516 2.97334 17.2822 3.16703 16.2642 3.71205C15.2462 4.25707 14.4367 5.12292 13.9612 6.17518C13.4858 7.22744 13.3711 8.40723 13.6348 9.53139C11.551 9.42676 9.51241 8.88513 7.65143 7.94166C5.79045 6.99818 4.14865 5.67395 2.83258 4.05489C2.38258 4.83114 2.12383 5.73114 2.12383 6.68964C2.12333 7.55251 2.33582 8.40216 2.74244 9.16321C3.14907 9.92426 3.73726 10.5732 4.45483 11.0524C3.62264 11.0259 2.80881 10.801 2.08108 10.3965V10.464C2.081 11.6742 2.49962 12.8472 3.26591 13.7839C4.0322 14.7206 5.09897 15.3633 6.2852 15.603C5.51321 15.8119 4.70383 15.8427 3.9182 15.693C4.25289 16.7343 4.90482 17.6449 5.78274 18.2973C6.66066 18.9497 7.72061 19.3112 8.8142 19.3313C6.95776 20.7886 4.66508 21.5791 2.30495 21.5756C1.88688 21.5757 1.46917 21.5513 1.05396 21.5025C3.44961 23.0428 6.23834 23.8603 9.08645 23.8571C18.7277 23.8571 23.9983 15.8719 23.9983 8.94639C23.9983 8.72139 23.9927 8.49414 23.9826 8.26914C25.0078 7.52774 25.8927 6.60965 26.5959 5.55789L26.5982 5.55452Z" fill="#0E0E0E"/>
</svg>
