<svg width="26" height="21" viewBox="0 0 26 21" fill="none" xmlns="http://www.w3.org/2000/svg">
<path d="M25.5982 2.55452C24.6588 2.97077 23.6497 3.25202 22.5888 3.37914C23.6834 2.72416 24.5024 1.69329 24.8928 0.478892C23.8644 1.08975 22.7388 1.51974 21.5651 1.75014C20.7757 0.907365 19.7303 0.348759 18.5909 0.16105C17.4516 -0.0266586 16.2822 0.167032 15.2642 0.712051C14.2462 1.25707 13.4367 2.12292 12.9612 3.17518C12.4858 4.22744 12.3711 5.40723 12.6348 6.53139C10.551 6.42676 8.51241 5.88513 6.65143 4.94166C4.79045 3.99818 3.14865 2.67395 1.83258 1.05489C1.38258 1.83114 1.12383 2.73114 1.12383 3.68964C1.12333 4.55251 1.33582 5.40216 1.74244 6.16321C2.14907 6.92426 2.73726 7.57318 3.45483 8.05239C2.62264 8.02591 1.80881 7.80104 1.08108 7.39651V7.46401C1.081 8.67422 1.49962 9.84719 2.26591 10.7839C3.0322 11.7206 4.09897 12.3633 5.2852 12.603C4.51321 12.8119 3.70383 12.8427 2.9182 12.693C3.25289 13.7343 3.90482 14.6449 4.78274 15.2973C5.66066 15.9497 6.72061 16.3112 7.8142 16.3313C5.95776 17.7886 3.66508 18.5791 1.30495 18.5756C0.886883 18.5757 0.469166 18.5513 0.0539551 18.5025C2.44961 20.0428 5.23834 20.8603 8.08645 20.8571C17.7277 20.8571 22.9983 12.8719 22.9983 5.94639C22.9983 5.72139 22.9927 5.49414 22.9826 5.26914C24.0078 4.52774 24.8927 3.60965 25.5959 2.55789L25.5982 2.55452V2.55452Z" fill="#0E0E0E"/>
</svg>
