<svg width="162" height="24" viewBox="0 0 162 24" fill="none" xmlns="http://www.w3.org/2000/svg">
<path d="M0.32 23H11.2L16.832 16.6L22.464 23H33.344L22.752 11.8L33.344 0.599998H22.464L16.832 7L11.2 0.599998H0.32L10.912 11.8L0.32 23Z" fill="#54FF8E"/>
<path d="M55.7363 0.599998L49.4323 17.24L43.1283 0.599998H33.9763L43.2563 23H55.6083L64.8883 0.599998H55.7363ZM74.431 17.24C72.319 17.24 70.175 16.728 69.535 14.68H87.743C87.743 6.296 82.655 3.48 74.751 3.48C66.911 3.48 61.695 6.296 61.695 13.4C61.695 20.504 66.911 23.32 74.431 23.32C82.335 23.32 86.463 20.888 87.423 15.8H79.903C78.335 17.048 77.215 17.24 74.431 17.24ZM74.719 8.92C76.767 8.92 78.687 9.112 79.551 10.84H69.887C70.751 9.112 72.671 8.92 74.719 8.92ZM103.839 3.48C100.703 3.48 98.0785 4.472 96.3825 7V3.8H88.7025V23H96.3825V12.632C98.5905 10.2 101.567 9.88 104.287 9.88C105.694 9.88 107.135 10.072 108.927 10.52V4.12C107.647 3.8 106.079 3.48 103.839 3.48ZM109.258 16.376C109.258 22.392 115.658 23.32 122.922 23.32C130.186 23.32 135.306 22.392 135.306 16.536C135.306 11.512 130.474 11.064 122.922 10.68C118.058 10.424 117.258 10.456 117.258 9.656C117.258 8.92 118.378 8.92 122.282 8.92C125.706 8.92 126.986 8.92 126.986 9.944H134.666C134.666 4.408 129.706 3.48 122.602 3.48C115.498 3.48 109.578 4.408 109.578 9.88C109.578 14.776 113.45 15.448 122.282 15.8C126.89 15.992 127.626 15.896 127.626 16.856C127.626 17.688 126.89 17.88 122.602 17.88C117.962 17.88 116.938 17.464 116.938 16.376H109.258ZM148.681 17.24C146.569 17.24 144.425 16.728 143.785 14.68H161.993C161.993 6.296 156.905 3.48 149.001 3.48C141.161 3.48 135.945 6.296 135.945 13.4C135.945 20.504 141.161 23.32 148.681 23.32C156.585 23.32 160.713 20.888 161.673 15.8H154.153C152.585 17.048 151.465 17.24 148.681 17.24ZM148.969 8.92C151.017 8.92 152.937 9.112 153.801 10.84H144.137C145.001 9.112 146.921 8.92 148.969 8.92Z" fill="#FCFCFC"/>
</svg>
