<svg width="23" height="23" viewBox="0 0 23 23" fill="none" xmlns="http://www.w3.org/2000/svg">
<path d="M11.5 6.09082C8.50732 6.09082 6.09209 8.50605 6.09209 11.4987C6.09209 14.4914 8.50732 16.9066 11.5 16.9066C14.4927 16.9066 16.9079 14.4914 16.9079 11.4987C16.9079 8.50605 14.4927 6.09082 11.5 6.09082ZM11.5 15.0135C9.56465 15.0135 7.98525 13.4341 7.98525 11.4987C7.98525 9.56338 9.56465 7.98398 11.5 7.98398C13.4353 7.98398 15.0147 9.56338 15.0147 11.4987C15.0147 13.4341 13.4353 15.0135 11.5 15.0135ZM17.1294 4.60899C16.4307 4.60899 15.8664 5.17324 15.8664 5.87197C15.8664 6.5707 16.4307 7.13496 17.1294 7.13496C17.8281 7.13496 18.3924 6.57334 18.3924 5.87197C18.3926 5.70606 18.3601 5.54173 18.2967 5.3884C18.2333 5.23508 18.1402 5.09576 18.0229 4.97844C17.9056 4.86112 17.7663 4.7681 17.613 4.7047C17.4596 4.6413 17.2953 4.60878 17.1294 4.60899V4.60899ZM22.0416 11.4987C22.0416 10.0433 22.0548 8.60098 21.973 7.14814C21.8913 5.46065 21.5063 3.96299 20.2724 2.72901C19.0357 1.49239 17.5407 1.11006 15.8532 1.02832C14.3978 0.946585 12.9555 0.959769 11.5026 0.959769C10.0472 0.959769 8.60488 0.946585 7.15205 1.02832C5.46455 1.11006 3.9669 1.49502 2.73291 2.72901C1.49629 3.96563 1.11397 5.46065 1.03223 7.14814C0.950491 8.60361 0.963675 10.0459 0.963675 11.4987C0.963675 12.9516 0.950491 14.3965 1.03223 15.8493C1.11397 17.5368 1.49893 19.0345 2.73291 20.2684C3.96953 21.5051 5.46455 21.8874 7.15205 21.9691C8.60752 22.0509 10.0498 22.0377 11.5026 22.0377C12.9581 22.0377 14.4004 22.0509 15.8532 21.9691C17.5407 21.8874 19.0384 21.5024 20.2724 20.2684C21.509 19.0318 21.8913 17.5368 21.973 15.8493C22.0574 14.3965 22.0416 12.9542 22.0416 11.4987V11.4987ZM19.7213 17.7161C19.5288 18.196 19.2968 18.5546 18.925 18.9237C18.5532 19.2955 18.1973 19.5275 17.7174 19.72C16.3305 20.2711 13.0372 20.1472 11.5 20.1472C9.96279 20.1472 6.66689 20.2711 5.27998 19.7227C4.8001 19.5302 4.44151 19.2981 4.07236 18.9264C3.70059 18.5546 3.46856 18.1986 3.27608 17.7187C2.72764 16.3292 2.85156 13.0359 2.85156 11.4987C2.85156 9.96152 2.72764 6.66563 3.27608 5.27871C3.46856 4.79883 3.70059 4.44024 4.07236 4.0711C4.44414 3.70195 4.8001 3.46729 5.27998 3.27481C6.66689 2.72637 9.96279 2.8503 11.5 2.8503C13.0372 2.8503 16.3331 2.72637 17.72 3.27481C18.1999 3.46729 18.5585 3.69932 18.9276 4.0711C19.2994 4.44287 19.5314 4.79883 19.7239 5.27871C20.2724 6.66563 20.1484 9.96152 20.1484 11.4987C20.1484 13.0359 20.2724 16.3292 19.7213 17.7161Z" fill="#0E0E0E"/>
</svg>
