<svg width="202" height="195" viewBox="0 0 202 195" fill="none" xmlns="http://www.w3.org/2000/svg">
<path d="M26.9855 0.375366L26.9855 156.039" stroke="#54FF8E" stroke-width="1.35125"/>
<path d="M27.5227 155.499L201.848 155.499" stroke="#54FF8E" stroke-width="1.35125"/>
<rect x="40.5635" y="105.036" width="20.4972" height="49.779" fill="#0075FF"/>
<rect x="68.3812" y="105.036" width="20.4972" height="49.779" fill="#6FE5FF"/>
<rect x="94.7347" y="131.389" width="20.4972" height="23.4254" fill="#FFC3E0"/>
<rect x="122.552" y="135.782" width="20.4972" height="20.4972" fill="#FFEF9C"/>
<rect x="148.906" y="146.03" width="20.4972" height="8.78453" fill="#CF2C84"/>
<path d="M6.04057 10.0883V6.66846L5.37428 6.82177V6.36185L6.28821 5.9609H6.68917V10.0883H6.04057ZM9.17872 10.1591C8.80528 10.1591 8.48295 10.0707 8.21172 9.89377C7.94442 9.71295 7.73804 9.46333 7.5926 9.14493C7.45109 8.8226 7.38033 8.44916 7.38033 8.02462C7.38033 7.60008 7.45109 7.22861 7.5926 6.91021C7.73804 6.58788 7.94442 6.33826 8.21172 6.16137C8.48295 5.98055 8.80528 5.89014 9.17872 5.89014C9.55216 5.89014 9.87252 5.98055 10.1398 6.16137C10.4071 6.33826 10.6115 6.58788 10.753 6.91021C10.8985 7.22861 10.9712 7.60008 10.9712 8.02462C10.9712 8.44916 10.8985 8.8226 10.753 9.14493C10.6115 9.46333 10.4071 9.71295 10.1398 9.89377C9.87252 10.0707 9.55216 10.1591 9.17872 10.1591ZM9.17872 9.59895C9.40278 9.59895 9.60129 9.53606 9.77425 9.41027C9.95114 9.28448 10.0887 9.10366 10.187 8.8678C10.2853 8.63195 10.3344 8.35089 10.3344 8.02462C10.3344 7.69836 10.2853 7.4173 10.187 7.18144C10.0887 6.94559 9.95114 6.76477 9.77425 6.63898C9.60129 6.51319 9.40278 6.45029 9.17872 6.45029C8.95073 6.45029 8.75025 6.51319 8.57729 6.63898C8.40433 6.76477 8.26871 6.94559 8.17044 7.18144C8.07217 7.4173 8.02303 7.69836 8.02303 8.02462C8.02303 8.35089 8.07217 8.63195 8.17044 8.8678C8.26871 9.10366 8.40433 9.28448 8.57729 9.41027C8.75025 9.53606 8.95073 9.59895 9.17872 9.59895ZM13.3188 10.1591C12.9454 10.1591 12.6231 10.0707 12.3518 9.89377C12.0845 9.71295 11.8782 9.46333 11.7327 9.14493C11.5912 8.8226 11.5204 8.44916 11.5204 8.02462C11.5204 7.60008 11.5912 7.22861 11.7327 6.91021C11.8782 6.58788 12.0845 6.33826 12.3518 6.16137C12.6231 5.98055 12.9454 5.89014 13.3188 5.89014C13.6923 5.89014 14.0126 5.98055 14.2799 6.16137C14.5472 6.33826 14.7517 6.58788 14.8932 6.91021C15.0386 7.22861 15.1113 7.60008 15.1113 8.02462C15.1113 8.44916 15.0386 8.8226 14.8932 9.14493C14.7517 9.46333 14.5472 9.71295 14.2799 9.89377C14.0126 10.0707 13.6923 10.1591 13.3188 10.1591ZM13.3188 9.59895C13.5429 9.59895 13.7414 9.53606 13.9144 9.41027C14.0913 9.28448 14.2288 9.10366 14.3271 8.8678C14.4254 8.63195 14.4745 8.35089 14.4745 8.02462C14.4745 7.69836 14.4254 7.4173 14.3271 7.18144C14.2288 6.94559 14.0913 6.76477 13.9144 6.63898C13.7414 6.51319 13.5429 6.45029 13.3188 6.45029C13.0908 6.45029 12.8904 6.51319 12.7174 6.63898C12.5445 6.76477 12.4088 6.94559 12.3106 7.18144C12.2123 7.4173 12.1632 7.69836 12.1632 8.02462C12.1632 8.35089 12.2123 8.63195 12.3106 8.8678C12.4088 9.10366 12.5445 9.28448 12.7174 9.41027C12.8904 9.53606 13.0908 9.59895 13.3188 9.59895ZM16.604 7.93028C16.4192 7.93028 16.2522 7.88901 16.1028 7.80646C15.9574 7.72391 15.8414 7.60795 15.7549 7.45857C15.6684 7.30527 15.6252 7.12248 15.6252 6.91021C15.6252 6.70187 15.6684 6.52302 15.7549 6.37364C15.8414 6.22034 15.9593 6.10241 16.1087 6.01986C16.2581 5.93731 16.4251 5.89604 16.6099 5.89604C16.7907 5.89604 16.9538 5.93731 17.0993 6.01986C17.2487 6.10241 17.3666 6.22034 17.4531 6.37364C17.5395 6.52302 17.5828 6.70187 17.5828 6.91021C17.5828 7.12248 17.5395 7.30527 17.4531 7.45857C17.3666 7.60795 17.2487 7.72391 17.0993 7.80646C16.9538 7.88901 16.7887 7.93028 16.604 7.93028ZM16.3092 10.0883L18.6736 5.9609H19.2868L16.9283 10.0883H16.3092ZM16.604 7.48216C16.7298 7.48216 16.8379 7.43499 16.9283 7.34065C17.0226 7.24237 17.0698 7.09889 17.0698 6.91021C17.0698 6.72153 17.0246 6.58002 16.9342 6.48567C16.8438 6.3874 16.7337 6.33826 16.604 6.33826C16.4782 6.33826 16.3681 6.3874 16.2738 6.48567C16.1794 6.58002 16.1323 6.72153 16.1323 6.91021C16.1323 7.09889 16.1775 7.24237 16.2679 7.34065C16.3622 7.43499 16.4743 7.48216 16.604 7.48216ZM19.0274 10.1591C18.8426 10.1591 18.6756 10.1178 18.5262 10.0353C18.3808 9.95273 18.2648 9.83677 18.1783 9.6874C18.0918 9.53409 18.0486 9.3513 18.0486 9.13903C18.0486 8.9307 18.0918 8.74987 18.1783 8.59657C18.2648 8.44326 18.3827 8.32534 18.5321 8.24279C18.6815 8.16024 18.8485 8.11896 19.0333 8.11896C19.2141 8.11896 19.3772 8.16024 19.5227 8.24279C19.6721 8.32534 19.79 8.44326 19.8765 8.59657C19.9629 8.74987 20.0062 8.9307 20.0062 9.13903C20.0062 9.3513 19.9629 9.53409 19.8765 9.6874C19.79 9.83677 19.6721 9.95273 19.5227 10.0353C19.3772 10.1178 19.2121 10.1591 19.0274 10.1591ZM19.0274 9.70509C19.1532 9.70509 19.2613 9.65791 19.3517 9.56357C19.446 9.46923 19.4932 9.32772 19.4932 9.13903C19.4932 8.95035 19.448 8.80884 19.3576 8.7145C19.2672 8.61622 19.1571 8.56709 19.0274 8.56709C18.9016 8.56709 18.7915 8.61622 18.6972 8.7145C18.6029 8.80884 18.5557 8.95035 18.5557 9.13903C18.5557 9.32772 18.6009 9.46923 18.6913 9.56357C18.7856 9.65791 18.8977 9.70509 19.0274 9.70509Z" fill="white"/>
<path d="M10.0253 39.386C9.7501 39.386 9.50048 39.3369 9.27642 39.2386C9.05629 39.1364 8.8794 38.9949 8.74575 38.8141C8.61603 38.6332 8.55117 38.421 8.55117 38.1772C8.55117 37.9296 8.61996 37.7075 8.75754 37.511C8.89905 37.3144 9.08577 37.1808 9.3177 37.11C9.10936 37.0275 8.94819 36.9076 8.83419 36.7503C8.7202 36.5892 8.6632 36.4123 8.6632 36.2197C8.6632 36.0192 8.71627 35.8364 8.8224 35.6713C8.92854 35.5023 9.08184 35.3686 9.28232 35.2703C9.48672 35.1681 9.73437 35.117 10.0253 35.117C10.3161 35.117 10.5618 35.1681 10.7623 35.2703C10.9667 35.3686 11.122 35.5023 11.2281 35.6713C11.3343 35.8364 11.3873 36.0192 11.3873 36.2197C11.3873 36.4083 11.3284 36.5852 11.2104 36.7503C11.0964 36.9115 10.9353 37.0314 10.7269 37.11C10.9588 37.1847 11.1436 37.3203 11.2812 37.5169C11.4227 37.7095 11.4935 37.9296 11.4935 38.1772C11.4935 38.421 11.4286 38.6332 11.2989 38.8141C11.1692 38.9949 10.9923 39.1364 10.7682 39.2386C10.5481 39.3369 10.3004 39.386 10.0253 39.386ZM10.0253 36.9095C10.2533 36.9095 10.4321 36.8506 10.5618 36.7326C10.6955 36.6147 10.7623 36.4634 10.7623 36.2786C10.7623 36.0703 10.6974 35.9111 10.5677 35.801C10.438 35.691 10.2572 35.6359 10.0253 35.6359C9.79334 35.6359 9.61251 35.691 9.48279 35.801C9.35307 35.9111 9.28821 36.0703 9.28821 36.2786C9.28821 36.4634 9.35307 36.6147 9.48279 36.7326C9.61251 36.8506 9.79334 36.9095 10.0253 36.9095ZM10.0253 38.8553C10.3083 38.8553 10.5206 38.7885 10.6621 38.6549C10.8036 38.5173 10.8743 38.3423 10.8743 38.1301C10.8743 37.8942 10.7977 37.7134 10.6444 37.5876C10.495 37.4579 10.2886 37.393 10.0253 37.393C9.76189 37.393 9.55355 37.4579 9.40024 37.5876C9.24694 37.7134 9.17029 37.8942 9.17029 38.1301C9.17029 38.3423 9.24104 38.5173 9.38256 38.6549C9.528 38.7885 9.74223 38.8553 10.0253 38.8553ZM13.9234 39.386C13.55 39.386 13.2277 39.2976 12.9564 39.1207C12.6891 38.9398 12.4828 38.6902 12.3373 38.3718C12.1958 38.0495 12.1251 37.6761 12.1251 37.2515C12.1251 36.827 12.1958 36.4555 12.3373 36.1371C12.4828 35.8148 12.6891 35.5652 12.9564 35.3883C13.2277 35.2075 13.55 35.117 13.9234 35.117C14.2969 35.117 14.6172 35.2075 14.8845 35.3883C15.1519 35.5652 15.3563 35.8148 15.4978 36.1371C15.6432 36.4555 15.7159 36.827 15.7159 37.2515C15.7159 37.6761 15.6432 38.0495 15.4978 38.3718C15.3563 38.6902 15.1519 38.9398 14.8845 39.1207C14.6172 39.2976 14.2969 39.386 13.9234 39.386ZM13.9234 38.8258C14.1475 38.8258 14.346 38.763 14.519 38.6372C14.6959 38.5114 14.8334 38.3306 14.9317 38.0947C15.03 37.8588 15.0791 37.5778 15.0791 37.2515C15.0791 36.9253 15.03 36.6442 14.9317 36.4083C14.8334 36.1725 14.6959 35.9917 14.519 35.8659C14.346 35.7401 14.1475 35.6772 13.9234 35.6772C13.6955 35.6772 13.495 35.7401 13.322 35.8659C13.1491 35.9917 13.0134 36.1725 12.9152 36.4083C12.8169 36.6442 12.7678 36.9253 12.7678 37.2515C12.7678 37.5778 12.8169 37.8588 12.9152 38.0947C13.0134 38.3306 13.1491 38.5114 13.322 38.6372C13.495 38.763 13.6955 38.8258 13.9234 38.8258ZM17.2086 37.1572C17.0238 37.1572 16.8568 37.1159 16.7074 37.0334C16.562 36.9508 16.446 36.8348 16.3595 36.6855C16.273 36.5322 16.2298 36.3494 16.2298 36.1371C16.2298 35.9288 16.273 35.7499 16.3595 35.6005C16.446 35.4472 16.5639 35.3293 16.7133 35.2468C16.8627 35.1642 17.0297 35.1229 17.2145 35.1229C17.3953 35.1229 17.5584 35.1642 17.7039 35.2468C17.8533 35.3293 17.9712 35.4472 18.0577 35.6005C18.1441 35.7499 18.1874 35.9288 18.1874 36.1371C18.1874 36.3494 18.1441 36.5322 18.0577 36.6855C17.9712 36.8348 17.8533 36.9508 17.7039 37.0334C17.5584 37.1159 17.3933 37.1572 17.2086 37.1572ZM16.9138 39.3152L19.2782 35.1878H19.8914L17.5329 39.3152H16.9138ZM17.2086 36.7091C17.3344 36.7091 17.4425 36.6619 17.5329 36.5675C17.6272 36.4693 17.6744 36.3258 17.6744 36.1371C17.6744 35.9484 17.6292 35.8069 17.5388 35.7126C17.4484 35.6143 17.3383 35.5652 17.2086 35.5652C17.0828 35.5652 16.9727 35.6143 16.8784 35.7126C16.7841 35.8069 16.7369 35.9484 16.7369 36.1371C16.7369 36.3258 16.7821 36.4693 16.8725 36.5675C16.9668 36.6619 17.0789 36.7091 17.2086 36.7091ZM19.632 39.386C19.4472 39.386 19.2802 39.3447 19.1308 39.2622C18.9854 39.1796 18.8694 39.0637 18.7829 38.9143C18.6964 38.761 18.6532 38.5782 18.6532 38.3659C18.6532 38.1576 18.6964 37.9768 18.7829 37.8235C18.8694 37.6702 18.9873 37.5522 19.1367 37.4697C19.2861 37.3871 19.4531 37.3459 19.6379 37.3459C19.8187 37.3459 19.9818 37.3871 20.1273 37.4697C20.2767 37.5522 20.3946 37.6702 20.4811 37.8235C20.5675 37.9768 20.6108 38.1576 20.6108 38.3659C20.6108 38.5782 20.5675 38.761 20.4811 38.9143C20.3946 39.0637 20.2767 39.1796 20.1273 39.2622C19.9818 39.3447 19.8167 39.386 19.632 39.386ZM19.632 38.932C19.7578 38.932 19.8659 38.8848 19.9563 38.7905C20.0506 38.6961 20.0978 38.5546 20.0978 38.3659C20.0978 38.1772 20.0526 38.0357 19.9622 37.9414C19.8718 37.8431 19.7617 37.794 19.632 37.794C19.5062 37.794 19.3961 37.8431 19.3018 37.9414C19.2075 38.0357 19.1603 38.1772 19.1603 38.3659C19.1603 38.5546 19.2055 38.6961 19.2959 38.7905C19.3902 38.8848 19.5023 38.932 19.632 38.932Z" fill="white"/>
<path d="M10.1314 68.6129C9.82871 68.6129 9.5732 68.5559 9.36487 68.4419C9.15653 68.3279 8.9875 68.1766 8.85778 67.9879C8.73199 67.7992 8.64158 67.5869 8.58655 67.3511C8.53151 67.1152 8.504 66.8735 8.504 66.6258C8.504 66.1698 8.56689 65.7709 8.69268 65.4289C8.8224 65.0869 9.00715 64.8215 9.24694 64.6329C9.48672 64.4402 9.77761 64.3439 10.1196 64.3439C10.3908 64.3439 10.6228 64.397 10.8154 64.5031C11.008 64.6093 11.1574 64.7508 11.2635 64.9277C11.3736 65.1046 11.4404 65.2972 11.464 65.5055H10.8802C10.8449 65.3011 10.7603 65.1439 10.6267 65.0338C10.493 64.9237 10.322 64.8687 10.1137 64.8687C9.82675 64.8687 9.58893 65.0043 9.40024 65.2756C9.21549 65.5429 9.11722 65.9556 9.10543 66.5138C9.19977 66.3408 9.34521 66.1934 9.54176 66.0716C9.74223 65.9497 9.97219 65.8888 10.2316 65.8888C10.4636 65.8888 10.6798 65.9438 10.8802 66.0539C11.0846 66.1639 11.2497 66.3192 11.3755 66.5197C11.5052 66.7162 11.5701 66.9501 11.5701 67.2214C11.5701 67.4611 11.5111 67.6872 11.3932 67.8994C11.2753 68.1117 11.1082 68.2847 10.892 68.4183C10.6798 68.548 10.4262 68.6129 10.1314 68.6129ZM10.096 68.0704C10.2611 68.0704 10.4085 68.0351 10.5382 67.9643C10.668 67.8935 10.7702 67.7972 10.8449 67.6754C10.9195 67.5496 10.9569 67.4081 10.9569 67.2508C10.9569 66.9993 10.8743 66.7988 10.7092 66.6494C10.5481 66.5 10.3417 66.4254 10.0901 66.4254C9.92502 66.4254 9.77565 66.4627 9.642 66.5374C9.51228 66.6121 9.41007 66.7123 9.33538 66.8381C9.2607 66.96 9.22335 67.0956 9.22335 67.2449C9.22335 67.4061 9.2607 67.5496 9.33538 67.6754C9.414 67.7972 9.51817 67.8935 9.64789 67.9643C9.78154 68.0351 9.93092 68.0704 10.096 68.0704ZM13.9925 68.6129C13.6191 68.6129 13.2968 68.5245 13.0255 68.3476C12.7582 68.1667 12.5519 67.9171 12.4064 67.5987C12.2649 67.2764 12.1942 66.903 12.1942 66.4784C12.1942 66.0539 12.2649 65.6824 12.4064 65.364C12.5519 65.0417 12.7582 64.7921 13.0255 64.6152C13.2968 64.4343 13.6191 64.3439 13.9925 64.3439C14.366 64.3439 14.6863 64.4343 14.9536 64.6152C15.2209 64.7921 15.4254 65.0417 15.5669 65.364C15.7123 65.6824 15.785 66.0539 15.785 66.4784C15.785 66.903 15.7123 67.2764 15.5669 67.5987C15.4254 67.9171 15.2209 68.1667 14.9536 68.3476C14.6863 68.5245 14.366 68.6129 13.9925 68.6129ZM13.9925 68.0527C14.2166 68.0527 14.4151 67.9899 14.5881 67.8641C14.765 67.7383 14.9025 67.5575 15.0008 67.3216C15.0991 67.0857 15.1482 66.8047 15.1482 66.4784C15.1482 66.1522 15.0991 65.8711 15.0008 65.6352C14.9025 65.3994 14.765 65.2186 14.5881 65.0928C14.4151 64.967 14.2166 64.9041 13.9925 64.9041C13.7645 64.9041 13.5641 64.967 13.3911 65.0928C13.2182 65.2186 13.0825 65.3994 12.9843 65.6352C12.886 65.8711 12.8369 66.1522 12.8369 66.4784C12.8369 66.8047 12.886 67.0857 12.9843 67.3216C13.0825 67.5575 13.2182 67.7383 13.3911 67.8641C13.5641 67.9899 13.7645 68.0527 13.9925 68.0527ZM17.2777 66.3841C17.0929 66.3841 16.9259 66.3428 16.7765 66.2603C16.6311 66.1777 16.5151 66.0617 16.4286 65.9124C16.3421 65.7591 16.2989 65.5763 16.2989 65.364C16.2989 65.1557 16.3421 64.9768 16.4286 64.8274C16.5151 64.6741 16.633 64.5562 16.7824 64.4737C16.9318 64.3911 17.0988 64.3498 17.2836 64.3498C17.4644 64.3498 17.6275 64.3911 17.773 64.4737C17.9224 64.5562 18.0403 64.6741 18.1268 64.8274C18.2132 64.9768 18.2565 65.1557 18.2565 65.364C18.2565 65.5763 18.2132 65.7591 18.1268 65.9124C18.0403 66.0617 17.9224 66.1777 17.773 66.2603C17.6275 66.3428 17.4624 66.3841 17.2777 66.3841ZM16.9829 68.5421L19.3473 64.4147H19.9605L17.602 68.5421H16.9829ZM17.2777 65.936C17.4035 65.936 17.5116 65.8888 17.602 65.7944C17.6963 65.6962 17.7435 65.5527 17.7435 65.364C17.7435 65.1753 17.6983 65.0338 17.6079 64.9395C17.5175 64.8412 17.4074 64.7921 17.2777 64.7921C17.1519 64.7921 17.0418 64.8412 16.9475 64.9395C16.8531 65.0338 16.806 65.1753 16.806 65.364C16.806 65.5527 16.8512 65.6962 16.9416 65.7944C17.0359 65.8888 17.148 65.936 17.2777 65.936ZM19.7011 68.6129C19.5163 68.6129 19.3493 68.5716 19.1999 68.4891C19.0545 68.4065 18.9385 68.2906 18.852 68.1412C18.7655 67.9879 18.7223 67.8051 18.7223 67.5928C18.7223 67.3845 18.7655 67.2037 18.852 67.0504C18.9385 66.8971 19.0564 66.7791 19.2058 66.6966C19.3552 66.614 19.5222 66.5728 19.707 66.5728C19.8878 66.5728 20.0509 66.614 20.1964 66.6966C20.3458 66.7791 20.4637 66.8971 20.5502 67.0504C20.6366 67.2037 20.6799 67.3845 20.6799 67.5928C20.6799 67.8051 20.6366 67.9879 20.5502 68.1412C20.4637 68.2906 20.3458 68.4065 20.1964 68.4891C20.0509 68.5716 19.8858 68.6129 19.7011 68.6129ZM19.7011 68.1589C19.8269 68.1589 19.935 68.1117 20.0254 68.0174C20.1197 67.923 20.1669 67.7815 20.1669 67.5928C20.1669 67.4041 20.1217 67.2626 20.0313 67.1683C19.9409 67.07 19.8308 67.0209 19.7011 67.0209C19.5753 67.0209 19.4652 67.07 19.3709 67.1683C19.2766 67.2626 19.2294 67.4041 19.2294 67.5928C19.2294 67.7815 19.2746 67.923 19.365 68.0174C19.4593 68.1117 19.5714 68.1589 19.7011 68.1589Z" fill="white"/>
<path d="M10.497 97.769V96.9435H8.42735V96.4482L10.3967 93.6416H11.1161V96.4011H11.6939V96.9435H11.1161V97.769H10.497ZM9.10543 96.4011H10.5323V94.3315L9.10543 96.4011ZM13.9407 97.8398C13.5673 97.8398 13.2449 97.7513 12.9737 97.5744C12.7064 97.3936 12.5 97.144 12.3546 96.8256C12.2131 96.5033 12.1423 96.1298 12.1423 95.7053C12.1423 95.2808 12.2131 94.9093 12.3546 94.5909C12.5 94.2686 12.7064 94.0189 12.9737 93.8421C13.2449 93.6612 13.5673 93.5708 13.9407 93.5708C14.3142 93.5708 14.6345 93.6612 14.9018 93.8421C15.1691 94.0189 15.3735 94.2686 15.515 94.5909C15.6605 94.9093 15.7332 95.2808 15.7332 95.7053C15.7332 96.1298 15.6605 96.5033 15.515 96.8256C15.3735 97.144 15.1691 97.3936 14.9018 97.5744C14.6345 97.7513 14.3142 97.8398 13.9407 97.8398ZM13.9407 97.2796C14.1648 97.2796 14.3633 97.2167 14.5362 97.0909C14.7131 96.9652 14.8507 96.7843 14.949 96.5485C15.0473 96.3126 15.0964 96.0316 15.0964 95.7053C15.0964 95.379 15.0473 95.098 14.949 94.8621C14.8507 94.6263 14.7131 94.4454 14.5362 94.3197C14.3633 94.1939 14.1648 94.131 13.9407 94.131C13.7127 94.131 13.5122 94.1939 13.3393 94.3197C13.1663 94.4454 13.0307 94.6263 12.9324 94.8621C12.8342 95.098 12.785 95.379 12.785 95.7053C12.785 96.0316 12.8342 96.3126 12.9324 96.5485C13.0307 96.7843 13.1663 96.9652 13.3393 97.0909C13.5122 97.2167 13.7127 97.2796 13.9407 97.2796ZM17.2259 95.611C17.0411 95.611 16.874 95.5697 16.7247 95.4871C16.5792 95.4046 16.4633 95.2886 16.3768 95.1393C16.2903 94.9859 16.2471 94.8032 16.2471 94.5909C16.2471 94.3826 16.2903 94.2037 16.3768 94.0543C16.4633 93.901 16.5812 93.7831 16.7306 93.7005C16.8799 93.618 17.047 93.5767 17.2318 93.5767C17.4126 93.5767 17.5757 93.618 17.7212 93.7005C17.8705 93.7831 17.9885 93.901 18.0749 94.0543C18.1614 94.2037 18.2047 94.3826 18.2047 94.5909C18.2047 94.8032 18.1614 94.9859 18.0749 95.1393C17.9885 95.2886 17.8705 95.4046 17.7212 95.4871C17.5757 95.5697 17.4106 95.611 17.2259 95.611ZM16.931 97.769L19.2955 93.6416H19.9087L17.5502 97.769H16.931ZM17.2259 95.1628C17.3517 95.1628 17.4598 95.1157 17.5502 95.0213C17.6445 94.9231 17.6917 94.7796 17.6917 94.5909C17.6917 94.4022 17.6465 94.2607 17.5561 94.1664C17.4656 94.0681 17.3556 94.0189 17.2259 94.0189C17.1001 94.0189 16.99 94.0681 16.8957 94.1664C16.8013 94.2607 16.7542 94.4022 16.7542 94.5909C16.7542 94.7796 16.7994 94.9231 16.8898 95.0213C16.9841 95.1157 17.0961 95.1628 17.2259 95.1628ZM19.6493 97.8398C19.4645 97.8398 19.2975 97.7985 19.1481 97.716C19.0026 97.6334 18.8867 97.5174 18.8002 97.3681C18.7137 97.2148 18.6705 97.032 18.6705 96.8197C18.6705 96.6114 18.7137 96.4306 18.8002 96.2772C18.8867 96.1239 19.0046 96.006 19.154 95.9235C19.3033 95.8409 19.4704 95.7996 19.6552 95.7996C19.836 95.7996 19.9991 95.8409 20.1446 95.9235C20.2939 96.006 20.4119 96.1239 20.4983 96.2772C20.5848 96.4306 20.6281 96.6114 20.6281 96.8197C20.6281 97.032 20.5848 97.2148 20.4983 97.3681C20.4119 97.5174 20.2939 97.6334 20.1446 97.716C19.9991 97.7985 19.834 97.8398 19.6493 97.8398ZM19.6493 97.3858C19.7751 97.3858 19.8832 97.3386 19.9736 97.2443C20.0679 97.1499 20.1151 97.0084 20.1151 96.8197C20.1151 96.631 20.0699 96.4895 19.9795 96.3952C19.8891 96.2969 19.779 96.2478 19.6493 96.2478C19.5235 96.2478 19.4134 96.2969 19.3191 96.3952C19.2247 96.4895 19.1776 96.631 19.1776 96.8197C19.1776 97.0084 19.2228 97.1499 19.3132 97.2443C19.4075 97.3386 19.5195 97.3858 19.6493 97.3858Z" fill="white"/>
<path d="M8.53348 126.996V126.548C8.80078 126.336 9.05629 126.121 9.30001 125.905C9.54372 125.689 9.75992 125.477 9.94861 125.268C10.1412 125.056 10.2926 124.85 10.4026 124.649C10.5127 124.445 10.5677 124.248 10.5677 124.06C10.5677 123.934 10.5461 123.816 10.5029 123.706C10.4596 123.592 10.3889 123.501 10.2906 123.435C10.1923 123.364 10.0606 123.328 9.89554 123.328C9.64789 123.328 9.46117 123.407 9.33538 123.564C9.21353 123.721 9.15456 123.91 9.15849 124.13H8.55117C8.5551 123.839 8.61603 123.596 8.73396 123.399C8.85581 123.203 9.01698 123.053 9.21746 122.951C9.42186 122.849 9.65182 122.798 9.90733 122.798C10.2965 122.798 10.607 122.908 10.839 123.128C11.0748 123.344 11.1927 123.647 11.1927 124.036C11.1927 124.268 11.1357 124.498 11.0217 124.726C10.9117 124.954 10.7662 125.174 10.5854 125.386C10.4085 125.595 10.2179 125.791 10.0135 125.976C9.80906 126.161 9.61448 126.328 9.42973 126.477H11.3166V126.996H8.53348ZM13.5952 127.067C13.2218 127.067 12.8995 126.978 12.6282 126.801C12.3609 126.621 12.1546 126.371 12.0091 126.052C11.8676 125.73 11.7968 125.357 11.7968 124.932C11.7968 124.508 11.8676 124.136 12.0091 123.818C12.1546 123.495 12.3609 123.246 12.6282 123.069C12.8995 122.888 13.2218 122.798 13.5952 122.798C13.9687 122.798 14.289 122.888 14.5563 123.069C14.8236 123.246 15.028 123.495 15.1696 123.818C15.315 124.136 15.3877 124.508 15.3877 124.932C15.3877 125.357 15.315 125.73 15.1696 126.052C15.028 126.371 14.8236 126.621 14.5563 126.801C14.289 126.978 13.9687 127.067 13.5952 127.067ZM13.5952 126.507C13.8193 126.507 14.0178 126.444 14.1908 126.318C14.3677 126.192 14.5052 126.011 14.6035 125.775C14.7018 125.54 14.7509 125.258 14.7509 124.932C14.7509 124.606 14.7018 124.325 14.6035 124.089C14.5052 123.853 14.3677 123.672 14.1908 123.547C14.0178 123.421 13.8193 123.358 13.5952 123.358C13.3672 123.358 13.1668 123.421 12.9938 123.547C12.8208 123.672 12.6852 123.853 12.587 124.089C12.4887 124.325 12.4395 124.606 12.4395 124.932C12.4395 125.258 12.4887 125.54 12.587 125.775C12.6852 126.011 12.8208 126.192 12.9938 126.318C13.1668 126.444 13.3672 126.507 13.5952 126.507ZM16.8804 124.838C16.6956 124.838 16.5286 124.797 16.3792 124.714C16.2337 124.631 16.1178 124.516 16.0313 124.366C15.9448 124.213 15.9016 124.03 15.9016 123.818C15.9016 123.609 15.9448 123.431 16.0313 123.281C16.1178 123.128 16.2357 123.01 16.3851 122.927C16.5345 122.845 16.7015 122.804 16.8863 122.804C17.0671 122.804 17.2302 122.845 17.3757 122.927C17.525 123.01 17.643 123.128 17.7295 123.281C17.8159 123.431 17.8592 123.609 17.8592 123.818C17.8592 124.03 17.8159 124.213 17.7295 124.366C17.643 124.516 17.525 124.631 17.3757 124.714C17.2302 124.797 17.0651 124.838 16.8804 124.838ZM16.5856 126.996L18.95 122.868H19.5632L17.2047 126.996H16.5856ZM16.8804 124.39C17.0062 124.39 17.1143 124.343 17.2047 124.248C17.299 124.15 17.3462 124.006 17.3462 123.818C17.3462 123.629 17.301 123.488 17.2106 123.393C17.1202 123.295 17.0101 123.246 16.8804 123.246C16.7546 123.246 16.6445 123.295 16.5502 123.393C16.4558 123.488 16.4087 123.629 16.4087 123.818C16.4087 124.006 16.4539 124.15 16.5443 124.248C16.6386 124.343 16.7507 124.39 16.8804 124.39ZM19.3038 127.067C19.119 127.067 18.952 127.025 18.8026 126.943C18.6571 126.86 18.5412 126.744 18.4547 126.595C18.3682 126.442 18.325 126.259 18.325 126.047C18.325 125.838 18.3682 125.657 18.4547 125.504C18.5412 125.351 18.6591 125.233 18.8085 125.15C18.9579 125.068 19.1249 125.027 19.3097 125.027C19.4905 125.027 19.6536 125.068 19.7991 125.15C19.9484 125.233 20.0664 125.351 20.1529 125.504C20.2393 125.657 20.2826 125.838 20.2826 126.047C20.2826 126.259 20.2393 126.442 20.1529 126.595C20.0664 126.744 19.9484 126.86 19.7991 126.943C19.6536 127.025 19.4885 127.067 19.3038 127.067ZM19.3038 126.613C19.4296 126.613 19.5377 126.565 19.6281 126.471C19.7224 126.377 19.7696 126.235 19.7696 126.047C19.7696 125.858 19.7244 125.716 19.634 125.622C19.5436 125.524 19.4335 125.475 19.3038 125.475C19.178 125.475 19.0679 125.524 18.9736 125.622C18.8792 125.716 18.8321 125.858 18.8321 126.047C18.8321 126.235 18.8773 126.377 18.9677 126.471C19.062 126.565 19.1741 126.613 19.3038 126.613Z" fill="white"/>
<path d="M18.267 156.294C17.8936 156.294 17.5712 156.205 17.3 156.028C17.0327 155.847 16.8263 155.598 16.6809 155.279C16.5394 154.957 16.4686 154.584 16.4686 154.159C16.4686 153.735 16.5394 153.363 16.6809 153.045C16.8263 152.722 17.0327 152.473 17.3 152.296C17.5712 152.115 17.8936 152.025 18.267 152.025C18.6404 152.025 18.9608 152.115 19.2281 152.296C19.4954 152.473 19.6998 152.722 19.8413 153.045C19.9868 153.363 20.0595 153.735 20.0595 154.159C20.0595 154.584 19.9868 154.957 19.8413 155.279C19.6998 155.598 19.4954 155.847 19.2281 156.028C18.9608 156.205 18.6404 156.294 18.267 156.294ZM18.267 155.733C18.4911 155.733 18.6896 155.671 18.8625 155.545C19.0394 155.419 19.177 155.238 19.2753 155.002C19.3736 154.766 19.4227 154.485 19.4227 154.159C19.4227 153.833 19.3736 153.552 19.2753 153.316C19.177 153.08 19.0394 152.899 18.8625 152.773C18.6896 152.648 18.4911 152.585 18.267 152.585C18.039 152.585 17.8385 152.648 17.6656 152.773C17.4926 152.899 17.357 153.08 17.2587 153.316C17.1605 153.552 17.1113 153.833 17.1113 154.159C17.1113 154.485 17.1605 154.766 17.2587 155.002C17.357 155.238 17.4926 155.419 17.6656 155.545C17.8385 155.671 18.039 155.733 18.267 155.733Z" fill="white"/>
<path d="M48.0509 101.083C47.7836 101.083 47.5399 101.035 47.3198 100.941C47.1036 100.843 46.9306 100.695 46.8009 100.499C46.6712 100.302 46.6024 100.057 46.5945 99.7618H47.2137C47.2215 99.9819 47.2962 100.169 47.4377 100.322C47.5832 100.471 47.7876 100.546 48.0509 100.546C48.3025 100.546 48.4951 100.477 48.6288 100.34C48.7624 100.198 48.8293 100.023 48.8293 99.8149C48.8293 99.5633 48.7389 99.3766 48.558 99.2547C48.3811 99.1329 48.163 99.0719 47.9035 99.0719H47.5969V98.553H47.9094C48.1414 98.553 48.3281 98.498 48.4696 98.3879C48.615 98.2779 48.6878 98.1226 48.6878 97.9221C48.6878 97.7531 48.6308 97.6155 48.5168 97.5094C48.4067 97.4033 48.2495 97.3502 48.0451 97.3502C47.8328 97.3502 47.6657 97.4131 47.5439 97.5389C47.422 97.6607 47.3552 97.814 47.3434 97.9988H46.7243C46.7321 97.759 46.7911 97.5507 46.9012 97.3738C47.0152 97.1969 47.1704 97.0593 47.367 96.961C47.5635 96.8628 47.7895 96.8136 48.0451 96.8136C48.3202 96.8136 48.5502 96.8628 48.7349 96.961C48.9236 97.0554 49.0651 97.1851 49.1595 97.3502C49.2577 97.5114 49.3069 97.6882 49.3069 97.8809C49.3069 98.101 49.2459 98.2936 49.1241 98.4587C49.0022 98.6238 48.8391 98.7339 48.6347 98.7889C48.8705 98.84 49.0651 98.956 49.2184 99.1368C49.3717 99.3137 49.4484 99.5436 49.4484 99.8267C49.4484 100.055 49.3953 100.265 49.2892 100.458C49.1831 100.646 49.0258 100.798 48.8175 100.912C48.6091 101.026 48.3536 101.083 48.0509 101.083ZM51.6583 101.083C51.3674 101.083 51.1159 101.031 50.9036 100.929C50.6913 100.823 50.5223 100.68 50.3965 100.499C50.2746 100.314 50.2 100.106 50.1724 99.8738H50.7857C50.825 100.07 50.9232 100.234 51.0805 100.363C51.2377 100.489 51.4323 100.552 51.6642 100.552C51.8372 100.552 51.9866 100.511 52.1123 100.428C52.2381 100.342 52.3364 100.228 52.4072 100.086C52.4779 99.9446 52.5133 99.7854 52.5133 99.6085C52.5133 99.3294 52.4347 99.1073 52.2774 98.9422C52.1202 98.7732 51.9217 98.6887 51.6819 98.6887C51.4775 98.6887 51.3026 98.7378 51.1571 98.8361C51.0117 98.9304 50.9056 99.0503 50.8387 99.1957H50.2432L50.597 96.8844H52.8258V97.4327H51.0687L50.8564 98.5354C50.9468 98.4332 51.0707 98.3486 51.2279 98.2818C51.3891 98.2111 51.5699 98.1757 51.7704 98.1757C52.0494 98.1757 52.2892 98.2405 52.4897 98.3703C52.6902 98.496 52.8435 98.667 52.9496 98.8832C53.0597 99.0994 53.1147 99.3392 53.1147 99.6026C53.1147 99.8778 53.0558 100.127 52.9378 100.351C52.8199 100.575 52.6509 100.754 52.4307 100.888C52.2145 101.018 51.9571 101.083 51.6583 101.083ZM54.649 98.8538C54.4643 98.8538 54.2972 98.8125 54.1478 98.7299C54.0024 98.6474 53.8864 98.5314 53.7999 98.382C53.7135 98.2287 53.6702 98.046 53.6702 97.8337C53.6702 97.6254 53.7135 97.4465 53.7999 97.2971C53.8864 97.1438 54.0044 97.0259 54.1537 96.9433C54.3031 96.8608 54.4702 96.8195 54.6549 96.8195C54.8357 96.8195 54.9989 96.8608 55.1443 96.9433C55.2937 97.0259 55.4116 97.1438 55.4981 97.2971C55.5846 97.4465 55.6278 97.6254 55.6278 97.8337C55.6278 98.046 55.5846 98.2287 55.4981 98.382C55.4116 98.5314 55.2937 98.6474 55.1443 98.7299C54.9989 98.8125 54.8338 98.8538 54.649 98.8538ZM54.3542 101.012L56.7186 96.8844H57.3319L54.9733 101.012H54.3542ZM54.649 98.4056C54.7748 98.4056 54.8829 98.3585 54.9733 98.2641C55.0677 98.1658 55.1148 98.0224 55.1148 97.8337C55.1148 97.645 55.0696 97.5035 54.9792 97.4092C54.8888 97.3109 54.7787 97.2617 54.649 97.2617C54.5232 97.2617 54.4132 97.3109 54.3188 97.4092C54.2245 97.5035 54.1773 97.645 54.1773 97.8337C54.1773 98.0224 54.2225 98.1658 54.3129 98.2641C54.4073 98.3585 54.5193 98.4056 54.649 98.4056ZM57.0724 101.083C56.8877 101.083 56.7206 101.041 56.5712 100.959C56.4258 100.876 56.3098 100.76 56.2233 100.611C56.1369 100.458 56.0936 100.275 56.0936 100.063C56.0936 99.8542 56.1369 99.6734 56.2233 99.52C56.3098 99.3667 56.4278 99.2488 56.5771 99.1663C56.7265 99.0837 56.8936 99.0424 57.0783 99.0424C57.2591 99.0424 57.4223 99.0837 57.5677 99.1663C57.7171 99.2488 57.835 99.3667 57.9215 99.52C58.008 99.6734 58.0512 99.8542 58.0512 100.063C58.0512 100.275 58.008 100.458 57.9215 100.611C57.835 100.76 57.7171 100.876 57.5677 100.959C57.4223 101.041 57.2572 101.083 57.0724 101.083ZM57.0724 100.629C57.1982 100.629 57.3063 100.581 57.3967 100.487C57.4911 100.393 57.5382 100.251 57.5382 100.063C57.5382 99.8738 57.493 99.7323 57.4026 99.638C57.3122 99.5397 57.2021 99.4906 57.0724 99.4906C56.9466 99.4906 56.8366 99.5397 56.7422 99.638C56.6479 99.7323 56.6007 99.8738 56.6007 100.063C56.6007 100.251 56.6459 100.393 56.7363 100.487C56.8307 100.581 56.9427 100.629 57.0724 100.629Z" fill="white"/>
<path d="M74.9418 101.083C74.6745 101.083 74.4308 101.035 74.2107 100.941C73.9945 100.843 73.8215 100.695 73.6918 100.499C73.5621 100.302 73.4933 100.057 73.4854 99.7618H74.1045C74.1124 99.9819 74.1871 100.169 74.3286 100.322C74.474 100.471 74.6784 100.546 74.9418 100.546C75.1934 100.546 75.386 100.477 75.5197 100.34C75.6533 100.198 75.7201 100.023 75.7201 99.8149C75.7201 99.5633 75.6297 99.3766 75.4489 99.2547C75.272 99.1329 75.0538 99.0719 74.7944 99.0719H74.4878V98.553H74.8003C75.0322 98.553 75.2189 98.498 75.3605 98.3879C75.5059 98.2779 75.5786 98.1226 75.5786 97.9221C75.5786 97.7531 75.5216 97.6155 75.4076 97.5094C75.2976 97.4033 75.1403 97.3502 74.9359 97.3502C74.7237 97.3502 74.5566 97.4131 74.4347 97.5389C74.3129 97.6607 74.246 97.814 74.2343 97.9988H73.6151C73.623 97.759 73.682 97.5507 73.792 97.3738C73.906 97.1969 74.0613 97.0593 74.2578 96.961C74.4544 96.8628 74.6804 96.8136 74.9359 96.8136C75.2111 96.8136 75.441 96.8628 75.6258 96.961C75.8145 97.0554 75.956 97.1851 76.0503 97.3502C76.1486 97.5114 76.1977 97.6882 76.1977 97.8809C76.1977 98.101 76.1368 98.2936 76.015 98.4587C75.8931 98.6238 75.73 98.7339 75.5256 98.7889C75.7614 98.84 75.956 98.956 76.1093 99.1368C76.2626 99.3137 76.3393 99.5436 76.3393 99.8267C76.3393 100.055 76.2862 100.265 76.1801 100.458C76.0739 100.646 75.9167 100.798 75.7083 100.912C75.5 101.026 75.2445 101.083 74.9418 101.083ZM78.5492 101.083C78.2583 101.083 78.0067 101.031 77.7945 100.929C77.5822 100.823 77.4132 100.68 77.2874 100.499C77.1655 100.314 77.0908 100.106 77.0633 99.8738H77.6765C77.7158 100.07 77.8141 100.234 77.9713 100.363C78.1286 100.489 78.3232 100.552 78.5551 100.552C78.728 100.552 78.8774 100.511 79.0032 100.428C79.129 100.342 79.2273 100.228 79.298 100.086C79.3688 99.9446 79.4042 99.7854 79.4042 99.6085C79.4042 99.3294 79.3255 99.1073 79.1683 98.9422C79.0111 98.7732 78.8126 98.6887 78.5728 98.6887C78.3684 98.6887 78.1934 98.7378 78.048 98.8361C77.9026 98.9304 77.7964 99.0503 77.7296 99.1957H77.1341L77.4878 96.8844H79.7167V97.4327H77.9596L77.7473 98.5354C77.8377 98.4332 77.9615 98.3486 78.1188 98.2818C78.2799 98.2111 78.4607 98.1757 78.6612 98.1757C78.9403 98.1757 79.1801 98.2405 79.3806 98.3703C79.5811 98.496 79.7344 98.667 79.8405 98.8832C79.9506 99.0994 80.0056 99.3392 80.0056 99.6026C80.0056 99.8778 79.9466 100.127 79.8287 100.351C79.7108 100.575 79.5417 100.754 79.3216 100.888C79.1054 101.018 78.8479 101.083 78.5492 101.083ZM81.5399 98.8538C81.3551 98.8538 81.1881 98.8125 81.0387 98.7299C80.8933 98.6474 80.7773 98.5314 80.6908 98.382C80.6043 98.2287 80.5611 98.046 80.5611 97.8337C80.5611 97.6254 80.6043 97.4465 80.6908 97.2971C80.7773 97.1438 80.8952 97.0259 81.0446 96.9433C81.194 96.8608 81.361 96.8195 81.5458 96.8195C81.7266 96.8195 81.8897 96.8608 82.0352 96.9433C82.1846 97.0259 82.3025 97.1438 82.389 97.2971C82.4754 97.4465 82.5187 97.6254 82.5187 97.8337C82.5187 98.046 82.4754 98.2287 82.389 98.382C82.3025 98.5314 82.1846 98.6474 82.0352 98.7299C81.8897 98.8125 81.7246 98.8538 81.5399 98.8538ZM81.2451 101.012L83.6095 96.8844H84.2227L81.8642 101.012H81.2451ZM81.5399 98.4056C81.6657 98.4056 81.7738 98.3585 81.8642 98.2641C81.9585 98.1658 82.0057 98.0224 82.0057 97.8337C82.0057 97.645 81.9605 97.5035 81.8701 97.4092C81.7797 97.3109 81.6696 97.2617 81.5399 97.2617C81.4141 97.2617 81.304 97.3109 81.2097 97.4092C81.1154 97.5035 81.0682 97.645 81.0682 97.8337C81.0682 98.0224 81.1134 98.1658 81.2038 98.2641C81.2981 98.3585 81.4102 98.4056 81.5399 98.4056ZM83.9633 101.083C83.7785 101.083 83.6115 101.041 83.4621 100.959C83.3167 100.876 83.2007 100.76 83.1142 100.611C83.0277 100.458 82.9845 100.275 82.9845 100.063C82.9845 99.8542 83.0277 99.6734 83.1142 99.52C83.2007 99.3667 83.3186 99.2488 83.468 99.1663C83.6174 99.0837 83.7844 99.0424 83.9692 99.0424C84.15 99.0424 84.3131 99.0837 84.4586 99.1663C84.608 99.2488 84.7259 99.3667 84.8124 99.52C84.8988 99.6734 84.9421 99.8542 84.9421 100.063C84.9421 100.275 84.8988 100.458 84.8124 100.611C84.7259 100.76 84.608 100.876 84.4586 100.959C84.3131 101.041 84.148 101.083 83.9633 101.083ZM83.9633 100.629C84.0891 100.629 84.1972 100.581 84.2876 100.487C84.3819 100.393 84.4291 100.251 84.4291 100.063C84.4291 99.8738 84.3839 99.7323 84.2935 99.638C84.2031 99.5397 84.093 99.4906 83.9633 99.4906C83.8375 99.4906 83.7274 99.5397 83.6331 99.638C83.5388 99.7323 83.4916 99.8738 83.4916 100.063C83.4916 100.251 83.5368 100.393 83.6272 100.487C83.7215 100.581 83.8336 100.629 83.9633 100.629Z" fill="white"/>
<path d="M100.056 125.187V121.767L99.3901 121.921V121.461L100.304 121.06H100.705V125.187H100.056ZM102.982 125.258C102.691 125.258 102.44 125.207 102.228 125.105C102.015 124.999 101.846 124.855 101.72 124.674C101.599 124.49 101.524 124.281 101.496 124.049H102.11C102.149 124.246 102.247 124.409 102.404 124.539C102.562 124.664 102.756 124.727 102.988 124.727C103.161 124.727 103.311 124.686 103.436 124.604C103.562 124.517 103.66 124.403 103.731 124.262C103.802 124.12 103.837 123.961 103.837 123.784C103.837 123.505 103.759 123.283 103.601 123.118C103.444 122.949 103.246 122.864 103.006 122.864C102.801 122.864 102.627 122.913 102.481 123.012C102.336 123.106 102.23 123.226 102.163 123.371H101.567L101.921 121.06H104.15V121.608H102.393L102.18 122.711C102.271 122.609 102.395 122.524 102.552 122.457C102.713 122.387 102.894 122.351 103.094 122.351C103.373 122.351 103.613 122.416 103.814 122.546C104.014 122.672 104.167 122.843 104.274 123.059C104.384 123.275 104.439 123.515 104.439 123.778C104.439 124.053 104.38 124.303 104.262 124.527C104.144 124.751 103.975 124.93 103.755 125.063C103.539 125.193 103.281 125.258 102.982 125.258ZM105.973 123.029C105.788 123.029 105.621 122.988 105.472 122.905C105.326 122.823 105.21 122.707 105.124 122.558C105.037 122.404 104.994 122.221 104.994 122.009C104.994 121.801 105.037 121.622 105.124 121.473C105.21 121.319 105.328 121.201 105.478 121.119C105.627 121.036 105.794 120.995 105.979 120.995C106.16 120.995 106.323 121.036 106.468 121.119C106.618 121.201 106.736 121.319 106.822 121.473C106.909 121.622 106.952 121.801 106.952 122.009C106.952 122.221 106.909 122.404 106.822 122.558C106.736 122.707 106.618 122.823 106.468 122.905C106.323 122.988 106.158 123.029 105.973 123.029ZM105.678 125.187L108.043 121.06H108.656L106.297 125.187H105.678ZM105.973 122.581C106.099 122.581 106.207 122.534 106.297 122.44C106.392 122.341 106.439 122.198 106.439 122.009C106.439 121.82 106.394 121.679 106.303 121.585C106.213 121.486 106.103 121.437 105.973 121.437C105.847 121.437 105.737 121.486 105.643 121.585C105.548 121.679 105.501 121.82 105.501 122.009C105.501 122.198 105.547 122.341 105.637 122.44C105.731 122.534 105.843 122.581 105.973 122.581ZM108.396 125.258C108.212 125.258 108.045 125.217 107.895 125.134C107.75 125.052 107.634 124.936 107.547 124.786C107.461 124.633 107.418 124.45 107.418 124.238C107.418 124.03 107.461 123.849 107.547 123.696C107.634 123.542 107.752 123.424 107.901 123.342C108.051 123.259 108.218 123.218 108.402 123.218C108.583 123.218 108.746 123.259 108.892 123.342C109.041 123.424 109.159 123.542 109.245 123.696C109.332 123.849 109.375 124.03 109.375 124.238C109.375 124.45 109.332 124.633 109.245 124.786C109.159 124.936 109.041 125.052 108.892 125.134C108.746 125.217 108.581 125.258 108.396 125.258ZM108.396 124.804C108.522 124.804 108.63 124.757 108.721 124.663C108.815 124.568 108.862 124.427 108.862 124.238C108.862 124.049 108.817 123.908 108.727 123.813C108.636 123.715 108.526 123.666 108.396 123.666C108.271 123.666 108.161 123.715 108.066 123.813C107.972 123.908 107.925 124.049 107.925 124.238C107.925 124.427 107.97 124.568 108.06 124.663C108.155 124.757 108.267 124.804 108.396 124.804Z" fill="white"/>
<path d="M128.133 133.62V130.201L127.467 130.354V129.894L128.381 129.493H128.782V133.62H128.133ZM131.271 133.691C130.898 133.691 130.575 133.603 130.304 133.426C130.037 133.245 129.83 132.995 129.685 132.677C129.543 132.355 129.473 131.981 129.473 131.557C129.473 131.132 129.543 130.761 129.685 130.442C129.83 130.12 130.037 129.87 130.304 129.694C130.575 129.513 130.898 129.422 131.271 129.422C131.645 129.422 131.965 129.513 132.232 129.694C132.5 129.87 132.704 130.12 132.845 130.442C132.991 130.761 133.064 131.132 133.064 131.557C133.064 131.981 132.991 132.355 132.845 132.677C132.704 132.995 132.5 133.245 132.232 133.426C131.965 133.603 131.645 133.691 131.271 133.691ZM131.271 133.131C131.495 133.131 131.694 133.068 131.867 132.942C132.044 132.817 132.181 132.636 132.279 132.4C132.378 132.164 132.427 131.883 132.427 131.557C132.427 131.23 132.378 130.949 132.279 130.714C132.181 130.478 132.044 130.297 131.867 130.171C131.694 130.045 131.495 129.982 131.271 129.982C131.043 129.982 130.843 130.045 130.67 130.171C130.497 130.297 130.361 130.478 130.263 130.714C130.165 130.949 130.115 131.23 130.115 131.557C130.115 131.883 130.165 132.164 130.263 132.4C130.361 132.636 130.497 132.817 130.67 132.942C130.843 133.068 131.043 133.131 131.271 133.131ZM134.556 131.462C134.372 131.462 134.204 131.421 134.055 131.339C133.91 131.256 133.794 131.14 133.707 130.991C133.621 130.837 133.577 130.655 133.577 130.442C133.577 130.234 133.621 130.055 133.707 129.906C133.794 129.752 133.912 129.635 134.061 129.552C134.21 129.469 134.377 129.428 134.562 129.428C134.743 129.428 134.906 129.469 135.052 129.552C135.201 129.635 135.319 129.752 135.405 129.906C135.492 130.055 135.535 130.234 135.535 130.442C135.535 130.655 135.492 130.837 135.405 130.991C135.319 131.14 135.201 131.256 135.052 131.339C134.906 131.421 134.741 131.462 134.556 131.462ZM134.261 133.62L136.626 129.493H137.239L134.881 133.62H134.261ZM134.556 131.014C134.682 131.014 134.79 130.967 134.881 130.873C134.975 130.775 135.022 130.631 135.022 130.442C135.022 130.254 134.977 130.112 134.886 130.018C134.796 129.92 134.686 129.87 134.556 129.87C134.43 129.87 134.32 129.92 134.226 130.018C134.132 130.112 134.085 130.254 134.085 130.442C134.085 130.631 134.13 130.775 134.22 130.873C134.315 130.967 134.427 131.014 134.556 131.014ZM136.98 133.691C136.795 133.691 136.628 133.65 136.478 133.567C136.333 133.485 136.217 133.369 136.131 133.22C136.044 133.066 136.001 132.883 136.001 132.671C136.001 132.463 136.044 132.282 136.131 132.129C136.217 131.975 136.335 131.857 136.484 131.775C136.634 131.692 136.801 131.651 136.986 131.651C137.166 131.651 137.33 131.692 137.475 131.775C137.624 131.857 137.742 131.975 137.829 132.129C137.915 132.282 137.958 132.463 137.958 132.671C137.958 132.883 137.915 133.066 137.829 133.22C137.742 133.369 137.624 133.485 137.475 133.567C137.33 133.65 137.164 133.691 136.98 133.691ZM136.98 133.237C137.105 133.237 137.214 133.19 137.304 133.096C137.398 133.001 137.445 132.86 137.445 132.671C137.445 132.482 137.4 132.341 137.31 132.247C137.219 132.148 137.109 132.099 136.98 132.099C136.854 132.099 136.744 132.148 136.649 132.247C136.555 132.341 136.508 132.482 136.508 132.671C136.508 132.86 136.553 133.001 136.644 133.096C136.738 133.19 136.85 133.237 136.98 133.237Z" fill="white"/>
<path d="M156.609 141.768C156.318 141.768 156.066 141.717 155.854 141.615C155.642 141.509 155.473 141.365 155.347 141.184C155.225 140.999 155.15 140.791 155.123 140.559H155.736C155.775 140.756 155.874 140.919 156.031 141.049C156.188 141.174 156.383 141.237 156.615 141.237C156.788 141.237 156.937 141.196 157.063 141.113C157.189 141.027 157.287 140.913 157.358 140.771C157.428 140.63 157.464 140.471 157.464 140.294C157.464 140.015 157.385 139.793 157.228 139.628C157.071 139.459 156.872 139.374 156.632 139.374C156.428 139.374 156.253 139.423 156.108 139.521C155.962 139.616 155.856 139.736 155.789 139.881H155.194L155.547 137.57H157.776V138.118H156.019L155.807 139.221C155.897 139.119 156.021 139.034 156.178 138.967C156.34 138.896 156.52 138.861 156.721 138.861C157 138.861 157.24 138.926 157.44 139.056C157.641 139.181 157.794 139.352 157.9 139.569C158.01 139.785 158.065 140.025 158.065 140.288C158.065 140.563 158.006 140.813 157.888 141.037C157.77 141.261 157.601 141.44 157.381 141.573C157.165 141.703 156.908 141.768 156.609 141.768ZM159.6 139.539C159.415 139.539 159.248 139.498 159.098 139.415C158.953 139.333 158.837 139.217 158.75 139.067C158.664 138.914 158.621 138.731 158.621 138.519C158.621 138.311 158.664 138.132 158.75 137.982C158.837 137.829 158.955 137.711 159.104 137.629C159.254 137.546 159.421 137.505 159.605 137.505C159.786 137.505 159.949 137.546 160.095 137.629C160.244 137.711 160.362 137.829 160.449 137.982C160.535 138.132 160.578 138.311 160.578 138.519C160.578 138.731 160.535 138.914 160.449 139.067C160.362 139.217 160.244 139.333 160.095 139.415C159.949 139.498 159.784 139.539 159.6 139.539ZM159.305 141.697L161.669 137.57H162.282L159.924 141.697H159.305ZM159.6 139.091C159.725 139.091 159.833 139.044 159.924 138.949C160.018 138.851 160.065 138.708 160.065 138.519C160.065 138.33 160.02 138.189 159.93 138.095C159.839 137.996 159.729 137.947 159.6 137.947C159.474 137.947 159.364 137.996 159.269 138.095C159.175 138.189 159.128 138.33 159.128 138.519C159.128 138.708 159.173 138.851 159.263 138.949C159.358 139.044 159.47 139.091 159.6 139.091ZM162.023 141.768C161.838 141.768 161.671 141.727 161.522 141.644C161.376 141.562 161.26 141.446 161.174 141.296C161.087 141.143 161.044 140.96 161.044 140.748C161.044 140.54 161.087 140.359 161.174 140.205C161.26 140.052 161.378 139.934 161.528 139.852C161.677 139.769 161.844 139.728 162.029 139.728C162.21 139.728 162.373 139.769 162.518 139.852C162.668 139.934 162.786 140.052 162.872 140.205C162.958 140.359 163.002 140.54 163.002 140.748C163.002 140.96 162.958 141.143 162.872 141.296C162.786 141.446 162.668 141.562 162.518 141.644C162.373 141.727 162.208 141.768 162.023 141.768ZM162.023 141.314C162.149 141.314 162.257 141.267 162.347 141.172C162.442 141.078 162.489 140.937 162.489 140.748C162.489 140.559 162.444 140.418 162.353 140.323C162.263 140.225 162.153 140.176 162.023 140.176C161.897 140.176 161.787 140.225 161.693 140.323C161.598 140.418 161.551 140.559 161.551 140.748C161.551 140.937 161.596 141.078 161.687 141.172C161.781 141.267 161.893 141.314 162.023 141.314Z" fill="white"/>
<path d="M61.7919 177.396V173.755H63.0661C63.3504 173.755 63.5862 173.804 63.7734 173.901C63.9606 173.995 64.0993 174.125 64.1895 174.291C64.2831 174.454 64.3299 174.64 64.3299 174.848C64.3299 175.045 64.2848 175.227 64.1947 175.394C64.108 175.557 63.971 175.687 63.7838 175.784C63.5966 175.881 63.3573 175.929 63.0661 175.929H62.3432V177.396H61.7919ZM62.3432 175.477H63.0401C63.3001 175.477 63.4856 175.421 63.5966 175.31C63.711 175.196 63.7682 175.042 63.7682 174.848C63.7682 174.646 63.711 174.49 63.5966 174.379C63.4856 174.265 63.3001 174.208 63.0401 174.208H62.3432V175.477ZM64.854 177.396V174.816H65.3481L65.3949 175.305C65.4851 175.135 65.6099 175.002 65.7694 174.905C65.9323 174.804 66.1282 174.754 66.3571 174.754V175.331H66.2062C66.0537 175.331 65.9167 175.357 65.7954 175.409C65.6775 175.458 65.5821 175.543 65.5093 175.664C65.44 175.782 65.4053 175.947 65.4053 176.158V177.396H64.854ZM67.9652 177.458C67.7121 177.458 67.4868 177.403 67.2891 177.292C67.095 177.178 66.9424 177.02 66.8314 176.819C66.7205 176.618 66.665 176.384 66.665 176.117C66.665 175.846 66.7188 175.609 66.8262 175.404C66.9372 175.199 67.0898 175.04 67.2839 174.926C67.4816 174.811 67.7104 174.754 67.9704 174.754C68.2235 174.754 68.4437 174.811 68.631 174.926C68.8182 175.037 68.9638 175.186 69.0678 175.373C69.1718 175.56 69.2239 175.766 69.2239 175.992C69.2239 176.026 69.2221 176.065 69.2186 176.106C69.2186 176.144 69.2169 176.188 69.2134 176.236H67.2059C67.2232 176.486 67.3047 176.677 67.4503 176.808C67.5994 176.937 67.7711 177.001 67.9652 177.001C68.1213 177.001 68.2513 176.966 68.3553 176.897C68.4628 176.824 68.5425 176.727 68.5945 176.605H69.1458C69.0765 176.848 68.9378 177.051 68.7298 177.214C68.5252 177.377 68.2704 177.458 67.9652 177.458ZM67.9652 175.206C67.7815 175.206 67.6185 175.262 67.4764 175.373C67.3342 175.48 67.2475 175.643 67.2163 175.862H68.6726C68.6622 175.661 68.5911 175.501 68.4593 175.383C68.3276 175.265 68.1629 175.206 67.9652 175.206ZM70.8256 177.458C70.4997 177.458 70.231 177.379 70.0195 177.219C69.808 177.06 69.6866 176.848 69.6554 176.585H70.2119C70.2397 176.703 70.3056 176.805 70.4096 176.891C70.5136 176.975 70.6505 177.016 70.8204 177.016C70.9869 177.016 71.1082 176.982 71.1845 176.912C71.2608 176.843 71.2989 176.763 71.2989 176.673C71.2989 176.541 71.2452 176.453 71.1377 176.408C71.0337 176.359 70.8881 176.316 70.7008 176.278C70.5552 176.247 70.4096 176.205 70.2639 176.153C70.1218 176.101 70.0022 176.028 69.9051 175.935C69.8115 175.837 69.7647 175.707 69.7647 175.544C69.7647 175.319 69.8513 175.132 70.0247 174.983C70.1981 174.83 70.4408 174.754 70.7528 174.754C71.0406 174.754 71.2729 174.823 71.4497 174.962C71.63 175.101 71.7358 175.297 71.767 175.55H71.2365C71.2192 175.439 71.1672 175.352 71.0805 175.29C70.9973 175.227 70.8846 175.196 70.7424 175.196C70.6037 175.196 70.4963 175.225 70.42 175.284C70.3437 175.34 70.3056 175.413 70.3056 175.503C70.3056 175.593 70.3576 175.664 70.4616 175.716C70.5691 175.768 70.7095 175.815 70.8829 175.857C71.0562 175.895 71.2157 175.94 71.3613 175.992C71.5104 176.04 71.63 176.113 71.7202 176.21C71.8103 176.307 71.8554 176.449 71.8554 176.637C71.8589 176.872 71.767 177.068 71.5798 177.224C71.396 177.38 71.1446 177.458 70.8256 177.458ZM73.331 177.458C73.1126 177.458 72.9323 177.422 72.7901 177.349C72.648 177.276 72.5422 177.181 72.4729 177.063C72.4035 176.942 72.3688 176.81 72.3688 176.668C72.3688 176.418 72.4659 176.221 72.6601 176.075C72.8543 175.929 73.1316 175.857 73.4922 175.857H74.1683V175.81C74.1683 175.609 74.1129 175.458 74.0019 175.357C73.8944 175.257 73.754 175.206 73.5806 175.206C73.4281 175.206 73.2946 175.245 73.1802 175.321C73.0692 175.394 73.0016 175.503 72.9773 175.648H72.4261C72.4434 175.461 72.5058 175.302 72.6133 175.17C72.7242 175.035 72.8629 174.932 73.0294 174.863C73.1992 174.79 73.3847 174.754 73.5858 174.754C73.9464 174.754 74.2256 174.849 74.4232 175.04C74.6208 175.227 74.7196 175.484 74.7196 175.81V177.396H74.2412L74.1944 176.954C74.1215 177.096 74.0158 177.216 73.8771 177.313C73.7384 177.41 73.5564 177.458 73.331 177.458ZM73.4402 177.011C73.5893 177.011 73.7141 176.976 73.8147 176.907C73.9187 176.834 73.9985 176.739 74.0539 176.621C74.1129 176.503 74.1493 176.373 74.1631 176.231H73.5494C73.331 176.231 73.175 176.269 73.0814 176.345C72.9912 176.422 72.9461 176.517 72.9461 176.631C72.9461 176.749 72.9895 176.843 73.0762 176.912C73.1663 176.978 73.2877 177.011 73.4402 177.011ZM75.3624 177.396V173.651H75.9137V177.396H75.3624ZM77.8185 177.458C77.5654 177.458 77.34 177.403 77.1424 177.292C76.9482 177.178 76.7956 177.02 76.6847 176.819C76.5737 176.618 76.5183 176.384 76.5183 176.117C76.5183 175.846 76.572 175.609 76.6795 175.404C76.7904 175.199 76.943 175.04 77.1372 174.926C77.3348 174.811 77.5636 174.754 77.8237 174.754C78.0768 174.754 78.297 174.811 78.4842 174.926C78.6714 175.037 78.817 175.186 78.9211 175.373C79.0251 175.56 79.0771 175.766 79.0771 175.992C79.0771 176.026 79.0754 176.065 79.0719 176.106C79.0719 176.144 79.0702 176.188 79.0667 176.236H77.0591C77.0765 176.486 77.158 176.677 77.3036 176.808C77.4527 176.937 77.6243 177.001 77.8185 177.001C77.9745 177.001 78.1045 176.966 78.2085 176.897C78.316 176.824 78.3958 176.727 78.4478 176.605H78.9991C78.9297 176.848 78.791 177.051 78.583 177.214C78.3784 177.377 78.1236 177.458 77.8185 177.458ZM77.8185 175.206C77.6347 175.206 77.4717 175.262 77.3296 175.373C77.1874 175.48 77.1008 175.643 77.0695 175.862H78.5258C78.5154 175.661 78.4443 175.501 78.3126 175.383C78.1808 175.265 78.0161 175.206 77.8185 175.206Z" fill="white"/>
<path d="M61.8912 192.502V188.862H62.5413L63.774 191.285L65.0014 188.862H65.6515V192.502H65.1002V189.814L63.9872 191.982H63.5607L62.4425 189.819V192.502H61.8912ZM67.2442 192.565C67.0257 192.565 66.8454 192.528 66.7033 192.456C66.5611 192.383 66.4554 192.288 66.386 192.17C66.3167 192.048 66.282 191.917 66.282 191.774C66.282 191.525 66.3791 191.327 66.5732 191.181C66.7674 191.036 67.0448 190.963 67.4054 190.963H68.0815V190.916C68.0815 190.715 68.026 190.564 67.9151 190.464C67.8076 190.363 67.6672 190.313 67.4938 190.313C67.3412 190.313 67.2078 190.351 67.0933 190.427C66.9824 190.5 66.9148 190.609 66.8905 190.755H66.3392C66.3565 190.568 66.419 190.408 66.5264 190.277C66.6374 190.141 66.7761 190.039 66.9425 189.97C67.1124 189.897 67.2979 189.86 67.499 189.86C67.8596 189.86 68.1387 189.956 68.3363 190.146C68.534 190.334 68.6328 190.59 68.6328 190.916V192.502H68.1543L68.1075 192.06C68.0347 192.203 67.9289 192.322 67.7903 192.419C67.6516 192.516 67.4695 192.565 67.2442 192.565ZM67.3534 192.118C67.5025 192.118 67.6273 192.083 67.7278 192.014C67.8319 191.941 67.9116 191.845 67.9671 191.728C68.026 191.61 68.0624 191.48 68.0763 191.337H67.4626C67.2442 191.337 67.0881 191.376 66.9945 191.452C66.9044 191.528 66.8593 191.624 66.8593 191.738C66.8593 191.856 66.9026 191.949 66.9893 192.019C67.0795 192.085 67.2008 192.118 67.3534 192.118ZM69.2756 192.502V189.923H69.7697L69.8165 190.412C69.9066 190.242 70.0315 190.108 70.191 190.011C70.3539 189.911 70.5498 189.86 70.7787 189.86V190.438H70.6278C70.4753 190.438 70.3383 190.464 70.217 190.516C70.0991 190.564 70.0037 190.649 69.9309 190.771C69.8616 190.888 69.8269 191.053 69.8269 191.265V192.502H69.2756ZM71.2513 192.502V188.758H71.8026V190.989L72.7908 189.923H73.4513L72.3539 191.093L73.6125 192.502H72.9156L71.8026 191.181V192.502H71.2513ZM75.0482 192.565C74.7951 192.565 74.5697 192.509 74.3721 192.398C74.1779 192.284 74.0254 192.126 73.9144 191.925C73.8035 191.724 73.748 191.49 73.748 191.223C73.748 190.953 73.8017 190.715 73.9092 190.511C74.0202 190.306 74.1727 190.146 74.3669 190.032C74.5645 189.918 74.7934 189.86 75.0534 189.86C75.3065 189.86 75.5267 189.918 75.7139 190.032C75.9012 190.143 76.0468 190.292 76.1508 190.479C76.2548 190.667 76.3068 190.873 76.3068 191.098C76.3068 191.133 76.3051 191.171 76.3016 191.213C76.3016 191.251 76.2999 191.294 76.2964 191.343H74.2889C74.3062 191.592 74.3877 191.783 74.5333 191.915C74.6824 192.043 74.854 192.107 75.0482 192.107C75.2042 192.107 75.3343 192.073 75.4383 192.003C75.5458 191.93 75.6255 191.833 75.6775 191.712H76.2288C76.1595 191.955 76.0208 192.157 75.8127 192.32C75.6082 192.483 75.3533 192.565 75.0482 192.565ZM75.0482 190.313C74.8644 190.313 74.7015 190.368 74.5593 190.479C74.4172 190.587 74.3305 190.75 74.2993 190.968H75.7555C75.7451 190.767 75.674 190.608 75.5423 190.49C75.4105 190.372 75.2458 190.313 75.0482 190.313ZM77.8946 192.502C77.6415 192.502 77.4404 192.442 77.2913 192.32C77.1422 192.196 77.0677 191.975 77.0677 191.66V190.386H76.6256V189.923H77.0677L77.1353 189.268H77.6189V189.923H78.3471V190.386H77.6189V191.66C77.6189 191.802 77.6484 191.901 77.7074 191.956C77.7698 192.008 77.8755 192.034 78.0246 192.034H78.3211V192.502H77.8946ZM79.2276 189.434C79.1235 189.434 79.0369 189.403 78.9675 189.34C78.9016 189.274 78.8687 189.193 78.8687 189.096C78.8687 188.999 78.9016 188.919 78.9675 188.857C79.0369 188.791 79.1235 188.758 79.2276 188.758C79.3316 188.758 79.4165 188.791 79.4824 188.857C79.5518 188.919 79.5864 188.999 79.5864 189.096C79.5864 189.193 79.5518 189.274 79.4824 189.34C79.4165 189.403 79.3316 189.434 79.2276 189.434ZM78.9519 192.502V189.923H79.5032V192.502H78.9519ZM80.231 192.502V189.923H80.7199L80.7615 190.375C80.8412 190.216 80.9574 190.091 81.1099 190.001C81.2659 189.907 81.4445 189.86 81.6456 189.86C81.9577 189.86 82.2021 189.958 82.3789 190.152C82.5592 190.346 82.6494 190.635 82.6494 191.02V192.502H82.1033V191.077C82.1033 190.578 81.8987 190.329 81.4896 190.329C81.285 190.329 81.1151 190.401 80.9799 190.547C80.8481 190.693 80.7823 190.901 80.7823 191.171V192.502H80.231ZM84.3545 191.712C84.2192 191.712 84.0944 191.696 83.98 191.665L83.7564 191.884C83.7945 191.908 83.8413 191.929 83.8968 191.946C83.9523 191.963 84.0303 191.979 84.1308 191.993C84.2314 192.007 84.3683 192.021 84.5417 192.034C84.8849 192.066 85.1329 192.149 85.2854 192.284C85.438 192.416 85.5143 192.593 85.5143 192.815C85.5143 192.967 85.4726 193.111 85.3894 193.246C85.3097 193.385 85.1831 193.496 85.0098 193.579C84.8399 193.666 84.6214 193.709 84.3545 193.709C83.9939 193.709 83.7009 193.64 83.4755 193.501C83.2536 193.366 83.1427 193.16 83.1427 192.882C83.1427 192.775 83.1704 192.667 83.2259 192.56C83.2848 192.456 83.3767 192.357 83.5015 192.263C83.4287 192.232 83.3646 192.199 83.3091 192.164C83.2571 192.126 83.2103 192.088 83.1687 192.05V191.925L83.6159 191.468C83.4148 191.294 83.3143 191.067 83.3143 190.786C83.3143 190.616 83.3542 190.462 83.4339 190.323C83.5171 190.181 83.6367 190.068 83.7928 189.985C83.9488 189.902 84.136 189.86 84.3545 189.86C84.5001 189.86 84.6353 189.881 84.7601 189.923H85.7223V190.287L85.2646 190.313C85.3478 190.455 85.3894 190.613 85.3894 190.786C85.3894 190.96 85.3478 191.116 85.2646 191.254C85.1849 191.393 85.067 191.504 84.911 191.587C84.7584 191.67 84.5729 191.712 84.3545 191.712ZM84.3545 191.28C84.514 191.28 84.6422 191.239 84.7393 191.155C84.8399 191.069 84.8901 190.947 84.8901 190.791C84.8901 190.632 84.8399 190.511 84.7393 190.427C84.6422 190.344 84.514 190.303 84.3545 190.303C84.1915 190.303 84.0597 190.344 83.9592 190.427C83.8621 190.511 83.8136 190.632 83.8136 190.791C83.8136 190.947 83.8621 191.069 83.9592 191.155C84.0597 191.239 84.1915 191.28 84.3545 191.28ZM83.6627 192.83C83.6627 192.979 83.7286 193.09 83.8604 193.163C83.9921 193.239 84.1568 193.277 84.3545 193.277C84.5452 193.277 84.6995 193.236 84.8173 193.153C84.9352 193.073 84.9942 192.965 84.9942 192.83C84.9942 192.73 84.9543 192.643 84.8745 192.57C84.7948 192.501 84.644 192.457 84.4221 192.44C84.2556 192.43 84.1083 192.414 83.98 192.393C83.8586 192.459 83.7754 192.53 83.7304 192.607C83.6853 192.683 83.6627 192.757 83.6627 192.83Z" fill="white"/>
<path d="M111.314 177.364V173.723H111.866V176.927H113.52V177.364H111.314ZM114.404 174.295C114.3 174.295 114.214 174.264 114.144 174.202C114.078 174.136 114.045 174.054 114.045 173.957C114.045 173.86 114.078 173.78 114.144 173.718C114.214 173.652 114.3 173.619 114.404 173.619C114.508 173.619 114.593 173.652 114.659 173.718C114.728 173.78 114.763 173.86 114.763 173.957C114.763 174.054 114.728 174.136 114.659 174.202C114.593 174.264 114.508 174.295 114.404 174.295ZM114.129 177.364V174.784H114.68V177.364H114.129ZM117.488 178.508V176.963C117.405 177.085 117.29 177.192 117.145 177.286C116.999 177.379 116.812 177.426 116.583 177.426C116.333 177.426 116.113 177.367 115.923 177.249C115.732 177.131 115.583 176.97 115.475 176.766C115.368 176.561 115.314 176.329 115.314 176.069C115.314 175.809 115.368 175.578 115.475 175.377C115.583 175.172 115.732 175.013 115.923 174.899C116.117 174.781 116.339 174.722 116.588 174.722C116.793 174.722 116.971 174.762 117.124 174.841C117.28 174.921 117.401 175.034 117.488 175.179L117.545 174.784H118.039V178.508H117.488ZM116.682 176.948C116.918 176.948 117.11 176.866 117.259 176.703C117.412 176.54 117.488 176.331 117.488 176.074C117.488 175.814 117.412 175.604 117.259 175.445C117.11 175.282 116.918 175.2 116.682 175.2C116.446 175.2 116.252 175.282 116.099 175.445C115.947 175.604 115.871 175.814 115.871 176.074C115.871 176.244 115.905 176.395 115.975 176.526C116.044 176.658 116.139 176.762 116.261 176.838C116.385 176.911 116.526 176.948 116.682 176.948ZM119.686 177.426C119.374 177.426 119.128 177.329 118.948 177.135C118.771 176.941 118.682 176.651 118.682 176.266V174.784H119.234V176.209C119.234 176.708 119.438 176.958 119.847 176.958C120.052 176.958 120.22 176.885 120.352 176.74C120.484 176.594 120.549 176.386 120.549 176.116V174.784H121.101V177.364H120.612L120.57 176.911C120.491 177.071 120.373 177.197 120.217 177.291C120.064 177.381 119.887 177.426 119.686 177.426ZM122.114 174.295C122.01 174.295 121.923 174.264 121.854 174.202C121.788 174.136 121.755 174.054 121.755 173.957C121.755 173.86 121.788 173.78 121.854 173.718C121.923 173.652 122.01 173.619 122.114 173.619C122.218 173.619 122.303 173.652 122.369 173.718C122.438 173.78 122.473 173.86 122.473 173.957C122.473 174.054 122.438 174.136 122.369 174.202C122.303 174.264 122.218 174.295 122.114 174.295ZM121.838 177.364V174.784H122.39V177.364H121.838ZM124.293 177.426C124.043 177.426 123.823 177.367 123.632 177.249C123.442 177.131 123.293 176.97 123.185 176.766C123.078 176.561 123.024 176.329 123.024 176.069C123.024 175.809 123.078 175.578 123.185 175.377C123.293 175.172 123.442 175.013 123.632 174.899C123.827 174.781 124.048 174.722 124.298 174.722C124.503 174.722 124.681 174.762 124.834 174.841C124.99 174.921 125.111 175.034 125.198 175.179V173.619H125.749V177.364H125.255L125.198 176.963C125.115 177.085 125 177.192 124.855 177.286C124.709 177.379 124.522 177.426 124.293 177.426ZM124.392 176.948C124.628 176.948 124.82 176.866 124.969 176.703C125.122 176.54 125.198 176.331 125.198 176.074C125.198 175.814 125.122 175.604 124.969 175.445C124.82 175.282 124.628 175.2 124.392 175.2C124.156 175.2 123.962 175.282 123.809 175.445C123.657 175.604 123.58 175.814 123.58 176.074C123.58 176.244 123.615 176.395 123.684 176.526C123.754 176.658 123.849 176.762 123.97 176.838C124.095 176.911 124.236 176.948 124.392 176.948ZM126.756 174.295C126.652 174.295 126.566 174.264 126.496 174.202C126.43 174.136 126.397 174.054 126.397 173.957C126.397 173.86 126.43 173.78 126.496 173.718C126.566 173.652 126.652 173.619 126.756 173.619C126.86 173.619 126.945 173.652 127.011 173.718C127.081 173.78 127.115 173.86 127.115 173.957C127.115 174.054 127.081 174.136 127.011 174.202C126.945 174.264 126.86 174.295 126.756 174.295ZM126.481 177.364V174.784H127.032V177.364H126.481ZM128.842 177.364C128.588 177.364 128.387 177.303 128.238 177.182C128.089 177.057 128.015 176.837 128.015 176.521V175.247H127.572V174.784H128.015L128.082 174.129H128.566V174.784H129.294V175.247H128.566V176.521C128.566 176.663 128.595 176.762 128.654 176.818C128.717 176.87 128.822 176.896 128.972 176.896H129.268V177.364H128.842ZM130.164 178.508L130.783 177.151H130.632L129.613 174.784H130.211L131.001 176.693L131.828 174.784H132.411L130.747 178.508H130.164Z" fill="white"/>
<path d="M111.315 192.502V188.862H112.568C112.856 188.862 113.092 188.91 113.275 189.007C113.463 189.105 113.601 189.236 113.692 189.403C113.782 189.566 113.827 189.748 113.827 189.949C113.827 190.174 113.766 190.379 113.645 190.563C113.527 190.746 113.341 190.878 113.088 190.958L113.863 192.502H113.223L112.516 191.036H111.866V192.502H111.315ZM111.866 190.62H112.537C112.787 190.62 112.969 190.559 113.083 190.438C113.201 190.316 113.26 190.159 113.26 189.964C113.26 189.77 113.203 189.616 113.088 189.502C112.974 189.384 112.788 189.325 112.532 189.325H111.866V190.62ZM115.507 192.565C115.254 192.565 115.029 192.509 114.831 192.398C114.637 192.284 114.484 192.126 114.373 191.925C114.263 191.724 114.207 191.49 114.207 191.223C114.207 190.953 114.261 190.715 114.368 190.511C114.479 190.306 114.632 190.146 114.826 190.032C115.024 189.918 115.252 189.86 115.512 189.86C115.766 189.86 115.986 189.918 116.173 190.032C116.36 190.143 116.506 190.292 116.61 190.479C116.714 190.667 116.766 190.873 116.766 191.098C116.766 191.133 116.764 191.171 116.761 191.213C116.761 191.251 116.759 191.294 116.755 191.343H114.748C114.765 191.592 114.847 191.783 114.992 191.915C115.141 192.043 115.313 192.107 115.507 192.107C115.663 192.107 115.793 192.073 115.897 192.003C116.005 191.93 116.085 191.833 116.137 191.712H116.688C116.619 191.955 116.48 192.157 116.272 192.32C116.067 192.483 115.812 192.565 115.507 192.565ZM115.507 190.313C115.323 190.313 115.161 190.368 115.018 190.479C114.876 190.587 114.79 190.75 114.758 190.968H116.215C116.204 190.767 116.133 190.608 116.001 190.49C115.87 190.372 115.705 190.313 115.507 190.313ZM118.368 192.565C118.042 192.565 117.773 192.485 117.562 192.326C117.35 192.166 117.229 191.955 117.197 191.691H117.754C117.782 191.809 117.848 191.911 117.952 191.998C118.056 192.081 118.193 192.123 118.362 192.123C118.529 192.123 118.65 192.088 118.727 192.019C118.803 191.949 118.841 191.87 118.841 191.78C118.841 191.648 118.787 191.559 118.68 191.514C118.576 191.466 118.43 191.422 118.243 191.384C118.097 191.353 117.952 191.311 117.806 191.259C117.664 191.207 117.544 191.135 117.447 191.041C117.353 190.944 117.307 190.814 117.307 190.651C117.307 190.426 117.393 190.238 117.567 190.089C117.74 189.937 117.983 189.86 118.295 189.86C118.583 189.86 118.815 189.93 118.992 190.068C119.172 190.207 119.278 190.403 119.309 190.656H118.779C118.761 190.545 118.709 190.459 118.623 190.396C118.539 190.334 118.427 190.303 118.284 190.303C118.146 190.303 118.038 190.332 117.962 190.391C117.886 190.446 117.848 190.519 117.848 190.609C117.848 190.7 117.9 190.771 118.004 190.823C118.111 190.875 118.252 190.921 118.425 190.963C118.598 191.001 118.758 191.046 118.903 191.098C119.052 191.147 119.172 191.22 119.262 191.317C119.352 191.414 119.397 191.556 119.397 191.743C119.401 191.979 119.309 192.175 119.122 192.331C118.938 192.487 118.687 192.565 118.368 192.565ZM121.206 192.565C120.953 192.565 120.727 192.509 120.53 192.398C120.336 192.284 120.183 192.126 120.072 191.925C119.961 191.724 119.906 191.49 119.906 191.223C119.906 190.953 119.959 190.715 120.067 190.511C120.178 190.306 120.33 190.146 120.525 190.032C120.722 189.918 120.951 189.86 121.211 189.86C121.464 189.86 121.684 189.918 121.872 190.032C122.059 190.143 122.204 190.292 122.308 190.479C122.412 190.667 122.464 190.873 122.464 191.098C122.464 191.133 122.463 191.171 122.459 191.213C122.459 191.251 122.458 191.294 122.454 191.343H120.447C120.464 191.592 120.545 191.783 120.691 191.915C120.84 192.043 121.012 192.107 121.206 192.107C121.362 192.107 121.492 192.073 121.596 192.003C121.703 191.93 121.783 191.833 121.835 191.712H122.386C122.317 191.955 122.178 192.157 121.97 192.32C121.766 192.483 121.511 192.565 121.206 192.565ZM121.206 190.313C121.022 190.313 120.859 190.368 120.717 190.479C120.575 190.587 120.488 190.75 120.457 190.968H121.913C121.903 190.767 121.832 190.608 121.7 190.49C121.568 190.372 121.404 190.313 121.206 190.313ZM123.91 192.565C123.692 192.565 123.512 192.528 123.369 192.456C123.227 192.383 123.121 192.288 123.052 192.17C122.983 192.048 122.948 191.917 122.948 191.774C122.948 191.525 123.045 191.327 123.239 191.181C123.434 191.036 123.711 190.963 124.071 190.963H124.748V190.916C124.748 190.715 124.692 190.564 124.581 190.464C124.474 190.363 124.333 190.313 124.16 190.313C124.007 190.313 123.874 190.351 123.759 190.427C123.648 190.5 123.581 190.609 123.557 190.755H123.005C123.023 190.568 123.085 190.408 123.193 190.277C123.303 190.141 123.442 190.039 123.609 189.97C123.779 189.897 123.964 189.86 124.165 189.86C124.526 189.86 124.805 189.956 125.002 190.146C125.2 190.334 125.299 190.59 125.299 190.916V192.502H124.82L124.774 192.06C124.701 192.203 124.595 192.322 124.456 192.419C124.318 192.516 124.136 192.565 123.91 192.565ZM124.019 192.118C124.169 192.118 124.293 192.083 124.394 192.014C124.498 191.941 124.578 191.845 124.633 191.728C124.692 191.61 124.729 191.48 124.742 191.337H124.129C123.91 191.337 123.754 191.376 123.661 191.452C123.57 191.528 123.525 191.624 123.525 191.738C123.525 191.856 123.569 191.949 123.655 192.019C123.746 192.085 123.867 192.118 124.019 192.118ZM125.942 192.502V189.923H126.436L126.483 190.412C126.573 190.242 126.698 190.108 126.857 190.011C127.02 189.911 127.216 189.86 127.445 189.86V190.438H127.294C127.141 190.438 127.004 190.464 126.883 190.516C126.765 190.564 126.67 190.649 126.597 190.771C126.528 190.888 126.493 191.053 126.493 191.265V192.502H125.942ZM129.069 192.565C128.815 192.565 128.588 192.508 128.387 192.393C128.19 192.279 128.034 192.121 127.919 191.92C127.808 191.715 127.753 191.48 127.753 191.213C127.753 190.946 127.808 190.712 127.919 190.511C128.034 190.306 128.19 190.146 128.387 190.032C128.588 189.918 128.815 189.86 129.069 189.86C129.388 189.86 129.654 189.944 129.869 190.11C130.088 190.277 130.228 190.502 130.291 190.786H129.713C129.679 190.644 129.602 190.533 129.485 190.453C129.367 190.374 129.228 190.334 129.069 190.334C128.933 190.334 128.808 190.368 128.694 190.438C128.58 190.504 128.488 190.602 128.418 190.734C128.349 190.862 128.314 191.022 128.314 191.213C128.314 191.403 128.349 191.565 128.418 191.696C128.488 191.825 128.58 191.923 128.694 191.993C128.808 192.062 128.933 192.097 129.069 192.097C129.228 192.097 129.367 192.057 129.485 191.977C129.602 191.897 129.679 191.785 129.713 191.639H130.291C130.232 191.917 130.093 192.14 129.875 192.31C129.656 192.48 129.388 192.565 129.069 192.565ZM130.889 192.502V188.758H131.44V190.339C131.527 190.19 131.646 190.074 131.799 189.99C131.955 189.904 132.126 189.86 132.314 189.86C132.622 189.86 132.865 189.958 133.042 190.152C133.219 190.346 133.307 190.635 133.307 191.02V192.502H132.761V191.077C132.761 190.578 132.562 190.329 132.163 190.329C131.955 190.329 131.781 190.401 131.643 190.547C131.508 190.693 131.44 190.901 131.44 191.171V192.502H130.889ZM136.411 192.565C136.151 192.565 135.924 192.52 135.73 192.43C135.539 192.336 135.39 192.206 135.282 192.04C135.175 191.873 135.121 191.679 135.121 191.457C135.121 191.214 135.189 190.998 135.324 190.807C135.463 190.616 135.665 190.464 135.932 190.349C135.821 190.225 135.742 190.107 135.693 189.996C135.645 189.885 135.62 189.763 135.62 189.632C135.62 189.392 135.707 189.195 135.88 189.039C136.054 188.879 136.295 188.799 136.603 188.799C136.804 188.799 136.978 188.838 137.123 188.914C137.269 188.99 137.38 189.092 137.456 189.221C137.533 189.349 137.569 189.495 137.566 189.658H137.03C137.033 189.519 136.99 189.413 136.9 189.34C136.813 189.268 136.713 189.231 136.598 189.231C136.463 189.231 136.355 189.269 136.276 189.346C136.196 189.418 136.156 189.512 136.156 189.626C136.156 189.727 136.184 189.826 136.239 189.923C136.298 190.02 136.387 190.129 136.505 190.251L137.586 191.337C137.673 191.206 137.767 191.05 137.867 190.869L138.002 190.615H138.574L138.366 190.994C138.224 191.272 138.084 191.504 137.945 191.691L138.757 192.502H138.08L137.638 192.06C137.458 192.237 137.269 192.366 137.071 192.445C136.874 192.525 136.654 192.565 136.411 192.565ZM135.657 191.426C135.657 191.62 135.726 191.781 135.865 191.91C136.007 192.038 136.192 192.102 136.421 192.102C136.591 192.102 136.745 192.073 136.884 192.014C137.023 191.951 137.158 191.851 137.29 191.712L136.255 190.677C136.054 190.76 135.903 190.866 135.802 190.994C135.705 191.119 135.657 191.263 135.657 191.426ZM140.509 192.502V188.862H141.689C142.116 188.862 142.466 188.936 142.74 189.086C143.017 189.235 143.222 189.446 143.354 189.72C143.489 189.99 143.556 190.313 143.556 190.687C143.556 191.058 143.489 191.381 143.354 191.655C143.222 191.925 143.017 192.135 142.74 192.284C142.466 192.43 142.116 192.502 141.689 192.502H140.509ZM141.06 192.034H141.669C141.998 192.034 142.258 191.981 142.449 191.873C142.643 191.766 142.782 191.611 142.865 191.41C142.951 191.209 142.995 190.968 142.995 190.687C142.995 190.407 142.951 190.164 142.865 189.959C142.782 189.755 142.643 189.599 142.449 189.491C142.258 189.38 141.998 189.325 141.669 189.325H141.06V192.034ZM145.351 192.565C145.098 192.565 144.873 192.509 144.675 192.398C144.481 192.284 144.329 192.126 144.218 191.925C144.107 191.724 144.051 191.49 144.051 191.223C144.051 190.953 144.105 190.715 144.212 190.511C144.323 190.306 144.476 190.146 144.67 190.032C144.868 189.918 145.097 189.86 145.357 189.86C145.61 189.86 145.83 189.918 146.017 190.032C146.204 190.143 146.35 190.292 146.454 190.479C146.558 190.667 146.61 190.873 146.61 191.098C146.61 191.133 146.608 191.171 146.605 191.213C146.605 191.251 146.603 191.294 146.6 191.343H144.592C144.609 191.592 144.691 191.783 144.837 191.915C144.986 192.043 145.157 192.107 145.351 192.107C145.507 192.107 145.637 192.073 145.741 192.003C145.849 191.93 145.929 191.833 145.981 191.712H146.532C146.463 191.955 146.324 192.157 146.116 192.32C145.911 192.483 145.657 192.565 145.351 192.565ZM145.351 190.313C145.168 190.313 145.005 190.368 144.863 190.479C144.72 190.587 144.634 190.75 144.602 190.968H146.059C146.048 190.767 145.977 190.608 145.845 190.49C145.714 190.372 145.549 190.313 145.351 190.313ZM147.803 192.502L146.836 189.923H147.413L148.131 191.977L148.849 189.923H149.421L148.459 192.502H147.803ZM150.948 192.565C150.695 192.565 150.47 192.509 150.272 192.398C150.078 192.284 149.926 192.126 149.815 191.925C149.704 191.724 149.648 191.49 149.648 191.223C149.648 190.953 149.702 190.715 149.809 190.511C149.92 190.306 150.073 190.146 150.267 190.032C150.465 189.918 150.694 189.86 150.954 189.86C151.207 189.86 151.427 189.918 151.614 190.032C151.801 190.143 151.947 190.292 152.051 190.479C152.155 190.667 152.207 190.873 152.207 191.098C152.207 191.133 152.205 191.171 152.202 191.213C152.202 191.251 152.2 191.294 152.197 191.343H150.189C150.206 191.592 150.288 191.783 150.434 191.915C150.583 192.043 150.754 192.107 150.948 192.107C151.104 192.107 151.234 192.073 151.338 192.003C151.446 191.93 151.526 191.833 151.578 191.712H152.129C152.06 191.955 151.921 192.157 151.713 192.32C151.508 192.483 151.254 192.565 150.948 192.565ZM150.948 190.313C150.765 190.313 150.602 190.368 150.46 190.479C150.317 190.587 150.231 190.75 150.2 190.968H151.656C151.645 190.767 151.574 190.608 151.443 190.49C151.311 190.372 151.146 190.313 150.948 190.313ZM152.779 192.502V188.758H153.33V192.502H152.779ZM155.235 192.565C154.989 192.565 154.767 192.509 154.569 192.398C154.375 192.284 154.221 192.126 154.107 191.925C153.992 191.721 153.935 191.483 153.935 191.213C153.935 190.942 153.992 190.706 154.107 190.505C154.224 190.301 154.382 190.143 154.58 190.032C154.777 189.918 154.998 189.86 155.24 189.86C155.486 189.86 155.707 189.918 155.901 190.032C156.098 190.143 156.254 190.301 156.369 190.505C156.487 190.706 156.546 190.942 156.546 191.213C156.546 191.483 156.487 191.721 156.369 191.925C156.254 192.126 156.098 192.284 155.901 192.398C155.703 192.509 155.481 192.565 155.235 192.565ZM155.235 192.092C155.367 192.092 155.488 192.059 155.599 191.993C155.714 191.927 155.805 191.83 155.875 191.702C155.944 191.57 155.979 191.407 155.979 191.213C155.979 191.019 155.944 190.857 155.875 190.729C155.809 190.597 155.719 190.498 155.604 190.433C155.493 190.367 155.372 190.334 155.24 190.334C155.109 190.334 154.985 190.367 154.871 190.433C154.76 190.498 154.67 190.597 154.601 190.729C154.531 190.857 154.497 191.019 154.497 191.213C154.497 191.407 154.531 191.57 154.601 191.702C154.67 191.83 154.76 191.927 154.871 191.993C154.982 192.059 155.103 192.092 155.235 192.092ZM157.142 193.647V189.923H157.636L157.693 190.323C157.776 190.202 157.891 190.094 158.036 190.001C158.182 189.907 158.369 189.86 158.598 189.86C158.848 189.86 159.068 189.919 159.259 190.037C159.449 190.155 159.598 190.316 159.706 190.521C159.817 190.726 159.872 190.958 159.872 191.218C159.872 191.478 159.817 191.71 159.706 191.915C159.598 192.116 159.449 192.275 159.259 192.393C159.068 192.508 158.846 192.565 158.593 192.565C158.392 192.565 158.213 192.525 158.057 192.445C157.905 192.366 157.783 192.253 157.693 192.107V193.647H157.142ZM158.499 192.086C158.735 192.086 158.929 192.007 159.082 191.847C159.234 191.684 159.311 191.473 159.311 191.213C159.311 191.043 159.276 190.892 159.207 190.76C159.137 190.628 159.042 190.526 158.921 190.453C158.799 190.377 158.659 190.339 158.499 190.339C158.264 190.339 158.069 190.42 157.917 190.583C157.768 190.746 157.693 190.956 157.693 191.213C157.693 191.473 157.768 191.684 157.917 191.847C158.069 192.007 158.264 192.086 158.499 192.086ZM160.469 192.502V189.923H160.958L161.004 190.287C161.088 190.155 161.197 190.051 161.332 189.975C161.471 189.899 161.63 189.86 161.81 189.86C162.22 189.86 162.504 190.022 162.663 190.344C162.757 190.195 162.882 190.077 163.038 189.99C163.197 189.904 163.369 189.86 163.553 189.86C163.875 189.86 164.128 189.958 164.312 190.152C164.496 190.346 164.588 190.635 164.588 191.02V192.502H164.036V191.077C164.036 190.578 163.846 190.329 163.464 190.329C163.27 190.329 163.111 190.401 162.986 190.547C162.865 190.693 162.804 190.901 162.804 191.171V192.502H162.253V191.077C162.253 190.578 162.06 190.329 161.675 190.329C161.485 190.329 161.327 190.401 161.202 190.547C161.081 190.693 161.02 190.901 161.02 191.171V192.502H160.469ZM166.439 192.565C166.186 192.565 165.961 192.509 165.763 192.398C165.569 192.284 165.417 192.126 165.306 191.925C165.195 191.724 165.139 191.49 165.139 191.223C165.139 190.953 165.193 190.715 165.3 190.511C165.411 190.306 165.564 190.146 165.758 190.032C165.956 189.918 166.184 189.86 166.445 189.86C166.698 189.86 166.918 189.918 167.105 190.032C167.292 190.143 167.438 190.292 167.542 190.479C167.646 190.667 167.698 190.873 167.698 191.098C167.698 191.133 167.696 191.171 167.693 191.213C167.693 191.251 167.691 191.294 167.688 191.343H165.68C165.697 191.592 165.779 191.783 165.924 191.915C166.074 192.043 166.245 192.107 166.439 192.107C166.595 192.107 166.725 192.073 166.829 192.003C166.937 191.93 167.017 191.833 167.069 191.712H167.62C167.551 191.955 167.412 192.157 167.204 192.32C166.999 192.483 166.744 192.565 166.439 192.565ZM166.439 190.313C166.256 190.313 166.093 190.368 165.95 190.479C165.808 190.587 165.722 190.75 165.69 190.968H167.147C167.136 190.767 167.065 190.608 166.933 190.49C166.802 190.372 166.637 190.313 166.439 190.313ZM168.27 192.502V189.923H168.759L168.8 190.375C168.88 190.216 168.996 190.091 169.149 190.001C169.305 189.907 169.484 189.86 169.685 189.86C169.997 189.86 170.241 189.958 170.418 190.152C170.598 190.346 170.688 190.635 170.688 191.02V192.502H170.142V191.077C170.142 190.578 169.938 190.329 169.529 190.329C169.324 190.329 169.154 190.401 169.019 190.547C168.887 190.693 168.821 190.901 168.821 191.171V192.502H168.27ZM172.419 192.502C172.166 192.502 171.965 192.442 171.816 192.32C171.667 192.196 171.593 191.975 171.593 191.66V190.386H171.15V189.923H171.593L171.66 189.268H172.144V189.923H172.872V190.386H172.144V191.66C172.144 191.802 172.173 191.901 172.232 191.956C172.295 192.008 172.4 192.034 172.549 192.034H172.846V192.502H172.419Z" fill="white"/>
<path d="M160.7 177.364V174.17H159.624V173.723H162.323V174.17H161.252V177.364H160.7ZM163.557 177.426C163.304 177.426 163.079 177.371 162.881 177.26C162.687 177.145 162.535 176.988 162.424 176.786C162.313 176.585 162.257 176.351 162.257 176.084C162.257 175.814 162.311 175.576 162.418 175.372C162.529 175.167 162.682 175.008 162.876 174.893C163.074 174.779 163.303 174.722 163.563 174.722C163.816 174.722 164.036 174.779 164.223 174.893C164.41 175.004 164.556 175.153 164.66 175.341C164.764 175.528 164.816 175.734 164.816 175.96C164.816 175.994 164.814 176.032 164.811 176.074C164.811 176.112 164.809 176.155 164.806 176.204H162.798C162.815 176.454 162.897 176.644 163.042 176.776C163.192 176.904 163.363 176.969 163.557 176.969C163.713 176.969 163.843 176.934 163.947 176.864C164.055 176.792 164.135 176.695 164.187 176.573H164.738C164.669 176.816 164.53 177.019 164.322 177.182C164.117 177.345 163.862 177.426 163.557 177.426ZM163.557 175.174C163.374 175.174 163.211 175.23 163.068 175.341C162.926 175.448 162.84 175.611 162.808 175.83H164.265C164.254 175.628 164.183 175.469 164.051 175.351C163.92 175.233 163.755 175.174 163.557 175.174ZM166.262 177.426C166.043 177.426 165.863 177.39 165.721 177.317C165.579 177.244 165.473 177.149 165.404 177.031C165.334 176.91 165.3 176.778 165.3 176.636C165.3 176.386 165.397 176.188 165.591 176.043C165.785 175.897 166.062 175.824 166.423 175.824H167.099V175.778C167.099 175.576 167.044 175.426 166.933 175.325C166.825 175.224 166.685 175.174 166.511 175.174C166.359 175.174 166.225 175.212 166.111 175.289C166 175.361 165.932 175.471 165.908 175.616H165.357C165.374 175.429 165.437 175.27 165.544 175.138C165.655 175.003 165.794 174.9 165.96 174.831C166.13 174.758 166.315 174.722 166.517 174.722C166.877 174.722 167.156 174.817 167.354 175.008C167.552 175.195 167.65 175.452 167.65 175.778V177.364H167.172L167.125 176.922C167.052 177.064 166.947 177.183 166.808 177.281C166.669 177.378 166.487 177.426 166.262 177.426ZM166.371 176.979C166.52 176.979 166.645 176.944 166.745 176.875C166.849 176.802 166.929 176.707 166.985 176.589C167.044 176.471 167.08 176.341 167.094 176.199H166.48C166.262 176.199 166.106 176.237 166.012 176.313C165.922 176.389 165.877 176.485 165.877 176.599C165.877 176.717 165.92 176.811 166.007 176.88C166.097 176.946 166.218 176.979 166.371 176.979ZM168.293 177.364V174.784H168.782L168.829 175.148C168.912 175.016 169.021 174.912 169.157 174.836C169.295 174.76 169.455 174.722 169.635 174.722C170.044 174.722 170.328 174.883 170.488 175.205C170.582 175.056 170.706 174.938 170.862 174.852C171.022 174.765 171.194 174.722 171.377 174.722C171.7 174.722 171.953 174.819 172.137 175.013C172.32 175.207 172.412 175.497 172.412 175.882V177.364H171.861V175.939C171.861 175.439 171.67 175.19 171.289 175.19C171.095 175.19 170.935 175.263 170.81 175.408C170.689 175.554 170.628 175.762 170.628 176.032V177.364H170.077V175.939C170.077 175.439 169.885 175.19 169.5 175.19C169.309 175.19 169.151 175.263 169.026 175.408C168.905 175.554 168.844 175.762 168.844 176.032V177.364H168.293Z" fill="white"/>
<rect x="44.9557" y="172.916" width="8.84337" height="5.98101" fill="#0075FF"/>
<rect x="45.0549" y="187.502" width="8.84337" height="5.98101" fill="#FFEF9C"/>
<rect x="94.4781" y="172.884" width="8.84337" height="5.98101" fill="#6FE5FF"/>
<rect x="94.4781" y="187.502" width="8.84337" height="5.98101" fill="#CF2C84"/>
<rect x="143.011" y="172.884" width="8.84337" height="5.98101" fill="#FFC3E0"/>
</svg>
