<svg  width="367" height="66" viewBox="0 0 367 66" fill="none" xmlns="http://www.w3.org/2000/svg">
                        <g clip-path="url(#clip0_164_2931)">
                        <path d="M348.571 32.52L336.051 41.8865L305.169 65.04V46.2761L323.531 32.52L305.169 18.7639V0L336.051 23.1226L348.571 32.52Z" fill="white"/>
                        <path d="M348.322 32.4891L366.653 18.7639V0L335.803 23.1226L348.322 32.4891Z" fill="#54FF8E"/>
                        <path d="M348.292 32.52L366.654 46.276V65.04L335.803 41.9174L335.772 41.8865L348.292 32.52Z" fill="#54FF8E"/>
                        <path d="M12.736 40.1863C12.736 45.4414 17.0019 47.8526 33.1383 47.8526C46.5234 47.8526 50.542 46.3688 50.542 42.4738C50.542 38.5789 47.729 37.6515 31.6544 36.8787C10.0157 35.8895 1.4838 32.4891 1.4838 21.4224C1.4838 10.3557 12.6123 7.04807 31.1598 7.04807C49.7074 7.04807 61.1759 11.7159 61.1759 23.9881H48.44C48.44 18.5166 42.9684 17.1874 29.7379 17.1874C17.3729 17.1874 14.2816 18.393 14.2816 22.0716C14.2816 25.7502 17.3729 26.5848 31.7163 27.4503C51.253 28.5014 63.3707 29.5833 63.3707 42.1029C63.3707 55.3335 50.8202 58.0229 32.4582 58.0229C12.1177 57.9919 0 54.5297 0 40.1863H12.736Z" fill="white"/>
                        <path d="M111.841 42.3502H123.866C121.115 52.9841 110.79 57.992 95.3342 57.992C79.8779 57.992 67.1729 51.8095 67.1729 36.3532C67.1729 20.8969 79.136 14.7144 96.0452 14.7144C111.903 14.7144 124.577 20.155 124.577 39.1353H79.5688C80.898 45.7815 87.266 47.9763 95.3342 47.9763C103.402 47.9763 108.812 46.6162 111.841 42.3502ZM79.9706 31.5927H111.625C109.585 25.7193 103.619 24.0809 95.9833 24.0809C87.6988 24.0809 81.8872 25.7193 79.9706 31.5927Z" fill="white"/>
                        <path d="M173.914 16.2909V26.4302C170.425 25.4977 166.83 25.0198 163.218 25.0082C155.282 24.8472 147.531 27.4233 141.27 32.3036V57.2809H129.184V15.4562H141.27V22.6589C147.155 17.4467 154.804 14.6722 162.662 14.8998C166.457 14.8751 170.239 15.3427 173.914 16.2909Z" fill="white"/>
                        <path d="M236.049 15.4563L214.905 57.2809H197.625L176.511 15.4563H189.958L206.342 48.5945L222.571 15.4563H236.049Z" fill="white"/>
                        <path d="M290.362 36.2604V57.281H278.213V52.1186C270.342 56.0378 261.658 58.0499 252.865 57.992C241.18 57.992 233.885 54.2515 233.885 44.8232C233.885 34.0038 245.786 30.6034 259.017 30.6034C265.539 30.607 272.019 31.6506 278.213 33.6947C278.213 25.7811 268.012 25.1319 262.355 25.1319C255.345 25.1086 248.372 26.1509 241.675 28.2232L237.347 19.3513C245.529 16.5363 254.105 15.0339 262.757 14.8999C280.284 14.8999 290.207 20.4641 290.362 36.2604ZM278.213 41.0828C272.478 39.3172 266.501 38.4619 260.5 38.548C251.443 38.548 245.972 40.0936 245.972 44.3286C245.972 48.5636 250.021 49.0891 256.327 49.0891C263.85 48.8344 271.265 47.2216 278.213 44.3286V41.0828Z" fill="white"/>
                        </g>
                        <defs>
                        <clipPath id="clip0_164_2931">
                        <rect width="366.654" height="65.04" fill="white"/>
                        </clipPath>
                        </defs>
                        </svg>