<svg width="205" height="130" viewBox="0 0 355 611" fill="none" xmlns="http://www.w3.org/2000/svg">
<path d="M706.963 615.647C678.662 605.69 652.672 590.962 627.572 576.737C601.404 561.92 574.229 546.599 545.099 536.997C493.949 520.224 424.249 506.325 353.896 498.857C322.069 495.479 292.049 506.859 263.007 517.853C225.015 532.256 185.72 547.132 142.394 528.818C107.722 514.149 88.4889 484.07 69.908 454.968C51.8013 426.638 33.0722 397.359 0 381.86L1.27429 379.163C35.117 395.047 54.0831 424.682 72.3973 453.25C91.6005 483.299 109.707 511.66 143.52 525.943C185.75 543.724 222.763 529.796 262.059 514.979C291.397 503.836 321.772 492.338 354.311 495.805C424.841 503.273 494.779 517.231 546.106 534.063C575.741 543.754 602.827 559.134 629.083 574.04C654.095 588.206 679.936 602.845 708 612.743L706.963 615.647Z" fill="#54FF8E"/>
<path d="M688.352 550.985C666.512 542.094 650.124 530.477 634.24 519.216C612.666 503.895 592.277 489.404 559.975 482.558C497.907 470.033 434.759 463.631 371.44 463.444C350.311 463.444 329.329 464.748 309.03 466.111C250.383 469.993 194.966 473.668 137.149 444.478C119.368 435.587 103.632 418.933 88.3409 402.989C67.3892 381.001 45.7263 358.3 19.0552 355.041L19.4404 352.077C47.1488 355.455 69.1673 378.57 90.5635 400.915C105.677 416.769 121.324 433.157 138.571 441.87C195.766 470.734 250.768 467.089 309 463.207C329.359 461.844 350.488 460.243 371.618 460.54C435.147 460.715 498.504 467.137 560.776 479.713C593.67 486.707 614.296 501.347 636.136 516.875C651.872 528.047 668.142 539.575 689.656 548.288L688.352 550.985Z" fill="#54FF8E"/>
<path d="M674.721 484.959C665.504 478.854 657.444 473.105 649.65 467.504C617.911 444.834 594.974 428.475 544.832 427.083C523.051 426.49 501.477 430.342 480.614 434.047C461.322 437.484 441.348 441.04 421.197 441.07H420.663C334.249 441.07 237.403 404.649 162.635 372.91C150.749 367.508 139.156 361.484 127.903 354.863C98.2684 338.09 64.4554 319.064 33.0723 325.08L32.5093 322.117C65.1073 315.894 99.2464 335.186 129.444 352.226C140.594 358.768 152.089 364.703 163.879 370.006C305.296 430.076 375.411 437.958 420.604 437.958H421.285C441.17 437.958 461.025 434.402 480.199 430.965C501.18 427.231 522.873 423.349 545.01 423.971C596.07 425.393 619.304 441.989 651.457 464.956C659.222 470.497 667.282 476.246 676.439 482.321L674.721 484.959Z" fill="#54FF8E"/>
<path d="M467.041 419.763C441.348 419.763 407.298 405.153 379.53 393.092C369.247 388.676 359.527 384.527 351.199 381.475C296.998 361.679 242.677 339.424 190.165 317.879L168.295 308.989C163.257 306.914 158.041 304.662 152.736 302.351C117.501 287 77.5831 269.604 43.9478 293.312L42.229 290.882C77.2571 266.226 117.975 283.977 153.922 299.624C159.197 301.936 164.383 304.188 169.421 306.262L191.291 315.153C243.774 336.697 297.976 358.953 352.207 378.719C360.623 381.682 370.373 385.979 380.686 390.395C410.32 403.138 447.334 418.963 472.76 416.414C491.815 414.458 505.358 404.205 519.82 393.329C531.674 384.438 544.061 375.015 559.975 370.481C607.39 356.878 640.64 384.764 666.808 413.836L664.615 415.822C637.766 386.009 606.59 360.227 560.894 373.325C545.543 377.711 533.422 386.868 521.717 395.7C507.64 406.338 493.06 417.333 473.175 419.407C471.138 419.636 469.091 419.754 467.041 419.763Z" fill="#54FF8E"/>
<path d="M491.608 387.757C465.293 387.757 430.739 372.11 402.468 359.308C391.621 354.389 381.397 349.766 372.833 346.476C352.296 338.683 331.345 330.622 311.312 322.769C273.32 307.951 234.054 292.868 195.055 278.85C189.395 276.806 183.616 274.613 177.749 272.39C137.357 257.01 95.5421 241.125 57.0468 263.233L55.5947 260.655C95.3051 237.836 139.668 254.728 178.815 269.545C184.742 271.768 190.402 273.931 196.063 275.976C235.091 289.993 274.387 305.195 312.378 319.924C332.53 327.718 353.363 335.778 373.9 343.632C382.79 346.98 392.925 351.603 403.801 356.552C434.473 370.421 472.642 387.728 498.632 384.29C518.783 381.653 537.157 362.272 554.938 343.513C575.267 322.058 594.5 301.788 616.666 303.803C631.81 305.166 646.301 316.96 661.385 339.868L658.896 341.468C644.464 319.39 630.565 308.04 616.4 306.736C595.656 304.84 576.897 324.517 557.131 345.558C538.994 364.672 520.265 384.468 499.076 387.224C496.602 387.572 494.107 387.751 491.608 387.757Z" fill="#54FF8E"/>
<path d="M455.869 320.457C404.423 320.457 349.184 297.253 295.575 274.79C221.963 243.941 145.862 212.024 76.2795 237.51L75.3608 234.843C145.95 208.972 222.615 241.096 296.731 272.182C350.637 294.794 406.379 318.175 457.736 317.612C485.326 317.286 510.486 300.543 534.786 284.362C570.822 260.358 608.102 235.524 651.042 269.13L649.205 271.442C607.954 239.17 573.222 262.314 536.416 286.822C511.73 303.239 486.215 320.25 457.736 320.576L455.869 320.457Z" fill="#54FF8E"/>
<path d="M366.283 231.702C331.226 231.702 295.486 226.664 260.873 221.774C208.776 214.395 154.929 206.779 102.95 216.321L102.417 213.358C154.87 203.726 209.102 211.372 261.288 218.781C298.391 224.026 336.767 229.42 374.077 228.59C404.364 227.938 435.036 223.789 464.7 219.699C512.382 213.269 561.694 206.631 610.769 214.128L610.324 217.092C561.664 209.653 512.53 216.262 465.115 222.663C435.48 226.664 404.601 230.812 374.137 231.553C371.529 231.672 368.891 231.702 366.283 231.702Z" fill="#54FF8E"/>
<path d="M135.134 198.659L134.837 195.696C165.657 192.495 197.544 189.147 227.149 176.759C236.475 172.615 245.514 167.853 254.206 162.505C267.363 154.8 280.877 146.828 296.761 143.391C343.198 133.345 393.577 142.62 442.296 151.57C482.896 159.067 524.888 166.772 564.243 163.216L564.509 166.18C524.769 169.766 482.57 162.001 441.763 154.504C393.34 145.613 343.257 136.397 297.383 146.295C282.032 149.614 269.26 157.112 255.717 165.054C246.913 170.473 237.755 175.294 228.305 179.486C198.285 192.051 166.191 195.399 135.134 198.659Z" fill="#54FF8E"/>
<path d="M168.858 181.856L168.473 178.893C198.463 174.714 209.724 154.326 221.815 132.752C232.928 112.689 244.426 91.9448 272.194 85.3363C300.317 78.6981 333.893 83.6175 366.343 88.2997C381.605 90.552 395.977 92.656 409.106 93.4265C466.36 96.8049 516.027 93.4265 565.398 83.2619L565.991 86.2253C516.383 96.5974 466.448 99.8276 408.928 96.4493C395.681 95.6788 381.219 93.4858 365.898 91.2928C333.715 86.5809 300.406 81.7208 272.846 88.3294C246.441 94.5526 235.773 113.815 224.482 134.233C212.51 155.481 200.33 177.47 168.858 181.856Z" fill="#54FF8E"/>
<path d="M193.899 158.682L191.914 156.489C203.441 146.058 207.353 133.789 211.532 120.779C214.643 111 217.873 100.865 224.66 91.7374C242.737 67.4074 265.378 61.4804 295.368 55.7313C317.979 51.4047 340.146 47.5818 361.572 43.8775C440.992 30.127 515.997 17.2064 596.278 -17.4365L597.463 -14.7101C516.857 19.992 441.674 33.0016 362.075 46.7817C340.679 50.486 318.513 54.3385 295.931 58.6355C266.593 64.2365 244.485 70.0152 227.031 93.4858C220.57 102.198 217.399 112.096 214.347 121.639C210.346 134.5 206.109 147.717 193.899 158.682Z" fill="#54FF8E"/>
<path d="M474.39 574.989L471.427 574.425C474.241 556.776 475.825 538.952 476.168 521.083C477.65 487.003 479.132 451.768 496.735 423.793C503.019 414.171 510.033 405.046 517.716 396.499C534.282 377.267 547.351 362.064 538.016 330.325C525.273 286.97 483.577 255.113 443.185 224.322C407.623 197.177 370.877 169.113 353.125 132.929C331.759 89.2776 359.052 57.1537 385.546 26.067C389.339 21.6219 393.103 17.1767 396.748 12.7018L399.059 14.5688C395.384 19.0436 391.591 23.4592 387.798 27.9933C361.986 58.3391 335.285 89.7221 355.793 131.714C373.218 167.276 409.698 195.132 444.993 222.07C485.8 253.068 527.91 285.222 540.92 329.673C550.729 362.953 537.186 378.689 520.027 398.603C512.425 407.042 505.489 416.058 499.283 425.571C482.125 452.864 480.614 487.804 479.161 521.38C478.808 539.338 477.214 557.25 474.39 574.989Z" fill="#54FF8E"/>
<path d="M393.34 553.059H390.376C390.376 545.325 390.376 538.242 390.376 531.278C389.932 488.308 389.665 462.348 439.095 438.492C446.474 434.906 454.417 431.705 462.092 428.623C484.733 419.526 506.129 410.843 513.093 393.803C517.183 383.757 516.056 371.547 509.3 356.434C488.556 309.018 445.585 272.301 404.127 236.799C369.721 207.342 334.159 176.848 311.311 140.397C275.424 83.1138 301.591 63.3475 344.946 30.7494L349.392 27.4007L351.199 29.7715L346.665 33.3276C303.25 65.9257 279.335 83.9435 313.771 138.916C336.352 174.981 371.766 205.297 405.994 234.635C447.719 270.345 490.837 307.299 511.967 355.337C518.931 371.221 520.176 384.201 515.76 395.018C508.322 413.273 486.363 422.104 463.129 431.468C455.483 434.432 447.601 437.721 440.31 441.248C392.569 464.303 392.895 489.523 393.28 531.337C393.369 538.153 393.458 545.295 393.34 553.059Z" fill="#54FF8E"/>
<path d="M316.764 540.257L313.801 540.079C317.475 478.498 338.842 461.903 390.406 436.21C396.333 433.246 402.467 430.461 408.365 427.764C431.154 417.333 452.668 407.494 458.743 390.098C462.448 379.519 460.344 366.657 452.283 350.773C440.429 327.243 409.431 296.66 376.715 264.27C319.372 207.49 254.413 143.153 262.355 90.463C265.644 68.7113 281.44 50.3378 309.296 35.7872L310.689 38.4247C283.307 52.7086 268.46 69.867 265.289 90.9075C257.554 142.086 321.98 205.89 378.789 262.166C411.684 294.764 442.741 325.465 454.92 349.44C463.366 366.065 465.53 379.697 461.559 391.076C455.069 409.657 432.991 419.763 409.609 430.461C403.682 433.128 397.755 435.913 391.828 438.877C340.205 464.54 320.379 479.95 316.764 540.257Z" fill="#54FF8E"/>
<path d="M226.497 574.752L223.534 574.218C233.533 517.794 255.788 464.25 288.73 417.362C295.203 408.527 302.127 400.03 309.474 391.906C329.211 369.028 349.629 345.38 345.036 313.671C339.998 278.672 315.401 245.156 291.397 212.765C250.56 157.408 208.42 100.154 271.957 38.5433L274.001 40.677C212.273 100.509 251.864 154.178 293.768 211.017C317.89 243.615 342.813 277.517 347.969 313.226C352.77 346.299 331.878 370.48 311.697 393.862C304.496 401.928 297.711 410.355 291.367 419.111C258.606 465.614 236.461 518.747 226.497 574.752Z" fill="#54FF8E"/>
<path d="M140.557 594.962L137.593 594.666C139.46 576.678 141.001 558.245 142.483 540.435C146.721 489.849 151.107 437.543 163.227 387.55C172.118 350.299 186.935 328.992 204.212 304.336C211.472 293.905 219.029 283.118 226.556 270.315C246.886 236.028 241.225 198.866 235.239 159.512C229.49 121.935 223.593 83.0545 241.166 45.2111L243.863 46.4558C226.704 83.499 232.572 121.905 238.232 159.067C244.307 198.955 250.086 236.621 229.164 271.679C221.518 284.57 213.991 295.386 206.701 305.877C189.721 330.296 175.051 351.396 166.161 388.083C154.129 437.869 149.743 490.056 145.417 540.524C143.817 558.512 142.276 576.945 140.557 594.962Z" fill="#54FF8E"/>
<path d="M82.6511 525.825L79.6876 525.618C81.1693 505.822 80.4877 481.581 79.6876 455.917C77.465 377.119 74.6793 279.028 134.571 241.422C140.883 237.421 147.254 233.924 153.389 230.546C172.296 220.115 190.136 210.276 202.227 189.057C217.281 162.89 217.992 125.876 218.644 93.2488C218.881 81.8988 219.089 71.2007 219.859 61.3323L222.823 61.5694C222.082 71.3488 221.845 82.0173 221.637 93.3081C220.985 126.291 220.244 163.69 204.834 190.539C192.329 212.321 174.133 222.337 154.871 232.976C148.736 236.354 142.424 239.851 136.171 243.763C77.7317 280.48 80.4581 377.622 82.6807 455.68C83.4512 481.581 84.2513 505.881 82.6511 525.825Z" fill="#54FF8E"/>
<path d="M39.5328 443.678L36.5693 442.907C42.2888 421.333 44.4521 397.685 46.7636 372.673C51.2681 323.539 55.9503 272.716 89.6152 238.725C101.706 226.516 117.738 219.67 133.237 213.091C147.077 207.164 161.39 201.237 172.414 191.221C207.205 160.104 207.413 134.352 207.798 87.4997H210.761C210.406 133.522 210.169 161.319 174.4 193.325C162.991 203.519 148.47 209.713 134.393 215.699C119.161 222.189 103.395 228.886 91.7193 240.681C58.7953 273.931 54.1723 324.221 49.6974 372.822C47.623 396.974 45.3412 421.837 39.5328 443.678Z" fill="#54FF8E"/>
</svg>
