<svg width="1080" height="653" viewBox="0 0 1080 653" fill="none" xmlns="http://www.w3.org/2000/svg">
<rect width="1080" height="653" fill="#0E0E0E"/>
<path d="M261.721 130.395L261.721 438.764" stroke="#54FF8E" stroke-width="2.67682"/>
<path d="M262.786 437.694L869.155 437.694" stroke="#54FF8E" stroke-width="2.67682"/>
<rect x="289.735" y="338.895" width="82.0578" height="98.7017" fill="#0075FF"/>
<rect x="395.791" y="338.895" width="82.0578" height="98.7017" fill="#6FE5FF"/>
<rect x="501.073" y="389.706" width="82.832" height="47.8908" fill="#FFC3E0"/>
<rect x="607.585" y="400" width="81.3834" height="38" fill="#FFEF9C"/>
<rect x="712.41" y="417.739" width="82.832" height="19.8571" fill="#CF2C84"/>
<path d="M221.925 151.294V144.519L220.605 144.823V143.912L222.416 143.117H223.21V151.294H221.925ZM228.142 151.434C227.402 151.434 226.764 151.259 226.226 150.908C225.697 150.55 225.288 150.056 225 149.425C224.719 148.786 224.579 148.047 224.579 147.206C224.579 146.365 224.719 145.629 225 144.998C225.288 144.36 225.697 143.865 226.226 143.515C226.764 143.156 227.402 142.977 228.142 142.977C228.882 142.977 229.516 143.156 230.046 143.515C230.575 143.865 230.98 144.36 231.261 144.998C231.549 145.629 231.693 146.365 231.693 147.206C231.693 148.047 231.549 148.786 231.261 149.425C230.98 150.056 230.575 150.55 230.046 150.908C229.516 151.259 228.882 151.434 228.142 151.434ZM228.142 150.324C228.586 150.324 228.979 150.2 229.322 149.951C229.672 149.701 229.945 149.343 230.139 148.876C230.334 148.409 230.431 147.852 230.431 147.206C230.431 146.559 230.334 146.003 230.139 145.535C229.945 145.068 229.672 144.71 229.322 144.461C228.979 144.212 228.586 144.087 228.142 144.087C227.69 144.087 227.293 144.212 226.95 144.461C226.608 144.71 226.339 145.068 226.144 145.535C225.95 146.003 225.852 146.559 225.852 147.206C225.852 147.852 225.95 148.409 226.144 148.876C226.339 149.343 226.608 149.701 226.95 149.951C227.293 150.2 227.69 150.324 228.142 150.324ZM236.343 151.434C235.604 151.434 234.965 151.259 234.428 150.908C233.898 150.55 233.489 150.056 233.201 149.425C232.921 148.786 232.781 148.047 232.781 147.206C232.781 146.365 232.921 145.629 233.201 144.998C233.489 144.36 233.898 143.865 234.428 143.515C234.965 143.156 235.604 142.977 236.343 142.977C237.083 142.977 237.718 143.156 238.247 143.515C238.777 143.865 239.182 144.36 239.462 144.998C239.75 145.629 239.894 146.365 239.894 147.206C239.894 148.047 239.75 148.786 239.462 149.425C239.182 150.056 238.777 150.55 238.247 150.908C237.718 151.259 237.083 151.434 236.343 151.434ZM236.343 150.324C236.787 150.324 237.181 150.2 237.523 149.951C237.874 149.701 238.146 149.343 238.341 148.876C238.536 148.409 238.633 147.852 238.633 147.206C238.633 146.559 238.536 146.003 238.341 145.535C238.146 145.068 237.874 144.71 237.523 144.461C237.181 144.212 236.787 144.087 236.343 144.087C235.892 144.087 235.495 144.212 235.152 144.461C234.809 144.71 234.541 145.068 234.346 145.535C234.151 146.003 234.054 146.559 234.054 147.206C234.054 147.852 234.151 148.409 234.346 148.876C234.541 149.343 234.809 149.701 235.152 149.951C235.495 150.2 235.892 150.324 236.343 150.324ZM242.851 147.019C242.485 147.019 242.154 146.937 241.858 146.774C241.57 146.61 241.341 146.38 241.169 146.084C240.998 145.781 240.912 145.419 240.912 144.998C240.912 144.585 240.998 144.231 241.169 143.935C241.341 143.631 241.574 143.398 241.87 143.234C242.166 143.071 242.497 142.989 242.863 142.989C243.221 142.989 243.544 143.071 243.833 143.234C244.128 143.398 244.362 143.631 244.533 143.935C244.705 144.231 244.79 144.585 244.79 144.998C244.79 145.419 244.705 145.781 244.533 146.084C244.362 146.38 244.128 146.61 243.833 146.774C243.544 146.937 243.217 147.019 242.851 147.019ZM242.267 151.294L246.951 143.117H248.166L243.494 151.294H242.267ZM242.851 146.131C243.101 146.131 243.315 146.038 243.494 145.851C243.681 145.656 243.774 145.372 243.774 144.998C243.774 144.624 243.685 144.344 243.505 144.157C243.326 143.962 243.108 143.865 242.851 143.865C242.602 143.865 242.384 143.962 242.197 144.157C242.01 144.344 241.917 144.624 241.917 144.998C241.917 145.372 242.006 145.656 242.186 145.851C242.372 146.038 242.594 146.131 242.851 146.131ZM247.652 151.434C247.286 151.434 246.955 151.352 246.659 151.189C246.371 151.025 246.141 150.796 245.97 150.5C245.799 150.196 245.713 149.834 245.713 149.413C245.713 149.001 245.799 148.642 245.97 148.339C246.141 148.035 246.375 147.801 246.671 147.638C246.967 147.474 247.298 147.393 247.664 147.393C248.022 147.393 248.345 147.474 248.633 147.638C248.929 147.801 249.163 148.035 249.334 148.339C249.505 148.642 249.591 149.001 249.591 149.413C249.591 149.834 249.505 150.196 249.334 150.5C249.163 150.796 248.929 151.025 248.633 151.189C248.345 151.352 248.018 151.434 247.652 151.434ZM247.652 150.535C247.901 150.535 248.115 150.441 248.295 150.254C248.481 150.067 248.575 149.787 248.575 149.413C248.575 149.04 248.485 148.759 248.306 148.572C248.127 148.378 247.909 148.28 247.652 148.28C247.403 148.28 247.185 148.378 246.998 148.572C246.811 148.759 246.718 149.04 246.718 149.413C246.718 149.787 246.807 150.067 246.986 150.254C247.173 150.441 247.395 150.535 247.652 150.535Z" fill="white"/>
<path d="M227.876 208.485C227.331 208.485 226.836 208.388 226.392 208.193C225.956 207.99 225.606 207.71 225.341 207.352C225.084 206.994 224.956 206.573 224.956 206.09C224.956 205.6 225.092 205.16 225.365 204.77C225.645 204.381 226.015 204.116 226.474 203.976C226.061 203.813 225.742 203.575 225.516 203.264C225.291 202.944 225.178 202.594 225.178 202.212C225.178 201.815 225.283 201.453 225.493 201.126C225.703 200.791 226.007 200.526 226.404 200.332C226.809 200.129 227.3 200.028 227.876 200.028C228.452 200.028 228.939 200.129 229.336 200.332C229.741 200.526 230.048 200.791 230.259 201.126C230.469 201.453 230.574 201.815 230.574 202.212C230.574 202.586 230.457 202.937 230.224 203.264C229.998 203.583 229.679 203.82 229.266 203.976C229.725 204.124 230.091 204.393 230.364 204.782C230.644 205.164 230.784 205.6 230.784 206.09C230.784 206.573 230.656 206.994 230.399 207.352C230.142 207.71 229.792 207.99 229.348 208.193C228.912 208.388 228.421 208.485 227.876 208.485ZM227.876 203.579C228.328 203.579 228.682 203.462 228.939 203.229C229.204 202.995 229.336 202.695 229.336 202.329C229.336 201.916 229.207 201.601 228.951 201.383C228.694 201.165 228.335 201.056 227.876 201.056C227.416 201.056 227.058 201.165 226.801 201.383C226.544 201.601 226.416 201.916 226.416 202.329C226.416 202.695 226.544 202.995 226.801 203.229C227.058 203.462 227.416 203.579 227.876 203.579ZM227.876 207.434C228.437 207.434 228.857 207.301 229.137 207.036C229.418 206.764 229.558 206.417 229.558 205.997C229.558 205.53 229.406 205.171 229.102 204.922C228.806 204.665 228.398 204.537 227.876 204.537C227.354 204.537 226.941 204.665 226.638 204.922C226.334 205.171 226.182 205.53 226.182 205.997C226.182 206.417 226.322 206.764 226.603 207.036C226.891 207.301 227.315 207.434 227.876 207.434ZM235.598 208.485C234.858 208.485 234.22 208.31 233.683 207.959C233.153 207.601 232.744 207.107 232.456 206.476C232.176 205.837 232.036 205.097 232.036 204.256C232.036 203.415 232.176 202.68 232.456 202.049C232.744 201.41 233.153 200.916 233.683 200.565C234.22 200.207 234.858 200.028 235.598 200.028C236.338 200.028 236.973 200.207 237.502 200.565C238.032 200.916 238.437 201.41 238.717 202.049C239.005 202.68 239.149 203.415 239.149 204.256C239.149 205.097 239.005 205.837 238.717 206.476C238.437 207.107 238.032 207.601 237.502 207.959C236.973 208.31 236.338 208.485 235.598 208.485ZM235.598 207.375C236.042 207.375 236.435 207.251 236.778 207.001C237.128 206.752 237.401 206.394 237.596 205.927C237.79 205.46 237.888 204.903 237.888 204.256C237.888 203.61 237.79 203.053 237.596 202.586C237.401 202.119 237.128 201.761 236.778 201.512C236.435 201.262 236.042 201.138 235.598 201.138C235.147 201.138 234.749 201.262 234.407 201.512C234.064 201.761 233.795 202.119 233.601 202.586C233.406 203.053 233.309 203.61 233.309 204.256C233.309 204.903 233.406 205.46 233.601 205.927C233.795 206.394 234.064 206.752 234.407 207.001C234.749 207.251 235.147 207.375 235.598 207.375ZM242.106 204.07C241.74 204.07 241.409 203.988 241.113 203.824C240.825 203.661 240.595 203.431 240.424 203.135C240.253 202.831 240.167 202.469 240.167 202.049C240.167 201.636 240.253 201.282 240.424 200.986C240.595 200.682 240.829 200.449 241.125 200.285C241.421 200.122 241.752 200.04 242.118 200.04C242.476 200.04 242.799 200.122 243.087 200.285C243.383 200.449 243.617 200.682 243.788 200.986C243.959 201.282 244.045 201.636 244.045 202.049C244.045 202.469 243.959 202.831 243.788 203.135C243.617 203.431 243.383 203.661 243.087 203.824C242.799 203.988 242.472 204.07 242.106 204.07ZM241.522 208.345L246.206 200.168H247.421L242.748 208.345H241.522ZM242.106 203.182C242.355 203.182 242.569 203.088 242.748 202.902C242.935 202.707 243.029 202.423 243.029 202.049C243.029 201.675 242.939 201.395 242.76 201.208C242.581 201.013 242.363 200.916 242.106 200.916C241.857 200.916 241.639 201.013 241.452 201.208C241.265 201.395 241.172 201.675 241.172 202.049C241.172 202.423 241.261 202.707 241.44 202.902C241.627 203.088 241.849 203.182 242.106 203.182ZM246.907 208.485C246.541 208.485 246.21 208.403 245.914 208.24C245.626 208.076 245.396 207.846 245.225 207.55C245.053 207.247 244.968 206.885 244.968 206.464C244.968 206.051 245.053 205.693 245.225 205.39C245.396 205.086 245.63 204.852 245.926 204.689C246.222 204.525 246.552 204.443 246.918 204.443C247.277 204.443 247.6 204.525 247.888 204.689C248.184 204.852 248.418 205.086 248.589 205.39C248.76 205.693 248.846 206.051 248.846 206.464C248.846 206.885 248.76 207.247 248.589 207.55C248.418 207.846 248.184 208.076 247.888 208.24C247.6 208.403 247.273 208.485 246.907 208.485ZM246.907 207.585C247.156 207.585 247.37 207.492 247.549 207.305C247.736 207.118 247.83 206.838 247.83 206.464C247.83 206.09 247.74 205.81 247.561 205.623C247.382 205.428 247.164 205.331 246.907 205.331C246.658 205.331 246.44 205.428 246.253 205.623C246.066 205.81 245.972 206.09 245.972 206.464C245.972 206.838 246.062 207.118 246.241 207.305C246.428 207.492 246.65 207.585 246.907 207.585Z" fill="white"/>
<path d="M228.086 265.535C227.487 265.535 226.98 265.422 226.568 265.196C226.155 264.97 225.82 264.67 225.563 264.297C225.314 263.923 225.135 263.502 225.026 263.035C224.917 262.568 224.862 262.089 224.862 261.598C224.862 260.695 224.987 259.905 225.236 259.227C225.493 258.55 225.859 258.024 226.334 257.65C226.809 257.269 227.385 257.078 228.063 257.078C228.6 257.078 229.06 257.183 229.441 257.393C229.823 257.604 230.119 257.884 230.329 258.234C230.547 258.585 230.679 258.966 230.726 259.379H229.57C229.5 258.974 229.332 258.663 229.067 258.445C228.803 258.226 228.464 258.117 228.051 258.117C227.483 258.117 227.012 258.386 226.638 258.923C226.272 259.453 226.077 260.271 226.054 261.376C226.241 261.034 226.529 260.742 226.918 260.5C227.315 260.259 227.771 260.138 228.285 260.138C228.744 260.138 229.172 260.247 229.57 260.465C229.975 260.683 230.302 260.991 230.551 261.388C230.808 261.777 230.936 262.241 230.936 262.778C230.936 263.253 230.819 263.701 230.586 264.121C230.352 264.542 230.021 264.884 229.593 265.149C229.172 265.406 228.67 265.535 228.086 265.535ZM228.016 264.46C228.343 264.46 228.635 264.39 228.892 264.25C229.149 264.11 229.352 263.919 229.5 263.677C229.647 263.428 229.721 263.148 229.721 262.836C229.721 262.338 229.558 261.941 229.231 261.645C228.912 261.349 228.503 261.201 228.004 261.201C227.677 261.201 227.381 261.275 227.117 261.423C226.86 261.571 226.657 261.77 226.509 262.019C226.361 262.26 226.287 262.529 226.287 262.825C226.287 263.144 226.361 263.428 226.509 263.677C226.665 263.919 226.871 264.11 227.128 264.25C227.393 264.39 227.689 264.46 228.016 264.46ZM235.735 265.535C234.995 265.535 234.357 265.359 233.819 265.009C233.29 264.651 232.881 264.156 232.593 263.526C232.313 262.887 232.172 262.147 232.172 261.306C232.172 260.465 232.313 259.729 232.593 259.099C232.881 258.46 233.29 257.966 233.819 257.615C234.357 257.257 234.995 257.078 235.735 257.078C236.475 257.078 237.109 257.257 237.639 257.615C238.169 257.966 238.573 258.46 238.854 259.099C239.142 259.729 239.286 260.465 239.286 261.306C239.286 262.147 239.142 262.887 238.854 263.526C238.573 264.156 238.169 264.651 237.639 265.009C237.109 265.359 236.475 265.535 235.735 265.535ZM235.735 264.425C236.179 264.425 236.572 264.3 236.915 264.051C237.265 263.802 237.538 263.444 237.732 262.977C237.927 262.509 238.024 261.953 238.024 261.306C238.024 260.66 237.927 260.103 237.732 259.636C237.538 259.169 237.265 258.811 236.915 258.561C236.572 258.312 236.179 258.188 235.735 258.188C235.283 258.188 234.886 258.312 234.544 258.561C234.201 258.811 233.932 259.169 233.738 259.636C233.543 260.103 233.446 260.66 233.446 261.306C233.446 261.953 233.543 262.509 233.738 262.977C233.932 263.444 234.201 263.802 234.544 264.051C234.886 264.3 235.283 264.425 235.735 264.425ZM242.243 261.119C241.877 261.119 241.546 261.038 241.25 260.874C240.962 260.711 240.732 260.481 240.561 260.185C240.39 259.881 240.304 259.519 240.304 259.099C240.304 258.686 240.39 258.332 240.561 258.036C240.732 257.732 240.966 257.498 241.262 257.335C241.558 257.171 241.889 257.09 242.255 257.09C242.613 257.09 242.936 257.171 243.224 257.335C243.52 257.498 243.754 257.732 243.925 258.036C244.096 258.332 244.182 258.686 244.182 259.099C244.182 259.519 244.096 259.881 243.925 260.185C243.754 260.481 243.52 260.711 243.224 260.874C242.936 261.038 242.609 261.119 242.243 261.119ZM241.659 265.395L246.343 257.218H247.558L242.885 265.395H241.659ZM242.243 260.232C242.492 260.232 242.706 260.138 242.885 259.951C243.072 259.757 243.166 259.472 243.166 259.099C243.166 258.725 243.076 258.445 242.897 258.258C242.718 258.063 242.5 257.966 242.243 257.966C241.994 257.966 241.776 258.063 241.589 258.258C241.402 258.445 241.308 258.725 241.308 259.099C241.308 259.472 241.398 259.757 241.577 259.951C241.764 260.138 241.986 260.232 242.243 260.232ZM247.044 265.535C246.678 265.535 246.347 265.453 246.051 265.289C245.763 265.126 245.533 264.896 245.362 264.6C245.19 264.297 245.105 263.934 245.105 263.514C245.105 263.101 245.19 262.743 245.362 262.439C245.533 262.136 245.767 261.902 246.063 261.738C246.358 261.575 246.689 261.493 247.055 261.493C247.414 261.493 247.737 261.575 248.025 261.738C248.321 261.902 248.554 262.136 248.726 262.439C248.897 262.743 248.983 263.101 248.983 263.514C248.983 263.934 248.897 264.297 248.726 264.6C248.554 264.896 248.321 265.126 248.025 265.289C247.737 265.453 247.41 265.535 247.044 265.535ZM247.044 264.635C247.293 264.635 247.507 264.542 247.686 264.355C247.873 264.168 247.966 263.888 247.966 263.514C247.966 263.14 247.877 262.86 247.698 262.673C247.519 262.478 247.301 262.381 247.044 262.381C246.795 262.381 246.576 262.478 246.39 262.673C246.203 262.86 246.109 263.14 246.109 263.514C246.109 263.888 246.199 264.168 246.378 264.355C246.565 264.542 246.787 264.635 247.044 264.635Z" fill="white"/>
<path d="M228.81 322.445V320.81H224.71V319.829L228.612 314.269H230.037V319.735H231.182V320.81H230.037V322.445H228.81ZM226.054 319.735H228.88V315.635L226.054 319.735ZM235.632 322.585C234.893 322.585 234.254 322.41 233.717 322.06C233.187 321.702 232.778 321.207 232.49 320.576C232.21 319.938 232.07 319.198 232.07 318.357C232.07 317.516 232.21 316.78 232.49 316.149C232.778 315.511 233.187 315.016 233.717 314.666C234.254 314.308 234.893 314.129 235.632 314.129C236.372 314.129 237.007 314.308 237.536 314.666C238.066 315.016 238.471 315.511 238.751 316.149C239.039 316.78 239.183 317.516 239.183 318.357C239.183 319.198 239.039 319.938 238.751 320.576C238.471 321.207 238.066 321.702 237.536 322.06C237.007 322.41 236.372 322.585 235.632 322.585ZM235.632 321.476C236.076 321.476 236.47 321.351 236.812 321.102C237.163 320.853 237.435 320.495 237.63 320.027C237.824 319.56 237.922 319.003 237.922 318.357C237.922 317.711 237.824 317.154 237.63 316.687C237.435 316.22 237.163 315.861 236.812 315.612C236.47 315.363 236.076 315.238 235.632 315.238C235.181 315.238 234.784 315.363 234.441 315.612C234.098 315.861 233.83 316.22 233.635 316.687C233.44 317.154 233.343 317.711 233.343 318.357C233.343 319.003 233.44 319.56 233.635 320.027C233.83 320.495 234.098 320.853 234.441 321.102C234.784 321.351 235.181 321.476 235.632 321.476ZM242.14 318.17C241.774 318.17 241.443 318.088 241.147 317.925C240.859 317.761 240.63 317.532 240.458 317.236C240.287 316.932 240.201 316.57 240.201 316.149C240.201 315.737 240.287 315.382 240.458 315.086C240.63 314.783 240.863 314.549 241.159 314.386C241.455 314.222 241.786 314.14 242.152 314.14C242.51 314.14 242.833 314.222 243.121 314.386C243.417 314.549 243.651 314.783 243.822 315.086C243.994 315.382 244.079 315.737 244.079 316.149C244.079 316.57 243.994 316.932 243.822 317.236C243.651 317.532 243.417 317.761 243.121 317.925C242.833 318.088 242.506 318.17 242.14 318.17ZM241.556 322.445L246.24 314.269H247.455L242.783 322.445H241.556ZM242.14 317.282C242.389 317.282 242.604 317.189 242.783 317.002C242.97 316.807 243.063 316.523 243.063 316.149C243.063 315.776 242.973 315.495 242.794 315.308C242.615 315.114 242.397 315.016 242.14 315.016C241.891 315.016 241.673 315.114 241.486 315.308C241.299 315.495 241.206 315.776 241.206 316.149C241.206 316.523 241.295 316.807 241.474 317.002C241.661 317.189 241.883 317.282 242.14 317.282ZM246.941 322.585C246.575 322.585 246.244 322.504 245.948 322.34C245.66 322.177 245.43 321.947 245.259 321.651C245.088 321.347 245.002 320.985 245.002 320.565C245.002 320.152 245.088 319.794 245.259 319.49C245.43 319.186 245.664 318.953 245.96 318.789C246.256 318.626 246.587 318.544 246.953 318.544C247.311 318.544 247.634 318.626 247.922 318.789C248.218 318.953 248.452 319.186 248.623 319.49C248.794 319.794 248.88 320.152 248.88 320.565C248.88 320.985 248.794 321.347 248.623 321.651C248.452 321.947 248.218 322.177 247.922 322.34C247.634 322.504 247.307 322.585 246.941 322.585ZM246.941 321.686C247.19 321.686 247.404 321.593 247.583 321.406C247.77 321.219 247.864 320.939 247.864 320.565C247.864 320.191 247.774 319.911 247.595 319.724C247.416 319.529 247.198 319.432 246.941 319.432C246.692 319.432 246.474 319.529 246.287 319.724C246.1 319.911 246.007 320.191 246.007 320.565C246.007 320.939 246.096 321.219 246.275 321.406C246.462 321.593 246.684 321.686 246.941 321.686Z" fill="white"/>
<path d="M225.921 379.495V378.607C226.45 378.187 226.956 377.762 227.439 377.334C227.922 376.906 228.35 376.485 228.724 376.073C229.106 375.652 229.405 375.243 229.623 374.846C229.841 374.441 229.951 374.052 229.951 373.678C229.951 373.429 229.908 373.195 229.822 372.977C229.736 372.751 229.596 372.572 229.402 372.44C229.207 372.3 228.946 372.23 228.619 372.23C228.128 372.23 227.758 372.385 227.509 372.697C227.268 373.008 227.151 373.382 227.159 373.818H225.956C225.964 373.242 226.084 372.759 226.318 372.37C226.559 371.981 226.878 371.685 227.276 371.482C227.681 371.28 228.136 371.178 228.642 371.178C229.413 371.178 230.028 371.397 230.488 371.833C230.955 372.261 231.189 372.86 231.189 373.631C231.189 374.091 231.076 374.546 230.85 374.998C230.632 375.45 230.344 375.886 229.986 376.306C229.635 376.719 229.257 377.108 228.853 377.474C228.448 377.84 228.062 378.171 227.696 378.467H231.434V379.495H225.921ZM235.948 379.635C235.208 379.635 234.57 379.46 234.032 379.11C233.503 378.751 233.094 378.257 232.806 377.626C232.526 376.988 232.385 376.248 232.385 375.407C232.385 374.566 232.526 373.83 232.806 373.199C233.094 372.561 233.503 372.066 234.032 371.716C234.57 371.358 235.208 371.178 235.948 371.178C236.688 371.178 237.322 371.358 237.852 371.716C238.381 372.066 238.786 372.561 239.067 373.199C239.355 373.83 239.499 374.566 239.499 375.407C239.499 376.248 239.355 376.988 239.067 377.626C238.786 378.257 238.381 378.751 237.852 379.11C237.322 379.46 236.688 379.635 235.948 379.635ZM235.948 378.526C236.392 378.526 236.785 378.401 237.128 378.152C237.478 377.903 237.751 377.544 237.945 377.077C238.14 376.61 238.237 376.053 238.237 375.407C238.237 374.761 238.14 374.204 237.945 373.737C237.751 373.269 237.478 372.911 237.128 372.662C236.785 372.413 236.392 372.288 235.948 372.288C235.496 372.288 235.099 372.413 234.757 372.662C234.414 372.911 234.145 373.269 233.951 373.737C233.756 374.204 233.659 374.761 233.659 375.407C233.659 376.053 233.756 376.61 233.951 377.077C234.145 377.544 234.414 377.903 234.757 378.152C235.099 378.401 235.496 378.526 235.948 378.526ZM242.456 375.22C242.09 375.22 241.759 375.138 241.463 374.975C241.175 374.811 240.945 374.581 240.774 374.286C240.603 373.982 240.517 373.62 240.517 373.199C240.517 372.787 240.603 372.432 240.774 372.136C240.945 371.833 241.179 371.599 241.475 371.435C241.771 371.272 242.102 371.19 242.468 371.19C242.826 371.19 243.149 371.272 243.437 371.435C243.733 371.599 243.967 371.833 244.138 372.136C244.309 372.432 244.395 372.787 244.395 373.199C244.395 373.62 244.309 373.982 244.138 374.286C243.967 374.581 243.733 374.811 243.437 374.975C243.149 375.138 242.822 375.22 242.456 375.22ZM241.872 379.495L246.556 371.319H247.771L243.098 379.495H241.872ZM242.456 374.332C242.705 374.332 242.919 374.239 243.098 374.052C243.285 373.857 243.379 373.573 243.379 373.199C243.379 372.825 243.289 372.545 243.11 372.358C242.931 372.164 242.713 372.066 242.456 372.066C242.207 372.066 241.989 372.164 241.802 372.358C241.615 372.545 241.521 372.825 241.521 373.199C241.521 373.573 241.611 373.857 241.79 374.052C241.977 374.239 242.199 374.332 242.456 374.332ZM247.257 379.635C246.891 379.635 246.56 379.554 246.264 379.39C245.976 379.226 245.746 378.997 245.575 378.701C245.403 378.397 245.318 378.035 245.318 377.615C245.318 377.202 245.403 376.844 245.575 376.54C245.746 376.236 245.98 376.003 246.275 375.839C246.571 375.676 246.902 375.594 247.268 375.594C247.627 375.594 247.95 375.676 248.238 375.839C248.534 376.003 248.767 376.236 248.939 376.54C249.11 376.844 249.196 377.202 249.196 377.615C249.196 378.035 249.11 378.397 248.939 378.701C248.767 378.997 248.534 379.226 248.238 379.39C247.95 379.554 247.623 379.635 247.257 379.635ZM247.257 378.736C247.506 378.736 247.72 378.642 247.899 378.456C248.086 378.269 248.179 377.988 248.179 377.615C248.179 377.241 248.09 376.96 247.911 376.774C247.732 376.579 247.514 376.482 247.257 376.482C247.007 376.482 246.789 376.579 246.602 376.774C246.416 376.96 246.322 377.241 246.322 377.615C246.322 377.988 246.412 378.269 246.591 378.456C246.778 378.642 247 378.736 247.257 378.736Z" fill="white"/>
<path d="M245.355 436.686C244.615 436.686 243.976 436.511 243.439 436.16C242.91 435.802 242.501 435.308 242.213 434.677C241.932 434.038 241.792 433.299 241.792 432.458C241.792 431.617 241.932 430.881 242.213 430.25C242.501 429.611 242.91 429.117 243.439 428.767C243.976 428.408 244.615 428.229 245.355 428.229C246.095 428.229 246.729 428.408 247.259 428.767C247.788 429.117 248.193 429.611 248.474 430.25C248.762 430.881 248.906 431.617 248.906 432.458C248.906 433.299 248.762 434.038 248.474 434.677C248.193 435.308 247.788 435.802 247.259 436.16C246.729 436.511 246.095 436.686 245.355 436.686ZM245.355 435.576C245.799 435.576 246.192 435.452 246.535 435.203C246.885 434.953 247.158 434.595 247.352 434.128C247.547 433.661 247.644 433.104 247.644 432.458C247.644 431.811 247.547 431.255 247.352 430.787C247.158 430.32 246.885 429.962 246.535 429.713C246.192 429.464 245.799 429.339 245.355 429.339C244.903 429.339 244.506 429.464 244.163 429.713C243.821 429.962 243.552 430.32 243.357 430.787C243.163 431.255 243.065 431.811 243.065 432.458C243.065 433.104 243.163 433.661 243.357 434.128C243.552 434.595 243.821 434.953 244.163 435.203C244.506 435.452 244.903 435.576 245.355 435.576Z" fill="white"/>
<path d="M317.954 329.009C317.424 329.009 316.941 328.916 316.505 328.729C316.077 328.534 315.734 328.242 315.477 327.853C315.22 327.464 315.084 326.977 315.068 326.393H316.295C316.311 326.829 316.458 327.199 316.739 327.503C317.027 327.798 317.432 327.946 317.954 327.946C318.452 327.946 318.834 327.81 319.098 327.538C319.363 327.257 319.495 326.911 319.495 326.498C319.495 326 319.316 325.63 318.958 325.388C318.608 325.147 318.176 325.026 317.662 325.026H317.054V323.998H317.673C318.133 323.998 318.503 323.889 318.783 323.671C319.071 323.453 319.215 323.146 319.215 322.748C319.215 322.414 319.102 322.141 318.876 321.931C318.658 321.721 318.347 321.615 317.942 321.615C317.521 321.615 317.19 321.74 316.949 321.989C316.708 322.231 316.575 322.534 316.552 322.9H315.325C315.341 322.425 315.458 322.013 315.676 321.662C315.902 321.312 316.209 321.039 316.599 320.845C316.988 320.65 317.436 320.553 317.942 320.553C318.487 320.553 318.943 320.65 319.309 320.845C319.682 321.031 319.963 321.288 320.15 321.615C320.344 321.935 320.442 322.285 320.442 322.667C320.442 323.103 320.321 323.484 320.079 323.811C319.838 324.138 319.515 324.357 319.11 324.466C319.577 324.567 319.963 324.796 320.266 325.155C320.57 325.505 320.722 325.961 320.722 326.521C320.722 326.973 320.617 327.39 320.407 327.771C320.196 328.145 319.885 328.445 319.472 328.671C319.059 328.896 318.553 329.009 317.954 329.009ZM325.1 329.009C324.524 329.009 324.025 328.908 323.605 328.706C323.184 328.495 322.849 328.211 322.6 327.853C322.359 327.487 322.211 327.074 322.156 326.615H323.371C323.449 327.004 323.644 327.327 323.955 327.584C324.267 327.833 324.652 327.958 325.111 327.958C325.454 327.958 325.75 327.876 325.999 327.713C326.248 327.541 326.443 327.316 326.583 327.035C326.723 326.755 326.794 326.44 326.794 326.089C326.794 325.536 326.638 325.096 326.326 324.769C326.015 324.434 325.622 324.267 325.147 324.267C324.742 324.267 324.395 324.364 324.107 324.559C323.819 324.746 323.609 324.983 323.476 325.271H322.296L322.997 320.693H327.413V321.779H323.932L323.511 323.963C323.69 323.761 323.936 323.593 324.247 323.461C324.566 323.321 324.925 323.251 325.322 323.251C325.875 323.251 326.35 323.379 326.747 323.636C327.144 323.885 327.448 324.224 327.658 324.652C327.876 325.081 327.985 325.556 327.985 326.077C327.985 326.623 327.868 327.117 327.635 327.561C327.401 328.005 327.066 328.359 326.63 328.624C326.202 328.881 325.692 329.009 325.1 329.009ZM331.024 324.594C330.658 324.594 330.327 324.512 330.032 324.349C329.743 324.185 329.514 323.955 329.342 323.66C329.171 323.356 329.085 322.994 329.085 322.573C329.085 322.161 329.171 321.806 329.342 321.51C329.514 321.207 329.747 320.973 330.043 320.809C330.339 320.646 330.67 320.564 331.036 320.564C331.394 320.564 331.717 320.646 332.006 320.809C332.301 320.973 332.535 321.207 332.706 321.51C332.878 321.806 332.963 322.161 332.963 322.573C332.963 322.994 332.878 323.356 332.706 323.66C332.535 323.955 332.301 324.185 332.006 324.349C331.717 324.512 331.39 324.594 331.024 324.594ZM330.44 328.869L335.124 320.693H336.339L331.667 328.869H330.44ZM331.024 323.706C331.274 323.706 331.488 323.613 331.667 323.426C331.854 323.231 331.947 322.947 331.947 322.573C331.947 322.199 331.858 321.919 331.678 321.732C331.499 321.538 331.281 321.44 331.024 321.44C330.775 321.44 330.557 321.538 330.37 321.732C330.183 321.919 330.09 322.199 330.09 322.573C330.09 322.947 330.179 323.231 330.359 323.426C330.545 323.613 330.767 323.706 331.024 323.706ZM335.825 329.009C335.459 329.009 335.128 328.928 334.832 328.764C334.544 328.6 334.314 328.371 334.143 328.075C333.972 327.771 333.886 327.409 333.886 326.989C333.886 326.576 333.972 326.218 334.143 325.914C334.314 325.61 334.548 325.377 334.844 325.213C335.14 325.05 335.471 324.968 335.837 324.968C336.195 324.968 336.518 325.05 336.806 325.213C337.102 325.377 337.336 325.61 337.507 325.914C337.678 326.218 337.764 326.576 337.764 326.989C337.764 327.409 337.678 327.771 337.507 328.075C337.336 328.371 337.102 328.6 336.806 328.764C336.518 328.928 336.191 329.009 335.825 329.009ZM335.825 328.11C336.074 328.11 336.288 328.016 336.468 327.83C336.654 327.643 336.748 327.362 336.748 326.989C336.748 326.615 336.658 326.334 336.479 326.148C336.3 325.953 336.082 325.856 335.825 325.856C335.576 325.856 335.358 325.953 335.171 326.148C334.984 326.334 334.891 326.615 334.891 326.989C334.891 327.362 334.98 327.643 335.159 327.83C335.346 328.016 335.568 328.11 335.825 328.11Z" fill="white"/>
<path d="M426.332 329.009C425.802 329.009 425.319 328.916 424.883 328.729C424.455 328.534 424.112 328.242 423.855 327.853C423.598 327.464 423.462 326.977 423.446 326.393H424.673C424.688 326.829 424.836 327.199 425.117 327.503C425.405 327.798 425.81 327.946 426.332 327.946C426.83 327.946 427.211 327.81 427.476 327.538C427.741 327.257 427.873 326.911 427.873 326.498C427.873 326 427.694 325.63 427.336 325.388C426.986 325.147 426.553 325.026 426.04 325.026H425.432V323.998H426.051C426.511 323.998 426.881 323.889 427.161 323.671C427.449 323.453 427.593 323.146 427.593 322.748C427.593 322.414 427.48 322.141 427.254 321.931C427.036 321.721 426.725 321.615 426.32 321.615C425.899 321.615 425.568 321.74 425.327 321.989C425.086 322.231 424.953 322.534 424.93 322.9H423.703C423.719 322.425 423.836 322.013 424.054 321.662C424.28 321.312 424.587 321.039 424.977 320.845C425.366 320.65 425.814 320.553 426.32 320.553C426.865 320.553 427.321 320.65 427.686 320.845C428.06 321.031 428.341 321.288 428.528 321.615C428.722 321.935 428.82 322.285 428.82 322.667C428.82 323.103 428.699 323.484 428.457 323.811C428.216 324.138 427.893 324.357 427.488 324.466C427.955 324.567 428.341 324.796 428.644 325.155C428.948 325.505 429.1 325.961 429.1 326.521C429.1 326.973 428.995 327.39 428.784 327.771C428.574 328.145 428.263 328.445 427.85 328.671C427.437 328.896 426.931 329.009 426.332 329.009ZM433.478 329.009C432.901 329.009 432.403 328.908 431.983 328.706C431.562 328.495 431.227 328.211 430.978 327.853C430.737 327.487 430.589 327.074 430.534 326.615H431.749C431.827 327.004 432.022 327.327 432.333 327.584C432.645 327.833 433.03 327.958 433.489 327.958C433.832 327.958 434.128 327.876 434.377 327.713C434.626 327.541 434.821 327.316 434.961 327.035C435.101 326.755 435.171 326.44 435.171 326.089C435.171 325.536 435.016 325.096 434.704 324.769C434.393 324.434 433.999 324.267 433.524 324.267C433.12 324.267 432.773 324.364 432.485 324.559C432.197 324.746 431.987 324.983 431.854 325.271H430.674L431.375 320.693H435.791V321.779H432.31L431.889 323.963C432.068 323.761 432.314 323.593 432.625 323.461C432.944 323.321 433.303 323.251 433.7 323.251C434.253 323.251 434.728 323.379 435.125 323.636C435.522 323.885 435.826 324.224 436.036 324.652C436.254 325.081 436.363 325.556 436.363 326.077C436.363 326.623 436.246 327.117 436.012 327.561C435.779 328.005 435.444 328.359 435.008 328.624C434.58 328.881 434.07 329.009 433.478 329.009ZM439.402 324.594C439.036 324.594 438.705 324.512 438.409 324.349C438.121 324.185 437.892 323.955 437.72 323.66C437.549 323.356 437.463 322.994 437.463 322.573C437.463 322.161 437.549 321.806 437.72 321.51C437.892 321.207 438.125 320.973 438.421 320.809C438.717 320.646 439.048 320.564 439.414 320.564C439.772 320.564 440.095 320.646 440.383 320.809C440.679 320.973 440.913 321.207 441.084 321.51C441.256 321.806 441.341 322.161 441.341 322.573C441.341 322.994 441.256 323.356 441.084 323.66C440.913 323.955 440.679 324.185 440.383 324.349C440.095 324.512 439.768 324.594 439.402 324.594ZM438.818 328.869L443.502 320.693H444.717L440.045 328.869H438.818ZM439.402 323.706C439.651 323.706 439.866 323.613 440.045 323.426C440.232 323.231 440.325 322.947 440.325 322.573C440.325 322.199 440.236 321.919 440.056 321.732C439.877 321.538 439.659 321.44 439.402 321.44C439.153 321.44 438.935 321.538 438.748 321.732C438.561 321.919 438.468 322.199 438.468 322.573C438.468 322.947 438.557 323.231 438.737 323.426C438.923 323.613 439.145 323.706 439.402 323.706ZM444.203 329.009C443.837 329.009 443.506 328.928 443.21 328.764C442.922 328.6 442.692 328.371 442.521 328.075C442.35 327.771 442.264 327.409 442.264 326.989C442.264 326.576 442.35 326.218 442.521 325.914C442.692 325.61 442.926 325.377 443.222 325.213C443.518 325.05 443.849 324.968 444.215 324.968C444.573 324.968 444.896 325.05 445.184 325.213C445.48 325.377 445.714 325.61 445.885 325.914C446.056 326.218 446.142 326.576 446.142 326.989C446.142 327.409 446.056 327.771 445.885 328.075C445.714 328.371 445.48 328.6 445.184 328.764C444.896 328.928 444.569 329.009 444.203 329.009ZM444.203 328.11C444.452 328.11 444.666 328.016 444.845 327.83C445.032 327.643 445.126 327.362 445.126 326.989C445.126 326.615 445.036 326.334 444.857 326.148C444.678 325.953 444.46 325.856 444.203 325.856C443.954 325.856 443.736 325.953 443.549 326.148C443.362 326.334 443.269 326.615 443.269 326.989C443.269 327.362 443.358 327.643 443.537 327.83C443.724 328.016 443.946 328.11 444.203 328.11Z" fill="white"/>
<path d="M528.289 376.761V369.986L526.97 370.29V369.379L528.78 368.584H529.574V376.761H528.289ZM534.086 376.901C533.509 376.901 533.011 376.8 532.591 376.597C532.17 376.387 531.835 376.103 531.586 375.745C531.345 375.379 531.197 374.966 531.142 374.506H532.357C532.435 374.896 532.629 375.219 532.941 375.476C533.252 375.725 533.638 375.85 534.097 375.85C534.44 375.85 534.736 375.768 534.985 375.604C535.234 375.433 535.429 375.207 535.569 374.927C535.709 374.647 535.779 374.331 535.779 373.981C535.779 373.428 535.624 372.988 535.312 372.661C535.001 372.326 534.607 372.159 534.132 372.159C533.727 372.159 533.381 372.256 533.093 372.451C532.805 372.637 532.594 372.875 532.462 373.163H531.282L531.983 368.584H536.398V369.671H532.918L532.497 371.855C532.676 371.652 532.921 371.485 533.233 371.353C533.552 371.212 533.91 371.142 534.308 371.142C534.86 371.142 535.335 371.271 535.733 371.528C536.13 371.777 536.433 372.116 536.644 372.544C536.862 372.972 536.971 373.447 536.971 373.969C536.971 374.514 536.854 375.009 536.62 375.453C536.387 375.896 536.052 376.251 535.616 376.515C535.188 376.772 534.677 376.901 534.086 376.901ZM540.01 372.486C539.644 372.486 539.313 372.404 539.017 372.24C538.729 372.077 538.5 371.847 538.328 371.551C538.157 371.247 538.071 370.885 538.071 370.465C538.071 370.052 538.157 369.698 538.328 369.402C538.5 369.098 538.733 368.865 539.029 368.701C539.325 368.538 539.656 368.456 540.022 368.456C540.38 368.456 540.703 368.538 540.991 368.701C541.287 368.865 541.521 369.098 541.692 369.402C541.864 369.698 541.949 370.052 541.949 370.465C541.949 370.885 541.864 371.247 541.692 371.551C541.521 371.847 541.287 372.077 540.991 372.24C540.703 372.404 540.376 372.486 540.01 372.486ZM539.426 376.761L544.11 368.584H545.325L540.653 376.761H539.426ZM540.01 371.598C540.259 371.598 540.474 371.504 540.653 371.318C540.84 371.123 540.933 370.839 540.933 370.465C540.933 370.091 540.843 369.811 540.664 369.624C540.485 369.429 540.267 369.332 540.01 369.332C539.761 369.332 539.543 369.429 539.356 369.624C539.169 369.811 539.076 370.091 539.076 370.465C539.076 370.839 539.165 371.123 539.344 371.318C539.531 371.504 539.753 371.598 540.01 371.598ZM544.811 376.901C544.445 376.901 544.114 376.819 543.818 376.656C543.53 376.492 543.3 376.262 543.129 375.966C542.958 375.663 542.872 375.301 542.872 374.88C542.872 374.467 542.958 374.109 543.129 373.806C543.3 373.502 543.534 373.268 543.83 373.105C544.126 372.941 544.457 372.859 544.823 372.859C545.181 372.859 545.504 372.941 545.792 373.105C546.088 373.268 546.322 373.502 546.493 373.806C546.664 374.109 546.75 374.467 546.75 374.88C546.75 375.301 546.664 375.663 546.493 375.966C546.322 376.262 546.088 376.492 545.792 376.656C545.504 376.819 545.177 376.901 544.811 376.901ZM544.811 376.001C545.06 376.001 545.274 375.908 545.453 375.721C545.64 375.534 545.734 375.254 545.734 374.88C545.734 374.506 545.644 374.226 545.465 374.039C545.286 373.844 545.068 373.747 544.811 373.747C544.562 373.747 544.344 373.844 544.157 374.039C543.97 374.226 543.877 374.506 543.877 374.88C543.877 375.254 543.966 375.534 544.145 375.721C544.332 375.908 544.554 376.001 544.811 376.001Z" fill="white"/>
<path d="M633.215 393.467V386.692L631.895 386.996V386.085L633.705 385.29H634.5V393.467H633.215ZM639.431 393.607C638.692 393.607 638.053 393.432 637.516 393.081C636.986 392.723 636.577 392.229 636.289 391.598C636.009 390.959 635.869 390.22 635.869 389.379C635.869 388.538 636.009 387.802 636.289 387.171C636.577 386.532 636.986 386.038 637.516 385.687C638.053 385.329 638.692 385.15 639.431 385.15C640.171 385.15 640.806 385.329 641.335 385.687C641.865 386.038 642.27 386.532 642.55 387.171C642.838 387.802 642.982 388.538 642.982 389.379C642.982 390.22 642.838 390.959 642.55 391.598C642.27 392.229 641.865 392.723 641.335 393.081C640.806 393.432 640.171 393.607 639.431 393.607ZM639.431 392.497C639.875 392.497 640.269 392.373 640.611 392.124C640.962 391.874 641.234 391.516 641.429 391.049C641.624 390.582 641.721 390.025 641.721 389.379C641.721 388.732 641.624 388.175 641.429 387.708C641.234 387.241 640.962 386.883 640.611 386.634C640.269 386.384 639.875 386.26 639.431 386.26C638.98 386.26 638.583 386.384 638.24 386.634C637.897 386.883 637.629 387.241 637.434 387.708C637.239 388.175 637.142 388.732 637.142 389.379C637.142 390.025 637.239 390.582 637.434 391.049C637.629 391.516 637.897 391.874 638.24 392.124C638.583 392.373 638.98 392.497 639.431 392.497ZM645.939 389.192C645.573 389.192 645.242 389.11 644.946 388.946C644.658 388.783 644.429 388.553 644.257 388.257C644.086 387.954 644 387.591 644 387.171C644 386.758 644.086 386.404 644.257 386.108C644.429 385.804 644.662 385.571 644.958 385.407C645.254 385.244 645.585 385.162 645.951 385.162C646.309 385.162 646.632 385.244 646.92 385.407C647.216 385.571 647.45 385.804 647.621 386.108C647.793 386.404 647.878 386.758 647.878 387.171C647.878 387.591 647.793 387.954 647.621 388.257C647.45 388.553 647.216 388.783 646.92 388.946C646.632 389.11 646.305 389.192 645.939 389.192ZM645.355 393.467L650.039 385.29H651.254L646.582 393.467H645.355ZM645.939 388.304C646.188 388.304 646.403 388.21 646.582 388.024C646.769 387.829 646.862 387.545 646.862 387.171C646.862 386.797 646.773 386.517 646.593 386.33C646.414 386.135 646.196 386.038 645.939 386.038C645.69 386.038 645.472 386.135 645.285 386.33C645.098 386.517 645.005 386.797 645.005 387.171C645.005 387.545 645.094 387.829 645.274 388.024C645.46 388.21 645.682 388.304 645.939 388.304ZM650.74 393.607C650.374 393.607 650.043 393.525 649.747 393.362C649.459 393.198 649.229 392.968 649.058 392.673C648.887 392.369 648.801 392.007 648.801 391.586C648.801 391.173 648.887 390.815 649.058 390.512C649.229 390.208 649.463 389.974 649.759 389.811C650.055 389.647 650.386 389.565 650.752 389.565C651.11 389.565 651.433 389.647 651.721 389.811C652.017 389.974 652.251 390.208 652.422 390.512C652.593 390.815 652.679 391.173 652.679 391.586C652.679 392.007 652.593 392.369 652.422 392.673C652.251 392.968 652.017 393.198 651.721 393.362C651.433 393.525 651.106 393.607 650.74 393.607ZM650.74 392.708C650.989 392.708 651.203 392.614 651.383 392.427C651.569 392.24 651.663 391.96 651.663 391.586C651.663 391.212 651.573 390.932 651.394 390.745C651.215 390.551 650.997 390.453 650.74 390.453C650.491 390.453 650.273 390.551 650.086 390.745C649.899 390.932 649.806 391.212 649.806 391.586C649.806 391.96 649.895 392.24 650.074 392.427C650.261 392.614 650.483 392.708 650.74 392.708Z" fill="white"/>
<path d="M744.733 409.607C744.156 409.607 743.658 409.506 743.238 409.303C742.817 409.093 742.482 408.809 742.233 408.451C741.992 408.085 741.844 407.672 741.789 407.212H743.004C743.082 407.602 743.276 407.925 743.588 408.182C743.899 408.431 744.285 408.556 744.744 408.556C745.087 408.556 745.383 408.474 745.632 408.31C745.881 408.139 746.076 407.913 746.216 407.633C746.356 407.353 746.426 407.037 746.426 406.687C746.426 406.134 746.271 405.694 745.959 405.367C745.648 405.032 745.254 404.865 744.779 404.865C744.374 404.865 744.028 404.962 743.74 405.157C743.452 405.344 743.241 405.581 743.109 405.869H741.929L742.63 401.29H747.045V402.377H743.565L743.144 404.561C743.323 404.358 743.568 404.191 743.88 404.059C744.199 403.918 744.557 403.848 744.955 403.848C745.507 403.848 745.982 403.977 746.38 404.234C746.777 404.483 747.08 404.822 747.291 405.25C747.509 405.678 747.618 406.153 747.618 406.675C747.618 407.22 747.501 407.715 747.267 408.159C747.034 408.602 746.699 408.957 746.263 409.222C745.835 409.478 745.324 409.607 744.733 409.607ZM750.657 405.192C750.291 405.192 749.96 405.11 749.664 404.946C749.376 404.783 749.146 404.553 748.975 404.257C748.804 403.954 748.718 403.591 748.718 403.171C748.718 402.758 748.804 402.404 748.975 402.108C749.146 401.804 749.38 401.571 749.676 401.407C749.972 401.244 750.303 401.162 750.669 401.162C751.027 401.162 751.35 401.244 751.638 401.407C751.934 401.571 752.168 401.804 752.339 402.108C752.511 402.404 752.596 402.758 752.596 403.171C752.596 403.591 752.511 403.954 752.339 404.257C752.168 404.553 751.934 404.783 751.638 404.946C751.35 405.11 751.023 405.192 750.657 405.192ZM750.073 409.467L754.757 401.29H755.972L751.3 409.467H750.073ZM750.657 404.304C750.906 404.304 751.121 404.21 751.3 404.024C751.487 403.829 751.58 403.545 751.58 403.171C751.58 402.797 751.49 402.517 751.311 402.33C751.132 402.135 750.914 402.038 750.657 402.038C750.408 402.038 750.19 402.135 750.003 402.33C749.816 402.517 749.723 402.797 749.723 403.171C749.723 403.545 749.812 403.829 749.991 404.024C750.178 404.21 750.4 404.304 750.657 404.304ZM755.458 409.607C755.092 409.607 754.761 409.525 754.465 409.362C754.177 409.198 753.947 408.968 753.776 408.673C753.605 408.369 753.519 408.007 753.519 407.586C753.519 407.173 753.605 406.815 753.776 406.512C753.947 406.208 754.181 405.974 754.477 405.811C754.773 405.647 755.104 405.565 755.47 405.565C755.828 405.565 756.151 405.647 756.439 405.811C756.735 405.974 756.969 406.208 757.14 406.512C757.311 406.815 757.397 407.173 757.397 407.586C757.397 408.007 757.311 408.369 757.14 408.673C756.969 408.968 756.735 409.198 756.439 409.362C756.151 409.525 755.824 409.607 755.458 409.607ZM755.458 408.708C755.707 408.708 755.921 408.614 756.1 408.427C756.287 408.24 756.381 407.96 756.381 407.586C756.381 407.212 756.291 406.932 756.112 406.745C755.933 406.551 755.715 406.453 755.458 406.453C755.209 406.453 754.991 406.551 754.804 406.745C754.617 406.932 754.524 407.212 754.524 407.586C754.524 407.96 754.613 408.24 754.792 408.427C754.979 408.614 755.201 408.708 755.458 408.708Z" fill="white"/>
<path d="M421.812 506.072V497.896H424.674C425.313 497.896 425.842 498.005 426.263 498.223C426.683 498.433 426.995 498.725 427.197 499.099C427.407 499.465 427.512 499.882 427.512 500.349C427.512 500.793 427.411 501.201 427.209 501.575C427.014 501.941 426.706 502.233 426.286 502.451C425.865 502.669 425.328 502.778 424.674 502.778H423.05V506.072H421.812ZM423.05 501.762H424.616C425.2 501.762 425.616 501.638 425.865 501.388C426.122 501.131 426.251 500.785 426.251 500.349C426.251 499.897 426.122 499.547 425.865 499.297C425.616 499.041 425.2 498.912 424.616 498.912H423.05V501.762ZM428.69 506.072V500.279H429.799L429.904 501.377C430.107 500.995 430.387 500.695 430.745 500.477C431.111 500.251 431.551 500.138 432.065 500.138V501.435H431.726C431.384 501.435 431.076 501.493 430.804 501.61C430.539 501.719 430.325 501.91 430.161 502.183C430.006 502.447 429.928 502.817 429.928 503.292V506.072H428.69ZM435.677 506.212C435.109 506.212 434.602 506.088 434.159 505.839C433.722 505.582 433.38 505.227 433.131 504.776C432.881 504.324 432.757 503.798 432.757 503.199C432.757 502.591 432.878 502.058 433.119 501.599C433.368 501.139 433.711 500.781 434.147 500.524C434.591 500.267 435.105 500.138 435.689 500.138C436.257 500.138 436.752 500.267 437.172 500.524C437.593 500.773 437.92 501.108 438.153 501.528C438.387 501.949 438.504 502.412 438.504 502.918C438.504 502.996 438.5 503.082 438.492 503.175C438.492 503.261 438.488 503.358 438.48 503.467H433.972C434.011 504.028 434.194 504.456 434.521 504.752C434.855 505.04 435.241 505.185 435.677 505.185C436.027 505.185 436.319 505.107 436.553 504.951C436.794 504.787 436.974 504.569 437.09 504.297H438.329C438.173 504.842 437.861 505.297 437.394 505.663C436.935 506.029 436.362 506.212 435.677 506.212ZM435.677 501.155C435.264 501.155 434.898 501.279 434.579 501.528C434.26 501.77 434.065 502.136 433.995 502.626H437.266C437.242 502.175 437.083 501.817 436.787 501.552C436.491 501.287 436.121 501.155 435.677 501.155ZM442.101 506.212C441.369 506.212 440.766 506.033 440.291 505.675C439.816 505.317 439.543 504.842 439.473 504.25H440.723C440.785 504.515 440.933 504.745 441.167 504.939C441.4 505.126 441.708 505.22 442.09 505.22C442.463 505.22 442.736 505.142 442.907 504.986C443.078 504.83 443.164 504.651 443.164 504.449C443.164 504.153 443.043 503.954 442.802 503.853C442.568 503.744 442.241 503.647 441.821 503.561C441.494 503.491 441.167 503.397 440.84 503.281C440.52 503.164 440.252 503 440.034 502.79C439.823 502.572 439.718 502.28 439.718 501.914C439.718 501.408 439.913 500.987 440.302 500.652C440.692 500.31 441.237 500.138 441.938 500.138C442.584 500.138 443.106 500.294 443.503 500.606C443.908 500.917 444.145 501.357 444.215 501.926H443.024C442.985 501.676 442.868 501.482 442.674 501.342C442.487 501.201 442.234 501.131 441.914 501.131C441.603 501.131 441.361 501.198 441.19 501.33C441.019 501.455 440.933 501.618 440.933 501.821C440.933 502.023 441.05 502.183 441.284 502.299C441.525 502.416 441.84 502.521 442.23 502.615C442.619 502.7 442.977 502.802 443.304 502.918C443.639 503.028 443.908 503.191 444.11 503.409C444.313 503.627 444.414 503.946 444.414 504.367C444.422 504.896 444.215 505.336 443.795 505.687C443.382 506.037 442.818 506.212 442.101 506.212ZM447.728 506.212C447.237 506.212 446.832 506.131 446.513 505.967C446.194 505.804 445.956 505.589 445.801 505.325C445.645 505.052 445.567 504.756 445.567 504.437C445.567 503.876 445.785 503.432 446.221 503.105C446.657 502.778 447.28 502.615 448.09 502.615H449.609V502.51C449.609 502.058 449.484 501.719 449.235 501.493C448.993 501.268 448.678 501.155 448.289 501.155C447.946 501.155 447.646 501.24 447.389 501.412C447.14 501.575 446.988 501.821 446.934 502.148H445.696C445.734 501.727 445.875 501.369 446.116 501.073C446.365 500.769 446.677 500.54 447.051 500.384C447.432 500.22 447.849 500.138 448.3 500.138C449.11 500.138 449.737 500.353 450.181 500.781C450.625 501.201 450.847 501.778 450.847 502.51V506.072H449.772L449.667 505.079C449.503 505.399 449.266 505.667 448.954 505.885C448.643 506.103 448.234 506.212 447.728 506.212ZM447.973 505.208C448.308 505.208 448.588 505.13 448.814 504.974C449.048 504.811 449.227 504.597 449.352 504.332C449.484 504.067 449.566 503.775 449.597 503.456H448.219C447.728 503.456 447.378 503.541 447.167 503.713C446.965 503.884 446.864 504.098 446.864 504.355C446.864 504.62 446.961 504.83 447.156 504.986C447.358 505.134 447.631 505.208 447.973 505.208ZM452.29 506.072V497.662H453.529V506.072H452.29ZM457.806 506.212C457.238 506.212 456.732 506.088 456.288 505.839C455.852 505.582 455.509 505.227 455.26 504.776C455.011 504.324 454.886 503.798 454.886 503.199C454.886 502.591 455.007 502.058 455.248 501.599C455.498 501.139 455.84 500.781 456.276 500.524C456.72 500.267 457.234 500.138 457.818 500.138C458.387 500.138 458.881 500.267 459.302 500.524C459.722 500.773 460.049 501.108 460.283 501.528C460.516 501.949 460.633 502.412 460.633 502.918C460.633 502.996 460.629 503.082 460.621 503.175C460.621 503.261 460.618 503.358 460.61 503.467H456.101C456.14 504.028 456.323 504.456 456.65 504.752C456.985 505.04 457.37 505.185 457.806 505.185C458.157 505.185 458.449 505.107 458.682 504.951C458.924 504.787 459.103 504.569 459.22 504.297H460.458C460.302 504.842 459.991 505.297 459.523 505.663C459.064 506.029 458.492 506.212 457.806 506.212ZM457.806 501.155C457.394 501.155 457.028 501.279 456.708 501.528C456.389 501.77 456.194 502.136 456.124 502.626H459.395C459.372 502.175 459.212 501.817 458.916 501.552C458.62 501.287 458.25 501.155 457.806 501.155Z" fill="white"/>
<path d="M422.035 540V531.824H423.495L426.264 537.267L429.02 531.824H430.481V540H429.242V533.961L426.743 538.832H425.785L423.274 533.973V540H422.035ZM434.058 540.14C433.567 540.14 433.162 540.058 432.843 539.895C432.523 539.731 432.286 539.517 432.13 539.252C431.974 538.98 431.897 538.684 431.897 538.365C431.897 537.804 432.115 537.36 432.551 537.033C432.987 536.706 433.61 536.543 434.42 536.543H435.938V536.437C435.938 535.986 435.814 535.647 435.564 535.421C435.323 535.195 435.008 535.082 434.618 535.082C434.276 535.082 433.976 535.168 433.719 535.339C433.47 535.503 433.318 535.748 433.263 536.075H432.025C432.064 535.655 432.204 535.297 432.446 535.001C432.695 534.697 433.006 534.467 433.38 534.312C433.762 534.148 434.178 534.066 434.63 534.066C435.44 534.066 436.067 534.28 436.51 534.709C436.954 535.129 437.176 535.705 437.176 536.437V540H436.102L435.997 539.007C435.833 539.326 435.595 539.595 435.284 539.813C434.973 540.031 434.564 540.14 434.058 540.14ZM434.303 539.136C434.638 539.136 434.918 539.058 435.144 538.902C435.377 538.738 435.557 538.524 435.681 538.26C435.814 537.995 435.895 537.703 435.926 537.384H434.548C434.058 537.384 433.707 537.469 433.497 537.641C433.294 537.812 433.193 538.026 433.193 538.283C433.193 538.548 433.291 538.758 433.485 538.914C433.688 539.062 433.96 539.136 434.303 539.136ZM438.62 540V534.206H439.73L439.835 535.304C440.037 534.923 440.318 534.623 440.676 534.405C441.042 534.179 441.482 534.066 441.996 534.066V535.363H441.657C441.314 535.363 441.007 535.421 440.734 535.538C440.469 535.647 440.255 535.838 440.092 536.11C439.936 536.375 439.858 536.745 439.858 537.22V540H438.62ZM443.057 540V531.59H444.295V536.601L446.515 534.206H447.998L445.534 536.835L448.36 540H446.795L444.295 537.033V540H443.057ZM451.585 540.14C451.016 540.14 450.51 540.016 450.066 539.766C449.63 539.509 449.287 539.155 449.038 538.703C448.789 538.252 448.664 537.726 448.664 537.127C448.664 536.519 448.785 535.986 449.027 535.526C449.276 535.067 449.618 534.709 450.054 534.452C450.498 534.195 451.012 534.066 451.596 534.066C452.165 534.066 452.659 534.195 453.08 534.452C453.5 534.701 453.827 535.036 454.061 535.456C454.295 535.877 454.411 536.34 454.411 536.846C454.411 536.924 454.407 537.01 454.4 537.103C454.4 537.189 454.396 537.286 454.388 537.395H449.879C449.918 537.956 450.101 538.384 450.428 538.68C450.763 538.968 451.149 539.112 451.585 539.112C451.935 539.112 452.227 539.034 452.461 538.879C452.702 538.715 452.881 538.497 452.998 538.225H454.236C454.08 538.77 453.769 539.225 453.302 539.591C452.842 539.957 452.27 540.14 451.585 540.14ZM451.585 535.082C451.172 535.082 450.806 535.207 450.487 535.456C450.167 535.698 449.973 536.064 449.903 536.554H453.173C453.15 536.103 452.99 535.744 452.694 535.48C452.398 535.215 452.029 535.082 451.585 535.082ZM457.977 540C457.409 540 456.957 539.864 456.622 539.591C456.288 539.311 456.12 538.816 456.12 538.108V535.246H455.127V534.206H456.12L456.272 532.735H457.358V534.206H458.994V535.246H457.358V538.108C457.358 538.427 457.424 538.649 457.557 538.774C457.697 538.89 457.935 538.949 458.269 538.949H458.935V540H457.977ZM460.971 533.108C460.737 533.108 460.543 533.038 460.387 532.898C460.239 532.75 460.165 532.567 460.165 532.349C460.165 532.131 460.239 531.952 460.387 531.812C460.543 531.664 460.737 531.59 460.971 531.59C461.205 531.59 461.395 531.664 461.543 531.812C461.699 531.952 461.777 532.131 461.777 532.349C461.777 532.567 461.699 532.75 461.543 532.898C461.395 533.038 461.205 533.108 460.971 533.108ZM460.352 540V534.206H461.59V540H460.352ZM463.225 540V534.206H464.323L464.416 535.223C464.595 534.864 464.856 534.584 465.199 534.382C465.549 534.171 465.95 534.066 466.402 534.066C467.103 534.066 467.652 534.284 468.049 534.72C468.454 535.156 468.656 535.807 468.656 536.671V540H467.43V536.799C467.43 535.678 466.97 535.117 466.051 535.117C465.592 535.117 465.21 535.281 464.907 535.608C464.611 535.935 464.463 536.402 464.463 537.01V540H463.225ZM472.486 538.225C472.182 538.225 471.902 538.189 471.645 538.119L471.142 538.61C471.228 538.665 471.333 538.711 471.458 538.75C471.582 538.789 471.757 538.824 471.983 538.855C472.209 538.886 472.517 538.918 472.906 538.949C473.677 539.019 474.234 539.206 474.576 539.509C474.919 539.805 475.09 540.202 475.09 540.701C475.09 541.043 474.997 541.367 474.81 541.67C474.631 541.982 474.347 542.231 473.957 542.418C473.576 542.613 473.085 542.71 472.486 542.71C471.676 542.71 471.018 542.554 470.512 542.243C470.013 541.939 469.764 541.476 469.764 540.853C469.764 540.611 469.826 540.37 469.951 540.128C470.083 539.895 470.29 539.673 470.57 539.463C470.406 539.393 470.262 539.319 470.138 539.241C470.021 539.155 469.916 539.069 469.822 538.984V538.703L470.827 537.676C470.375 537.286 470.149 536.776 470.149 536.145C470.149 535.764 470.239 535.417 470.418 535.106C470.605 534.787 470.874 534.533 471.224 534.347C471.574 534.16 471.995 534.066 472.486 534.066C472.813 534.066 473.116 534.113 473.397 534.206H475.558V535.024L474.53 535.082C474.717 535.402 474.81 535.756 474.81 536.145C474.81 536.535 474.717 536.885 474.53 537.197C474.351 537.508 474.086 537.757 473.735 537.944C473.393 538.131 472.976 538.225 472.486 538.225ZM472.486 537.255C472.844 537.255 473.132 537.162 473.35 536.975C473.576 536.78 473.689 536.507 473.689 536.157C473.689 535.799 473.576 535.526 473.35 535.339C473.132 535.153 472.844 535.059 472.486 535.059C472.12 535.059 471.824 535.153 471.598 535.339C471.38 535.526 471.271 535.799 471.271 536.157C471.271 536.507 471.38 536.78 471.598 536.975C471.824 537.162 472.12 537.255 472.486 537.255ZM470.932 540.736C470.932 541.071 471.08 541.32 471.376 541.483C471.672 541.655 472.042 541.74 472.486 541.74C472.914 541.74 473.26 541.647 473.525 541.46C473.79 541.281 473.922 541.04 473.922 540.736C473.922 540.51 473.833 540.315 473.654 540.152C473.475 539.996 473.136 539.899 472.637 539.86C472.264 539.836 471.933 539.801 471.645 539.755C471.372 539.903 471.185 540.062 471.084 540.234C470.983 540.405 470.932 540.572 470.932 540.736Z" fill="white"/>
<path d="M533.035 506V497.824H534.273V505.019H537.987V506H533.035ZM539.974 499.108C539.741 499.108 539.546 499.038 539.39 498.898C539.242 498.75 539.168 498.567 539.168 498.349C539.168 498.131 539.242 497.952 539.39 497.812C539.546 497.664 539.741 497.59 539.974 497.59C540.208 497.59 540.399 497.664 540.547 497.812C540.702 497.952 540.78 498.131 540.78 498.349C540.78 498.567 540.702 498.75 540.547 498.898C540.399 499.038 540.208 499.108 539.974 499.108ZM539.355 506V500.206H540.593V506H539.355ZM546.9 508.57V505.101C546.713 505.373 546.456 505.615 546.129 505.825C545.802 506.035 545.382 506.14 544.868 506.14C544.307 506.14 543.812 506.008 543.384 505.743C542.956 505.478 542.621 505.116 542.38 504.657C542.138 504.197 542.018 503.676 542.018 503.092C542.018 502.507 542.138 501.99 542.38 501.538C542.621 501.079 542.956 500.72 543.384 500.463C543.82 500.199 544.319 500.066 544.879 500.066C545.339 500.066 545.74 500.156 546.082 500.335C546.433 500.514 546.705 500.767 546.9 501.094L547.029 500.206H548.138V508.57H546.9ZM545.09 505.066C545.619 505.066 546.051 504.883 546.386 504.517C546.729 504.151 546.9 503.679 546.9 503.103C546.9 502.519 546.729 502.048 546.386 501.69C546.051 501.324 545.619 501.141 545.09 501.141C544.56 501.141 544.124 501.324 543.781 501.69C543.439 502.048 543.267 502.519 543.267 503.103C543.267 503.485 543.345 503.824 543.501 504.119C543.657 504.415 543.871 504.649 544.143 504.82C544.424 504.984 544.739 505.066 545.09 505.066ZM551.837 506.14C551.136 506.14 550.583 505.922 550.178 505.486C549.781 505.05 549.582 504.4 549.582 503.535V500.206H550.821V503.407C550.821 504.528 551.28 505.089 552.199 505.089C552.658 505.089 553.036 504.925 553.332 504.598C553.628 504.271 553.776 503.804 553.776 503.197V500.206H555.014V506H553.916L553.823 504.984C553.643 505.342 553.379 505.626 553.028 505.836C552.686 506.039 552.289 506.14 551.837 506.14ZM557.29 499.108C557.056 499.108 556.862 499.038 556.706 498.898C556.558 498.75 556.484 498.567 556.484 498.349C556.484 498.131 556.558 497.952 556.706 497.812C556.862 497.664 557.056 497.59 557.29 497.59C557.524 497.59 557.714 497.664 557.862 497.812C558.018 497.952 558.096 498.131 558.096 498.349C558.096 498.567 558.018 498.75 557.862 498.898C557.714 499.038 557.524 499.108 557.29 499.108ZM556.671 506V500.206H557.909V506H556.671ZM562.183 506.14C561.623 506.14 561.128 506.008 560.7 505.743C560.272 505.478 559.937 505.116 559.695 504.657C559.454 504.197 559.333 503.676 559.333 503.092C559.333 502.507 559.454 501.99 559.695 501.538C559.937 501.079 560.272 500.72 560.7 500.463C561.136 500.199 561.634 500.066 562.195 500.066C562.654 500.066 563.055 500.156 563.398 500.335C563.748 500.514 564.021 500.767 564.216 501.094V497.59H565.454V506H564.344L564.216 505.101C564.029 505.373 563.772 505.615 563.445 505.825C563.118 506.035 562.697 506.14 562.183 506.14ZM562.405 505.066C562.935 505.066 563.367 504.883 563.702 504.517C564.044 504.151 564.216 503.679 564.216 503.103C564.216 502.519 564.044 502.048 563.702 501.69C563.367 501.324 562.935 501.141 562.405 501.141C561.876 501.141 561.44 501.324 561.097 501.69C560.754 502.048 560.583 502.519 560.583 503.103C560.583 503.485 560.661 503.824 560.817 504.119C560.972 504.415 561.187 504.649 561.459 504.82C561.739 504.984 562.055 505.066 562.405 505.066ZM567.716 499.108C567.482 499.108 567.288 499.038 567.132 498.898C566.984 498.75 566.91 498.567 566.91 498.349C566.91 498.131 566.984 497.952 567.132 497.812C567.288 497.664 567.482 497.59 567.716 497.59C567.949 497.59 568.14 497.664 568.288 497.812C568.444 497.952 568.522 498.131 568.522 498.349C568.522 498.567 568.444 498.75 568.288 498.898C568.14 499.038 567.949 499.108 567.716 499.108ZM567.097 506V500.206H568.335V506H567.097ZM572.399 506C571.83 506 571.379 505.864 571.044 505.591C570.709 505.311 570.542 504.816 570.542 504.108V501.246H569.549V500.206H570.542L570.694 498.735H571.78V500.206H573.415V501.246H571.78V504.108C571.78 504.427 571.846 504.649 571.978 504.774C572.119 504.89 572.356 504.949 572.691 504.949H573.357V506H572.399ZM575.369 508.57L576.759 505.521H576.421L574.131 500.206H575.474L577.25 504.493L579.107 500.206H580.415L576.678 508.57H575.369Z" fill="white"/>
<path d="M533.035 540V531.824H535.85C536.497 531.824 537.026 531.933 537.439 532.151C537.86 532.369 538.171 532.665 538.373 533.038C538.576 533.404 538.677 533.813 538.677 534.265C538.677 534.771 538.541 535.23 538.268 535.643C538.004 536.056 537.587 536.352 537.018 536.531L538.759 540H537.322L535.734 536.706H534.274V540H533.035ZM534.274 535.772H535.78C536.341 535.772 536.75 535.635 537.007 535.363C537.272 535.09 537.404 534.736 537.404 534.3C537.404 533.864 537.275 533.517 537.018 533.26C536.762 532.995 536.345 532.863 535.769 532.863H534.274V535.772ZM542.451 540.14C541.883 540.14 541.377 540.016 540.933 539.766C540.497 539.509 540.154 539.155 539.905 538.703C539.656 538.252 539.531 537.726 539.531 537.127C539.531 536.519 539.652 535.986 539.893 535.526C540.143 535.067 540.485 534.709 540.921 534.452C541.365 534.195 541.879 534.066 542.463 534.066C543.032 534.066 543.526 534.195 543.947 534.452C544.367 534.701 544.694 535.036 544.928 535.456C545.161 535.877 545.278 536.34 545.278 536.846C545.278 536.924 545.274 537.01 545.267 537.103C545.267 537.189 545.263 537.286 545.255 537.395H540.746C540.785 537.956 540.968 538.384 541.295 538.68C541.63 538.968 542.015 539.112 542.451 539.112C542.802 539.112 543.094 539.034 543.328 538.879C543.569 538.715 543.748 538.497 543.865 538.225H545.103C544.947 538.77 544.636 539.225 544.169 539.591C543.709 539.957 543.137 540.14 542.451 540.14ZM542.451 535.082C542.039 535.082 541.673 535.207 541.353 535.456C541.034 535.698 540.84 536.064 540.769 536.554H544.04C544.017 536.103 543.857 535.744 543.561 535.48C543.265 535.215 542.895 535.082 542.451 535.082ZM548.876 540.14C548.144 540.14 547.54 539.961 547.065 539.603C546.59 539.245 546.318 538.77 546.247 538.178H547.497C547.56 538.443 547.708 538.672 547.941 538.867C548.175 539.054 548.482 539.147 548.864 539.147C549.238 539.147 549.51 539.069 549.682 538.914C549.853 538.758 549.939 538.579 549.939 538.376C549.939 538.08 549.818 537.882 549.576 537.781C549.343 537.672 549.016 537.574 548.595 537.489C548.268 537.419 547.941 537.325 547.614 537.208C547.295 537.092 547.026 536.928 546.808 536.718C546.598 536.5 546.493 536.208 546.493 535.842C546.493 535.336 546.687 534.915 547.077 534.58C547.466 534.238 548.011 534.066 548.712 534.066C549.358 534.066 549.88 534.222 550.277 534.533C550.682 534.845 550.92 535.285 550.99 535.853H549.798C549.759 535.604 549.643 535.409 549.448 535.269C549.261 535.129 549.008 535.059 548.689 535.059C548.377 535.059 548.136 535.125 547.965 535.258C547.793 535.382 547.708 535.546 547.708 535.748C547.708 535.951 547.824 536.11 548.058 536.227C548.299 536.344 548.615 536.449 549.004 536.543C549.393 536.628 549.752 536.729 550.079 536.846C550.414 536.955 550.682 537.119 550.885 537.337C551.087 537.555 551.188 537.874 551.188 538.295C551.196 538.824 550.99 539.264 550.569 539.615C550.157 539.965 549.592 540.14 548.876 540.14ZM555.25 540.14C554.682 540.14 554.175 540.016 553.732 539.766C553.295 539.509 552.953 539.155 552.704 538.703C552.454 538.252 552.33 537.726 552.33 537.127C552.33 536.519 552.451 535.986 552.692 535.526C552.941 535.067 553.284 534.709 553.72 534.452C554.164 534.195 554.678 534.066 555.262 534.066C555.83 534.066 556.325 534.195 556.745 534.452C557.166 534.701 557.493 535.036 557.726 535.456C557.96 535.877 558.077 536.34 558.077 536.846C558.077 536.924 558.073 537.01 558.065 537.103C558.065 537.189 558.061 537.286 558.053 537.395H553.545C553.584 537.956 553.767 538.384 554.094 538.68C554.428 538.968 554.814 539.112 555.25 539.112C555.6 539.112 555.892 539.034 556.126 538.879C556.367 538.715 556.547 538.497 556.663 538.225H557.902C557.746 538.77 557.434 539.225 556.967 539.591C556.508 539.957 555.935 540.14 555.25 540.14ZM555.25 535.082C554.837 535.082 554.471 535.207 554.152 535.456C553.833 535.698 553.638 536.064 553.568 536.554H556.839C556.815 536.103 556.656 535.744 556.36 535.48C556.064 535.215 555.694 535.082 555.25 535.082ZM561.324 540.14C560.833 540.14 560.428 540.058 560.109 539.895C559.79 539.731 559.552 539.517 559.396 539.252C559.241 538.98 559.163 538.684 559.163 538.365C559.163 537.804 559.381 537.36 559.817 537.033C560.253 536.706 560.876 536.543 561.686 536.543H563.204V536.437C563.204 535.986 563.08 535.647 562.831 535.421C562.589 535.195 562.274 535.082 561.884 535.082C561.542 535.082 561.242 535.168 560.985 535.339C560.736 535.503 560.584 535.748 560.529 536.075H559.291C559.33 535.655 559.47 535.297 559.712 535.001C559.961 534.697 560.273 534.467 560.646 534.312C561.028 534.148 561.444 534.066 561.896 534.066C562.706 534.066 563.333 534.28 563.777 534.709C564.221 535.129 564.443 535.705 564.443 536.437V540H563.368L563.263 539.007C563.099 539.326 562.862 539.595 562.55 539.813C562.239 540.031 561.83 540.14 561.324 540.14ZM561.569 539.136C561.904 539.136 562.184 539.058 562.41 538.902C562.644 538.738 562.823 538.524 562.947 538.26C563.08 537.995 563.162 537.703 563.193 537.384H561.814C561.324 537.384 560.973 537.469 560.763 537.641C560.561 537.812 560.459 538.026 560.459 538.283C560.459 538.548 560.557 538.758 560.751 538.914C560.954 539.062 561.226 539.136 561.569 539.136ZM565.886 540V534.206H566.996L567.101 535.304C567.303 534.923 567.584 534.623 567.942 534.405C568.308 534.179 568.748 534.066 569.262 534.066V535.363H568.923C568.581 535.363 568.273 535.421 568 535.538C567.736 535.647 567.521 535.838 567.358 536.11C567.202 536.375 567.124 536.745 567.124 537.22V540H565.886ZM572.909 540.14C572.34 540.14 571.83 540.012 571.379 539.755C570.935 539.498 570.584 539.143 570.327 538.692C570.078 538.232 569.954 537.703 569.954 537.103C569.954 536.504 570.078 535.978 570.327 535.526C570.584 535.067 570.935 534.709 571.379 534.452C571.83 534.195 572.34 534.066 572.909 534.066C573.625 534.066 574.225 534.253 574.708 534.627C575.198 535.001 575.514 535.507 575.654 536.145H574.357C574.279 535.826 574.108 535.577 573.843 535.398C573.578 535.219 573.267 535.129 572.909 535.129C572.605 535.129 572.325 535.207 572.068 535.363C571.811 535.511 571.604 535.733 571.449 536.029C571.293 536.317 571.215 536.675 571.215 537.103C571.215 537.531 571.293 537.894 571.449 538.189C571.604 538.478 571.811 538.7 572.068 538.855C572.325 539.011 572.605 539.089 572.909 539.089C573.267 539.089 573.578 538.999 573.843 538.82C574.108 538.641 574.279 538.388 574.357 538.061H575.654C575.521 538.684 575.21 539.186 574.719 539.568C574.229 539.949 573.625 540.14 572.909 540.14ZM576.997 540V531.59H578.235V535.141C578.429 534.806 578.698 534.545 579.041 534.358C579.391 534.164 579.777 534.066 580.197 534.066C580.89 534.066 581.435 534.284 581.832 534.72C582.229 535.156 582.428 535.807 582.428 536.671V540H581.202V536.799C581.202 535.678 580.754 535.117 579.858 535.117C579.391 535.117 579.002 535.281 578.69 535.608C578.387 535.935 578.235 536.402 578.235 537.01V540H576.997ZM589.399 540.14C588.815 540.14 588.305 540.039 587.869 539.836C587.441 539.626 587.106 539.334 586.864 538.96C586.623 538.587 586.502 538.151 586.502 537.652C586.502 537.107 586.654 536.62 586.958 536.192C587.269 535.764 587.725 535.421 588.324 535.164C588.075 534.884 587.896 534.619 587.787 534.37C587.678 534.121 587.624 533.848 587.624 533.552C587.624 533.015 587.818 532.571 588.208 532.221C588.597 531.862 589.138 531.683 589.831 531.683C590.283 531.683 590.672 531.769 590.999 531.94C591.326 532.112 591.576 532.341 591.747 532.629C591.918 532.918 592 533.245 591.992 533.611H590.789C590.797 533.299 590.699 533.062 590.497 532.898C590.302 532.735 590.076 532.653 589.82 532.653C589.516 532.653 589.274 532.739 589.095 532.91C588.916 533.073 588.827 533.284 588.827 533.541C588.827 533.766 588.889 533.988 589.014 534.206C589.146 534.424 589.344 534.67 589.609 534.942L592.039 537.384C592.234 537.088 592.444 536.737 592.67 536.332L592.973 535.76H594.258L593.791 536.613C593.472 537.236 593.156 537.757 592.845 538.178L594.667 540H593.148L592.156 539.007C591.751 539.404 591.326 539.692 590.882 539.872C590.439 540.051 589.944 540.14 589.399 540.14ZM587.705 537.582C587.705 538.018 587.861 538.38 588.173 538.668C588.492 538.957 588.908 539.101 589.422 539.101C589.804 539.101 590.15 539.034 590.462 538.902C590.773 538.762 591.077 538.536 591.373 538.225L589.049 535.9C588.597 536.087 588.258 536.324 588.032 536.613C587.814 536.893 587.705 537.216 587.705 537.582ZM598.602 540V531.824H601.254C602.212 531.824 602.998 531.991 603.613 532.326C604.236 532.661 604.696 533.136 604.992 533.751C605.295 534.358 605.447 535.082 605.447 535.923C605.447 536.757 605.295 537.481 604.992 538.096C604.696 538.703 604.236 539.175 603.613 539.509C602.998 539.836 602.212 540 601.254 540H598.602ZM599.84 538.949H601.207C601.947 538.949 602.531 538.828 602.959 538.587C603.395 538.345 603.707 537.999 603.894 537.547C604.088 537.095 604.186 536.554 604.186 535.923C604.186 535.293 604.088 534.748 603.894 534.288C603.707 533.829 603.395 533.478 602.959 533.237C602.531 532.988 601.947 532.863 601.207 532.863H599.84V538.949ZM609.478 540.14C608.91 540.14 608.404 540.016 607.96 539.766C607.524 539.509 607.181 539.155 606.932 538.703C606.683 538.252 606.558 537.726 606.558 537.127C606.558 536.519 606.679 535.986 606.92 535.526C607.17 535.067 607.512 534.709 607.948 534.452C608.392 534.195 608.906 534.066 609.49 534.066C610.059 534.066 610.553 534.195 610.974 534.452C611.394 534.701 611.721 535.036 611.955 535.456C612.188 535.877 612.305 536.34 612.305 536.846C612.305 536.924 612.301 537.01 612.293 537.103C612.293 537.189 612.29 537.286 612.282 537.395H607.773C607.812 537.956 607.995 538.384 608.322 538.68C608.657 538.968 609.042 539.112 609.478 539.112C609.829 539.112 610.121 539.034 610.354 538.879C610.596 538.715 610.775 538.497 610.892 538.225H612.13C611.974 538.77 611.663 539.225 611.196 539.591C610.736 539.957 610.164 540.14 609.478 540.14ZM609.478 535.082C609.066 535.082 608.7 535.207 608.38 535.456C608.061 535.698 607.867 536.064 607.796 536.554H611.067C611.044 536.103 610.884 535.744 610.588 535.48C610.292 535.215 609.922 535.082 609.478 535.082ZM614.985 540L612.813 534.206H614.109L615.721 538.82L617.333 534.206H618.618L616.457 540H614.985ZM622.049 540.14C621.48 540.14 620.974 540.016 620.53 539.766C620.094 539.509 619.752 539.155 619.502 538.703C619.253 538.252 619.129 537.726 619.129 537.127C619.129 536.519 619.249 535.986 619.491 535.526C619.74 535.067 620.083 534.709 620.519 534.452C620.963 534.195 621.477 534.066 622.061 534.066C622.629 534.066 623.123 534.195 623.544 534.452C623.964 534.701 624.292 535.036 624.525 535.456C624.759 535.877 624.876 536.34 624.876 536.846C624.876 536.924 624.872 537.01 624.864 537.103C624.864 537.189 624.86 537.286 624.852 537.395H620.343C620.382 537.956 620.565 538.384 620.892 538.68C621.227 538.968 621.613 539.112 622.049 539.112C622.399 539.112 622.691 539.034 622.925 538.879C623.166 538.715 623.345 538.497 623.462 538.225H624.7C624.545 538.77 624.233 539.225 623.766 539.591C623.306 539.957 622.734 540.14 622.049 540.14ZM622.049 535.082C621.636 535.082 621.27 535.207 620.951 535.456C620.632 535.698 620.437 536.064 620.367 536.554H623.637C623.614 536.103 623.454 535.744 623.159 535.48C622.863 535.215 622.493 535.082 622.049 535.082ZM626.16 540V531.59H627.398V540H626.16ZM631.676 540.14C631.123 540.14 630.625 540.016 630.181 539.766C629.745 539.509 629.399 539.155 629.142 538.703C628.885 538.244 628.756 537.711 628.756 537.103C628.756 536.496 628.885 535.966 629.142 535.515C629.406 535.055 629.761 534.701 630.205 534.452C630.648 534.195 631.143 534.066 631.688 534.066C632.241 534.066 632.735 534.195 633.171 534.452C633.615 534.701 633.966 535.055 634.223 535.515C634.487 535.966 634.62 536.496 634.62 537.103C634.62 537.711 634.487 538.244 634.223 538.703C633.966 539.155 633.615 539.509 633.171 539.766C632.728 540.016 632.229 540.14 631.676 540.14ZM631.676 539.077C631.972 539.077 632.245 539.003 632.494 538.855C632.751 538.707 632.957 538.489 633.113 538.201C633.269 537.905 633.347 537.539 633.347 537.103C633.347 536.667 633.269 536.305 633.113 536.017C632.965 535.721 632.763 535.499 632.506 535.351C632.256 535.203 631.984 535.129 631.688 535.129C631.392 535.129 631.116 535.203 630.859 535.351C630.609 535.499 630.407 535.721 630.251 536.017C630.095 536.305 630.018 536.667 630.018 537.103C630.018 537.539 630.095 537.905 630.251 538.201C630.407 538.489 630.609 538.707 630.859 538.855C631.108 539.003 631.38 539.077 631.676 539.077ZM635.959 542.57V534.206H637.068L637.197 535.106C637.384 534.833 637.641 534.592 637.968 534.382C638.295 534.171 638.715 534.066 639.229 534.066C639.79 534.066 640.285 534.199 640.713 534.463C641.141 534.728 641.476 535.09 641.717 535.55C641.967 536.009 642.091 536.531 642.091 537.115C642.091 537.699 641.967 538.221 641.717 538.68C641.476 539.132 641.141 539.49 640.713 539.755C640.285 540.012 639.786 540.14 639.218 540.14C638.766 540.14 638.365 540.051 638.015 539.872C637.672 539.692 637.399 539.439 637.197 539.112V542.57H635.959ZM639.007 539.066C639.537 539.066 639.973 538.886 640.316 538.528C640.658 538.162 640.83 537.687 640.83 537.103C640.83 536.722 640.752 536.383 640.596 536.087C640.44 535.791 640.226 535.561 639.954 535.398C639.681 535.226 639.366 535.141 639.007 535.141C638.478 535.141 638.042 535.324 637.699 535.69C637.364 536.056 637.197 536.527 637.197 537.103C637.197 537.687 637.364 538.162 637.699 538.528C638.042 538.886 638.478 539.066 639.007 539.066ZM643.43 540V534.206H644.528L644.633 535.024C644.82 534.728 645.066 534.495 645.369 534.323C645.681 534.152 646.039 534.066 646.444 534.066C647.363 534.066 648.001 534.428 648.36 535.153C648.57 534.818 648.85 534.553 649.201 534.358C649.559 534.164 649.944 534.066 650.357 534.066C651.081 534.066 651.65 534.284 652.062 534.72C652.475 535.156 652.681 535.807 652.681 536.671V540H651.443V536.799C651.443 535.678 651.015 535.117 650.158 535.117C649.722 535.117 649.364 535.281 649.084 535.608C648.811 535.935 648.675 536.402 648.675 537.01V540H647.437V536.799C647.437 535.678 647.005 535.117 646.14 535.117C645.712 535.117 645.358 535.281 645.077 535.608C644.805 535.935 644.668 536.402 644.668 537.01V540H643.43ZM656.84 540.14C656.271 540.14 655.765 540.016 655.321 539.766C654.885 539.509 654.543 539.155 654.294 538.703C654.044 538.252 653.92 537.726 653.92 537.127C653.92 536.519 654.04 535.986 654.282 535.526C654.531 535.067 654.874 534.709 655.31 534.452C655.754 534.195 656.268 534.066 656.852 534.066C657.42 534.066 657.915 534.195 658.335 534.452C658.756 534.701 659.083 535.036 659.316 535.456C659.55 535.877 659.667 536.34 659.667 536.846C659.667 536.924 659.663 537.01 659.655 537.103C659.655 537.189 659.651 537.286 659.643 537.395H655.135C655.173 537.956 655.356 538.384 655.684 538.68C656.018 538.968 656.404 539.112 656.84 539.112C657.19 539.112 657.482 539.034 657.716 538.879C657.957 538.715 658.136 538.497 658.253 538.225H659.491C659.336 538.77 659.024 539.225 658.557 539.591C658.098 539.957 657.525 540.14 656.84 540.14ZM656.84 535.082C656.427 535.082 656.061 535.207 655.742 535.456C655.423 535.698 655.228 536.064 655.158 536.554H658.428C658.405 536.103 658.245 535.744 657.95 535.48C657.654 535.215 657.284 535.082 656.84 535.082ZM660.951 540V534.206H662.049L662.143 535.223C662.322 534.864 662.583 534.584 662.925 534.382C663.276 534.171 663.677 534.066 664.128 534.066C664.829 534.066 665.378 534.284 665.775 534.72C666.18 535.156 666.383 535.807 666.383 536.671V540H665.156V536.799C665.156 535.678 664.697 535.117 663.778 535.117C663.319 535.117 662.937 535.281 662.633 535.608C662.337 535.935 662.189 536.402 662.189 537.01V540H660.951ZM670.271 540C669.702 540 669.251 539.864 668.916 539.591C668.581 539.311 668.413 538.816 668.413 538.108V535.246H667.421V534.206H668.413L668.565 532.735H669.652V534.206H671.287V535.246H669.652V538.108C669.652 538.427 669.718 538.649 669.85 538.774C669.99 538.89 670.228 538.949 670.563 538.949H671.229V540H670.271Z" fill="white"/>
<path d="M643.951 506V498.828H641.533V497.824H647.595V498.828H645.189V506H643.951ZM650.367 506.14C649.799 506.14 649.293 506.016 648.849 505.766C648.413 505.509 648.07 505.155 647.821 504.703C647.572 504.252 647.447 503.726 647.447 503.127C647.447 502.519 647.568 501.986 647.809 501.526C648.058 501.067 648.401 500.709 648.837 500.452C649.281 500.195 649.795 500.066 650.379 500.066C650.947 500.066 651.442 500.195 651.862 500.452C652.283 500.701 652.61 501.036 652.844 501.456C653.077 501.877 653.194 502.34 653.194 502.846C653.194 502.924 653.19 503.01 653.182 503.103C653.182 503.189 653.178 503.286 653.171 503.395H648.662C648.701 503.956 648.884 504.384 649.211 504.68C649.546 504.968 649.931 505.112 650.367 505.112C650.718 505.112 651.01 505.034 651.243 504.879C651.485 504.715 651.664 504.497 651.781 504.225H653.019C652.863 504.77 652.552 505.225 652.084 505.591C651.625 505.957 651.053 506.14 650.367 506.14ZM650.367 501.082C649.955 501.082 649.589 501.207 649.269 501.456C648.95 501.698 648.755 502.064 648.685 502.554H651.956C651.933 502.103 651.773 501.744 651.477 501.48C651.181 501.215 650.811 501.082 650.367 501.082ZM656.441 506.14C655.95 506.14 655.546 506.058 655.226 505.895C654.907 505.731 654.67 505.517 654.514 505.252C654.358 504.98 654.28 504.684 654.28 504.365C654.28 503.804 654.498 503.36 654.934 503.033C655.37 502.706 655.993 502.543 656.803 502.543H658.322V502.437C658.322 501.986 658.197 501.647 657.948 501.421C657.706 501.195 657.391 501.082 657.002 501.082C656.659 501.082 656.359 501.168 656.102 501.339C655.853 501.503 655.701 501.748 655.647 502.075H654.409C654.448 501.655 654.588 501.297 654.829 501.001C655.078 500.697 655.39 500.467 655.764 500.312C656.145 500.148 656.562 500.066 657.013 500.066C657.823 500.066 658.45 500.28 658.894 500.709C659.338 501.129 659.56 501.705 659.56 502.437V506H658.485L658.38 505.007C658.217 505.326 657.979 505.595 657.668 505.813C657.356 506.031 656.947 506.14 656.441 506.14ZM656.686 505.136C657.021 505.136 657.302 505.058 657.527 504.902C657.761 504.738 657.94 504.524 658.065 504.26C658.197 503.995 658.279 503.703 658.31 503.384H656.932C656.441 503.384 656.091 503.469 655.88 503.641C655.678 503.812 655.577 504.026 655.577 504.283C655.577 504.548 655.674 504.758 655.869 504.914C656.071 505.062 656.344 505.136 656.686 505.136ZM661.003 506V500.206H662.101L662.207 501.024C662.393 500.728 662.639 500.495 662.942 500.323C663.254 500.152 663.612 500.066 664.017 500.066C664.936 500.066 665.575 500.428 665.933 501.153C666.143 500.818 666.423 500.553 666.774 500.358C667.132 500.164 667.517 500.066 667.93 500.066C668.654 500.066 669.223 500.284 669.636 500.72C670.048 501.156 670.255 501.807 670.255 502.671V506H669.016V502.799C669.016 501.678 668.588 501.117 667.732 501.117C667.295 501.117 666.937 501.281 666.657 501.608C666.384 501.935 666.248 502.402 666.248 503.01V506H665.01V502.799C665.01 501.678 664.578 501.117 663.713 501.117C663.285 501.117 662.931 501.281 662.65 501.608C662.378 501.935 662.242 502.402 662.242 503.01V506H661.003Z" fill="white"/>
<rect x="384" y="496.24" width="19.8613" height="13.4328" fill="#0075FF"/>
<rect x="384.223" y="529" width="19.8613" height="13.4328" fill="#FFEF9C"/>
<rect x="495.223" y="496.168" width="19.8613" height="13.4328" fill="#6FE5FF"/>
<rect x="495.223" y="529" width="19.8613" height="13.4328" fill="#CF2C84"/>
<rect x="604.223" y="496.168" width="19.8613" height="13.4328" fill="#FFC3E0"/>
<path d="M378.392 118V98.896H371.864V95.6H389.048V98.896H382.488V118H378.392ZM415.846 118.384C413.606 118.384 411.643 117.893 409.958 116.912C408.294 115.931 406.982 114.576 406.022 112.848C405.083 111.099 404.614 109.083 404.614 106.8C404.614 104.517 405.083 102.512 406.022 100.784C406.982 99.0347 408.294 97.6693 409.958 96.688C411.643 95.7067 413.606 95.216 415.846 95.216C418.064 95.216 420.016 95.7067 421.702 96.688C423.387 97.6693 424.699 99.0347 425.638 100.784C426.576 102.512 427.046 104.517 427.046 106.8C427.046 109.083 426.576 111.099 425.638 112.848C424.699 114.576 423.387 115.931 421.702 116.912C420.016 117.893 418.064 118.384 415.846 118.384ZM415.846 114.704C417.979 114.704 419.675 114 420.934 112.592C422.214 111.184 422.854 109.253 422.854 106.8C422.854 104.347 422.214 102.416 420.934 101.008C419.675 99.6 417.979 98.896 415.846 98.896C413.712 98.896 412.006 99.6 410.726 101.008C409.446 102.416 408.806 104.347 408.806 106.8C408.806 109.253 409.446 111.184 410.726 112.592C412.006 114 413.712 114.704 415.846 114.704ZM444.742 118V95.6H448.838V104.656L457.126 95.6H462.182L453.926 104.496L462.406 118H457.382L450.982 107.632L448.838 109.968V118H444.742ZM479.291 118V95.6H493.915V98.896H483.387V105.04H492.955V108.24H483.387V114.704H493.915V118H479.291ZM511.871 118V95.6H515.967L526.495 111.376V95.6H530.591V118H526.495L515.967 102.256V118H511.871ZM559.509 118.384C557.269 118.384 555.307 117.893 553.621 116.912C551.957 115.931 550.645 114.576 549.685 112.848C548.747 111.099 548.277 109.083 548.277 106.8C548.277 104.517 548.747 102.512 549.685 100.784C550.645 99.0347 551.957 97.6693 553.621 96.688C555.307 95.7067 557.269 95.216 559.509 95.216C561.728 95.216 563.68 95.7067 565.365 96.688C567.051 97.6693 568.363 99.0347 569.301 100.784C570.24 102.512 570.709 104.517 570.709 106.8C570.709 109.083 570.24 111.099 569.301 112.848C568.363 114.576 567.051 115.931 565.365 116.912C563.68 117.893 561.728 118.384 559.509 118.384ZM559.509 114.704C561.643 114.704 563.339 114 564.597 112.592C565.877 111.184 566.517 109.253 566.517 106.8C566.517 104.347 565.877 102.416 564.597 101.008C563.339 99.6 561.643 98.896 559.509 98.896C557.376 98.896 555.669 99.6 554.389 101.008C553.109 102.416 552.469 104.347 552.469 106.8C552.469 109.253 553.109 111.184 554.389 112.592C555.669 114 557.376 114.704 559.509 114.704ZM588.406 118V95.6H593.27L600.406 109.808L607.446 95.6H612.31V118H608.214V102.544L601.974 114.8H598.742L592.502 102.544V118H588.406ZM630.736 118V95.6H634.832V118H630.736ZM663.398 118.384C661.136 118.384 659.195 117.904 657.574 116.944C655.952 115.963 654.704 114.608 653.83 112.88C652.955 111.131 652.518 109.115 652.518 106.832C652.518 104.549 652.955 102.533 653.83 100.784C654.704 99.0347 655.952 97.6693 657.574 96.688C659.195 95.7067 661.136 95.216 663.398 95.216C666.086 95.216 668.283 95.888 669.99 97.232C671.718 98.5547 672.795 100.421 673.222 102.832H668.71C668.432 101.616 667.835 100.667 666.918 99.984C666.022 99.28 664.827 98.928 663.334 98.928C661.264 98.928 659.643 99.632 658.47 101.04C657.296 102.448 656.71 104.379 656.71 106.832C656.71 109.285 657.296 111.216 658.47 112.624C659.643 114.011 661.264 114.704 663.334 114.704C664.827 114.704 666.022 114.384 666.918 113.744C667.835 113.083 668.432 112.176 668.71 111.024H673.222C672.795 113.328 671.718 115.131 669.99 116.432C668.283 117.733 666.086 118.384 663.398 118.384ZM698.575 118.384C696.933 118.384 695.482 118.107 694.223 117.552C692.965 116.976 691.973 116.165 691.247 115.12C690.522 114.053 690.149 112.763 690.127 111.248H694.447C694.49 112.293 694.863 113.179 695.567 113.904C696.293 114.608 697.285 114.96 698.543 114.96C699.631 114.96 700.495 114.704 701.135 114.192C701.775 113.659 702.095 112.955 702.095 112.08C702.095 111.163 701.807 110.448 701.231 109.936C700.677 109.424 699.93 109.008 698.991 108.688C698.053 108.368 697.05 108.027 695.983 107.664C694.255 107.067 692.933 106.299 692.015 105.36C691.119 104.421 690.671 103.173 690.671 101.616C690.65 100.293 690.959 99.1627 691.599 98.224C692.261 97.264 693.157 96.528 694.287 96.016C695.418 95.4827 696.719 95.216 698.191 95.216C699.685 95.216 700.997 95.4827 702.127 96.016C703.279 96.5493 704.175 97.296 704.815 98.256C705.477 99.216 705.829 100.357 705.871 101.68H701.487C701.466 100.891 701.157 100.197 700.559 99.6C699.983 98.9813 699.173 98.672 698.127 98.672C697.231 98.6507 696.474 98.8747 695.855 99.344C695.258 99.792 694.959 100.453 694.959 101.328C694.959 102.075 695.194 102.672 695.663 103.12C696.133 103.547 696.773 103.909 697.583 104.208C698.394 104.507 699.322 104.827 700.367 105.168C701.477 105.552 702.49 106 703.407 106.512C704.325 107.024 705.061 107.707 705.615 108.56C706.17 109.392 706.447 110.469 706.447 111.792C706.447 112.965 706.149 114.053 705.551 115.056C704.954 116.059 704.069 116.869 702.895 117.488C701.722 118.085 700.282 118.384 698.575 118.384Z" fill="#FCFCFC"/>
</svg>
