<svg width="1080" height="611" viewBox="0 0 1080 611" fill="none" xmlns="http://www.w3.org/2000/svg">
<rect width="1080" height="610.179" fill="#0E0E0E"/>
<path d="M100.248 313.288C99.016 313.288 97.936 313.072 97.008 312.64C96.08 312.208 95.352 311.592 94.824 310.792C94.312 309.992 94.048 309.04 94.032 307.936H96.72C96.736 308.832 97.048 309.592 97.656 310.216C98.264 310.84 99.12 311.152 100.224 311.152C101.2 311.152 101.96 310.92 102.504 310.456C103.064 309.976 103.344 309.368 103.344 308.632C103.344 308.04 103.208 307.56 102.936 307.192C102.68 306.824 102.32 306.52 101.856 306.28C101.408 306.04 100.888 305.824 100.296 305.632C99.704 305.44 99.08 305.232 98.424 305.008C97.128 304.576 96.152 304.016 95.496 303.328C94.856 302.64 94.536 301.736 94.536 300.616C94.52 299.672 94.736 298.848 95.184 298.144C95.648 297.44 96.288 296.896 97.104 296.512C97.936 296.112 98.904 295.912 100.008 295.912C101.096 295.912 102.048 296.112 102.864 296.512C103.696 296.912 104.344 297.472 104.808 298.192C105.272 298.896 105.512 299.72 105.528 300.664H102.84C102.84 300.232 102.728 299.824 102.504 299.44C102.28 299.04 101.952 298.712 101.52 298.456C101.088 298.2 100.56 298.072 99.936 298.072C99.136 298.056 98.472 298.256 97.944 298.672C97.432 299.088 97.176 299.664 97.176 300.4C97.176 301.056 97.368 301.56 97.752 301.912C98.136 302.264 98.664 302.56 99.336 302.8C100.008 303.024 100.776 303.288 101.64 303.592C102.472 303.864 103.216 304.192 103.872 304.576C104.528 304.96 105.048 305.464 105.432 306.088C105.832 306.712 106.032 307.504 106.032 308.464C106.032 309.312 105.816 310.104 105.384 310.84C104.952 311.56 104.304 312.152 103.44 312.616C102.576 313.064 101.512 313.288 100.248 313.288ZM114.285 313.288C113.117 313.288 112.077 313.032 111.165 312.52C110.269 311.992 109.565 311.264 109.053 310.336C108.541 309.408 108.285 308.328 108.285 307.096C108.285 305.848 108.533 304.752 109.029 303.808C109.541 302.864 110.245 302.128 111.141 301.6C112.053 301.072 113.109 300.808 114.309 300.808C115.477 300.808 116.493 301.072 117.357 301.6C118.221 302.112 118.893 302.8 119.373 303.664C119.853 304.528 120.093 305.48 120.093 306.52C120.093 306.68 120.085 306.856 120.069 307.048C120.069 307.224 120.061 307.424 120.045 307.648H110.781C110.861 308.8 111.237 309.68 111.909 310.288C112.597 310.88 113.389 311.176 114.285 311.176C115.005 311.176 115.605 311.016 116.085 310.696C116.581 310.36 116.949 309.912 117.189 309.352H119.733C119.413 310.472 118.773 311.408 117.813 312.16C116.869 312.912 115.693 313.288 114.285 313.288ZM114.285 302.896C113.437 302.896 112.685 303.152 112.029 303.664C111.373 304.16 110.973 304.912 110.829 305.92H117.549C117.501 304.992 117.173 304.256 116.565 303.712C115.957 303.168 115.197 302.896 114.285 302.896ZM122.733 313V301.096H125.013L125.229 303.352C125.645 302.568 126.221 301.952 126.957 301.504C127.709 301.04 128.613 300.808 129.669 300.808V303.472H128.973C128.269 303.472 127.637 303.592 127.077 303.832C126.533 304.056 126.093 304.448 125.757 305.008C125.437 305.552 125.277 306.312 125.277 307.288V313H122.733ZM135.186 313L130.722 301.096H133.386L136.698 310.576L140.01 301.096H142.65L138.21 313H135.186ZM148.093 313.288C147.085 313.288 146.253 313.12 145.597 312.784C144.941 312.448 144.453 312.008 144.133 311.464C143.813 310.904 143.653 310.296 143.653 309.64C143.653 308.488 144.101 307.576 144.997 306.904C145.893 306.232 147.173 305.896 148.837 305.896H151.957V305.68C151.957 304.752 151.701 304.056 151.189 303.592C150.693 303.128 150.045 302.896 149.245 302.896C148.541 302.896 147.925 303.072 147.397 303.424C146.885 303.76 146.573 304.264 146.461 304.936H143.917C143.997 304.072 144.285 303.336 144.781 302.728C145.293 302.104 145.933 301.632 146.701 301.312C147.485 300.976 148.341 300.808 149.269 300.808C150.933 300.808 152.221 301.248 153.133 302.128C154.045 302.992 154.501 304.176 154.501 305.68V313H152.293L152.077 310.96C151.741 311.616 151.253 312.168 150.613 312.616C149.973 313.064 149.133 313.288 148.093 313.288ZM148.597 311.224C149.285 311.224 149.861 311.064 150.325 310.744C150.805 310.408 151.173 309.968 151.429 309.424C151.701 308.88 151.869 308.28 151.933 307.624H149.101C148.093 307.624 147.373 307.8 146.941 308.152C146.525 308.504 146.317 308.944 146.317 309.472C146.317 310.016 146.517 310.448 146.917 310.768C147.333 311.072 147.893 311.224 148.597 311.224ZM156.723 313L161.907 304.504L156.675 296.2H159.579L163.539 302.488L167.235 296.2H170.091L164.883 304.624L170.163 313H167.259L163.275 306.664L159.579 313H156.723ZM178.655 313V295.72H181.199V303.016C181.599 302.328 182.151 301.792 182.855 301.408C183.575 301.008 184.367 300.808 185.231 300.808C186.655 300.808 187.775 301.256 188.591 302.152C189.407 303.048 189.815 304.384 189.815 306.16V313H187.295V306.424C187.295 304.12 186.375 302.968 184.535 302.968C183.575 302.968 182.775 303.304 182.135 303.976C181.511 304.648 181.199 305.608 181.199 306.856V313H178.655ZM196.843 313.288C195.835 313.288 195.003 313.12 194.347 312.784C193.691 312.448 193.203 312.008 192.883 311.464C192.563 310.904 192.403 310.296 192.403 309.64C192.403 308.488 192.851 307.576 193.747 306.904C194.643 306.232 195.923 305.896 197.587 305.896H200.707V305.68C200.707 304.752 200.451 304.056 199.939 303.592C199.443 303.128 198.795 302.896 197.995 302.896C197.291 302.896 196.675 303.072 196.147 303.424C195.635 303.76 195.323 304.264 195.211 304.936H192.667C192.747 304.072 193.035 303.336 193.531 302.728C194.043 302.104 194.683 301.632 195.451 301.312C196.235 300.976 197.091 300.808 198.019 300.808C199.683 300.808 200.971 301.248 201.883 302.128C202.795 302.992 203.251 304.176 203.251 305.68V313H201.043L200.827 310.96C200.491 311.616 200.003 312.168 199.363 312.616C198.723 313.064 197.883 313.288 196.843 313.288ZM197.347 311.224C198.035 311.224 198.611 311.064 199.075 310.744C199.555 310.408 199.923 309.968 200.179 309.424C200.451 308.88 200.619 308.28 200.683 307.624H197.851C196.843 307.624 196.123 307.8 195.691 308.152C195.275 308.504 195.067 308.944 195.067 309.472C195.067 310.016 195.267 310.448 195.667 310.768C196.083 311.072 196.643 311.224 197.347 311.224ZM210.969 313.288C209.465 313.288 208.225 312.92 207.249 312.184C206.273 311.448 205.713 310.472 205.569 309.256H208.137C208.265 309.8 208.569 310.272 209.049 310.672C209.529 311.056 210.161 311.248 210.945 311.248C211.713 311.248 212.273 311.088 212.625 310.768C212.977 310.448 213.153 310.08 213.153 309.664C213.153 309.056 212.905 308.648 212.409 308.44C211.929 308.216 211.257 308.016 210.393 307.84C209.721 307.696 209.049 307.504 208.377 307.264C207.721 307.024 207.169 306.688 206.721 306.256C206.289 305.808 206.073 305.208 206.073 304.456C206.073 303.416 206.473 302.552 207.273 301.864C208.073 301.16 209.193 300.808 210.633 300.808C211.961 300.808 213.033 301.128 213.849 301.768C214.681 302.408 215.169 303.312 215.313 304.48H212.865C212.785 303.968 212.545 303.568 212.145 303.28C211.761 302.992 211.241 302.848 210.585 302.848C209.945 302.848 209.449 302.984 209.097 303.256C208.745 303.512 208.569 303.848 208.569 304.264C208.569 304.68 208.809 305.008 209.289 305.248C209.785 305.488 210.433 305.704 211.233 305.896C212.033 306.072 212.769 306.28 213.441 306.52C214.129 306.744 214.681 307.08 215.097 307.528C215.513 307.976 215.721 308.632 215.721 309.496C215.737 310.584 215.313 311.488 214.449 312.208C213.601 312.928 212.441 313.288 210.969 313.288ZM228.578 313.288C227.57 313.288 226.738 313.12 226.082 312.784C225.426 312.448 224.938 312.008 224.618 311.464C224.298 310.904 224.138 310.296 224.138 309.64C224.138 308.488 224.586 307.576 225.482 306.904C226.378 306.232 227.658 305.896 229.322 305.896H232.442V305.68C232.442 304.752 232.186 304.056 231.674 303.592C231.178 303.128 230.53 302.896 229.73 302.896C229.026 302.896 228.41 303.072 227.882 303.424C227.37 303.76 227.058 304.264 226.946 304.936H224.402C224.482 304.072 224.77 303.336 225.266 302.728C225.778 302.104 226.418 301.632 227.186 301.312C227.97 300.976 228.826 300.808 229.754 300.808C231.418 300.808 232.706 301.248 233.618 302.128C234.53 302.992 234.986 304.176 234.986 305.68V313H232.778L232.562 310.96C232.226 311.616 231.738 312.168 231.098 312.616C230.458 313.064 229.618 313.288 228.578 313.288ZM229.082 311.224C229.77 311.224 230.346 311.064 230.81 310.744C231.29 310.408 231.658 309.968 231.914 309.424C232.186 308.88 232.354 308.28 232.418 307.624H229.586C228.578 307.624 227.858 307.8 227.426 308.152C227.01 308.504 226.802 308.944 226.802 309.472C226.802 310.016 227.002 310.448 227.402 310.768C227.818 311.072 228.378 311.224 229.082 311.224ZM248.871 309.352C248.247 309.352 247.671 309.28 247.143 309.136L246.111 310.144C246.287 310.256 246.503 310.352 246.759 310.432C247.015 310.512 247.375 310.584 247.839 310.648C248.303 310.712 248.935 310.776 249.735 310.84C251.319 310.984 252.463 311.368 253.167 311.992C253.871 312.6 254.223 313.416 254.223 314.44C254.223 315.144 254.031 315.808 253.647 316.432C253.279 317.072 252.695 317.584 251.895 317.968C251.111 318.368 250.103 318.568 248.871 318.568C247.207 318.568 245.855 318.248 244.815 317.608C243.791 316.984 243.279 316.032 243.279 314.752C243.279 314.256 243.407 313.76 243.663 313.264C243.935 312.784 244.359 312.328 244.935 311.896C244.599 311.752 244.303 311.6 244.047 311.44C243.807 311.264 243.591 311.088 243.399 310.912V310.336L245.463 308.224C244.535 307.424 244.071 306.376 244.071 305.08C244.071 304.296 244.255 303.584 244.623 302.944C245.007 302.288 245.559 301.768 246.279 301.384C246.999 301 247.863 300.808 248.871 300.808C249.543 300.808 250.167 300.904 250.743 301.096H255.183V302.776L253.071 302.896C253.455 303.552 253.647 304.28 253.647 305.08C253.647 305.88 253.455 306.6 253.071 307.24C252.703 307.88 252.159 308.392 251.439 308.776C250.735 309.16 249.879 309.352 248.871 309.352ZM248.871 307.36C249.607 307.36 250.199 307.168 250.647 306.784C251.111 306.384 251.343 305.824 251.343 305.104C251.343 304.368 251.111 303.808 250.647 303.424C250.199 303.04 249.607 302.848 248.871 302.848C248.119 302.848 247.511 303.04 247.047 303.424C246.599 303.808 246.375 304.368 246.375 305.104C246.375 305.824 246.599 306.384 247.047 306.784C247.511 307.168 248.119 307.36 248.871 307.36ZM245.679 314.512C245.679 315.2 245.983 315.712 246.591 316.048C247.199 316.4 247.959 316.576 248.871 316.576C249.751 316.576 250.463 316.384 251.007 316C251.551 315.632 251.823 315.136 251.823 314.512C251.823 314.048 251.639 313.648 251.271 313.312C250.903 312.992 250.207 312.792 249.183 312.712C248.415 312.664 247.735 312.592 247.143 312.496C246.583 312.8 246.199 313.128 245.991 313.48C245.783 313.832 245.679 314.176 245.679 314.512ZM262.551 313.288C261.415 313.288 260.391 313.032 259.479 312.52C258.583 311.992 257.871 311.264 257.343 310.336C256.815 309.392 256.551 308.296 256.551 307.048C256.551 305.8 256.815 304.712 257.343 303.784C257.887 302.84 258.615 302.112 259.527 301.6C260.439 301.072 261.455 300.808 262.575 300.808C263.711 300.808 264.727 301.072 265.623 301.6C266.535 302.112 267.255 302.84 267.783 303.784C268.327 304.712 268.599 305.8 268.599 307.048C268.599 308.296 268.327 309.392 267.783 310.336C267.255 311.264 266.535 311.992 265.623 312.52C264.711 313.032 263.687 313.288 262.551 313.288ZM262.551 311.104C263.159 311.104 263.719 310.952 264.231 310.648C264.759 310.344 265.183 309.896 265.503 309.304C265.823 308.696 265.983 307.944 265.983 307.048C265.983 306.152 265.823 305.408 265.503 304.816C265.199 304.208 264.783 303.752 264.255 303.448C263.743 303.144 263.183 302.992 262.575 302.992C261.967 302.992 261.399 303.144 260.871 303.448C260.359 303.752 259.943 304.208 259.623 304.816C259.303 305.408 259.143 306.152 259.143 307.048C259.143 307.944 259.303 308.696 259.623 309.304C259.943 309.896 260.359 310.344 260.871 310.648C261.383 310.952 261.943 311.104 262.551 311.104ZM274.077 313L269.613 301.096H272.277L275.589 310.576L278.901 301.096H281.541L277.101 313H274.077ZM288.59 313.288C287.422 313.288 286.382 313.032 285.47 312.52C284.574 311.992 283.87 311.264 283.358 310.336C282.846 309.408 282.59 308.328 282.59 307.096C282.59 305.848 282.838 304.752 283.334 303.808C283.846 302.864 284.55 302.128 285.446 301.6C286.358 301.072 287.414 300.808 288.614 300.808C289.782 300.808 290.798 301.072 291.662 301.6C292.526 302.112 293.198 302.8 293.678 303.664C294.158 304.528 294.398 305.48 294.398 306.52C294.398 306.68 294.39 306.856 294.374 307.048C294.374 307.224 294.366 307.424 294.35 307.648H285.086C285.166 308.8 285.542 309.68 286.214 310.288C286.902 310.88 287.694 311.176 288.59 311.176C289.31 311.176 289.91 311.016 290.39 310.696C290.886 310.36 291.254 309.912 291.494 309.352H294.038C293.718 310.472 293.078 311.408 292.118 312.16C291.174 312.912 289.998 313.288 288.59 313.288ZM288.59 302.896C287.742 302.896 286.99 303.152 286.334 303.664C285.678 304.16 285.278 304.912 285.134 305.92H291.854C291.806 304.992 291.478 304.256 290.87 303.712C290.262 303.168 289.502 302.896 288.59 302.896ZM297.038 313V301.096H299.318L299.534 303.352C299.95 302.568 300.526 301.952 301.262 301.504C302.014 301.04 302.918 300.808 303.974 300.808V303.472H303.278C302.574 303.472 301.942 303.592 301.382 303.832C300.838 304.056 300.398 304.448 300.062 305.008C299.742 305.552 299.582 306.312 299.582 307.288V313H297.038ZM306.155 313V301.096H308.411L308.603 303.184C308.971 302.448 309.507 301.872 310.211 301.456C310.931 301.024 311.755 300.808 312.683 300.808C314.123 300.808 315.251 301.256 316.067 302.152C316.899 303.048 317.315 304.384 317.315 306.16V313H314.795V306.424C314.795 304.12 313.851 302.968 311.963 302.968C311.019 302.968 310.235 303.304 309.611 303.976C309.003 304.648 308.699 305.608 308.699 306.856V313H306.155ZM324.343 313.288C323.335 313.288 322.503 313.12 321.847 312.784C321.191 312.448 320.703 312.008 320.383 311.464C320.063 310.904 319.903 310.296 319.903 309.64C319.903 308.488 320.351 307.576 321.247 306.904C322.143 306.232 323.423 305.896 325.087 305.896H328.207V305.68C328.207 304.752 327.951 304.056 327.439 303.592C326.943 303.128 326.295 302.896 325.495 302.896C324.791 302.896 324.175 303.072 323.647 303.424C323.135 303.76 322.823 304.264 322.711 304.936H320.167C320.247 304.072 320.535 303.336 321.031 302.728C321.543 302.104 322.183 301.632 322.951 301.312C323.735 300.976 324.591 300.808 325.519 300.808C327.183 300.808 328.471 301.248 329.383 302.128C330.295 302.992 330.751 304.176 330.751 305.68V313H328.543L328.327 310.96C327.991 311.616 327.503 312.168 326.863 312.616C326.223 313.064 325.383 313.288 324.343 313.288ZM324.847 311.224C325.535 311.224 326.111 311.064 326.575 310.744C327.055 310.408 327.423 309.968 327.679 309.424C327.951 308.88 328.119 308.28 328.183 307.624H325.351C324.343 307.624 323.623 307.8 323.191 308.152C322.775 308.504 322.567 308.944 322.567 309.472C322.567 310.016 322.767 310.448 323.167 310.768C323.583 311.072 324.143 311.224 324.847 311.224ZM333.717 313V301.096H335.973L336.165 303.184C336.533 302.448 337.069 301.872 337.773 301.456C338.493 301.024 339.317 300.808 340.245 300.808C341.685 300.808 342.813 301.256 343.629 302.152C344.461 303.048 344.877 304.384 344.877 306.16V313H342.357V306.424C342.357 304.12 341.413 302.968 339.525 302.968C338.581 302.968 337.797 303.304 337.173 303.976C336.565 304.648 336.261 305.608 336.261 306.856V313H333.717ZM353.514 313.288C352.346 313.288 351.298 313.024 350.37 312.496C349.458 311.968 348.738 311.24 348.21 310.312C347.698 309.368 347.442 308.28 347.442 307.048C347.442 305.816 347.698 304.736 348.21 303.808C348.738 302.864 349.458 302.128 350.37 301.6C351.298 301.072 352.346 300.808 353.514 300.808C354.986 300.808 356.218 301.192 357.21 301.96C358.218 302.728 358.866 303.768 359.154 305.08H356.49C356.33 304.424 355.978 303.912 355.434 303.544C354.89 303.176 354.25 302.992 353.514 302.992C352.89 302.992 352.314 303.152 351.786 303.472C351.258 303.776 350.834 304.232 350.514 304.84C350.194 305.432 350.034 306.168 350.034 307.048C350.034 307.928 350.194 308.672 350.514 309.28C350.834 309.872 351.258 310.328 351.786 310.648C352.314 310.968 352.89 311.128 353.514 311.128C354.25 311.128 354.89 310.944 355.434 310.576C355.978 310.208 356.33 309.688 356.49 309.016H359.154C358.882 310.296 358.242 311.328 357.234 312.112C356.226 312.896 354.986 313.288 353.514 313.288ZM367.481 313.288C366.313 313.288 365.273 313.032 364.361 312.52C363.465 311.992 362.761 311.264 362.249 310.336C361.737 309.408 361.481 308.328 361.481 307.096C361.481 305.848 361.729 304.752 362.225 303.808C362.737 302.864 363.441 302.128 364.337 301.6C365.249 301.072 366.305 300.808 367.505 300.808C368.673 300.808 369.689 301.072 370.553 301.6C371.417 302.112 372.089 302.8 372.569 303.664C373.049 304.528 373.289 305.48 373.289 306.52C373.289 306.68 373.281 306.856 373.265 307.048C373.265 307.224 373.257 307.424 373.241 307.648H363.977C364.057 308.8 364.433 309.68 365.105 310.288C365.793 310.88 366.585 311.176 367.481 311.176C368.201 311.176 368.801 311.016 369.281 310.696C369.777 310.36 370.145 309.912 370.385 309.352H372.929C372.609 310.472 371.969 311.408 371.009 312.16C370.065 312.912 368.889 313.288 367.481 313.288ZM367.481 302.896C366.633 302.896 365.881 303.152 365.225 303.664C364.569 304.16 364.169 304.912 364.025 305.92H370.745C370.697 304.992 370.369 304.256 369.761 303.712C369.153 303.168 368.393 302.896 367.481 302.896ZM386.967 313C385.799 313 384.871 312.72 384.183 312.16C383.495 311.584 383.151 310.568 383.151 309.112V303.232H381.111V301.096H383.151L383.463 298.072H385.695V301.096H389.055V303.232H385.695V309.112C385.695 309.768 385.831 310.224 386.103 310.48C386.391 310.72 386.879 310.84 387.567 310.84H388.935V313H386.967ZM396.942 313.288C395.806 313.288 394.782 313.032 393.87 312.52C392.974 311.992 392.262 311.264 391.734 310.336C391.206 309.392 390.942 308.296 390.942 307.048C390.942 305.8 391.206 304.712 391.734 303.784C392.278 302.84 393.006 302.112 393.918 301.6C394.83 301.072 395.846 300.808 396.966 300.808C398.102 300.808 399.118 301.072 400.014 301.6C400.926 302.112 401.646 302.84 402.174 303.784C402.718 304.712 402.99 305.8 402.99 307.048C402.99 308.296 402.718 309.392 402.174 310.336C401.646 311.264 400.926 311.992 400.014 312.52C399.102 313.032 398.078 313.288 396.942 313.288ZM396.942 311.104C397.55 311.104 398.11 310.952 398.622 310.648C399.15 310.344 399.574 309.896 399.894 309.304C400.214 308.696 400.374 307.944 400.374 307.048C400.374 306.152 400.214 305.408 399.894 304.816C399.59 304.208 399.174 303.752 398.646 303.448C398.134 303.144 397.574 302.992 396.966 302.992C396.358 302.992 395.79 303.144 395.262 303.448C394.75 303.752 394.334 304.208 394.014 304.816C393.694 305.408 393.534 306.152 393.534 307.048C393.534 307.944 393.694 308.696 394.014 309.304C394.334 309.896 394.75 310.344 395.262 310.648C395.774 310.952 396.334 311.104 396.942 311.104ZM405.741 313V295.72H408.285V306.016L412.845 301.096H415.893L410.829 306.496L416.637 313H413.421L408.285 306.904V313H405.741ZM423.262 313.288C422.094 313.288 421.054 313.032 420.142 312.52C419.246 311.992 418.542 311.264 418.03 310.336C417.518 309.408 417.262 308.328 417.262 307.096C417.262 305.848 417.51 304.752 418.006 303.808C418.518 302.864 419.222 302.128 420.118 301.6C421.03 301.072 422.086 300.808 423.286 300.808C424.454 300.808 425.47 301.072 426.334 301.6C427.198 302.112 427.87 302.8 428.35 303.664C428.83 304.528 429.07 305.48 429.07 306.52C429.07 306.68 429.062 306.856 429.046 307.048C429.046 307.224 429.038 307.424 429.022 307.648H419.758C419.838 308.8 420.214 309.68 420.886 310.288C421.574 310.88 422.366 311.176 423.262 311.176C423.982 311.176 424.582 311.016 425.062 310.696C425.558 310.36 425.926 309.912 426.166 309.352H428.71C428.39 310.472 427.75 311.408 426.79 312.16C425.846 312.912 424.67 313.288 423.262 313.288ZM423.262 302.896C422.414 302.896 421.662 303.152 421.006 303.664C420.35 304.16 419.95 304.912 419.806 305.92H426.526C426.478 304.992 426.15 304.256 425.542 303.712C424.934 303.168 424.174 302.896 423.262 302.896ZM431.71 313V301.096H433.966L434.158 303.184C434.526 302.448 435.062 301.872 435.766 301.456C436.486 301.024 437.31 300.808 438.238 300.808C439.678 300.808 440.806 301.256 441.622 302.152C442.454 303.048 442.87 304.384 442.87 306.16V313H440.35V306.424C440.35 304.12 439.406 302.968 437.518 302.968C436.574 302.968 435.79 303.304 435.166 303.976C434.558 304.648 434.254 305.608 434.254 306.856V313H431.71ZM451.673 307.096V304.96H461.441V307.096H451.673ZM476.068 313.288C474.836 313.288 473.756 313.072 472.828 312.64C471.9 312.208 471.172 311.592 470.644 310.792C470.132 309.992 469.868 309.04 469.852 307.936H472.54C472.556 308.832 472.868 309.592 473.476 310.216C474.084 310.84 474.94 311.152 476.044 311.152C477.02 311.152 477.78 310.92 478.324 310.456C478.884 309.976 479.164 309.368 479.164 308.632C479.164 308.04 479.028 307.56 478.756 307.192C478.5 306.824 478.14 306.52 477.676 306.28C477.228 306.04 476.708 305.824 476.116 305.632C475.524 305.44 474.9 305.232 474.244 305.008C472.948 304.576 471.972 304.016 471.316 303.328C470.676 302.64 470.356 301.736 470.356 300.616C470.34 299.672 470.556 298.848 471.004 298.144C471.468 297.44 472.108 296.896 472.924 296.512C473.756 296.112 474.724 295.912 475.828 295.912C476.916 295.912 477.868 296.112 478.684 296.512C479.516 296.912 480.164 297.472 480.628 298.192C481.092 298.896 481.332 299.72 481.348 300.664H478.66C478.66 300.232 478.548 299.824 478.324 299.44C478.1 299.04 477.772 298.712 477.34 298.456C476.908 298.2 476.38 298.072 475.756 298.072C474.956 298.056 474.292 298.256 473.764 298.672C473.252 299.088 472.996 299.664 472.996 300.4C472.996 301.056 473.188 301.56 473.572 301.912C473.956 302.264 474.484 302.56 475.156 302.8C475.828 303.024 476.596 303.288 477.46 303.592C478.292 303.864 479.036 304.192 479.692 304.576C480.348 304.96 480.868 305.464 481.252 306.088C481.652 306.712 481.852 307.504 481.852 308.464C481.852 309.312 481.636 310.104 481.204 310.84C480.772 311.56 480.124 312.152 479.26 312.616C478.396 313.064 477.332 313.288 476.068 313.288ZM490.106 313.288C488.938 313.288 487.898 313.032 486.986 312.52C486.09 311.992 485.386 311.264 484.874 310.336C484.362 309.408 484.106 308.328 484.106 307.096C484.106 305.848 484.354 304.752 484.85 303.808C485.362 302.864 486.066 302.128 486.962 301.6C487.874 301.072 488.93 300.808 490.13 300.808C491.298 300.808 492.314 301.072 493.178 301.6C494.042 302.112 494.714 302.8 495.194 303.664C495.674 304.528 495.914 305.48 495.914 306.52C495.914 306.68 495.906 306.856 495.89 307.048C495.89 307.224 495.882 307.424 495.866 307.648H486.602C486.682 308.8 487.058 309.68 487.73 310.288C488.418 310.88 489.21 311.176 490.106 311.176C490.826 311.176 491.426 311.016 491.906 310.696C492.402 310.36 492.77 309.912 493.01 309.352H495.554C495.234 310.472 494.594 311.408 493.634 312.16C492.69 312.912 491.514 313.288 490.106 313.288ZM490.106 302.896C489.258 302.896 488.506 303.152 487.85 303.664C487.194 304.16 486.794 304.912 486.65 305.92H493.37C493.322 304.992 492.994 304.256 492.386 303.712C491.778 303.168 491.018 302.896 490.106 302.896ZM498.553 313V301.096H500.833L501.049 303.352C501.465 302.568 502.041 301.952 502.777 301.504C503.529 301.04 504.433 300.808 505.489 300.808V303.472H504.793C504.089 303.472 503.457 303.592 502.897 303.832C502.353 304.056 501.913 304.448 501.577 305.008C501.257 305.552 501.097 306.312 501.097 307.288V313H498.553ZM511.007 313L506.543 301.096H509.207L512.519 310.576L515.831 301.096H518.471L514.031 313H511.007ZM523.913 313.288C522.905 313.288 522.073 313.12 521.417 312.784C520.761 312.448 520.273 312.008 519.953 311.464C519.633 310.904 519.473 310.296 519.473 309.64C519.473 308.488 519.921 307.576 520.817 306.904C521.713 306.232 522.993 305.896 524.657 305.896H527.777V305.68C527.777 304.752 527.521 304.056 527.009 303.592C526.513 303.128 525.865 302.896 525.065 302.896C524.361 302.896 523.745 303.072 523.217 303.424C522.705 303.76 522.393 304.264 522.281 304.936H519.737C519.817 304.072 520.105 303.336 520.601 302.728C521.113 302.104 521.753 301.632 522.521 301.312C523.305 300.976 524.161 300.808 525.089 300.808C526.753 300.808 528.041 301.248 528.953 302.128C529.865 302.992 530.321 304.176 530.321 305.68V313H528.113L527.897 310.96C527.561 311.616 527.073 312.168 526.433 312.616C525.793 313.064 524.953 313.288 523.913 313.288ZM524.417 311.224C525.105 311.224 525.681 311.064 526.145 310.744C526.625 310.408 526.993 309.968 527.249 309.424C527.521 308.88 527.689 308.28 527.753 307.624H524.921C523.913 307.624 523.193 307.8 522.761 308.152C522.345 308.504 522.137 308.944 522.137 309.472C522.137 310.016 522.337 310.448 522.737 310.768C523.153 311.072 523.713 311.224 524.417 311.224ZM540.872 313.288C539.208 313.288 537.768 312.928 536.552 312.208C535.352 311.472 534.424 310.456 533.768 309.16C533.112 307.848 532.784 306.336 532.784 304.624C532.784 302.896 533.112 301.384 533.768 300.088C534.424 298.776 535.352 297.752 536.552 297.016C537.768 296.28 539.208 295.912 540.872 295.912C542.84 295.912 544.448 296.392 545.696 297.352C546.944 298.312 547.736 299.656 548.072 301.384H545.24C545.016 300.408 544.536 299.632 543.8 299.056C543.064 298.48 542.08 298.192 540.848 298.192C539.168 298.192 537.84 298.768 536.864 299.92C535.888 301.056 535.4 302.624 535.4 304.624C535.4 306.608 535.888 308.168 536.864 309.304C537.84 310.44 539.168 311.008 540.848 311.008C542.08 311.008 543.064 310.736 543.8 310.192C544.536 309.648 545.016 308.904 545.24 307.96H548.072C547.736 309.624 546.944 310.928 545.696 311.872C544.448 312.816 542.84 313.288 540.872 313.288ZM556.34 313.288C555.204 313.288 554.18 313.032 553.268 312.52C552.372 311.992 551.66 311.264 551.132 310.336C550.604 309.392 550.34 308.296 550.34 307.048C550.34 305.8 550.604 304.712 551.132 303.784C551.676 302.84 552.404 302.112 553.316 301.6C554.228 301.072 555.244 300.808 556.364 300.808C557.5 300.808 558.516 301.072 559.412 301.6C560.324 302.112 561.044 302.84 561.572 303.784C562.116 304.712 562.388 305.8 562.388 307.048C562.388 308.296 562.116 309.392 561.572 310.336C561.044 311.264 560.324 311.992 559.412 312.52C558.5 313.032 557.476 313.288 556.34 313.288ZM556.34 311.104C556.948 311.104 557.508 310.952 558.02 310.648C558.548 310.344 558.972 309.896 559.292 309.304C559.612 308.696 559.772 307.944 559.772 307.048C559.772 306.152 559.612 305.408 559.292 304.816C558.988 304.208 558.572 303.752 558.044 303.448C557.532 303.144 556.972 302.992 556.364 302.992C555.756 302.992 555.188 303.144 554.66 303.448C554.148 303.752 553.732 304.208 553.412 304.816C553.092 305.408 552.932 306.152 552.932 307.048C552.932 307.944 553.092 308.696 553.412 309.304C553.732 309.896 554.148 310.344 554.66 310.648C555.172 310.952 555.732 311.104 556.34 311.104ZM566.579 298.84C566.099 298.84 565.699 298.696 565.379 298.408C565.075 298.104 564.923 297.728 564.923 297.28C564.923 296.832 565.075 296.464 565.379 296.176C565.699 295.872 566.099 295.72 566.579 295.72C567.059 295.72 567.451 295.872 567.755 296.176C568.075 296.464 568.235 296.832 568.235 297.28C568.235 297.728 568.075 298.104 567.755 298.408C567.451 298.696 567.059 298.84 566.579 298.84ZM565.307 313V301.096H567.851V313H565.307ZM571.21 313V301.096H573.466L573.658 303.184C574.026 302.448 574.562 301.872 575.266 301.456C575.986 301.024 576.81 300.808 577.738 300.808C579.178 300.808 580.306 301.256 581.122 302.152C581.954 303.048 582.37 304.384 582.37 306.16V313H579.85V306.424C579.85 304.12 578.906 302.968 577.018 302.968C576.074 302.968 575.29 303.304 574.666 303.976C574.058 304.648 573.754 305.608 573.754 306.856V313H571.21ZM100.248 344.288C99.08 344.288 98.032 344.024 97.104 343.496C96.192 342.968 95.472 342.24 94.944 341.312C94.432 340.368 94.176 339.28 94.176 338.048C94.176 336.816 94.432 335.736 94.944 334.808C95.472 333.864 96.192 333.128 97.104 332.6C98.032 332.072 99.08 331.808 100.248 331.808C101.72 331.808 102.952 332.192 103.944 332.96C104.952 333.728 105.6 334.768 105.888 336.08H103.224C103.064 335.424 102.712 334.912 102.168 334.544C101.624 334.176 100.984 333.992 100.248 333.992C99.624 333.992 99.048 334.152 98.52 334.472C97.992 334.776 97.568 335.232 97.248 335.84C96.928 336.432 96.768 337.168 96.768 338.048C96.768 338.928 96.928 339.672 97.248 340.28C97.568 340.872 97.992 341.328 98.52 341.648C99.048 341.968 99.624 342.128 100.248 342.128C100.984 342.128 101.624 341.944 102.168 341.576C102.712 341.208 103.064 340.688 103.224 340.016H105.888C105.616 341.296 104.976 342.328 103.968 343.112C102.96 343.896 101.72 344.288 100.248 344.288ZM108.647 344V332.096H110.927L111.143 334.352C111.559 333.568 112.135 332.952 112.871 332.504C113.623 332.04 114.527 331.808 115.583 331.808V334.472H114.887C114.183 334.472 113.551 334.592 112.991 334.832C112.447 335.056 112.007 335.448 111.671 336.008C111.351 336.552 111.191 337.312 111.191 338.288V344H108.647ZM123.004 344.288C121.836 344.288 120.796 344.032 119.884 343.52C118.988 342.992 118.284 342.264 117.772 341.336C117.26 340.408 117.004 339.328 117.004 338.096C117.004 336.848 117.252 335.752 117.748 334.808C118.26 333.864 118.964 333.128 119.86 332.6C120.772 332.072 121.828 331.808 123.028 331.808C124.196 331.808 125.212 332.072 126.076 332.6C126.94 333.112 127.612 333.8 128.092 334.664C128.572 335.528 128.812 336.48 128.812 337.52C128.812 337.68 128.804 337.856 128.788 338.048C128.788 338.224 128.78 338.424 128.764 338.648H119.5C119.58 339.8 119.956 340.68 120.628 341.288C121.316 341.88 122.108 342.176 123.004 342.176C123.724 342.176 124.324 342.016 124.804 341.696C125.3 341.36 125.668 340.912 125.908 340.352H128.452C128.132 341.472 127.492 342.408 126.532 343.16C125.588 343.912 124.412 344.288 123.004 344.288ZM123.004 333.896C122.156 333.896 121.404 334.152 120.748 334.664C120.092 335.16 119.692 335.912 119.548 336.92H126.268C126.22 335.992 125.892 335.256 125.284 334.712C124.676 334.168 123.916 333.896 123.004 333.896ZM135.484 344.288C134.476 344.288 133.644 344.12 132.988 343.784C132.332 343.448 131.844 343.008 131.524 342.464C131.204 341.904 131.044 341.296 131.044 340.64C131.044 339.488 131.492 338.576 132.388 337.904C133.284 337.232 134.564 336.896 136.228 336.896H139.348V336.68C139.348 335.752 139.092 335.056 138.58 334.592C138.084 334.128 137.436 333.896 136.636 333.896C135.932 333.896 135.316 334.072 134.788 334.424C134.276 334.76 133.964 335.264 133.852 335.936H131.308C131.388 335.072 131.676 334.336 132.172 333.728C132.684 333.104 133.324 332.632 134.092 332.312C134.876 331.976 135.732 331.808 136.66 331.808C138.324 331.808 139.612 332.248 140.524 333.128C141.436 333.992 141.892 335.176 141.892 336.68V344H139.684L139.468 341.96C139.132 342.616 138.644 343.168 138.004 343.616C137.364 344.064 136.524 344.288 135.484 344.288ZM135.988 342.224C136.676 342.224 137.252 342.064 137.716 341.744C138.196 341.408 138.564 340.968 138.82 340.424C139.092 339.88 139.26 339.28 139.324 338.624H136.492C135.484 338.624 134.764 338.8 134.332 339.152C133.916 339.504 133.708 339.944 133.708 340.472C133.708 341.016 133.908 341.448 134.308 341.768C134.724 342.072 135.284 342.224 135.988 342.224ZM149.616 344C148.448 344 147.52 343.72 146.832 343.16C146.144 342.584 145.8 341.568 145.8 340.112V334.232H143.76V332.096H145.8L146.112 329.072H148.344V332.096H151.704V334.232H148.344V340.112C148.344 340.768 148.48 341.224 148.752 341.48C149.04 341.72 149.528 341.84 150.216 341.84H151.584V344H149.616ZM159.59 344.288C158.422 344.288 157.382 344.032 156.47 343.52C155.574 342.992 154.87 342.264 154.358 341.336C153.846 340.408 153.59 339.328 153.59 338.096C153.59 336.848 153.838 335.752 154.334 334.808C154.846 333.864 155.55 333.128 156.446 332.6C157.358 332.072 158.414 331.808 159.614 331.808C160.782 331.808 161.798 332.072 162.662 332.6C163.526 333.112 164.198 333.8 164.678 334.664C165.158 335.528 165.398 336.48 165.398 337.52C165.398 337.68 165.39 337.856 165.374 338.048C165.374 338.224 165.366 338.424 165.35 338.648H156.086C156.166 339.8 156.542 340.68 157.214 341.288C157.902 341.88 158.694 342.176 159.59 342.176C160.31 342.176 160.91 342.016 161.39 341.696C161.886 341.36 162.254 340.912 162.494 340.352H165.038C164.718 341.472 164.078 342.408 163.118 343.16C162.174 343.912 160.998 344.288 159.59 344.288ZM159.59 333.896C158.742 333.896 157.99 334.152 157.334 334.664C156.678 335.16 156.278 335.912 156.134 336.92H162.854C162.806 335.992 162.478 335.256 161.87 334.712C161.262 334.168 160.502 333.896 159.59 333.896ZM173.462 344.288C172.31 344.288 171.294 344.016 170.414 343.472C169.534 342.928 168.846 342.184 168.35 341.24C167.854 340.296 167.606 339.224 167.606 338.024C167.606 336.824 167.854 335.76 168.35 334.832C168.846 333.888 169.534 333.152 170.414 332.624C171.31 332.08 172.334 331.808 173.486 331.808C174.43 331.808 175.254 331.992 175.958 332.36C176.678 332.728 177.238 333.248 177.638 333.92V326.72H180.182V344H177.902L177.638 342.152C177.254 342.712 176.726 343.208 176.054 343.64C175.382 344.072 174.518 344.288 173.462 344.288ZM173.918 342.08C175.006 342.08 175.894 341.704 176.582 340.952C177.286 340.2 177.638 339.232 177.638 338.048C177.638 336.848 177.286 335.88 176.582 335.144C175.894 334.392 175.006 334.016 173.918 334.016C172.83 334.016 171.934 334.392 171.23 335.144C170.526 335.88 170.174 336.848 170.174 338.048C170.174 338.832 170.334 339.528 170.654 340.136C170.974 340.744 171.414 341.224 171.974 341.576C172.55 341.912 173.198 342.08 173.918 342.08ZM195.004 344.288C193.868 344.288 192.844 344.032 191.932 343.52C191.036 342.992 190.324 342.264 189.796 341.336C189.268 340.392 189.004 339.296 189.004 338.048C189.004 336.8 189.268 335.712 189.796 334.784C190.34 333.84 191.068 333.112 191.98 332.6C192.892 332.072 193.908 331.808 195.028 331.808C196.164 331.808 197.18 332.072 198.076 332.6C198.988 333.112 199.708 333.84 200.236 334.784C200.78 335.712 201.052 336.8 201.052 338.048C201.052 339.296 200.78 340.392 200.236 341.336C199.708 342.264 198.988 342.992 198.076 343.52C197.164 344.032 196.14 344.288 195.004 344.288ZM195.004 342.104C195.612 342.104 196.172 341.952 196.684 341.648C197.212 341.344 197.636 340.896 197.956 340.304C198.276 339.696 198.436 338.944 198.436 338.048C198.436 337.152 198.276 336.408 197.956 335.816C197.652 335.208 197.236 334.752 196.708 334.448C196.196 334.144 195.636 333.992 195.028 333.992C194.42 333.992 193.852 334.144 193.324 334.448C192.812 334.752 192.396 335.208 192.076 335.816C191.756 336.408 191.596 337.152 191.596 338.048C191.596 338.944 191.756 339.696 192.076 340.304C192.396 340.896 192.812 341.344 193.324 341.648C193.836 341.952 194.396 342.104 195.004 342.104ZM203.803 344V332.096H206.059L206.251 334.184C206.619 333.448 207.155 332.872 207.859 332.456C208.579 332.024 209.403 331.808 210.331 331.808C211.771 331.808 212.899 332.256 213.715 333.152C214.547 334.048 214.963 335.384 214.963 337.16V344H212.443V337.424C212.443 335.12 211.499 333.968 209.611 333.968C208.667 333.968 207.883 334.304 207.259 334.976C206.651 335.648 206.347 336.608 206.347 337.856V344H203.803ZM230.149 344V327.2H236.485C238.229 327.2 239.549 327.608 240.445 328.424C241.341 329.24 241.789 330.264 241.789 331.496C241.789 332.568 241.501 333.424 240.925 334.064C240.349 334.688 239.653 335.112 238.837 335.336C239.477 335.464 240.045 335.72 240.541 336.104C241.053 336.488 241.453 336.968 241.741 337.544C242.029 338.12 242.173 338.744 242.173 339.416C242.173 340.28 241.957 341.064 241.525 341.768C241.109 342.456 240.493 343 239.677 343.4C238.861 343.8 237.861 344 236.677 344H230.149ZM232.693 334.4H236.173C237.149 334.4 237.893 334.176 238.405 333.728C238.917 333.264 239.173 332.632 239.173 331.832C239.173 331.048 238.917 330.424 238.405 329.96C237.909 329.496 237.149 329.264 236.125 329.264H232.693V334.4ZM232.693 341.912H236.341C237.365 341.912 238.157 341.672 238.717 341.192C239.293 340.712 239.581 340.04 239.581 339.176C239.581 338.312 239.285 337.632 238.693 337.136C238.101 336.624 237.301 336.368 236.293 336.368H232.693V341.912ZM244.962 344V327.2H255.642V329.264H247.506V334.496H254.922V336.512H247.506V341.936H255.642V344H244.962ZM258.673 344V327.2H264.553C265.865 327.2 266.953 327.424 267.817 327.872C268.681 328.304 269.321 328.904 269.737 329.672C270.169 330.424 270.385 331.28 270.385 332.24C270.385 333.152 270.177 333.992 269.761 334.76C269.361 335.512 268.729 336.112 267.865 336.56C267.001 337.008 265.897 337.232 264.553 337.232H261.217V344H258.673ZM261.217 335.144H264.433C265.633 335.144 266.489 334.888 267.001 334.376C267.529 333.848 267.793 333.136 267.793 332.24C267.793 331.312 267.529 330.592 267.001 330.08C266.489 329.552 265.633 329.288 264.433 329.288H261.217V335.144ZM272.563 338.096V335.96H282.331V338.096H272.563ZM285.032 344V342.176C286.12 341.312 287.16 340.44 288.152 339.56C289.144 338.68 290.024 337.816 290.792 336.968C291.576 336.104 292.192 335.264 292.64 334.448C293.088 333.616 293.312 332.816 293.312 332.048C293.312 331.536 293.224 331.056 293.048 330.608C292.872 330.144 292.584 329.776 292.184 329.504C291.784 329.216 291.248 329.072 290.576 329.072C289.568 329.072 288.808 329.392 288.296 330.032C287.8 330.672 287.56 331.44 287.576 332.336H285.104C285.12 331.152 285.368 330.16 285.848 329.36C286.344 328.56 287 327.952 287.816 327.536C288.648 327.12 289.584 326.912 290.624 326.912C292.208 326.912 293.472 327.36 294.416 328.256C295.376 329.136 295.856 330.368 295.856 331.952C295.856 332.896 295.624 333.832 295.16 334.76C294.712 335.688 294.12 336.584 293.384 337.448C292.664 338.296 291.888 339.096 291.056 339.848C290.224 340.6 289.432 341.28 288.68 341.888H296.36V344H285.032ZM305.635 344.288C304.115 344.288 302.803 343.928 301.699 343.208C300.611 342.472 299.771 341.456 299.179 340.16C298.603 338.848 298.315 337.328 298.315 335.6C298.315 333.872 298.603 332.36 299.179 331.064C299.771 329.752 300.611 328.736 301.699 328.016C302.803 327.28 304.115 326.912 305.635 326.912C307.155 326.912 308.459 327.28 309.547 328.016C310.635 328.736 311.467 329.752 312.043 331.064C312.635 332.36 312.931 333.872 312.931 335.6C312.931 337.328 312.635 338.848 312.043 340.16C311.467 341.456 310.635 342.472 309.547 343.208C308.459 343.928 307.155 344.288 305.635 344.288ZM305.635 342.008C306.547 342.008 307.355 341.752 308.059 341.24C308.779 340.728 309.339 339.992 309.739 339.032C310.139 338.072 310.339 336.928 310.339 335.6C310.339 334.272 310.139 333.128 309.739 332.168C309.339 331.208 308.779 330.472 308.059 329.96C307.355 329.448 306.547 329.192 305.635 329.192C304.707 329.192 303.891 329.448 303.187 329.96C302.483 330.472 301.931 331.208 301.531 332.168C301.131 333.128 300.931 334.272 300.931 335.6C300.931 336.928 301.131 338.072 301.531 339.032C301.931 339.992 302.483 340.728 303.187 341.24C303.891 341.752 304.707 342.008 305.635 342.008ZM321.813 344V327.2H328.149C329.893 327.2 331.213 327.608 332.109 328.424C333.005 329.24 333.453 330.264 333.453 331.496C333.453 332.568 333.165 333.424 332.589 334.064C332.013 334.688 331.317 335.112 330.501 335.336C331.141 335.464 331.709 335.72 332.205 336.104C332.717 336.488 333.117 336.968 333.405 337.544C333.693 338.12 333.837 338.744 333.837 339.416C333.837 340.28 333.621 341.064 333.189 341.768C332.773 342.456 332.157 343 331.341 343.4C330.525 343.8 329.525 344 328.341 344H321.813ZM324.357 334.4H327.837C328.813 334.4 329.557 334.176 330.069 333.728C330.581 333.264 330.837 332.632 330.837 331.832C330.837 331.048 330.581 330.424 330.069 329.96C329.573 329.496 328.813 329.264 327.789 329.264H324.357V334.4ZM324.357 341.912H328.005C329.029 341.912 329.821 341.672 330.381 341.192C330.957 340.712 331.245 340.04 331.245 339.176C331.245 338.312 330.949 337.632 330.357 337.136C329.765 336.624 328.965 336.368 327.957 336.368H324.357V341.912ZM342.17 344.288C340.938 344.288 339.858 344.072 338.93 343.64C338.002 343.208 337.274 342.592 336.746 341.792C336.234 340.992 335.97 340.04 335.954 338.936H338.642C338.658 339.832 338.97 340.592 339.578 341.216C340.186 341.84 341.042 342.152 342.146 342.152C343.122 342.152 343.882 341.92 344.426 341.456C344.986 340.976 345.266 340.368 345.266 339.632C345.266 339.04 345.13 338.56 344.858 338.192C344.602 337.824 344.242 337.52 343.778 337.28C343.33 337.04 342.81 336.824 342.218 336.632C341.626 336.44 341.002 336.232 340.346 336.008C339.05 335.576 338.074 335.016 337.418 334.328C336.778 333.64 336.458 332.736 336.458 331.616C336.442 330.672 336.658 329.848 337.106 329.144C337.57 328.44 338.21 327.896 339.026 327.512C339.858 327.112 340.826 326.912 341.93 326.912C343.018 326.912 343.97 327.112 344.786 327.512C345.618 327.912 346.266 328.472 346.73 329.192C347.194 329.896 347.434 330.72 347.45 331.664H344.762C344.762 331.232 344.65 330.824 344.426 330.44C344.202 330.04 343.874 329.712 343.442 329.456C343.01 329.2 342.482 329.072 341.858 329.072C341.058 329.056 340.394 329.256 339.866 329.672C339.354 330.088 339.098 330.664 339.098 331.4C339.098 332.056 339.29 332.56 339.674 332.912C340.058 333.264 340.586 333.56 341.258 333.8C341.93 334.024 342.698 334.288 343.562 334.592C344.394 334.864 345.138 335.192 345.794 335.576C346.45 335.96 346.97 336.464 347.354 337.088C347.754 337.712 347.954 338.504 347.954 339.464C347.954 340.312 347.738 341.104 347.306 341.84C346.874 342.56 346.226 343.152 345.362 343.616C344.498 344.064 343.434 344.288 342.17 344.288ZM358.223 344.288C356.559 344.288 355.119 343.928 353.903 343.208C352.703 342.472 351.775 341.456 351.119 340.16C350.463 338.848 350.135 337.336 350.135 335.624C350.135 333.896 350.463 332.384 351.119 331.088C351.775 329.776 352.703 328.752 353.903 328.016C355.119 327.28 356.559 326.912 358.223 326.912C360.191 326.912 361.799 327.392 363.047 328.352C364.295 329.312 365.087 330.656 365.423 332.384H362.591C362.367 331.408 361.887 330.632 361.151 330.056C360.415 329.48 359.431 329.192 358.199 329.192C356.519 329.192 355.191 329.768 354.215 330.92C353.239 332.056 352.751 333.624 352.751 335.624C352.751 337.608 353.239 339.168 354.215 340.304C355.191 341.44 356.519 342.008 358.199 342.008C359.431 342.008 360.415 341.736 361.151 341.192C361.887 340.648 362.367 339.904 362.591 338.96H365.423C365.087 340.624 364.295 341.928 363.047 342.872C361.799 343.816 360.191 344.288 358.223 344.288ZM369.132 344.144C368.652 344.144 368.252 343.992 367.932 343.688C367.628 343.368 367.476 342.992 367.476 342.56C367.476 342.112 367.628 341.736 367.932 341.432C368.252 341.112 368.652 340.952 369.132 340.952C369.612 340.952 370.004 341.112 370.308 341.432C370.612 341.736 370.764 342.112 370.764 342.56C370.764 342.992 370.612 343.368 370.308 343.688C370.004 343.992 369.612 344.144 369.132 344.144ZM383.406 344V329.264H378.438V327.2H390.894V329.264H385.95V344H383.406ZM393.178 344V326.72H395.722V334.016C396.122 333.328 396.674 332.792 397.378 332.408C398.098 332.008 398.89 331.808 399.754 331.808C401.178 331.808 402.298 332.256 403.114 333.152C403.93 334.048 404.338 335.384 404.338 337.16V344H401.818V337.424C401.818 335.12 400.898 333.968 399.058 333.968C398.098 333.968 397.298 334.304 396.658 334.976C396.034 335.648 395.722 336.608 395.722 337.856V344H393.178ZM412.903 344.288C411.735 344.288 410.695 344.032 409.783 343.52C408.887 342.992 408.183 342.264 407.671 341.336C407.159 340.408 406.903 339.328 406.903 338.096C406.903 336.848 407.151 335.752 407.647 334.808C408.159 333.864 408.863 333.128 409.759 332.6C410.671 332.072 411.727 331.808 412.927 331.808C414.095 331.808 415.111 332.072 415.975 332.6C416.839 333.112 417.511 333.8 417.991 334.664C418.471 335.528 418.711 336.48 418.711 337.52C418.711 337.68 418.703 337.856 418.687 338.048C418.687 338.224 418.679 338.424 418.663 338.648H409.399C409.479 339.8 409.855 340.68 410.527 341.288C411.215 341.88 412.007 342.176 412.903 342.176C413.623 342.176 414.223 342.016 414.703 341.696C415.199 341.36 415.567 340.912 415.807 340.352H418.351C418.031 341.472 417.391 342.408 416.431 343.16C415.487 343.912 414.311 344.288 412.903 344.288ZM412.903 333.896C412.055 333.896 411.303 334.152 410.647 334.664C409.991 335.16 409.591 335.912 409.447 336.92H416.167C416.119 335.992 415.791 335.256 415.183 334.712C414.575 334.168 413.815 333.896 412.903 333.896ZM432.389 344C431.221 344 430.293 343.72 429.605 343.16C428.917 342.584 428.573 341.568 428.573 340.112V334.232H426.533V332.096H428.573L428.885 329.072H431.117V332.096H434.477V334.232H431.117V340.112C431.117 340.768 431.253 341.224 431.525 341.48C431.813 341.72 432.301 341.84 432.989 341.84H434.357V344H432.389ZM442.364 344.288C441.228 344.288 440.204 344.032 439.292 343.52C438.396 342.992 437.684 342.264 437.156 341.336C436.628 340.392 436.364 339.296 436.364 338.048C436.364 336.8 436.628 335.712 437.156 334.784C437.7 333.84 438.428 333.112 439.34 332.6C440.252 332.072 441.268 331.808 442.388 331.808C443.524 331.808 444.54 332.072 445.436 332.6C446.348 333.112 447.068 333.84 447.596 334.784C448.14 335.712 448.411 336.8 448.411 338.048C448.411 339.296 448.14 340.392 447.596 341.336C447.068 342.264 446.348 342.992 445.436 343.52C444.524 344.032 443.5 344.288 442.364 344.288ZM442.364 342.104C442.972 342.104 443.532 341.952 444.044 341.648C444.572 341.344 444.996 340.896 445.316 340.304C445.636 339.696 445.796 338.944 445.796 338.048C445.796 337.152 445.636 336.408 445.316 335.816C445.012 335.208 444.596 334.752 444.068 334.448C443.556 334.144 442.996 333.992 442.388 333.992C441.78 333.992 441.212 334.144 440.684 334.448C440.172 334.752 439.756 335.208 439.436 335.816C439.116 336.408 438.956 337.152 438.956 338.048C438.956 338.944 439.116 339.696 439.436 340.304C439.756 340.896 440.172 341.344 440.684 341.648C441.196 341.952 441.756 342.104 442.364 342.104ZM455.686 344C454.518 344 453.59 343.72 452.902 343.16C452.214 342.584 451.87 341.568 451.87 340.112V334.232H449.83V332.096H451.87L452.182 329.072H454.414V332.096H457.774V334.232H454.414V340.112C454.414 340.768 454.55 341.224 454.822 341.48C455.11 341.72 455.598 341.84 456.286 341.84H457.654V344H455.686ZM464.429 344.288C463.421 344.288 462.589 344.12 461.933 343.784C461.277 343.448 460.789 343.008 460.469 342.464C460.149 341.904 459.989 341.296 459.989 340.64C459.989 339.488 460.437 338.576 461.333 337.904C462.229 337.232 463.509 336.896 465.173 336.896H468.293V336.68C468.293 335.752 468.037 335.056 467.525 334.592C467.029 334.128 466.381 333.896 465.581 333.896C464.877 333.896 464.261 334.072 463.733 334.424C463.221 334.76 462.909 335.264 462.797 335.936H460.253C460.333 335.072 460.621 334.336 461.117 333.728C461.629 333.104 462.269 332.632 463.037 332.312C463.821 331.976 464.677 331.808 465.605 331.808C467.269 331.808 468.557 332.248 469.469 333.128C470.381 333.992 470.837 335.176 470.837 336.68V344H468.629L468.413 341.96C468.077 342.616 467.589 343.168 466.949 343.616C466.309 344.064 465.469 344.288 464.429 344.288ZM464.933 342.224C465.621 342.224 466.197 342.064 466.661 341.744C467.141 341.408 467.509 340.968 467.765 340.424C468.037 339.88 468.205 339.28 468.269 338.624H465.437C464.429 338.624 463.709 338.8 463.277 339.152C462.861 339.504 462.653 339.944 462.653 340.472C462.653 341.016 462.853 341.448 463.253 341.768C463.669 342.072 464.229 342.224 464.933 342.224ZM473.803 344V326.72H476.347V344H473.803ZM490.368 344.288C488.864 344.288 487.624 343.92 486.648 343.184C485.672 342.448 485.112 341.472 484.968 340.256H487.536C487.664 340.8 487.968 341.272 488.448 341.672C488.928 342.056 489.56 342.248 490.344 342.248C491.112 342.248 491.672 342.088 492.024 341.768C492.376 341.448 492.552 341.08 492.552 340.664C492.552 340.056 492.304 339.648 491.808 339.44C491.328 339.216 490.656 339.016 489.792 338.84C489.12 338.696 488.448 338.504 487.776 338.264C487.12 338.024 486.568 337.688 486.12 337.256C485.688 336.808 485.472 336.208 485.472 335.456C485.472 334.416 485.872 333.552 486.672 332.864C487.472 332.16 488.592 331.808 490.032 331.808C491.36 331.808 492.432 332.128 493.248 332.768C494.08 333.408 494.568 334.312 494.712 335.48H492.264C492.184 334.968 491.944 334.568 491.544 334.28C491.16 333.992 490.64 333.848 489.984 333.848C489.344 333.848 488.848 333.984 488.496 334.256C488.144 334.512 487.968 334.848 487.968 335.264C487.968 335.68 488.208 336.008 488.688 336.248C489.184 336.488 489.832 336.704 490.632 336.896C491.432 337.072 492.168 337.28 492.84 337.52C493.528 337.744 494.08 338.08 494.496 338.528C494.912 338.976 495.12 339.632 495.12 340.496C495.136 341.584 494.712 342.488 493.848 343.208C493 343.928 491.84 344.288 490.368 344.288ZM502.289 344.288C500.849 344.288 499.713 343.84 498.881 342.944C498.065 342.048 497.657 340.712 497.657 338.936V332.096H500.201V338.672C500.201 340.976 501.145 342.128 503.033 342.128C503.977 342.128 504.753 341.792 505.361 341.12C505.969 340.448 506.273 339.488 506.273 338.24V332.096H508.817V344H506.561L506.369 341.912C506.001 342.648 505.457 343.232 504.737 343.664C504.033 344.08 503.217 344.288 502.289 344.288ZM512.053 349.28V332.096H514.333L514.597 333.944C514.981 333.384 515.509 332.888 516.181 332.456C516.853 332.024 517.717 331.808 518.773 331.808C519.925 331.808 520.941 332.08 521.821 332.624C522.701 333.168 523.389 333.912 523.885 334.856C524.397 335.8 524.653 336.872 524.653 338.072C524.653 339.272 524.397 340.344 523.885 341.288C523.389 342.216 522.701 342.952 521.821 343.496C520.941 344.024 519.917 344.288 518.749 344.288C517.821 344.288 516.997 344.104 516.277 343.736C515.573 343.368 515.013 342.848 514.597 342.176V349.28H512.053ZM518.317 342.08C519.405 342.08 520.301 341.712 521.005 340.976C521.709 340.224 522.061 339.248 522.061 338.048C522.061 337.264 521.901 336.568 521.581 335.96C521.261 335.352 520.821 334.88 520.261 334.544C519.701 334.192 519.053 334.016 518.317 334.016C517.229 334.016 516.333 334.392 515.629 335.144C514.941 335.896 514.597 336.864 514.597 338.048C514.597 339.248 514.941 340.224 515.629 340.976C516.333 341.712 517.229 342.08 518.317 342.08ZM527.405 349.28V332.096H529.685L529.949 333.944C530.333 333.384 530.861 332.888 531.533 332.456C532.205 332.024 533.069 331.808 534.125 331.808C535.277 331.808 536.293 332.08 537.173 332.624C538.053 333.168 538.741 333.912 539.237 334.856C539.749 335.8 540.005 336.872 540.005 338.072C540.005 339.272 539.749 340.344 539.237 341.288C538.741 342.216 538.053 342.952 537.173 343.496C536.293 344.024 535.269 344.288 534.101 344.288C533.173 344.288 532.349 344.104 531.629 343.736C530.925 343.368 530.365 342.848 529.949 342.176V349.28H527.405ZM533.669 342.08C534.757 342.08 535.653 341.712 536.357 340.976C537.061 340.224 537.413 339.248 537.413 338.048C537.413 337.264 537.253 336.568 536.933 335.96C536.613 335.352 536.173 334.88 535.613 334.544C535.053 334.192 534.405 334.016 533.669 334.016C532.581 334.016 531.685 334.392 530.981 335.144C530.293 335.896 529.949 336.864 529.949 338.048C529.949 339.248 530.293 340.224 530.981 340.976C531.685 341.712 532.581 342.08 533.669 342.08ZM542.756 344V326.72H545.3V344H542.756ZM549.914 349.28L552.77 343.016H552.074L547.37 332.096H550.13L553.778 340.904L557.594 332.096H560.282L552.602 349.28H549.914ZM100.248 375.288C99.08 375.288 98.032 375.024 97.104 374.496C96.192 373.968 95.472 373.24 94.944 372.312C94.432 371.368 94.176 370.28 94.176 369.048C94.176 367.816 94.432 366.736 94.944 365.808C95.472 364.864 96.192 364.128 97.104 363.6C98.032 363.072 99.08 362.808 100.248 362.808C101.72 362.808 102.952 363.192 103.944 363.96C104.952 364.728 105.6 365.768 105.888 367.08H103.224C103.064 366.424 102.712 365.912 102.168 365.544C101.624 365.176 100.984 364.992 100.248 364.992C99.624 364.992 99.048 365.152 98.52 365.472C97.992 365.776 97.568 366.232 97.248 366.84C96.928 367.432 96.768 368.168 96.768 369.048C96.768 369.928 96.928 370.672 97.248 371.28C97.568 371.872 97.992 372.328 98.52 372.648C99.048 372.968 99.624 373.128 100.248 373.128C100.984 373.128 101.624 372.944 102.168 372.576C102.712 372.208 103.064 371.688 103.224 371.016H105.888C105.616 372.296 104.976 373.328 103.968 374.112C102.96 374.896 101.72 375.288 100.248 375.288ZM112.679 375.288C111.671 375.288 110.839 375.12 110.183 374.784C109.527 374.448 109.039 374.008 108.719 373.464C108.399 372.904 108.239 372.296 108.239 371.64C108.239 370.488 108.687 369.576 109.583 368.904C110.479 368.232 111.759 367.896 113.423 367.896H116.543V367.68C116.543 366.752 116.287 366.056 115.775 365.592C115.279 365.128 114.631 364.896 113.831 364.896C113.127 364.896 112.511 365.072 111.983 365.424C111.471 365.76 111.159 366.264 111.047 366.936H108.503C108.583 366.072 108.871 365.336 109.367 364.728C109.879 364.104 110.519 363.632 111.287 363.312C112.071 362.976 112.927 362.808 113.855 362.808C115.519 362.808 116.807 363.248 117.719 364.128C118.631 364.992 119.087 366.176 119.087 367.68V375H116.879L116.663 372.96C116.327 373.616 115.839 374.168 115.199 374.616C114.559 375.064 113.719 375.288 112.679 375.288ZM113.183 373.224C113.871 373.224 114.447 373.064 114.911 372.744C115.391 372.408 115.759 371.968 116.015 371.424C116.287 370.88 116.455 370.28 116.519 369.624H113.687C112.679 369.624 111.959 369.8 111.527 370.152C111.111 370.504 110.903 370.944 110.903 371.472C110.903 372.016 111.103 372.448 111.503 372.768C111.919 373.072 112.479 373.224 113.183 373.224ZM122.053 380.28V363.096H124.333L124.597 364.944C124.981 364.384 125.509 363.888 126.181 363.456C126.853 363.024 127.717 362.808 128.773 362.808C129.925 362.808 130.941 363.08 131.821 363.624C132.701 364.168 133.389 364.912 133.885 365.856C134.397 366.8 134.653 367.872 134.653 369.072C134.653 370.272 134.397 371.344 133.885 372.288C133.389 373.216 132.701 373.952 131.821 374.496C130.941 375.024 129.917 375.288 128.749 375.288C127.821 375.288 126.997 375.104 126.277 374.736C125.573 374.368 125.013 373.848 124.597 373.176V380.28H122.053ZM128.317 373.08C129.405 373.08 130.301 372.712 131.005 371.976C131.709 371.224 132.061 370.248 132.061 369.048C132.061 368.264 131.901 367.568 131.581 366.96C131.261 366.352 130.821 365.88 130.261 365.544C129.701 365.192 129.053 365.016 128.317 365.016C127.229 365.016 126.333 365.392 125.629 366.144C124.941 366.896 124.597 367.864 124.597 369.048C124.597 370.248 124.941 371.224 125.629 371.976C126.333 372.712 127.229 373.08 128.317 373.08ZM142.157 375.288C140.653 375.288 139.413 374.92 138.437 374.184C137.461 373.448 136.901 372.472 136.757 371.256H139.325C139.453 371.8 139.757 372.272 140.237 372.672C140.717 373.056 141.349 373.248 142.133 373.248C142.901 373.248 143.461 373.088 143.813 372.768C144.165 372.448 144.341 372.08 144.341 371.664C144.341 371.056 144.093 370.648 143.597 370.44C143.117 370.216 142.445 370.016 141.581 369.84C140.909 369.696 140.237 369.504 139.565 369.264C138.909 369.024 138.357 368.688 137.909 368.256C137.477 367.808 137.261 367.208 137.261 366.456C137.261 365.416 137.661 364.552 138.461 363.864C139.261 363.16 140.381 362.808 141.821 362.808C143.149 362.808 144.221 363.128 145.037 363.768C145.869 364.408 146.357 365.312 146.501 366.48H144.053C143.973 365.968 143.733 365.568 143.333 365.28C142.949 364.992 142.429 364.848 141.773 364.848C141.133 364.848 140.637 364.984 140.285 365.256C139.933 365.512 139.757 365.848 139.757 366.264C139.757 366.68 139.997 367.008 140.477 367.248C140.973 367.488 141.621 367.704 142.421 367.896C143.221 368.072 143.957 368.28 144.629 368.52C145.317 368.744 145.869 369.08 146.285 369.528C146.701 369.976 146.909 370.632 146.909 371.496C146.925 372.584 146.501 373.488 145.637 374.208C144.789 374.928 143.629 375.288 142.157 375.288ZM159.765 375.288C158.757 375.288 157.925 375.12 157.269 374.784C156.613 374.448 156.125 374.008 155.805 373.464C155.485 372.904 155.325 372.296 155.325 371.64C155.325 370.488 155.773 369.576 156.669 368.904C157.565 368.232 158.845 367.896 160.509 367.896H163.629V367.68C163.629 366.752 163.373 366.056 162.861 365.592C162.365 365.128 161.717 364.896 160.917 364.896C160.213 364.896 159.597 365.072 159.069 365.424C158.557 365.76 158.245 366.264 158.133 366.936H155.589C155.669 366.072 155.957 365.336 156.453 364.728C156.965 364.104 157.605 363.632 158.373 363.312C159.157 362.976 160.013 362.808 160.941 362.808C162.605 362.808 163.893 363.248 164.805 364.128C165.717 364.992 166.173 366.176 166.173 367.68V375H163.965L163.749 372.96C163.413 373.616 162.925 374.168 162.285 374.616C161.645 375.064 160.805 375.288 159.765 375.288ZM160.269 373.224C160.957 373.224 161.533 373.064 161.997 372.744C162.477 372.408 162.845 371.968 163.101 371.424C163.373 370.88 163.541 370.28 163.605 369.624H160.773C159.765 369.624 159.045 369.8 158.613 370.152C158.197 370.504 157.989 370.944 157.989 371.472C157.989 372.016 158.189 372.448 158.589 372.768C159.005 373.072 159.565 373.224 160.269 373.224ZM173.897 375C172.729 375 171.801 374.72 171.113 374.16C170.425 373.584 170.081 372.568 170.081 371.112V365.232H168.041V363.096H170.081L170.393 360.072H172.625V363.096H175.985V365.232H172.625V371.112C172.625 371.768 172.761 372.224 173.033 372.48C173.321 372.72 173.809 372.84 174.497 372.84H175.865V375H173.897ZM186.479 375V361.08L183.767 361.704V359.832L187.487 358.2H189.119V375H186.479ZM199.252 375.288C197.732 375.288 196.42 374.928 195.316 374.208C194.228 373.472 193.388 372.456 192.796 371.16C192.22 369.848 191.932 368.328 191.932 366.6C191.932 364.872 192.22 363.36 192.796 362.064C193.388 360.752 194.228 359.736 195.316 359.016C196.42 358.28 197.732 357.912 199.252 357.912C200.772 357.912 202.076 358.28 203.164 359.016C204.252 359.736 205.084 360.752 205.66 362.064C206.252 363.36 206.548 364.872 206.548 366.6C206.548 368.328 206.252 369.848 205.66 371.16C205.084 372.456 204.252 373.472 203.164 374.208C202.076 374.928 200.772 375.288 199.252 375.288ZM199.252 373.008C200.164 373.008 200.972 372.752 201.676 372.24C202.396 371.728 202.956 370.992 203.356 370.032C203.756 369.072 203.956 367.928 203.956 366.6C203.956 365.272 203.756 364.128 203.356 363.168C202.956 362.208 202.396 361.472 201.676 360.96C200.972 360.448 200.164 360.192 199.252 360.192C198.324 360.192 197.508 360.448 196.804 360.96C196.1 361.472 195.548 362.208 195.148 363.168C194.748 364.128 194.548 365.272 194.548 366.6C194.548 367.928 194.748 369.072 195.148 370.032C195.548 370.992 196.1 371.728 196.804 372.24C197.508 372.752 198.324 373.008 199.252 373.008ZM207.145 377.832L208.537 372.168H211.057L208.849 377.832H207.145ZM220.276 375.288C218.756 375.288 217.444 374.928 216.34 374.208C215.252 373.472 214.412 372.456 213.82 371.16C213.244 369.848 212.956 368.328 212.956 366.6C212.956 364.872 213.244 363.36 213.82 362.064C214.412 360.752 215.252 359.736 216.34 359.016C217.444 358.28 218.756 357.912 220.276 357.912C221.796 357.912 223.1 358.28 224.188 359.016C225.276 359.736 226.108 360.752 226.684 362.064C227.276 363.36 227.572 364.872 227.572 366.6C227.572 368.328 227.276 369.848 226.684 371.16C226.108 372.456 225.276 373.472 224.188 374.208C223.1 374.928 221.796 375.288 220.276 375.288ZM220.276 373.008C221.188 373.008 221.996 372.752 222.7 372.24C223.42 371.728 223.98 370.992 224.38 370.032C224.78 369.072 224.98 367.928 224.98 366.6C224.98 365.272 224.78 364.128 224.38 363.168C223.98 362.208 223.42 361.472 222.7 360.96C221.996 360.448 221.188 360.192 220.276 360.192C219.348 360.192 218.532 360.448 217.828 360.96C217.124 361.472 216.572 362.208 216.172 363.168C215.772 364.128 215.572 365.272 215.572 366.6C215.572 367.928 215.772 369.072 216.172 370.032C216.572 370.992 217.124 371.728 217.828 372.24C218.532 372.752 219.348 373.008 220.276 373.008ZM237.127 375.288C235.607 375.288 234.295 374.928 233.191 374.208C232.103 373.472 231.263 372.456 230.671 371.16C230.095 369.848 229.807 368.328 229.807 366.6C229.807 364.872 230.095 363.36 230.671 362.064C231.263 360.752 232.103 359.736 233.191 359.016C234.295 358.28 235.607 357.912 237.127 357.912C238.647 357.912 239.951 358.28 241.039 359.016C242.127 359.736 242.959 360.752 243.535 362.064C244.127 363.36 244.423 364.872 244.423 366.6C244.423 368.328 244.127 369.848 243.535 371.16C242.959 372.456 242.127 373.472 241.039 374.208C239.951 374.928 238.647 375.288 237.127 375.288ZM237.127 373.008C238.039 373.008 238.847 372.752 239.551 372.24C240.271 371.728 240.831 370.992 241.231 370.032C241.631 369.072 241.831 367.928 241.831 366.6C241.831 365.272 241.631 364.128 241.231 363.168C240.831 362.208 240.271 361.472 239.551 360.96C238.847 360.448 238.039 360.192 237.127 360.192C236.199 360.192 235.383 360.448 234.679 360.96C233.975 361.472 233.423 362.208 233.023 363.168C232.623 364.128 232.423 365.272 232.423 366.6C232.423 367.928 232.623 369.072 233.023 370.032C233.423 370.992 233.975 371.728 234.679 372.24C235.383 372.752 236.199 373.008 237.127 373.008ZM253.979 375.288C252.459 375.288 251.147 374.928 250.043 374.208C248.955 373.472 248.115 372.456 247.523 371.16C246.947 369.848 246.659 368.328 246.659 366.6C246.659 364.872 246.947 363.36 247.523 362.064C248.115 360.752 248.955 359.736 250.043 359.016C251.147 358.28 252.459 357.912 253.979 357.912C255.499 357.912 256.803 358.28 257.891 359.016C258.979 359.736 259.811 360.752 260.387 362.064C260.979 363.36 261.275 364.872 261.275 366.6C261.275 368.328 260.979 369.848 260.387 371.16C259.811 372.456 258.979 373.472 257.891 374.208C256.803 374.928 255.499 375.288 253.979 375.288ZM253.979 373.008C254.891 373.008 255.699 372.752 256.403 372.24C257.123 371.728 257.683 370.992 258.083 370.032C258.483 369.072 258.683 367.928 258.683 366.6C258.683 365.272 258.483 364.128 258.083 363.168C257.683 362.208 257.123 361.472 256.403 360.96C255.699 360.448 254.891 360.192 253.979 360.192C253.051 360.192 252.235 360.448 251.531 360.96C250.827 361.472 250.275 362.208 249.875 363.168C249.475 364.128 249.275 365.272 249.275 366.6C249.275 367.928 249.475 369.072 249.875 370.032C250.275 370.992 250.827 371.728 251.531 372.24C252.235 372.752 253.051 373.008 253.979 373.008ZM261.872 377.832L263.264 372.168H265.784L263.576 377.832H261.872ZM275.002 375.288C273.482 375.288 272.17 374.928 271.066 374.208C269.978 373.472 269.138 372.456 268.546 371.16C267.97 369.848 267.682 368.328 267.682 366.6C267.682 364.872 267.97 363.36 268.546 362.064C269.138 360.752 269.978 359.736 271.066 359.016C272.17 358.28 273.482 357.912 275.002 357.912C276.522 357.912 277.826 358.28 278.914 359.016C280.002 359.736 280.834 360.752 281.41 362.064C282.002 363.36 282.298 364.872 282.298 366.6C282.298 368.328 282.002 369.848 281.41 371.16C280.834 372.456 280.002 373.472 278.914 374.208C277.826 374.928 276.522 375.288 275.002 375.288ZM275.002 373.008C275.914 373.008 276.722 372.752 277.426 372.24C278.146 371.728 278.706 370.992 279.106 370.032C279.506 369.072 279.706 367.928 279.706 366.6C279.706 365.272 279.506 364.128 279.106 363.168C278.706 362.208 278.146 361.472 277.426 360.96C276.722 360.448 275.914 360.192 275.002 360.192C274.074 360.192 273.258 360.448 272.554 360.96C271.85 361.472 271.298 362.208 270.898 363.168C270.498 364.128 270.298 365.272 270.298 366.6C270.298 367.928 270.498 369.072 270.898 370.032C271.298 370.992 271.85 371.728 272.554 372.24C273.258 372.752 274.074 373.008 275.002 373.008ZM291.854 375.288C290.334 375.288 289.022 374.928 287.918 374.208C286.83 373.472 285.99 372.456 285.398 371.16C284.822 369.848 284.534 368.328 284.534 366.6C284.534 364.872 284.822 363.36 285.398 362.064C285.99 360.752 286.83 359.736 287.918 359.016C289.022 358.28 290.334 357.912 291.854 357.912C293.374 357.912 294.678 358.28 295.766 359.016C296.854 359.736 297.686 360.752 298.262 362.064C298.854 363.36 299.15 364.872 299.15 366.6C299.15 368.328 298.854 369.848 298.262 371.16C297.686 372.456 296.854 373.472 295.766 374.208C294.678 374.928 293.374 375.288 291.854 375.288ZM291.854 373.008C292.766 373.008 293.574 372.752 294.278 372.24C294.998 371.728 295.558 370.992 295.958 370.032C296.358 369.072 296.558 367.928 296.558 366.6C296.558 365.272 296.358 364.128 295.958 363.168C295.558 362.208 294.998 361.472 294.278 360.96C293.574 360.448 292.766 360.192 291.854 360.192C290.926 360.192 290.11 360.448 289.406 360.96C288.702 361.472 288.15 362.208 287.75 363.168C287.35 364.128 287.15 365.272 287.15 366.6C287.15 367.928 287.35 369.072 287.75 370.032C288.15 370.992 288.702 371.728 289.406 372.24C290.11 372.752 290.926 373.008 291.854 373.008ZM308.705 375.288C307.185 375.288 305.873 374.928 304.769 374.208C303.681 373.472 302.841 372.456 302.249 371.16C301.673 369.848 301.385 368.328 301.385 366.6C301.385 364.872 301.673 363.36 302.249 362.064C302.841 360.752 303.681 359.736 304.769 359.016C305.873 358.28 307.185 357.912 308.705 357.912C310.225 357.912 311.529 358.28 312.617 359.016C313.705 359.736 314.537 360.752 315.113 362.064C315.705 363.36 316.001 364.872 316.001 366.6C316.001 368.328 315.705 369.848 315.113 371.16C314.537 372.456 313.705 373.472 312.617 374.208C311.529 374.928 310.225 375.288 308.705 375.288ZM308.705 373.008C309.617 373.008 310.425 372.752 311.129 372.24C311.849 371.728 312.409 370.992 312.809 370.032C313.209 369.072 313.409 367.928 313.409 366.6C313.409 365.272 313.209 364.128 312.809 363.168C312.409 362.208 311.849 361.472 311.129 360.96C310.425 360.448 309.617 360.192 308.705 360.192C307.777 360.192 306.961 360.448 306.257 360.96C305.553 361.472 305.001 362.208 304.601 363.168C304.201 364.128 304.001 365.272 304.001 366.6C304.001 367.928 304.201 369.072 304.601 370.032C305.001 370.992 305.553 371.728 306.257 372.24C306.961 372.752 307.777 373.008 308.705 373.008ZM330.428 375.288C329.196 375.288 328.116 375.072 327.188 374.64C326.26 374.208 325.532 373.592 325.004 372.792C324.492 371.992 324.228 371.04 324.212 369.936H326.9C326.916 370.832 327.228 371.592 327.836 372.216C328.444 372.84 329.3 373.152 330.404 373.152C331.38 373.152 332.14 372.92 332.684 372.456C333.244 371.976 333.524 371.368 333.524 370.632C333.524 370.04 333.388 369.56 333.116 369.192C332.86 368.824 332.5 368.52 332.036 368.28C331.588 368.04 331.068 367.824 330.476 367.632C329.884 367.44 329.26 367.232 328.604 367.008C327.308 366.576 326.332 366.016 325.676 365.328C325.036 364.64 324.716 363.736 324.716 362.616C324.7 361.672 324.916 360.848 325.364 360.144C325.828 359.44 326.468 358.896 327.284 358.512C328.116 358.112 329.084 357.912 330.188 357.912C331.276 357.912 332.228 358.112 333.044 358.512C333.876 358.912 334.524 359.472 334.988 360.192C335.452 360.896 335.692 361.72 335.708 362.664H333.02C333.02 362.232 332.908 361.824 332.684 361.44C332.46 361.04 332.132 360.712 331.7 360.456C331.268 360.2 330.74 360.072 330.116 360.072C329.316 360.056 328.652 360.256 328.124 360.672C327.612 361.088 327.356 361.664 327.356 362.4C327.356 363.056 327.548 363.56 327.932 363.912C328.316 364.264 328.844 364.56 329.516 364.8C330.188 365.024 330.956 365.288 331.82 365.592C332.652 365.864 333.396 366.192 334.052 366.576C334.708 366.96 335.228 367.464 335.612 368.088C336.012 368.712 336.212 369.504 336.212 370.464C336.212 371.312 335.996 372.104 335.564 372.84C335.132 373.56 334.484 374.152 333.62 374.616C332.756 375.064 331.692 375.288 330.428 375.288ZM343.492 375L337.276 358.2H339.988L345.028 372.36L350.092 358.2H352.78L346.564 375H343.492ZM354.091 375L359.275 366.504L354.043 358.2H356.947L360.907 364.488L364.603 358.2H367.459L362.251 366.624L367.531 375H364.627L360.643 368.664L356.947 375H354.091ZM370.983 375.144C370.503 375.144 370.103 374.992 369.783 374.688C369.479 374.368 369.327 373.992 369.327 373.56C369.327 373.112 369.479 372.736 369.783 372.432C370.103 372.112 370.503 371.952 370.983 371.952C371.463 371.952 371.855 372.112 372.159 372.432C372.463 372.736 372.615 373.112 372.615 373.56C372.615 373.992 372.463 374.368 372.159 374.688C371.855 374.992 371.463 375.144 370.983 375.144Z" fill="#FCFCFC"/>
<path d="M102.824 260.384C101.181 260.384 99.7307 260.107 98.472 259.552C97.2133 258.976 96.2213 258.165 95.496 257.12C94.7707 256.053 94.3973 254.763 94.376 253.248H98.696C98.7387 254.293 99.112 255.179 99.816 255.904C100.541 256.608 101.533 256.96 102.792 256.96C103.88 256.96 104.744 256.704 105.384 256.192C106.024 255.659 106.344 254.955 106.344 254.08C106.344 253.163 106.056 252.448 105.48 251.936C104.925 251.424 104.179 251.008 103.24 250.688C102.301 250.368 101.299 250.027 100.232 249.664C98.504 249.067 97.1813 248.299 96.264 247.36C95.368 246.421 94.92 245.173 94.92 243.616C94.8987 242.293 95.208 241.163 95.848 240.224C96.5093 239.264 97.4053 238.528 98.536 238.016C99.6667 237.483 100.968 237.216 102.44 237.216C103.933 237.216 105.245 237.483 106.376 238.016C107.528 238.549 108.424 239.296 109.064 240.256C109.725 241.216 110.077 242.357 110.12 243.68H105.736C105.715 242.891 105.405 242.197 104.808 241.6C104.232 240.981 103.421 240.672 102.376 240.672C101.48 240.651 100.723 240.875 100.104 241.344C99.5067 241.792 99.208 242.453 99.208 243.328C99.208 244.075 99.4427 244.672 99.912 245.12C100.381 245.547 101.021 245.909 101.832 246.208C102.643 246.507 103.571 246.827 104.616 247.168C105.725 247.552 106.739 248 107.656 248.512C108.573 249.024 109.309 249.707 109.864 250.56C110.419 251.392 110.696 252.469 110.696 253.792C110.696 254.965 110.397 256.053 109.8 257.056C109.203 258.059 108.317 258.869 107.144 259.488C105.971 260.085 104.531 260.384 102.824 260.384ZM121.886 260.384C120.286 260.384 118.867 260.043 117.63 259.36C116.392 258.677 115.422 257.717 114.718 256.48C114.014 255.243 113.662 253.813 113.662 252.192C113.662 250.549 114.003 249.088 114.686 247.808C115.39 246.528 116.35 245.536 117.566 244.832C118.803 244.107 120.254 243.744 121.918 243.744C123.475 243.744 124.851 244.085 126.046 244.768C127.24 245.451 128.168 246.389 128.83 247.584C129.512 248.757 129.854 250.069 129.854 251.52C129.854 251.755 129.843 252 129.822 252.256C129.822 252.512 129.811 252.779 129.79 253.056H117.726C117.811 254.293 118.238 255.264 119.006 255.968C119.795 256.672 120.744 257.024 121.854 257.024C122.686 257.024 123.379 256.843 123.934 256.48C124.51 256.096 124.936 255.605 125.214 255.008H129.374C129.075 256.011 128.574 256.928 127.87 257.76C127.187 258.571 126.334 259.211 125.31 259.68C124.307 260.149 123.166 260.384 121.886 260.384ZM121.918 247.072C120.915 247.072 120.03 247.36 119.262 247.936C118.494 248.491 118.003 249.344 117.79 250.496H125.694C125.63 249.451 125.246 248.619 124.542 248C123.838 247.381 122.963 247.072 121.918 247.072ZM133.299 260V244.128H136.947L137.331 247.104C137.907 246.08 138.685 245.269 139.667 244.672C140.669 244.053 141.843 243.744 143.187 243.744V248.064H142.035C141.139 248.064 140.339 248.203 139.635 248.48C138.931 248.757 138.376 249.237 137.971 249.92C137.587 250.603 137.395 251.552 137.395 252.768V260H133.299ZM150.274 260L144.45 244.128H148.738L152.77 256.128L156.802 244.128H161.09L155.234 260H150.274ZM168.177 260.384C166.812 260.384 165.692 260.171 164.817 259.744C163.942 259.296 163.292 258.709 162.865 257.984C162.438 257.259 162.225 256.459 162.225 255.584C162.225 254.112 162.801 252.917 163.953 252C165.105 251.083 166.833 250.624 169.137 250.624H173.169V250.24C173.169 249.152 172.86 248.352 172.241 247.84C171.622 247.328 170.854 247.072 169.937 247.072C169.105 247.072 168.38 247.275 167.761 247.68C167.142 248.064 166.758 248.64 166.609 249.408H162.609C162.716 248.256 163.1 247.253 163.761 246.4C164.444 245.547 165.318 244.896 166.385 244.448C167.452 243.979 168.646 243.744 169.969 243.744C172.23 243.744 174.012 244.309 175.313 245.44C176.614 246.571 177.265 248.171 177.265 250.24V260H173.777L173.393 257.44C172.924 258.293 172.262 258.997 171.409 259.552C170.577 260.107 169.5 260.384 168.177 260.384ZM169.105 257.184C170.278 257.184 171.185 256.8 171.825 256.032C172.486 255.264 172.902 254.315 173.073 253.184H169.585C168.497 253.184 167.718 253.387 167.249 253.792C166.78 254.176 166.545 254.656 166.545 255.232C166.545 255.851 166.78 256.331 167.249 256.672C167.718 257.013 168.337 257.184 169.105 257.184ZM191.414 260.384C189.152 260.384 187.211 259.904 185.59 258.944C183.968 257.963 182.72 256.608 181.846 254.88C180.971 253.131 180.534 251.115 180.534 248.832C180.534 246.549 180.971 244.533 181.846 242.784C182.72 241.035 183.968 239.669 185.59 238.688C187.211 237.707 189.152 237.216 191.414 237.216C194.102 237.216 196.299 237.888 198.006 239.232C199.734 240.555 200.811 242.421 201.238 244.832H196.726C196.448 243.616 195.851 242.667 194.934 241.984C194.038 241.28 192.843 240.928 191.35 240.928C189.28 240.928 187.659 241.632 186.486 243.04C185.312 244.448 184.726 246.379 184.726 248.832C184.726 251.285 185.312 253.216 186.486 254.624C187.659 256.011 189.28 256.704 191.35 256.704C192.843 256.704 194.038 256.384 194.934 255.744C195.851 255.083 196.448 254.176 196.726 253.024H201.238C200.811 255.328 199.734 257.131 198.006 258.432C196.299 259.733 194.102 260.384 191.414 260.384ZM212.384 260.384C210.848 260.384 209.461 260.032 208.224 259.328C207.008 258.624 206.037 257.653 205.312 256.416C204.608 255.157 204.256 253.707 204.256 252.064C204.256 250.421 204.618 248.981 205.344 247.744C206.069 246.485 207.04 245.504 208.256 244.8C209.493 244.096 210.88 243.744 212.416 243.744C213.93 243.744 215.296 244.096 216.512 244.8C217.749 245.504 218.72 246.485 219.424 247.744C220.149 248.981 220.512 250.421 220.512 252.064C220.512 253.707 220.149 255.157 219.424 256.416C218.72 257.653 217.749 258.624 216.512 259.328C215.274 260.032 213.898 260.384 212.384 260.384ZM212.384 256.832C213.45 256.832 214.378 256.437 215.168 255.648C215.957 254.837 216.352 253.643 216.352 252.064C216.352 250.485 215.957 249.301 215.168 248.512C214.378 247.701 213.461 247.296 212.416 247.296C211.328 247.296 210.389 247.701 209.6 248.512C208.832 249.301 208.448 250.485 208.448 252.064C208.448 253.643 208.832 254.837 209.6 255.648C210.389 256.437 211.317 256.832 212.384 256.832ZM226.382 241.664C225.635 241.664 225.016 241.44 224.526 240.992C224.056 240.544 223.822 239.979 223.822 239.296C223.822 238.613 224.056 238.059 224.526 237.632C225.016 237.184 225.635 236.96 226.382 236.96C227.128 236.96 227.736 237.184 228.206 237.632C228.696 238.059 228.942 238.613 228.942 239.296C228.942 239.979 228.696 240.544 228.206 240.992C227.736 241.44 227.128 241.664 226.382 241.664ZM224.334 260V244.128H228.43V260H224.334ZM232.705 260V244.128H236.321L236.641 246.816C237.132 245.877 237.836 245.131 238.753 244.576C239.692 244.021 240.79 243.744 242.049 243.744C244.012 243.744 245.537 244.363 246.625 245.6C247.713 246.837 248.257 248.651 248.257 251.04V260H244.161V251.424C244.161 250.059 243.884 249.013 243.329 248.288C242.774 247.563 241.91 247.2 240.737 247.2C239.585 247.2 238.636 247.605 237.889 248.416C237.164 249.227 236.801 250.357 236.801 251.808V260H232.705Z" fill="#FCFCFC"/>
<path d="M953.404 368.286C953.404 374.129 950.429 380.069 944.247 385.858C938.06 391.652 928.911 397.036 917.307 401.632C894.118 410.816 861.838 416.576 826 416.576C790.162 416.576 757.882 410.816 734.693 401.632C723.089 397.036 713.94 391.652 707.753 385.858C701.571 380.069 698.596 374.129 698.596 368.286C698.596 362.443 701.571 356.503 707.753 350.715C713.94 344.92 723.089 339.537 734.693 334.94C757.882 325.756 790.162 319.996 826 319.996C861.838 319.996 894.118 325.756 917.307 334.94C928.911 339.537 938.06 344.92 944.247 350.715C950.429 356.503 953.404 362.443 953.404 368.286Z" fill="white" stroke="black" stroke-width="7.19216"/>
<path d="M953.404 339.517C953.404 345.02 950.486 350.678 944.301 356.24C938.117 361.802 928.966 366.975 917.352 371.392C894.15 380.219 861.853 385.753 826 385.753C790.147 385.753 757.85 380.219 734.648 371.392C723.034 366.975 713.883 361.802 707.699 356.24C701.514 350.678 698.596 345.02 698.596 339.517C698.596 334.014 701.514 328.357 707.699 322.795C713.883 317.233 723.034 312.06 734.648 307.642C757.85 298.816 790.147 293.282 826 293.282C861.853 293.282 894.15 298.816 917.352 307.642C928.966 312.06 938.117 317.233 944.301 322.795C950.486 328.357 953.404 334.014 953.404 339.517Z" fill="white" stroke="black" stroke-width="7.19216"/>
<path d="M800.828 355.132H817.414L826 346.414L834.586 355.132H851.173L835.025 339.876L851.173 324.62H834.586L826 333.337L817.414 324.62H800.828L816.975 339.876L800.828 355.132Z" fill="black"/>
<path d="M953.404 336.435V371.882" stroke="black" stroke-width="7.19216"/>
<path d="M932.341 364.69V392.945" stroke="black" stroke-width="7.19216"/>
<path d="M910.765 372.91V404.247" stroke="black" stroke-width="7.19216"/>
<path d="M889.188 377.02V412.467" stroke="black" stroke-width="7.19216"/>
<path d="M867.612 382.157V413.494" stroke="black" stroke-width="7.19216"/>
<path d="M846.036 384.212V419.659" stroke="black" stroke-width="7.19216"/>
<path d="M824.459 384.212V419.659" stroke="black" stroke-width="7.19216"/>
<path d="M802.882 384.212V417.604" stroke="black" stroke-width="7.19216"/>
<path d="M781.306 384.212V414.522" stroke="black" stroke-width="7.19216"/>
<path d="M759.729 377.02V412.467" stroke="black" stroke-width="7.19216"/>
<path d="M738.153 371.882V404.247" stroke="black" stroke-width="7.19216"/>
<path d="M716.577 360.581V392.945" stroke="black" stroke-width="7.19216"/>
<path d="M698.082 337.977V373.424" stroke="black" stroke-width="7.19216"/>
<path d="M953.404 319.996C953.404 325.839 950.429 331.779 944.247 337.568C938.06 343.362 928.911 348.746 917.307 353.342C894.118 362.526 861.838 368.286 826 368.286C790.162 368.286 757.882 362.526 734.693 353.342C723.089 348.746 713.94 343.362 707.753 337.568C701.571 331.779 698.596 325.839 698.596 319.996C698.596 314.153 701.571 308.213 707.753 302.425C713.94 296.63 723.089 291.247 734.693 286.65C757.882 277.466 790.162 271.706 826 271.706C861.838 271.706 894.118 277.466 917.307 286.65C928.911 291.247 938.06 296.63 944.247 302.425C950.429 308.213 953.404 314.153 953.404 319.996Z" fill="white" stroke="black" stroke-width="7.19216"/>
<path d="M953.404 291.227C953.404 296.73 950.486 302.388 944.301 307.95C938.117 313.511 928.966 318.684 917.352 323.102C894.15 331.929 861.853 337.463 826 337.463C790.147 337.463 757.85 331.929 734.648 323.102C723.034 318.684 713.883 313.511 707.699 307.95C701.514 302.388 698.596 296.73 698.596 291.227C698.596 285.724 701.514 280.067 707.699 274.505C713.883 268.943 723.034 263.77 734.648 259.352C757.85 250.526 790.147 244.992 826 244.992C861.853 244.992 894.15 250.526 917.352 259.352C928.966 263.77 938.117 268.943 944.301 274.505C950.486 280.067 953.404 285.724 953.404 291.227Z" fill="white" stroke="black" stroke-width="7.19216"/>
<path d="M800.828 306.841H817.414L826 298.124L834.586 306.841H851.173L835.025 291.585L851.173 276.329H834.586L826 285.047L817.414 276.329H800.828L816.975 291.585L800.828 306.841Z" fill="black"/>
<path d="M953.404 288.145V323.592" stroke="black" stroke-width="7.19216"/>
<path d="M932.341 316.4V344.655" stroke="black" stroke-width="7.19216"/>
<path d="M910.765 324.62V355.957" stroke="black" stroke-width="7.19216"/>
<path d="M889.188 328.729V364.176" stroke="black" stroke-width="7.19216"/>
<path d="M867.612 333.866V365.203" stroke="black" stroke-width="7.19216"/>
<path d="M846.036 335.921V371.368" stroke="black" stroke-width="7.19216"/>
<path d="M824.459 335.921V371.368" stroke="black" stroke-width="7.19216"/>
<path d="M802.882 335.921V369.314" stroke="black" stroke-width="7.19216"/>
<path d="M781.306 335.921V366.231" stroke="black" stroke-width="7.19216"/>
<path d="M759.729 328.729V364.176" stroke="black" stroke-width="7.19216"/>
<path d="M738.153 323.592V355.957" stroke="black" stroke-width="7.19216"/>
<path d="M716.577 312.29V344.655" stroke="black" stroke-width="7.19216"/>
<path d="M698.082 289.686V325.133" stroke="black" stroke-width="7.19216"/>
<path d="M953.404 268.623C953.404 274.466 950.429 280.406 944.247 286.195C938.06 291.989 928.911 297.372 917.307 301.969C894.118 311.153 861.838 316.913 826 316.913C790.162 316.913 757.882 311.153 734.693 301.969C723.089 297.372 713.94 291.989 707.753 286.195C701.571 280.406 698.596 274.466 698.596 268.623C698.596 262.78 701.571 256.84 707.753 251.051C713.94 245.257 723.089 239.874 734.693 235.277C757.882 226.093 790.162 220.333 826 220.333C861.838 220.333 894.118 226.093 917.307 235.277C928.911 239.874 938.06 245.257 944.247 251.051C950.429 256.84 953.404 262.78 953.404 268.623Z" fill="#54FF8E" stroke="black" stroke-width="7.19216"/>
<path d="M953.404 239.855C953.404 245.358 950.486 251.015 944.301 256.578C938.117 262.139 928.966 267.312 917.352 271.73C894.15 280.556 861.853 286.09 826 286.09C790.147 286.09 757.85 280.556 734.648 271.73C723.034 267.312 713.883 262.139 707.699 256.578C701.514 251.015 698.596 245.358 698.596 239.855C698.596 234.352 701.514 228.694 707.699 223.132C713.883 217.571 723.034 212.398 734.648 207.98C757.85 199.154 790.147 193.62 826 193.62C861.853 193.62 894.15 199.154 917.352 207.98C928.966 212.398 938.117 217.571 944.301 223.132C950.486 228.694 953.404 234.352 953.404 239.855Z" fill="#54FF8E" stroke="black" stroke-width="7.19216"/>
<path d="M800.824 247.203H817.413L826 243.301L834.587 247.203H851.176L835.026 240.375L851.176 233.548H834.587L826 237.449L817.413 233.548H800.824L816.974 240.375L800.824 247.203Z" fill="#0E0E0E"/>
<path d="M953.404 236.772V272.22" stroke="black" stroke-width="7.19216"/>
<path d="M932.341 265.027V293.282" stroke="black" stroke-width="7.19216"/>
<path d="M910.765 273.247V304.584" stroke="black" stroke-width="7.19216"/>
<path d="M889.188 277.356V312.804" stroke="black" stroke-width="7.19216"/>
<path d="M867.612 282.494V313.831" stroke="black" stroke-width="7.19216"/>
<path d="M846.036 284.549V319.996" stroke="black" stroke-width="7.19216"/>
<path d="M824.459 284.549V319.996" stroke="black" stroke-width="7.19216"/>
<path d="M802.882 284.549V317.941" stroke="black" stroke-width="7.19216"/>
<path d="M781.306 284.549V314.859" stroke="black" stroke-width="7.19216"/>
<path d="M759.729 277.356V312.804" stroke="black" stroke-width="7.19216"/>
<path d="M738.153 272.22V304.584" stroke="black" stroke-width="7.19216"/>
<path d="M716.577 260.917V293.282" stroke="black" stroke-width="7.19216"/>
<path d="M698.082 238.313V273.761" stroke="black" stroke-width="7.19216"/>
</svg>
